<svg width="155" height="155" viewBox="0 0 155 155" fill="none" xmlns="http://www.w3.org/2000/svg">
<path d="M49.9288 45.7757C49.4529 45.7934 48.9866 45.6399 48.6141 45.3433C48.2417 45.0466 47.9878 44.6264 47.8986 44.1587C47.8093 43.691 47.8906 43.2068 48.1276 42.7938C48.3646 42.3809 48.7417 42.0665 49.1906 41.9076C81.4468 30.4146 93.7934 26.9259 125.518 22.4186C125.777 22.3818 126.041 22.3964 126.294 22.4615C126.548 22.5267 126.786 22.6411 126.995 22.7983C127.204 22.9555 127.381 23.1524 127.514 23.3777C127.647 23.603 127.735 23.8523 127.771 24.1114C127.808 24.3706 127.794 24.6344 127.728 24.8879C127.663 25.1414 127.549 25.3796 127.392 25.5889C127.235 25.7981 127.038 25.9744 126.812 26.1076C126.587 26.2408 126.338 26.3283 126.079 26.3651C94.7048 30.8188 82.4819 34.2786 50.5267 45.6603C50.3342 45.7281 50.1327 45.7671 49.9288 45.7757Z" fill="#D18660" stroke="#45413C" stroke-width="2.42" stroke-linecap="round" stroke-linejoin="round"/>
<path d="M125.381 59.042C125.381 59.042 116.194 56.6213 114.152 47.6892C111.983 38.2045 119.88 28.3569 114.767 21.499" stroke="#45413C" stroke-width="2.42" stroke-linecap="round" stroke-linejoin="round"/>
<path d="M57.269 99.1829C80.0611 100.469 84.1437 87.6734 88.3664 95.723C91.719 102.107 77.294 109.876 56.6875 108.61L57.269 99.1829Z" fill="white" stroke="#45413C" stroke-width="2.42" stroke-linecap="round" stroke-linejoin="round"/>
<path d="M78.8103 61.9038C79.5572 61.9035 80.303 61.96 81.0413 62.0729C82.7993 66.8896 83.3732 72.0584 82.7143 77.1434C82.0555 82.2284 80.1832 87.0803 77.2556 91.2899C73.5041 90.8913 70.0484 89.0688 67.6006 86.1981C65.1528 83.3273 63.8994 79.627 64.0987 75.8597C64.298 72.0923 65.9348 68.5449 68.6719 65.9484C71.4089 63.352 75.0376 61.9044 78.8103 61.9038Z" fill="#E0E0E0"/>
<path d="M32.0109 92.461C29.3181 91.6363 26.9015 91.3105 25.2025 91.8383C22.2471 87.776 20.2914 83.0739 19.4944 78.1138C18.6974 73.1538 19.0815 68.0757 20.6156 63.292C22.1496 58.5083 24.7903 54.1538 28.3232 50.5823C31.8561 47.0107 36.1816 44.3228 40.9483 42.7369C45.7151 41.1509 50.7887 40.7116 55.7571 41.4546C60.7256 42.1976 65.4487 44.102 69.5429 47.0131C73.6371 49.9242 76.987 53.76 79.3205 58.2088C81.6539 62.6577 82.9052 67.5942 82.9726 72.6174H29.281C29.281 72.6174 28.6253 85.0836 32.0109 92.461Z" fill="#E0E0E0"/>
<path d="M25.0625 76.6381C25.0625 78.573 25.4436 80.489 26.1841 82.2767C26.9245 84.0643 28.0099 85.6886 29.3781 87.0568C30.7463 88.425 32.3706 89.5103 34.1582 90.2508C35.9459 90.9913 37.8618 91.3724 39.7968 91.3724C41.7317 91.3724 43.6477 90.9913 45.4353 90.2508C47.223 89.5103 48.8473 88.425 50.2155 87.0568C51.5837 85.6886 52.669 84.0643 53.4095 82.2767C54.1499 80.489 54.5311 78.573 54.5311 76.6381C54.5311 74.7032 54.1499 72.7872 53.4095 70.9995C52.669 69.2119 51.5837 67.5876 50.2155 66.2194C48.8473 64.8512 47.223 63.7659 45.4353 63.0254C43.6477 62.2849 41.7317 61.9038 39.7968 61.9038C37.8618 61.9038 35.9459 62.2849 34.1582 63.0254C32.3706 63.7659 30.7463 64.8512 29.3781 66.2194C28.0099 67.5876 26.9245 69.2119 26.1841 70.9995C25.4436 72.7872 25.0625 74.7032 25.0625 76.6381Z" fill="#E0E0E0"/>
<path d="M64.3073 120.627C64.3073 120.627 66.6125 120.189 67.7053 120.754C71.458 122.68 71.0043 125.806 69.1239 131.588C69.2889 131.621 75.0622 130.915 74.1425 135.427C73.9369 136.434 73.3397 137.319 72.4822 137.887C71.6247 138.454 70.577 138.658 69.5693 138.454L66.3197 137.629C64.7939 137.32 63.3465 136.157 63.2929 134.598C63.2186 132.47 62.8805 129.006 61.1897 127.942C55.536 129.018 46.8678 131.468 37.7543 130.907C38.9914 124.091 44.5132 114.927 42.5667 103.851C35.3128 101.852 28.9968 97.3579 24.7308 91.1598C20.4648 84.9618 18.5224 77.4573 19.2457 69.9678C19.969 62.4784 23.3116 55.4843 28.6849 50.2172C34.0581 44.95 41.1175 41.7476 48.6198 41.1738C56.1222 40.6 63.5865 42.6916 69.6982 47.0804C75.81 51.4691 80.1773 57.8736 82.0312 65.1659C83.885 72.4582 83.1065 80.1708 79.8326 86.9455C76.5588 93.7203 70.9997 99.1227 64.1341 102.201C65.1939 108.218 67.7094 114.305 64.3073 120.627Z" fill="white"/>
<path d="M24.7539 77.7434C24.7539 79.7097 25.1412 81.6568 25.8937 83.4734C26.6462 85.2901 27.7491 86.9408 29.1395 88.3312C30.5299 89.7216 32.1806 90.8245 33.9973 91.577C35.8139 92.3295 37.761 92.7168 39.7274 92.7168C41.6937 92.7168 43.6408 92.3295 45.4575 91.577C47.2741 90.8245 48.9248 89.7216 50.3152 88.3312C51.7056 86.9408 52.8086 85.2901 53.561 83.4734C54.3135 81.6568 54.7008 79.7097 54.7008 77.7434C54.7008 75.777 54.3135 73.8299 53.561 72.0133C52.8086 70.1966 51.7056 68.5459 50.3152 67.1555C48.9248 65.7651 47.2741 64.6622 45.4575 63.9097C43.6408 63.1572 41.6937 62.7699 39.7274 62.7699C37.761 62.7699 35.8139 63.1572 33.9973 63.9097C32.1806 64.6622 30.5299 65.7651 29.1395 67.1555C27.7491 68.5459 26.6462 70.1966 25.8937 72.0133C25.1412 73.8299 24.7539 75.777 24.7539 77.7434Z" fill="#E0E0E0"/>
<path d="M63.9345 77.3309C63.9346 80.9101 65.2164 84.3709 67.5478 87.0866C69.8792 89.8023 73.1061 91.5933 76.644 92.1353C79.763 87.9485 81.8075 83.0606 82.5984 77.9C83.3892 72.7393 82.9023 67.4635 81.1801 62.5348C79.0462 62.2075 76.8667 62.3451 74.7909 62.938C72.715 63.531 70.7917 64.5653 69.1526 65.9703C67.5134 67.3753 66.1971 69.1178 65.2937 71.0785C64.3902 73.0393 63.9209 75.172 63.918 77.3309H63.9345Z" fill="#E0E0E0"/>
<path d="M51.0352 41.1117C43.8757 41.1041 36.9213 43.502 31.2878 47.9205C25.6544 52.339 21.6687 58.522 19.9704 65.4771C18.272 72.4323 18.9595 79.7563 21.9224 86.274C24.8853 92.7916 29.952 98.1249 36.3092 101.418C27.9503 87.4383 38.3711 75.3597 38.3711 75.3597H82.908C82.9616 74.601 82.9904 73.8381 82.9904 73.0669C82.9926 68.8699 82.1676 64.7136 80.5624 60.8356C78.9573 56.9577 76.6036 53.4341 73.6358 50.4663C70.6681 47.4986 67.1445 45.1449 63.2665 43.5397C59.3886 41.9346 55.2323 41.1095 51.0352 41.1117Z" fill="#E0E0E0"/>
<path d="M64.3073 120.627C64.3073 120.627 66.6125 120.189 67.7053 120.754C71.458 122.68 71.0043 125.806 69.1239 131.588C69.2889 131.621 75.0622 130.915 74.1425 135.427C73.9369 136.434 73.3397 137.319 72.4822 137.887C71.6247 138.454 70.577 138.658 69.5693 138.454L66.3197 137.629C64.7939 137.32 63.3465 136.157 63.2929 134.598C63.2186 132.47 62.8805 129.006 61.1897 127.942C55.536 129.018 46.8678 131.468 37.7543 130.907C38.9914 124.091 44.5132 114.927 42.5667 103.851C35.3128 101.852 28.9968 97.3579 24.7308 91.1598C20.4648 84.9618 18.5224 77.4573 19.2457 69.9678C19.969 62.4784 23.3116 55.4843 28.6849 50.2172C34.0581 44.95 41.1175 41.7476 48.6198 41.1738C56.1222 40.6 63.5865 42.6916 69.6982 47.0804C75.81 51.4691 80.1773 57.8736 82.0312 65.1659C83.885 72.4582 83.1065 80.1708 79.8326 86.9455C76.5588 93.7203 70.9997 99.1227 64.1341 102.201C65.1939 108.218 67.7094 114.305 64.3073 120.627Z" stroke="#45413C" stroke-width="2.42" stroke-linecap="round" stroke-linejoin="round"/>
<path d="M61.1662 127.955C61.1662 127.955 63.2982 127.464 63.5704 126.969ZM39.7844 127.183C38.2586 128.973 35.9534 126.841 34.0606 125.369C32.8234 124.412 31.0172 124.771 29.7966 125.744L27.0872 127.715C26.6885 128.033 26.3562 128.426 26.1095 128.873C25.8628 129.319 25.7064 129.809 25.6494 130.316C25.5923 130.823 25.6357 131.336 25.7769 131.825C25.9182 132.315 26.1547 132.773 26.4728 133.171C29.3594 136.771 32.5059 131.897 32.6378 131.79C37.0915 135.74 40.2957 136.276 43.4504 134.338C45.6278 133.068 47.2237 130.214 46.968 126.961" fill="white"/>
<path d="M61.1662 127.955C61.1662 127.955 63.2982 127.464 63.5704 126.969M39.7844 127.183C38.2586 128.973 35.9534 126.841 34.0606 125.369C32.8234 124.412 31.0172 124.771 29.7966 125.744L27.0872 127.715C26.6885 128.033 26.3562 128.426 26.1095 128.873C25.8628 129.319 25.7064 129.809 25.6494 130.316C25.5923 130.823 25.6357 131.336 25.7769 131.825C25.9182 132.315 26.1547 132.773 26.4728 133.171C29.3594 136.771 32.5059 131.897 32.6378 131.79C37.0915 135.74 40.2957 136.276 43.4504 134.338C45.6278 133.068 47.2237 130.214 46.968 126.961" stroke="#45413C" stroke-width="2.42" stroke-linecap="round" stroke-linejoin="round"/>
<path d="M47.8398 41.1117C47.8398 41.5314 47.9225 41.947 48.0831 42.3347C48.2437 42.7225 48.4791 43.0748 48.7759 43.3716C49.0727 43.6683 49.425 43.9038 49.8127 44.0644C50.2005 44.225 50.6161 44.3076 51.0358 44.3076C51.4555 44.3076 51.8711 44.225 52.2588 44.0644C52.6466 43.9038 52.9989 43.6683 53.2956 43.3716C53.5924 43.0748 53.8278 42.7225 53.9884 42.3347C54.149 41.947 54.2317 41.5314 54.2317 41.1117C54.2317 40.692 54.149 40.2764 53.9884 39.8887C53.8278 39.5009 53.5924 39.1486 53.2956 38.8518C52.9989 38.5551 52.6466 38.3197 52.2588 38.159C51.8711 37.9984 51.4555 37.9158 51.0358 37.9158C50.6161 37.9158 50.2005 37.9984 49.8127 38.159C49.425 38.3197 49.0727 38.5551 48.7759 38.8518C48.4791 39.1486 48.2437 39.5009 48.0831 39.8887C47.9225 40.2764 47.8398 40.692 47.8398 41.1117Z" fill="#FF512E" stroke="#45413C" stroke-width="2.42" stroke-linecap="round" stroke-linejoin="round"/>
<path d="M8.55607 65.0668H20.1027C21.9781 57.805 26.3487 51.4345 32.449 47.0712C38.5492 42.7079 45.9901 40.6299 53.4684 41.2013C60.9467 41.7726 67.9856 44.9569 73.3521 50.1963C78.7187 55.4357 82.0708 62.3962 82.8213 69.8586H8.55607C7.92064 69.8586 7.31123 69.6062 6.8619 69.1569C6.41258 68.7075 6.16016 68.0981 6.16016 67.4627C6.16016 66.8273 6.41258 66.2178 6.8619 65.7685C7.31123 65.3192 7.92064 65.0668 8.55607 65.0668Z" fill="#FF866E"/>
<path d="M44.1004 42.9963C42.5227 42.9961 40.9467 43.1008 39.3828 43.3097C43.9742 41.5164 48.9181 40.8089 53.8282 41.2427C58.7383 41.6764 63.4816 43.2396 67.6875 45.8101C71.8934 48.3806 75.448 51.8888 78.0736 56.0606C80.6991 60.2323 82.3245 64.9547 82.8228 69.8586H78.0845C76.2638 62.2129 71.92 55.4037 65.7541 50.53C59.5882 45.6562 51.9599 43.0022 44.1004 42.9963Z" fill="#FFCABF"/>
<path d="M8.55607 65.0668H20.1027C21.9781 57.805 26.3487 51.4345 32.449 47.0712C38.5492 42.7079 45.9901 40.6299 53.4684 41.2013C60.9467 41.7726 67.9856 44.9569 73.3521 50.1963C78.7187 55.4357 82.0708 62.3962 82.8213 69.8586H8.55607C7.92064 69.8586 7.31123 69.6062 6.8619 69.1569C6.41258 68.7075 6.16016 68.0981 6.16016 67.4627C6.16016 66.8273 6.41258 66.2178 6.8619 65.7685C7.31123 65.3192 7.92064 65.0668 8.55607 65.0668Z" stroke="#45413C" stroke-width="2.42" stroke-linecap="round" stroke-linejoin="round"/>
<path d="M65.7087 65.8626C65.7087 64.5918 65.2038 63.3729 64.3052 62.4743C63.4065 61.5757 62.1877 61.0708 60.9168 61.0708C59.646 61.0708 58.4271 61.5757 57.5285 62.4743C56.6299 63.3729 56.125 64.5918 56.125 65.8626H65.7087Z" fill="#E0E0E0" stroke="#45413C" stroke-width="2.42" stroke-linecap="round" stroke-linejoin="round"/>
<path d="M56.1231 65.8627H54.1272C53.7035 65.8638 53.2976 66.0328 52.9984 66.3328C52.6993 66.6327 52.5312 67.0391 52.5313 67.4627V69.8586" stroke="#45413C" stroke-width="2.42" stroke-linecap="round" stroke-linejoin="round"/>
<path d="M55.5273 67.8627C55.5273 68.0213 55.5903 68.1734 55.7025 68.2855C55.8146 68.3977 55.9667 68.4607 56.1253 68.4607C56.2839 68.4607 56.436 68.3977 56.5481 68.2855C56.6602 68.1734 56.7232 68.0213 56.7232 67.8627C56.7232 67.7041 56.6602 67.552 56.5481 67.4399C56.436 67.3278 56.2839 67.2648 56.1253 67.2648C55.9667 67.2648 55.8146 67.3278 55.7025 67.4399C55.5903 67.552 55.5273 67.7041 55.5273 67.8627Z" fill="#45413C"/>
<path d="M58.7227 67.8627C58.7227 68.0213 58.7857 68.1734 58.8978 68.2855C59.0099 68.3977 59.162 68.4607 59.3206 68.4607C59.4792 68.4607 59.6313 68.3977 59.7434 68.2855C59.8556 68.1734 59.9186 68.0213 59.9186 67.8627C59.9186 67.7041 59.8556 67.552 59.7434 67.4399C59.6313 67.3278 59.4792 67.2648 59.3206 67.2648C59.162 67.2648 59.0099 67.3278 58.8978 67.4399C58.7857 67.552 58.7227 67.7041 58.7227 67.8627Z" fill="#45413C"/>
<path d="M61.9141 67.8627C61.9141 68.0213 61.9771 68.1734 62.0892 68.2855C62.2013 68.3977 62.3534 68.4607 62.512 68.4607C62.6706 68.4607 62.8227 68.3977 62.9348 68.2855C63.047 68.1734 63.11 68.0213 63.11 67.8627C63.11 67.7041 63.047 67.552 62.9348 67.4399C62.8227 67.3278 62.6706 67.2648 62.512 67.2648C62.3534 67.2648 62.2013 67.3278 62.0892 67.4399C61.9771 67.552 61.9141 67.7041 61.9141 67.8627Z" fill="#45413C"/>
<path d="M19.6172 67.2606C19.7519 66.5349 19.91 65.8173 20.0914 65.108Z" fill="white"/>
<path d="M19.6172 67.2606C19.7519 66.5349 19.91 65.8173 20.0914 65.108" stroke="#45413C" stroke-width="2.42" stroke-linecap="round" stroke-linejoin="round"/>
<path d="M63.9721 84.0403C63.9721 86.6878 62.1824 88.8321 59.9803 88.8321C57.7782 88.8321 55.9844 86.6878 55.9844 84.0403H63.9721Z" fill="#FFA694" stroke="#45413C" stroke-width="2.42" stroke-linecap="round" stroke-linejoin="round"/>
<path d="M64.5078 75.6815C64.5078 79.2819 65.9381 82.7349 68.484 85.2808C71.0299 87.8267 74.4829 89.2569 78.0833 89.2569C81.6838 89.2569 85.1367 87.8267 87.6826 85.2808C90.2285 82.7349 91.6588 79.2819 91.6588 75.6815C91.6588 72.081 90.2285 68.628 87.6826 66.0821C85.1367 63.5362 81.6838 62.106 78.0833 62.106C74.4829 62.106 71.0299 63.5362 68.484 66.0821C65.9381 68.628 64.5078 72.081 64.5078 75.6815Z" fill="white" stroke="#45413C" stroke-width="2.42" stroke-linecap="round" stroke-linejoin="round"/>
<path d="M82.9609 73.7474C82.9609 74.1707 83.1291 74.5766 83.4284 74.8759C83.7277 75.1752 84.1336 75.3433 84.5568 75.3433C84.9801 75.3433 85.386 75.1752 85.6853 74.8759C85.9846 74.5766 86.1527 74.1707 86.1527 73.7474C86.1527 73.3241 85.9846 72.9182 85.6853 72.6189C85.386 72.3196 84.9801 72.1515 84.5568 72.1515C84.1336 72.1515 83.7277 72.3196 83.4284 72.6189C83.1291 72.9182 82.9609 73.3241 82.9609 73.7474Z" fill="#45413C"/>
<path d="M26.9766 75.6815C26.9766 77.4642 27.3277 79.2295 28.0099 80.8766C28.6922 82.5236 29.6921 84.0202 30.9527 85.2808C32.2133 86.5414 33.7099 87.5413 35.3569 88.2236C37.004 88.9058 38.7693 89.2569 40.5521 89.2569C42.3348 89.2569 44.1001 88.9058 45.7472 88.2236C47.3942 87.5413 48.8908 86.5414 50.1514 85.2808C51.412 84.0202 52.412 82.5236 53.0942 80.8766C53.7764 79.2295 54.1276 77.4642 54.1276 75.6815C54.1276 72.081 52.6973 68.628 50.1514 66.0821C47.6055 63.5362 44.1525 62.106 40.5521 62.106C36.9516 62.106 33.4986 63.5362 30.9527 66.0821C28.4068 68.628 26.9766 72.081 26.9766 75.6815Z" fill="white" stroke="#45413C" stroke-width="2.42" stroke-linecap="round" stroke-linejoin="round"/>
<path d="M45.4297 73.7474C45.4297 73.957 45.471 74.1645 45.5512 74.3581C45.6314 74.5517 45.7489 74.7277 45.8971 74.8759C46.0453 75.0241 46.2212 75.1416 46.4149 75.2218C46.6085 75.302 46.816 75.3433 47.0256 75.3433C47.2352 75.3433 47.4427 75.302 47.6363 75.2218C47.8299 75.1416 48.0059 75.0241 48.1541 74.8759C48.3023 74.7277 48.4198 74.5517 48.5 74.3581C48.5802 74.1645 48.6215 73.957 48.6215 73.7474C48.6215 73.5378 48.5802 73.3303 48.5 73.1367C48.4198 72.943 48.3023 72.7671 48.1541 72.6189C48.0059 72.4707 47.8299 72.3532 47.6363 72.273C47.4427 72.1928 47.2352 72.1515 47.0256 72.1515C46.816 72.1515 46.6085 72.1928 46.4149 72.273C46.2212 72.3532 46.0453 72.4707 45.8971 72.6189C45.7489 72.7671 45.6314 72.943 45.5512 73.1367C45.471 73.3303 45.4297 73.5378 45.4297 73.7474Z" fill="#45413C"/>
<path d="M61.4173 103.566C61.3877 103.458 61.3364 103.357 61.2666 103.27C61.1967 103.182 61.1097 103.11 61.0109 103.057C60.9121 103.004 60.8036 102.972 60.692 102.962C60.5803 102.953 60.4679 102.966 60.3616 103.001C58.6051 103.557 56.7728 103.835 54.9306 103.826C54.7798 103.831 54.6332 103.877 54.5066 103.959C54.3801 104.041 54.2786 104.156 54.213 104.292C54.1497 104.429 54.1251 104.58 54.1418 104.73C54.1585 104.88 54.216 105.022 54.3079 105.142C55.3182 106.416 57.1244 108.107 59.409 107.748C61.974 107.336 61.7431 104.907 61.4173 103.566Z" fill="#E0E0E0"/>
<path d="M86.9876 61.6234C88.6371 59.9491 91.3753 61.1203 91.5897 63.3554M29.9928 61.6234C28.3433 59.9491 25.6009 61.1203 25.3906 63.3554" stroke="#45413C" stroke-width="2.42" stroke-linecap="round" stroke-linejoin="round"/>
<path d="M54.5021 103.517C74.4283 103.129 78.4201 91.9704 82.5439 99.8056C86.0408 106.466 70.9973 114.569 49.5 113.249" fill="white"/>
<path d="M54.5021 103.517C74.4283 103.129 78.4201 91.9704 82.5439 99.8056C86.0408 106.466 70.9973 114.569 49.5 113.249" stroke="#45413C" stroke-width="2.42" stroke-linecap="round" stroke-linejoin="round"/>
<path d="M47.083 104.767C45.5513 104.574 44.0354 104.273 42.5469 103.863" stroke="#45413C" stroke-width="2.42" stroke-linecap="round" stroke-linejoin="round"/>
<path d="M130.48 55.776C130.438 55.5704 130.316 55.3899 130.142 55.2739C129.967 55.158 129.753 55.116 129.548 55.1574L98.2318 61.4833C98.026 61.526 97.8454 61.6484 97.7295 61.8238C97.6136 61.9992 97.5718 62.2133 97.6133 62.4194L101.077 79.5619C101.126 79.8031 101.268 80.015 101.473 80.1511C101.678 80.2872 101.929 80.3363 102.17 80.2877L134.129 73.8299L130.48 55.776Z" fill="#6DD627" stroke="#45413C" stroke-width="2.42" stroke-linecap="round" stroke-linejoin="round"/>
<path d="M145.359 52.7573C145.338 52.6552 145.298 52.5581 145.241 52.4715C145.183 52.3849 145.108 52.3105 145.022 52.2527C144.935 52.1948 144.838 52.1547 144.736 52.1344C144.634 52.1141 144.529 52.1142 144.427 52.1346L116.22 57.8378C116.015 57.8796 115.834 58.0012 115.718 58.1759C115.602 58.3506 115.56 58.5642 115.601 58.7698L119.065 75.9165C119.115 76.1571 119.258 76.3683 119.463 76.5042C119.667 76.6401 119.917 76.6898 120.158 76.6423L148.101 70.9927C148.342 70.9466 148.555 70.8073 148.694 70.605C148.833 70.4028 148.887 70.1538 148.843 69.9123L145.359 52.7573Z" fill="#9CEB60" stroke="#45413C" stroke-width="2.42" stroke-linecap="round" stroke-linejoin="round"/>
<path d="M98.6328 67.4462L108.6 65.4338M147.978 65.7266L142.737 66.7864M111.85 68.0978L121.94 66.0565" stroke="#45413C" stroke-width="2.42" stroke-linecap="round" stroke-linejoin="round"/>
<path d="M102.305 66.704L106.292 70.3453L108.598 65.4338L102.305 66.704Z" fill="#46B000" stroke="#45413C" stroke-width="2.42" stroke-linecap="round" stroke-linejoin="round"/>
<path d="M124.945 56.077L135.705 53.9012L139.512 72.7329L128.752 74.9082L124.945 56.077Z" fill="#F0FFE5" stroke="#45413C" stroke-width="2.42" stroke-linecap="round" stroke-linejoin="round"/>
<path d="M113.848 88.4775C114.908 88.885 116.08 88.8901 117.144 88.492C118.208 88.0939 119.089 87.3201 119.621 86.3167" stroke="#8CA4B8" stroke-width="2.42" stroke-linecap="round" stroke-linejoin="round"/>
<path d="M143.432 93.8261C135.787 101.418 129.725 104.098 119.061 105.954L111.988 93.5828C122.908 90.4034 129.073 87.6528 136.36 81.4424L143.432 93.8261Z" fill="#C8FFA1"/>
<path d="M125.342 95.8472C125.501 96.5522 125.968 97.1574 126.639 97.5296C127.31 97.9018 128.13 98.0104 128.92 97.8317C129.709 97.6529 130.403 97.2014 130.848 96.5764C131.293 95.9515 131.454 95.2042 131.294 94.4992C131.134 93.7941 130.668 93.1889 129.997 92.8167C129.326 92.4446 128.505 92.3359 127.716 92.5147C126.926 92.6934 126.233 93.1449 125.788 93.7699C125.342 94.3949 125.182 95.1421 125.342 95.8472Z" fill="#6DD627"/>
<path d="M111.988 93.6075L115.65 100.004L119.799 91.1085C117.456 91.9333 114.891 92.758 111.988 93.6075ZM139.915 87.6816L137.638 98.8489C139.694 97.3237 141.631 95.6446 143.432 93.8261L139.915 87.6816Z" fill="#6DD627"/>
<path d="M143.432 93.8261C135.787 101.418 129.725 104.098 119.061 105.954L111.988 93.5828C122.908 90.4034 129.073 87.6528 136.36 81.4424L143.432 93.8261Z" stroke="#45413C" stroke-width="2.42" stroke-linecap="round" stroke-linejoin="round"/>
<path d="M136.859 124.54C128.447 126.433 123.371 125.55 115.828 121.954L119.791 114.771C128.138 117.55 133.309 118.433 140.822 117.356L136.859 124.54Z" fill="#C8FFA1" stroke="#45413C" stroke-width="2.42" stroke-linecap="round" stroke-linejoin="round"/>
<path d="M125.301 121.039C125.301 121.508 125.548 121.958 125.987 122.29C126.426 122.622 127.022 122.808 127.643 122.808C128.264 122.808 128.86 122.622 129.299 122.29C129.739 121.958 129.985 121.508 129.985 121.039C129.985 120.57 129.739 120.12 129.299 119.788C128.86 119.456 128.264 119.27 127.643 119.27C127.022 119.27 126.426 119.456 125.987 119.788C125.548 120.12 125.301 120.57 125.301 121.039Z" fill="#6DD627"/>
</svg>
