<svg width="155" height="155" viewBox="0 0 155 155" fill="none" xmlns="http://www.w3.org/2000/svg">
<path d="M47.8524 99.9912C47.8661 100.002 47.8773 100.016 47.8851 100.031C47.893 100.047 47.8973 100.064 47.8977 100.082C47.8967 100.099 47.8921 100.115 47.8843 100.13C47.8765 100.145 47.8656 100.158 47.8524 100.168L6.7135 133.336C6.59773 133.425 6.46133 133.483 6.31708 133.504C6.17283 133.526 6.02545 133.511 5.88874 133.46C5.75424 133.416 5.63645 133.333 5.55154 133.22C5.46663 133.107 5.41876 132.97 5.41451 132.829C5.41451 131.414 5.41451 130.074 5.44337 128.734C5.44337 128.532 5.76091 128.297 5.99184 128.14C9.32385 125.897 12.6682 123.674 15.9961 121.431C19.0354 119.369 22.0457 117.307 25.0685 115.266C32.5957 110.202 40.1244 105.14 47.6544 100.082C47.7178 100.046 47.784 100.016 47.8524 99.9912ZM5.39801 32.3075C5.40165 32.1722 5.44504 32.0411 5.52278 31.9303C5.60052 31.8196 5.70916 31.7342 5.83513 31.6848C5.96762 31.6271 6.11239 31.6033 6.25638 31.6155C6.40037 31.6277 6.53905 31.6757 6.65989 31.7549L51.8937 61.9163C51.9134 61.9275 51.9304 61.9429 51.9438 61.9612C51.9571 61.9795 51.9665 62.0005 51.9711 62.0227C51.9758 62.0449 51.9757 62.0678 51.9709 62.09C51.9661 62.1122 51.9566 62.1331 51.9432 62.1513C51.1926 61.7389 50.4339 61.3472 49.6916 60.9142C42.9368 57.1038 36.1876 53.2852 29.4438 49.4583C25.4726 47.215 21.4725 45.0046 17.4848 42.7778L6.0207 36.3777C5.81414 36.2872 5.64104 36.1344 5.52568 35.9407C5.41031 35.7469 5.35846 35.5219 5.37739 35.2972C5.41038 34.3199 5.40626 33.3426 5.39801 32.3075ZM144.963 14.5422C145.111 14.5395 145.256 14.5762 145.385 14.6488C145.513 14.7213 145.62 14.8269 145.693 14.9546C145.755 15.0791 145.774 15.2209 145.745 15.3571C145.717 15.4933 145.643 15.6159 145.537 15.7051L101.738 55.1656C101.701 55.1962 101.655 55.2129 101.608 55.2129C101.56 55.2129 101.514 55.1962 101.478 55.1656C102.538 54.077 103.594 52.9841 104.662 51.8955C107.724 48.7696 110.792 45.6438 113.866 42.518C119.326 36.9509 124.786 31.3865 130.246 25.8249C133.499 22.5259 136.844 19.2681 139.961 15.866C140.37 15.3556 140.905 14.9605 141.513 14.7197C142.121 14.4789 142.782 14.4007 143.429 14.4928C143.928 14.5422 144.431 14.5505 144.963 14.5422ZM112.637 58.5925C112.617 58.5748 112.601 58.5524 112.592 58.5272C112.582 58.5019 112.58 58.4748 112.583 58.4482C112.588 58.421 112.599 58.3951 112.614 58.3724C112.63 58.3496 112.65 58.3305 112.674 58.3162L148.374 36.2622C148.497 36.1869 148.636 36.1431 148.78 36.1344C148.924 36.1258 149.067 36.1527 149.198 36.2127C149.319 36.2637 149.422 36.3485 149.495 36.4568C149.568 36.5651 149.608 36.6923 149.611 36.823C149.611 37.8169 149.611 38.7571 149.582 39.7097C149.582 39.9035 149.244 40.1468 149.001 40.2664C142.378 43.6067 135.749 46.9414 129.116 50.2707C123.829 52.9347 118.563 55.6316 113.284 58.3121C113.074 58.3987 112.851 58.4935 112.637 58.5925ZM15.724 15.668C15.6231 15.5764 15.5548 15.4543 15.5295 15.3204C15.5042 15.1864 15.5232 15.0479 15.5838 14.9258C15.6568 14.7993 15.7621 14.6945 15.8888 14.622C16.0156 14.5496 16.1594 14.5121 16.3054 14.5134C17.2621 14.5134 18.1529 14.5134 19.0395 14.534C19.3239 14.5592 19.59 14.6849 19.79 14.8886C25.0657 20.8021 30.3304 26.7225 35.5841 32.6498L46.9822 45.4912C47.0771 45.5985 47.1637 45.7139 47.2544 45.8335C47.2696 45.8543 47.2802 45.8779 47.2858 45.903C47.2913 45.9281 47.2915 45.9541 47.2865 45.9793C47.2815 46.0045 47.2712 46.0284 47.2565 46.0494C47.2417 46.0705 47.2228 46.0882 47.2008 46.1016L15.724 15.668ZM149.615 122.911C149.611 123.046 149.567 123.178 149.489 123.288C149.41 123.398 149.3 123.482 149.174 123.53C149.041 123.586 148.896 123.608 148.752 123.595C148.608 123.582 148.47 123.534 148.349 123.455L116.414 101.686C116.383 101.666 116.361 101.634 116.354 101.598C116.346 101.561 116.353 101.523 116.373 101.492C117.153 101.905 117.94 102.292 118.711 102.729C125.034 106.193 131.367 109.661 137.71 113.134C141.558 115.245 145.394 117.365 149.215 119.493C149.316 119.555 149.403 119.638 149.47 119.737C149.536 119.836 149.58 119.948 149.598 120.066C149.619 120.989 149.619 121.921 149.615 122.911ZM12.4703 140.594C12.3231 140.599 12.1774 140.563 12.0494 140.49C11.9213 140.417 11.8158 140.31 11.7445 140.182C11.6848 140.057 11.6674 139.916 11.6949 139.781C11.7225 139.645 11.7934 139.522 11.8971 139.431L53.7411 100.919C53.7821 100.886 53.833 100.868 53.8855 100.868C53.9379 100.868 53.9888 100.886 54.0298 100.919L51.5555 103.393C48.3513 106.581 45.1348 109.765 41.9389 112.96C36.8611 118.035 31.7916 123.121 26.7303 128.218C23.7365 131.212 20.7137 134.186 17.7158 137.171C16.7302 138.149 15.8023 139.167 14.792 140.12C14.4733 140.393 14.0764 140.559 13.658 140.594H12.4703ZM5.41451 19.7671C5.42249 19.6262 5.47282 19.491 5.5589 19.3791C5.64498 19.2673 5.76282 19.184 5.89699 19.1403C6.03824 19.0874 6.19081 19.0721 6.33974 19.096C6.48866 19.1198 6.62883 19.182 6.74649 19.2763L49.1761 54.8192C49.1929 54.8343 49.2063 54.8528 49.2155 54.8734C49.2247 54.894 49.2294 54.9163 49.2294 54.9388C49.2294 54.9614 49.2247 54.9837 49.2155 55.0043C49.2063 55.0249 49.1929 55.0433 49.1761 55.0584C48.2029 54.3161 47.2297 53.5821 46.2647 52.8357C41.8481 49.4294 37.4439 46.0067 33.0191 42.6087C27.9427 38.7117 22.8375 34.8436 17.7611 30.9467C13.8971 27.9569 10.0496 24.9507 6.15679 21.9774C5.60833 21.565 5.29079 21.1527 5.3609 20.4681C5.40214 20.2331 5.41038 19.9939 5.41451 19.7671ZM84.9953 14.567C85.1042 14.5653 85.2124 14.5852 85.3137 14.6255C85.4149 14.6658 85.5071 14.7258 85.585 14.802C85.6567 14.8709 85.7112 14.9557 85.7442 15.0496C85.7771 15.1434 85.7876 15.2436 85.7747 15.3423C84.0399 27.4112 82.308 39.443 80.5787 51.4377C80.5697 51.4838 80.5432 51.5245 80.5047 51.5515C80.4663 51.5784 80.4189 51.5893 80.3725 51.5821C81.0378 39.4856 81.7004 27.3658 82.3602 15.2227C82.3839 15.0339 82.4785 14.8612 82.6247 14.7395C82.7709 14.6177 82.9579 14.5561 83.1478 14.567H84.9953ZM99.5811 107.364C99.6223 107.341 99.6699 107.331 99.7172 107.336C99.7635 107.343 99.8058 107.366 99.8368 107.402L124.641 139.501C124.721 139.599 124.768 139.72 124.776 139.846C124.785 139.973 124.753 140.099 124.687 140.206C124.614 140.322 124.512 140.417 124.391 140.482C124.27 140.547 124.135 140.58 123.998 140.577C123.297 140.577 122.641 140.577 121.99 140.544C121.746 140.544 121.454 140.231 121.301 140C119.165 136.804 117.062 133.592 114.93 130.392C112.051 126.07 109.165 121.754 106.27 117.443L99.6718 107.624C99.6308 107.542 99.6003 107.455 99.5811 107.364ZM53.9143 140.062C53.8538 140.21 53.7495 140.336 53.6153 140.423C53.4812 140.51 53.3236 140.554 53.1638 140.549H51.238C51.1124 140.55 50.988 140.523 50.8743 140.47C50.7607 140.416 50.6608 140.337 50.5823 140.239C50.5111 140.149 50.4668 140.04 50.4544 139.926C50.442 139.811 50.4621 139.695 50.5122 139.592L64.03 111.051C64.058 110.999 64.1036 110.958 64.1587 110.936C64.2137 110.915 64.2748 110.913 64.331 110.932C60.8615 120.631 57.3893 130.341 53.9143 140.062ZM138.407 139.439C138.506 139.532 138.572 139.655 138.594 139.789C138.617 139.924 138.594 140.061 138.53 140.182C138.46 140.309 138.355 140.415 138.229 140.488C138.102 140.56 137.959 140.597 137.813 140.594C137.421 140.594 137.05 140.594 136.675 140.557C136.341 140.489 136.039 140.312 135.817 140.054C133.846 137.913 131.907 135.748 129.945 133.604C125.821 129.084 121.687 124.566 117.544 120.049C114.52 116.734 111.507 113.41 108.505 110.078C108.495 110.069 108.486 110.058 108.48 110.046C108.475 110.033 108.472 110.019 108.472 110.006C108.472 109.992 108.475 109.978 108.48 109.966C108.486 109.954 108.495 109.943 108.505 109.934C108.528 109.915 108.557 109.905 108.587 109.905C108.617 109.905 108.647 109.915 108.67 109.934L138.407 139.439ZM90.6944 47.1366C90.6781 47.1339 90.6626 47.1276 90.649 47.1184C90.6354 47.1091 90.6238 47.0971 90.6152 47.083C90.6067 47.069 90.6012 47.0532 90.5992 47.0368C90.5972 47.0205 90.5987 47.0039 90.6036 46.9882C90.9005 46.0933 91.1727 45.1902 91.4985 44.3036C92.3851 41.8953 93.2923 39.4953 94.1954 37.0911C95.1398 34.588 96.1006 32.0889 97.0367 29.5858C98.4718 25.7534 99.8973 21.9211 101.313 18.0887C101.676 17.1114 102.022 16.134 102.398 15.1567C102.418 15.0464 102.46 14.9413 102.522 14.8479C102.584 14.7545 102.664 14.6747 102.758 14.6133C102.851 14.552 102.957 14.5103 103.067 14.491C103.178 14.4717 103.291 14.4751 103.4 14.501C103.731 14.5343 104.065 14.5467 104.398 14.5381C104.523 14.5342 104.648 14.5589 104.762 14.6104C104.876 14.6618 104.977 14.7386 105.057 14.835C105.13 14.9245 105.176 15.0326 105.191 15.147C105.206 15.2614 105.188 15.3776 105.14 15.4825C100.295 26.093 95.4944 36.6169 90.6944 47.1366ZM40.5162 140.565C40.3836 140.567 40.2525 140.537 40.1341 140.477C40.0156 140.418 39.9133 140.33 39.8357 140.223C39.7661 140.121 39.7288 140 39.7288 139.876C39.7288 139.753 39.7661 139.632 39.8357 139.53L56.5742 113.686C56.5991 113.651 56.6355 113.626 56.677 113.616C56.7185 113.605 56.7624 113.61 56.801 113.629L53.6422 119.509L46.6317 132.491C45.275 134.994 43.91 137.493 42.5657 140.004C42.4868 140.204 42.3422 140.372 42.1556 140.479C41.969 140.586 41.7515 140.627 41.5389 140.594C41.2089 140.565 40.8708 140.561 40.5162 140.565ZM5.41863 63.5782C5.42018 63.4697 5.44847 63.3632 5.50098 63.2683C5.55349 63.1733 5.6286 63.0928 5.71967 63.0338C5.81881 62.9682 5.93009 62.923 6.04695 62.9011C6.16381 62.8791 6.28388 62.8808 6.40009 62.906L37.7615 69.8422C37.7871 69.847 37.8115 69.857 37.8331 69.8717C37.8547 69.8863 37.873 69.9053 37.8869 69.9273C37.9009 69.9494 37.9101 69.9741 37.9141 69.9999C37.918 70.0257 37.9166 70.052 37.9099 70.0772L35.2212 69.6649C32.8995 69.302 30.5778 68.9432 28.2561 68.5721C26.0499 68.2174 23.8437 67.8463 21.6333 67.4957C18.8457 67.0504 16.0497 66.6339 13.2662 66.1844C11.1095 65.838 8.95684 65.4503 6.80422 65.0875C6.3671 65.0132 5.92586 64.9637 5.48874 64.8936C5.45162 64.8936 5.41038 64.8153 5.41038 64.774C5.41863 64.3699 5.41863 63.9905 5.41863 63.5782ZM149.627 110.651C149.6 110.755 149.549 110.852 149.477 110.932C149.405 111.012 149.316 111.074 149.215 111.113C149.109 111.156 148.995 111.176 148.881 111.172C148.767 111.169 148.654 111.142 148.551 111.092L114.736 94.8653C114.711 94.8546 114.687 94.8389 114.668 94.8189C114.649 94.799 114.634 94.7754 114.625 94.7495C114.615 94.7236 114.611 94.696 114.612 94.6684C114.614 94.6408 114.621 94.6138 114.633 94.589C115.458 94.923 116.249 95.2488 117.049 95.5952C123.175 98.2427 129.3 100.892 135.425 103.542C139.796 105.425 144.176 107.296 148.563 109.154C149.322 109.48 149.801 109.847 149.627 110.651ZM37.9965 59.6441C37.9663 59.6915 37.921 59.7275 37.8679 59.7462C37.8148 59.7648 37.757 59.7652 37.7037 59.7472C37.4192 59.6523 37.1347 59.5616 36.879 59.4461L17.7529 51.1986C13.7748 49.4886 9.80359 47.7758 5.83926 46.0603C5.73973 46.0156 5.65123 45.9496 5.57998 45.8669C5.50873 45.7843 5.45647 45.687 5.42688 45.582C5.40754 45.4163 5.39653 45.2498 5.39389 45.083C5.39482 44.9567 5.43129 44.8333 5.49912 44.7268C5.56694 44.6204 5.66339 44.5351 5.7774 44.4809C5.899 44.42 6.03314 44.3882 6.16916 44.3882C6.30518 44.3882 6.43932 44.42 6.56092 44.4809L37.9965 59.6441ZM117.763 81.1867C117.769 81.1539 117.787 81.1246 117.814 81.1047C117.841 81.0848 117.874 81.0758 117.907 81.0795L148.807 82.4486C148.996 82.446 149.179 82.5158 149.319 82.6439C149.458 82.7719 149.544 82.9484 149.557 83.1373V83.7187C149.555 83.8195 149.53 83.9185 149.484 84.008C149.437 84.0974 149.371 84.1749 149.289 84.2342C149.203 84.3017 149.104 84.3514 148.999 84.3805C148.893 84.4095 148.783 84.4172 148.675 84.4033L117.763 81.1867ZM6.54442 119.245C6.4317 119.313 6.30438 119.353 6.1731 119.361C6.04182 119.37 5.91039 119.347 5.78977 119.295C5.67295 119.25 5.57164 119.173 5.49835 119.072C5.42506 118.971 5.38301 118.85 5.37739 118.726C5.37739 117.076 5.37739 117.076 7.02691 116.251C12.1486 113.686 17.2676 111.117 22.3839 108.544C22.4652 108.506 22.5567 108.495 22.6445 108.514C22.7323 108.532 22.8117 108.579 22.8705 108.647C22.8922 108.68 22.907 108.717 22.914 108.756C22.921 108.795 22.92 108.835 22.9112 108.873C22.9023 108.912 22.8857 108.948 22.8624 108.98C22.8391 109.012 22.8096 109.039 22.7756 109.059L6.54442 119.245ZM6.36298 89.7477C6.25024 89.7684 6.1345 89.7663 6.02259 89.7415C5.91068 89.7167 5.80487 89.6697 5.71142 89.6033C5.62411 89.5444 5.55228 89.4653 5.50204 89.3727C5.45179 89.2801 5.42459 89.1767 5.42275 89.0714V88.993C5.43307 88.8176 5.50631 88.6518 5.62903 88.5261C5.75175 88.4003 5.91571 88.3231 6.09081 88.3085L39.8811 83.7723C39.9263 83.7645 39.9727 83.7736 40.0116 83.798C40.0504 83.8223 40.0788 83.8602 40.0914 83.9043L6.36298 89.7477ZM91.1603 139.744C91.1826 139.842 91.1807 139.944 91.1549 140.041C91.129 140.138 91.0799 140.227 91.0119 140.301C90.9382 140.382 90.8492 140.447 90.7501 140.493C90.651 140.539 90.5437 140.565 90.4346 140.569H90.3108C89.7624 140.623 89.6304 140.417 89.5521 139.947C89.1644 137.683 88.6984 135.41 88.2819 133.163C87.9108 131.142 87.5726 129.122 87.218 127.097C86.8029 124.708 86.3905 122.317 85.9809 119.926C85.5685 117.678 85.1932 115.431 84.7891 113.183C84.6901 112.631 84.5747 112.078 84.4633 111.534C84.4593 111.503 84.4613 111.472 84.4693 111.443C84.4773 111.413 84.4911 111.386 84.5099 111.361C84.5288 111.337 84.5522 111.317 84.5789 111.302C84.6056 111.287 84.635 111.277 84.6654 111.274C86.818 120.726 88.9747 130.181 91.1603 139.744ZM5.78565 108.507C5.74509 108.526 5.70071 108.536 5.65575 108.536C5.61079 108.536 5.56641 108.526 5.52585 108.507C5.48873 108.488 5.45728 108.46 5.43478 108.425C5.41229 108.391 5.39959 108.35 5.39801 108.309C5.35677 107.002 5.36915 107.026 6.77948 106.494C10.5734 105.072 14.3549 103.608 18.1488 102.197C23.0368 100.361 27.9262 98.5327 32.8171 96.7128C32.8436 96.7018 32.8732 96.7008 32.9005 96.7098C32.9278 96.7189 32.9508 96.7375 32.9655 96.7622C32.9723 96.7742 32.9763 96.7875 32.9772 96.8011C32.9781 96.8148 32.9758 96.8285 32.9707 96.8412C32.9655 96.8539 32.9576 96.8653 32.9474 96.8745C32.9372 96.8836 32.9251 96.8904 32.9119 96.8942L5.78565 108.507ZM145.854 139.448C145.897 139.486 145.932 139.534 145.956 139.586C145.979 139.639 145.991 139.697 145.991 139.755C145.991 139.813 145.979 139.87 145.956 139.923C145.932 139.976 145.897 140.023 145.854 140.062C145.755 140.144 145.63 140.189 145.502 140.189C145.373 140.189 145.248 140.144 145.149 140.062L145.066 139.984C142.796 137.784 140.493 135.612 138.159 133.468C134.27 129.868 130.353 126.293 126.464 122.693C122.89 119.394 119.338 116.095 115.808 112.796C115.796 112.785 115.786 112.772 115.78 112.757C115.773 112.743 115.769 112.727 115.769 112.711C115.769 112.695 115.773 112.679 115.78 112.664C115.786 112.65 115.796 112.637 115.808 112.626C115.835 112.606 115.869 112.594 115.903 112.594C115.937 112.594 115.971 112.606 115.998 112.626L145.854 139.448ZM148.452 48.1964C148.585 48.1396 148.729 48.1158 148.873 48.1273C149.016 48.1388 149.155 48.1852 149.277 48.2624C149.39 48.3307 149.481 48.4321 149.535 48.5529C149.59 48.6737 149.606 48.8083 149.582 48.9387C149.479 49.4253 149.116 49.5614 148.147 49.9243C144.867 51.1449 141.596 52.3821 138.332 53.6357C133.799 55.3677 129.27 57.1038 124.744 58.844C124.718 58.8548 124.69 58.8557 124.663 58.8465C124.636 58.8374 124.614 58.819 124.6 58.7946C124.594 58.7831 124.59 58.7704 124.59 58.7574C124.589 58.7445 124.591 58.7315 124.596 58.7194C124.6 58.7072 124.608 58.6963 124.617 58.6872C124.626 58.6781 124.637 58.6711 124.65 58.6667L148.452 48.1964ZM61.9145 33.4333C61.8728 33.4435 61.8289 33.4392 61.79 33.4213C61.751 33.4033 61.7193 33.3726 61.7 33.3343L54.2772 15.4825C54.2351 15.3784 54.2217 15.265 54.2384 15.154C54.255 15.043 54.3012 14.9386 54.3721 14.8515C54.4509 14.7568 54.55 14.681 54.6621 14.6296C54.7741 14.5782 54.8963 14.5526 55.0195 14.5546H55.4896C55.6538 14.549 55.8157 14.5954 55.9519 14.6872C56.0882 14.7791 56.192 14.9116 56.2484 15.066C58.1316 21.1692 60.0203 27.2916 61.9145 33.4333ZM81.7128 139.81C81.7192 139.907 81.7036 140.004 81.6672 140.094C81.6307 140.184 81.5744 140.265 81.5024 140.33C81.3451 140.471 81.1408 140.549 80.9292 140.549C80.7713 140.558 80.6159 140.505 80.4959 140.402C80.3759 140.299 80.3006 140.154 80.2859 139.996L79.7168 115.963C79.7174 115.945 79.7213 115.929 79.7285 115.913C79.7357 115.897 79.7459 115.883 79.7586 115.872C79.7713 115.86 79.7862 115.851 79.8024 115.846C79.8186 115.84 79.8358 115.838 79.8529 115.839C80.4715 123.802 81.0901 131.769 81.7128 139.81ZM148.683 66.2586C148.795 66.2374 148.91 66.2389 149.021 66.263C149.132 66.2871 149.237 66.3333 149.33 66.3988C149.417 66.4573 149.487 66.5359 149.536 66.6279C149.585 66.7199 149.611 66.8225 149.611 66.9267C149.611 67.3968 149.376 67.4463 148.551 67.5617C145.994 67.9164 143.433 68.2339 140.877 68.5762C139.153 68.8071 137.437 69.0752 135.714 69.302C133.71 69.5659 131.701 69.8009 129.697 70.0649C127.829 70.3123 125.965 70.5845 124.097 70.8401C124.07 70.8452 124.043 70.8399 124.02 70.8254C123.997 70.8108 123.98 70.7881 123.973 70.7618C123.971 70.7487 123.971 70.7352 123.975 70.7223C123.978 70.7094 123.984 70.6973 123.992 70.6868C124 70.6763 124.01 70.6677 124.022 70.6614C124.034 70.6551 124.047 70.6514 124.06 70.6504L148.683 66.2586ZM127.932 14.534C128.082 14.5111 128.235 14.5297 128.374 14.5879C128.514 14.6461 128.635 14.7416 128.724 14.8639C128.806 14.98 128.846 15.1205 128.837 15.2623C128.828 15.4041 128.77 15.5385 128.674 15.6433C124.81 20.1382 121.045 24.5135 117.28 28.8848C117.258 28.9096 117.229 28.9269 117.196 28.9343C117.164 28.9417 117.13 28.9388 117.099 28.926C117.125 28.8055 117.166 28.6891 117.223 28.5796C120.522 24.0297 123.83 19.4853 127.149 14.9464C127.353 14.7203 127.63 14.5741 127.932 14.534ZM45.3327 38.9922C45.3106 39.009 45.2854 39.0214 45.2585 39.0285C45.2316 39.0355 45.2036 39.0372 45.176 39.0334C45.1491 39.0321 45.1227 39.0252 45.0985 39.0131C45.0744 39.0011 45.053 38.9841 45.0358 38.9633L24.4788 14.8845C24.4211 14.819 24.3892 14.7347 24.3892 14.6474C24.3892 14.5601 24.4211 14.4758 24.4788 14.4103C24.8417 14.5917 25.3283 14.6948 25.5551 14.967C29.3984 19.5815 33.2047 24.2208 37.0233 28.8394L44.8338 38.3241C45.0111 38.5344 45.1513 38.7695 45.3327 38.9922ZM117.458 140.425C117.394 140.483 117.313 140.522 117.228 140.535C117.142 140.548 117.054 140.536 116.975 140.499C116.773 140.426 116.593 140.302 116.452 140.14C114.983 137.749 113.565 135.328 112.109 132.936C110.175 129.777 108.204 126.639 106.253 123.493C105.841 122.841 105.462 122.181 105.066 121.526C105.054 121.5 105.047 121.473 105.047 121.445C105.047 121.417 105.054 121.39 105.066 121.365C105.077 121.338 105.093 121.313 105.113 121.293C105.134 121.272 105.158 121.256 105.185 121.245L117.458 140.425ZM100.591 139.959C100.604 140.002 100.608 140.047 100.603 140.092C100.598 140.137 100.583 140.18 100.56 140.218C100.537 140.257 100.507 140.291 100.47 140.317C100.434 140.343 100.392 140.362 100.348 140.371C100.257 140.401 100.158 140.396 100.071 140.357C99.9831 140.318 99.913 140.248 99.8739 140.161L99.8492 140.095C98.8883 137.208 97.8862 134.301 96.8718 131.41C95.7625 128.235 94.6243 125.068 93.5026 121.893C93.4977 121.877 93.4962 121.86 93.4982 121.844C93.5002 121.828 93.5057 121.812 93.5143 121.798C93.5229 121.784 93.5344 121.772 93.548 121.762C93.5617 121.753 93.5771 121.747 93.5934 121.744C93.6263 121.734 93.662 121.735 93.6938 121.749C93.7255 121.763 93.7514 121.787 93.7666 121.818C96.0456 127.85 98.3206 133.897 100.591 139.959ZM75.6549 34.0642C75.6201 34.0666 75.5857 34.0555 75.5589 34.0332C75.532 34.011 75.5147 33.9793 75.5106 33.9446C75.101 27.6353 74.6886 21.3217 74.2734 15.0041C74.274 14.9608 74.2831 14.918 74.3001 14.8782C74.3172 14.8383 74.342 14.8023 74.373 14.772C74.404 14.7418 74.4407 14.7179 74.4809 14.7019C74.5211 14.6858 74.5642 14.6778 74.6075 14.6783C74.6952 14.6688 74.7831 14.6935 74.8531 14.7473C74.923 14.8011 74.9694 14.8798 74.9827 14.967V15.0206C75.1394 19.2062 75.3168 23.3878 75.4776 27.5734C75.5477 29.4786 75.5931 31.3838 75.6467 33.289C75.6632 33.5488 75.6549 33.8086 75.6549 34.0642ZM20.4127 80.0279C20.4591 80.0233 20.5055 80.0371 20.5418 80.0665C20.5781 80.0958 20.6013 80.1383 20.6065 80.1846C20.606 80.2074 20.601 80.2298 20.5918 80.2506C20.5826 80.2714 20.5694 80.2902 20.5529 80.3059C20.5364 80.3216 20.517 80.3339 20.4958 80.3421C20.4746 80.3503 20.452 80.3543 20.4292 80.3537L5.84338 81.0795C5.75942 81.0873 5.67554 81.0638 5.60781 81.0136C5.54008 80.9634 5.49327 80.8899 5.47636 80.8073C5.431 80.4815 5.52173 80.4774 6.00008 80.465C10.8043 80.3125 15.6085 80.1434 20.4127 80.0279ZM126.307 73.3763C126.303 73.3548 126.303 73.3326 126.308 73.3112C126.313 73.2898 126.323 73.2697 126.336 73.2525C126.37 73.2152 126.415 73.1905 126.464 73.1824C127.594 73.0464 128.72 72.8979 129.854 72.7701C132.233 72.535 134.621 72.3371 137 72.0938C139.38 71.8505 141.697 71.5659 144.048 71.3102C145.697 71.1247 147.347 70.9474 148.996 70.7906C149.04 70.7846 149.085 70.7846 149.128 70.7906C149.186 70.8005 149.237 70.8304 149.274 70.875C149.311 70.9196 149.331 70.976 149.33 71.034C149.323 71.0921 149.295 71.1457 149.252 71.1856C149.209 71.2255 149.154 71.2492 149.095 71.2525C147.19 71.4505 145.284 71.6374 143.376 71.8133L130.922 72.9639L126.307 73.3763ZM26.8871 64.8483C26.8826 64.8735 26.8725 64.8973 26.8575 64.918C26.8425 64.9387 26.823 64.9558 26.8004 64.9679C26.7758 64.979 26.7491 64.9848 26.7221 64.9848C26.6951 64.9848 26.6684 64.979 26.6437 64.9679L23.8891 64.3287L12.6889 61.5864C10.5527 61.0668 8.40837 60.5637 6.2805 60.0152C6.07592 59.9819 5.8735 59.9364 5.67431 59.8791C5.64101 59.8677 5.61039 59.8496 5.58431 59.8259C5.55822 59.8023 5.53721 59.7736 5.52256 59.7416C5.5079 59.7096 5.49991 59.6749 5.49905 59.6397C5.4982 59.6045 5.50451 59.5695 5.5176 59.5368C5.55062 59.4696 5.60662 59.4164 5.67545 59.3869C5.74429 59.3574 5.82142 59.3536 5.89287 59.376L26.8871 64.8483ZM26.4994 88.9765C26.5041 89.012 26.4946 89.048 26.473 89.0765C26.4514 89.1051 26.4194 89.124 26.3839 89.1291L5.81039 93.7436C5.72359 93.7641 5.6328 93.7598 5.54828 93.7314C5.46375 93.703 5.38885 93.6515 5.33203 93.5828C5.50523 93.4426 5.65369 93.2117 5.85575 93.1704C8.45374 92.6261 11.0641 92.1271 13.6621 91.5869C16.2601 91.0467 18.7343 90.5023 21.2663 89.9374C22.7921 89.6075 24.3179 89.2734 25.8437 88.9559C26.0625 88.9418 26.282 88.9487 26.4994 88.9765ZM72.5744 139.881C72.5507 140.07 72.4564 140.243 72.3103 140.365C72.1642 140.488 71.9771 140.55 71.7868 140.54C71.7163 140.541 71.6464 140.527 71.5813 140.5C71.5161 140.473 71.457 140.434 71.4074 140.384C71.3615 140.339 71.3268 140.283 71.3061 140.223C71.2853 140.162 71.279 140.097 71.2878 140.033C71.8487 136.66 72.4013 133.328 72.958 129.996C72.964 129.964 72.982 129.937 73.0081 129.918C73.0343 129.9 73.0665 129.892 73.0982 129.897L72.5744 139.881ZM149.483 53.1697C149.538 53.244 149.563 53.3366 149.552 53.4286C149.542 53.5206 149.496 53.605 149.425 53.6646C149.357 53.7309 149.275 53.7828 149.186 53.8172C144.556 55.3924 139.919 56.9636 135.272 58.5306C134.332 58.8495 133.389 59.1602 132.444 59.4626C132.411 59.4743 132.376 59.4735 132.344 59.4606C132.312 59.4477 132.286 59.4234 132.27 59.3925C132.265 59.3777 132.262 59.3618 132.263 59.3459C132.263 59.3299 132.267 59.3143 132.274 59.3C132.281 59.2856 132.291 59.2729 132.303 59.2626C132.315 59.2522 132.329 59.2445 132.345 59.2399L149.483 53.1697ZM37.5965 41.2107C37.618 41.193 37.6449 41.1833 37.6728 41.1833C37.7007 41.1833 37.7276 41.193 37.7491 41.2107L42.2028 45.1118C42.2142 45.1194 42.2233 45.1299 42.2291 45.1423C42.235 45.1546 42.2373 45.1684 42.2358 45.182C42.2356 45.1959 42.2326 45.2097 42.2269 45.2225C42.2212 45.2352 42.213 45.2467 42.2028 45.2562C41.2626 44.4809 40.31 43.718 39.3945 42.9262C38.7677 42.3778 38.1945 41.784 37.5965 41.2107ZM94.0429 28.3982C94.0283 28.8135 93.9814 29.2272 93.9027 29.6353C93.8449 29.8415 93.7831 30.0477 93.7088 30.258C93.6979 30.2833 93.6779 30.3037 93.6527 30.3151C93.6276 30.3266 93.5991 30.3282 93.5728 30.3198C93.5596 30.3174 93.5471 30.3123 93.536 30.3049C93.5249 30.2975 93.5154 30.2879 93.508 30.2768C93.5007 30.2656 93.4957 30.2531 93.4934 30.2399C93.4911 30.2268 93.4914 30.2133 93.4944 30.2002C93.68 29.6147 93.8655 29.0291 94.047 28.4394L94.0429 28.3982ZM30.7015 82.4486L33.2624 82.2218C33.336 82.2134 33.41 82.2342 33.4686 82.2795C33.4961 82.2987 33.519 82.3239 33.5354 82.3532C33.5518 82.3825 33.5614 82.4151 33.5635 82.4486H30.7015ZM113.647 47.8995C113.658 47.9086 113.672 47.9135 113.687 47.9135C113.701 47.9135 113.715 47.9086 113.726 47.8995L115.355 46.25C115.4 46.2055 115.46 46.1804 115.524 46.1799C115.588 46.1781 115.651 46.2001 115.701 46.2418L113.647 47.8995Z" fill="#E0E0E0"/>
<path d="M20.1758 130.379L50.2794 85.0177L75.3438 108.14C75.6324 108.049 91.9709 102.886 101.641 91.3931L110.586 93.0673C99.7896 109.055 78.6222 115.662 77.7273 115.934C77.7273 115.934 61.5909 132.429 57.4672 139.027C47.0134 142.305 23.3717 131.311 20.1758 130.379Z" fill="white"/>
<path d="M18.9727 129.175L50.2804 85.0135L75.3448 108.136C75.6334 108.045 91.9719 102.882 101.642 91.3889L110.587 93.0632C95.4194 115.517 90.8914 99.8757 57.7527 137.295" stroke="#45413C" stroke-width="2.42" stroke-linecap="round" stroke-linejoin="round"/>
<path d="M38.3241 87.9291C38.3241 87.9291 17.3959 100.049 32.7281 107.344L46.984 97.7396L38.3241 87.9291Z" fill="white" stroke="#45413C" stroke-width="2.42" stroke-linecap="round" stroke-linejoin="round"/>
<path d="M44.5078 56.3822C47.7202 49.5738 60.772 37.7757 79.2218 41.6933C79.5375 41.7612 79.8302 41.9096 80.0715 42.124C80.3129 42.3384 80.4947 42.6117 80.5992 42.9171C80.7038 43.2226 80.7276 43.5499 80.6684 43.8672C80.6091 44.1846 80.4688 44.4812 80.261 44.7284C78.5719 46.799 77.5701 49.3445 77.395 52.011" fill="#ADC4D9"/>
<path d="M44.5078 56.3822C47.7202 49.5738 60.772 37.7757 79.2218 41.6933C79.5375 41.7612 79.8302 41.9096 80.0715 42.124C80.3129 42.3384 80.4947 42.6117 80.5992 42.9171C80.7038 43.2226 80.7276 43.5499 80.6684 43.8672C80.6091 44.1846 80.4688 44.4812 80.261 44.7284C78.5719 46.799 77.5701 49.3445 77.395 52.011" stroke="#45413C" stroke-width="2.42" stroke-linecap="round" stroke-linejoin="round"/>
<path d="M33.7617 79.6568C33.7617 87.7643 36.9824 95.5398 42.7153 101.273C48.4483 107.006 56.2238 110.226 64.3313 110.226C72.4389 110.226 80.2144 107.006 85.9473 101.273C91.6802 95.5398 94.9009 87.7643 94.9009 79.6568C94.9009 71.5492 91.6802 63.7737 85.9473 58.0408C80.2144 52.3079 72.4389 49.0872 64.3313 49.0872C56.2238 49.0872 48.4483 52.3079 42.7153 58.0408C36.9824 63.7737 33.7617 71.5492 33.7617 79.6568Z" fill="#8CA4B8"/>
<path d="M76.8437 63.2359L76.9509 63.2854C79.3922 64.4524 81.5778 61.2771 79.5819 59.4585C75.8605 56.08 71.0672 54.1217 66.0447 53.9279C61.0223 53.7341 56.0923 55.3171 52.1216 58.3987C50.002 60.0482 51.903 63.4091 54.402 62.44C58 61.0386 61.8461 60.3863 65.7049 60.5232C69.5638 60.66 73.354 61.5831 76.8437 63.2359Z" fill="#C0DCEB"/>
<path d="M33.7617 79.6568C33.7617 87.7643 36.9824 95.5398 42.7153 101.273C48.4483 107.006 56.2238 110.226 64.3313 110.226C72.4389 110.226 80.2144 107.006 85.9473 101.273C91.6802 95.5398 94.9009 87.7643 94.9009 79.6568C94.9009 71.5492 91.6802 63.7737 85.9473 58.0408C80.2144 52.3079 72.4389 49.0872 64.3313 49.0872C56.2238 49.0872 48.4483 52.3079 42.7153 58.0408C36.9824 63.7737 33.7617 71.5492 33.7617 79.6568Z" stroke="#45413C" stroke-width="2.42" stroke-linecap="round" stroke-linejoin="round"/>
<path d="M89.6989 83.727C89.9448 83.1456 89.95 82.4905 89.7134 81.9052C89.4769 81.32 89.0178 80.8525 88.437 80.6053L81.5338 77.4176C81.2463 77.2948 80.9375 77.2301 80.6249 77.2271C80.3124 77.2241 80.0023 77.2829 79.7125 77.4002C79.4228 77.5174 79.1591 77.6909 78.9366 77.9104C78.7142 78.13 78.5373 78.3913 78.4162 78.6795L75.7564 84.9518C75.6298 85.2776 75.4391 85.5746 75.1956 85.8253C74.9521 86.076 74.6607 86.2753 74.3387 86.4113C74.0168 86.5473 73.6708 86.6172 73.3213 86.6169C72.9718 86.6167 72.6259 86.5463 72.3041 86.4098C71.9823 86.2734 71.6912 86.0737 71.4481 85.8226C71.2049 85.5716 71.0146 85.2743 70.8885 84.9483C70.7625 84.6223 70.7031 84.2743 70.7141 83.925C70.725 83.5757 70.8059 83.2321 70.9521 82.9146L73.6079 76.6423C73.7307 76.3549 73.7954 76.046 73.7984 75.7335C73.8014 75.4209 73.7426 75.1109 73.6253 74.8211C73.508 74.5314 73.3346 74.2677 73.1151 74.0452C72.8955 73.8227 72.6342 73.6459 72.346 73.5248L63.5087 69.7804C62.9279 69.5346 62.2733 69.5295 61.6888 69.7661C61.1042 70.0027 60.6375 70.4617 60.3911 71.0422C59.8825 72.244 59.6865 73.555 59.8213 74.8529C59.9562 76.1509 60.4175 77.3935 61.1623 78.4651L62.651 80.3867C60.1767 87.8096 54.5972 100.119 49.4219 106.329C50.0239 106.668 50.659 106.993 51.2735 107.29C58.0265 110.49 65.7203 111.095 72.8903 108.989C77.2203 102.56 81.1668 94.4695 82.2225 88.5889L83.8307 88.325C85.1176 88.1168 86.3308 87.5858 87.357 86.7818C88.3832 85.9777 89.1889 84.9268 89.6989 83.727Z" fill="white"/>
<path d="M88.4383 80.6053L81.5351 77.4176C81.2476 77.2948 80.9388 77.2301 80.6262 77.2271C80.3136 77.2241 80.0036 77.2829 79.7138 77.4002C79.4241 77.5174 79.1604 77.6909 78.9379 77.9104C78.7155 78.13 78.5386 78.3913 78.4175 78.6795L75.7577 84.9518C75.7018 85.096 75.6313 85.2342 75.5473 85.3641C75.6696 87.0914 76.2083 88.7633 77.1175 90.2369C78.0267 91.7106 79.2792 92.9421 80.768 93.8262C81.3948 92.1313 81.8816 90.388 82.2237 88.6137L83.832 88.3498C85.1198 88.1407 86.3336 87.6086 87.3598 86.803C88.386 85.9974 89.1913 84.9448 89.7002 83.7435C89.8245 83.4547 89.8904 83.1442 89.8942 82.8299C89.898 82.5155 89.8396 82.2035 89.7223 81.9118C89.605 81.6201 89.4312 81.3545 89.2108 81.1303C88.9905 80.906 88.7279 80.7276 88.4383 80.6053ZM70.7637 83.628C70.7934 83.3826 70.8573 83.1424 70.9534 82.9146L73.6092 76.6423C73.732 76.3549 73.7967 76.046 73.7997 75.7335C73.8027 75.4209 73.7439 75.1109 73.6266 74.8211C73.5093 74.5314 73.3359 74.2677 73.1164 74.0452C72.8968 73.8227 72.6354 73.6459 72.3473 73.5248L63.51 69.7804C62.9292 69.5346 62.2746 69.5295 61.6901 69.7661C61.1055 70.0027 60.6388 70.4617 60.3924 71.0422C59.8838 72.244 59.6878 73.555 59.8226 74.8529C59.9575 76.1509 60.4188 77.3935 61.1636 78.4651L62.6523 80.3867C62.2399 81.6527 61.7203 83.059 61.1347 84.5559C62.7002 85.1666 64.3872 85.4008 66.0598 85.2396C67.7324 85.0785 69.3437 84.5264 70.7637 83.628Z" fill="white" stroke="#45413C" stroke-width="2.42" stroke-linecap="round" stroke-linejoin="round"/>
<path d="M67.3945 75.6484C67.3945 76.0553 67.5562 76.4455 67.8438 76.7332C68.1315 77.0209 68.5217 77.1825 68.9286 77.1825C69.3354 77.1825 69.7256 77.0209 70.0133 76.7332C70.301 76.4455 70.4626 76.0553 70.4626 75.6484C70.4626 75.2416 70.301 74.8514 70.0133 74.5637C69.7256 74.276 69.3354 74.1144 68.9286 74.1144C68.5217 74.1144 68.1315 74.276 67.8438 74.5637C67.5562 74.8514 67.3945 75.2416 67.3945 75.6484Z" fill="#45413C"/>
<path d="M81.5273 81.5908C81.5273 81.9977 81.689 82.3879 81.9767 82.6755C82.2643 82.9632 82.6545 83.1249 83.0614 83.1249C83.4682 83.1249 83.8584 82.9632 84.1461 82.6755C84.4338 82.3879 84.5954 81.9977 84.5954 81.5908C84.5954 81.184 84.4338 80.7938 84.1461 80.5061C83.8584 80.2184 83.4682 80.0568 83.0614 80.0568C82.6545 80.0568 82.2643 80.2184 81.9767 80.5061C81.689 80.7938 81.5273 81.184 81.5273 81.5908Z" fill="#45413C"/>
<path d="M89.6989 83.727C89.9448 83.1456 89.95 82.4905 89.7134 81.9052C89.4769 81.32 89.0178 80.8525 88.437 80.6053L81.5338 77.4176C81.2463 77.2948 80.9375 77.2301 80.6249 77.2271C80.3124 77.2241 80.0023 77.2829 79.7125 77.4002C79.4228 77.5174 79.1591 77.6909 78.9366 77.9104C78.7142 78.13 78.5373 78.3913 78.4162 78.6795L75.7564 84.9518C75.6298 85.2776 75.4391 85.5746 75.1956 85.8253C74.9521 86.076 74.6607 86.2753 74.3387 86.4113C74.0168 86.5473 73.6708 86.6172 73.3213 86.6169C72.9718 86.6167 72.6259 86.5463 72.3041 86.4098C71.9823 86.2734 71.6912 86.0737 71.4481 85.8226C71.2049 85.5716 71.0146 85.2743 70.8885 84.9483C70.7625 84.6223 70.7031 84.2743 70.7141 83.925C70.725 83.5757 70.8059 83.2321 70.9521 82.9146L73.6079 76.6423C73.7307 76.3549 73.7954 76.046 73.7984 75.7335C73.8014 75.4209 73.7426 75.1109 73.6253 74.8211C73.508 74.5314 73.3346 74.2677 73.1151 74.0452C72.8955 73.8227 72.6342 73.6459 72.346 73.5248L63.5087 69.7804C62.9279 69.5346 62.2733 69.5295 61.6888 69.7661C61.1042 70.0027 60.6375 70.4617 60.3911 71.0422C59.8825 72.244 59.6865 73.555 59.8213 74.8529C59.9562 76.1509 60.4175 77.3935 61.1623 78.4651L62.651 80.3867C60.1767 87.8096 54.5972 100.119 49.4219 106.329C50.0239 106.668 50.659 106.993 51.2735 107.29C58.0265 110.49 65.7203 111.095 72.8903 108.989C77.2203 102.56 81.1668 94.4695 82.2225 88.5889L83.8307 88.325C85.1176 88.1168 86.3308 87.5858 87.357 86.7818C88.3832 85.9777 89.1889 84.9268 89.6989 83.727Z" stroke="#45413C" stroke-width="2.42" stroke-linecap="round" stroke-linejoin="round"/>
<path d="M55.8867 109.035C59.6685 110.134 63.6278 110.488 67.5447 110.078L74.1015 96.1891C74.2207 95.9461 74.2855 95.6801 74.2915 95.4095C74.2975 95.1389 74.2445 94.8703 74.1361 94.6223C74.0278 94.3743 73.8668 94.1528 73.6643 93.9733C73.4617 93.7938 73.2225 93.6606 72.9633 93.5828C70.8138 92.947 68.7708 91.995 66.9013 90.758C66.6774 90.6084 66.4238 90.5088 66.1579 90.4661C65.8919 90.4234 65.6199 90.4385 65.3603 90.5106C65.1008 90.5826 64.8598 90.7098 64.6539 90.8834C64.4481 91.0571 64.282 91.2731 64.1673 91.5168L55.8867 109.035Z" fill="#FFCABF" stroke="#45413C" stroke-width="2.42" stroke-linecap="round" stroke-linejoin="round"/>
<path d="M60.0889 100.131L55.8867 109.035C59.6685 110.134 63.6278 110.488 67.5447 110.078L69.7509 105.41C66.8871 103.064 63.6102 101.274 60.0889 100.131Z" fill="#FF866E" stroke="#45413C" stroke-width="2.42" stroke-linejoin="round"/>
<path d="M23.9766 114.16C23.9766 119.684 26.1706 124.981 30.0761 128.886C33.9816 132.791 39.2785 134.986 44.8017 134.986C50.3248 134.986 55.6218 132.791 59.5272 128.886C63.4327 124.981 65.6268 119.684 65.6268 114.16C65.6268 108.637 63.4327 103.34 59.5272 99.4349C55.6218 95.5294 50.3248 93.3353 44.8017 93.3353C39.2785 93.3353 33.9816 95.5294 30.0761 99.4349C26.1706 103.34 23.9766 108.637 23.9766 114.16Z" fill="#FFE500"/>
<path d="M63.5161 121.056C60.9661 125.103 57.1004 128.15 52.5686 129.684C48.0369 131.217 43.1154 131.144 38.6313 129.476C34.1472 127.808 30.3739 124.648 27.9456 120.526C25.5173 116.404 24.582 111.571 25.2969 106.841C24.2715 109.573 23.8316 112.49 24.0059 115.404C24.1802 118.317 24.9648 121.161 26.3087 123.751C27.6525 126.342 29.5258 128.621 31.807 130.441C34.0883 132.261 36.7265 133.582 39.5508 134.317C42.375 135.052 45.3223 135.186 48.2014 134.709C51.0806 134.232 53.8274 133.155 56.2638 131.549C58.7003 129.943 60.7719 127.842 62.3445 125.384C63.9171 122.925 64.9555 120.164 65.3924 117.278C64.8967 118.598 64.268 119.863 63.5161 121.056Z" fill="#E0A416"/>
<path d="M23.9766 114.16C23.9766 119.684 26.1706 124.981 30.0761 128.886C33.9816 132.791 39.2785 134.986 44.8017 134.986C50.3248 134.986 55.6218 132.791 59.5272 128.886C63.4327 124.981 65.6268 119.684 65.6268 114.16C65.6268 108.637 63.4327 103.34 59.5272 99.4349C55.6218 95.5294 50.3248 93.3353 44.8017 93.3353C39.2785 93.3353 33.9816 95.5294 30.0761 99.4349C26.1706 103.34 23.9766 108.637 23.9766 114.16Z" stroke="#45413C" stroke-width="2.42" stroke-linecap="round" stroke-linejoin="round"/>
<path d="M28.3281 114.16C28.3281 118.53 30.0638 122.72 33.1534 125.81C36.243 128.899 40.4333 130.635 44.8026 130.635C49.172 130.635 53.3623 128.899 56.4519 125.81C59.5415 122.72 61.2772 118.53 61.2772 114.16C61.2772 109.791 59.5415 105.601 56.4519 102.511C53.3623 99.4216 49.172 97.6859 44.8026 97.6859C40.4333 97.6859 36.243 99.4216 33.1534 102.511C30.0638 105.601 28.3281 109.791 28.3281 114.16Z" fill="#ADC4D9"/>
<path d="M29.5653 110.375C31.5415 107.236 34.5193 104.856 38.0166 103.62C41.5138 102.384 45.3259 102.364 48.8357 103.564C52.3456 104.764 55.3478 107.113 57.3565 110.231C59.3652 113.349 60.2628 117.054 59.9039 120.746C60.8756 118.559 61.3597 116.186 61.3225 113.793C61.2854 111.4 60.7278 109.044 59.6886 106.887C58.6494 104.731 57.1535 102.827 55.3046 101.307C53.4557 99.7873 51.2982 98.6879 48.9818 98.0854C46.6654 97.4829 44.2457 97.3917 41.8905 97.8181C39.5354 98.2445 37.3012 99.1784 35.3431 100.555C33.3851 101.931 31.75 103.717 30.5515 105.789C29.3529 107.861 28.6196 110.169 28.4023 112.552C28.7355 111.799 29.1242 111.071 29.5653 110.375Z" fill="#DAEDF7"/>
<path d="M28.3281 114.16C28.3281 118.53 30.0638 122.72 33.1534 125.81C36.243 128.899 40.4333 130.635 44.8026 130.635C49.172 130.635 53.3623 128.899 56.4519 125.81C59.5415 122.72 61.2772 118.53 61.2772 114.16C61.2772 109.791 59.5415 105.601 56.4519 102.511C53.3623 99.4216 49.172 97.6859 44.8026 97.6859C40.4333 97.6859 36.243 99.4216 33.1534 102.511C30.0638 105.601 28.3281 109.791 28.3281 114.16Z" stroke="#45413C" stroke-width="2.42" stroke-linecap="round" stroke-linejoin="round"/>
<path d="M46.7858 111.006L43.763 97.7065C42.0003 97.8189 40.267 98.2129 38.6289 98.8736L41.6475 112.16L46.7858 111.006Z" fill="#FFE500" stroke="#45413C" stroke-width="2.42" stroke-linecap="round" stroke-linejoin="round"/>
<path d="M41.6562 112.169L46.7912 111.002L47.9586 116.137L42.8237 117.304L41.6562 112.169Z" fill="#FFE500" stroke="#45413C" stroke-width="2.42" stroke-linecap="round" stroke-linejoin="round"/>
<path d="M41 101.521C41 101.763 41.096 101.995 41.2669 102.166C41.4378 102.336 41.6696 102.432 41.9114 102.432C42.1531 102.432 42.3849 102.336 42.5558 102.166C42.7267 101.995 42.8227 101.763 42.8227 101.521C42.8227 101.279 42.7267 101.048 42.5558 100.877C42.3849 100.706 42.1531 100.61 41.9114 100.61C41.6696 100.61 41.4378 100.706 41.2669 100.877C41.096 101.048 41 101.279 41 101.521Z" fill="#FFFACF"/>
<path d="M42.0195 105.736C42.0195 105.977 42.1155 106.209 42.2865 106.38C42.4574 106.551 42.6892 106.647 42.9309 106.647C43.1726 106.647 43.4044 106.551 43.5753 106.38C43.7462 106.209 43.8422 105.977 43.8422 105.736C43.8422 105.494 43.7462 105.262 43.5753 105.091C43.4044 104.92 43.1726 104.824 42.9309 104.824C42.6892 104.824 42.4574 104.92 42.2865 105.091C42.1155 105.262 42.0195 105.494 42.0195 105.736Z" fill="#FFFACF"/>
<path d="M47.9522 116.144L61.239 113.121C61.1266 111.359 60.7326 109.625 60.072 107.987L46.7852 111.006L47.9522 116.144Z" fill="#FFE500" stroke="#45413C" stroke-width="2.42" stroke-linecap="round" stroke-linejoin="round"/>
<path d="M56.5234 111.27C56.5234 111.511 56.6195 111.743 56.7904 111.914C56.9613 112.085 57.1931 112.181 57.4348 112.181C57.6765 112.181 57.9083 112.085 58.0792 111.914C58.2501 111.743 58.3461 111.511 58.3461 111.27C58.3461 111.028 58.2501 110.796 58.0792 110.625C57.9083 110.454 57.6765 110.358 57.4348 110.358C57.1931 110.358 56.9613 110.454 56.7904 110.625C56.6195 110.796 56.5234 111.028 56.5234 111.27Z" fill="#FFFACF"/>
<path d="M52.3086 112.292C52.3086 112.534 52.4046 112.766 52.5755 112.937C52.7464 113.108 52.9782 113.204 53.22 113.204C53.4617 113.204 53.6935 113.108 53.8644 112.937C54.0353 112.766 54.1313 112.534 54.1313 112.292C54.1313 112.051 54.0353 111.819 53.8644 111.648C53.6935 111.477 53.4617 111.381 53.22 111.381C52.9782 111.381 52.7464 111.477 52.5755 111.648C52.4046 111.819 52.3086 112.051 52.3086 112.292Z" fill="#FFFACF"/>
<path d="M42.8125 117.311L45.8352 130.598C47.5979 130.486 49.3313 130.092 50.9693 129.431L47.9507 116.144L42.8125 117.311Z" fill="#EBCB00" stroke="#45413C" stroke-width="2.42" stroke-linecap="round" stroke-linejoin="round"/>
<path d="M46.7773 126.796C46.7773 127.037 46.8734 127.269 47.0443 127.44C47.2152 127.611 47.447 127.707 47.6887 127.707C47.9304 127.707 48.1622 127.611 48.3331 127.44C48.504 127.269 48.6001 127.037 48.6001 126.796C48.6001 126.554 48.504 126.322 48.3331 126.151C48.1622 125.98 47.9304 125.884 47.6887 125.884C47.447 125.884 47.2152 125.98 47.0443 126.151C46.8734 126.322 46.7773 126.554 46.7773 126.796Z" fill="#FFFACF"/>
<path d="M45.7539 122.581C45.7539 122.823 45.8499 123.055 46.0208 123.226C46.1917 123.397 46.4236 123.493 46.6653 123.493C46.907 123.493 47.1388 123.397 47.3097 123.226C47.4806 123.055 47.5766 122.823 47.5766 122.581C47.5766 122.34 47.4806 122.108 47.3097 121.937C47.1388 121.766 46.907 121.67 46.6653 121.67C46.4236 121.67 46.1917 121.766 46.0208 121.937C45.8499 122.108 45.7539 122.34 45.7539 122.581Z" fill="#FFFACF"/>
<path d="M41.6462 112.173L28.3594 115.196C28.4718 116.958 28.8658 118.692 29.5264 120.33L42.8132 117.311L41.6462 112.173Z" fill="#EBCB00" stroke="#45413C" stroke-width="2.42" stroke-linecap="round" stroke-linejoin="round"/>
<path d="M31.25 117.047C31.25 117.289 31.346 117.521 31.5169 117.692C31.6878 117.862 31.9196 117.958 32.1614 117.958C32.4031 117.958 32.6349 117.862 32.8058 117.692C32.9767 117.521 33.0727 117.289 33.0727 117.047C33.0727 116.805 32.9767 116.574 32.8058 116.403C32.6349 116.232 32.4031 116.136 32.1614 116.136C31.9196 116.136 31.6878 116.232 31.5169 116.403C31.346 116.574 31.25 116.805 31.25 117.047Z" fill="#FFFACF"/>
<path d="M35.4648 116.024C35.4648 116.266 35.5609 116.498 35.7318 116.669C35.9027 116.84 36.1345 116.936 36.3762 116.936C36.6179 116.936 36.8497 116.84 37.0206 116.669C37.1915 116.498 37.2876 116.266 37.2876 116.024C37.2876 115.783 37.1915 115.551 37.0206 115.38C36.8497 115.209 36.6179 115.113 36.3762 115.113C36.1345 115.113 35.9027 115.209 35.7318 115.38C35.5609 115.551 35.4648 115.783 35.4648 116.024Z" fill="#FFFACF"/>
<path d="M39.6445 114.16C39.6445 114.837 39.7779 115.508 40.0369 116.133C40.296 116.758 40.6757 117.327 41.1543 117.805C41.633 118.284 42.2012 118.664 42.8266 118.923C43.452 119.182 44.1223 119.315 44.7993 119.315C45.4762 119.315 46.1465 119.182 46.7719 118.923C47.3973 118.664 47.9655 118.284 48.4442 117.805C48.9229 117.327 49.3026 116.758 49.5616 116.133C49.8207 115.508 49.954 114.837 49.954 114.16C49.954 113.484 49.8207 112.813 49.5616 112.188C49.3026 111.562 48.9229 110.994 48.4442 110.516C47.9655 110.037 47.3973 109.657 46.7719 109.398C46.1465 109.139 45.4762 109.006 44.7993 109.006C44.1223 109.006 43.452 109.139 42.8266 109.398C42.2012 109.657 41.633 110.037 41.1543 110.516C40.6757 110.994 40.296 111.562 40.0369 112.188C39.7779 112.813 39.6445 113.484 39.6445 114.16Z" fill="#FFE500"/>
<path d="M46.0669 113.261C46.4345 113.491 46.7516 113.792 46.9989 114.148C47.0741 114.263 47.1848 114.35 47.3141 114.397C47.4435 114.443 47.5844 114.446 47.7156 114.405C47.8467 114.364 47.9608 114.281 48.0406 114.169C48.1204 114.057 48.1615 113.923 48.1577 113.785C48.1328 113.183 47.9432 112.598 47.6095 112.096C47.2758 111.594 46.8107 111.192 46.2649 110.936C45.5363 110.585 44.7033 110.517 43.9276 110.746C43.1519 110.974 42.4888 111.483 42.0669 112.173L42.0421 112.21C41.9723 112.327 41.9423 112.464 41.9566 112.6C41.9708 112.736 42.0286 112.864 42.1212 112.965C42.2139 113.065 42.3365 113.133 42.4708 113.158C42.6051 113.184 42.744 113.165 42.8669 113.105C43.3696 112.857 43.9273 112.741 44.4872 112.769C45.0471 112.796 45.5908 112.966 46.0669 113.261Z" fill="#FFFACF"/>
<path d="M39.6445 114.16C39.6445 114.837 39.7779 115.508 40.0369 116.133C40.296 116.758 40.6757 117.327 41.1543 117.805C41.633 118.284 42.2012 118.664 42.8266 118.923C43.452 119.182 44.1223 119.315 44.7993 119.315C45.4762 119.315 46.1465 119.182 46.7719 118.923C47.3973 118.664 47.9655 118.284 48.4442 117.805C48.9229 117.327 49.3026 116.758 49.5616 116.133C49.8207 115.508 49.954 114.837 49.954 114.16C49.954 113.484 49.8207 112.813 49.5616 112.188C49.3026 111.562 48.9229 110.994 48.4442 110.516C47.9655 110.037 47.3973 109.657 46.7719 109.398C46.1465 109.139 45.4762 109.006 44.7993 109.006C44.1223 109.006 43.452 109.139 42.8266 109.398C42.2012 109.657 41.633 110.037 41.1543 110.516C40.6757 110.994 40.296 111.562 40.0369 112.188C39.7779 112.813 39.6445 113.484 39.6445 114.16Z" stroke="#45413C" stroke-width="2.42" stroke-linecap="round" stroke-linejoin="round"/>
<path d="M44.4804 70.2916C46.7073 70.9968 49.4661 66.1679 48.4475 64.6874C46.9011 62.407 40.27 68.9555 44.4804 70.2916Z" fill="#C0DCEB"/>
<path d="M113.5 81.3104L108.172 77.5001L131.752 32.4147C131.972 32.0008 132.345 31.6888 132.791 31.5446L145.434 27.1652C145.872 27.0522 146.33 27.0369 146.775 27.1203C147.219 27.2036 147.64 27.3837 148.008 27.6476C148.375 27.9116 148.68 28.253 148.901 28.6478C149.122 29.0425 149.253 29.481 149.286 29.9322L149.175 43.3098C149.179 43.7786 149.002 44.231 148.68 44.5717L113.5 81.3104Z" fill="#E8F4FA"/>
<path d="M137.051 42.8974L132.193 31.8745C132.012 32.0241 131.862 32.2076 131.752 32.4147L108.172 77.5001L110.836 79.4135L137.051 42.9139V42.8974Z" fill="#C0DCEB"/>
<path d="M148.68 44.5716C148.841 44.4012 148.967 44.2009 149.051 43.9819L137.051 42.8973L110.836 79.3969L113.5 81.3104L148.68 44.5716Z" fill="#ADC4D9"/>
<path d="M98.8341 99.1128L95.9805 97.0633L105.816 81.9702L109.997 84.9723L98.8341 99.1128Z" fill="#DEA47A" stroke="#45413C" stroke-width="2.42" stroke-linecap="round" stroke-linejoin="round"/>
<path d="M91.9062 100.399C91.9062 101.418 92.3107 102.394 93.0307 103.114C93.7507 103.834 94.7273 104.239 95.7455 104.239C96.7637 104.239 97.7402 103.834 98.4602 103.114C99.1802 102.394 99.5847 101.418 99.5847 100.399C99.5847 99.3812 99.1802 98.4047 98.4602 97.6847C97.7402 96.9647 96.7637 96.5602 95.7455 96.5602C94.7273 96.5602 93.7507 96.9647 93.0307 97.6847C92.3107 98.4047 91.9062 99.3812 91.9062 100.399Z" fill="#BDBEC0" stroke="#45413C" stroke-width="2.42" stroke-linecap="round" stroke-linejoin="round"/>
<path d="M137.051 42.8974L132.193 31.8745M137.051 42.8974L149.051 43.9819M137.051 42.8974L110.836 79.397" stroke="#DAEDF7" stroke-width="2.42" stroke-linecap="round" stroke-linejoin="round"/>
<path d="M105.149 75.3103C104.029 74.5066 102.637 74.1803 101.276 74.4029C99.9163 74.6256 98.7002 75.3792 97.8953 76.498L96.8396 77.9743C96.599 78.3112 96.4816 78.7208 96.5074 79.134C96.5332 79.5473 96.7005 79.9391 96.9812 80.2435C97.2619 80.5479 97.6388 80.7463 98.0486 80.8055C98.4585 80.8646 98.8761 80.7808 99.2314 80.5682L101.751 79.0506L114.065 87.892L113.43 90.7787C113.34 91.1842 113.392 91.6083 113.579 91.9794C113.766 92.3504 114.075 92.6455 114.454 92.8148C114.834 92.9841 115.26 93.0171 115.661 92.9084C116.062 92.7996 116.413 92.5557 116.654 92.2179L117.71 90.7457C118.514 89.626 118.84 88.2331 118.618 86.873C118.395 85.5129 117.641 84.2968 116.522 83.4919L105.149 75.3103Z" fill="#BDBEC0" stroke="#45413C" stroke-width="2.42" stroke-linecap="round" stroke-linejoin="round"/>
<path d="M113.5 81.3104L108.172 77.5001L131.752 32.4147C131.972 32.0008 132.345 31.6888 132.791 31.5446L145.434 27.1652C145.872 27.0522 146.33 27.0369 146.775 27.1203C147.219 27.2036 147.64 27.3837 148.008 27.6476C148.375 27.9116 148.68 28.253 148.901 28.6478C149.122 29.0425 149.253 29.481 149.286 29.9322L149.175 43.3098C149.179 43.7786 149.002 44.231 148.68 44.5717L113.5 81.3104Z" stroke="#45413C" stroke-width="2.42" stroke-linecap="round" stroke-linejoin="round"/>
<path d="M104.357 93.7271C103.755 93.5707 103.197 93.2787 102.725 92.8734C102.253 92.4681 101.881 91.9604 101.635 91.3889C101.274 90.5595 101.203 89.6327 101.433 88.7579C101.705 87.716 102.378 86.8239 103.305 86.2762C104.232 85.7285 105.338 85.5696 106.382 85.8342C106.509 85.8672 114.654 88.2095 109.755 94.2055" fill="white"/>
<path d="M104.357 93.7271C103.755 93.5707 103.197 93.2787 102.725 92.8734C102.253 92.4681 101.881 91.9604 101.635 91.3889C101.274 90.5595 101.203 89.6327 101.433 88.7579C101.705 87.716 102.378 86.8239 103.305 86.2762C104.232 85.7285 105.338 85.5696 106.382 85.8342C106.509 85.8672 114.654 88.2095 109.755 94.2055" stroke="#45413C" stroke-width="2.42" stroke-linecap="round" stroke-linejoin="round"/>
<path d="M16.1268 65.5411C15.5146 65.5732 14.9024 65.4781 14.3289 65.2616C13.7554 65.0451 13.233 64.712 12.7948 64.2834C12.0335 63.4816 11.5145 62.4809 11.2978 61.3967L11.1164 60.6544C10.2916 57.3554 9.49573 53.5244 8.95964 50.9141C7.99467 46.2294 10.7659 42.3531 15.8505 41.2768C16.9639 41.0417 17.6031 40.8644 18.0732 40.7324C18.366 40.6541 18.5969 40.5922 18.8155 40.5427C19.8917 40.2957 20.99 40.1575 22.0939 40.1304C23.6774 40.1304 26.4032 40.6541 26.8651 44.1387C27.3022 47.4377 25.1867 48.2955 23.5661 48.6749L23.2403 48.7367L19.1371 49.3883C18.7153 49.4514 18.3086 49.5912 17.9371 49.8006C17.8758 50.0233 17.8758 50.2584 17.9371 50.4811C17.9866 50.7285 18.0361 50.9677 18.0856 51.1945L18.4237 51.1367C18.898 51.0543 19.3557 50.9759 19.731 50.9182C20.3562 50.8094 20.9892 50.7501 21.6238 50.7409C23.6197 50.7409 24.8362 51.6563 25.2445 53.4626C25.4218 54.2337 25.5496 55.2317 24.9723 56.0853C24.3578 57.0008 23.2238 57.3224 22.0856 57.4874L21.3846 57.5987C20.8526 57.6853 20.0073 57.8173 19.4299 57.941C19.4959 58.2462 19.5907 58.6132 19.6691 58.9183C20.032 60.3328 20.4444 61.9369 20.2217 63.2029C19.9578 64.5308 18.7866 65.3803 17.0093 65.5535C16.6711 65.5164 16.3948 65.5411 16.1268 65.5411Z" fill="#45413C"/>
<path d="M22.0969 41.3386C23.866 41.3386 25.3382 41.9737 25.6434 44.2706C25.9073 46.2789 25.099 47.0212 23.2928 47.4171L23.0041 47.4707L18.9422 48.1181C18.3377 48.2019 17.756 48.4052 17.2309 48.7161C16.6494 49.0954 16.5628 49.9532 16.703 50.6625C16.814 51.2958 16.9711 51.9202 17.1731 52.5306C17.9979 52.3986 19.1402 52.1924 19.8989 52.0728C20.4618 51.9764 21.0311 51.9227 21.6021 51.912C22.8928 51.912 23.7176 52.3244 24.0186 53.6687C24.4021 55.3677 23.8578 55.8708 21.8619 56.2007C20.4804 56.4275 18.336 56.7121 18.1505 57.0255C17.7917 57.6152 19.3175 61.0957 18.9752 62.9019C18.7896 63.8421 17.7381 64.139 16.8638 64.238C16.6213 64.2627 16.3777 64.2751 16.1339 64.2751C15.6875 64.3047 15.2397 64.2416 14.8189 64.0898C14.398 63.9379 14.0131 63.7005 13.6885 63.3926C13.085 62.7476 12.6749 61.946 12.505 61.0792C12.4308 60.7781 12.3978 60.6297 12.3235 60.3328C11.5813 57.3348 10.8349 53.8254 10.1792 50.6377C9.30494 46.382 12.0101 43.3263 16.1174 42.4562C17.9072 42.0768 18.5257 41.8417 19.0783 41.7262C20.0692 41.4862 21.082 41.348 22.101 41.3139M22.101 38.8396C20.9104 38.8703 19.7261 39.0237 18.567 39.2973C18.2948 39.3551 18.0432 39.4252 17.7422 39.5035C17.2886 39.6314 16.67 39.8004 15.5937 40.0272C9.87814 41.2396 6.65334 45.8005 7.75852 51.1285C8.29873 53.7471 9.107 57.6152 9.9235 60.9183C9.99773 61.207 10.0348 61.3555 10.105 61.6524C10.3695 62.9703 11.003 64.1859 11.9318 65.1576C12.4824 65.7019 13.1395 66.1268 13.8618 66.4057C14.5841 66.6845 15.3562 66.8113 16.1298 66.7782C16.4391 66.7782 16.7566 66.7782 17.0989 66.7287C19.4247 66.5061 21.033 65.2648 21.4 63.4297V63.3802C21.6515 61.9575 21.2804 60.3451 20.9093 58.8853L21.5361 58.7863L22.2495 58.6709C23.5897 58.4482 25.0825 58.0482 25.9609 56.7409C26.8393 55.4337 26.6248 54.0894 26.4145 53.1533C26.2835 52.4314 25.9769 51.7528 25.5217 51.1775C25.0664 50.6021 24.4766 50.1477 23.8042 49.8542C26.0434 49.3635 28.6001 47.9408 28.0723 43.9655C27.6599 40.7365 25.4619 38.885 22.0763 38.885L22.101 38.8396Z" fill="#45413C"/>
<path d="M34.3035 63.8915C32.3571 63.8915 30.4973 63.4792 30.0519 60.4606C29.9406 59.6853 29.7014 58.077 30.9715 57.1822C31.1501 57.0602 31.3171 56.9222 31.4705 56.7698C31.2932 55.4625 31.0581 54.0563 30.7653 52.5718C30.588 51.6027 30.4024 50.5965 30.2293 49.5532C30.1509 49.083 30.089 48.5676 30.0272 48.0686C29.9818 47.6851 29.9365 47.2974 29.8829 46.9263C29.8266 46.3345 29.6992 45.7515 29.5035 45.1902L29.4787 45.1489C29.3895 45.1192 29.2986 45.0944 29.2066 45.0747C28.654 44.9428 27.3509 44.3902 27.1447 42.0396C27.0612 41.2018 27.1684 40.3559 27.4581 39.5653C28.1962 37.8004 30.3447 37.1983 32.3819 36.8437L33.1241 36.7158C33.8908 36.566 34.669 36.4832 35.45 36.4684C37.6644 36.4684 38.9139 37.5282 39.1614 39.6148L39.1985 40.0767C39.3428 41.8458 38.8727 43.0211 37.6356 43.9407C37.6933 44.7324 37.85 45.7263 37.9861 46.6088L38.0438 46.984C38.2541 48.3696 38.3696 49.0459 38.6088 50.4563C38.782 51.4707 38.9304 52.5553 39.0706 53.6027C39.1902 54.4646 39.2975 55.2811 39.417 56.0275V56.11C40.8397 56.7698 41.5408 57.3471 41.8006 59.376C42.0604 61.4049 41.3428 62.8359 39.8872 63.3266C39.2273 63.5534 37.9902 63.7019 35.6149 63.8421C35.1036 63.8668 34.6706 63.8915 34.3035 63.8915Z" fill="#45413C"/>
<path d="M35.4638 37.6973C37.0143 37.6973 37.7731 38.2705 37.9587 39.7592C37.9587 39.9242 37.9587 40.0067 37.9875 40.1716C38.1236 41.8211 37.5751 42.5057 36.7133 43.0871C36.6029 43.1685 36.5164 43.278 36.4627 43.4042C36.409 43.5304 36.3902 43.6687 36.4081 43.8047C36.4658 44.7985 36.6844 46.1305 36.8205 47.1697C37.039 48.5718 37.1545 49.2728 37.3937 50.6625C37.6989 52.4687 37.9257 54.5265 38.2185 56.2214C38.3133 56.8193 38.5442 57.0461 38.8247 57.174C40.0618 57.7307 40.4123 57.9616 40.6144 59.5328C40.7587 60.6751 40.5525 61.8091 39.5298 62.1514C38.8824 62.3741 37.2246 62.506 35.5792 62.6009C35.105 62.6297 34.6802 62.6503 34.3009 62.6503C32.3709 62.6503 31.5544 62.1885 31.274 60.2751C31.1585 59.475 31.0843 58.6255 31.6864 58.1884C32.3998 57.6812 32.7833 57.2523 32.7338 56.8564C32.441 54.5966 31.9091 52.1058 31.4513 49.3511C31.3194 48.5594 31.2328 47.6192 31.1049 46.7449C31.0246 46.0416 30.8641 45.3498 30.6266 44.683C30.5203 44.4641 30.36 44.2758 30.1609 44.1359C29.9618 43.9959 29.7304 43.9089 29.4884 43.883C28.8368 43.7304 28.4781 42.9634 28.3956 41.9572C28.3295 41.3239 28.4013 40.6838 28.6059 40.0809C29.142 38.8025 31.0802 38.3406 32.6101 38.0767L33.373 37.9118C34.0692 37.7772 34.7755 37.7013 35.4844 37.685M35.4844 35.2107C34.6317 35.2266 33.7819 35.3149 32.9441 35.4746L32.5936 35.5365L32.1812 35.6066C30.7627 35.854 27.4513 36.4313 26.3296 39.0706C25.9677 40.0446 25.8268 41.087 25.9172 42.1222C26.078 44.1222 27.0265 45.5861 28.4781 46.1305C28.5276 46.3449 28.5812 46.6542 28.6472 47.0872C28.6966 47.4418 28.7461 47.8253 28.7874 48.2006C28.8492 48.712 28.9152 49.2439 28.9977 49.7429C29.175 50.7986 29.3564 51.8048 29.5379 52.778C29.7564 53.9863 29.9503 55.1451 30.1358 56.2296C28.3709 57.574 28.6966 59.7802 28.8203 60.6173C29.4183 64.6545 32.2348 65.1287 34.3009 65.1287C34.7132 65.1287 35.1504 65.1287 35.7277 65.0751C38.2514 64.9267 39.5422 64.7658 40.3216 64.5019C41.9092 63.9658 43.4639 62.2957 43.068 59.2194C42.7876 57.0296 41.9958 56.0605 40.5938 55.2894C40.5072 54.7038 40.4247 54.0853 40.334 53.4378C40.1937 52.378 40.0453 51.2852 39.868 50.2501C39.6288 48.8439 39.5133 48.1676 39.3071 46.7985L39.2453 46.4233C39.1546 45.8129 39.0432 45.0995 38.969 44.4686C40.1484 43.3469 40.6185 41.8953 40.47 39.9778C40.47 39.817 40.47 39.7386 40.4412 39.5654V39.4499C40.1113 36.7612 38.3092 35.2189 35.4926 35.2189L35.4844 35.2107Z" fill="#45413C"/>
<path d="M51.0803 63.24C44.1523 63.24 40.2677 56.0811 39.0512 49.9531C38.283 45.7229 39.1687 41.3592 41.5255 37.7632C43.3812 34.9962 45.9214 33.2271 48.8782 32.6497C49.4799 32.5311 50.0917 32.4717 50.705 32.4724C52.8378 32.4367 54.9097 33.1842 56.5284 34.5734C58.1472 35.9626 59.2004 37.8971 59.4887 40.0107C59.7691 42.0726 58.3959 43.6231 55.9917 43.9489C55.7185 43.988 55.4429 44.0087 55.1669 44.0108C54.5629 44.0203 53.9661 43.8785 53.4308 43.5984C53.0429 43.393 52.6743 43.1528 52.3298 42.8808C51.7483 42.4685 51.3648 42.1633 50.6555 42.1633C50.4926 42.1641 50.33 42.1765 50.1689 42.2004C49.8643 42.2467 49.5725 42.3556 49.312 42.5203C49.0515 42.685 48.828 42.9018 48.6555 43.1571C47.7771 44.3613 47.4802 46.4562 47.8637 48.8232C48.0905 50.2253 48.8947 53.4872 51.4267 53.4872H51.7153C51.9796 53.4801 52.2393 53.4177 52.478 53.304C52.7166 53.1904 52.9288 53.028 53.1009 52.8274C53.1225 52.8016 53.1418 52.774 53.1587 52.7449H52.7628C50.0823 52.7449 49.7194 50.4851 49.5627 49.516C49.4467 48.9816 49.4428 48.429 49.5514 47.8931C49.6601 47.3571 49.8787 46.8496 50.1937 46.4026C51.1792 45.0912 52.8989 44.7242 54.4535 44.5386C55.0103 44.4671 55.5706 44.4272 56.1319 44.419H56.2556C58.2392 44.4561 59.732 45.4706 60.5815 47.3552C61.0482 48.4696 61.3764 49.6371 61.5588 50.8315L61.5835 50.9923C61.9082 52.3441 61.9287 53.7512 61.6434 55.1119C61.3582 56.4726 60.7743 57.7529 59.934 58.8605C58.9471 60.1466 57.6925 61.2029 56.2571 61.9563C54.8216 62.7096 53.2396 63.142 51.6205 63.2235L51.0803 63.24Z" fill="#45413C"/>
<path d="M50.6919 33.7096C54.4033 33.7096 57.7024 36.254 58.2508 40.1757C58.4859 41.9242 57.0137 42.5592 55.8137 42.7242C55.5965 42.7556 55.3774 42.7722 55.158 42.7737C54.7543 42.7805 54.355 42.6885 53.9951 42.5056C52.927 41.9737 52.292 40.9262 50.6466 40.9262C50.4216 40.9276 50.1971 40.9442 49.9744 40.9757C47.0877 41.3881 45.9867 45.0541 46.6341 49.0212C47.2114 52.5677 48.9558 54.7244 51.4177 54.7244H51.8301C54.0281 54.5223 54.7951 52.7986 54.6219 51.6645C54.6219 51.5656 54.6013 51.5161 54.5848 51.4212L53.0012 51.5202C52.9229 51.5242 52.8445 51.5242 52.7662 51.5202C51.1167 51.5202 50.9394 50.2831 50.7868 49.3181C50.3744 46.6294 52.4734 46.0191 54.6013 45.7799C55.1101 45.714 55.6223 45.6768 56.1353 45.6686H56.2343C57.8838 45.6974 58.857 46.5428 59.455 47.8748C59.8782 48.8859 60.1746 49.9455 60.3375 51.0295C60.3375 51.112 60.3375 51.1532 60.3704 51.2398C61.7354 57.0131 56.8941 61.7307 51.5414 61.9988H51.0919C44.766 61.9988 41.3557 55.1533 40.2752 49.7058C39.0381 43.4541 42.3371 35.19 49.1166 33.858C49.6398 33.7566 50.1714 33.7055 50.7043 33.7055M50.7043 31.2312C50.0123 31.2317 49.3219 31.298 48.6424 31.4291C45.3434 32.0766 42.5433 34.0271 40.5021 37.0705C37.9715 40.9424 37.0225 45.6374 37.8505 50.1882C39.1618 56.7863 43.4176 64.473 51.0961 64.473H51.6734C53.4737 64.383 55.2329 63.9023 56.8287 63.0641C58.4246 62.2259 59.8189 61.0505 60.9148 59.6193C61.8625 58.3763 62.5237 56.939 62.8509 55.4105C63.1782 53.882 63.1634 52.3001 62.8076 50.7779V50.6625C62.6117 49.3563 62.2514 48.0802 61.7354 46.8645C61.2245 45.6467 60.3334 44.6268 59.1952 43.9572C59.7911 43.4708 60.2476 42.8354 60.5185 42.1154C60.7894 41.3955 60.8649 40.6167 60.7375 39.8582C60.4139 37.4382 59.2111 35.2219 57.3585 33.6317C55.5059 32.0414 53.133 31.1885 50.6919 31.2353L50.7043 31.2312ZM48.9888 45.9778C49.0353 45.2351 49.2648 44.5155 49.6569 43.883C49.7321 43.7596 49.8335 43.6543 49.9539 43.5745C50.0743 43.4947 50.2109 43.4423 50.3538 43.4211C50.4548 43.4055 50.5567 43.3972 50.6589 43.3964C50.927 43.3964 51.026 43.4458 51.595 43.8706L51.6445 43.9077C50.6823 44.2468 49.8368 44.8533 49.2074 45.6562C49.1373 45.7552 49.063 45.8624 48.9888 45.9778Z" fill="#45413C"/>
<path d="M68.8958 61.4751C68.0044 61.4693 67.138 61.1805 66.4215 60.6503C65.2462 59.8256 64.2936 58.1266 63.341 55.1203C62.4628 52.1827 61.785 49.1888 61.3121 46.1593C60.9051 43.5729 60.6298 40.9674 60.4874 38.353C60.4337 37.1613 60.3925 35.054 60.6853 34.0024C60.8578 33.0291 61.3234 32.1316 62.0198 31.43C62.7162 30.7285 63.6102 30.2563 64.5823 30.0766C64.8625 30.0249 65.1468 29.9986 65.4318 29.9982C66.4338 29.9982 68.8174 30.4106 69.238 34.3117C69.4071 35.8746 69.5102 36.6829 69.737 38.3159C70.0916 40.8603 70.5123 40.8603 70.735 40.8603H70.8958C71.7205 40.7531 71.9226 40.6005 71.968 40.5428C72.3144 40.0933 72.0133 37.8211 71.8154 36.3159C71.7618 35.9324 71.737 35.7385 71.6917 35.355C71.1803 31.3055 72.9288 28.3116 76.1577 27.7219C76.5413 27.6497 76.9304 27.6111 77.3206 27.6064C80.3475 27.6064 81.3042 30.3446 81.7949 32.7282C81.9846 33.6437 82.2073 34.955 82.5372 37.1118L82.6857 38.0809C83.6177 44.1346 84.5826 50.3945 84.2032 56.4894C84.0259 59.4049 82.5537 61.1369 80.1207 61.2318H79.6836C77.2464 61.2318 75.7371 60.1926 75.1969 58.1389C74.7666 56.2077 74.4335 54.2561 74.1989 52.2914C73.8855 49.9697 73.6628 49.9697 73.2587 49.9697C73.1309 49.9697 72.9907 49.9697 72.8463 49.9903C72.0216 50.0646 71.8566 50.1842 71.8319 50.2048C71.7469 50.518 71.7469 50.8483 71.8319 51.1615C71.9515 51.9863 72.0917 52.6955 72.2443 53.3677C72.3968 54.0399 72.5164 54.7368 72.5907 55.4296C72.7226 56.6338 72.7597 58.873 71.5143 60.3328C71.2206 60.6813 70.8571 60.9644 70.4473 61.164C70.0375 61.3636 69.5904 61.4752 69.1349 61.4916L68.8958 61.4751Z" fill="#45413C"/>
<path d="M77.3212 28.8394C78.9336 28.8394 79.9398 29.8621 80.5831 32.9632C80.7935 33.9735 81.0368 35.4787 81.313 37.2808C82.2739 43.5448 83.3749 50.1099 82.9626 56.3945C82.8388 58.4069 82.0223 59.8997 80.0759 59.9781H79.6883C78.1707 59.9781 76.8635 59.5657 76.3893 57.8048C75.9771 55.9277 75.6592 54.0312 75.4367 52.1223C75.0655 49.3841 74.6119 48.7325 73.2675 48.7325C73.1026 48.7325 72.9294 48.7325 72.7356 48.7573C71.0861 48.9057 70.3149 49.3016 70.6036 51.3346C70.8593 53.112 71.2015 54.3326 71.3335 55.545C71.5974 57.9327 70.9541 60.1471 69.0489 60.2337H68.917C68.2844 60.2277 67.6699 60.0228 67.1602 59.6482C66.0963 58.9059 65.255 56.9883 64.5457 54.7532C63.6773 51.8727 63.0118 48.9349 62.554 45.9613C62.2241 43.8623 61.8694 40.7736 61.7581 38.2952C61.6756 36.4271 61.7333 34.8807 61.9313 34.2828C62.0489 33.549 62.3887 32.869 62.9049 32.3344C63.4211 31.7998 64.0887 31.4363 64.8179 31.293C65.0263 31.2565 65.2373 31.2372 65.4489 31.2353C67.0241 31.2353 67.8159 32.4724 68.0262 34.4436C68.1994 36.0519 68.3025 36.8601 68.5293 38.4849C68.818 40.5757 69.2469 42.0973 70.752 42.0973C70.8577 42.1053 70.9639 42.1053 71.0696 42.0973C73.6222 41.7757 73.6634 40.7571 73.0572 36.1673L72.9335 35.2148C72.5211 31.8168 73.8696 29.4126 76.3975 28.9507C76.7077 28.8926 77.0222 28.8609 77.3377 28.8559M77.3377 26.3816C76.8727 26.3849 76.4089 26.4304 75.9521 26.5177C72.6531 27.1198 70.5665 29.8497 70.3974 33.5529C69.6386 29.1404 66.4468 28.7817 65.4489 28.7817C65.0906 28.7826 64.7331 28.8157 64.3808 28.8806C63.1734 29.1069 62.0625 29.6925 61.1935 30.5608C60.3245 31.429 59.7379 32.5395 59.5106 33.7467C59.2632 34.6869 59.1848 36.2622 59.2838 38.4272C59.4253 41.0868 59.7006 43.7376 60.1086 46.3696C60.5828 49.4653 61.2718 52.5243 62.1704 55.5244C63.2138 58.8234 64.3107 60.7121 65.7293 61.7101C66.6536 62.3748 67.762 62.7351 68.9005 62.741H69.1479C69.7723 62.7156 70.3847 62.5615 70.9467 62.2883C71.5087 62.0151 72.0083 61.6287 72.4139 61.1534C73.2216 60.1408 73.7033 58.9071 73.7954 57.6151C73.8669 57.9341 73.937 58.2268 74.0057 58.4935C74.4181 59.9946 75.6552 62.5101 79.6883 62.5101H80.1749C81.3295 62.4647 85.1234 61.8998 85.4451 56.6048C85.8286 50.3779 84.8554 44.052 83.9152 37.9364L83.7626 36.9632C83.4286 34.7859 83.2059 33.458 83.012 32.5178C82.6945 30.9631 81.746 26.3651 77.3212 26.3651L77.3377 26.3816Z" fill="#45413C"/>
<path d="M98.5942 61.0379C96.8911 61.0379 94.0911 60.4276 93.357 58.7533C92.9199 57.7513 92.7715 56.1471 92.6024 54.2873C92.5323 53.5285 92.4622 52.745 92.3673 52.0357C92.1611 50.4645 91.9549 48.8398 91.7611 47.2026L91.6209 46.0727C91.3034 43.5366 90.9941 40.9551 90.7467 38.9179C89.9219 38.9674 88.8044 39.0293 87.9796 39.0293H87.9095C86.8411 39.037 85.7868 38.7851 84.8373 38.2952C83.8723 37.7963 82.594 36.056 82.1733 32.79C81.8476 30.2209 82.6311 27.0167 85.9177 26.4064L91.357 25.4125C94.1323 24.9053 96.6643 24.4806 98.5118 24.1754C99.4726 24.0146 100.211 23.8909 100.64 23.8125C101.563 23.6359 102.5 23.5421 103.44 23.5321C107.39 23.5321 109.737 25.594 110.223 29.4827C110.838 34.4313 105.502 36.0808 101.918 37.054C102.24 38.885 102.689 41.1077 103.155 43.4541C103.431 44.8067 103.708 46.1799 103.98 47.5037C104.392 49.6233 104.895 52.3697 105.139 54.8522C105.188 55.3471 105.213 55.8461 105.238 56.3286C105.238 56.6007 105.267 56.8688 105.283 57.1286L105.312 57.5409L105.077 57.8915C103.819 59.7802 101.481 60.9554 98.8293 61.0379H98.5942Z" fill="#45413C"/>
<path d="M103.438 24.7569C106.254 24.7569 108.531 25.9074 108.993 29.6229C109.537 33.9694 103.784 35.2478 100.506 36.1385L100.63 36.8643C101.137 39.8334 102.028 43.982 102.757 47.7305C103.24 50.2047 103.681 52.7203 103.904 54.9595C103.978 55.7059 103.995 56.4853 104.044 57.2028C103.058 58.6709 101.157 59.7224 98.7862 59.7967H98.5965C97.0213 59.7967 94.914 59.2111 94.4934 58.2544C93.9655 57.0502 93.8996 54.1759 93.5985 51.8708C93.3429 49.9408 93.0995 47.9284 92.848 45.916C92.4727 42.8727 92.0975 39.7633 91.8335 37.6066C91.3469 37.6066 89.2768 37.7798 87.9737 37.7798H87.9118C87.0404 37.7873 86.1801 37.5835 85.4046 37.186C84.852 36.8973 83.7551 35.4828 83.4004 32.6209C83.0169 29.6229 84.2994 27.9487 86.1592 27.6023L91.5985 26.6085C95.8501 25.8291 99.644 25.2311 100.881 25.0043C101.731 24.8411 102.593 24.7542 103.458 24.7445M103.458 22.2702C102.444 22.2789 101.432 22.3796 100.436 22.5713C100.023 22.6496 99.2728 22.7733 98.3244 22.93C96.4728 23.2393 93.9367 23.6641 91.1531 24.1672L85.7139 25.161C84.9144 25.2993 84.1542 25.6085 83.4852 26.0676C82.8162 26.5266 82.2541 27.1247 81.8375 27.8209C81.0127 29.2064 80.7117 30.9178 80.9674 32.9178C81.3798 36.0437 82.6416 38.5179 84.2911 39.3674C85.4135 39.9482 86.6605 40.2468 87.9242 40.2376H87.9943C88.5015 40.2376 89.0995 40.2376 89.6768 40.1881C89.8995 42.0067 90.1552 44.1222 90.415 46.2047L90.5552 47.347C90.7531 48.947 90.9676 50.6006 91.1655 52.1759C91.2521 52.8605 91.3263 53.6316 91.3923 54.378C91.5737 56.3451 91.7263 58.0441 92.25 59.2317C93.2934 61.6153 96.745 62.2544 98.6172 62.2544H98.8852C101.933 62.1596 104.638 60.7781 106.122 58.543L106.588 57.842L106.531 57.0172C106.531 56.7657 106.502 56.5059 106.489 56.2378C106.465 55.743 106.44 55.2275 106.386 54.6997C106.139 52.1718 105.623 49.3841 105.207 47.2397C104.947 45.9119 104.667 44.5222 104.382 43.1819C103.999 41.2974 103.636 39.4953 103.339 37.9117C104.868 37.4981 106.342 36.8998 107.727 36.1303C111.438 33.9364 111.652 30.9096 111.438 29.3013C110.902 24.8476 107.97 22.2826 103.438 22.2826L103.458 22.2702ZM119.562 61.0297C118.88 61.0264 118.201 60.9671 117.529 60.8524C115.055 60.44 112.683 58.4729 112.964 55.9038C113.195 53.7842 114.815 52.0934 117.191 51.4996L117.471 51.4295C117.091 51.2608 116.736 51.0417 116.415 50.778L116.362 50.7326C112.593 47.3099 112.708 41.417 112.791 37.1241V37.0128C112.819 35.5942 112.857 34.0766 112.898 32.5096C112.931 31.2065 112.968 29.8704 112.997 28.526C112.964 27.6023 112.964 27.1487 112.964 26.2703V24.1672L112.989 23.6517C113.008 23.0915 113.104 22.5366 113.273 22.0022L113.31 21.8908L113.376 21.829C113.941 20.8022 115.277 19.5733 118.432 19.5733C120.332 19.5582 122.211 19.9623 123.937 20.7568C126.127 21.7259 127.562 23.4991 128.321 26.1713C128.747 27.8331 128.949 29.5447 128.919 31.2601C128.919 34.4313 128.506 42.4809 124.712 48.7284L124.688 48.7697L124.659 48.8109C123.822 50.0578 122.632 51.0259 121.24 51.5903C124.209 52.4522 125.628 54.7739 125.447 56.7657C125.203 59.4255 123.005 61.0297 119.562 61.0297Z" fill="#45413C"/>
<path d="M118.436 20.7898C120.143 20.7801 121.832 21.1417 123.385 21.8496C125.389 22.7239 126.498 24.3239 127.117 26.4889C127.51 28.0411 127.694 29.6386 127.665 31.2395C127.665 36.72 126.523 43.3181 123.64 48.0645C122.638 49.446 121.232 50.6213 119.607 50.6213C119.461 50.6197 119.315 50.6101 119.17 50.5924C118.44 50.5329 117.745 50.2557 117.174 49.7965C113.789 46.7243 113.929 41.1366 114.007 37.0128C114.057 34.4107 114.147 31.4663 114.213 28.5013C114.201 27.6023 114.201 27.1363 114.201 26.2497V24.2208C114.201 24.0146 114.201 23.9157 114.226 23.7095C114.241 23.2663 114.318 22.8276 114.457 22.4063C115.108 21.2146 116.684 20.7898 118.428 20.7898M119.001 52.4852C119.295 52.4857 119.588 52.505 119.879 52.543C122.214 52.8687 124.416 54.4935 124.209 56.6338C123.999 58.9596 121.884 59.7926 119.554 59.7926C118.94 59.7902 118.327 59.7364 117.723 59.6317C115.978 59.3431 113.978 57.9369 114.184 56.0193C114.374 54.2832 115.768 53.1079 117.484 52.679C117.979 52.5474 118.489 52.4822 119.001 52.4852ZM118.436 18.3156C114.675 18.3156 113.022 19.8908 112.296 21.2022L112.184 21.4043L112.11 21.6269C111.906 22.2582 111.789 22.9145 111.764 23.5775L111.727 24.1095V26.2909C111.727 27.1652 111.727 27.6188 111.772 28.4972C111.743 29.825 111.706 31.1529 111.673 32.4436C111.632 34.0313 111.595 35.5323 111.566 36.9551V37.087C111.483 41.4005 111.368 47.2315 114.956 51.0625C114.079 51.525 113.327 52.1932 112.765 53.0098C112.202 53.8263 111.846 54.767 111.727 55.7513C111.364 59.0503 114.283 61.5699 117.319 62.073C118.057 62.1995 118.805 62.2644 119.554 62.2668C123.64 62.2668 126.37 60.205 126.671 56.8564C126.869 54.7079 125.76 52.7327 123.867 51.4502C124.542 50.8829 125.144 50.2332 125.657 49.5161L125.715 49.4336L125.768 49.3511C129.723 42.8356 130.152 34.5055 130.152 31.2395C130.186 29.4096 129.97 27.5837 129.508 25.8126C128.642 22.7775 126.993 20.7486 124.465 19.6269C122.575 18.758 120.517 18.3133 118.436 18.3238V18.3156Z" fill="#45413C"/>
<path d="M16.3885 64.4607C15.7772 64.4948 15.1655 64.4026 14.5915 64.1898C14.0175 63.9769 13.4935 63.648 13.0523 63.2236C12.2934 62.4201 11.7748 61.4201 11.5554 60.3369L11.374 59.5946C10.5492 56.3162 9.75745 52.4646 9.22136 49.8543C8.25639 45.1655 11.0276 41.2933 16.1122 40.2128C17.2256 39.9778 17.8648 39.8005 18.3308 39.6726C18.6277 39.5902 18.8545 39.5283 19.0772 39.4829C20.1597 39.2319 21.2653 39.0937 22.3762 39.0706C23.9598 39.0706 26.6856 39.5902 27.1474 43.0748C27.5846 46.3738 25.4649 47.2356 23.8484 47.5903L23.5185 47.6522L19.4195 48.3037C18.9971 48.3647 18.5901 48.5046 18.2195 48.7161C18.1469 48.9347 18.1397 49.1698 18.1988 49.3924C18.2442 49.6316 18.2937 49.8749 18.3473 50.1058L18.6896 50.0481C19.1597 49.9656 19.6174 49.8872 19.9886 49.8295C20.6155 49.7227 21.2496 49.6634 21.8855 49.6522C23.8773 49.6522 25.0979 50.5677 25.5062 52.3739C25.6794 53.1492 25.8072 54.1471 25.234 55.0007C24.6608 55.8544 23.4814 56.2131 22.3474 56.3987L21.6422 56.5142C21.1102 56.5966 20.269 56.7286 19.6875 56.8564C19.7576 57.1575 19.8525 57.5245 19.9308 57.8297C20.2937 59.2441 20.7061 60.8524 20.4793 62.1143C20.2154 63.4462 19.0483 64.2916 17.271 64.4648C16.9328 64.4442 16.6565 64.4607 16.3885 64.4607Z" fill="#EDF2F4"/>
<path d="M22.3551 40.2706C24.1242 40.2706 25.5923 40.9056 25.8974 43.2026C26.1655 45.2109 25.3572 45.949 23.551 46.3449L23.2623 46.3985L19.1921 47.046C18.587 47.1294 18.0049 47.3341 17.4808 47.648C16.8993 48.0233 16.8086 48.8852 16.9529 49.5903C17.0629 50.2235 17.2186 50.8478 17.4189 51.4584C18.2437 51.3264 19.3901 51.1203 20.1447 51.0048C20.7089 50.907 21.2796 50.8519 21.852 50.8398C23.1386 50.8398 23.9634 51.2522 24.2644 52.6007C24.6479 54.2956 24.1077 54.7987 22.1118 55.1286C20.7303 55.3595 18.5859 55.6399 18.4004 55.9739C18.0416 56.5636 19.5633 60.0441 19.2457 61.8503C19.0602 62.7906 17.9839 63.0875 17.1344 63.1823C16.8919 63.2083 16.6483 63.222 16.4045 63.2236C15.9581 63.2525 15.5105 63.189 15.0898 63.0372C14.669 62.8853 14.2841 62.6484 13.9591 62.3411C13.3474 61.6974 12.93 60.894 12.7549 60.0235L12.5693 59.2771C11.8353 56.2791 11.1054 52.7574 10.4291 49.5821C9.55486 45.3346 12.2642 42.2747 16.3673 41.4046C18.1571 41.0252 18.7756 40.7984 19.353 40.6706C20.3442 40.4325 21.3569 40.2943 22.3757 40.2582M22.3757 37.7839C21.184 37.8152 19.9985 37.9672 18.8375 38.2376C18.5694 38.2953 18.3138 38.3654 18.0127 38.4479C17.5632 38.5716 16.9447 38.7407 15.8684 38.9716C10.1528 40.184 6.92388 44.7449 8.03318 50.0687C8.56927 52.6914 9.38166 56.5554 10.1982 59.8586C10.2683 60.1513 10.3054 60.2998 10.3796 60.5967C10.6542 61.9055 11.2899 63.1112 12.2147 64.0772C12.7674 64.6179 13.4251 65.0396 14.1471 65.3162C14.8691 65.5928 15.6402 65.7185 16.4127 65.6855C16.7179 65.6855 17.0354 65.6855 17.3818 65.636C19.7035 65.4092 21.3118 64.172 21.6788 62.3369V62.2833C21.9303 60.8606 21.5592 59.2482 21.1881 57.7884L21.8149 57.6894L22.5283 57.574C23.8685 57.3554 25.3572 56.9513 26.2397 55.644C27.1222 54.3368 26.9077 52.9924 26.6974 52.0564C26.5644 51.3353 26.257 50.6576 25.802 50.0826C25.347 49.5076 24.7583 49.0526 24.0871 48.7573C26.3263 48.2666 28.8872 46.848 28.3593 42.8727C27.9469 39.6438 25.7448 37.7922 22.3633 37.7922L22.3757 37.7839Z" fill="#45413C"/>
<path d="M34.5556 62.8111C32.6133 62.8111 30.7535 62.3987 30.3081 59.3801C30.1927 58.609 29.9576 56.9966 31.2277 56.1017C31.4052 55.9783 31.5721 55.8403 31.7267 55.6894C31.5494 54.378 31.2896 52.9718 31.0174 51.4831C30.8401 50.5181 30.6587 49.5119 30.4813 48.4727C30.403 48.0026 30.3411 47.483 30.2834 46.984C30.238 46.6047 30.1886 46.217 30.1349 45.8418C30.0823 45.2507 29.9548 44.6687 29.7556 44.1098C29.7569 44.0947 29.7569 44.0795 29.7556 44.0644C29.6677 44.0336 29.5782 44.0074 29.4875 43.9861C28.9349 43.8582 27.6318 43.3015 27.4256 40.9551C27.3428 40.1172 27.4499 39.2715 27.739 38.4808C28.4731 36.7158 30.6257 36.1138 32.6587 35.7632L33.3721 35.6436C34.1511 35.4921 34.9416 35.4079 35.735 35.3921C37.9454 35.3921 39.199 36.4478 39.4464 38.5344L39.4836 38.9963C39.6279 40.7695 39.1578 41.9448 37.9165 42.8644C37.9784 43.6562 38.131 44.65 38.2712 45.5366L38.3289 45.9077C38.5392 47.2768 38.6547 47.9696 38.8939 49.38C39.0671 50.3903 39.2114 51.4748 39.3557 52.5182C39.4712 53.3842 39.5825 54.2007 39.7021 54.9512C39.6994 54.9772 39.6994 55.0035 39.7021 55.0295C41.1248 55.6894 41.8259 56.2667 42.0857 58.2997C42.3455 60.3327 41.6197 61.7596 40.1846 62.242C39.5248 62.4647 38.2877 62.6132 35.9124 62.7534C35.3557 62.7946 34.9268 62.8111 34.5556 62.8111Z" fill="#EDF2F4"/>
<path d="M35.7251 36.6292C37.2756 36.6292 38.0344 37.1983 38.1993 38.6911C38.1993 38.856 38.22 38.9385 38.2323 39.1034C38.3643 40.753 37.8406 41.4334 36.9581 42.019C36.8473 42.0992 36.7601 42.2078 36.7057 42.3333C36.6513 42.4588 36.6316 42.5967 36.6488 42.7324C36.7065 43.7262 36.9251 45.0582 37.0859 46.0974C37.3004 47.5036 37.4199 48.2005 37.655 49.5902C37.9643 51.4006 38.1911 53.4542 38.4798 55.1491C38.5746 55.747 38.8055 55.9738 39.0859 56.1058C40.3231 56.6584 40.6736 56.8893 40.8715 58.4605C41.02 59.6028 40.8138 60.7368 39.7911 61.0832C39.1478 61.2977 37.4983 61.4172 35.8488 61.5286C35.3745 61.5575 34.9498 61.5739 34.5663 61.5739C32.6364 61.5739 31.824 61.1162 31.5435 59.1986C31.424 58.4028 31.3539 57.5491 31.9559 57.112C32.6693 56.6089 33.0487 56.18 32.9992 55.78C32.7106 53.5202 32.1745 51.0294 31.7168 48.2747C31.5848 47.483 31.5023 46.5428 31.3745 45.6726C31.2959 44.9687 31.1339 44.2765 30.892 43.6107C30.7883 43.3907 30.6293 43.2013 30.4305 43.0611C30.2318 42.9209 30 42.8346 29.758 42.8107C29.1064 42.6581 28.7476 41.8911 28.6651 40.8808C28.5969 40.2489 28.6687 39.6096 28.8755 39.0086C29.4074 37.7302 31.3497 37.2684 32.8797 37.0003L33.6219 36.8725C34.3195 36.7379 35.0272 36.662 35.7374 36.6457M35.7374 34.1714C34.8846 34.1851 34.0346 34.2734 33.1972 34.4353L32.7848 34.5096L32.4632 34.5632C31.0487 34.8106 27.7373 35.3879 26.6156 38.0271C26.2519 39.0022 26.111 40.0463 26.2032 41.0829C26.3641 43.0829 27.3084 44.5468 28.7641 45.0871C28.8095 45.3056 28.8672 45.6108 28.9291 46.0479C28.9827 46.3984 29.028 46.7861 29.0734 47.1572C29.1353 47.6727 29.1971 48.2005 29.2796 48.6995C29.4569 49.7552 29.6425 50.7614 29.8198 51.7346C30.0425 52.947 30.2569 54.1017 30.4178 55.1903C28.6569 56.5347 28.9786 58.7368 29.1023 59.578C29.6961 63.5987 32.5085 64.0647 34.5745 64.0647C34.9869 64.0647 35.424 64.0647 36.0055 64.0152C38.5292 63.8626 39.8159 63.7018 40.5994 63.4379C42.1829 62.9018 43.7376 61.2358 43.3458 58.1595C43.0654 55.9697 42.2695 54.9965 40.8715 54.2254C40.7849 53.6398 40.6984 53.0212 40.6118 52.3738C40.4674 51.3181 40.319 50.2253 40.1458 49.1902C39.9066 47.784 39.7911 47.1283 39.5808 45.7345L39.5231 45.3592C39.4282 44.7489 39.3169 44.0396 39.2427 43.4046C40.4221 42.2829 40.8922 40.8313 40.7478 38.9138C40.7478 38.757 40.7478 38.6746 40.7148 38.5014V38.3818C40.3808 35.6972 38.5787 34.1549 35.7663 34.1549L35.7374 34.1714Z" fill="#45413C"/>
<path d="M51.3359 62.1678C44.4079 62.1678 40.5275 55.0131 39.3068 48.881C38.5427 44.6521 39.4282 40.2912 41.7811 36.6952C43.6368 33.9282 46.1812 32.159 49.1379 31.5776C49.7399 31.461 50.3516 31.4016 50.9648 31.4003C53.0976 31.3646 55.1695 32.1121 56.7882 33.5013C58.4069 34.8905 59.4601 36.825 59.7484 38.9385C60.0247 41.0004 58.6556 42.551 56.2515 42.8809C55.9782 42.9197 55.7027 42.9404 55.4267 42.9427C54.8216 42.9502 54.2239 42.8086 53.6865 42.5304C53.2992 42.326 52.932 42.0857 52.5895 41.8128C52.0081 41.4004 51.6246 41.0912 50.9112 41.0912C50.7481 41.0916 50.5853 41.1054 50.4245 41.1324C50.1197 41.178 49.8276 41.2866 49.567 41.4513C49.3065 41.616 49.0831 41.8333 48.9111 42.0891C48.0369 43.2891 47.74 45.4088 48.1235 47.7511C48.3503 49.1532 49.1544 52.4192 51.6823 52.4192H51.971C52.2352 52.4121 52.495 52.3497 52.7336 52.236C52.9723 52.1224 53.1845 51.96 53.3566 51.7594L53.4184 51.6769H53.0184C50.3421 51.6769 49.9792 49.413 49.8225 48.448C49.7048 47.9142 49.6993 47.3618 49.8065 46.8258C49.9137 46.2898 50.1312 45.782 50.4452 45.3345C51.4308 44.0273 53.1504 43.6603 54.7009 43.4747C55.2575 43.4011 55.8179 43.3612 56.3793 43.3551H56.503C58.4865 43.3881 59.9835 44.4026 60.8289 46.2913C61.2956 47.4057 61.6238 48.5732 61.8062 49.7676L61.8309 49.9243C62.1565 51.2767 62.1775 52.6846 61.8922 54.0461C61.6069 55.4076 61.0226 56.6887 60.1814 57.7966C59.1943 59.0822 57.9396 60.1378 56.5041 60.8905C55.0686 61.6431 53.4867 62.0747 51.8679 62.1554C51.6782 62.1637 51.5173 62.1678 51.3359 62.1678Z" fill="#EDF2F4"/>
<path d="M50.9517 32.6374C54.6631 32.6374 57.9621 35.1817 58.5065 39.1035C58.7457 40.8519 57.2693 41.487 56.0734 41.652C55.8564 41.6848 55.6373 41.7027 55.4178 41.7056C55.0137 41.7112 54.6144 41.6177 54.2549 41.4334C53.1868 40.9014 52.5476 39.854 50.9022 39.854C50.6785 39.8548 50.4552 39.8728 50.2342 39.9076C47.3475 40.32 46.2465 43.9819 46.8898 47.949C47.4671 51.4954 49.2115 53.6563 51.6734 53.6563C51.8053 53.6563 51.9414 53.6563 52.0857 53.6357C54.2878 53.4336 55.0549 51.7099 54.8817 50.5758C54.8817 50.481 54.8569 50.4315 54.8446 50.3325L53.261 50.4356H53.0218C51.3723 50.4356 51.1991 49.1985 51.0465 48.2335C50.6342 45.5448 52.7291 44.9345 54.8611 44.6953C55.3685 44.6292 55.8793 44.5921 56.391 44.584H56.4652C58.09 44.6087 59.0879 45.4541 59.6859 46.7902C60.1072 47.8005 60.4036 48.8586 60.5684 49.9408C60.5684 50.0274 60.5684 50.0686 60.6014 50.1511C61.9663 55.9244 57.125 60.642 51.7723 60.9142H51.3187C44.9928 60.9142 41.5866 54.0687 40.5062 48.6253C39.269 42.3695 42.5681 34.1054 49.3434 32.7776C49.8676 32.673 50.4007 32.6205 50.9352 32.6209M50.9352 30.1466C50.2431 30.1483 49.5526 30.216 48.8733 30.3487C45.5743 30.992 42.7701 32.9425 40.7288 35.99C38.2005 39.8628 37.253 44.5575 38.0814 49.1078C39.3927 55.7058 43.6444 63.3884 51.3228 63.3884H51.9002C53.7025 63.2978 55.4636 62.8164 57.0615 61.9776C58.6593 61.1388 60.0557 59.9626 61.1539 58.5306C62.1041 57.2903 62.768 55.8551 63.0982 54.3279C63.4283 52.8008 63.4163 51.2195 63.0633 49.6975V49.5779C62.8635 48.2739 62.5034 46.9996 61.9911 45.784C61.4789 44.5659 60.5882 43.5451 59.4508 42.8726C60.0461 42.3857 60.5021 41.7502 60.773 41.0304C61.0438 40.3106 61.1197 39.5321 60.9931 38.7736C60.6674 36.3623 59.4689 34.1542 57.6244 32.5673C55.7799 30.9805 53.4176 30.1251 50.9847 30.1631L50.9352 30.1466ZM49.2362 44.9221C49.2832 44.1808 49.5127 43.4626 49.9043 42.8314C49.9803 42.7083 50.0819 42.6031 50.2021 42.5227C50.3223 42.4423 50.4584 42.3886 50.6012 42.3654C50.7008 42.3499 50.8014 42.3417 50.9022 42.3406C51.1744 42.3406 51.2692 42.3901 51.8383 42.8149L51.8919 42.8561C50.9296 43.1887 50.0835 43.7914 49.4548 44.5922C49.3758 44.6937 49.3028 44.7997 49.2362 44.9098V44.9221Z" fill="#45413C"/>
<path d="M69.1533 60.4028C68.2624 60.3947 67.3967 60.1061 66.6791 59.578C65.5079 58.7533 64.5553 57.0502 63.6027 54.048C62.7205 51.1056 62.0412 48.106 61.5697 45.0706C61.1643 42.4853 60.889 39.8813 60.745 37.2684C60.6913 36.0766 60.6501 33.9693 60.947 32.9136C61.1189 31.9436 61.5824 31.049 62.2757 30.349C62.9689 29.6491 63.8591 29.1771 64.8275 28.9961C65.1062 28.9429 65.3892 28.9153 65.6729 28.9136C66.6791 28.9136 69.0626 29.326 69.4833 33.2312C69.6523 34.8023 69.7554 35.6065 69.9822 37.2312C70.3327 39.7797 70.7534 39.7797 70.9802 39.7797H71.141C71.9658 39.6767 72.1637 39.5241 72.2132 39.4622C72.5596 39.0168 72.2586 36.7405 72.0565 35.2395L71.9328 34.2786C71.4256 30.2291 73.1699 27.2311 76.3988 26.6455C76.7821 26.5715 77.1714 26.5328 77.5617 26.53C80.5927 26.53 81.5453 29.2641 82.0402 31.6476C82.2257 32.559 82.4526 33.8704 82.7783 36.0312L82.9309 37.0086C83.8629 43.0582 84.8237 49.3139 84.4485 55.4089C84.267 58.3285 82.7989 60.0564 80.3659 60.1554H79.9288C77.4916 60.1554 75.9823 59.112 75.438 57.0584C75.0052 55.1259 74.6694 53.1729 74.4318 51.2068C74.1184 48.8851 73.8957 48.8851 73.4916 48.8851H73.0792C72.2544 48.9593 72.0895 49.0789 72.0647 49.1036C71.9799 49.4155 71.9799 49.7444 72.0647 50.0562C72.1843 50.881 72.3204 51.5903 72.4565 52.2666C72.5926 52.9429 72.7246 53.6357 72.7988 54.3285C72.9307 55.5326 72.972 57.7718 71.7266 59.2275C71.4323 59.5765 71.0682 59.8599 70.6576 60.0595C70.2471 60.2591 69.7993 60.3704 69.343 60.3863L69.1533 60.4028Z" fill="#EDF2F4"/>
<path d="M77.5751 27.7714C79.1917 27.7714 80.1979 28.7941 80.8412 31.8952C81.0474 32.9055 81.2948 34.4107 81.5711 36.2169C82.5319 42.4768 83.633 49.0419 83.2206 55.3306C83.0969 57.343 82.2804 58.8359 80.334 58.9142H79.9463C78.4288 58.9142 77.1174 58.5018 76.6473 56.741C76.2234 54.8578 75.8958 52.9543 75.6658 51.0378C75.2947 48.2955 74.8411 47.6439 73.5008 47.6439C73.3231 47.6439 73.1455 47.6535 72.9689 47.6728C71.3194 47.8171 70.5441 48.213 70.8369 50.2501C71.0925 52.0275 71.4307 53.244 71.5668 54.4605C71.8307 56.8441 71.1833 59.0585 69.2822 59.1451H69.1502C68.5161 59.1411 67.8996 58.9361 67.3894 58.5596C66.3255 57.8214 65.4883 55.9038 64.779 53.6688C63.9111 50.7881 63.2455 47.8503 62.7872 44.8768C62.4573 42.7778 62.1027 39.685 61.9914 37.2066C61.9089 35.3427 61.9666 33.7962 62.1604 33.1942C62.2777 32.4607 62.6175 31.781 63.1338 31.247C63.6501 30.713 64.318 30.3505 65.0471 30.2085C65.2538 30.17 65.4636 30.1507 65.6739 30.1508C67.2533 30.1508 68.0409 31.3879 68.2554 33.3591C68.4286 34.9633 68.5317 35.7757 68.7585 37.3963C69.0472 39.4871 69.476 41.0129 70.9812 41.0129C71.087 41.0186 71.193 41.0186 71.2987 41.0129C73.8472 40.6912 73.8926 39.6726 73.2864 35.0787C73.2328 34.6993 73.208 34.5097 73.1627 34.1261C72.7503 30.7323 74.0988 28.3281 76.6225 27.8662C76.9324 27.8061 77.2471 27.7743 77.5628 27.7714M77.5628 25.2971C77.0977 25.3006 76.634 25.3462 76.1772 25.4332C72.8781 26.0353 70.7915 28.7652 70.6224 32.4684C69.8678 28.0518 66.6718 27.6972 65.6739 27.6972C65.3172 27.6989 64.9613 27.7307 64.61 27.792C63.4068 28.0223 62.301 28.6097 61.4367 29.4777C60.5724 30.3457 59.9897 31.454 59.7645 32.6581C59.5171 33.6024 59.4387 35.1736 59.5377 37.3386C59.6792 39.9982 59.9544 42.649 60.3625 45.281C60.8368 48.3767 61.5258 51.4356 62.4244 54.4358C63.4635 57.7348 64.5605 59.6235 65.9791 60.6215C66.9064 61.2828 68.0154 61.6414 69.1544 61.6483H69.4018C70.0265 61.6224 70.6391 61.4676 71.2011 61.1937C71.7632 60.9197 72.2625 60.5326 72.6678 60.0565C73.4755 59.0439 73.9572 57.8103 74.0493 56.5183C74.1153 56.8358 74.1854 57.1327 74.2555 57.4008C74.6679 58.9018 75.905 61.4173 79.9422 61.4173H80.4288C81.5835 61.372 85.3773 60.8111 85.699 55.5162C86.0825 49.2852 85.1093 42.9634 84.1649 36.8478L84.0165 35.8499C83.6825 33.6684 83.4556 32.3405 83.2618 31.4044C82.9525 29.8951 82.0247 25.2971 77.5751 25.2971H77.5628Z" fill="#45413C"/>
<path d="M98.8553 59.9657C97.1522 59.9657 94.3521 59.3595 93.6181 57.6853C93.1769 56.679 93.0325 55.0749 92.8593 53.2151C92.7933 52.4563 92.7191 51.6728 92.6284 50.9635C92.4222 49.4006 92.216 47.784 92.0222 46.1593L91.8779 45.0046C91.5727 42.5303 91.2634 39.986 91.0201 37.9653V37.8416C90.1747 37.8911 89.0737 37.9529 88.2489 37.9529H88.183C87.115 37.9606 86.0611 37.7102 85.1107 37.223C84.1251 36.7199 82.8591 34.9756 82.4468 31.726C82.121 29.1569 82.9045 25.9527 86.1912 25.3424L91.6263 24.3486C94.4016 23.8414 96.9336 23.4207 98.7811 23.1114C99.7419 22.9506 100.484 22.8269 100.913 22.7486C101.836 22.5699 102.773 22.4761 103.713 22.4681C107.664 22.4681 110.01 24.53 110.493 28.4188C111.111 33.3426 105.771 35.0168 102.191 35.9859C102.517 37.8375 102.967 40.0561 103.429 42.3984C103.705 43.7469 103.981 45.116 104.253 46.4397C104.666 48.5593 105.173 51.3099 105.416 53.7842C105.466 54.2831 105.49 54.7821 105.515 55.2646C105.515 55.5368 105.54 55.8048 105.561 56.0646L105.589 56.477L105.354 56.8275C104.093 58.7121 101.758 59.8874 99.1069 59.9698L98.8553 59.9657Z" fill="#EDF2F4"/>
<path d="M103.697 23.6888C106.509 23.6888 108.786 24.8394 109.252 28.5549C109.792 32.8972 104.039 34.2003 100.765 35.0663L100.888 35.7962C101.396 38.7654 102.286 42.9139 103.016 46.6583C103.499 49.1326 103.94 51.6481 104.163 53.8873C104.233 54.6337 104.253 55.4172 104.299 56.1306C103.317 57.6028 101.412 58.6503 99.0451 58.7286H98.8555C97.276 58.7286 95.1688 58.143 94.7523 57.1863C94.2244 55.9863 94.1543 53.112 93.8533 50.8027C93.6018 48.8728 93.3584 46.8645 93.1069 44.8521C92.7275 41.8087 92.3522 38.6953 92.0924 36.5385C91.6058 36.5385 89.5316 36.7159 88.2326 36.7159H88.1707C87.2977 36.7254 86.4356 36.5215 85.6593 36.122C85.1068 35.8375 84.0098 34.4189 83.6593 31.557C83.2758 28.5549 84.5583 26.8847 86.3975 26.5466L91.8326 25.5404C96.0884 24.7651 99.8781 24.1672 101.119 23.9404C101.969 23.7772 102.832 23.6902 103.697 23.6806M103.697 21.2063C102.682 21.2149 101.67 21.3157 100.674 21.5073L98.5585 21.8661C96.707 22.1754 94.1708 22.6001 91.3873 23.1032L85.9521 24.1094C85.1517 24.2479 84.3907 24.5581 83.7215 25.0186C83.0524 25.4792 82.4909 26.0793 82.0758 26.7775C81.251 28.159 80.95 29.8745 81.2057 31.8704C81.618 35.0004 82.8552 37.4705 84.5294 38.32C85.6505 38.9003 86.896 39.1989 88.1584 39.1901H88.2202C88.7233 39.1901 89.3213 39.1654 89.9027 39.1406C90.1254 40.9592 90.3811 43.0706 90.6409 45.1572L90.7811 46.3036C90.979 47.8996 91.1935 49.5532 91.3873 51.1244C91.478 51.8089 91.5481 52.5842 91.6182 53.3306C91.7955 55.2935 91.9522 56.9925 92.4718 58.1801C93.5193 60.5678 96.9668 61.2029 98.8431 61.2029H99.107C102.159 61.108 104.88 59.7266 106.344 57.4915L106.814 56.7904L106.757 55.9657C106.757 55.71 106.728 55.4502 106.711 55.1863C106.687 54.6873 106.662 54.1759 106.612 53.6481C106.361 51.1161 105.849 48.3284 105.433 46.1841C105.173 44.8562 104.893 43.4706 104.608 42.1304C104.229 40.2458 103.862 38.419 103.569 36.8561C105.099 36.4445 106.573 35.8462 107.957 35.0746C111.668 32.8807 111.882 29.8539 111.668 28.2456C111.111 23.7754 108.192 21.2145 103.66 21.2145L103.697 21.2063Z" fill="#45413C"/>
<path d="M119.821 59.9575C119.138 59.9558 118.457 59.8978 117.784 59.7843C115.309 59.3719 112.938 57.4007 113.223 54.811C113.454 52.6914 115.074 51.0047 117.45 50.4068L117.73 50.3367C117.349 50.1687 116.992 49.9495 116.67 49.6851L116.621 49.6439C112.852 46.217 112.963 40.3241 113.045 36.0354V35.9199C113.074 34.5055 113.111 32.9879 113.153 31.4209C113.186 30.1178 113.219 28.7775 113.247 27.4373C113.227 26.5424 113.219 26.0929 113.202 25.2105V23.0826L113.227 22.5671C113.246 22.0065 113.343 21.4514 113.516 20.9176L113.553 20.8063L113.606 20.7073C114.171 19.6763 115.507 18.4475 118.666 18.4475C120.564 18.4343 122.442 18.8384 124.167 19.631C126.357 20.6001 127.792 22.3733 128.555 25.0455C128.982 26.7086 129.183 28.4216 129.153 30.1384C129.153 33.3054 128.741 41.3551 124.947 47.6026L124.922 47.648L124.889 47.6851C124.055 48.9348 122.864 49.9036 121.47 50.4645C124.439 51.3264 125.858 53.6522 125.677 55.644C125.462 58.3574 123.272 59.9575 119.821 59.9575Z" fill="#EDF2F4"/>
<path d="M118.693 19.7176C120.401 19.7079 122.089 20.071 123.642 20.7815C125.65 21.6557 126.759 23.2558 127.374 25.4208C127.77 26.9723 127.956 28.5702 127.926 30.1714C127.926 35.6477 126.784 42.2458 123.897 46.9923C122.895 48.3779 121.489 49.549 119.869 49.549C119.721 49.5495 119.574 49.5399 119.427 49.5201C118.699 49.4606 118.005 49.1833 117.435 48.7243C114.05 45.652 114.19 40.0643 114.268 35.9405C114.318 33.3384 114.409 30.394 114.47 27.429C114.45 26.5218 114.442 26.0723 114.425 25.1857C114.425 24.662 114.425 23.6187 114.45 23.1609C114.45 22.9547 114.45 22.8516 114.475 22.6496C114.49 22.2055 114.567 21.7657 114.701 21.3423C115.357 20.1547 116.928 19.7258 118.677 19.7258M119.25 51.4212C119.544 51.4211 119.837 51.4418 120.128 51.4831C122.462 51.8088 124.664 53.4336 124.454 55.5697C124.244 57.8997 122.128 58.7286 119.803 58.7286C119.189 58.7257 118.577 58.6733 117.972 58.5719C116.223 58.2791 114.223 56.8729 114.433 54.9553C114.623 53.2233 116.013 52.0686 117.732 51.615C118.228 51.4847 118.738 51.4195 119.25 51.4212ZM118.685 17.2515C114.924 17.2515 113.27 18.8309 112.541 20.1382L112.429 20.3444L112.359 20.5629C112.155 21.1956 112.038 21.8533 112.013 22.5176L111.988 23.0372V25.2146C111.988 26.0888 112.013 26.5424 112.033 27.4208C112.004 28.7528 111.971 30.0765 111.938 31.3673C111.897 32.9549 111.86 34.456 111.831 35.8787V35.9941C111.749 40.3076 111.637 46.1428 115.221 49.9738C114.346 50.4391 113.596 51.1101 113.038 51.929C112.479 52.7478 112.127 53.6901 112.013 54.6749C111.654 57.9739 114.574 60.4935 117.605 61.0008C118.345 61.1239 119.093 61.1874 119.844 61.1905C123.93 61.1905 126.656 59.1286 126.961 55.7842C127.155 53.6316 126.05 51.6604 124.153 50.3738C124.831 49.8097 125.433 49.1595 125.943 48.4397L126.005 48.3614L126.054 48.2748C130.013 41.7592 130.442 33.4291 130.442 30.1672C130.475 28.3361 130.258 26.509 129.799 24.7362C128.933 21.7011 127.283 19.6763 124.755 18.5505C122.865 17.6806 120.807 17.2344 118.726 17.2433L118.685 17.2515Z" fill="#45413C"/>
</svg>
