<svg width="155" height="155" viewBox="0 0 155 155" fill="none" xmlns="http://www.w3.org/2000/svg">
<path d="M77.1225 109.006L76.0008 109.369C66.3223 96.6632 58.05 115.897 46.7673 120.536C36.8701 124.598 27.2369 123.167 23.109 115.022C18.3213 105.591 31.4844 93.9539 32.6638 89.995C33.7442 86.362 34.0741 82.7083 31.839 80.4196C30.4076 80.6518 28.9407 80.5223 27.5722 80.0427C26.2036 79.5631 24.9769 78.7482 24.0039 77.6732C16.7542 70.139 29.5009 60.6626 29.5009 60.6626C25.7072 57.785 22.8911 53.8097 21.4351 49.2764C19.9791 44.7427 19.9538 39.8711 21.3625 35.3228C22.7712 30.7744 25.5457 26.77 29.3092 23.8531C33.0728 20.9363 37.6428 19.2486 42.3988 19.0191C47.1545 18.7897 51.8659 20.0296 55.8928 22.5706C59.9197 25.1115 63.067 28.8303 64.907 33.2219C66.747 37.6135 67.1907 42.4651 66.1779 47.1176C65.1651 51.77 62.7449 55.9981 59.2459 59.2275C64.2893 59.2275 71.3987 67.9452 67.378 73.9741C65.3161 77.0752 63.0109 78.4361 60.6191 78.6752C59.65 86.0403 54.6561 91.694 47.6787 94.4611C41.4928 96.9065 40.8413 99.1045 39.2454 101.55C34.3958 109.006 35.1958 112.651 40.2103 113.377C48.8003 114.614 60.916 100.304 69.4893 101.418C78.0627 102.531 77.1225 109.006 77.1225 109.006Z" fill="#00B8F0"/>
<path d="M33.0403 82.3249C38.1332 82.9394 44.3147 77.5496 46.4426 75.4093C50.8097 78.795 56.0799 82.7208 60.4923 79.5579C60.5459 79.2651 60.5913 78.9723 60.6284 78.6754C55.8242 79.1249 50.5911 75.0464 46.1292 71.4216C43.9601 73.7062 37.7208 79.7022 31.832 80.4197C32.3063 80.9806 33.0032 81.6857 33.0403 82.3249Z" fill="#009FD9"/>
<path d="M31.8282 80.4196C34.0716 82.7083 33.7417 86.3661 32.653 89.995C31.486 93.9579 18.3187 105.591 23.1064 115.026C27.2302 123.167 36.8881 124.602 46.7647 120.54C58.0515 115.901 66.3196 96.6673 75.9982 109.373L77.1198 109.01C77.1198 109.01 78.0601 102.573 69.4867 101.438C60.9134 100.304 48.7977 114.61 40.2078 113.397C35.1974 112.676 34.3973 109.03 39.2552 101.575C40.8469 99.1292 41.515 96.9312 47.6843 94.4858C54.6658 91.7187 59.6432 86.1021 60.6288 78.7371" stroke="#45413C" stroke-width="2.42" stroke-linecap="round" stroke-linejoin="round"/>
<path d="M20.4475 39.8787C20.3733 40.6374 20.332 41.4045 20.332 42.1839C20.3334 47.9732 22.5 53.5531 26.4062 57.8262C30.3124 62.0997 35.6756 64.757 41.4417 65.2771C46.2054 65.7076 50.9853 64.6515 55.1244 62.2543C47.7263 63.0667 27.8085 64.5224 20.4475 39.8787Z" fill="#009FD9"/>
<path d="M118.033 138.532C126.681 138.532 133.691 137.522 133.691 136.276C133.691 135.03 126.681 134.021 118.033 134.021C109.385 134.021 102.375 135.03 102.375 136.276C102.375 137.522 109.385 138.532 118.033 138.532Z" fill="#E0E0E0"/>
<path d="M127.624 111.175C131.785 111.175 131.785 116.536 131.785 116.536V123.604C131.785 124.163 131.563 124.699 131.168 125.094C130.773 125.489 130.236 125.711 129.678 125.711C129.119 125.711 128.583 125.489 128.188 125.094C127.792 124.699 127.57 124.163 127.57 123.604V134.878C127.575 135.214 127.457 135.539 127.24 135.795C127.023 136.05 126.721 136.219 126.389 136.268C126.057 136.319 125.719 136.247 125.436 136.068C125.153 135.888 124.944 135.612 124.849 135.291L124.024 132.313C123.963 132.104 123.835 131.92 123.66 131.789C123.485 131.658 123.273 131.588 123.055 131.588C119.786 132.627 116.275 132.627 113.005 131.588C112.786 131.588 112.573 131.658 112.398 131.789C112.223 131.919 112.094 132.103 112.032 132.313L111.207 135.291C111.109 135.61 110.899 135.883 110.617 136.06C110.334 136.238 109.997 136.308 109.667 136.258C109.337 136.208 109.036 136.042 108.818 135.788C108.601 135.535 108.481 135.212 108.481 134.878V119.208C101.702 121.653 93.8668 118.383 95.4998 114.771C96.9019 111.678 101.405 119.897 109.521 111.707C105.328 109.788 101.906 106.507 99.8145 102.397C97.7221 98.2876 97.0813 93.5914 97.9967 89.0713C98.9118 84.5516 101.329 80.4745 104.855 77.5024C108.381 74.5304 112.809 72.8389 117.418 72.7024C122.028 72.5655 126.548 73.9923 130.244 76.7503C133.94 79.5083 136.594 83.4349 137.775 87.8927C138.956 92.3505 138.595 97.0764 136.75 101.303C134.905 105.529 131.684 109.007 127.612 111.171L127.624 111.175Z" fill="white"/>
<path d="M47.4203 138.532C54.3961 138.532 60.0515 137.716 60.0515 136.709C60.0515 135.703 54.3961 134.886 47.4203 134.886C40.4442 134.886 34.7891 135.703 34.7891 136.709C34.7891 137.716 40.4442 138.532 47.4203 138.532Z" fill="#E0E0E0"/>
<path d="M30.6839 61.4956C26.4545 58.682 23.2661 54.5569 21.6087 49.7552C19.9514 44.9535 19.9167 39.7401 21.51 34.9166C23.1034 30.0931 26.2365 25.9263 30.4281 23.0565C34.6196 20.1867 39.6376 18.7728 44.7107 19.0319C49.7842 19.2911 54.6317 21.209 58.5093 24.4909C62.3865 27.7729 65.0789 32.2373 66.1721 37.198C67.2657 42.1588 66.7 47.3412 64.5622 51.9495C62.424 56.5574 58.8318 60.3356 54.3377 62.7039" stroke="#45413C" stroke-width="2.42" stroke-linecap="round" stroke-linejoin="round"/>
<path d="M127.573 116.33V134.887C127.577 135.222 127.459 135.547 127.242 135.803C127.025 136.058 126.723 136.227 126.392 136.277C126.06 136.327 125.721 136.256 125.439 136.076C125.155 135.897 124.947 135.621 124.851 135.299L124.027 132.322C123.963 132.112 123.835 131.929 123.66 131.798C123.485 131.667 123.272 131.596 123.053 131.596C119.785 132.635 116.276 132.635 113.008 131.596C112.79 131.597 112.578 131.668 112.403 131.798C112.228 131.929 112.101 132.113 112.039 132.322L111.214 135.299C111.118 135.621 110.91 135.897 110.627 136.076C110.343 136.256 110.005 136.327 109.674 136.277C109.342 136.227 109.04 136.058 108.823 135.803C108.606 135.547 108.488 135.222 108.492 134.887V119.216" stroke="#45413C" stroke-width="2.42" stroke-linecap="round" stroke-linejoin="round"/>
<path d="M127.57 123.612C127.57 124.171 127.792 124.707 128.188 125.103C128.583 125.498 129.119 125.719 129.678 125.719C130.236 125.719 130.772 125.498 131.167 125.103C131.563 124.707 131.785 124.171 131.785 123.612V116.544C131.785 116.544 131.785 111.183 127.624 111.183" stroke="#45413C" stroke-width="2.42" stroke-miterlimit="10" stroke-linecap="round"/>
<path d="M135.059 81.8259C135.898 84.7151 136.09 87.7535 135.62 90.7251C135.15 93.6967 134.03 96.5276 132.34 99.0167C130.65 101.505 128.431 103.591 125.842 105.124C123.254 106.656 120.359 107.599 117.364 107.884C113.677 108.233 109.964 107.573 106.623 105.975C103.281 104.377 100.437 101.901 98.3945 98.8118C99.7216 103.386 102.603 107.354 106.543 110.031C110.482 112.709 115.233 113.927 119.974 113.476C123.49 113.143 126.86 111.904 129.755 109.88C132.65 107.856 134.97 105.117 136.491 101.929C138.012 98.7409 138.68 95.2134 138.431 91.6904C138.182 88.1671 137.025 84.7687 135.071 81.8259H135.059Z" fill="#F0F0F0"/>
<path d="M121.945 113.191C126.729 112.256 131.021 109.642 134.048 105.821C137.075 102 138.637 97.2237 138.453 92.3523C138.268 87.4813 136.35 82.8363 133.043 79.2552C129.736 75.6737 125.258 73.392 120.417 72.8208C115.577 72.2497 110.691 73.4266 106.641 76.1401C102.592 78.8535 99.6447 82.9245 98.3317 87.619C97.0187 92.3135 97.4265 97.3223 99.481 101.743C101.535 106.163 105.102 109.704 109.536 111.727C101.421 119.917 96.9177 111.699 95.5156 114.787C93.8661 118.404 101.702 121.674 108.502 119.229" stroke="#45413C" stroke-width="2.42" stroke-linecap="round" stroke-linejoin="round"/>
<path d="M111.408 112.466C110.768 112.247 110.142 111.996 109.531 111.719" stroke="#45413C" stroke-width="2.42" stroke-linecap="round" stroke-linejoin="round"/>
<path d="M104.492 85.5208L107.131 86.1929" stroke="#45413C" stroke-width="2.42" stroke-linecap="round" stroke-linejoin="round"/>
<path d="M112.102 88.5352L114.576 89.6816" stroke="#45413C" stroke-width="2.42" stroke-linecap="round" stroke-linejoin="round"/>
<path d="M109.761 91.8055C109.705 92.0343 109.602 92.2492 109.457 92.4348C109.312 92.6203 109.129 92.7725 108.919 92.8814C108.711 92.9902 108.481 93.0529 108.246 93.0657C108.011 93.0781 107.775 93.0401 107.556 92.9544C107.336 92.8686 107.138 92.7366 106.974 92.5675C106.81 92.3985 106.684 92.1964 106.604 91.9745C106.525 91.7531 106.494 91.5168 106.514 91.2822C106.533 91.0471 106.602 90.8195 106.717 90.6137L107.311 89.0879C107.651 89.5588 108.119 89.9221 108.659 90.1341C109.199 90.3461 109.79 90.398 110.359 90.2838L109.761 91.8055Z" fill="#FFB0CA" stroke="#45413C" stroke-width="2.42" stroke-linecap="round" stroke-linejoin="round"/>
<path d="M102.091 110.02C103.469 102.337 111.757 113.047 100.141 113.884" stroke="#45413C" stroke-width="2.42" stroke-linecap="round" stroke-linejoin="round"/>
<path d="M97.0132 113.851L95.0791 113.719C94.8791 114.209 94.5727 114.648 94.1818 115.005C93.7908 115.362 93.3253 115.627 92.8193 115.781C92.2543 115.958 91.9038 116.194 91.8873 116.511C91.8502 117.208 93.6028 117.893 95.809 118.045C98.0152 118.198 99.8297 117.756 99.8668 117.06C99.8668 116.758 99.5658 116.462 99.0421 116.206C98.5526 115.985 98.1175 115.66 97.767 115.253C97.4165 114.846 97.1591 114.368 97.0132 113.851Z" fill="#EBCB00" stroke="#45413C" stroke-width="2.42" stroke-linecap="round" stroke-linejoin="round"/>
<path d="M100.799 107.748L92.9429 106.886C89.0129 109.167 86.2912 108.164 84.6046 105.764L83.2148 106.214C83.9472 108.441 85.3118 110.407 87.1428 111.872C88.9733 113.336 91.1907 114.236 93.5243 114.461C100.238 115.2 101.821 113.278 102.089 110.849C102.134 110.267 102.04 109.683 101.815 109.144C101.591 108.605 101.243 108.127 100.799 107.748Z" fill="#FFE500" stroke="#45413C" stroke-width="2.42" stroke-linecap="round" stroke-linejoin="round"/>
<path d="M92.9375 106.882C93.5891 105.435 95.2922 104.507 97.1644 104.713C99.0366 104.919 100.492 106.193 100.814 107.748L92.9375 106.882Z" fill="#EBCB00" stroke="#45413C" stroke-width="2.42" stroke-linecap="round" stroke-linejoin="round"/>
<path d="M11.1698 35.6848C11.1922 35.2469 11.3843 34.8349 11.7053 34.5362C12.0263 34.2376 12.451 34.0756 12.8894 34.0848L21.306 34.7446C23.0448 29.8491 26.3442 25.6608 30.6964 22.8242C35.0486 19.9876 40.2124 18.6598 45.3932 19.0453C51.1653 19.4989 56.5633 22.0801 60.5403 26.2885C64.5169 30.4969 66.7887 36.0323 66.9153 41.821L44.8365 40.0849L23.3473 38.3982L12.7781 37.5735C12.5484 37.5553 12.3246 37.4919 12.1194 37.3871C11.9142 37.2823 11.7317 37.1381 11.5823 36.9626C11.4329 36.7872 11.3196 36.584 11.2488 36.3648C11.178 36.1455 11.1512 35.9144 11.1698 35.6848Z" fill="#F0F0F0"/>
<path d="M54.6693 37.9116C54.741 36.986 54.4429 36.0698 53.84 35.3639C53.2367 34.6581 52.3785 34.2202 51.4527 34.1466C49.0939 33.961 47.832 35.4951 47.6836 37.3631L54.6693 37.9116Z" fill="#4ACFFF"/>
<path d="M45.3927 21.3793C46.6818 21.3793 47.7267 20.3343 47.7267 19.0452C47.7267 17.7562 46.6818 16.7112 45.3927 16.7112C44.104 16.7112 43.0586 17.7562 43.0586 19.0452C43.0586 20.3343 44.104 21.3793 45.3927 21.3793Z" fill="white" stroke="#45413C" stroke-width="2.42" stroke-linecap="round" stroke-linejoin="round"/>
<path d="M44.9563 23.0165C40.8641 22.6915 36.7515 23.2903 32.922 24.7685C29.0926 26.2468 25.6443 28.5667 22.832 31.5569C24.9739 27.427 28.2999 24.0305 32.384 21.8025C36.4681 19.5745 41.1243 18.6163 45.7563 19.0509C50.3881 19.4854 54.7849 21.2928 58.3833 24.2415C61.9817 27.1903 64.618 31.1461 65.9546 35.6023C63.6696 32.0202 60.5833 29.0184 56.9387 26.8341C53.2945 24.6498 49.1922 23.3429 44.9563 23.0165Z" fill="white"/>
<path d="M12.7777 37.5694L23.347 38.3941L44.8361 40.0807L66.9149 41.8169C66.7883 36.0282 64.5165 30.4927 60.5399 26.2844C56.5629 22.076 51.1649 19.4947 45.3928 19.0412C40.2115 18.656 35.0474 19.9843 30.6951 22.8217C26.3428 25.6592 23.0438 29.8484 21.3057 34.7446L12.8891 34.0848C12.4507 34.0756 12.026 34.2375 11.705 34.5362C11.384 34.8349 11.1919 35.2469 11.1695 35.6848C11.133 36.1479 11.282 36.6066 11.5835 36.9599C11.8851 37.3133 12.3146 37.5325 12.7777 37.5694ZM47.6815 37.3797C47.83 35.5116 49.0919 33.9775 51.4507 34.1631C52.376 34.2368 53.2346 34.6746 53.8375 35.3804C54.4404 36.0863 54.739 37.0025 54.6672 37.9281L47.6815 37.3797Z" stroke="#45413C" stroke-width="2.42" stroke-linecap="round" stroke-linejoin="round"/>
<path d="M47.6805 37.3796L46.2248 37.2682C45.9188 37.2478 45.6174 37.3489 45.3856 37.5498C45.1538 37.7505 45.0107 38.0347 44.9876 38.3404L44.8516 40.0848" stroke="#45413C" stroke-width="2.42" stroke-linecap="round" stroke-linejoin="round"/>
<path d="M20.8984 36.3158C21.0386 35.7921 21.1335 35.2519 21.3108 34.7446L20.8984 36.3158Z" fill="white"/>
<path d="M20.8984 36.3158C21.0386 35.7921 21.1335 35.2519 21.3108 34.7446" stroke="#45413C" stroke-width="2.42" stroke-linecap="round" stroke-linejoin="round"/>
<path d="M35.3479 45.4664C39.2766 45.4664 42.4613 42.2815 42.4613 38.3528C42.4613 34.4241 39.2766 31.2393 35.3479 31.2393C31.4192 31.2393 28.2344 34.4241 28.2344 38.3528C28.2344 42.2815 31.4192 45.4664 35.3479 45.4664Z" fill="white" stroke="#45413C" stroke-width="2.42" stroke-linecap="round" stroke-linejoin="round"/>
<path d="M37.2286 41.6025C37.7411 41.6025 38.1565 41.1871 38.1565 40.6747C38.1565 40.1623 37.7411 39.7468 37.2286 39.7468C36.7162 39.7468 36.3008 40.1623 36.3008 40.6747C36.3008 41.1871 36.7162 41.6025 37.2286 41.6025Z" fill="#45413C"/>
<path d="M59.9026 47.4251C63.8313 47.4251 67.0161 44.2403 67.0161 40.3115C67.0161 36.3828 63.8313 33.198 59.9026 33.198C55.9739 33.198 52.7891 36.3828 52.7891 40.3115C52.7891 44.2403 55.9739 47.4251 59.9026 47.4251Z" fill="white" stroke="#45413C" stroke-width="2.42" stroke-linecap="round" stroke-linejoin="round"/>
<path d="M61.7755 43.5612C62.2881 43.5612 62.7034 43.1459 62.7034 42.6333C62.7034 42.121 62.2881 41.7056 61.7755 41.7056C61.2629 41.7056 60.8477 42.121 60.8477 42.6333C60.8477 43.1459 61.2629 43.5612 61.7755 43.5612Z" fill="#45413C"/>
<path d="M48.8028 49.4584C48.7735 49.7021 48.6968 49.9375 48.5764 50.1516C48.456 50.3656 48.2948 50.5536 48.1018 50.7054C47.9088 50.8567 47.6882 50.9689 47.4514 51.0353C47.2152 51.1017 46.9681 51.1206 46.7244 51.0914C46.4807 51.0621 46.2452 50.985 46.0312 50.865C45.8172 50.7446 45.6291 50.5833 45.4774 50.3903C45.1714 50.0006 45.0324 49.5049 45.0914 49.013L45.3182 47.1655C45.8242 47.5878 46.4411 47.8546 47.0952 47.9346C47.7492 48.0142 48.4127 47.9033 49.0049 47.615L48.8028 49.4584Z" fill="#FFB0CA" stroke="#45413C" stroke-width="2.42" stroke-linecap="round" stroke-linejoin="round"/>
<path d="M47.282 70.1473C47.282 70.1473 33.0753 87.0837 24.0113 77.6691C16.7617 70.1391 29.5083 60.6626 29.5083 60.6626" stroke="#45413C" stroke-width="2.42" stroke-linecap="round" stroke-linejoin="round"/>
<path d="M49.5898 46.3613C51.3837 44.8891 52.2579 48.5015 53.759 47.4335" stroke="#45413C" stroke-width="2.42" stroke-linecap="round" stroke-linejoin="round"/>
<path d="M44.8366 45.7468C43.4098 43.9158 41.7643 47.2479 40.5312 45.8746" stroke="#45413C" stroke-width="2.42" stroke-linecap="round" stroke-linejoin="round"/>
<path d="M105.321 89.2252C105.488 88.7266 104.613 87.9827 103.365 87.5637C102.116 87.1447 100.969 87.2095 100.802 87.7081C100.634 88.2066 101.51 88.951 102.758 89.3699C104.006 89.7889 105.154 89.7242 105.321 89.2252Z" fill="#FFB0CA"/>
<path d="M116.149 92.868C116.316 92.3694 115.44 91.6255 114.192 91.2065C112.945 90.7876 111.797 90.8523 111.63 91.3509C111.462 91.8494 112.338 92.5938 113.586 93.0128C114.834 93.4317 115.981 93.367 116.149 92.868Z" fill="#FFB0CA"/>
<path d="M48.4727 62.5018C48.638 62.748 48.817 62.9851 49.0087 63.2111C50.2005 64.6627 53.3057 67.7184 57.2563 66.0153C57.2192 62.8688 53.0129 59.7925 48.7861 62.3039L48.4727 62.5018Z" fill="#00B8F0" stroke="#45413C" stroke-width="2.42" stroke-linecap="round" stroke-linejoin="round"/>
<path d="M37.2695 66.1431C39.1665 65.8544 41.8593 67.8916 46.1273 71.4215L48.4737 62.5018C40.3624 58.6832 37.2695 66.1431 37.2695 66.1431Z" fill="#00B8F0"/>
<path d="M48.4798 62.5017C49.4036 63.8457 50.6221 64.9615 52.0428 65.7636L49.0489 73.7184L44.8633 70.374L48.4798 62.5017Z" fill="#FFE500" stroke="#45413C" stroke-width="2.42" stroke-linecap="round" stroke-linejoin="round"/>
<path d="M59.257 59.2234C64.2963 59.2234 71.4057 67.9493 67.385 73.9742C57.7683 88.4074 43.2155 65.2441 37.2812 66.139C37.2812 66.139 40.3658 58.679 48.4857 62.4977" stroke="#45413C" stroke-width="2.42" stroke-linecap="round" stroke-linejoin="round"/>
<path d="M64.4648 69.1082L68.4814 70.0195" stroke="#45413C" stroke-width="2.42" stroke-linecap="round" stroke-linejoin="round"/>
<path d="M37.2751 66.1431C37.2751 66.1431 32.8091 67.7926 30.875 65.9575" stroke="#45413C" stroke-width="2.42" stroke-linecap="round" stroke-linejoin="round"/>
<path d="M32.6638 89.995C32.6638 89.995 35.736 94.3085 43.5259 96.0322C41.7155 99.6571 40.7505 102.123 38.1649 101.434C35.5793 100.746 27.1255 96.7704 27.942 95.4137C28.7585 94.057 30.9648 89.3806 32.6638 89.995Z" fill="#EF233C" stroke="#45413C" stroke-width="2.42" stroke-linecap="round" stroke-linejoin="round"/>
<path d="M147.52 37.5983C147.495 36.4944 147.04 35.4437 146.254 34.6687C145.467 33.8936 144.41 33.455 143.306 33.4457C124.291 33.2642 98.48 33.6065 79.4199 34.1137C78.337 34.1478 77.3077 34.5932 76.5419 35.3593C75.7757 36.1254 75.3304 37.1546 75.2961 38.2375C75.0899 44.6293 75.16 51.9367 75.4198 58.3904C75.4648 59.4952 75.9382 60.5393 76.7395 61.3014C77.5407 62.0635 78.6071 62.4837 79.7127 62.473L118.146 62.1719C118.596 65.4132 118.039 67.5988 117.462 69.8133C119.148 68.6586 121.969 67.4297 125.264 62.3163L143.157 62.44C144.283 62.4544 145.37 62.0222 146.178 61.2375C146.986 60.4531 147.451 59.3805 147.471 58.2543C147.557 51.9614 147.706 45.2026 147.52 37.5983Z" fill="white" stroke="#45413C" stroke-width="2.42" stroke-linejoin="round"/>
<path d="M89.5945 44.0024C89.6135 44.2011 89.5883 44.4016 89.5211 44.5896C89.4543 44.7776 89.3467 44.9488 89.2061 45.0906C89.0659 45.2325 88.896 45.3418 88.7087 45.4111C88.5215 45.4803 88.3215 45.5075 88.1223 45.4911C87.8407 45.4824 87.5619 45.428 87.2976 45.3302C86.7631 45.0737 86.1883 44.9117 85.5986 44.8519C83.6893 44.8519 83.1738 46.39 83.1738 47.5777C83.1738 48.7653 83.9697 49.9819 85.3512 50.052C87.1203 50.1221 87.5615 48.8148 88.7656 48.8148C88.884 48.8066 89.0024 48.8066 89.1203 48.8148C89.3665 48.8585 89.5879 48.9901 89.7442 49.1851C89.9005 49.3798 89.9809 49.6251 89.9698 49.8746C89.9723 50.0841 89.9488 50.2932 89.8997 50.4973C89.4584 52.4767 87.0666 53.5572 85.314 53.5572C82.015 53.5572 79.9531 50.5839 79.9531 47.5777C79.9531 44.2787 82.015 41.5239 85.4584 41.4373C86.5862 41.3909 87.6992 41.7074 88.6337 42.3404C88.9166 42.5186 89.152 42.7632 89.3195 43.0527C89.4869 43.3422 89.5813 43.6683 89.5945 44.0024Z" fill="#D90429"/>
<path d="M101.044 47.5779C101.044 50.6377 99.5224 53.6811 95.877 53.6811C92.0212 53.6811 90.6562 50.9552 90.6562 47.4706C90.6562 44.1262 92.4955 41.4004 95.9141 41.4004C96.7698 41.3833 97.6147 41.5919 98.364 42.0053C99.1133 42.4187 99.7405 43.0223 100.182 43.7551C100.867 44.8355 101.044 46.2871 101.044 47.5779ZM95.9471 44.6912C94.5862 44.6912 94.1945 46.1263 94.1945 47.5242C94.1945 48.6047 94.6068 50.2666 95.877 50.2666C97.3285 50.2666 97.6626 48.6748 97.6832 47.4706C97.7079 45.8624 97.3285 44.6912 95.9471 44.6912Z" fill="#D90429"/>
<path d="M108.917 44.7819L106.707 44.7283C106.387 44.7151 106.068 44.77 105.771 44.8891C105.608 45.0067 105.479 45.165 105.399 45.3481C105.317 45.5316 105.286 45.7333 105.309 45.9325C105.299 46.304 105.312 46.676 105.346 47.0459H106.793C108.03 47.0459 108.777 47.2232 108.777 48.283C108.777 49.2562 108.422 49.5201 107.325 49.5201C106.642 49.5156 105.96 49.5861 105.292 49.7305C105.148 50.6872 105.395 52.1223 105.045 53.0749C104.847 53.5697 104.265 53.6769 103.808 53.6769C103.206 53.6769 102.62 53.5697 102.303 53.0584C102.067 52.6456 101.956 52.1726 101.985 51.6975V51.2521C101.985 49.4665 102.072 47.2356 102.072 45.2727C102.072 42.8479 102.484 41.5613 105.577 41.4335C106.566 41.3799 106.868 41.3799 107.169 41.3799C108.707 41.3799 110.6 41.4871 110.6 43.3633C110.6 44.4232 110.072 44.7407 109.061 44.7778L108.917 44.7819Z" fill="#D90429"/>
<path d="M117.944 44.7819L115.73 44.7283C115.41 44.7155 115.091 44.7704 114.794 44.8891C114.631 45.0067 114.502 45.165 114.421 45.3481C114.34 45.5316 114.309 45.7333 114.332 45.9325C114.322 46.304 114.335 46.676 114.369 47.0459H115.82C117.058 47.0459 117.8 47.2232 117.8 48.283C117.8 49.2562 117.449 49.5201 116.352 49.5201C115.668 49.5156 114.985 49.5861 114.315 49.7305C114.175 50.6872 114.422 52.1223 114.068 53.0749C113.874 53.5697 113.288 53.6769 112.831 53.6769C112.229 53.6769 111.647 53.5697 111.325 53.0584C111.091 52.6447 110.981 52.1722 111.008 51.6975V51.2521C111.008 49.4665 111.099 47.2356 111.099 45.2727C111.099 42.8479 111.511 41.5613 114.6 41.4335C115.589 41.3799 115.891 41.3799 116.192 41.3799C117.734 41.3799 119.627 41.4871 119.627 43.3633C119.627 44.4232 119.095 44.7407 118.084 44.7778L117.944 44.7819Z" fill="#D90429"/>
<path d="M124.03 46.2664C125.181 46.2664 126.208 46.2664 126.208 47.153C126.208 48.852 124.455 48.8025 123.144 48.9592V49.186C123.144 49.718 123.321 50.3366 124.063 50.4603C124.381 50.4966 124.7 50.5147 125.02 50.5139C125.729 50.5139 126.364 50.3572 127.02 50.3572C127.166 50.3588 127.31 50.3893 127.443 50.4475C127.577 50.5052 127.697 50.5893 127.798 50.6949C127.899 50.8001 127.977 50.9242 128.029 51.0603C128.081 51.1964 128.105 51.3415 128.1 51.4871C128.1 53.3263 125.837 53.6974 124.348 53.6974C122.509 53.6974 121.181 53.2397 120.579 52.4603C119.874 51.5407 119.605 49.6314 119.605 47.8623C119.605 45.6148 120.154 43.0663 121.465 42.2004C122.553 41.6221 123.772 41.3378 125.004 41.3757C126.348 41.3757 127.87 41.7303 127.87 43.1612C127.876 43.3092 127.863 43.4577 127.832 43.6024C127.375 45.0746 123.568 43.7797 123.214 45.1983C123.177 45.3901 123.161 45.5847 123.164 45.7798C123.162 45.9456 123.173 46.1109 123.197 46.2746L124.03 46.2664Z" fill="#D90429"/>
<path d="M133.073 46.2663C134.22 46.2663 135.246 46.2663 135.246 47.153C135.246 48.8519 133.498 48.8025 132.187 48.9592V49.186C132.187 49.7179 132.364 50.3365 133.106 50.4602C133.424 50.4965 133.743 50.5147 134.063 50.5138C134.772 50.5138 135.407 50.3571 136.063 50.3571C136.209 50.3588 136.352 50.3893 136.486 50.4474C136.619 50.5052 136.739 50.5893 136.84 50.6949C136.94 50.8 137.018 50.9246 137.07 51.0606C137.121 51.1967 137.145 51.3415 137.139 51.487C137.139 53.3263 134.875 53.6974 133.391 53.6974C131.552 53.6974 130.224 53.2397 129.622 52.4603C128.912 51.5407 128.648 49.6313 128.648 47.8622C128.648 45.6148 129.197 43.0663 130.504 42.2002C131.176 41.7549 132.566 41.3755 134.046 41.3755C135.391 41.3755 136.912 41.7301 136.912 43.1611C136.919 43.3092 136.906 43.4572 136.875 43.6024C136.418 45.0746 132.611 43.7797 132.257 45.1983C132.219 45.3896 132.201 45.5847 132.203 45.7797C132.202 45.9455 132.215 46.1109 132.24 46.2746L133.073 46.2663Z" fill="#D90429"/>
<path d="M140.151 40.9425C140.704 40.9384 141.25 41.0656 141.743 41.3136C142.043 41.4619 142.305 41.6757 142.51 41.9391C142.716 42.2025 142.86 42.5088 142.931 42.8354C143.057 43.3141 143.117 43.8082 143.108 44.3034C143.108 46.2664 142.415 48.6911 141.921 49.487C141.603 50.0025 141.141 50.4809 140.576 50.4809C140.349 50.4916 140.125 50.4293 139.937 50.3035C139.001 49.6644 138.84 48.1963 138.84 46.32C138.84 45.4952 138.877 44.5674 138.877 43.5942L138.84 42.8519V42.1631V41.9858C138.838 41.8302 138.856 41.6749 138.894 41.5239C139.071 41.0992 139.586 40.9425 140.151 40.9425ZM140.824 51.1077C141.549 51.1077 142.222 51.5201 142.222 52.2912C142.222 53.3345 141.302 53.7964 140.382 53.7964C140.062 53.8022 139.753 53.6838 139.518 53.4661C139.284 53.2488 139.143 52.9485 139.125 52.6294C139.13 52.3324 139.224 52.0438 139.394 51.8005C139.565 51.5572 139.804 51.3704 140.081 51.2644C140.315 51.1617 140.568 51.1081 140.824 51.1077Z" fill="#D90429"/>
<path d="M67.9297 23.165C71.1462 23.132 73.7855 26.3568 73.8267 30.3693C73.7896 26.3651 76.3628 23.066 79.5629 23.066C76.3505 23.0949 73.7112 19.8701 73.67 15.8577C73.7236 19.8536 71.1462 23.132 67.9297 23.165Z" fill="#FFE500" stroke="#EBCB00" stroke-width="2.42" stroke-linecap="round" stroke-linejoin="round"/>
<path d="M68.2188 121.934C71.225 121.905 73.691 124.919 73.7281 128.668C73.691 124.919 76.0952 121.855 79.089 121.826C76.0828 121.855 73.6168 118.841 73.5797 115.092C73.6292 118.841 71.225 121.905 68.2188 121.934Z" fill="#FFE500" stroke="#EBCB00" stroke-width="2.42" stroke-linecap="round" stroke-linejoin="round"/>
<path d="M7.42578 89.6157C11.7186 89.5745 15.261 93.8797 15.294 99.2324C15.2404 93.8714 18.6755 89.5044 22.9683 89.4631C18.6755 89.5044 15.1538 85.2033 15.1043 79.8506C15.1538 85.2033 11.7186 89.5745 7.42578 89.6157Z" fill="#FFE500" stroke="#EBCB00" stroke-width="2.42" stroke-linecap="round" stroke-linejoin="round"/>
</svg>
