<svg width="155" height="155" viewBox="0 0 155 155" fill="none" xmlns="http://www.w3.org/2000/svg">
<path d="M15.5938 124.251H127.554" stroke="#45413C" stroke-width="2.42" stroke-linecap="round" stroke-linejoin="round"/>
<path d="M127.554 124.251H15.5938C15.5938 124.251 34.9755 139.922 69.6153 139.922C104.255 139.922 133.946 124.251 127.554 124.251Z" fill="#E8F4FA"/>
<path d="M79.6267 34.8311C73.0068 33.9511 66.2804 35.2504 60.4644 38.5324C54.6483 41.8144 50.059 46.9007 47.3902 53.0224C44.7213 59.144 44.1182 65.9682 45.6718 72.4631C47.2254 78.958 50.8514 84.7705 56.0015 89.0218C46.2076 106.787 52.7025 111.48 58.1954 110.663L56.4016 123.006L81.1113 123.954C82.6948 106.148 84.2742 102.16 84.2742 102.16C88.4392 105.241 88.4681 110.49 88.4681 110.49L96.1012 113.962C94.6167 97.5374 89.1279 92.8775 89.1279 92.8775C95.0457 89.9694 99.8717 85.2356 102.893 79.375C105.915 73.5145 106.973 66.8376 105.91 60.3301C104.847 53.8226 101.72 47.8293 96.9899 43.2349C92.2603 38.6405 86.1788 35.6885 79.6432 34.8147L79.6267 34.8311Z" fill="white"/>
<path d="M74.3884 87.9744C70.3864 87.4412 66.5285 86.1249 63.0352 84.1006C59.5418 82.0763 56.4815 79.3838 54.0288 76.1767C51.5761 72.9697 49.7791 69.3109 48.7405 65.4093C47.7019 61.5077 47.442 57.4398 47.9756 53.4377C48.0993 52.514 48.2684 51.6068 48.4705 50.7119C46.3997 54.5757 45.1792 58.8376 44.8908 63.2118C44.6024 67.586 45.2529 71.9712 46.7984 76.0734C48.344 80.1756 50.749 83.8998 53.8521 86.9961C56.9552 90.0925 60.6846 92.4894 64.7901 94.0261C68.8956 95.5629 73.2822 96.2038 77.6558 95.9059C82.0293 95.6081 86.2886 94.3784 90.1479 92.2993C94.0071 90.2202 97.3771 87.3398 100.032 83.8513C102.686 80.3628 104.564 76.3469 105.54 72.0731C102.577 77.5741 98.0092 82.0422 92.4443 84.8829C86.8795 87.7235 80.5814 88.8019 74.3884 87.9744Z" fill="#FFF0ED"/>
<path d="M59.3953 91.459C53.4244 87.7665 48.8974 82.1413 46.567 75.5189C44.2367 68.8966 44.2435 61.676 46.5862 55.058C48.929 48.44 53.4665 42.8234 59.4443 39.142C65.4221 35.4607 72.4799 33.9365 79.4442 34.823C86.4084 35.7094 92.8593 38.9531 97.7243 44.0145C102.589 49.076 105.575 55.6502 106.185 62.6441C106.795 69.6379 104.993 76.6299 101.078 82.4574C97.1632 88.2848 91.3713 92.5965 84.6658 94.6755" stroke="#45413C" stroke-width="2.42" stroke-linecap="round" stroke-linejoin="round"/>
<path d="M85.1314 55.3141C85.2002 54.708 85.1488 54.0943 84.9802 53.5081C84.8116 52.9219 84.529 52.3747 84.1487 51.8978C83.7683 51.421 83.2976 51.0238 82.7636 50.729C82.2296 50.4342 81.6427 50.2477 81.0365 50.18C77.923 49.8254 76.1828 51.8007 75.9023 54.2708L85.1314 55.3141Z" fill="white"/>
<path d="M55.2981 105.979C55.2981 104.892 55.7299 103.849 56.4987 103.08C57.2674 102.312 58.31 101.88 59.3971 101.88M59.3971 101.88C61.6611 101.88 63.3724 103.719 63.4962 105.979C63.8838 112.824 41.1205 116.028 56.0033 89.0176M59.3971 101.88L59.9909 97.9827M58.1971 110.659L55.4548 123.48M88.4409 110.362C88.4409 110.362 88.4409 105.241 84.28 102.16C84.28 102.16 81.7027 113.389 80.1233 131.196" stroke="#45413C" stroke-width="2.42" stroke-linecap="round" stroke-linejoin="round"/>
<path d="M96.6897 55.145C96.8729 54.9607 97.0985 54.8243 97.3468 54.7478C97.5951 54.6714 97.8584 54.6572 98.1135 54.7065C98.3686 54.7558 98.6076 54.8671 98.8095 55.0306C99.0114 55.1941 99.17 55.4047 99.2712 55.644C100.451 58.4028 101.308 63.2812 95.0608 66.7163C90.7268 69.0957 86.5824 67.4669 83.972 65.7926C83.7176 65.6274 83.5158 65.3929 83.3905 65.1166C83.2652 64.8404 83.2217 64.534 83.2651 64.2338C83.3084 63.9336 83.4369 63.6521 83.6353 63.4226C83.8337 63.1931 84.0936 63.0253 84.3844 62.9389C88.7721 61.508 93.8938 57.9574 96.6897 55.145ZM60.252 51.6356C60.1129 51.4165 59.9221 51.2349 59.6963 51.1068C59.4705 50.9787 59.2167 50.9081 58.9572 50.9012C58.6977 50.8943 58.4405 50.9512 58.2083 51.0671C57.976 51.1829 57.7757 51.3541 57.6251 51.5655C55.8973 54.0151 54.0333 58.609 59.4272 63.2688C63.1716 66.506 67.5593 65.7802 70.4625 64.6874C70.7499 64.5832 71.0011 64.3982 71.1859 64.1547C71.3707 63.9112 71.4813 63.6195 71.5044 63.3147C71.5275 63.0099 71.4621 62.7049 71.316 62.4363C71.17 62.1677 70.9495 61.9471 70.681 61.8008C66.6645 59.5121 62.3964 54.9718 60.252 51.6356Z" fill="#FF866E" stroke="#45413C" stroke-width="2.42" stroke-linecap="round" stroke-linejoin="round"/>
<path d="M70.7269 68.7163C69.4692 76.0855 68.6403 83.1083 67.9351 87.6527C67.7702 88.7167 68.1578 89.7806 69.1723 90.1559C71.6827 91.0502 74.3814 91.2818 77.0075 90.828C78.0054 90.6755 79.1188 90.1229 79.3085 89.1332C80.2446 84.263 80.958 77.2278 82.2405 69.6318L79.0941 71.1988L76.4755 69.2235L73.6424 71.1988L70.7269 68.7163Z" fill="#FFA694" stroke="#45413C" stroke-width="2.42" stroke-linecap="round" stroke-linejoin="round"/>
<path d="M42.3447 81.3598L38.0312 107.03M44.7695 102.16L42.3282 116.676M118.692 73.7473L116.251 88.2671M49.9902 111.814L48.617 119.971M115.422 59.4377L109.03 97.4714M107.628 110.148L105.987 119.921M102.416 93.0961L100.775 102.869" stroke="#45413C" stroke-width="2.42" stroke-linecap="round" stroke-linejoin="round"/>
<path d="M87.0573 127.398H86.2902C81.8902 127.398 78.1128 124.862 77.2633 120.944C77.1439 121.498 77.0845 122.064 77.086 122.631C77.086 127.472 81.2963 130.734 86.2902 130.734H87.0573C96.7935 130.734 98.0843 124.684 97.5729 119.859C97.0863 123.74 94.6162 127.398 87.0573 127.398Z" fill="#FFCABF"/>
<path d="M112.631 130.037C110.755 129.315 107.823 128.441 107.843 127.823C107.897 127.295 109.951 126.722 111.34 126.099H111.377C111.427 126.099 111.427 126.049 111.377 126.037C109.773 125.744 106.693 125.332 106.614 124.354C106.515 123.554 108.573 122.458 109.687 121.81H109.711C109.761 121.785 109.736 121.74 109.621 121.748C108.318 121.847 106.074 121.996 104.672 121.662C104.463 121.615 104.258 121.553 104.058 121.476H104.037C102.272 120.713 103.373 119.435 104.449 118.457C104.503 118.429 104.449 118.387 104.363 118.4C103.893 118.474 103.167 118.61 102.841 118.66L102.099 118.775C101.119 118.922 100.129 118.996 99.138 118.998C98.912 119.001 98.686 118.988 98.4617 118.961C98.2551 118.944 98.0498 118.914 97.8472 118.87C97.7575 118.854 97.6692 118.83 97.5833 118.8C97.5008 118.771 97.3978 118.754 97.3276 118.721C97.1834 118.666 97.0452 118.595 96.9153 118.511H96.8905C96.1482 118.128 96.0658 117.2 95.9957 116.944V116.923C95.9957 116.895 95.9132 116.874 95.8596 116.895C94.7462 117.344 92.4863 118.515 90.4739 117.719C89.0265 117.158 88.1151 115.909 87.546 115.092C86.977 114.276 87.4182 115.051 87.3935 115.092C86.7625 115.967 85.9996 117.34 84.5893 117.678C83.0594 118.02 80.6882 116.977 79.2284 116.499L79.1748 116.474C78.7871 116.185 79.2737 118.47 78.1809 118.845C77.0881 119.22 73.4138 118.02 69.8055 117.369H69.7684C69.7107 117.369 69.6241 117.369 69.6571 117.41C70.556 118.235 73.7314 120.416 71.0591 120.998C69.9599 121.198 68.8444 121.296 67.7271 121.29L66.8199 121.315H66.7745C66.7127 121.315 66.6467 121.34 66.7292 121.381C67.8055 121.897 70.1767 122.891 68.9189 123.732C67.8962 124.42 64.8941 124.668 63.1126 124.812H63.0673C63.0013 124.812 62.9642 124.849 63.0178 124.87C63.2116 124.944 63.2817 124.973 63.7683 125.142C65.3023 125.583 65.8013 126.148 66.09 126.606C66.0918 126.616 66.0918 126.625 66.09 126.635C66.0405 127.53 66.2096 127.979 61.4507 129.522C61.4054 129.522 61.3724 129.55 61.393 129.575C61.4235 129.587 61.4573 129.587 61.4878 129.575C63.9415 129.575 66.791 129.542 68.7498 130.268C69.4591 130.581 69.5746 130.792 69.5746 131.093C69.5133 131.354 69.3685 131.589 69.1622 131.761C68.886 132.006 68.5909 132.23 68.2797 132.429C68.255 132.429 68.2344 132.458 68.2797 132.478C68.3088 132.49 68.3414 132.49 68.3704 132.478H68.4076C71.6365 132.268 74.2386 132.004 73.8303 133.641C73.6324 134.396 72.9313 135.291 72.5932 135.835V135.885C72.6292 135.897 72.6685 135.897 72.7045 135.885C75.6242 135.142 78.5974 134.144 79.8346 134.924C80.6222 135.377 81.0346 136.396 81.5336 137.068C81.5532 137.083 81.5764 137.093 81.601 137.097C81.6255 137.1 81.6506 137.098 81.6738 137.089C83.6078 136.466 85.847 135.468 87.4182 135.703C88.9069 135.934 90.1193 137.435 91.043 138.252C91.0675 138.267 91.0965 138.275 91.1255 138.272C91.1667 138.272 91.1956 138.252 91.1915 138.231C91.6904 137.241 92.2719 135.184 94.7627 135.208C96.1936 135.208 98.107 135.798 99.3731 136.157C99.4106 136.169 99.451 136.169 99.4885 136.157C99.5256 136.157 99.5339 136.128 99.5133 136.111C99.072 134.874 98.1854 133.064 100.858 132.862C101.624 132.822 102.391 132.84 103.155 132.915C103.814 132.973 104.59 133.056 104.75 133.076H104.792C104.849 133.076 104.911 133.076 104.895 133.039C104.421 132.284 103.097 130.924 104.363 130.379C105.707 129.818 109.241 129.967 112.61 130.091C112.634 130.095 112.657 130.095 112.681 130.091C112.668 130.074 112.672 130.054 112.631 130.037Z" fill="#EF233C"/>
<path d="M92.6205 112.197C91.2819 111.054 89.5679 110.446 87.808 110.49C86.6823 110.49 85.6843 111.162 85.6843 112.288V114.404C80.5873 114.404 77.0656 118.309 77.0821 122.651C77.0821 127.493 81.2925 130.754 86.2864 130.754H87.0534C103.231 130.754 96.101 114.053 96.0969 114.012C94.6123 97.5828 89.1235 92.927 89.1235 92.927" fill="white"/>
<path d="M92.6205 112.197C91.2819 111.054 89.5679 110.446 87.808 110.49C86.6823 110.49 85.6843 111.162 85.6843 112.288V114.404C80.5873 114.404 77.0656 118.309 77.0821 122.651C77.0821 127.493 81.2925 130.754 86.2864 130.754H87.0534C103.231 130.754 96.101 114.053 96.0969 114.012C94.6123 97.5828 89.1235 92.927 89.1235 92.927M85.6884 114.391H88.439Z" fill="white"/>
<path d="M92.6205 112.197C91.2819 111.054 89.5679 110.446 87.808 110.49C86.6823 110.49 85.6843 111.162 85.6843 112.288V114.404C80.5873 114.404 77.0656 118.309 77.0821 122.651C77.0821 127.493 81.2925 130.754 86.2864 130.754H87.0534C103.231 130.754 96.101 114.053 96.0969 114.012C94.6123 97.5828 89.1235 92.927 89.1235 92.927M85.6884 114.391H88.439" stroke="#45413C" stroke-width="2.42" stroke-linecap="round" stroke-linejoin="round"/>
<path d="M31.4379 58.6378C30.1104 58.5754 28.826 58.1473 27.7265 57.4006L27.6647 57.3635L27.6111 57.3223C21.7305 52.7861 16.782 47.4252 13.3015 41.8086C12.8505 41.1929 12.5883 40.4593 12.5469 39.6972V39.4498L12.6458 39.223C13.3376 37.7654 14.407 36.5195 15.7428 35.6147C17.215 34.5755 18.8068 33.9404 20.114 33.8786H20.5264C23.6481 33.8786 25.343 36.3776 26.5801 38.2044C26.8605 38.6168 27.1286 39.0292 27.3842 39.3467C28.0251 40.2416 28.6144 41.1723 29.1492 42.1344C29.376 42.522 29.6647 43.0086 29.974 43.4787C29.974 40.79 30.0565 36.8559 33.3967 35.1817C34.0542 34.8499 34.78 34.6762 35.5163 34.6745C37.0916 34.6745 38.5061 35.4374 39.7185 36.3528C39.6772 35.9941 39.6319 35.6271 39.5824 35.2559C39.104 31.4373 38.6133 27.4867 40.4072 23.9196L40.469 23.8001L40.5515 23.697C41.3173 22.8111 42.3072 22.1474 43.4175 21.7753C44.0325 21.5504 44.6804 21.4292 45.3351 21.4165C47.5289 21.4165 49.1001 22.7444 49.6444 25.0619L49.7022 25.3052C50.9063 31.7053 50.5022 38.1508 49.9496 43.6148C49.5743 47.8829 48.3001 50.518 46.1062 51.4253C45.4999 51.6785 44.8498 51.8102 44.1928 51.8129C41.8381 51.8129 39.7432 50.2005 38.2174 48.5592C38.0484 51.6067 37.4999 55.6109 34.7782 57.5285L34.7163 57.5697L34.5101 57.6934C33.5961 58.2927 32.5307 58.6201 31.4379 58.6378Z" fill="#45413C"/>
<path d="M45.3333 22.6536C46.7024 22.6536 47.9766 23.367 48.4385 25.3423C48.4385 25.4207 48.4674 25.4578 48.4839 25.5361C49.6014 31.4537 49.3086 37.5281 48.7148 43.4869C48.4715 46.2746 47.7457 49.4005 45.6261 50.2829C45.1721 50.475 44.6839 50.5732 44.191 50.5716C41.2672 50.5716 38.4878 47.219 37.1806 45.2107C36.8177 46.4767 37.5929 54.015 34.0589 56.4975L33.8568 56.6253C33.1419 57.096 32.3084 57.3547 31.4526 57.3717C30.3483 57.3128 29.282 56.9488 28.3722 56.3202C22.9329 52.118 17.9514 46.9221 14.3513 41.1323C14.041 40.7129 13.8462 40.2195 13.7863 39.7013C14.3922 38.4592 15.3172 37.4003 16.4668 36.6332C17.7369 35.7342 19.1266 35.1734 20.1782 35.1239H20.5081C23.5844 35.1239 24.97 38.2951 26.3927 40.1137C27.601 41.6642 29.8237 46.2994 30.6402 46.2994C30.6722 46.3001 30.7038 46.2915 30.731 46.2746C31.9681 45.6066 29.7124 38.4106 33.9145 36.3074C34.3981 36.0589 34.9338 35.9289 35.4774 35.9281C37.5393 35.9281 39.4569 37.7301 40.8384 38.9961L41.1641 39.2807C40.9992 34.5177 39.2053 28.9712 41.4528 24.4887C42.0741 23.7858 42.869 23.2582 43.758 22.9588C44.2624 22.77 44.7949 22.6669 45.3333 22.6536ZM45.3333 20.1793C44.5296 20.185 43.7324 20.3244 42.9745 20.5917C41.6459 21.0381 40.4631 21.8362 39.5517 22.901L39.3827 23.1113L39.2631 23.3546C37.5476 26.7897 37.7579 30.5506 38.1579 34.0022C37.3168 33.6311 36.4091 33.4347 35.4898 33.4249C34.5612 33.4248 33.6456 33.6438 32.8176 34.0641C30.4134 35.2682 29.4196 37.3879 29.0072 39.5034C28.7804 39.1529 28.5619 38.8353 28.3557 38.5714C28.1495 38.3075 27.8484 37.9116 27.5763 37.4992C26.2608 35.5569 24.2772 32.629 20.4999 32.629H20.0174C18.4874 32.7115 16.6689 33.4249 15.0235 34.5878C13.5039 35.631 12.2931 37.064 11.5183 38.7363L11.3203 39.19V39.6848C11.3585 40.684 11.685 41.6507 12.2605 42.4684C15.8194 48.1963 20.8669 53.6768 26.867 58.3078L26.9742 58.3903L27.0938 58.4645C28.3884 59.3317 29.8995 59.8202 31.4567 59.8749C32.7745 59.8599 34.0612 59.4725 35.1682 58.7573L35.2712 58.6955L35.3743 58.6336L35.4362 58.5924L35.4981 58.5511C37.8857 56.8686 38.8218 53.883 39.2095 51.1283C40.6363 52.217 42.327 53.0376 44.191 53.0376C45.012 53.0375 45.8249 52.8749 46.5828 52.5593C49.2096 51.4623 50.7561 48.485 51.1808 43.7138C51.7416 38.1673 52.1499 31.6146 50.9169 25.066V24.9588L50.8715 24.7732C50.1622 21.9525 48.0467 20.1793 45.3333 20.1793Z" fill="#45413C"/>
<path d="M59.5154 47.0211C58.8677 47.0191 58.2279 46.8785 57.6391 46.6087C56.2824 46.0066 55.037 44.4148 53.8369 41.755C52.7208 39.1312 51.8631 36.4049 51.2761 33.6146C50.7905 31.2765 50.4285 28.9144 50.1915 26.5382C49.9523 23.9279 50.1008 22.9093 50.2657 22.4144C50.74 19.8783 53.3586 18.6536 54.8514 18.3278C55.3535 18.2135 55.8664 18.1541 56.3813 18.1505C58.6865 18.1505 60.2577 19.5525 60.5793 21.9072L61.0701 25.4702C61.3422 27.4331 61.6721 27.4331 62.0598 27.4331C62.184 27.4326 62.3081 27.423 62.4309 27.4042C64.4722 27.0908 64.4928 27.0826 64.1918 23.4784L64.1175 22.6536C63.9969 21.8268 64.0545 20.9838 64.2867 20.1811C64.5188 19.3785 64.92 18.6348 65.4634 18C66.0067 17.3652 66.6796 16.8541 67.4369 16.501C68.1941 16.1478 69.0182 15.9608 69.8537 15.9525C70.1012 15.9525 70.3362 15.9277 70.563 15.9277C73.6394 15.9277 75.326 17.5772 75.7177 20.9258C75.825 21.8536 75.8951 23.198 75.9074 24.7073C76.0184 30.2197 75.7248 35.7329 75.0291 41.2024C74.5425 44.7365 72.6084 45.6066 71.0744 45.7138C70.8434 45.7138 70.6125 45.7427 70.3857 45.7427C67.6186 45.7427 66.6001 44.1839 66.233 42.8767C65.8068 41.0761 65.5214 39.2451 65.3794 37.4003C65.2639 36.1137 65.1114 35.7301 65.0454 35.6188C64.9795 35.6143 64.9134 35.6143 64.8475 35.6188C64.614 35.6241 64.3812 35.6448 64.1505 35.6807C62.8309 35.8745 62.6289 35.9033 62.7567 36.8477C62.868 37.6724 63.0165 38.3446 63.1691 39.0003C63.2928 39.5776 63.4124 40.1261 63.4907 40.6993C63.9443 44.0808 62.7691 46.4726 60.4268 46.9839C60.125 47.0275 59.8197 47.0399 59.5154 47.0211Z" fill="#45413C"/>
<path d="M70.5619 17.136C72.8506 17.136 74.1496 18.1339 74.4877 21.0412C74.6104 22.2524 74.6709 23.4692 74.6692 24.6866C74.7678 30.1346 74.4729 35.5825 73.7867 40.9879C73.531 42.856 72.8052 44.287 70.9701 44.4354C70.7681 44.4354 70.5578 44.4602 70.3681 44.4602C69.0278 44.4602 67.8484 44.0725 67.4072 42.4972C66.9975 40.7712 66.7217 39.0162 66.5824 37.2477C66.3804 34.9672 66.0092 34.3239 64.8175 34.3239C64.5234 34.3295 64.23 34.3543 63.9391 34.3981C62.1617 34.6579 61.2504 35.1157 61.5019 36.959C61.7205 38.5673 62.071 39.6683 62.2236 40.8065C62.5246 43.0416 62.0669 45.3097 60.1328 45.7179C59.9198 45.7619 59.7029 45.784 59.4854 45.7839C59.0137 45.7819 58.5481 45.6778 58.1204 45.4787C56.9328 44.9509 55.8359 43.2395 54.9328 41.2436C53.8489 38.701 53.0201 36.057 52.4585 33.3507C51.98 31.0607 51.6249 28.7467 51.3945 26.4186C51.2378 24.7237 51.2172 23.2887 51.4399 22.7072C51.7368 20.8391 53.8111 19.8206 55.0853 19.5195C55.501 19.426 55.9253 19.3762 56.3513 19.3711C58.1617 19.3711 59.1019 20.4391 59.3246 22.0556C59.5225 23.4825 59.6174 24.1959 59.8153 25.6227C60.0586 27.3918 60.4504 28.6537 62.0298 28.6537C62.2163 28.654 62.4025 28.6388 62.5865 28.6083C65.5556 28.1547 65.7453 27.3423 65.3948 23.3546C65.3659 23.0247 65.3494 22.8557 65.3206 22.5299C65.0608 19.569 66.7969 17.3793 69.9103 17.169C70.1248 17.169 70.3227 17.1483 70.533 17.1483M70.533 14.6741C70.2815 14.6741 70.0134 14.6741 69.7413 14.6988C68.745 14.735 67.7665 14.9729 66.8649 15.3982C65.9633 15.8235 65.1573 16.4273 64.4958 17.1731C63.862 17.944 63.3894 18.8344 63.106 19.7914C62.8227 20.7484 62.7343 21.7526 62.8463 22.7443L62.9164 23.5691C63.0044 24.3756 63.0416 25.1868 63.0277 25.998C62.8917 26.0351 62.6937 26.0805 62.4009 26.1299C62.3597 25.9444 62.3061 25.6722 62.2525 25.3052L62.005 23.4948L61.7617 21.7422C61.3494 18.7649 59.2875 16.9174 56.339 16.9174C55.7354 16.9222 55.134 16.9914 54.5451 17.1236C52.1698 17.6432 49.5966 19.3834 49.0234 22.1175C48.8213 22.7979 48.6687 23.9938 48.9203 26.6784C49.1601 29.1019 49.529 31.5108 50.0254 33.895C50.6305 36.7727 51.5145 39.5847 52.6647 42.2911C53.9967 45.2396 55.4482 47.0293 57.0977 47.7674C58.2012 48.2797 59.44 48.4242 60.6318 48.1798C63.1762 47.6437 64.702 45.3839 64.7556 42.2457C64.8257 42.5838 64.9041 42.9096 64.9865 43.2065C65.3989 44.6127 66.6031 46.9757 70.3475 46.9757C70.5949 46.9757 70.8464 46.9757 71.1227 46.9468C72.7722 46.8272 75.5847 45.9488 76.2156 41.3673C76.9189 35.8432 77.2166 30.2749 77.1063 24.7072C77.1075 23.4002 77.0415 22.094 76.9084 20.7938C76.3228 15.7586 73.1145 14.7029 70.5248 14.7029L70.533 14.6741ZM63.9927 36.9095H64.0546C64.0752 37.0703 64.0958 37.26 64.1164 37.491C64.1164 37.5734 64.1164 37.6724 64.1453 37.792C64.0917 37.5157 64.0381 37.227 63.9927 36.9219V36.9095Z" fill="#45413C"/>
<path d="M83.7246 46.1592C83.5349 46.1592 83.3452 46.1592 83.1432 46.1345C80.607 45.92 79.3823 43.5365 79.4854 41.2931L79.506 40.856V40.8107C79.6998 39.124 80.871 37.2271 81.906 35.5528C82.2689 34.9631 82.6153 34.3982 82.8627 33.9363C81.7658 32.2538 81.0895 31.2724 79.7823 29.4826L79.2503 28.7486C77.5307 26.3733 75.7533 23.9155 75.209 21.033L75.1842 20.8557C75.1336 20.5087 75.1047 20.1588 75.0977 19.8082C75.0977 17.7463 76.2729 16.3937 78.3967 15.9566C79.1005 15.8203 79.8159 15.7527 80.5328 15.7546H81.0483C83.3081 15.8494 85.1721 16.6618 86.2484 18.0474C87.5474 19.7959 88.4587 21.9897 89.2628 23.9238C89.4278 24.3361 89.5886 24.7114 89.7453 25.0784C90.335 24.4063 90.9412 23.7093 91.6134 22.9918C91.8979 22.6866 92.1701 22.365 92.4382 22.0433C93.9062 20.3278 95.5681 18.3855 98.797 18.3855C99.576 18.3944 100.351 18.4955 101.106 18.6866C105.61 19.7917 105.502 22.4351 105.23 23.5196C104.901 24.9158 104.228 26.2073 103.271 27.2764C102.137 28.6496 100.797 30.0352 99.5929 31.26C99.0445 31.8208 98.5372 32.3404 98.1125 32.7982C96.2898 34.6868 95.0485 36.1755 93.6134 37.9034C93.0609 38.5673 92.4753 39.2684 91.8196 40.0395C91.4072 40.522 91.0155 41.0169 90.6361 41.4952C88.8422 43.8087 86.9824 46.1592 83.7246 46.1592Z" fill="#45413C"/>
<path d="M80.5351 17.0041H80.997C82.7702 17.0783 84.3702 17.6721 85.2775 18.8268C87.1744 21.3794 88.292 25.2722 89.4384 27.3135C90.4116 26.2455 91.3766 25.0661 92.5188 23.8495C94.2591 21.9732 95.5993 19.635 98.8076 19.635C99.4868 19.6423 100.163 19.7323 100.82 19.9031C102.837 20.3938 104.494 21.367 104.053 23.2516C103.766 24.4611 103.179 25.5788 102.346 26.5011C100.721 28.4682 98.5684 30.5342 97.2323 31.9693C94.7045 34.5879 93.2859 36.4477 90.9064 39.2519C88.527 42.056 86.9435 44.9221 83.7269 44.9221C83.569 44.9301 83.4107 44.9301 83.2527 44.9221C81.3888 44.7654 80.6547 42.9179 80.7248 41.3715L80.7454 40.9591C81.0052 38.7034 83.6321 35.4992 84.2795 33.8415C82.9517 31.7796 82.2547 30.761 80.7908 28.7568C79.0258 26.2826 76.9846 23.7052 76.4361 20.8062C76.3851 20.4785 76.3547 20.148 76.3454 19.8165C76.3454 18.3855 77.0629 17.4989 78.6506 17.1731C79.2716 17.0534 79.9027 16.9941 80.5351 16.9958M80.5351 14.5215C79.7378 14.5191 78.9422 14.595 78.1598 14.7484C75.4381 15.3092 73.8793 17.1525 73.8711 19.8082C73.8776 20.2127 73.9106 20.6163 73.9701 21.0165V21.2681C74.5639 24.4227 76.5062 27.1073 78.2258 29.4785L78.7413 30.2002C79.8588 31.7342 80.5145 32.6744 81.3723 33.9693C81.1949 34.2703 81.0011 34.5879 80.8114 34.8889C79.7104 36.6745 78.465 38.6952 78.2382 40.6622V41.223C78.0609 44.9716 80.5145 47.1489 83.0259 47.3592C83.2568 47.3799 83.4878 47.3881 83.7104 47.3881C87.5456 47.3881 89.7064 44.6705 91.6157 42.2664C91.991 41.7962 92.3786 41.3096 92.7745 40.8437C93.4343 40.0684 94.0117 39.3715 94.5766 38.6952C95.9952 36.9879 97.2241 35.5157 98.9973 33.6806C99.4097 33.2394 99.9169 32.7157 100.457 32.1631C101.67 30.926 103.039 29.5156 104.202 28.1053C105.281 26.8911 106.041 25.427 106.412 23.8454C106.676 22.7196 107.096 18.9299 101.36 17.5278C100.509 17.3119 99.6359 17.1984 98.7581 17.1896C94.9601 17.1896 92.9353 19.5526 91.459 21.2804C91.1827 21.6062 90.9188 21.9114 90.6549 22.1959C90.457 22.4062 90.2673 22.6083 90.0776 22.8227C89.3429 20.9012 88.3822 19.0738 87.2157 17.3793L87.195 17.3505V17.3216C85.8754 15.6515 83.7022 14.67 81.0753 14.5587H80.5063L80.5351 14.5215ZM106.47 51.3634C105.677 51.3544 104.892 51.2036 104.152 50.9181C102.424 50.2665 100.94 48.2046 101.55 46.0108C101.767 45.2056 102.219 44.4839 102.85 43.9385C103.481 43.3931 104.26 43.0491 105.088 42.9509C105.03 42.8849 104.973 42.8148 104.919 42.7447C102.989 40.2705 103.402 36.7652 104.618 32.2662C104.857 31.3837 105.125 30.4806 105.406 29.5197C105.686 28.5589 105.999 27.5197 106.284 26.4681L106.626 24.8186V24.7856C106.676 24.6001 106.742 24.3155 106.804 24.0392C106.865 23.7629 106.936 23.4619 106.985 23.2887L107.088 22.9011C107.206 22.4472 107.394 22.0145 107.645 21.6186L107.719 21.5031L107.818 21.4041C108.141 21.1027 108.522 20.8692 108.937 20.7176C109.352 20.566 109.793 20.4994 110.235 20.5216C111.112 20.5426 111.979 20.7185 112.795 21.0412C114.401 21.6353 115.867 22.5517 117.105 23.7341C117.849 24.4151 118.435 25.2519 118.819 26.1849C119.203 27.118 119.377 28.1243 119.328 29.1321C119.269 30.3834 119.004 31.6165 118.544 32.7817C116.944 37.0869 113.377 41.623 111.513 42.9757C110.827 43.4975 110.051 43.8888 109.224 44.1303C109.87 44.6364 110.343 45.3294 110.58 46.1147C110.817 46.9001 110.806 47.7394 110.548 48.518C110.274 49.3737 109.726 50.1157 108.99 50.6298C108.253 51.144 107.367 51.4017 106.47 51.3634Z" fill="#45413C"/>
<path d="M110.243 21.7794C110.975 21.8094 111.697 21.9657 112.375 22.2413C113.822 22.7628 115.146 23.577 116.264 24.6331C116.89 25.1937 117.382 25.8881 117.703 26.6648C118.025 27.4415 118.167 28.2806 118.12 29.1197C118.065 30.2343 117.827 31.3323 117.415 32.3693C115.889 36.4395 112.466 40.7653 110.817 41.9736C110.049 42.6025 109.105 42.9785 108.116 43.0499C107.804 43.0517 107.495 42.9957 107.204 42.8849C106.702 42.719 106.259 42.4076 105.934 41.9901C104.285 39.8869 104.755 36.6291 105.847 32.5878C106.33 30.8022 106.953 28.8476 107.522 26.7568L107.864 25.1073C107.967 24.7279 108.128 23.9526 108.219 23.6104L108.322 23.2268C108.408 22.8921 108.547 22.5733 108.734 22.2825C109.16 21.91 109.716 21.7217 110.281 21.7588M105.901 44.1097C106.389 44.1127 106.873 44.2049 107.328 44.3819C108.874 44.9881 109.979 46.4932 109.419 48.0933C109.227 48.7058 108.837 49.237 108.31 49.603C107.782 49.9689 107.148 50.1487 106.507 50.1139C105.864 50.1046 105.227 49.9803 104.627 49.7469C103.522 49.3345 102.346 47.8871 102.779 46.3283C102.954 45.7018 103.327 45.1487 103.842 44.7517C104.357 44.3547 104.987 44.1353 105.637 44.1262H105.901M110.281 19.301C109.676 19.2768 109.073 19.3737 108.506 19.5862C107.939 19.7986 107.421 20.1223 106.981 20.5381L106.784 20.7361L106.635 20.967C106.312 21.4757 106.073 22.0325 105.926 22.6165L105.876 22.8062L105.823 22.9959C105.765 23.2104 105.699 23.499 105.629 23.8207C105.559 24.1423 105.505 24.365 105.468 24.5093V24.6496C105.336 25.2764 105.266 25.598 105.138 26.2042C104.858 27.231 104.565 28.2331 104.276 29.2022C103.988 30.1713 103.724 31.0785 103.48 31.9734C102.553 35.4044 101.732 39.2395 103.229 42.2829C102.545 42.6211 101.941 43.1002 101.455 43.6886C100.97 44.2771 100.614 44.9617 100.412 45.6973C99.6205 48.584 101.538 51.248 103.773 52.0933C104.653 52.4311 105.586 52.6085 106.528 52.6171C107.681 52.6509 108.814 52.3121 109.759 51.6509C110.704 50.9898 111.41 50.0415 111.773 48.9469C112.023 48.2384 112.112 47.4828 112.032 46.7357C111.952 45.9886 111.706 45.2689 111.311 44.6293C111.653 44.4353 111.984 44.2219 112.301 43.9901C114.54 42.3406 118.161 37.5446 119.769 33.2683C120.28 31.9744 120.571 30.6044 120.631 29.2146C120.687 28.0375 120.484 26.8625 120.037 25.7724C119.589 24.6823 118.908 23.7035 118.041 22.9052C116.68 21.5986 115.065 20.5864 113.295 19.9319C112.34 19.5595 111.326 19.3585 110.301 19.3381L110.281 19.301ZM124.306 60.745C123.078 60.696 121.892 60.2905 120.891 59.578C119.332 58.5306 118.272 56.1676 119.274 54.1758C119.608 53.4981 120.129 52.9305 120.776 52.5408C121.423 52.151 122.169 51.9557 122.924 51.9779C123.209 51.9781 123.493 52.003 123.774 52.0521C123.116 51.3142 122.687 50.4019 122.536 49.4252C122.441 48.8367 122.53 48.2331 122.792 47.6974L122.891 47.4994C124.627 44.0643 127.708 43.2726 130.772 42.9262L131.522 42.8354C132.829 42.687 133.312 42.3323 133.378 42.221C133.444 42.1097 133.283 41.722 132.693 41.322C132.186 40.9161 131.558 40.6899 130.908 40.6787C130.434 40.6977 129.962 40.7542 129.497 40.8478L128.767 40.9632C128.369 41.0254 127.966 41.0558 127.563 41.054C126.317 41.0732 125.086 40.7692 123.992 40.1715C121.881 38.9343 120.998 36.5632 121.893 34.5136C122.172 33.8818 122.586 33.3187 123.105 32.8641C124.718 31.4478 126.799 30.6807 128.945 30.7115C132.735 30.7115 136.145 32.7734 137.84 34.0105C141.922 36.992 146.182 43.5324 142.875 48.7366C140.97 51.7387 138.137 52.1511 135.361 52.1511H133.666C132.652 52.1511 131.646 52.2129 131.192 52.6294L130.326 53.4212L130.289 53.4542L130.227 53.5037L130.087 53.6274C129.96 53.7519 129.822 53.8651 129.675 53.9655C129.209 54.2795 128.657 54.4422 128.095 54.4315C127.871 54.4311 127.648 54.4104 127.427 54.3697C128.384 55.7511 128.557 57.4336 127.753 58.7821C127.41 59.3907 126.908 59.8947 126.301 60.2404C125.694 60.5861 125.004 60.7605 124.306 60.745Z" fill="#45413C"/>
<path d="M128.932 31.9363C131.819 31.9363 134.8 33.3343 137.097 35.0168C140.912 37.8003 144.64 43.6355 141.819 48.0768C140.17 50.6624 137.695 50.9181 135.349 50.9181H133.654C132.301 50.9181 131.114 51.0212 130.355 51.714L129.46 52.5387C129.305 52.6857 129.141 52.8234 128.969 52.9511C128.707 53.1349 128.391 53.2276 128.07 53.215C127.572 53.1982 127.083 53.0715 126.64 52.8439C126.461 52.7552 126.29 52.6517 126.128 52.5346C124.858 51.6562 123.91 50.448 123.769 49.3057C123.708 48.9624 123.753 48.6086 123.897 48.2912L124.004 48.085C125.439 45.2437 127.893 44.5303 130.916 44.1881L131.662 44.1015C132.759 43.9736 134.005 43.6437 134.45 42.8643C134.842 42.1963 134.553 41.1117 133.394 40.3199C132.683 39.7762 131.815 39.4755 130.92 39.4622C130.215 39.4976 129.513 39.5858 128.821 39.7261L128.59 39.7591C128.255 39.8133 127.915 39.8395 127.576 39.8375C126.548 39.8549 125.533 39.6093 124.627 39.124C123.138 38.2581 122.367 36.5673 123.039 35.0291C123.245 34.5549 123.553 34.1323 123.943 33.792C125.33 32.5812 127.116 31.9274 128.957 31.9569M122.949 53.2356C123.183 53.2365 123.416 53.26 123.646 53.3057C124.238 53.4114 124.801 53.6434 125.295 53.9862C126.722 54.9676 127.547 56.7326 126.693 58.1553C126.466 58.577 126.128 58.9282 125.715 59.1704C125.301 59.4126 124.83 59.5365 124.351 59.5285C123.369 59.4796 122.422 59.1473 121.625 58.5718C120.606 57.8873 119.707 56.1759 120.425 54.7532C120.658 54.2822 121.022 53.8884 121.473 53.6192C121.925 53.3501 122.444 53.2169 122.969 53.2356M128.978 29.4826C126.541 29.4482 124.178 30.3163 122.343 31.9198C121.688 32.4965 121.168 33.2103 120.821 34.0106C119.67 36.6457 120.767 39.6849 123.431 41.2313C124.694 41.9271 126.113 42.289 127.555 42.2829C126.326 42.6022 125.181 43.1821 124.196 43.9833C123.211 44.7845 122.41 45.7882 121.848 46.9262L121.798 47.0293L121.745 47.1366C121.372 47.8941 121.241 48.7476 121.369 49.582C121.427 50.0257 121.539 50.4606 121.703 50.8768C120.959 51.0476 120.262 51.3819 119.663 51.8556C119.064 52.3292 118.577 52.9302 118.239 53.615C116.936 56.2048 118.276 59.2564 120.272 60.5966C121.476 61.4465 122.903 61.9253 124.376 61.9739C125.283 61.985 126.176 61.7515 126.962 61.298C127.748 60.8445 128.397 60.1877 128.842 59.3966C129.187 58.811 129.408 58.1611 129.494 57.4868C129.579 56.8124 129.525 56.1278 129.336 55.4749C129.709 55.3641 130.062 55.1973 130.384 54.98C130.59 54.8455 130.783 54.6922 130.961 54.5223L131.04 54.4563L131.118 54.3944L131.188 54.3284L132.05 53.5408C132.149 53.4872 132.499 53.3676 133.724 53.3676H135.419C137.221 53.3676 141.444 53.3676 143.976 49.3799C145.696 46.6706 145.803 43.3014 144.277 39.8952C143.006 37.1556 141.063 34.7822 138.627 32.9961C136.813 31.6682 133.143 29.4414 129.002 29.4414L128.978 29.4826Z" fill="#45413C"/>
<path d="M31.4361 57.6068C30.1824 57.5453 28.9698 57.1402 27.9309 56.4356L27.8897 56.4109L27.8526 56.382C22.0092 51.8706 17.0977 46.5427 13.6379 40.9797C13.2313 40.4311 12.9921 39.7766 12.9492 39.0951V38.9302L13.0152 38.7817C13.6744 37.392 14.694 36.2044 15.9678 35.3425C17.3782 34.3445 18.8916 33.7383 20.1246 33.693H20.4957C23.3824 33.693 24.9577 35.9899 26.2072 37.8374C26.4958 38.2497 26.7639 38.6621 27.0319 39.0003C27.6592 39.8819 28.2374 40.7974 28.7639 41.7426C29.1763 42.4807 29.8279 43.557 30.3145 44.254V43.0457C30.3145 40.456 30.3351 36.5466 33.5145 34.9548C34.1135 34.6493 34.7762 34.4897 35.4486 34.4888C37.2424 34.4888 38.8507 35.5816 40.1703 36.7033C40.1002 36.0229 40.0136 35.326 39.9229 34.6084C39.4775 30.8228 38.9909 26.9382 40.7188 23.4783L40.7559 23.3959L40.8136 23.3299C41.53 22.5042 42.454 21.8849 43.49 21.536C44.0761 21.3312 44.6918 21.2239 45.3127 21.2185C47.3003 21.2185 48.723 22.4309 49.222 24.5423L49.2674 24.7361C50.4715 31.1197 50.0674 37.5198 49.5148 42.9632C49.156 47.087 47.9478 49.5901 45.923 50.4355C45.3677 50.6675 44.7722 50.788 44.1704 50.7902C41.6013 50.7902 39.2919 48.6458 37.8321 46.8973C37.7125 49.9283 37.4197 54.5511 34.5331 56.58L34.2898 56.7325C33.4418 57.2909 32.4514 57.5943 31.4361 57.6068Z" fill="#EDF2F4"/>
<path d="M45.3336 22.0475C46.7027 22.0475 47.977 22.7609 48.4388 24.7362C48.4388 24.8145 48.4677 24.8517 48.4842 24.93C49.6017 30.8476 49.3089 36.922 48.7151 42.8808C48.4718 45.6685 47.746 48.7944 45.6264 49.6768C45.1724 49.8689 44.6843 49.9671 44.1913 49.9655C41.2676 49.9655 38.4881 46.6129 37.1809 44.6046C36.818 45.8706 37.5933 53.4089 34.0592 55.8914L33.8571 56.0192C33.1422 56.4899 32.3087 56.7486 31.453 56.7656C30.3487 56.7067 29.2823 56.3427 28.3725 55.7141C22.9332 51.5119 17.9517 46.316 14.3516 40.5262C14.0414 40.1068 13.8466 39.6134 13.7867 39.0952C14.3907 37.8485 15.3159 36.7853 16.4671 36.0147C17.7373 35.1158 19.127 34.5549 20.1785 34.5054H20.5084C23.5848 34.5054 24.9704 37.6766 26.3931 39.4952C27.6013 41.0458 29.8241 45.6809 30.6406 45.6809C30.6726 45.6816 30.7041 45.673 30.7313 45.6562C31.9684 44.9881 29.7127 37.7921 33.9149 35.689C34.3984 35.4405 34.9341 35.3104 35.4778 35.3096C37.5397 35.3096 39.4572 37.1117 40.8387 38.3777L41.1645 38.6622C40.9995 33.8992 39.2057 28.3528 41.4531 23.8702C42.0744 23.1673 42.8693 22.6398 43.7583 22.3403C44.2582 22.1651 44.7834 22.0731 45.313 22.0681M45.313 20.4186C44.6007 20.4223 43.8941 20.545 43.2222 20.7815C42.04 21.1834 40.9875 21.8955 40.1748 22.8434L40.0593 22.9836L39.9809 23.1485C38.1417 26.7775 38.6655 30.9837 39.1479 34.6828V34.8601C38.0678 34.0996 36.7897 33.6697 35.4695 33.623C34.6677 33.6313 33.8792 33.8291 33.1684 34.2003C30.2076 35.6766 29.6632 38.8602 29.5395 41.4045L29.4777 41.3014C28.9358 40.3227 28.3368 39.3767 27.6838 38.4684C27.4364 38.1509 27.1725 37.7632 26.8921 37.3509C25.6054 35.4498 23.8405 32.8436 20.5002 32.8436H20.0878C18.7063 32.9178 17.0403 33.5776 15.5145 34.6539C14.1103 35.6049 12.9867 36.915 12.2609 38.4478L12.1289 38.7529V39.0787C12.1779 39.9203 12.4638 40.7309 12.9537 41.4169C16.4671 47.0624 21.4157 52.4645 27.3498 57.0378L27.424 57.0914L27.5024 57.1409C28.6687 57.9275 30.0308 58.3744 31.4365 58.4316C32.5982 58.4141 33.7315 58.0696 34.7066 57.4378L34.8056 57.3801L34.9128 57.3141L34.954 57.2852L34.9953 57.2564C37.5685 55.446 38.2943 51.8171 38.5417 48.8892C40.0552 50.3449 42.0016 51.615 44.1707 51.615C44.8785 51.615 45.5793 51.4749 46.2326 51.2026C48.5543 50.2336 49.944 47.4912 50.3234 43.0417C50.8842 37.5529 51.2884 31.0827 50.0718 24.629V24.5548L50.0306 24.3651C49.445 21.8908 47.6842 20.4021 45.3171 20.4021L45.313 20.4186Z" fill="#45413C"/>
<path d="M59.5154 45.9901C58.9257 45.9872 58.3436 45.8578 57.8082 45.6107C56.571 45.0581 55.3545 43.4911 54.2122 40.9632C53.1076 38.3662 52.2596 35.6674 51.6802 32.9053C51.1978 30.5892 50.8386 28.2491 50.6039 25.8949C50.3441 23.0866 50.5585 22.2082 50.6658 21.8907C51.041 19.8536 53.14 18.5051 54.938 18.1092C55.4118 18.0018 55.8956 17.9451 56.3813 17.9401C58.4927 17.9401 59.8742 19.1773 60.1711 21.3381L60.6618 24.9052C60.934 26.8887 61.3134 27.2228 62.0598 27.2228C62.2047 27.2211 62.3493 27.2101 62.4928 27.1898C64.7485 26.8393 64.9464 26.699 64.6042 22.8227L64.5299 21.9979C64.4133 21.225 64.4644 20.436 64.68 19.6846C64.8955 18.9332 65.2704 18.237 65.779 17.6434C66.2877 17.0499 66.9182 16.5728 67.6278 16.2447C68.3373 15.9167 69.1091 15.7452 69.8908 15.7422C70.1245 15.7257 70.3513 15.7174 70.5713 15.7174C73.4579 15.7174 74.9507 17.1896 75.3177 20.3484C75.442 21.5899 75.5039 22.8369 75.5033 24.0846C75.606 29.5657 75.3083 35.0471 74.6126 40.4849C74.2538 43.0993 73.0497 44.4973 71.0373 44.6416C70.8146 44.6416 70.5919 44.6664 70.3775 44.6664C68.365 44.6664 67.1032 43.8004 66.6207 42.1014C66.2056 40.3249 65.9298 38.5187 65.7959 36.6992C65.6021 34.5301 65.3176 34.5301 64.8516 34.5301C64.5975 34.535 64.344 34.557 64.0928 34.5961C62.3567 34.8518 62.2041 35.1528 62.3526 36.2456C62.468 37.0704 62.6165 37.7673 62.7649 38.4271C62.8887 39.0003 63.0082 39.5364 63.0825 40.0766C63.4949 43.2272 62.4557 45.4375 60.3443 45.9035C60.0718 45.9614 59.794 45.9904 59.5154 45.9901Z" fill="#EDF2F4"/>
<path d="M70.5639 16.5175C72.8526 16.5175 74.1516 17.5154 74.4897 20.4227C74.6123 21.6339 74.6729 22.8507 74.6712 24.0681C74.7706 29.5215 74.4757 34.975 73.7887 40.3859C73.533 42.254 72.8072 43.6849 70.9721 43.8334C70.7701 43.8334 70.5598 43.8581 70.3701 43.8581C69.0298 43.8581 67.8504 43.4705 67.4092 41.8952C66.9994 40.1692 66.7237 38.4141 66.5844 36.6456C66.3824 34.3652 66.0112 33.7219 64.8194 33.7219C64.5253 33.7274 64.2319 33.7522 63.9411 33.7961C62.1637 34.0559 61.2524 34.5137 61.5039 36.357C61.7225 37.9653 62.073 39.0663 62.2256 40.2045C62.5266 42.4396 62.0689 44.7076 60.1348 45.1159C59.9218 45.1599 59.7049 45.182 59.4874 45.1819C59.0157 45.1799 58.55 45.0758 58.1224 44.8767C56.9348 44.3489 55.8378 42.6375 54.9347 40.6416C53.8509 38.0989 53.0221 35.455 52.4605 32.7487C51.982 30.4587 51.6269 28.1447 51.3965 25.8166C51.2398 24.1217 51.2192 22.6866 51.4419 22.1052C51.7388 20.2371 53.8131 19.2185 55.0873 18.9175C55.503 18.824 55.9273 18.7742 56.3533 18.769C58.1637 18.769 59.1039 19.8371 59.3266 21.4536C59.5245 22.8805 59.6194 23.5939 59.8173 25.0207C60.0606 26.7898 60.4524 28.0517 62.0318 28.0517C62.2183 28.052 62.4045 28.0368 62.5885 28.0063C65.5576 27.5527 65.7473 26.7403 65.3968 22.7526C65.3679 22.4227 65.3514 22.2536 65.3225 21.9279C65.0627 18.967 66.7989 16.7773 69.9123 16.5669C70.1268 16.5669 70.3247 16.5463 70.535 16.5463M70.535 14.8968C70.3 14.8968 70.0525 14.8968 69.801 14.9216C68.9139 14.9513 68.0421 15.1606 67.2383 15.537C66.4345 15.9134 65.7154 16.449 65.1246 17.1113C64.5663 17.7982 64.151 18.5899 63.9031 19.4398C63.6552 20.2896 63.5798 21.1804 63.6813 22.0598L63.7514 22.8846C63.8132 23.5691 63.9988 25.6558 63.7514 25.9733C63.7514 25.9733 63.5369 26.1795 62.341 26.3651C62.2386 26.3804 62.1353 26.3886 62.0318 26.3898C61.9757 26.3983 61.9187 26.3983 61.8627 26.3898C61.7967 26.3156 61.6194 26.0104 61.4503 24.8021L61.207 23.0165L60.9596 21.2351C60.6049 18.6618 58.8977 17.1113 56.3533 17.1113C55.808 17.1153 55.2647 17.1775 54.7327 17.2969C53.1491 17.6433 50.3738 18.9464 49.8377 21.6763C49.7017 22.0887 49.4913 23.1279 49.7553 25.9692C49.9916 28.3607 50.355 30.738 50.8439 33.0909C51.4361 35.918 52.3035 38.6804 53.4337 41.3385C54.6708 44.0973 55.9904 45.751 57.4502 46.4025C58.0891 46.697 58.7839 46.8503 59.4874 46.852C59.82 46.8526 60.1518 46.8181 60.4771 46.7489C63.0668 46.1592 64.3782 43.586 63.8916 39.9735C63.8132 39.3838 63.6895 38.8271 63.5617 38.2416C63.4215 37.5941 63.2771 36.9261 63.1493 36.1219C63.1243 35.9721 63.1173 35.8198 63.1287 35.6683C63.4699 35.5352 63.828 35.4506 64.1926 35.4168C64.4194 35.3838 64.605 35.3673 64.7411 35.359C64.853 35.8247 64.9234 36.2995 64.9514 36.7776C65.1015 38.647 65.3924 40.5025 65.8215 42.3282C66.2339 43.7715 67.3473 45.4953 70.3577 45.4953C70.5845 45.4953 70.8195 45.4953 71.0752 45.4664C72.7618 45.3468 74.8856 44.4066 75.4093 40.6004C76.1056 35.1157 76.4006 29.5875 76.2918 24.0599C76.2934 22.7818 76.2301 21.5046 76.1021 20.233C75.6897 16.6742 73.8134 14.8721 70.535 14.8721V14.8968Z" fill="#45413C"/>
<path d="M83.727 45.1407H83.1826C80.9022 44.9468 79.8052 42.7736 79.8836 40.7282L79.9042 40.3158V40.287C80.0898 38.6869 81.2321 36.8312 82.2465 35.1982C82.6589 34.5095 83.0713 33.8539 83.3269 33.3384C82.1517 31.5239 81.4671 30.5342 80.1021 28.6661C79.9289 28.4187 79.7516 28.1795 79.5743 27.9362C77.8836 25.5939 76.1309 23.1774 75.6072 20.3815L75.5825 20.233C75.5344 19.9024 75.5068 19.5691 75.5 19.2351C75.5 17.9402 76.0196 16.2948 78.4609 15.7876C79.1401 15.6553 79.8308 15.5904 80.5228 15.5938H81.0218C83.162 15.6845 84.8981 16.4433 85.9126 17.7299C87.1744 19.4289 88.0775 21.5939 88.8693 23.5032C89.1291 24.1259 89.3765 24.7403 89.6198 25.264L90.0322 24.7815C90.6178 24.1094 91.224 23.4124 91.8962 22.6949C92.1848 22.3856 92.4611 22.0598 92.7209 21.7341C94.1313 20.0846 95.7272 18.2206 98.7664 18.2206C99.512 18.2296 100.254 18.3265 100.977 18.5093C104.973 19.4907 105.101 21.6475 104.816 22.8475C104.501 24.1818 103.856 25.4156 102.94 26.4352C101.818 27.796 100.465 29.1775 99.2819 30.394C98.7334 30.959 98.2221 31.4827 97.7973 31.9404C95.9705 33.8332 94.7251 35.3302 93.2818 37.0622C92.7292 37.7261 92.1477 38.423 91.492 39.1942C91.0797 39.6808 90.6673 40.1798 90.3003 40.6622C88.5023 42.9592 86.7662 45.1407 83.727 45.1407Z" fill="#EDF2F4"/>
<path d="M80.5346 16.3855H80.9965C82.7697 16.4597 84.3697 17.0535 85.2769 18.2082C87.1739 20.7608 88.2914 24.6536 89.4378 26.6949C90.4111 25.6269 91.376 24.4475 92.5183 23.2309C94.2585 21.3546 95.5988 19.0164 98.8071 19.0164C99.4863 19.0237 100.162 19.1137 100.819 19.2845C102.836 19.7752 104.494 20.7484 104.053 22.633C103.766 23.8425 103.179 24.9602 102.345 25.8825C100.721 27.8496 98.5679 29.9156 97.2318 31.3507C94.7039 33.9693 93.2853 35.8291 90.9059 38.6333C88.5265 41.4374 86.943 44.3035 83.7264 44.3035C83.5684 44.3115 83.4101 44.3115 83.2522 44.3035C81.3882 44.1468 80.6542 42.2993 80.7243 40.7529L80.7449 40.3405C81.0047 38.0848 83.6316 34.8806 84.279 33.2229C82.9511 31.161 82.2542 30.1424 80.7903 28.1382C79.0253 25.664 76.984 23.0866 76.4356 20.1876C76.3845 19.8599 76.3542 19.5294 76.3448 19.1979C76.3448 17.7669 77.0624 16.8803 78.65 16.5545C79.271 16.4348 79.9022 16.3755 80.5346 16.3772M80.5346 14.7277C79.7926 14.7238 79.0522 14.7943 78.3242 14.938C75.9861 15.4205 74.7036 16.9298 74.6953 19.1937C74.7013 19.5624 74.7316 19.9302 74.786 20.2948V20.4969C75.3469 23.4701 77.2356 26.0763 78.9098 28.3774L79.4294 29.0991C80.6666 30.8187 81.3552 31.7837 82.3697 33.3425C82.1387 33.7548 81.8377 34.2456 81.5449 34.7239C80.4892 36.4312 79.2933 38.3693 79.0706 40.1508V40.658C78.9181 43.8828 80.9841 45.7509 83.1037 45.9324C83.3099 45.9324 83.5161 45.9571 83.7182 45.9571C87.1533 45.9571 89.0997 43.5117 90.9801 41.1488C91.3554 40.6745 91.7472 40.1797 92.1513 39.7055C92.8111 38.9302 93.3884 38.2333 93.9493 37.5611C95.3802 35.8415 96.6173 34.3569 98.4112 32.5012C98.8236 32.0517 99.3432 31.5239 99.8875 30.9672C101.088 29.73 102.444 28.3444 103.599 26.963C104.596 25.8452 105.298 24.4956 105.64 23.0371C105.925 21.833 106.053 18.9133 101.199 17.7092C100.411 17.5099 99.6029 17.4047 98.7906 17.3958C95.372 17.3958 93.5699 19.503 92.1183 21.1979C91.8338 21.5278 91.5698 21.8412 91.2935 22.1381C90.7822 22.6825 90.308 23.2144 89.8543 23.734C89.7801 23.5526 89.7059 23.3711 89.6275 23.1897C88.8028 21.2309 87.8955 19.0123 86.5883 17.2514C85.4172 15.771 83.4625 14.9009 81.0789 14.8019H80.547L80.5346 14.7277Z" fill="#45413C"/>
<path d="M106.469 50.3325C105.726 50.3258 104.99 50.1862 104.296 49.9201C102.733 49.3304 101.409 47.417 101.945 45.5118C102.164 44.7185 102.633 44.0169 103.282 43.5116C103.932 43.0063 104.727 42.7243 105.55 42.7076H106.16C105.805 42.4933 105.495 42.2134 105.245 41.8829C103.418 39.5406 103.83 36.1467 105.018 31.7631C105.253 30.8847 105.521 29.9816 105.801 29.0249C106.082 28.0682 106.395 27.0125 106.684 25.9527L107.034 24.3032C107.084 24.1135 107.15 23.8248 107.216 23.5403C107.282 23.2557 107.344 22.9753 107.389 22.8062L107.492 22.4227C107.605 22.0052 107.782 21.6075 108.016 21.2433L108.065 21.165L108.131 21.099C108.417 20.8364 108.753 20.6336 109.118 20.5026C109.483 20.3716 109.871 20.315 110.259 20.3361C111.089 20.3573 111.908 20.5248 112.68 20.831C114.231 21.4013 115.647 22.2858 116.841 23.4289C117.549 24.0673 118.104 24.856 118.468 25.7373C118.831 26.6186 118.992 27.5701 118.94 28.5218C118.881 29.7276 118.626 30.9157 118.185 32.0394C116.585 36.2622 113.084 40.7035 111.269 42.0354C110.371 42.7667 109.267 43.1992 108.111 43.2726C109.892 44.2128 110.762 46.0644 110.172 47.7799C109.92 48.552 109.421 49.2199 108.752 49.681C108.083 50.1422 107.281 50.371 106.469 50.3325Z" fill="#EDF2F4"/>
<path d="M110.242 21.1608C110.973 21.1843 111.694 21.3335 112.374 21.6021C113.823 22.1297 115.147 22.951 116.263 24.0145C116.889 24.5752 117.381 25.2696 117.702 26.0463C118.024 26.823 118.166 27.662 118.119 28.5012C118.064 29.6158 117.826 30.7137 117.414 31.7507C115.888 35.8209 112.465 40.1467 110.816 41.355C110.048 41.9839 109.104 42.3599 108.114 42.4313C107.803 42.4331 107.494 42.3772 107.203 42.2664C106.7 42.1005 106.258 41.789 105.933 41.3715C104.283 39.2684 104.754 36.0106 105.846 31.9693C106.329 30.1837 106.952 28.229 107.521 26.1382L107.863 24.4887C107.966 24.1093 108.127 23.3341 108.218 22.9918L108.321 22.6083C108.407 22.2736 108.546 21.9548 108.733 21.6639C109.159 21.2915 109.715 21.1031 110.279 21.1402M105.9 43.4911C106.388 43.4941 106.872 43.5863 107.327 43.7633C108.873 44.3695 109.978 45.8747 109.418 47.4747C109.226 48.0872 108.836 48.6184 108.308 48.9844C107.781 49.3503 107.147 49.5301 106.506 49.4954C105.863 49.486 105.226 49.3617 104.626 49.1283C103.521 48.716 102.345 47.2685 102.778 45.7097C102.953 45.0832 103.326 44.5301 103.841 44.1331C104.356 43.7362 104.986 43.5167 105.636 43.5076H105.9M110.279 19.5072C109.784 19.4852 109.29 19.5625 108.826 19.7346C108.361 19.9067 107.935 20.1701 107.574 20.5093L107.442 20.6371L107.343 20.7938C107.068 21.2264 106.862 21.6995 106.733 22.1959L106.684 22.3856L106.63 22.5753C106.576 22.7732 106.514 23.0537 106.448 23.3506C106.382 23.6475 106.321 23.9114 106.275 24.0764V24.1671C106.143 24.8021 106.077 25.1279 105.945 25.7465C105.661 26.7898 105.36 27.8084 105.071 28.7816C104.782 29.7548 104.523 30.6497 104.283 31.5363C103.31 35.124 102.457 39.1694 104.424 42.0602C103.653 42.2663 102.95 42.6722 102.385 43.237C101.821 43.8018 101.416 44.5053 101.211 45.2767C100.543 47.6974 102.172 49.9655 104.065 50.683C104.855 50.9857 105.693 51.1449 106.539 51.1531C107.523 51.1943 108.493 50.9111 109.3 50.347C110.107 49.783 110.706 48.9694 111.005 48.0314C111.25 47.284 111.285 46.4841 111.108 45.718C110.93 44.9519 110.547 44.2489 109.999 43.6849C110.624 43.4266 111.214 43.0913 111.756 42.687C113.653 41.3055 117.302 36.6993 118.939 32.328C119.418 31.1194 119.697 29.8407 119.764 28.5424C119.816 27.4788 119.633 26.4168 119.228 25.4318C118.823 24.4469 118.207 23.5631 117.422 22.8433C116.145 21.6153 114.627 20.666 112.964 20.0557C112.101 19.7162 111.186 19.5319 110.259 19.5113L110.279 19.5072Z" fill="#45413C"/>
<path d="M124.305 59.7142C123.16 59.665 122.054 59.2839 121.122 58.6173C119.707 57.6688 118.742 55.5368 119.641 53.7429C119.943 53.1315 120.415 52.6201 121 52.2704C121.585 51.9207 122.259 51.7476 122.94 51.7718C123.227 51.7729 123.513 51.8005 123.794 51.8542C124.493 51.9884 125.155 52.2695 125.736 52.679C127.67 54.011 128.371 56.2791 127.386 57.9492C127.084 58.4976 126.636 58.9523 126.093 59.2635C125.55 59.5748 124.931 59.7307 124.305 59.7142ZM128.054 53.3883C127.43 53.373 126.818 53.2165 126.264 52.9306C126.049 52.8299 125.845 52.7084 125.654 52.5677C124.112 51.5037 123.097 50.0934 122.932 48.7573C122.847 48.2508 122.922 47.7306 123.147 47.2686L123.25 47.0624C124.978 43.6479 128.058 43.0294 130.804 42.7159L131.555 42.6293C132.887 42.4768 133.551 42.1056 133.724 41.8046C133.897 41.5036 133.724 40.9097 132.899 40.3571C132.325 39.902 131.616 39.651 130.883 39.6437C130.387 39.6616 129.893 39.7195 129.406 39.8169L128.677 39.9324C128.3 39.9912 127.919 40.0201 127.538 40.019C126.364 40.0383 125.205 39.7542 124.173 39.1942C122.248 38.0726 121.435 35.8952 122.243 34.056C122.507 33.4807 122.889 32.9677 123.365 32.5508C124.902 31.198 126.885 30.4633 128.932 30.4889C132.607 30.4889 135.943 32.5178 137.592 33.7261C141.543 36.6127 145.683 42.918 142.541 47.8954C140.739 50.7326 138.033 51.1202 135.374 51.1202H133.662C132.392 51.1202 131.439 51.2233 130.899 51.7058L130.029 52.4976L129.959 52.5594C129.901 52.6043 129.846 52.6525 129.794 52.7037C129.678 52.8153 129.551 52.9148 129.415 53.0007C129.013 53.2691 128.537 53.4047 128.054 53.3883Z" fill="#EDF2F4"/>
<path d="M128.931 31.3137C131.818 31.3137 134.799 32.7116 137.096 34.3942C140.911 37.1777 144.639 43.0129 141.818 47.4542C140.168 50.0398 137.694 50.2955 135.348 50.2955H133.653C132.3 50.2955 131.113 50.3986 130.354 51.0914L129.459 51.9161C129.304 52.0631 129.14 52.2008 128.968 52.3285C128.705 52.5123 128.39 52.605 128.069 52.5924C127.571 52.5756 127.082 52.4489 126.638 52.2213C126.46 52.1326 126.289 52.0291 126.127 51.912C124.857 51.0336 123.908 49.8253 123.768 48.6831C123.707 48.3398 123.752 47.986 123.896 47.6686L124.003 47.4624C125.438 44.6211 127.892 43.9077 130.915 43.5654L131.661 43.4788C132.758 43.351 134.003 43.0211 134.449 42.2417C134.841 41.5737 134.552 40.4891 133.393 39.6973C132.682 39.1536 131.814 38.8529 130.919 38.8396C130.214 38.875 129.512 38.9632 128.82 39.1035L128.589 39.1365C128.254 39.1907 127.914 39.2169 127.574 39.2149C126.547 39.2322 125.532 38.9867 124.626 38.5014C123.137 37.6354 122.366 35.9447 123.038 34.4065C123.244 33.9323 123.552 33.5097 123.941 33.1694C125.319 31.9568 127.096 31.296 128.931 31.3137ZM122.923 52.5924C123.157 52.5933 123.39 52.6168 123.62 52.6625C124.212 52.7681 124.775 53.0002 125.269 53.3429C126.696 54.3244 127.521 56.0894 126.667 57.5121C126.44 57.9338 126.102 58.285 125.689 58.5272C125.276 58.7694 124.804 58.8933 124.325 58.8853C123.343 58.8364 122.396 58.5041 121.599 57.9286C120.581 57.244 119.682 55.5327 120.399 54.11C120.632 53.6389 120.996 53.2452 121.447 52.976C121.899 52.7068 122.418 52.5736 122.943 52.5924M128.931 29.6642C126.692 29.6295 124.52 30.4275 122.836 31.9034C122.271 32.4022 121.822 33.0187 121.521 33.7096C120.539 35.9571 121.496 38.555 123.793 39.8953C124.95 40.5276 126.252 40.85 127.57 40.8314C127.996 40.8325 128.42 40.7994 128.84 40.7324H128.919L129.063 40.7077L129.57 40.6252C130.014 40.537 130.463 40.4833 130.915 40.4644C131.481 40.4745 132.027 40.6749 132.465 41.0334C132.635 41.1414 132.782 41.2815 132.898 41.4458C132.448 41.6423 131.969 41.7621 131.48 41.8005L130.717 41.8912C127.55 42.25 124.358 43.0788 122.535 46.6789L122.482 46.782L122.428 46.8892C122.133 47.5029 122.031 48.1916 122.135 48.8645C122.243 49.6008 122.51 50.3045 122.919 50.9264C122.092 50.9141 121.279 51.1355 120.573 51.5653C119.866 51.995 119.296 52.6155 118.927 53.3553C117.822 55.545 118.976 58.1348 120.679 59.2812C121.748 60.0397 123.015 60.4697 124.325 60.5183C125.069 60.5206 125.802 60.3303 126.451 59.966C127.1 59.6017 127.644 59.0757 128.03 58.4391C128.416 57.8025 128.631 57.0769 128.654 56.3329C128.676 55.5888 128.506 54.8514 128.16 54.1924C128.774 54.1871 129.372 54.0006 129.88 53.6563C130.051 53.5466 130.211 53.4209 130.358 53.2811C130.396 53.2447 130.436 53.2103 130.478 53.178L130.531 53.1367L130.581 53.0914C130.931 52.7656 131.109 52.6048 131.467 52.2666C131.826 51.9285 133.117 51.8955 133.661 51.8955H135.356C137.166 51.8955 140.927 51.8955 143.216 48.2872C146.668 42.8603 142.288 36.0849 138.078 33.0292C136.333 31.7962 132.836 29.6642 128.931 29.6642Z" fill="#45413C"/>
</svg>
