<svg width="155" height="155" viewBox="0 0 155 155" fill="none" xmlns="http://www.w3.org/2000/svg">
<path d="M46.642 87.3971L41.2109 86.8157C42.2213 95.8261 45.1409 106.338 49.541 117.472L56.5514 111.142C52.4895 104.214 48.943 96.5354 46.642 87.3971Z" fill="#DEA47A" stroke="#45413C" stroke-width="2.42" stroke-linecap="round" stroke-linejoin="round"/>
<path d="M47.3672 111.727C50.0992 111.072 52.6108 109.71 54.6498 107.777" stroke="#45413C" stroke-width="2.42" stroke-linecap="round" stroke-linejoin="round"/>
<path d="M43.9696 83.7804C45.483 79.5948 46.5841 75.6029 46.4975 72.1843C44.848 72.1843 44.1057 73.372 43.3923 74.0606C43.8047 71.3884 43.4954 68.2296 42.6912 65.0543C41.619 65.5203 41.2768 66.6749 40.9221 67.9616C39.953 65.0295 39.8252 63.1202 37.6561 60.2625C37.3592 63.4295 36.8891 65.6687 37.6561 67.809C36.3942 66.6955 35.0829 66.6997 33.7344 67.0255C34.8148 70.3245 36.3736 73.141 38.6829 75.273C37.3633 74.4112 35.8334 74.3246 34.1468 74.7864C35.8004 78.6029 38.0451 82.135 40.7984 85.2526L43.9696 83.7804Z" fill="#46B000" stroke="#45413C" stroke-width="2.42" stroke-linecap="round" stroke-linejoin="round"/>
<path d="M41.7579 82.498C41.3374 78.2127 40.6195 73.9618 39.6094 69.7761" stroke="#45413C" stroke-width="2.42" stroke-linecap="round" stroke-linejoin="round"/>
<path d="M41.0014 81.8217C38.0735 78.3907 35.1332 75.5 32.1765 74.168C31.4878 76.0072 32.1765 77.3309 32.461 78.4113C30.3579 76.8278 27.5125 75.867 24.4732 75.434C24.4155 76.8278 25.2526 77.6897 26.2052 78.6217C23.2856 78.4773 19.9701 79.067 16.4648 80.0031C19.6195 81.2403 22.5309 82.1557 24.6877 82.1805C23.2031 83.1207 22.6505 84.5846 22.3577 86.2218C25.6196 86.3867 28.7001 85.8094 31.4919 84.1599C30.197 85.2692 29.4754 86.9352 29.1578 88.993C33.0301 88.8115 36.9518 87.7311 40.9106 85.9785L41.0014 81.8217Z" fill="#6DD627" stroke="#45413C" stroke-width="2.42" stroke-linecap="round" stroke-linejoin="round"/>
<path d="M40.9633 83.8176C35.1901 81.9001 30.2415 80.8238 25.293 80.4114" stroke="#45413C" stroke-width="2.42" stroke-linecap="round" stroke-linejoin="round"/>
<path d="M42.6211 83.5248C42.9551 78.0443 43.7139 73.0463 45.6892 69.4503C47.7923 70.5555 48.1057 72.3081 48.6459 73.5205C49.5573 70.3823 51.6893 67.2235 54.444 64.3574C55.5657 65.5946 55.3801 67.0338 55.1327 68.6462C57.9698 66.1719 61.7761 64.0069 66.0359 62.0151C63.7802 65.6688 61.5493 68.8771 59.3884 70.6421C61.607 70.2916 62.4235 70.5266 63.974 71.772C60.7987 74.5638 57.3512 77.5453 53.2522 78.2917C55.4089 78.2463 57.1244 78.069 59.0255 79.6773C54.9759 82.6464 51.248 85.5908 45.9036 87.2115L42.6211 83.5248Z" fill="#6DD627" stroke="#45413C" stroke-width="2.42" stroke-linecap="round" stroke-linejoin="round"/>
<path d="M44.6867 84.7538C48.0847 79.3929 52.1426 74.8567 57.0581 70.436M42.0352 92.3704C44.005 92.5762 45.9944 92.2664 47.8085 91.4715M43.796 100.28C46.0364 100.029 48.1871 99.2581 50.0765 98.0283M46.2991 108.647C48.8375 107.925 51.1755 106.628 53.1323 104.857" stroke="#45413C" stroke-width="2.42" stroke-linecap="round" stroke-linejoin="round"/>
<path d="M38.2857 86.4177C38.4855 87.2639 38.9641 88.0077 39.6164 88.4855C40.2687 88.9632 41.0412 89.1358 41.764 88.9652C42.4868 88.7946 43.1006 88.2948 43.4704 87.5758C43.8402 86.8568 43.9358 85.9775 43.7361 85.1313C43.6372 84.7122 43.4688 84.314 43.2404 83.9592C43.0121 83.6044 42.7284 83.3 42.4054 83.0635C42.0824 82.8269 41.7265 82.6628 41.358 82.5805C40.9895 82.4981 40.6157 82.4993 40.2578 82.5837C39.8999 82.6682 39.5651 82.8344 39.2723 83.0727C38.9795 83.3111 38.7345 83.6171 38.5514 83.9731C38.3683 84.3291 38.2506 84.7282 38.205 85.1477C38.1594 85.5671 38.1868 85.9986 38.2857 86.4177Z" fill="#915E3A" stroke="#45413C" stroke-width="2.42" stroke-linecap="round" stroke-linejoin="round"/>
<path d="M43.5819 86.9821C43.6879 87.4311 43.8685 87.8579 44.1135 88.2381C44.3585 88.6183 44.6629 88.9444 45.0096 89.1978C45.3562 89.4512 45.7382 89.6269 46.1337 89.715C46.5293 89.8031 46.9306 89.8017 47.3149 89.711C47.6991 89.6203 48.0587 89.4421 48.3731 89.1865C48.6875 88.9308 48.9506 88.6028 49.1474 88.2212C49.3441 87.8395 49.4706 87.4117 49.5198 86.9621C49.5689 86.5125 49.5396 86.05 49.4336 85.601C49.3276 85.1519 49.147 84.7251 48.9021 84.3449C48.6571 83.9648 48.3526 83.6387 48.006 83.3853C47.6593 83.1319 47.2774 82.9561 46.8818 82.868C46.4863 82.78 46.0849 82.7813 45.7007 82.872C45.3165 82.9627 44.9569 83.1409 44.6425 83.3966C44.328 83.6522 44.0649 83.9802 43.8682 84.3619C43.6715 84.7435 43.5449 85.1714 43.4958 85.6209C43.4467 86.0705 43.4759 86.533 43.5819 86.9821Z" fill="#915E3A" stroke="#45413C" stroke-width="2.42" stroke-linecap="round" stroke-linejoin="round"/>
<path d="M42.7695 96.057C44.8676 96.0643 46.9377 95.5753 48.8109 94.6301M44.9221 104.329C47.327 103.987 49.611 103.059 51.5738 101.628" stroke="#45413C" stroke-width="2.42" stroke-linecap="round" stroke-linejoin="round"/>
<path d="M116.538 132.008C117.325 129.836 117.728 127.543 117.73 125.233C117.73 110.037 100.291 97.7148 78.7809 97.7148C57.2713 97.7148 39.8359 110.037 39.8359 125.233C39.8384 127.543 40.2402 129.835 41.0236 132.008H116.538Z" fill="#FFE9BD" stroke="#45413C" stroke-width="2.42" stroke-linejoin="round"/>
<path d="M66.3906 115.909C66.3906 116.729 67.5202 117.516 69.531 118.096C71.5417 118.676 74.2689 119.002 77.1125 119.002C79.9561 119.002 82.6832 118.676 84.6939 118.096C86.7047 117.516 87.8343 116.729 87.8343 115.909C87.8343 115.089 86.7047 114.302 84.6939 113.722C82.6832 113.142 79.9561 112.816 77.1125 112.816C74.2689 112.816 71.5417 113.142 69.531 113.722C67.5202 114.302 66.3906 115.089 66.3906 115.909Z" fill="#DEBB7E"/>
<path d="M129.665 132.833C134.324 132.833 138.23 129.711 138.675 125.625C138.762 124.8 138.762 124.363 138.762 124.363C134.172 124.363 133.058 121.431 129.895 121.431C126.733 121.431 125.623 124.363 121.033 124.363C116.444 124.363 115.33 121.431 112.167 121.431C109.004 121.431 107.891 124.363 103.301 124.363C98.7114 124.363 97.6021 121.431 94.435 121.431C91.268 121.431 90.1628 124.363 85.573 124.363C80.9833 124.363 79.8698 121.431 76.7069 121.431C73.5439 121.431 72.4305 124.363 67.8408 124.363C63.251 124.363 62.1417 121.431 58.9787 121.431C55.8158 121.431 54.7024 124.363 50.1126 124.363C45.5228 124.363 44.4094 121.431 41.2465 121.431C38.0835 121.431 36.9701 124.363 32.3803 124.363C27.7906 124.363 26.6813 121.431 23.5183 121.431C20.3554 121.431 19.242 124.363 14.6522 124.363V124.54C14.6174 125.639 14.8251 126.731 15.2606 127.741C15.6961 128.75 16.3486 129.651 17.1718 130.379C18.9669 131.978 21.292 132.852 23.6957 132.833H129.665Z" fill="#4ACFFF"/>
<path d="M138.762 124.363C134.172 124.363 133.059 121.431 129.896 121.431C126.733 121.431 125.623 124.363 121.034 124.363C116.444 124.363 115.33 121.431 112.167 121.431C109.005 121.431 107.891 124.363 103.301 124.363C98.7116 124.363 97.6023 121.431 94.4352 121.431C91.2681 121.431 90.163 124.363 85.5732 124.363C80.9834 124.363 79.87 121.431 76.707 121.431C73.5441 121.431 72.4307 124.363 67.8409 124.363C63.2511 124.363 62.1418 121.431 58.9789 121.431C55.816 121.431 54.7025 124.363 50.1128 124.363C45.523 124.363 44.4096 121.431 41.2466 121.431C38.0837 121.431 36.9703 124.363 32.3805 124.363C27.7907 124.363 26.6814 121.431 23.5185 121.431C20.3555 121.431 19.2421 124.363 14.6523 124.363" stroke="#45413C" stroke-width="2.42" stroke-linecap="round" stroke-linejoin="round"/>
<path d="M96.3343 65.0544C95.6142 61.373 93.9341 57.9472 91.4641 55.124C88.9941 52.3009 85.8219 50.1805 82.2688 48.9777C78.7157 47.7749 74.9078 47.5324 71.2308 48.2747C67.5538 49.017 64.1383 50.7178 61.3301 53.2048C58.5218 55.6918 56.4207 58.8767 55.2394 62.4371C54.0581 65.9974 53.8385 69.8066 54.603 73.4791C55.3675 77.1515 57.0889 80.5567 59.5928 83.3499C62.0967 86.143 65.2943 88.2249 68.8617 89.3847C68.639 95.9827 68.0616 116.532 69.4431 116.532C71.0926 116.532 73.2164 109.901 73.2164 109.901H81.567C81.567 109.901 82.8701 116.532 84.8661 116.532C86.1815 116.532 85.5795 103.5 85.0063 94.4941C90.5651 94.8033 94.0126 85.962 93.7652 79.9536C96.4239 75.4718 97.3385 70.1677 96.3343 65.0544ZM83.9877 88.6589C84.4991 88.4392 85.0013 88.1984 85.4929 87.9372C85.3234 88.1749 85.0964 88.3657 84.8332 88.4919C84.57 88.6181 84.2791 88.6756 83.9877 88.6589Z" fill="white" stroke="#45413C" stroke-width="2.42" stroke-linecap="round" stroke-linejoin="round"/>
<path d="M86.078 77.6772C85.4801 75.1329 83.8347 73.339 82.4079 73.6772C80.9811 74.0153 80.3006 76.3453 80.8945 78.8938L86.078 77.6772Z" fill="#FFA694" stroke="#45413C" stroke-width="2.42" stroke-linecap="round" stroke-linejoin="round"/>
<path d="M100.779 62.0771C97.6859 61.9369 95.4178 60.774 93.793 58.3657C91.741 58.2892 89.7237 58.9111 88.071 60.1298C86.4182 61.3485 85.2278 63.0918 84.6943 65.0748C84.1608 67.0577 84.3159 69.163 85.134 71.0465C85.9522 72.9299 87.3852 74.48 89.1986 75.4435C91.012 76.4069 93.0986 76.7267 95.1174 76.3505C97.1361 75.9742 98.9674 74.9243 100.312 73.3723C101.657 71.8202 102.435 69.858 102.52 67.8062C102.605 65.7545 101.991 63.7347 100.779 62.0771Z" fill="white" stroke="#45413C" stroke-width="2.42" stroke-linecap="round" stroke-linejoin="round"/>
<path d="M95.6328 65.5989C95.6328 65.881 95.7449 66.1516 95.9444 66.3512C96.144 66.5507 96.4146 66.6628 96.6967 66.6628C96.9789 66.6628 97.2495 66.5507 97.4491 66.3512C97.6486 66.1516 97.7607 65.881 97.7607 65.5989C97.7607 65.3167 97.6486 65.0461 97.4491 64.8465C97.2495 64.647 96.9789 64.5349 96.6967 64.5349C96.4146 64.5349 96.144 64.647 95.9444 64.8465C95.7449 65.0461 95.6328 65.3167 95.6328 65.5989Z" fill="#45413C"/>
<path d="M77.8085 70.4896C77.517 68.9905 76.8501 67.5899 75.8702 66.4186C74.8903 65.2473 73.6294 64.3436 72.2053 63.792C70.7813 63.2404 69.2406 63.059 67.7274 63.2646C66.2141 63.4703 64.7778 64.0563 63.5525 64.9679C63.6886 67.9576 62.4721 70.304 59.8906 72.3164C59.9029 73.5739 60.1774 74.8149 60.6964 75.9604C61.2154 77.1058 61.9675 78.1304 62.9049 78.9687C63.8422 79.807 64.944 80.4406 66.14 80.8291C67.336 81.2175 68.5999 81.3523 69.8509 81.2247C71.102 81.0972 72.3126 80.7101 73.4056 80.0883C74.4986 79.4665 75.4499 78.6235 76.1988 77.6133C76.9476 76.603 77.4776 75.4477 77.7547 74.2212C78.0319 72.9946 78.0502 71.7237 77.8085 70.4896Z" fill="white" stroke="#45413C" stroke-width="2.42" stroke-linecap="round" stroke-linejoin="round"/>
<path d="M71.0898 70.4153C71.0898 70.6974 71.2019 70.968 71.4015 71.1676C71.601 71.3671 71.8716 71.4792 72.1538 71.4792C72.436 71.4792 72.7066 71.3671 72.9061 71.1676C73.1056 70.968 73.2177 70.6974 73.2177 70.4153C73.2177 70.1331 73.1056 69.8625 72.9061 69.6629C72.7066 69.4634 72.436 69.3513 72.1538 69.3513C71.8716 69.3513 71.601 69.4634 71.4015 69.6629C71.2019 69.8625 71.0898 70.1331 71.0898 70.4153Z" fill="#45413C"/>
<path d="M63.3328 63.174C64.2071 67.5287 62.6565 70.5968 58.6523 73.1907M92.9292 56.8811C94.8509 60.8894 97.9438 62.4152 102.69 62.0688" stroke="#45413C" stroke-width="2.42" stroke-linecap="round" stroke-linejoin="round"/>
<path d="M72.1367 90.1889C76.4626 90.4198 74.1038 76.3742 78.2399 76.1062C85.2875 75.6567 81.5967 96.8571 72.9574 96.0158M83.9885 88.659C88.3143 88.8858 85.9514 74.8402 90.0917 74.5763C97.0774 74.1268 93.5103 94.9684 85.0235 94.4983" fill="white"/>
<path d="M72.1367 90.1889C76.4626 90.4198 74.1038 76.3742 78.2399 76.1062C85.2875 75.6567 81.5967 96.8571 72.9574 96.0158M83.9885 88.659C88.3143 88.8858 85.9514 74.8402 90.0917 74.5763C97.0774 74.1268 93.5103 94.9684 85.0235 94.4983" stroke="#45413C" stroke-width="2.42" stroke-linecap="round" stroke-linejoin="round"/>
<path d="M47.7799 53.6232C46.6005 53.6232 45.2768 52.9428 43.7303 51.5613C42.287 50.1945 40.9981 48.6734 39.887 47.0252C38.966 45.6436 38.1301 44.2073 37.3838 42.7241C36.5591 41.0745 36.4147 40.2787 36.4024 39.8374C36.1426 37.8869 37.7921 36.1837 38.8272 35.4744C39.6057 34.8887 40.5426 34.551 41.5159 34.5054C42.0912 34.5069 42.6544 34.6706 43.1409 34.9777C43.6274 35.2847 44.0175 35.7228 44.2664 36.2415L45.4417 38.4106C45.7922 39.058 45.9572 39.1982 46.0067 39.2353C46.1502 39.1896 46.2884 39.1288 46.419 39.0539C47.3758 38.4931 47.417 38.3034 47.4211 38.2951C47.4706 37.9776 46.9593 36.8642 46.7407 36.3899L46.4891 35.8497C46.2237 35.305 46.0709 34.7124 46.0397 34.1073C46.0085 33.5022 46.0997 32.8971 46.3077 32.328C46.5738 31.669 46.9693 31.0701 47.4708 30.5665C47.9722 30.0629 48.5695 29.6649 49.2273 29.396C49.9637 29.0263 50.771 28.8195 51.5944 28.7898C53.0583 28.7898 54.2047 29.6146 55.0006 31.2641C55.3692 32.0708 55.6941 32.8967 55.9738 33.7383C57.0337 36.8271 58.4811 42.0271 58.943 44.8519C59.376 47.4953 58.143 48.6623 57.0337 49.1737C56.3941 49.5028 55.6905 49.6886 54.9718 49.718C54.5069 49.7198 54.0487 49.6081 53.6369 49.3925C53.2251 49.1769 52.8722 48.8639 52.6088 48.4809C51.8835 47.4005 51.253 46.2595 50.7243 45.0705C50.6029 44.8131 50.4651 44.5638 50.3119 44.3241C50.2253 44.3653 50.1016 44.4272 49.8995 44.5303C49.6274 44.6695 49.3751 44.8442 49.149 45.0499C49.1729 45.1186 49.2033 45.1848 49.2397 45.2478C49.4995 45.7303 49.7552 46.1179 49.9985 46.4849C50.2418 46.852 50.448 47.1654 50.6459 47.5324C51.8459 49.7757 51.5696 51.85 49.9325 52.951C49.302 53.3754 48.5605 53.6049 47.8005 53.6108L47.7799 53.6232Z" fill="#EDF2F4"/>
<path d="M51.5934 30.0104C52.5419 30.0104 53.28 30.5424 53.8821 31.796C54.2384 32.5584 54.5509 33.3404 54.8182 34.1383C56.0233 37.7069 56.9877 41.3523 57.7049 45.0499C57.9152 46.3406 57.7461 47.4705 56.4966 48.0479C56.0129 48.2925 55.4833 48.433 54.9419 48.4602C54.6723 48.463 54.4063 48.3984 54.168 48.2724C53.9296 48.1464 53.7265 47.9629 53.5769 47.7386C52.9 46.7268 52.3109 45.659 51.8161 44.5468C51.3171 43.4581 50.9583 43.0168 50.447 43.0168C50.0371 43.0594 49.6437 43.201 49.3006 43.4292C48.0964 44.1179 47.5562 44.687 48.1624 45.8128C48.6903 46.7901 49.1934 47.4046 49.5645 48.0973C50.2944 49.4623 50.5047 51.0623 49.2552 51.8995C48.8239 52.1912 48.3161 52.349 47.7954 52.3531H47.7624C46.8139 52.3531 45.6469 51.5943 44.5417 50.5964C43.1701 49.2943 41.9462 47.8449 40.8922 46.2746C40.0028 44.9395 39.1958 43.5514 38.4756 42.1179C37.9602 41.0704 37.6055 40.1426 37.622 39.6848C37.3952 38.3735 38.653 37.0209 39.5107 36.4353C40.0829 35.9907 40.7753 35.7279 41.4984 35.6806C41.8479 35.6864 42.1885 35.7915 42.4806 35.9835C42.7726 36.1755 43.0041 36.4466 43.1479 36.7652L44.3232 38.9384C44.7809 39.7838 45.2304 40.3941 45.9479 40.3941C46.3225 40.3745 46.6852 40.2564 46.9995 40.0518C49.016 38.8766 48.9707 38.3034 47.8243 35.8043L47.5851 35.2848C46.7315 33.4291 47.5026 31.4826 49.713 30.4723C50.2891 30.1768 50.9219 30.0081 51.5687 29.9774M51.5687 27.5032C50.5659 27.5311 49.5811 27.7759 48.682 28.2207C47.878 28.5593 47.1491 29.0541 46.5375 29.6763C45.9259 30.2985 45.4438 31.0358 45.1191 31.8455C44.7588 32.8195 44.6746 33.8742 44.8758 34.893C44.4814 34.367 43.9695 33.9405 43.3809 33.6476C42.7924 33.3547 42.1434 33.2036 41.486 33.2064C40.2633 33.2505 39.0827 33.6647 38.1004 34.394C36.5375 35.4621 34.8632 37.5157 35.1395 39.8663C35.1601 40.4931 35.3663 41.4292 36.2447 43.2107C37.0133 44.7469 37.8783 46.2331 38.8344 47.6602C39.9988 49.3957 41.3528 50.9959 42.8716 52.4314C44.6531 54.0438 46.249 54.8274 47.75 54.8274H47.8284C48.8238 54.815 49.794 54.5126 50.6202 53.9572C51.2408 53.5499 51.7491 52.9931 52.0985 52.3382C52.448 51.6833 52.6274 50.951 52.6202 50.2087C53.2994 50.6756 54.1054 50.9231 54.9295 50.918C55.83 50.8887 56.7134 50.6651 57.5193 50.2623C58.7564 49.6933 60.7235 48.2004 60.1338 44.6128C59.643 41.6354 58.1832 36.4229 57.111 33.3012C56.8202 32.4104 56.4773 31.5374 56.0842 30.6867C54.8141 28.0558 52.9254 27.5032 51.548 27.5032H51.5687Z" fill="#45413C"/>
<path d="M64.4066 46.1592C62.8767 46.1592 61.6437 45.8458 60.7364 45.2231C58.5178 43.7055 57.1199 39.8621 56.6126 38.2951C55.4745 34.7033 55.2229 29.9651 57.9281 27.4537C59.2189 26.266 62.0148 24.7938 65.3509 24.1835C66.1667 24.0285 66.9949 23.9484 67.8252 23.9443C72.1346 23.9443 72.7737 26.2743 72.8686 27.2722C72.9259 27.669 72.9006 28.0733 72.7944 28.4599C72.2047 30.3197 69.7964 30.7939 67.4706 31.2517C66.452 31.4496 64.7736 31.7795 64.3942 32.1465L64.7241 32.0764C65.6393 31.8639 66.5728 31.7396 67.5118 31.7053C69.85 31.7053 70.283 33.161 70.3613 33.7672C70.7449 36.794 68.1139 37.8126 66.1097 38.4353H66.1674C66.3736 38.4353 67.1159 38.3116 67.6066 38.2209C68.0974 38.1302 68.5139 38.0188 68.984 37.8951C69.6356 37.7093 70.2999 37.5714 70.9717 37.4827C71.0975 37.4664 71.2242 37.4581 71.351 37.458C72.0965 37.4554 72.8149 37.7372 73.3597 38.246C73.9045 38.7548 74.2348 39.4523 74.2831 40.1962C74.5923 44.3818 69.5036 45.421 67.8335 45.7592C66.707 46.0041 65.5592 46.1381 64.4066 46.1592Z" fill="#EDF2F4"/>
<path d="M67.8589 25.1775C69.83 25.1775 71.5373 25.7507 71.6692 27.3672C71.7042 27.5982 71.7042 27.8331 71.6692 28.0641C70.9517 30.427 63.4217 29.6641 63.2031 31.9776C63.1927 32.2841 63.2232 32.5905 63.2938 32.8889C63.3422 33.1421 63.4169 33.3894 63.5165 33.6271C64.1186 33.4786 64.4196 33.4127 65.0258 33.2807C65.8562 33.0896 66.7024 32.9751 67.5537 32.9384C68.4568 32.9384 69.0878 33.19 69.2032 33.9364C69.5331 36.5591 66.4898 36.9839 64.3083 37.7385L64.3825 38.089C64.5475 38.8643 65.0052 39.6849 66.1599 39.6849H66.3042C66.6052 39.6849 67.6032 39.5076 67.896 39.454C69.063 39.2437 70.0898 38.8396 71.195 38.7117C71.2733 38.7076 71.3518 38.7076 71.4301 38.7117C71.8627 38.7109 72.2793 38.8751 72.5951 39.1709C72.9108 39.4667 73.1018 39.8717 73.1291 40.3035C73.3394 43.1654 69.9166 44.1056 67.665 44.5634C66.6095 44.7959 65.5333 44.9216 64.4526 44.9386C63.4137 44.9988 62.3803 44.7491 61.4835 44.2211C60.0031 43.2066 58.6711 40.5509 57.8463 37.9406C56.7989 34.6415 56.6092 30.4477 58.8237 28.3775C59.9701 27.3177 62.6134 25.9692 65.6361 25.4166C66.3842 25.2767 67.1432 25.2036 67.9042 25.1981M67.9042 22.7238C66.9937 22.7277 66.0855 22.8147 65.1908 22.9836C61.599 23.6393 58.5639 25.2517 57.1453 26.5631C55.6442 27.9528 54.7782 30.0229 54.6339 32.5508C54.5547 34.6305 54.8437 36.7079 55.4875 38.687C56.1556 40.7984 57.6401 44.5881 60.0855 46.2624C61.199 47.0253 62.6711 47.4129 64.4526 47.4129C65.7003 47.3984 66.9435 47.2602 68.164 47.0005C69.7058 46.7364 71.1946 46.2238 72.5723 45.483C74.6878 44.2458 75.7642 42.3448 75.5992 40.1221C75.5309 39.0657 75.0617 38.0753 74.2876 37.3532C73.5134 36.6312 72.4928 36.2321 71.4342 36.2375H71.3311C71.68 35.4204 71.7984 34.5232 71.6734 33.6436C71.5777 32.9264 71.2622 32.2566 70.7703 31.726C72.2507 31.2106 73.5084 30.3941 74.0033 28.8394C74.1637 28.2966 74.2086 27.7263 74.1353 27.1651C74.0528 26.1136 73.3476 22.6949 67.8589 22.6949L67.9042 22.7238Z" fill="#45413C"/>
<path d="M83.633 45.0499C83.0721 45.0499 82.4824 45.0004 81.8515 44.9468L81.4886 44.9179L80.7422 44.8437C80.6267 44.8437 80.5401 44.8189 80.4576 44.8148C77.2081 44.5344 74.1194 43.7302 73.3317 39.7879C72.9721 37.9837 72.7393 36.1565 72.6348 34.3198C72.4488 31.5147 72.558 28.6978 72.9606 25.9155C73.3029 23.7711 75.9009 23.1938 77.2287 23.1855H77.3359C78.7628 23.1855 82.103 23.1855 82.2845 26.831V26.9506C82.2804 27.022 82.2804 27.0936 82.2845 27.165V27.6351C82.2597 27.965 82.1979 28.6248 82.1072 29.5362C81.9257 31.3506 81.6535 34.0723 81.5793 35.8579V36.5095C81.9505 36.5672 82.3257 36.6085 82.7092 36.6497C83.9439 36.7231 85.1565 37.0106 86.2928 37.4992C87.7031 38.192 88.2887 39.3467 88.0413 40.9343C87.5959 43.7838 86.2392 45.0499 83.633 45.0499Z" fill="#EDF2F4"/>
<path d="M77.3245 24.4228C79.3451 24.4228 80.9245 24.7114 81.0359 26.897V27.5568C80.974 28.5342 80.4462 33.1652 80.3307 35.8044C80.2778 36.3866 80.3028 36.9732 80.4049 37.5488C82.3143 38.0065 84.0586 37.8044 85.7659 38.6251C86.6731 39.0704 87.003 39.6931 86.8257 40.7529C86.4133 43.3014 85.3123 43.8128 83.6421 43.8128C83.0318 43.8128 82.3473 43.7427 81.6008 43.6808C81.0318 43.6355 80.7761 43.5942 80.5452 43.5777C77.341 43.3014 75.1595 42.5715 74.5533 39.5447C74.204 37.7979 73.9793 36.0284 73.8811 34.2497C73.6944 31.5334 73.7939 28.8049 74.178 26.1094C74.3925 24.7692 76.4296 24.4269 77.2296 24.4228H77.3327M77.3327 21.9485H77.2173C74.8667 21.9485 72.1491 23.1444 71.7368 25.7176C71.3181 28.5843 71.2089 31.4876 71.411 34.3776C71.5182 36.277 71.7608 38.1664 72.1368 40.0313C73.2172 45.4293 78.207 45.8623 80.339 46.0438H80.3843L80.6111 46.0685C80.8008 46.0685 81.0235 46.118 81.3905 46.1427L81.7493 46.1757C82.405 46.2293 83.0236 46.2829 83.6339 46.2829C86.8381 46.2829 88.7309 44.5509 89.2628 41.1323C89.5969 39.0045 88.735 37.3261 86.8463 36.3982C85.5812 35.8399 84.2266 35.5118 82.8462 35.4291C82.9411 33.7013 83.1803 31.3054 83.3411 29.6558C83.4359 28.7321 83.5019 28.0641 83.5225 27.7135C83.5327 27.5157 83.5327 27.3175 83.5225 27.1197V26.7774C83.4029 24.2413 81.9307 23.1031 81.0483 22.6537C79.873 22.0392 78.5121 21.9567 77.3369 21.9567L77.3327 21.9485Z" fill="#45413C"/>
<path d="M90.6944 46.5179C90.2386 46.5198 89.7844 46.4658 89.3418 46.3571C87.5562 45.9076 86.4139 44.6416 86.4964 43.2106C86.6808 40.6294 87.0085 38.0605 87.4778 35.5156C87.5851 34.8888 87.6882 34.2043 87.7954 33.4991C88.2325 30.6125 88.649 27.8413 89.6387 26.4887C90.1377 25.8083 91.148 25.4907 92.8223 25.4907C94.4886 25.5045 96.1441 25.7587 97.7378 26.2454C101.833 27.5237 105.053 29.9898 106.344 32.8434C106.766 33.7554 106.984 34.7481 106.984 35.7528C106.984 36.7575 106.766 37.7502 106.344 38.6621C104.996 41.6889 102.22 43.355 98.5584 43.355C97.2135 43.3448 95.8761 43.152 94.5831 42.7817C94.5831 42.8024 94.5831 42.8189 94.5625 42.8354C94.2892 43.6967 93.9242 44.5262 93.4738 45.3096C92.9831 46.0973 92.0016 46.5179 90.6944 46.5179ZM96.377 35.9074C96.6085 35.9683 96.8468 36.0002 97.0863 36.0022C97.8244 36.0022 98.3935 35.6723 98.5749 35.1486C98.6238 35.0064 98.6438 34.8558 98.6339 34.7057C98.624 34.5556 98.5843 34.409 98.5172 34.2744C98.2655 33.8328 97.8511 33.5072 97.3625 33.3671C97.2734 33.337 97.1825 33.3122 97.0904 33.2929L96.377 35.9074Z" fill="#EDF2F4"/>
<path d="M92.8187 26.7281C94.356 26.746 95.8831 26.9806 97.3549 27.425C102.67 29.0745 107.355 33.3096 105.19 38.1468C103.932 40.9716 101.413 42.1057 98.5343 42.1057C97.0417 42.0839 95.5616 41.8307 94.1466 41.3551L93.8043 41.2479C93.3054 42.485 93.0043 43.6768 92.3981 44.6583C92.1342 45.0707 91.4208 45.2645 90.6785 45.2645C90.3242 45.2665 89.9711 45.2249 89.6269 45.1408C88.5919 44.881 87.6599 44.1799 87.7135 43.2644C87.8961 40.7304 88.2182 38.2083 88.6785 35.7097C89.1857 32.7818 89.5857 28.6168 90.6208 27.2023C90.8641 26.8724 91.7094 26.7116 92.8064 26.7116M97.0704 37.2231C98.3735 37.2231 99.3838 36.5468 99.7302 35.5324C100.176 34.2375 99.458 32.7653 97.7467 32.1797C97.3594 32.0496 96.955 31.9774 96.5466 31.9653C96.4066 31.9617 96.2671 31.9826 96.1343 32.0271L94.9384 36.4684C95.1365 36.7262 95.4105 36.9152 95.7219 37.0087C96.1605 37.157 96.6198 37.235 97.0827 37.2396M92.8187 24.2538C91.495 24.2538 89.6228 24.4105 88.6372 25.759C87.5485 27.2477 87.1114 29.7178 86.5753 33.3138C86.4681 34.023 86.365 34.6952 86.2619 35.3055C85.7873 37.8972 85.4542 40.5128 85.264 43.1407C85.1485 45.182 86.6661 46.9594 89.0414 47.5573C89.5815 47.6881 90.1352 47.7545 90.6909 47.7552C92.4476 47.7552 93.8043 47.1243 94.5136 45.9779C94.8395 45.4277 95.1155 44.8494 95.3384 44.25C96.3889 44.4756 97.4599 44.5917 98.5343 44.5964C102.724 44.5964 105.891 42.6706 107.45 39.1695C107.946 38.0988 108.203 36.933 108.203 35.753C108.203 34.573 107.946 33.4071 107.45 32.3364C106.015 29.1652 102.501 26.4435 98.0848 25.0621C96.3721 24.5377 94.5933 24.26 92.8022 24.2373L92.8187 24.2538Z" fill="#45413C"/>
<path d="M107.002 53.8461C106.034 53.8097 105.096 53.4994 104.297 52.9512C103.027 52.1265 102.165 50.2543 102.986 48.679C103.242 48.188 103.623 47.7725 104.089 47.4738C104.556 47.175 105.092 47.0034 105.646 46.9758C104.697 44.6583 105.819 42.0809 106.969 39.8252C107.254 39.2644 107.572 38.6829 107.901 38.0767C108.231 37.4705 108.578 36.8396 108.916 36.1674L109.37 35.1158V35.0787C109.427 34.9715 109.506 34.7983 109.58 34.6292C109.654 34.4602 109.761 34.2169 109.819 34.1179L109.943 33.8746C110.118 33.5331 110.351 33.2247 110.631 32.9632L110.743 32.8601L110.875 32.7859C111.253 32.5765 111.68 32.4699 112.112 32.4766C113.123 32.5488 114.095 32.8952 114.924 33.4787C116.071 34.2158 117.071 35.1597 117.873 36.2623C118.36 36.8842 118.703 37.607 118.877 38.3781C119.05 39.1492 119.049 39.9492 118.875 40.7201C118.655 41.6227 118.267 42.4759 117.733 43.2356C115.852 46.0109 112.532 48.3697 110.953 48.9388C110.563 49.0839 110.16 49.1889 109.749 49.2522C110.027 49.7242 110.171 50.2634 110.166 50.8114C110.16 51.3595 110.004 51.8955 109.716 52.3615C109.431 52.8228 109.031 53.2021 108.555 53.4624C108.08 53.7226 107.545 53.8548 107.002 53.8461Z" fill="#EDF2F4"/>
<path d="M112.113 33.7136C112.888 33.792 113.629 34.0768 114.257 34.5383C115.268 35.185 116.151 36.0143 116.859 36.9837C117.252 37.4639 117.53 38.0271 117.673 38.6309C117.816 39.2346 117.82 39.863 117.684 40.4683C117.497 41.2171 117.172 41.9247 116.727 42.555C115.049 45.0292 111.931 47.2891 110.541 47.7881C110.072 47.9681 109.576 48.0657 109.073 48.0767C108.612 48.0883 108.159 47.9619 107.77 47.7138C107.422 47.5118 107.137 47.2179 106.945 46.8643C106.013 45.12 106.76 42.9756 108.067 40.4106C108.649 39.2724 109.35 38.0477 110.03 36.6992C110.216 36.2868 110.306 36.0683 110.488 35.6435C110.611 35.4043 110.826 34.9012 110.937 34.6827C110.987 34.5837 111.011 34.5383 111.057 34.4394C111.159 34.2254 111.299 34.0313 111.469 33.8662C111.664 33.7645 111.881 33.7134 112.1 33.7177M105.906 48.2211C106.088 48.2207 106.269 48.2387 106.446 48.2747C106.878 48.3554 107.287 48.5238 107.651 48.7695C108.698 49.4747 109.3 50.7242 108.677 51.7015C108.506 51.9893 108.26 52.2265 107.967 52.3887C107.674 52.551 107.342 52.6326 107.007 52.6253C106.277 52.5899 105.572 52.3482 104.974 51.9283C104.228 51.4459 103.568 50.2541 104.084 49.2644C104.257 48.9357 104.521 48.6631 104.844 48.4784C105.166 48.2937 105.535 48.2045 105.906 48.2211ZM112.113 31.2558C111.468 31.2497 110.832 31.4117 110.269 31.7259L110.005 31.8744L109.787 32.0847C109.407 32.4392 109.093 32.858 108.859 33.3218L108.735 33.5651C108.657 33.7218 108.566 33.9156 108.471 34.126C108.376 34.3363 108.335 34.427 108.286 34.5383L108.249 34.6084L108.22 34.6827C108.046 35.095 107.96 35.2889 107.807 35.66C107.486 36.2951 107.148 36.8971 106.826 37.5075C106.504 38.1178 106.174 38.7034 105.882 39.2848C104.747 41.5117 103.82 43.821 104.137 46.0891C103.172 46.4791 102.377 47.2017 101.898 48.1262C101.419 49.1461 101.33 50.3059 101.648 51.3869C101.966 52.4678 102.668 53.3953 103.622 53.9943C104.623 54.675 105.797 55.0556 107.007 55.0913C107.757 55.0971 108.496 54.9107 109.152 54.5497C109.809 54.1887 110.363 53.6653 110.76 53.0294C111.315 52.166 111.526 51.1253 111.35 50.1139H111.379C113.42 49.3757 116.876 46.7159 118.76 43.9282C119.384 43.0409 119.833 42.0431 120.084 40.9879C120.299 40.049 120.303 39.074 120.095 38.1334C119.888 37.1928 119.474 36.31 118.884 35.5487C117.988 34.3162 116.869 33.2629 115.585 32.4435C114.562 31.7228 113.354 31.308 112.104 31.2476L112.113 31.2558Z" fill="#45413C"/>
<path d="M47.7769 52.118C46.7171 52.118 45.4511 51.4541 44.0037 50.1468C42.5825 48.8001 41.3155 47.2994 40.2263 45.6725C39.3141 44.308 38.4877 42.8881 37.752 41.4209C36.886 39.6683 36.8118 38.9466 36.8118 38.6786C36.5644 36.9177 38.0984 35.3507 39.0592 34.695C39.7676 34.1533 40.6225 33.8372 41.5129 33.7878C42.0138 33.7909 42.5036 33.9353 42.926 34.2045C43.3484 34.4737 43.6862 34.8567 43.9006 35.3094L45.0758 37.4992C45.4635 38.2167 45.7315 38.5219 45.9748 38.5219C46.2024 38.499 46.4207 38.4196 46.6099 38.2909C48.0945 37.4249 48.1563 37.392 47.1006 35.0991L46.8614 34.5795C46.6184 34.0838 46.4782 33.544 46.4491 32.9927C46.4201 32.4413 46.5028 31.8898 46.6924 31.3712C46.9392 30.7633 47.3054 30.211 47.7693 29.7471C48.2332 29.2831 48.7855 28.9169 49.3934 28.6702C50.0777 28.3275 50.8268 28.1335 51.5914 28.1011C52.9028 28.1011 53.8925 28.8392 54.6265 30.3568C54.9869 31.1504 55.3048 31.9625 55.5791 32.7898C56.8068 36.397 57.7918 40.0823 58.5276 43.8209C58.8452 45.7385 58.2802 47.0416 56.8534 47.7014C56.2641 48.0061 55.6152 48.1778 54.9523 48.2045C54.5537 48.2072 54.1605 48.1125 53.8068 47.9285C53.4532 47.7445 53.1499 47.4768 52.9234 47.1488C52.2125 46.0921 51.5944 44.9759 51.0759 43.8127C50.6636 42.9302 50.4862 42.7817 50.4409 42.757C50.1842 42.8274 49.9405 42.9388 49.7192 43.0869C48.5646 43.7426 48.6553 43.9117 48.8945 44.3612C49.1336 44.8106 49.4223 45.2519 49.6739 45.6313C49.9254 46.0107 50.111 46.2952 50.3007 46.6457C51.3894 48.6829 51.1667 50.5551 49.7192 51.5242C49.1557 51.9071 48.4912 52.1138 47.8099 52.118H47.7769Z" fill="#EDF2F4"/>
<path d="M51.5949 28.9136C52.5434 28.9136 53.2816 29.4497 53.8836 30.6992C54.239 31.4634 54.5515 32.2468 54.8197 33.0457C56.0243 36.613 56.9886 40.2569 57.7064 43.9531C57.9167 45.248 57.7476 46.3779 56.4981 46.9552C56.0145 47.2002 55.4848 47.3407 54.9434 47.3676C54.6742 47.3711 54.4082 47.3074 54.1699 47.1821C53.9315 47.0568 53.7282 46.8739 53.5785 46.65C52.9024 45.6363 52.3133 44.5672 51.8176 43.4541C51.3186 42.3696 50.9599 41.9242 50.4485 41.9242C50.0388 41.9674 49.6455 42.1089 49.3021 42.3366C48.098 43.0252 47.5577 43.5737 48.1639 44.716C48.6918 45.6974 49.1949 46.3119 49.566 47.0047C50.2959 48.3697 50.5062 49.9697 49.2567 50.8068C48.8254 51.0985 48.3176 51.2563 47.7969 51.2604H47.7639C46.8155 51.2604 45.6484 50.5017 44.5433 49.5037C43.1705 48.2011 41.9465 46.7503 40.8937 45.1778C40.0034 43.8447 39.1963 42.4579 38.4772 41.0252C37.9617 39.9736 37.607 39.0458 37.6235 38.5922C37.3967 37.2767 38.6545 35.9282 39.5122 35.3426C40.0922 34.9043 40.7904 34.65 41.5164 34.6127C41.8662 34.6194 42.207 34.7252 42.499 34.9179C42.791 35.1107 43.0223 35.3824 43.1659 35.7014L44.3412 37.8746C44.7989 38.6994 45.2484 39.3303 45.966 39.3303C46.3401 39.3088 46.7024 39.1909 47.0175 38.9881C49.0341 37.8128 48.9887 37.2396 47.8423 34.7364L47.6031 34.2168C46.7495 32.3611 47.5206 30.4188 49.731 29.4044C50.3079 29.111 50.9402 28.9424 51.5867 28.9095M51.5867 27.26C50.703 27.2922 49.8366 27.5145 49.0464 27.9116C48.3392 28.2027 47.6975 28.6325 47.1592 29.1758C46.6209 29.719 46.1969 30.3647 45.9123 31.0745C45.689 31.6954 45.5911 32.3545 45.6244 33.0136C45.6576 33.6726 45.8214 34.3185 46.1062 34.9138L46.2711 35.2725L46.3453 35.4333C46.6004 35.9489 46.8142 36.484 46.9845 37.0334C46.7387 37.2362 46.4735 37.4144 46.1928 37.5653L46.1103 37.6107C45.9974 37.4436 45.8941 37.2701 45.801 37.0911L45.7598 37.0169L44.6257 34.922C44.3399 34.3394 43.8978 33.8477 43.3487 33.5019C42.7997 33.156 42.1653 32.9695 41.5164 32.9632C40.4599 33.0103 39.4422 33.3754 38.5968 34.0106C37.4875 34.7694 35.7101 36.6004 35.9905 38.7406C35.9905 39.2561 36.1802 40.0891 37.0173 41.784C37.7747 43.2933 38.6244 44.7546 39.5617 46.1593C40.6916 47.8375 42.0026 49.3863 43.4711 50.778C45.0958 52.2501 46.5103 52.9636 47.7969 52.9636H47.8588C48.697 52.9525 49.5138 52.6974 50.2093 52.2295C52.0114 51.0213 52.3413 48.6831 51.0341 46.2789C50.8279 45.8913 50.6217 45.5572 50.3702 45.1985C50.1186 44.8397 49.9165 44.5139 49.6856 44.0974C49.7846 44.0314 49.9289 43.9407 50.131 43.8252H50.1557C50.2052 43.9242 50.2629 44.0479 50.333 44.1964C50.8768 45.409 51.5224 46.5734 52.263 47.6769C52.5649 48.1101 52.968 48.4631 53.4372 48.7053C53.9065 48.9475 54.4278 49.0715 54.9558 49.0666C55.7361 49.0359 56.501 48.8391 57.1991 48.4893C58.4363 47.916 59.8219 46.6253 59.3476 43.7222C58.6048 39.9337 57.6059 36.2 56.3579 32.5467C56.0757 31.6875 55.7453 30.8449 55.3682 30.0229C54.4981 28.2167 53.2279 27.3012 51.5908 27.3012L51.5867 27.26Z" fill="#45413C"/>
<path d="M64.4057 44.6498C62.9624 44.6498 61.8036 44.357 60.9706 43.7838C58.8592 42.3405 57.4984 38.6085 57.0118 37.0744C55.9148 33.5981 55.655 29.0372 58.2159 26.6578C59.4201 25.5485 62.1912 24.0845 65.4408 23.4907C66.2378 23.3416 67.0465 23.2643 67.8573 23.2598C70.6491 23.2598 72.3399 24.3361 72.4883 26.2083C72.5426 26.5505 72.5243 26.9004 72.4347 27.2351C71.9192 28.8846 69.6347 29.297 67.4202 29.7465C66.2449 29.9774 64.0593 30.4104 64.0098 30.9547C64.007 31.1544 64.0278 31.3537 64.0717 31.5486L64.8387 31.3795C65.7259 31.1758 66.6302 31.0557 67.5398 31.0207C69.478 31.0207 69.9068 32.097 69.9852 32.7403C70.3522 35.627 67.5934 36.4806 65.581 37.0951L65.2635 37.1899C65.3193 37.3703 65.4354 37.526 65.5923 37.631C65.7491 37.7361 65.9373 37.7842 66.1253 37.7672H66.2243C66.4387 37.7672 67.2553 37.6312 67.713 37.5487C68.1707 37.4662 68.6656 37.3384 69.1233 37.2147C69.7545 37.0309 70.3981 36.893 71.0491 36.8023C71.16 36.7895 71.2715 36.7826 71.3832 36.7817C72.0261 36.7795 72.6454 37.0236 73.114 37.4638C73.5826 37.904 73.8649 38.5069 73.9028 39.1487C74.1873 42.9756 69.3666 43.957 67.7831 44.2787C66.6724 44.514 65.541 44.6383 64.4057 44.6498Z" fill="#EDF2F4"/>
<path d="M67.8566 24.0846C69.8278 24.0846 71.535 24.6578 71.667 26.2743C71.702 26.5039 71.702 26.7375 71.667 26.9671C70.9495 29.3342 63.4194 28.5713 63.2009 30.8806C63.1903 31.187 63.2208 31.4936 63.2916 31.7919C63.3386 32.0454 63.4133 32.2929 63.5143 32.5301C64.1164 32.3858 64.4174 32.3157 65.0236 32.1878C65.854 31.9967 66.7002 31.8822 67.5515 31.8455C68.4546 31.8455 69.0855 32.093 69.201 32.8435C69.5309 35.4662 66.4875 35.8868 64.306 36.6456L64.3803 36.9961C64.5452 37.7714 65.003 38.5921 66.1576 38.5921H66.302C66.603 38.5921 67.601 38.4147 67.8937 38.3611C69.0608 38.1508 70.0876 37.7467 71.1928 37.6188C71.271 37.6127 71.3496 37.6127 71.4278 37.6188C71.8604 37.618 72.2771 37.7822 72.5928 38.078C72.9085 38.3738 73.0995 38.7789 73.1268 39.2106C73.3371 42.0725 69.9144 43.0127 67.6628 43.4705C66.607 43.701 65.5309 43.8267 64.4504 43.8458C63.4109 43.9067 62.3768 43.6554 61.4813 43.1241C60.0008 42.1138 58.6688 39.458 57.8441 36.8477C56.7966 33.528 56.6069 29.3548 58.8214 27.2846C59.9678 26.2248 62.6112 24.8722 65.6339 24.3238C66.3817 24.1818 67.1409 24.1086 67.902 24.1052M67.902 22.4557C67.0414 22.4602 66.183 22.5416 65.337 22.699C61.9101 23.3258 59.0317 24.8434 57.7039 26.0722C54.8543 28.7156 55.0976 33.627 56.2729 37.3425C56.7843 38.9591 58.2235 42.8973 60.5493 44.4849C61.5225 45.153 62.838 45.4953 64.4504 45.4953C65.6418 45.4741 66.8283 45.336 67.9927 45.0829C69.4457 44.8351 70.8493 44.3547 72.1495 43.6602C74.4959 42.287 74.8712 40.4148 74.7722 39.0828C74.7175 38.2346 74.3408 37.4394 73.7191 36.8599C73.0974 36.2803 72.2777 35.9603 71.4278 35.9652C71.29 35.966 71.1524 35.9742 71.0154 35.9899C70.4742 36.0613 69.9383 36.1688 69.4113 36.3116C69.9685 35.8962 70.3996 35.3344 70.6566 34.6887C70.9136 34.0429 70.9865 33.3385 70.867 32.6538C70.8006 32.0978 70.5622 31.5764 70.1852 31.1624C69.8081 30.7484 69.3112 30.4625 68.7639 30.3445C70.8258 29.9032 72.7144 29.2764 73.3 27.5114C73.425 27.072 73.4573 26.6114 73.3949 26.1588C73.3445 25.5088 73.1215 24.884 72.7488 24.349C72.3762 23.814 71.8675 23.3881 71.2752 23.1155C70.2291 22.6404 69.0874 22.4131 67.9391 22.4516L67.902 22.4557Z" fill="#45413C"/>
<path d="M83.6333 43.5448C83.0889 43.5448 82.5075 43.4953 81.8889 43.4417L81.5219 43.4128L80.7878 43.3386L80.4827 43.3097C77.596 43.0623 74.5073 42.485 73.7362 38.6127C73.3813 36.8274 73.1512 35.0196 73.0475 33.2023C72.8637 30.426 72.9728 27.6381 73.3733 24.8847C73.6702 23.0166 76.029 22.5094 77.2331 22.5052H77.3404C78.7631 22.5052 81.7157 22.5052 81.8765 25.7589V26.4971C81.8765 26.8229 81.7858 27.5115 81.6992 28.3858C81.5219 30.2044 81.2497 32.9508 81.1714 34.7323C81.1507 35.1859 81.1714 35.5158 81.1714 35.7508C81.6745 35.8416 82.1734 35.8993 82.6642 35.9529C83.8626 36.0204 85.0395 36.2997 86.1405 36.7777C87.3776 37.388 87.8807 38.3694 87.6622 39.7798C87.2209 42.419 86.0251 43.5448 83.6333 43.5448Z" fill="#EDF2F4"/>
<path d="M77.3252 23.33C79.3459 23.33 80.9253 23.6186 81.0366 25.8042V26.4682C80.9748 27.4414 80.4469 32.0724 80.3315 34.7157C80.2785 35.2979 80.3035 35.8845 80.4057 36.4601C82.315 36.9178 84.0594 36.7158 85.7666 37.5323C86.6739 37.9776 87.0038 38.6045 86.8264 39.6643C86.4141 42.2128 85.313 42.7241 83.6429 42.7241C83.0326 42.7241 82.348 42.654 81.6016 42.5922C81.0325 42.5468 80.7768 42.5014 80.5459 42.4891C77.3417 42.2128 75.1603 41.4787 74.5541 38.456C74.2052 36.7091 73.9806 34.9397 73.8819 33.1611C73.6951 30.4447 73.7946 27.7162 74.1788 25.0207C74.3932 23.6805 76.4304 23.3382 77.2304 23.3341H77.3335M77.3335 21.6846H77.2221C75.7747 21.6846 72.9375 22.3403 72.5499 24.7609C72.1454 27.5722 72.0403 30.4184 72.2365 33.2518C72.3382 35.1081 72.5725 36.9548 72.9375 38.7777C73.8942 43.5695 78.2985 43.9489 80.4016 44.1386H80.4428L80.7109 44.1674L81.4655 44.2417L81.8284 44.2705C82.4635 44.3241 83.0655 44.3778 83.6429 44.3778C86.4553 44.3778 87.9852 42.9592 88.4594 39.9199C88.8058 37.6931 87.5811 36.592 86.4924 36.056C85.3024 35.5344 84.0287 35.23 82.7315 35.157L81.9727 35.0662V34.79C82.047 33.0332 82.3191 30.3033 82.4965 28.4929C82.5872 27.5775 82.6532 26.9135 82.6779 26.5754V26.064C82.6737 26.0036 82.6737 25.943 82.6779 25.8826V25.7259C82.4841 21.6887 78.7397 21.6887 77.317 21.6887L77.3335 21.6846Z" fill="#45413C"/>
<path d="M90.6948 45.0127C90.2778 45.0118 89.8624 44.9605 89.4577 44.8602C87.87 44.4478 86.8514 43.3674 86.9257 42.1385C87.11 39.5741 87.4349 37.0217 87.8989 34.493C88.0061 33.862 88.1133 33.1734 88.2205 32.4682C88.6329 29.7341 89.0453 26.9093 89.9896 25.6392C90.2494 25.2846 90.8144 24.8145 92.8392 24.8145C94.4561 24.827 96.0629 25.0714 97.6104 25.5402C101.598 26.7774 104.72 29.1692 105.965 31.9197C106.362 32.7789 106.567 33.7138 106.567 34.66C106.567 35.6062 106.362 36.5411 105.965 37.4002C104.687 40.2869 102.056 41.8498 98.5424 41.8498C97.1086 41.8422 95.6834 41.6269 94.3114 41.2106L94.1629 41.623C93.8989 42.4608 93.5464 43.2681 93.1114 44.0313C92.5753 44.8808 91.3629 45.0127 90.6948 45.0127ZM95.8743 35.0868L95.9856 35.1322C96.3406 35.2515 96.7122 35.3141 97.0867 35.3177C98.0063 35.3177 98.7362 34.9054 98.9671 34.1878C99.0346 33.9946 99.0621 33.7897 99.0479 33.5855C99.0338 33.3813 98.9782 33.1822 98.8846 33.0002C98.7383 32.7313 98.5401 32.4942 98.3016 32.3024C98.0631 32.1106 97.7889 31.9679 97.4949 31.8826C97.2657 31.8077 97.0294 31.7566 96.7898 31.73L95.8743 35.0868Z" fill="#EDF2F4"/>
<path d="M92.8175 25.6353C94.3549 25.6511 95.8823 25.8858 97.3536 26.3322C102.669 27.9817 107.354 32.2127 105.189 37.054C103.931 39.8788 101.416 41.0129 98.533 41.0129C97.0405 40.9911 95.5603 40.7379 94.1453 40.2623L93.8031 40.151C93.3041 41.3881 93.003 42.584 92.3968 43.5655C92.1329 43.9779 91.4195 44.1717 90.6772 44.1717C90.3231 44.1716 89.9701 44.1301 89.6257 44.048C88.5906 43.784 87.6586 43.0871 87.7122 42.1716C87.8943 39.6375 88.2164 37.1154 88.6772 34.6169C89.1844 31.6849 89.5844 27.524 90.6195 26.1095C90.8628 25.7755 91.7082 25.6188 92.8051 25.6188M97.0691 36.1262C98.3722 36.1262 99.3825 35.454 99.7289 34.4396C100.174 33.1447 99.4568 31.6684 97.7454 31.0869C97.3581 30.9569 96.9537 30.8846 96.5454 30.8725C96.4054 30.8689 96.2658 30.8898 96.133 30.9343L94.9288 35.3592C95.1269 35.6169 95.401 35.8059 95.7124 35.8994C96.1511 36.0465 96.6104 36.1231 97.0732 36.1262M92.8175 23.9858C90.9741 23.9858 89.8896 24.3445 89.304 25.1528C88.3267 26.4848 87.906 28.8642 87.3823 32.3447C87.2751 33.0581 87.172 33.7344 87.0648 34.353C86.5956 36.9132 86.2666 39.4972 86.0792 42.0933C85.9844 43.7428 87.2504 45.1655 89.2339 45.6604C89.7101 45.7784 90.199 45.8379 90.6896 45.8377C92.1494 45.8377 93.2546 45.3428 93.8113 44.448C94.2253 43.7322 94.5626 42.9747 94.8175 42.1881C96.0296 42.5043 97.2763 42.6691 98.5289 42.6789C102.376 42.6789 105.275 40.9263 106.69 37.7303C107.137 36.765 107.369 35.7138 107.369 34.6499C107.369 33.5859 107.137 32.5348 106.69 31.5694C105.35 28.6085 102.038 26.0559 97.832 24.7445C96.1976 24.2485 94.5007 23.9888 92.7927 23.9734L92.8175 23.9858ZM96.8794 34.4849L97.1103 33.6313L97.3619 32.7199C97.6935 32.8352 97.971 33.0686 98.1413 33.3756C98.1854 33.4608 98.2119 33.5541 98.219 33.6497C98.226 33.7454 98.2136 33.8416 98.1825 33.9323C98.0802 34.1295 97.9195 34.2903 97.7225 34.3928C97.5255 34.4954 97.3016 34.5348 97.0815 34.5055C97.0169 34.5096 96.9522 34.5096 96.8876 34.5055L96.8794 34.4849Z" fill="#45413C"/>
<path d="M107.008 52.345C106.122 52.3093 105.264 52.0234 104.534 51.5202C103.412 50.7944 102.645 49.1573 103.358 47.8088C103.6 47.3444 103.969 46.9582 104.421 46.6947C104.874 46.4312 105.392 46.3013 105.915 46.3201C106.053 46.3202 106.191 46.3285 106.327 46.3449C106.29 46.2881 106.257 46.2288 106.228 46.1675C105.14 44.1345 105.886 41.8128 107.346 38.9509C107.631 38.3942 107.944 37.8169 108.27 37.2148C108.596 36.6127 108.954 35.9488 109.297 35.2849L109.746 34.2003V34.1756C109.808 34.0642 109.886 33.8828 109.965 33.7096C110.043 33.5364 110.138 33.3302 110.196 33.2147L110.319 32.9714C110.465 32.6728 110.662 32.402 110.901 32.1714L110.975 32.1013L111.062 32.0518C111.379 31.8787 111.735 31.7907 112.097 31.7961C113.028 31.8692 113.923 32.1926 114.686 32.7322C115.789 33.4353 116.75 34.3389 117.519 35.3962C117.97 35.9717 118.288 36.64 118.45 37.3531C118.612 38.0661 118.614 38.8062 118.455 39.52C118.246 40.3701 117.881 41.1741 117.379 41.8912C115.614 44.4891 112.356 46.8727 110.781 47.4377C110.222 47.6494 109.63 47.7638 109.033 47.7758H108.979C109.804 48.7779 109.969 50.0356 109.338 51.0253C109.095 51.4269 108.754 51.7593 108.346 51.9904C107.938 52.2216 107.477 52.3437 107.008 52.345Z" fill="#EDF2F4"/>
<path d="M112.115 32.6209C112.891 32.6993 113.631 32.9841 114.259 33.4457C115.273 34.09 116.156 34.9196 116.862 35.8911C117.255 36.3711 117.533 36.9343 117.676 37.5382C117.819 38.142 117.823 38.7704 117.686 39.3757C117.497 40.116 117.173 40.815 116.73 41.4376C115.051 43.9119 111.934 46.1717 110.544 46.6748C110.075 46.8548 109.578 46.9525 109.076 46.9635C108.615 46.9735 108.161 46.8458 107.773 46.5964C107.429 46.4007 107.144 46.1157 106.948 45.7717C106.016 44.0273 106.762 41.883 108.07 39.3138C108.651 38.1757 109.352 36.955 110.033 35.6231C110.218 35.2107 110.309 34.9921 110.49 34.5674C110.614 34.3282 110.828 33.8251 110.94 33.6065L111.059 33.3632C111.162 33.1493 111.301 32.9552 111.472 32.79C111.666 32.6864 111.883 32.6353 112.103 32.6416M105.896 47.1325C106.078 47.1322 106.259 47.1502 106.437 47.1861C106.868 47.265 107.278 47.4336 107.641 47.681C108.688 48.3862 109.29 49.6357 108.668 50.613C108.496 50.9008 108.25 51.1379 107.957 51.3002C107.664 51.4625 107.333 51.5441 106.997 51.5367C106.268 51.4994 105.563 51.2579 104.964 50.8398C104.218 50.3532 103.558 49.1656 104.074 48.1759C104.247 47.8472 104.511 47.5746 104.834 47.3899C105.156 47.2052 105.525 47.116 105.896 47.1325ZM112.103 30.992C111.6 30.9842 111.104 31.1079 110.663 31.3508L110.486 31.4498L110.342 31.59C110.031 31.8838 109.774 32.23 109.583 32.6127L109.459 32.856C109.397 32.9797 109.307 33.1777 109.212 33.3838C109.117 33.59 109.068 33.7137 109.01 33.821L108.985 33.8663L108.964 33.9158L108.531 34.9179C108.197 35.5694 107.859 36.1963 107.529 36.8066C107.199 37.4169 106.882 37.9942 106.593 38.5674C104.758 42.1675 104.643 44.1593 105.067 45.5779C104.542 45.6791 104.047 45.8978 103.618 46.2178C103.19 46.5378 102.839 46.9506 102.593 47.4253C101.665 49.2068 102.626 51.3099 104.049 52.2337C104.914 52.829 105.931 53.1638 106.981 53.1986C107.593 53.2072 108.197 53.0566 108.733 52.7617C109.27 52.4667 109.72 52.0375 110.041 51.5161C110.322 51.0684 110.494 50.5605 110.542 50.0337C110.59 49.507 110.513 48.9764 110.317 48.4851C110.571 48.4241 110.822 48.3484 111.068 48.2583C112.696 47.6686 116.123 45.2438 118.049 42.3984C118.614 41.5971 119.021 40.6959 119.249 39.7427C119.438 38.9157 119.44 38.0571 119.256 37.2291C119.072 36.4011 118.706 35.6243 118.185 34.955C117.353 33.8103 116.314 32.8313 115.121 32.0684C114.231 31.4334 113.178 31.0644 112.086 31.0044L112.103 30.992Z" fill="#45413C"/>
</svg>
