<svg width="155" height="155" viewBox="0 0 155 155" fill="none" xmlns="http://www.w3.org/2000/svg">
<path d="M129.185 67.2606C129.009 67.0308 128.768 66.8593 128.493 66.7681C128.218 66.6769 127.922 66.6704 127.643 66.7493C127.372 66.8064 127.128 66.9528 126.95 67.1652C126.772 67.3776 126.67 67.6435 126.661 67.9204C126.727 74.4649 123.115 80.2918 119.527 84.465C122.929 60.8852 100.327 48.2252 100.327 48.2252C80.5782 33.5899 81.2792 30.8517 85.2092 25.1815C85.3591 24.9684 85.4289 24.7092 85.4063 24.4496C85.3836 24.1901 85.27 23.9469 85.0855 23.7629C84.8853 23.5632 84.632 23.4252 84.3557 23.3652C84.0794 23.3053 83.7916 23.326 83.5267 23.4248C39.6909 39.2642 46.6931 70.8483 46.6931 70.8483C39.4971 63.475 39.7197 55.9491 41.0146 51.1531C41.0794 50.8842 41.0466 50.6009 40.922 50.3539C40.7973 50.107 40.589 49.9123 40.3342 49.8046C40.0666 49.6759 39.7668 49.63 39.4729 49.6726C39.1791 49.7152 38.9047 49.8444 38.6847 50.0438C4.6016 82.2671 35.4393 104.948 35.4393 104.948C30.0146 101.34 25.1395 96.9677 20.9648 91.9662C20.769 91.7441 20.5109 91.586 20.2241 91.5125C19.9373 91.439 19.635 91.4534 19.3565 91.5538C19.0875 91.6349 18.8554 91.8075 18.7003 92.0417C18.5451 92.2759 18.4768 92.557 18.507 92.8363C23.8679 130.062 78.8091 134.28 78.8091 134.28C147.524 121.69 136.959 78.0979 129.185 67.2606Z" fill="#FF512E"/>
<path d="M105.658 105.492C107.951 90.4692 92.7132 82.399 92.7132 82.399C74.5231 69.6648 83.8264 61.2399 83.8264 61.2399C51.1289 70.5143 56.5517 96.7993 56.5517 96.7993C48.5392 89.0465 54.1723 81.0175 54.1723 81.0175C26.4522 102.874 48.9722 118.544 48.9722 118.544C44.4462 115.749 40.4814 112.133 37.2812 107.884C37.5864 117.245 42.8112 123.645 49.4258 128.025C59.07 131.211 69.0398 133.311 79.15 134.284C89.843 132.091 98.6596 129.513 106.297 125.992C127.171 114.729 110.008 92.094 110.008 92.094C111.604 97.4055 108.619 102.243 105.658 105.492Z" fill="#FF8A14"/>
<path d="M97.2159 129.575C110.247 119.88 98.453 106.663 98.453 106.663C99.4716 110.317 97.5293 113.645 95.6035 115.884C97.0963 105.546 87.1868 99.9952 87.1868 99.9952C75.3598 91.2281 83.5249 84.1764 83.5249 84.1764C62.2627 90.56 63.6689 109.905 63.6689 109.905C58.4606 104.569 62.1225 99.0426 62.1225 99.0426C44.0974 114.094 58.741 124.862 58.741 124.862C55.7727 122.91 53.1939 120.422 51.1367 117.525C51.3182 123.266 54.0234 127.39 57.6647 130.355C64.788 132.243 72.0512 133.557 79.3846 134.284C85.1456 132.891 90.8116 132.882 97.2159 129.575Z" fill="#FFE500"/>
<path d="M17.4102 117.472H136.55V135.819H17.4102V117.472Z" fill="white"/>
<path d="M103.719 124.82L96.1928 94.2756C105.781 106.647 113.249 107.327 122.032 105.41C138.115 111.043 134.796 86.4651 122.857 92.3168L122.725 92.0446C122.589 91.6369 122.369 91.262 122.08 90.944C121.791 90.6259 121.439 90.3716 121.046 90.1973C120.653 90.0229 120.228 89.9324 119.798 89.9315C119.368 89.9306 118.943 90.0193 118.549 90.192C118.156 90.3646 117.802 90.6174 117.512 90.9343C117.221 91.2511 117 91.6251 116.862 92.0322C116.724 92.4393 116.673 92.8707 116.711 93.2989C116.749 93.727 116.876 94.1425 117.084 94.5189C117.03 94.556 108.387 99.8798 100.354 87.4878C106.718 82.8121 111.443 76.2454 113.854 68.7249C116.265 61.2043 116.238 53.1144 113.778 45.61C111.317 38.1055 106.549 31.57 100.154 26.9364C93.7588 22.3028 86.0631 19.808 78.1657 19.808C70.2682 19.808 62.5726 22.3028 56.1773 26.9364C49.782 31.57 45.0139 38.1055 42.5536 45.61C40.0934 53.1144 40.0667 61.2043 42.4774 68.7249C44.8881 76.2454 49.613 82.8121 55.9776 87.4878C47.9445 99.8963 39.2969 94.556 39.2474 94.5189C39.4551 94.1425 39.5821 93.727 39.6203 93.2989C39.6584 92.8707 39.6069 92.4393 39.469 92.0322C39.3311 91.6251 39.1099 91.2511 38.8194 90.9343C38.5289 90.6174 38.1756 90.3646 37.7819 90.192C37.3883 90.0193 36.963 89.9306 36.5331 89.9315C36.1033 89.9324 35.6783 90.0229 35.2854 90.1973C34.8925 90.3716 34.5402 90.6259 34.2511 90.944C33.9619 91.262 33.7423 91.6369 33.6061 92.0446L33.4741 92.3168C21.5399 86.4651 18.2161 111.043 34.2989 105.41C43.0826 107.331 50.5507 106.647 60.1385 94.2756L52.6126 124.82" fill="white"/>
<path d="M78.089 77.3556C69.6801 77.328 61.524 74.4768 54.9292 69.2595C48.3345 64.0421 43.6831 56.761 41.7214 48.584C40.4071 54.0844 40.3547 59.8109 41.5681 65.3344C42.7815 70.858 45.2291 76.0353 48.7277 80.4784C52.2263 84.9216 56.6851 88.5154 61.7699 90.9905C66.8548 93.4656 72.4338 94.7578 78.089 94.7704C83.7578 94.7821 89.3554 93.5077 94.4604 91.0431C99.5654 88.5785 104.045 84.9878 107.561 80.5416C111.078 76.0953 113.54 70.9092 114.762 65.3737C115.984 59.8382 115.935 54.0976 114.618 48.584C112.649 56.7878 107.974 64.089 101.347 69.3092C94.7189 74.5294 86.5256 77.3641 78.089 77.3556Z" fill="#FFF0ED"/>
<path d="M103.719 124.82L96.1928 94.2756C105.781 106.647 113.249 107.327 122.032 105.41C138.115 111.043 134.796 86.4651 122.857 92.3168L122.725 92.0446C122.589 91.6369 122.369 91.262 122.08 90.944C121.791 90.6259 121.439 90.3716 121.046 90.1973C120.653 90.0229 120.228 89.9324 119.798 89.9315C119.368 89.9306 118.943 90.0193 118.549 90.192C118.156 90.3646 117.802 90.6174 117.512 90.9343C117.221 91.2511 117 91.6251 116.862 92.0322C116.724 92.4393 116.673 92.8707 116.711 93.2989C116.749 93.727 116.876 94.1425 117.084 94.5189C117.03 94.556 108.387 99.8798 100.354 87.4878C106.718 82.8121 111.443 76.2454 113.854 68.7249C116.265 61.2043 116.238 53.1144 113.778 45.61C111.317 38.1055 106.549 31.57 100.154 26.9364C93.7588 22.3028 86.0631 19.808 78.1657 19.808C70.2682 19.808 62.5726 22.3028 56.1773 26.9364C49.782 31.57 45.0139 38.1055 42.5536 45.61C40.0934 53.1144 40.0667 61.2043 42.4774 68.7249C44.8881 76.2454 49.613 82.8121 55.9776 87.4878C47.9445 99.8963 39.2969 94.556 39.2474 94.5189C39.4551 94.1425 39.5821 93.727 39.6203 93.2989C39.6584 92.8707 39.6069 92.4393 39.469 92.0322C39.3311 91.6251 39.1099 91.2511 38.8194 90.9343C38.5289 90.6174 38.1756 90.3646 37.7819 90.192C37.3883 90.0193 36.963 89.9306 36.5331 89.9315C36.1033 89.9324 35.6783 90.0229 35.2854 90.1973C34.8925 90.3716 34.5402 90.6259 34.2511 90.944C33.9619 91.262 33.7423 91.6369 33.6061 92.0446L33.4741 92.3168C21.5399 86.4651 18.2161 111.043 34.2989 105.41C43.0826 107.331 50.5507 106.647 60.1385 94.2756L52.6126 124.82" stroke="#45413C" stroke-width="2.42" stroke-linecap="round" stroke-linejoin="round"/>
<path d="M63.2076 91.6652C60.6598 90.5292 58.2383 89.1291 55.9827 87.4878ZM93.1339 91.6652C95.6816 90.5292 98.1032 89.1291 100.359 87.4878ZM33.4792 92.3126C33.4792 92.3126 31.3843 97.6735 32.8277 98.2096C34.271 98.7457 35.8009 98.2096 36.2999 96.8158M122.862 92.3126C122.862 92.3126 124.957 97.6735 123.514 98.2096C122.07 98.7457 120.541 98.2096 120.042 96.8158" fill="white"/>
<path d="M63.2076 91.6652C60.6598 90.5292 58.2383 89.1291 55.9827 87.4878M93.1339 91.6652C95.6816 90.5292 98.1032 89.1291 100.359 87.4878M33.4792 92.3126C33.4792 92.3126 31.3843 97.6735 32.8277 98.2096C34.271 98.7457 35.8009 98.2096 36.2999 96.8158M122.862 92.3126C122.862 92.3126 124.957 97.6735 123.514 98.2096C122.07 98.7457 120.541 98.2096 120.042 96.8158" stroke="#45413C" stroke-width="2.42" stroke-linecap="round" stroke-linejoin="round"/>
<path d="M111.35 39.8787C111.102 39.4045 110.842 38.9344 110.57 38.4725" stroke="#45413C" stroke-width="2.42" stroke-linecap="round" stroke-linejoin="round"/>
<path d="M54.0497 29.2517C50.9777 29.3996 48.0396 30.5535 45.688 32.5356C43.3364 34.5176 41.7017 37.2179 41.0358 40.2205C40.3698 43.223 40.7096 46.3612 42.0027 49.1516C43.2959 51.9421 45.4706 54.2299 48.192 55.6627C50.9133 57.0955 54.0303 57.5938 57.0627 57.0808C60.0951 56.5678 62.8748 55.072 64.9734 52.8237C67.072 50.5755 68.3732 47.6996 68.6765 44.6391C68.9798 41.5786 68.2684 38.5033 66.6519 35.8869C61.9407 34.8222 57.5937 32.5334 54.0497 29.2517Z" fill="#FFF48C" stroke="#45413C" stroke-width="2.42" stroke-linecap="round" stroke-linejoin="round"/>
<path d="M60.149 45.821C60.169 46.5466 60.0434 47.2688 59.7796 47.9449C59.5157 48.6211 59.119 49.2375 58.6129 49.7577C58.1068 50.278 57.5016 50.6915 56.833 50.9739C56.1643 51.2562 55.4459 51.4017 54.7201 51.4017C53.9943 51.4017 53.2758 51.2562 52.6072 50.9739C51.9386 50.6915 51.3333 50.278 50.8272 49.7577C50.3211 49.2375 49.9244 48.6211 49.6606 47.9449C49.3968 47.2688 49.2711 46.5466 49.2911 45.821C49.2911 42.8272 51.7242 37.4209 54.7221 37.4209C54.8417 42.922 60.149 42.188 60.149 45.821Z" fill="#FF8A14"/>
<path d="M58.1173 47.8624C58.1332 48.3172 58.0573 48.7706 57.8942 49.1954C57.7311 49.6203 57.4841 50.008 57.1679 50.3354C56.8518 50.6627 56.473 50.9231 56.0541 51.1009C55.6351 51.2787 55.1847 51.3704 54.7296 51.3704C54.2745 51.3704 53.8241 51.2787 53.4051 51.1009C52.9862 50.9231 52.6074 50.6627 52.2912 50.3354C51.9751 50.008 51.7281 49.6203 51.565 49.1954C51.4019 48.7706 51.326 48.3172 51.3419 47.8624C51.3419 45.9902 52.8595 42.6169 54.7317 42.6169C54.7935 46.0521 58.1173 45.5943 58.1173 47.8624Z" fill="#FFE500"/>
<path d="M60.149 45.821C60.169 46.5466 60.0434 47.2688 59.7796 47.9449C59.5157 48.6211 59.119 49.2375 58.6129 49.7577C58.1068 50.278 57.5016 50.6915 56.833 50.9739C56.1643 51.2562 55.4459 51.4017 54.7201 51.4017C53.9943 51.4017 53.2758 51.2562 52.6072 50.9739C51.9386 50.6915 51.3333 50.278 50.8272 49.7577C50.3211 49.2375 49.9244 48.6211 49.6606 47.9449C49.3968 47.2688 49.2711 46.5466 49.2911 45.821C49.2911 42.8272 51.7242 37.4209 54.7221 37.4209C54.8417 42.922 60.149 42.188 60.149 45.821Z" stroke="#EF233C" stroke-width="2.42" stroke-linecap="round" stroke-linejoin="round"/>
<path d="M102.293 29.2517C105.365 29.3996 108.303 30.5535 110.655 32.5356C113.006 34.5176 114.641 37.2179 115.307 40.2205C115.973 43.223 115.633 46.3612 114.34 49.1516C113.047 51.9421 110.872 54.2299 108.151 55.6627C105.429 57.0955 102.312 57.5938 99.2798 57.0808C96.2474 56.5678 93.4678 55.072 91.3692 52.8237C89.2705 50.5755 87.9693 47.6996 87.666 44.6391C87.3627 41.5786 88.0741 38.5033 89.6906 35.8869C94.4019 34.8222 98.7489 32.5334 102.293 29.2517Z" fill="#FFF48C" stroke="#45413C" stroke-width="2.42" stroke-linecap="round" stroke-linejoin="round"/>
<path d="M84.9219 36.5508C89.0226 36.3545 93.0276 35.2444 96.6442 33.3016C100.261 31.3588 103.398 28.6325 105.825 25.3218" stroke="#45413C" stroke-width="2.42" stroke-linecap="round" stroke-linejoin="round"/>
<path d="M96.1953 45.821C96.1953 47.2603 96.7671 48.6407 97.7848 49.6584C98.8026 50.6762 100.183 51.2479 101.622 51.2479C103.062 51.2479 104.442 50.6762 105.46 49.6584C106.477 48.6407 107.049 47.2603 107.049 45.821C107.049 42.8272 104.62 37.4209 101.622 37.4209C101.503 42.922 96.1953 42.188 96.1953 45.821Z" fill="#FF8A14"/>
<path d="M98.2364 47.8624C98.2206 48.3172 98.2964 48.7706 98.4595 49.1954C98.6226 49.6203 98.8696 50.008 99.1858 50.3354C99.5019 50.6627 99.8807 50.9231 100.3 51.1009C100.719 51.2787 101.169 51.3704 101.624 51.3704C102.079 51.3704 102.53 51.2787 102.949 51.1009C103.368 50.9231 103.746 50.6627 104.062 50.3354C104.379 50.008 104.626 49.6203 104.789 49.1954C104.952 48.7706 105.028 48.3172 105.012 47.8624C105.012 45.9902 103.494 42.6169 101.622 42.6169C101.548 46.0521 98.2364 45.5943 98.2364 47.8624Z" fill="#FFE500"/>
<path d="M96.1953 45.821C96.1953 47.2603 96.7671 48.6407 97.7848 49.6584C98.8026 50.6762 100.183 51.2479 101.622 51.2479C103.062 51.2479 104.442 50.6762 105.46 49.6584C106.477 48.6407 107.049 47.2603 107.049 45.821C107.049 42.8272 104.62 37.4209 101.622 37.4209C101.503 42.922 96.1953 42.188 96.1953 45.821Z" stroke="#EF233C" stroke-width="2.42" stroke-linecap="round" stroke-linejoin="round"/>
<path d="M83.9759 64.341C80.1779 62.5471 76.3097 62.5141 72.3633 64.341L74.3138 55.0377C76.85 56.5718 79.4191 56.5305 82.0253 55.0377L83.9759 64.341Z" fill="#FFB0CA" stroke="#45413C" stroke-width="2.42" stroke-linecap="round" stroke-linejoin="round"/>
<path d="M46.4819 113.472C46.2107 112.807 45.7497 112.236 45.1564 111.831C44.5632 111.427 43.8639 111.205 43.1457 111.195C42.8088 111.197 42.4734 111.241 42.1478 111.327H42.09C40.1395 111.896 38.7374 113.892 37.6033 115.864C37.426 114.16 37.1209 112.659 36.2095 111.777C35.8757 111.426 35.474 111.146 35.0289 110.955C34.5837 110.763 34.1043 110.664 33.6198 110.663C32.5064 110.663 30.9146 111.2 29.4341 113.587C29.4349 113.102 29.3352 112.622 29.1413 112.177C28.9386 111.653 28.5811 111.203 28.1162 110.886C27.6514 110.57 27.1013 110.403 26.5392 110.408C26.1814 110.412 25.8255 110.461 25.4794 110.552C24.6335 110.755 23.8654 111.201 23.2691 111.835C22.3371 110.639 20.6917 110.536 19.2113 110.536H18.6463C16.9968 110.536 15.17 110.713 13.9699 112.008C13.4633 112.585 13.0614 113.247 12.7823 113.962C12.0483 115.769 12.473 116.849 12.972 117.464C12.9225 117.608 12.8565 117.781 12.774 117.991C12.638 118.334 12.4813 118.692 12.3287 119.047C12.1761 119.402 12.0029 119.798 11.8668 120.144C11.3843 121.356 10.9183 122.511 10.4647 123.637C10.0523 124.61 9.68946 125.554 9.31419 126.495C9.0944 126.65 8.86276 126.788 8.6214 126.907C7.26467 127.604 6.67085 129.068 6.38631 129.769C6.13476 130.388 5.46258 132.033 6.30795 133.419C7.15333 134.804 8.98841 134.866 10.4317 134.866C12.5184 134.866 13.6524 134.792 14.3535 134.61C15.7844 134.235 16.9473 132.994 17.6525 131.113C18.2463 129.464 18.2051 128.392 17.4298 127.402C17.636 126.87 17.8422 126.309 18.0979 125.728C18.4319 124.903 18.7783 124.045 19.0752 123.253L20.1432 120.367C20.3948 119.69 20.6958 118.882 20.968 118.194C21.5058 117.952 21.9938 117.612 22.4072 117.191C22.3364 117.396 22.2524 117.596 22.1557 117.789L22.1144 117.884C21.9627 118.253 21.8891 118.65 21.8984 119.049C21.9076 119.448 21.9994 119.84 22.168 120.202C22.3494 120.625 22.6514 120.986 23.0364 121.239C23.4214 121.492 23.8723 121.626 24.333 121.624C24.5861 121.623 24.838 121.591 25.0835 121.53C25.525 121.408 25.9326 121.186 26.2753 120.882C25.5578 122.973 24.8856 125.171 24.2134 127.336L23.698 129.047L23.6278 129.295C23.3103 130.445 22.9928 132.124 23.8794 133.394C24.4609 134.219 25.3763 134.631 26.6052 134.631C27.9389 134.673 29.2374 134.199 30.23 133.307C30.7792 132.78 31.2205 132.151 31.529 131.456C31.741 130.982 31.9228 130.496 32.0734 130C32.3615 130.353 32.7261 130.637 33.1397 130.829C33.5533 131.021 34.0051 131.117 34.461 131.109H34.5682C35.322 131.088 36.0473 130.816 36.6301 130.338C36.6301 131.447 36.8281 132.693 37.6198 133.637C37.9155 133.99 38.2871 134.273 38.7069 134.463C39.1267 134.652 39.584 134.745 40.0446 134.734C41.0385 134.713 42.0078 134.422 42.8479 133.891C43.6881 133.359 44.3671 132.609 44.8117 131.72L44.9272 131.501L44.989 131.258C45.3354 129.839 45.5705 128.759 45.7478 127.748C46.1602 125.394 46.3911 123.323 46.6963 120.424C46.7293 120.074 46.7664 119.744 46.7994 119.427C47.0344 117.237 47.2365 115.348 46.4819 113.53V113.472ZM87.0846 119.934C86.9156 116.449 86.7094 114.292 86.1155 113.101C85.869 112.497 85.4524 111.978 84.9165 111.607C84.3807 111.236 83.7485 111.029 83.0969 111.01C82.5854 111.002 82.0781 111.104 81.6094 111.309C81.1406 111.514 80.7212 111.817 80.3794 112.198C79.6055 113.137 79.1289 114.285 79.0103 115.497C78.6556 114.857 78.3463 114.321 78.1154 113.971C76.4659 111.496 74.5731 110.96 73.2741 110.96C71.4844 110.96 69.4513 112.482 68.9936 115.389C68.9523 115.303 68.9152 115.212 68.874 115.125C68.2391 113.724 67.2084 112.538 65.9087 111.715C64.609 110.891 63.0969 110.466 61.5584 110.49C56.1975 110.49 52.0737 114.882 51.1294 121.674C50.4819 126.239 51.0922 129.728 52.9479 132.045C54.4531 133.922 56.6594 134.87 59.4883 134.87C62.8945 134.87 66.4286 132.948 68.3998 128.788C68.7255 131.917 69.6369 134.454 71.8885 134.841C72.0432 134.882 72.2026 134.903 72.3627 134.903C74.1772 134.903 76.0494 133.208 76.3752 131.258C76.4453 130.788 76.5113 130.239 76.569 129.645C78.0164 132.396 79.7278 134.652 82.0371 134.705C82.8609 134.688 83.6624 134.435 84.3466 133.976C85.0308 133.517 85.5689 132.871 85.897 132.115L85.9382 132.029L85.9671 131.942C87.2042 128.26 87.2661 123.695 87.1135 120.495L87.0846 119.934ZM59.8677 122.301C60.0285 120.866 60.4739 119.414 61.1048 119.414C61.1741 119.413 61.2433 119.42 61.311 119.435C61.3687 119.546 61.5873 120.095 61.4141 121.781C61.3069 122.886 60.9233 124.734 60.1357 124.82C59.8329 124.017 59.7461 123.148 59.8842 122.301H59.8677ZM149.75 128.152C149.127 126.623 147.581 124.981 145.651 124.981C145.098 124.989 144.546 125.04 144.001 125.134C143.725 125.175 143.461 125.216 143.197 125.237C143.495 124.986 143.744 124.681 143.931 124.338C144.488 123.332 144.492 122.111 143.931 120.705C143.612 119.807 142.957 119.068 142.104 118.643C142.677 118.472 143.185 118.131 143.56 117.666C144.019 117.07 144.228 116.318 144.141 115.571C144.084 115.134 143.96 114.708 143.774 114.309C142.764 111.835 140.376 110.445 137.048 110.445C134.685 110.445 132.512 111.109 131.382 112.181C130.636 112.96 130.174 113.969 130.071 115.043C128.211 112.057 125.201 110.445 121.374 110.445C118.273 110.445 116.269 111.509 115.415 113.604C115.239 114.022 115.101 114.455 115.003 114.899C114.988 114.658 114.957 114.418 114.912 114.181L114.85 113.884L114.829 113.789C114.005 110.527 110.829 110.527 109.304 110.527H108.743C107.753 110.527 105.901 110.527 104.809 111.649C103.159 110.478 100.916 110.474 99.8271 110.474C99.39 110.474 98.9405 110.474 97.5425 110.552C96.0415 110.626 93.893 110.911 92.5569 112.527C91.2208 114.144 91.2414 116.499 91.3857 118.548C91.5012 120.144 91.5919 121.926 91.6827 123.645C91.7734 125.365 91.86 127.08 91.9672 128.647L92.0249 129.443C92.0646 130.639 92.3928 131.808 92.9816 132.849C93.8064 134.198 95.1136 134.878 96.9199 134.878C98.7261 134.878 100.091 133.913 100.475 132.256C100.771 130.862 100.602 129.27 100.454 127.864C100.454 127.724 100.425 127.587 100.413 127.451C100.689 127.451 100.982 127.418 101.237 127.402H101.563C102.607 127.361 103.778 127.187 104.565 126.185C105.353 125.183 105.295 123.926 105.184 123.064C104.895 120.783 103.576 119.893 102.297 119.546H103.159C104.025 119.513 105.266 119.344 106.108 118.276C106.149 118.453 106.207 118.709 106.268 119.101C106.33 119.492 106.372 119.794 106.417 120.14C106.462 120.486 106.516 120.903 106.578 121.253C106.78 122.49 106.97 123.633 107.151 124.763C107.277 125.554 107.403 126.331 107.526 127.093C106.099 128.185 106.409 130.128 106.524 130.866C107.159 134.866 109.984 134.866 112.046 134.866C114.186 134.866 115.275 134.792 115.926 134.594C117.192 134.202 118.355 132.882 117.964 130.346C118.038 130.627 118.116 130.911 118.194 131.2C118.891 133.819 120.582 135.2 123.081 135.2C124.957 135.2 126.413 134.19 126.793 132.676C126.841 132.496 126.877 132.313 126.9 132.128C128.529 133.703 130.285 134.965 132.137 134.965H132.331C133.956 134.882 134.768 134.14 135.164 133.509C135.49 132.993 135.655 132.392 135.638 131.781C135.737 131.897 135.84 132.008 135.939 132.111C137.749 133.93 140.554 134.932 143.84 134.932C145.795 134.932 148.376 134.52 149.576 132.553C150.158 131.691 150.599 130.239 149.75 128.152ZM115.733 126.672C115.617 126.041 115.51 125.361 115.394 124.643C115.258 123.818 115.122 122.952 114.982 122.169L114.429 119.282C114.335 118.775 114.219 118.189 114.12 117.633C114.489 117.275 114.76 116.83 114.908 116.338C114.923 117.192 115.019 118.042 115.196 118.878L115.221 119.018L115.419 119.864C115.46 120.033 115.498 120.214 115.547 120.437C115.629 120.824 115.737 121.323 115.906 122.037C116.236 123.435 116.772 125.53 117.605 128.635C117.236 127.778 116.571 127.081 115.733 126.672ZM132.03 125.901C131.514 125.39 130.982 124.862 130.52 124.363C130.765 124.078 130.976 123.767 131.151 123.435C131.195 123.35 131.241 123.255 131.287 123.15C131.287 123.196 131.316 123.245 131.333 123.286C131.572 124.008 131.98 125.134 132.516 126.383C132.347 126.223 132.195 126.062 132.03 125.901Z" fill="#45413C"/>
<path d="M46.4819 115.497C46.2109 114.831 45.75 114.26 45.1568 113.855C44.5636 113.449 43.8642 113.227 43.1457 113.216C42.8089 113.219 42.4738 113.264 42.1478 113.348H42.09C40.1395 113.917 38.7374 115.913 37.6033 117.884C37.426 116.181 37.1209 114.676 36.2095 113.798C35.8757 113.446 35.474 113.167 35.0289 112.975C34.5837 112.784 34.1043 112.685 33.6198 112.684C32.5064 112.684 30.9146 113.216 29.4341 115.608C29.4349 115.123 29.3352 114.642 29.1413 114.198C28.9388 113.673 28.5814 113.222 28.1166 112.905C27.6518 112.589 27.1017 112.421 26.5392 112.424C26.1812 112.431 25.8253 112.48 25.4794 112.573C24.6346 112.776 23.8668 113.22 23.2691 113.851C22.3371 112.659 20.6917 112.552 19.2113 112.552H18.6463C16.9968 112.552 15.17 112.734 13.9699 114.029C13.4631 114.604 13.0612 115.264 12.7823 115.979C12.0483 117.789 12.473 118.866 12.972 119.484C12.9225 119.629 12.8565 119.802 12.774 120.012C12.638 120.354 12.4813 120.713 12.3287 121.068C12.1761 121.422 12.0029 121.818 11.8668 122.161C11.3843 123.377 10.9183 124.532 10.4647 125.658C10.0523 126.627 9.68946 127.575 9.31419 128.515C9.0944 128.671 8.86276 128.809 8.6214 128.928C7.26467 129.625 6.67085 131.089 6.38631 131.79C6.13476 132.408 5.46258 134.054 6.30795 135.435C7.19457 136.887 8.98841 136.887 10.4317 136.887C12.5184 136.887 13.6524 136.812 14.3535 136.631C15.7844 136.256 16.9473 135.014 17.6525 133.134C18.2463 131.505 18.2051 130.408 17.4298 129.443C17.636 128.911 17.8422 128.35 18.0979 127.769C18.4319 126.944 18.7783 126.086 19.0752 125.295L20.1432 122.408C20.3948 121.732 20.6958 120.923 20.968 120.235C21.5067 119.993 21.995 119.652 22.4072 119.229C22.3373 119.435 22.2533 119.636 22.1557 119.831L22.1144 119.921C21.9621 120.291 21.8882 120.688 21.8975 121.088C21.9067 121.488 21.9988 121.881 22.168 122.243C22.356 122.664 22.664 123.021 23.0534 123.268C23.4429 123.515 23.8966 123.642 24.3578 123.633C24.6108 123.631 24.8628 123.599 25.1083 123.538C25.55 123.414 25.9576 123.192 26.3001 122.886C25.5825 124.977 24.9103 127.175 24.2382 129.344L23.7103 131.076L23.6402 131.328C23.3227 132.478 23.0052 134.157 23.8918 135.423C24.4732 136.247 25.3887 136.68 26.6176 136.68C27.9513 136.723 29.2497 136.248 30.2424 135.357C30.7916 134.83 31.2328 134.201 31.5414 133.505C31.7534 133.032 31.9352 132.546 32.0857 132.049C32.3761 132.399 32.7418 132.678 33.1553 132.865C33.5688 133.053 34.0194 133.145 34.4734 133.134H34.5806C35.334 133.114 36.0593 132.844 36.6425 132.367C36.6425 133.476 36.8404 134.722 37.6322 135.666C37.9285 136.019 38.3002 136.3 38.7198 136.49C39.1395 136.68 39.5965 136.773 40.057 136.763C41.0508 136.742 42.0202 136.451 42.8603 135.92C43.7005 135.388 44.3795 134.638 44.8241 133.748L44.9396 133.53L45.0014 133.287C45.3478 131.868 45.5829 130.788 45.7602 129.777C46.1726 127.423 46.4035 125.352 46.7087 122.449C46.7417 122.103 46.7788 121.773 46.8118 121.451C47.0468 119.266 47.2489 117.377 46.4942 115.558L46.4819 115.497ZM87.0846 121.959C86.9156 118.47 86.7094 116.317 86.1155 115.125C85.8692 114.522 85.4528 114.002 84.9169 113.63C84.3811 113.258 83.7489 113.05 83.0969 113.031C82.5851 113.024 82.0778 113.126 81.609 113.332C81.1402 113.538 80.7209 113.841 80.3794 114.222C79.6047 115.161 79.1279 116.31 79.0103 117.521C78.6556 116.878 78.3463 116.346 78.1154 115.996C76.4659 113.521 74.5731 112.985 73.2741 112.985C71.4844 112.985 69.4513 114.507 68.9936 117.414C68.9523 117.328 68.9152 117.233 68.874 117.15C68.2336 115.756 67.2006 114.578 65.9013 113.761C64.602 112.945 63.0928 112.524 61.5584 112.552C56.1975 112.552 52.0737 116.94 51.1294 123.736C50.4819 128.301 51.0922 131.79 52.9479 134.107C54.4531 135.979 56.6594 136.932 59.4883 136.932C62.8945 136.932 66.4286 135.006 68.3998 130.849C68.7255 133.979 69.6369 136.516 71.8885 136.903C72.0432 136.944 72.2026 136.965 72.3627 136.965C74.1772 136.965 76.0494 135.266 76.3752 133.315C76.4453 132.849 76.5113 132.301 76.569 131.707C78.0164 134.458 79.7278 136.713 82.0371 136.767C82.8606 136.749 83.6617 136.496 84.3457 136.037C85.0297 135.578 85.568 134.932 85.897 134.177L85.9382 134.091L85.9671 134C87.2042 130.322 87.2661 125.752 87.1135 122.557L87.0846 121.959ZM59.8677 124.326C60.0285 122.886 60.4739 121.439 61.1048 121.439C61.1741 121.437 61.2433 121.444 61.311 121.46C61.3687 121.571 61.5873 122.119 61.4141 123.806C61.3069 124.911 60.9233 126.755 60.1357 126.845C59.8329 126.042 59.7461 125.173 59.8842 124.326H59.8677ZM149.75 130.177C149.127 128.647 147.581 127.002 145.651 127.002C145.098 127.011 144.546 127.063 144.001 127.159C143.725 127.2 143.461 127.237 143.197 127.262C143.494 127.009 143.743 126.705 143.931 126.363C144.488 125.357 144.492 124.136 143.931 122.73C143.613 121.831 142.958 121.092 142.104 120.668C142.677 120.497 143.185 120.156 143.56 119.69C144.019 119.095 144.228 118.343 144.141 117.596C144.083 117.158 143.96 116.731 143.774 116.33C142.764 113.855 140.376 112.47 137.048 112.47C134.685 112.47 132.512 113.134 131.382 114.206C130.635 114.983 130.173 115.99 130.071 117.064C128.211 114.082 125.201 112.47 121.374 112.47C118.273 112.47 116.269 113.534 115.415 115.629C115.239 116.047 115.101 116.48 115.003 116.923C114.988 116.683 114.957 116.443 114.912 116.206L114.85 115.909L114.829 115.814C114.005 112.548 110.829 112.548 109.304 112.548H108.743C107.753 112.548 105.901 112.548 104.809 113.67C103.159 112.499 100.916 112.499 99.8271 112.499C99.39 112.499 98.9405 112.499 97.5425 112.577C96.0415 112.651 93.893 112.936 92.5569 114.552C91.2208 116.169 91.2414 118.523 91.3857 120.569C91.5012 122.169 91.5919 123.946 91.6827 125.67C91.7734 127.394 91.86 129.105 91.9672 130.672L92.0249 131.468C92.0646 132.664 92.3928 133.833 92.9816 134.874C93.8064 136.223 95.1136 136.903 96.9199 136.903C98.7261 136.903 100.091 135.934 100.475 134.28C100.771 132.887 100.602 131.295 100.454 129.889C100.454 129.748 100.425 129.612 100.413 129.476C100.689 129.456 100.982 129.439 101.237 129.427H101.563C102.607 129.385 103.778 129.212 104.565 128.21C105.353 127.208 105.295 125.95 105.184 125.089C104.895 122.808 103.576 121.917 102.297 121.571H103.159C104.025 121.538 105.266 121.369 106.108 120.301C106.149 120.478 106.207 120.734 106.268 121.126C106.33 121.517 106.372 121.818 106.417 122.165C106.462 122.511 106.516 122.928 106.578 123.278C106.78 124.495 106.97 125.658 107.151 126.788L107.526 129.117C106.099 130.206 106.409 132.148 106.524 132.887C107.159 136.891 109.984 136.891 112.046 136.891C114.186 136.891 115.275 136.812 115.926 136.614C117.192 136.227 118.355 134.903 117.964 132.371L118.194 133.225C118.891 135.839 120.582 137.225 123.081 137.225C124.957 137.225 126.413 136.214 126.793 134.701C126.841 134.521 126.877 134.338 126.9 134.153C128.529 135.728 130.285 136.99 132.137 136.99H132.331C133.956 136.907 134.768 136.165 135.164 135.534C135.49 135.018 135.655 134.416 135.638 133.806C135.737 133.918 135.84 134.033 135.939 134.136C137.749 135.955 140.554 136.957 143.84 136.957C145.795 136.957 148.376 136.544 149.576 134.577C150.158 133.715 150.599 132.264 149.75 130.177ZM115.733 128.697C115.617 128.066 115.51 127.385 115.394 126.668C115.258 125.843 115.122 124.977 114.982 124.194L114.429 121.307C114.335 120.804 114.219 120.218 114.12 119.657C114.489 119.3 114.76 118.854 114.908 118.363C114.923 119.217 115.02 120.067 115.196 120.903L115.221 121.043L115.419 121.888C115.46 122.058 115.498 122.239 115.547 122.462C115.629 122.849 115.737 123.348 115.906 124.058C116.236 125.46 116.772 127.55 117.605 130.676C117.239 129.813 116.574 129.11 115.733 128.697ZM132.03 127.922C131.514 127.414 130.982 126.886 130.52 126.388C130.765 126.103 130.976 125.791 131.151 125.46C131.197 125.373 131.242 125.274 131.287 125.175C131.287 125.22 131.316 125.266 131.333 125.311C131.572 126.029 131.98 127.159 132.516 128.404L132.03 127.922Z" fill="#45413C"/>
<path d="M18.4408 119.686L17.3769 122.544C16.8119 124.066 16.049 125.843 15.4964 127.315C15.2985 127.851 15.3768 128.07 15.5459 128.198C16.2758 128.767 16.4655 128.99 15.9583 130.4C15.5789 131.439 14.9315 132.462 13.9294 132.722C12.7738 132.896 11.6046 132.963 10.4366 132.924C7.96228 132.924 7.16639 132.689 8.04476 130.528C8.34579 129.786 8.72518 128.99 9.40561 128.639C10.2304 128.227 10.7046 127.88 10.8778 127.505C11.7026 125.402 12.5933 123.258 13.5335 120.907C13.7974 120.243 14.1562 119.468 14.4366 118.754C14.6775 118.217 14.852 117.652 14.9562 117.072C14.9975 116.66 14.8119 116.49 14.4737 116.325C14.1356 116.161 14.1315 115.501 14.4407 114.742C14.6252 114.245 14.893 113.784 15.2325 113.377C16.016 112.527 17.4965 112.449 18.6511 112.449H19.2161C21.4965 112.449 22.4203 112.82 21.9625 114.284L21.8553 114.581C21.7189 115.04 21.4727 115.46 21.1378 115.802C20.803 116.145 20.3897 116.401 19.9336 116.548C19.712 116.644 19.5371 116.823 19.447 117.047C19.1254 117.847 18.7501 118.862 18.4408 119.686ZM23.7646 119.369C23.7146 119.264 23.686 119.15 23.6803 119.034C23.6747 118.918 23.6921 118.802 23.7316 118.693C24.0248 118.145 24.2096 117.545 24.276 116.928C24.291 116.797 24.291 116.666 24.276 116.536C24.177 116.338 23.9997 116.185 23.8966 115.983C23.8106 115.685 23.7827 115.373 23.8141 115.064L23.8512 114.651C23.907 114.344 24.007 114.047 24.1481 113.769C24.3233 113.43 24.5714 113.135 24.8744 112.904C25.1775 112.673 25.528 112.512 25.9007 112.433C26.6719 112.239 27.1997 112.284 27.5296 113.018C27.6556 113.418 27.6839 113.842 27.6121 114.255C27.4595 115.624 25.9626 119.299 24.6883 119.616C24.342 119.715 23.9213 119.711 23.7646 119.369ZM39.402 123.794C38.7216 123.794 36.5937 129.179 34.5689 129.179H34.4617C32.3998 129.179 32.4658 125.369 31.9874 124.128C31.5256 124.82 31.2328 126.016 30.907 127.315C30.6638 128.442 30.3258 129.545 29.8967 130.614C29.6929 131.078 29.4017 131.498 29.0389 131.852C28.3656 132.446 27.4865 132.754 26.5894 132.709C25.2409 132.709 24.7337 132.049 25.3523 129.823L25.4018 129.629C26.9193 124.68 28.5317 119.002 30.6019 115.196C31.3936 113.715 32.4328 112.573 33.6122 112.573C33.8718 112.572 34.1287 112.626 34.3661 112.731C34.6034 112.836 34.8159 112.99 34.9896 113.183C36.2267 114.358 35.6535 120.556 36.6391 120.556C37.7484 120.556 39.7237 114.008 42.5649 113.183C42.7543 113.13 42.9498 113.102 43.1464 113.101C43.5147 113.108 43.8727 113.224 44.1761 113.433C44.4795 113.641 44.7151 113.935 44.8536 114.276C45.4928 115.822 45.1753 117.596 44.9196 120.181C44.6186 123.068 44.3918 125.072 43.9918 127.357C43.8021 128.425 43.5505 129.538 43.2619 130.73C42.9637 131.328 42.5081 131.833 41.9443 132.191C41.3805 132.549 40.7296 132.747 40.0618 132.763C38.602 132.763 38.3298 131.249 38.4948 129.377L39.402 123.794ZM68.1365 122.157C67.8479 127.41 65.1715 132.957 59.4766 132.957C53.4641 132.957 52.0538 127.975 52.8992 121.983C53.6662 116.594 56.8085 112.441 61.5591 112.441C62.7561 112.415 63.9348 112.738 64.9502 113.373C65.9656 114.007 66.7735 114.925 67.2747 116.012C68.1324 117.703 68.2561 120.033 68.1365 122.157ZM61.1261 117.48C59.1797 117.48 58.3632 119.773 58.1075 122.07C57.9013 123.884 58.1941 126.759 60.1117 126.759C62.2973 126.759 63.0354 124.004 63.2292 121.983C63.4808 119.344 63.0684 117.501 61.1137 117.501L61.1261 117.48ZM75.1099 123.583C75.0356 125.707 74.8913 129.084 74.5944 130.953C74.4171 132.029 73.217 132.99 72.3634 132.99C72.3098 132.99 72.2521 132.957 72.1985 132.957C69.8974 132.59 69.9799 126.136 70.0995 123.06L70.1489 121.822C70.2383 119.8 70.4421 117.785 70.7593 115.785C71.0562 113.756 72.3428 112.899 73.2748 112.899C74.5573 112.899 75.6831 113.645 76.6439 115.097C77.4934 116.383 79.8316 121.06 80.7965 122.643V122.288C80.7594 121.612 80.6646 120.882 80.6481 120.103C80.578 116.771 80.5697 112.952 83.1224 112.952C83.4259 112.968 83.7184 113.071 83.9649 113.248C84.2114 113.426 84.4014 113.671 84.5121 113.954C85.0276 114.87 85.1925 117.789 85.2997 120.033L85.3286 120.61C85.5142 124.486 85.2461 128.416 84.2853 131.307C84.0909 131.739 83.7783 132.108 83.3835 132.37C82.9888 132.631 82.528 132.776 82.0543 132.788C79.1883 132.722 76.7223 125.249 75.1635 122.367L75.1099 123.583ZM102.937 117.62L99.7618 117.538C99.3094 117.514 98.8579 117.6 98.4463 117.789C97.9927 118.041 97.8896 118.804 97.9515 119.46C98.0257 120.206 98.0835 120.812 98.1824 121.278C98.8299 121.278 99.7041 121.249 100.298 121.249C102.084 121.249 103.23 121.542 103.457 123.311C103.667 124.961 103.193 125.398 101.56 125.46C100.426 125.517 99.2917 125.55 98.5494 125.827C98.5 127.501 99.1268 130.074 98.7556 131.827C98.5412 132.751 97.6463 132.953 96.9577 132.953C96.0216 132.953 95.0937 132.751 94.5287 131.794C94.1116 131.034 93.8825 130.186 93.8607 129.32L93.8071 128.524C93.5844 125.381 93.4483 121.612 93.2215 118.42C92.9535 114.639 93.3823 112.717 97.6628 112.503C99.0278 112.424 99.4443 112.424 99.8649 112.424C101.997 112.424 104.644 112.585 105.049 115.422C105.284 117.072 104.599 117.579 103.164 117.633L102.937 117.62ZM132.2 133.023C129.412 133.023 125.94 127.975 123.952 126.293C124.19 126.892 124.388 127.506 124.546 128.132C125.094 130.194 125.305 131.406 125.111 132.128C124.917 132.849 124.051 133.254 123.14 133.254C121.511 133.254 120.476 132.491 119.985 130.66C118.649 125.678 117.997 123.138 117.626 121.587C117.358 120.453 117.251 119.876 117.144 119.418L116.954 118.622C116.698 117.22 116.451 115.946 117.078 114.4C117.845 112.507 120.249 112.404 121.379 112.404C125.255 112.404 128.15 114.239 129.531 118.144L129.663 118.556C130.744 122.049 128.979 123.625 127.977 123.864C127.837 123.921 127.564 123.954 127.61 124.045C127.649 124.115 127.703 124.177 127.766 124.227C127.799 124.256 128.769 125.225 129.16 125.653C130.261 126.858 131.692 128.128 132.492 129.093C133.061 129.734 133.504 130.477 133.795 131.282C134.113 132.301 133.602 132.965 132.298 133.031L132.2 133.023ZM122.636 116.342C122.417 116.315 122.195 116.341 121.988 116.419C121.781 116.496 121.596 116.623 121.449 116.787L122.331 120.119C122.566 120.187 122.809 120.225 123.053 120.235C124.389 120.235 125.197 119.546 124.768 118.012C124.626 117.55 124.345 117.142 123.964 116.843C123.583 116.545 123.12 116.37 122.636 116.342ZM112.653 119.686L113.201 122.544C113.494 124.066 113.729 125.843 114.026 127.315C114.037 127.496 114.093 127.671 114.188 127.825C114.283 127.979 114.414 128.107 114.57 128.198C115.626 128.767 115.939 128.99 116.22 130.4C116.426 131.439 116.356 132.462 115.502 132.722C114.954 132.887 113.527 132.924 112.121 132.924C109.667 132.924 108.719 132.689 108.376 130.528C108.261 129.786 108.187 128.99 108.669 128.639C109.251 128.227 109.543 127.88 109.494 127.505C109.139 125.402 108.809 123.258 108.414 120.907C108.302 120.243 108.224 119.468 108.104 118.754C108.03 118.178 107.884 117.613 107.671 117.072C107.584 116.889 107.458 116.728 107.302 116.599C107.146 116.47 106.964 116.377 106.768 116.325C106.261 116.132 105.943 115.501 105.84 114.742C105.751 114.298 105.762 113.84 105.873 113.402C106.183 112.552 107.618 112.474 108.76 112.474H109.325C111.605 112.474 112.735 112.845 113.106 114.309L113.164 114.606C113.407 115.802 113.02 116.255 112.339 116.573C112.256 116.623 112.19 116.698 112.153 116.788C112.116 116.878 112.109 116.978 112.133 117.072C112.294 117.847 112.492 118.862 112.653 119.686ZM138.563 120.004C140.241 120.033 141.73 120.033 142.274 121.455C143.391 124.305 140.765 124.247 138.905 124.486L139.049 124.899C139.387 125.814 140.047 126.899 141.251 127.117C141.741 127.178 142.234 127.208 142.728 127.208C143.796 127.208 144.649 126.928 145.639 126.928C146.629 126.928 147.672 127.93 148.084 128.94C149.458 132.309 146.208 133.006 143.89 133.006C141.024 133.006 138.653 132.144 137.226 130.709C135.577 129.035 134.03 125.662 133.016 122.647C131.779 118.965 131.206 114.965 132.604 113.649C133.305 112.985 135.012 112.412 137.07 112.412C138.938 112.412 141.259 112.94 142.142 115.109C142.239 115.329 142.314 115.558 142.365 115.794C142.641 118.095 136.435 116.066 136.748 118.293C136.808 118.612 136.898 118.926 137.016 119.229C137.113 119.502 137.227 119.77 137.358 120.029L138.563 120.004Z" fill="#EDF2F4"/>
</svg>
