<svg width="155" height="155" viewBox="0 0 155 155" fill="none" xmlns="http://www.w3.org/2000/svg">
<path d="M77.5671 69.038C72.1386 69.0358 66.7629 70.1034 61.7472 72.1798C56.7315 74.2562 52.1741 77.3007 48.3356 81.1392C44.4971 84.9777 41.4526 89.5351 39.3762 94.5508C37.2998 99.5664 36.2322 104.942 36.2344 110.371H42.1396C42.2403 101.04 46.0174 92.1264 52.6507 85.5642C59.2841 79.002 68.2383 75.3213 77.5691 75.3213C86.8999 75.3213 95.8541 79.002 102.488 85.5642C109.121 92.1264 112.898 101.04 112.999 110.371H118.9C118.902 104.942 117.835 99.5661 115.759 94.5501C113.683 89.5342 110.638 84.9766 106.8 81.138C102.961 77.2994 98.4035 74.2549 93.3876 72.1787C88.3717 70.1025 82.9957 69.0353 77.5671 69.038Z" fill="#4ACFFF" stroke="#00B8F0" stroke-width="2.42" stroke-linecap="round" stroke-linejoin="round"/>
<path d="M36.2371 110.371C36.2371 99.4086 40.5918 88.8954 48.3431 81.1441C56.0945 73.3927 66.6076 69.038 77.5698 69.038C88.5319 69.038 99.045 73.3927 106.796 81.1441C114.548 88.8954 118.902 99.4086 118.902 110.371H124.808C124.691 97.9194 119.663 86.0176 110.818 77.2541C101.972 68.4905 90.0236 63.5741 77.5718 63.5741C65.12 63.5741 53.1718 68.4905 44.326 77.2541C35.4801 86.0176 30.4523 97.9194 30.3359 110.371H36.2371Z" fill="#00F5BC" stroke="#00DBA8" stroke-width="2.42" stroke-linecap="round" stroke-linejoin="round"/>
<path d="M30.3358 110.371C30.4522 97.9193 35.48 86.0176 44.3258 77.254C53.1716 68.4905 65.1199 63.574 77.5717 63.574C90.0235 63.574 101.972 68.4905 110.818 77.254C119.663 86.0176 124.691 97.9193 124.808 110.371H130.696C130.573 96.3578 124.92 82.9609 114.967 73.0957C105.015 63.2305 91.5686 57.6956 77.5552 57.6956C63.5418 57.6956 50.0956 63.2305 40.1432 73.0957C30.1907 82.9609 24.5375 96.3578 24.4141 110.371H30.3358Z" fill="#FFF48C" stroke="#FFE500" stroke-width="2.42" stroke-linecap="round" stroke-linejoin="round"/>
<path d="M24.4287 110.371C24.5521 96.3579 30.2053 82.961 40.1578 73.0957C50.1103 63.2305 63.5565 57.6956 77.5698 57.6956C91.5832 57.6956 105.029 63.2305 114.982 73.0957C124.934 82.961 130.588 96.3579 130.711 110.371H136.616C136.486 94.7961 130.208 79.9036 119.149 68.9365C108.089 57.9693 93.145 51.8157 77.5698 51.8157C61.9947 51.8157 47.0503 57.9693 35.9911 68.9365C24.9319 79.9036 18.6536 94.7961 18.5234 110.371H24.4287Z" fill="#FF866E" stroke="#EF233C" stroke-width="2.42" stroke-linecap="round" stroke-linejoin="round"/>
<path d="M127.318 104.89C124.69 104.88 122.119 105.645 119.924 107.088C118.159 105.221 116.026 103.74 113.66 102.739C111.293 101.738 108.745 101.238 106.176 101.271C103.607 101.304 101.073 101.869 98.7334 102.93C96.3937 103.992 94.2995 105.527 92.5829 107.439C88.585 103.486 83.1899 101.27 77.5682 101.27C71.9465 101.27 66.5514 103.486 62.5535 107.439C60.8369 105.527 58.7427 103.992 56.403 102.93C54.0634 101.869 51.529 101.304 48.96 101.271C46.3909 101.238 43.843 101.738 41.4768 102.739C39.1107 103.74 36.9779 105.221 35.2128 107.088C33.0178 105.645 30.446 104.88 27.8189 104.89C20.8373 104.89 15.1836 110.057 15.1836 116.437C15.1836 122.816 20.8373 127.983 27.8189 127.983C30.0715 127.981 32.2875 127.414 34.2643 126.334C37.4232 130.544 42.7222 133.303 48.7306 133.303C52.9943 133.333 57.1362 131.882 60.4504 129.2C63.9803 134.454 70.3475 137.959 77.5682 137.959C84.7889 137.959 91.1767 134.454 94.6901 129.2C98.0024 131.883 102.143 133.333 106.406 133.303C112.414 133.303 117.713 130.544 120.872 126.334C122.849 127.414 125.065 127.981 127.318 127.983C134.299 127.983 139.953 122.816 139.953 116.437C139.953 110.057 134.299 104.89 127.318 104.89Z" fill="white"/>
<path d="M134.609 107.006C134.9 107.947 135.049 108.927 135.05 109.913C135.05 115.789 129.838 120.552 123.409 120.552C122.62 120.552 121.833 120.477 121.058 120.33C119.986 120.114 118.88 120.128 117.813 120.372C116.747 120.616 115.744 121.083 114.872 121.744C111.829 124.173 108.044 125.483 104.151 125.455C101.946 125.467 99.7588 125.061 97.7051 124.26C95.1442 123.241 92.0266 123.674 90.0637 125.319C86.5327 128.195 82.1182 129.765 77.5645 129.765C73.0108 129.765 68.5963 128.195 65.0653 125.319C63.1024 123.67 59.9889 123.257 57.4239 124.26C55.3765 125.065 53.1952 125.476 50.995 125.472C47.1014 125.499 43.3165 124.189 40.2731 121.761C39.4018 121.099 38.3994 120.63 37.3328 120.386C36.2662 120.143 35.1598 120.129 34.0875 120.346C33.3126 120.494 32.5257 120.568 31.7369 120.569C25.3079 120.569 20.0955 115.806 20.0955 109.929C20.0965 108.944 20.2452 107.964 20.5367 107.022C17.3037 109.113 15.1758 112.556 15.1758 116.449C15.1758 122.829 20.8295 127.996 27.8111 127.996C30.0636 127.993 32.2797 127.426 34.2565 126.346C37.4153 130.557 42.7144 133.315 48.7228 133.315C52.9864 133.345 57.1284 131.895 60.4426 129.212C63.9725 134.466 70.3396 137.971 77.5604 137.971C84.7811 137.971 91.1689 134.466 94.6823 129.212C97.9946 131.895 102.135 133.346 106.398 133.315C112.406 133.315 117.705 130.557 120.864 126.346C122.841 127.426 125.057 127.993 127.31 127.996C134.291 127.996 139.945 122.829 139.945 116.449C139.953 112.552 137.842 109.096 134.609 107.006Z" fill="#E5F8FF"/>
<path d="M127.318 104.89C124.69 104.88 122.119 105.645 119.924 107.088C118.159 105.221 116.026 103.74 113.66 102.739C111.293 101.738 108.745 101.238 106.176 101.271C103.607 101.304 101.073 101.869 98.7334 102.93C96.3937 103.992 94.2995 105.527 92.5829 107.439C88.585 103.486 83.1899 101.27 77.5682 101.27C71.9465 101.27 66.5514 103.486 62.5535 107.439C60.8369 105.527 58.7427 103.992 56.403 102.93C54.0634 101.869 51.529 101.304 48.96 101.271C46.3909 101.238 43.843 101.738 41.4768 102.739C39.1107 103.74 36.9779 105.221 35.2128 107.088C33.0178 105.645 30.446 104.88 27.8189 104.89C20.8373 104.89 15.1836 110.057 15.1836 116.437C15.1836 122.816 20.8373 127.983 27.8189 127.983C30.0715 127.981 32.2875 127.414 34.2643 126.334C37.4232 130.544 42.7222 133.303 48.7306 133.303C52.9943 133.333 57.1362 131.882 60.4504 129.2C63.9803 134.454 70.3475 137.959 77.5682 137.959C84.7889 137.959 91.1767 134.454 94.6901 129.2C98.0024 131.883 102.143 133.333 106.406 133.303C112.414 133.303 117.713 130.544 120.872 126.334C122.849 127.414 125.065 127.981 127.318 127.983C134.299 127.983 139.953 122.816 139.953 116.437C139.953 110.057 134.299 104.89 127.318 104.89Z" stroke="#45413C" stroke-width="2.42" stroke-linecap="round" stroke-linejoin="round"/>
<path d="M54.4453 115.921C54.4453 116.83 56.9487 117.702 61.4048 118.344C65.8609 118.987 71.9047 119.348 78.2066 119.348C84.5084 119.348 90.5522 118.987 95.0083 118.344C99.4644 117.702 101.968 116.83 101.968 115.921C101.968 115.012 99.4644 114.141 95.0083 113.498C90.5522 112.855 84.5084 112.494 78.2066 112.494C71.9047 112.494 65.8609 112.855 61.4048 113.498C56.9487 114.141 54.4453 115.012 54.4453 115.921Z" fill="#E0E0E0"/>
<path d="M110.17 64.6008C110.169 58.8265 108.634 53.1562 105.722 48.1697C102.81 43.1832 98.6264 39.0594 93.5983 36.2202C88.5702 33.3809 82.8783 31.928 77.1045 32.01C71.3308 32.092 65.6824 33.706 60.737 36.6869C55.7915 39.6678 51.7265 43.9086 48.9576 48.9758C46.1887 54.043 44.8153 59.7546 44.9778 65.5266C45.1402 71.2987 46.8328 76.924 49.8823 81.8274C52.9318 86.7308 57.229 90.7363 62.3342 93.4343V103.793L58.7342 105.731C57.6713 106.304 56.83 107.214 56.3435 108.319C55.8571 109.424 55.7534 110.659 56.0489 111.829C56.3445 113 57.0223 114.038 57.9749 114.779C58.9275 115.52 60.1004 115.922 61.3074 115.921H93.7904C94.9975 115.922 96.1703 115.52 97.1229 114.779C98.0755 114.038 98.7534 113 99.0489 111.829C99.3444 110.659 99.2408 109.424 98.7543 108.319C98.2679 107.214 97.4265 106.304 96.3637 105.731L92.7636 103.793V93.4343C98.0165 90.67 102.414 86.5231 105.482 81.4415C108.55 76.3599 110.171 70.5367 110.17 64.6008Z" fill="white"/>
<path d="M109.077 56.2172C107.247 63.1789 103.164 69.3386 97.4634 73.7342C91.7632 78.1298 84.7677 80.5138 77.5695 80.5138C70.3713 80.5138 63.3758 78.1298 57.6756 73.7342C51.9754 69.3386 47.8915 63.1789 46.0617 56.2172C45.7562 57.3673 45.5139 58.5333 45.3359 59.71C46.5061 67.4208 50.4017 74.4566 56.3157 79.5408C62.2298 84.6251 69.7704 87.4208 77.5695 87.4208C85.3686 87.4208 92.9092 84.6251 98.8233 79.5408C104.737 74.4566 108.633 67.4208 109.803 59.71C109.627 58.533 109.385 57.3668 109.077 56.2172Z" fill="#F0F0F0"/>
<path d="M110.17 64.6008C110.169 58.8265 108.634 53.1562 105.722 48.1697C102.81 43.1832 98.6264 39.0594 93.5983 36.2202C88.5702 33.3809 82.8783 31.928 77.1045 32.01C71.3308 32.092 65.6824 33.706 60.737 36.6869C55.7915 39.6678 51.7265 43.9086 48.9576 48.9758C46.1887 54.043 44.8153 59.7546 44.9778 65.5266C45.1402 71.2987 46.8328 76.924 49.8823 81.8274C52.9318 86.7308 57.229 90.7363 62.3342 93.4343V103.793L58.7342 105.731C57.6713 106.304 56.83 107.214 56.3435 108.319C55.8571 109.424 55.7534 110.659 56.0489 111.829C56.3445 113 57.0223 114.038 57.9749 114.779C58.9275 115.52 60.1004 115.922 61.3074 115.921H93.7904C94.9975 115.922 96.1703 115.52 97.1229 114.779C98.0755 114.038 98.7534 113 99.0489 111.829C99.3444 110.659 99.2408 109.424 98.7543 108.319C98.2679 107.214 97.4265 106.304 96.3637 105.731L92.7636 103.793V93.4343C98.0165 90.67 102.414 86.5231 105.482 81.4415C108.55 76.3599 110.171 70.5367 110.17 64.6008Z" stroke="#45413C" stroke-width="2.42" stroke-linecap="round" stroke-linejoin="round"/>
<path d="M72.1758 115.921C72.1758 115.921 75.0624 108.75 90.2874 108.75" stroke="#45413C" stroke-width="2.42" stroke-linecap="round" stroke-linejoin="round"/>
<path d="M93.9939 83.4052C100.155 78.869 104.435 66.3492 103.891 59.0749C103.817 58.0728 103.582 57.2893 103.244 56.9305C102.905 56.5717 102.122 56.4769 101.536 56.4769C100.384 56.4769 99.278 56.0189 98.4629 55.2038C97.6478 54.3887 97.1899 53.2832 97.1899 52.1304C97.1899 51.3056 92.4186 49.7675 92.8022 49.12C93.5815 47.854 99.9487 47.8087 101.54 47.8087C107.846 47.8087 112.073 51.883 112.567 58.448C113.009 64.3451 112.774 70.6421 108.592 79.6732C106.79 83.5578 100.419 91.7105 92.7857 93.4755M61.1397 83.4052C54.9829 78.869 50.6983 66.3492 51.2427 59.0749C51.3169 58.0728 51.5519 57.2893 51.8901 56.9305C52.2282 56.5717 53.0118 56.4769 53.5973 56.4769C54.7501 56.4769 55.8556 56.0189 56.6708 55.2038C57.4859 54.3887 57.9438 53.2832 57.9438 52.1304C57.9438 51.3056 62.715 49.7675 62.3315 49.12C61.5727 47.8458 55.1891 47.7839 53.5973 47.7839C47.2921 47.7839 43.0652 51.8582 42.5745 58.4233C42.1291 64.3203 42.3642 70.6173 46.5498 79.6484C48.3478 83.533 54.719 91.6857 62.3521 93.4507" fill="white"/>
<path d="M93.9939 83.4052C100.155 78.869 104.435 66.3492 103.891 59.0749C103.817 58.0728 103.582 57.2893 103.244 56.9305C102.905 56.5717 102.122 56.4769 101.536 56.4769C100.384 56.4769 99.278 56.0189 98.4629 55.2038C97.6478 54.3887 97.1899 53.2832 97.1899 52.1304C97.1899 51.3056 92.4186 49.7675 92.8022 49.12C93.5815 47.854 99.9487 47.8087 101.54 47.8087C107.846 47.8087 112.073 51.883 112.567 58.448C113.009 64.3451 112.774 70.6421 108.592 79.6732C106.79 83.5578 100.419 91.7105 92.7857 93.4755M61.1397 83.4052C54.9829 78.869 50.6983 66.3492 51.2427 59.0749C51.3169 58.0728 51.5519 57.2893 51.8901 56.9305C52.2282 56.5717 53.0118 56.4769 53.5973 56.4769C54.7501 56.4769 55.8556 56.0189 56.6708 55.2038C57.4859 54.3887 57.9438 53.2832 57.9438 52.1304C57.9438 51.3056 62.715 49.7675 62.3315 49.12C61.5727 47.8458 55.1891 47.7839 53.5973 47.7839C47.2921 47.7839 43.0652 51.8582 42.5745 58.4233C42.1291 64.3203 42.3642 70.6173 46.5498 79.6484C48.3478 83.533 54.719 91.6857 62.3521 93.4507" stroke="#45413C" stroke-width="2.42" stroke-linecap="round" stroke-linejoin="round"/>
<path d="M79.7615 70.4895C79.7615 71.1764 79.4887 71.8351 79.003 72.3207C78.5173 72.8064 77.8586 73.0792 77.1718 73.0792C76.4849 73.0792 75.8262 72.8064 75.3406 72.3207C74.8549 71.8351 74.582 71.1764 74.582 70.4895V67.8998C75.3761 68.334 76.2667 68.5616 77.1718 68.5616C78.0768 68.5616 78.9674 68.334 79.7615 67.8998V70.4895Z" fill="#FFCCDD" stroke="#45413C" stroke-width="2.42" stroke-linecap="round" stroke-linejoin="round"/>
<path d="M67.0753 64.741C67.6101 65.1939 68.2869 65.4448 68.9877 65.4501C69.6885 65.4554 70.3689 65.2146 70.9105 64.7698M87.2736 64.741C86.7388 65.1939 86.0621 65.4448 85.3613 65.4501C84.6605 65.4554 83.9801 65.2146 83.4385 64.7698M65.1289 60.9388C65.7351 60.2007 68.8403 59.5615 69.7434 59.8254M89.2118 60.9388C88.6056 60.2007 85.4798 59.5615 84.5973 59.8254" stroke="#45413C" stroke-width="2.42" stroke-linecap="round" stroke-linejoin="round"/>
<path d="M84.9727 68.6503C84.9727 69.0397 85.3593 69.4131 86.0476 69.6884C86.7359 69.9637 87.6694 70.1184 88.6428 70.1184C89.6162 70.1184 90.5497 69.9637 91.238 69.6884C91.9263 69.4131 92.313 69.0397 92.313 68.6503C92.313 68.261 91.9263 67.8876 91.238 67.6122C90.5497 67.3369 89.6162 67.1823 88.6428 67.1823C87.6694 67.1823 86.7359 67.3369 86.0476 67.6122C85.3593 67.8876 84.9727 68.261 84.9727 68.6503Z" fill="#FFB0CA"/>
<path d="M62.0352 68.6503C62.0352 69.0397 62.4218 69.4131 63.1101 69.6884C63.7984 69.9637 64.7319 70.1184 65.7053 70.1184C66.6787 70.1184 67.6122 69.9637 68.3005 69.6884C68.9888 69.4131 69.3755 69.0397 69.3755 68.6503C69.3755 68.261 68.9888 67.8876 68.3005 67.6122C67.6122 67.3369 66.6787 67.1823 65.7053 67.1823C64.7319 67.1823 63.7984 67.3369 63.1101 67.6122C62.4218 67.8876 62.0352 68.261 62.0352 68.6503Z" fill="#FFB0CA"/>
<path d="M78.2096 87.1084L72.9766 106.606L78.2096 112.981L83.4386 106.606L78.2096 87.1084Z" fill="#EF233C" stroke="#45413C" stroke-width="2.42" stroke-linecap="round" stroke-linejoin="round"/>
<path d="M74.8828 87.1084C74.8828 87.78 75.233 88.424 75.8563 88.8988C76.4797 89.3737 77.3251 89.6404 78.2066 89.6404C79.0881 89.6404 79.9335 89.3737 80.5568 88.8988C81.1802 88.424 81.5303 87.78 81.5303 87.1084C81.5303 86.4369 81.1802 85.7929 80.5568 85.318C79.9335 84.8432 79.0881 84.5764 78.2066 84.5764C77.3251 84.5764 76.4797 84.8432 75.8563 85.318C75.233 85.7929 74.8828 86.4369 74.8828 87.1084Z" fill="#EF233C" stroke="#45413C" stroke-width="2.42" stroke-linecap="round" stroke-linejoin="round"/>
<path d="M64.854 108.75C80.0707 108.75 82.9656 115.921 82.9656 115.921H61.3281" fill="white"/>
<path d="M64.854 108.75C80.0707 108.75 82.9656 115.921 82.9656 115.921H61.3281" stroke="#45413C" stroke-width="2.42" stroke-linecap="round" stroke-linejoin="round"/>
<path d="M28.6562 53.8418C28.1826 53.8563 27.7178 53.7111 27.3366 53.4294C26.6686 52.9181 26.0748 51.8871 25.4479 50.7943C25.2995 50.5386 25.1551 50.2871 25.0149 50.052C24.417 49.0541 23.8562 48.0273 23.4314 47.2437C22.9448 46.3365 22.4706 45.4252 22.0541 44.621C21.6417 44.8808 21.2004 45.1612 20.8458 45.3757C20.214 45.7686 19.5149 46.0412 18.7839 46.1798C18.6709 46.1998 18.5564 46.2095 18.4416 46.2087C17.3571 46.2087 16.1942 45.4334 15.3282 44.1468C14.1117 42.3282 14.5034 40.2044 16.2725 38.8683C17.6045 37.8663 18.3014 37.3632 19.6623 36.4229C21.9633 34.8353 23.9551 33.6476 24.9118 33.0785L25.2335 32.8889C26.7057 32.0022 27.9428 31.5734 29.0274 31.5734C30.4954 31.5734 31.6666 32.3981 32.3264 33.8332C33.4563 36.3075 30.9821 38.2168 29.1717 39.6065L28.8789 39.8333C29.5222 41.0127 30.3594 42.4602 31.1759 43.8622L31.2089 43.9158C31.8398 45.0045 32.5079 46.1633 33.0976 47.2973C33.2006 47.4912 33.2996 47.7097 33.3945 47.8994C33.4893 48.0891 33.5677 48.2623 33.6584 48.4314L33.8357 48.7737L33.7903 49.1572C33.6079 50.4092 32.9968 51.5592 32.0614 52.4112C31.1259 53.2632 29.924 53.7644 28.6604 53.8294L28.6562 53.8418Z" fill="#45413C"/>
<path d="M29.0153 32.8105C29.9308 32.8105 30.6937 33.2518 31.1968 34.3487C32.0793 36.2786 29.1803 37.9364 27.3039 39.5199C27.3699 39.6519 27.407 39.7137 27.473 39.8416C28.1534 41.1447 29.1761 42.9014 30.137 44.5509C30.7679 45.6437 31.4236 46.7819 31.9968 47.8788C32.1865 48.2458 32.368 48.65 32.5576 49.017C32.4753 49.61 32.2648 50.178 31.9408 50.6815C31.6168 51.185 31.187 51.6119 30.6813 51.9325C30.0756 52.328 29.3783 52.5609 28.6565 52.6088C28.4571 52.622 28.2588 52.5699 28.0916 52.4603C27.4854 51.9985 26.7266 50.5098 26.0751 49.4294C25.5348 48.5262 25.0194 47.5902 24.5204 46.6664C23.7699 45.2726 23.0441 43.8499 22.5286 42.8643C22.2399 43.0375 20.9987 43.854 20.211 44.3282C19.7065 44.6445 19.1469 44.8628 18.5615 44.9715C18.519 44.976 18.4762 44.976 18.4337 44.9715C17.9718 44.9715 17.1347 44.6293 16.3471 43.4499C15.4357 42.089 15.8563 40.7117 17.0069 39.8498C18.3347 38.8519 19.0028 38.3694 20.3554 37.4333C22.941 35.6477 25.1513 34.3652 25.8647 33.9404C26.9947 33.2559 28.0875 32.8023 29.0194 32.8023M29.0194 30.328C27.704 30.328 26.2565 30.8146 24.5905 31.8167L24.273 32.0064C23.2998 32.5919 21.2832 33.7878 18.9409 35.4085C17.5636 36.357 16.879 36.8683 15.514 37.8828C13.2089 39.6148 12.7016 42.4725 14.2769 44.8396C15.8522 47.2066 17.6997 47.4582 18.4007 47.4582C18.5959 47.4539 18.7904 47.4332 18.9822 47.3963C19.8671 47.2299 20.714 46.9028 21.4812 46.4314L21.576 46.3778C21.8234 46.8479 22.0791 47.3345 22.343 47.8252C22.7554 48.6211 23.341 49.6644 23.9554 50.6871C24.0915 50.9139 24.2317 51.1572 24.3678 51.4088C25.0606 52.6088 25.7122 53.747 26.574 54.4068C27.1692 54.8492 27.8945 55.0813 28.6359 55.0666C30.2042 55.0013 31.6998 54.3877 32.8619 53.3326C34.024 52.2775 34.7788 50.848 34.9948 49.2933L35.0897 48.5304L34.7309 47.8458C34.6484 47.685 34.5659 47.5159 34.4876 47.3468C34.4092 47.1778 34.2773 46.9345 34.17 46.7077C33.5721 45.553 32.8958 44.3818 32.2525 43.2808L32.2277 43.2354C31.6174 42.1839 30.9906 41.1076 30.4504 40.1426C32.335 38.6498 34.8257 36.3446 33.4278 33.2889C32.5618 31.3961 30.9535 30.3074 28.9947 30.3074L29.0194 30.328Z" fill="#45413C"/>
<path d="M40.0026 47.0912C39.7938 47.0918 39.5854 47.0738 39.3799 47.0376C38.2706 46.852 37.1283 45.9695 35.8994 44.3365C34.7885 42.7888 33.8405 41.1305 33.0705 39.388C32.4308 37.9358 31.8692 36.4505 31.388 34.9384C30.8643 33.2889 30.8065 32.5466 30.8395 32.126C30.8024 30.4765 32.0767 29.1074 33.3963 28.4723C33.9797 28.1706 34.6242 28.0056 35.2808 27.9898C36.5798 27.9898 37.6273 28.7651 38.1427 30.1177L38.9922 32.3239C39.0932 32.6156 39.2319 32.8929 39.4046 33.1487C39.4655 33.1335 39.5248 33.1128 39.5819 33.0868C39.8723 32.9939 40.1404 32.8423 40.3696 32.6415C40.4273 32.3899 40.0232 31.2188 39.8706 30.7775L39.6933 30.262C39.4731 29.703 39.3695 29.1049 39.3891 28.5044C39.4086 27.9039 39.5508 27.3138 39.8069 26.7703C40.063 26.2268 40.4276 25.7415 40.8782 25.3442C41.3289 24.9468 41.8561 24.6459 42.4274 24.4599C42.9861 24.2392 43.5794 24.1192 44.18 24.1052C45.6645 24.1052 46.7779 25.0042 47.479 26.7857C47.7058 27.3548 47.978 28.1878 48.2625 29.1898C49.1285 32.2414 50.246 37.2147 50.543 39.9323C50.8316 42.5344 49.5697 43.5736 48.4604 43.9819C47.9204 44.2023 47.3446 44.3225 46.7615 44.3365C46.2569 44.3432 45.76 44.2124 45.3241 43.9581C44.8882 43.7039 44.5297 43.3357 44.2872 42.8932C43.7089 41.7902 43.2193 40.6429 42.8232 39.4622C42.7437 39.2211 42.6515 38.9843 42.5469 38.7529L42.316 38.8436C42.1102 38.9276 41.9116 39.0283 41.7222 39.1447C41.7367 39.2065 41.756 39.2672 41.7799 39.3261C41.9696 39.8168 42.1593 40.2168 42.349 40.6086C42.5387 41.0004 42.683 41.3055 42.8274 41.6767C43.7016 43.9654 43.1861 45.9572 41.516 46.7572C41.0429 46.9803 40.5257 47.0945 40.0026 47.0912Z" fill="#45413C"/>
<path d="M44.1659 25.3341C45.0938 25.3341 45.7825 25.8784 46.3227 27.2351C46.6088 27.9835 46.8565 28.7461 47.065 29.5197C48.0441 32.9785 48.7935 36.4983 49.3083 40.056C49.4444 41.2931 49.2258 42.3694 48.0258 42.8148C47.6216 42.9797 47.1918 43.0732 46.7557 43.0911C46.4674 43.1002 46.1824 43.0275 45.9336 42.8816C45.6848 42.7357 45.4823 42.5224 45.3495 42.2663C44.8083 41.2362 44.3531 40.1631 43.9886 39.058C43.5762 37.8827 43.2793 37.4456 42.7515 37.4456C42.4283 37.4715 42.1132 37.5597 41.8236 37.7054C40.7061 38.1838 40.1741 38.6291 40.6195 39.7673C40.9989 40.7611 41.3948 41.4168 41.6628 42.1137C42.1948 43.4993 42.2195 45.0416 40.9782 45.6355C40.6732 45.7818 40.3392 45.8579 40.0009 45.8581C39.8628 45.859 39.7248 45.8479 39.5885 45.8251C38.7184 45.6767 37.7535 44.7488 36.8875 43.5983C35.8299 42.1204 34.9289 40.5366 34.1987 38.8725C33.5748 37.4627 33.0242 36.0215 32.5492 34.5549C32.2317 33.4868 32.0173 32.5507 32.075 32.1383C32.0049 30.9012 33.1678 29.928 33.9307 29.5568C34.3474 29.3372 34.8084 29.2145 35.2792 29.1981C36.1039 29.1981 36.673 29.7053 36.9864 30.53C37.2998 31.3548 37.4978 31.8744 37.8359 32.7569C38.1988 33.7012 38.5782 34.4064 39.3246 34.4064C39.5821 34.3883 39.8332 34.3181 40.0628 34.2002C41.8937 33.4043 41.8814 32.8435 41.0277 30.3527C40.9535 30.1465 40.9205 30.0434 40.8463 29.8372C40.2112 27.9898 40.9494 26.299 42.8422 25.6021C43.2635 25.4313 43.7116 25.3364 44.1659 25.3217M44.1659 22.8474C43.42 22.8538 42.6812 22.9935 41.9845 23.2598C39.7741 24.0846 38.4091 25.8166 38.1782 27.8826C37.798 27.5065 37.3473 27.209 36.852 27.0074C36.3566 26.8057 35.8264 26.7037 35.2916 26.7073C34.4477 26.7219 33.6183 26.9293 32.8668 27.3135C30.6069 28.4104 29.6213 30.4228 29.6131 32.027C29.576 32.5961 29.6585 33.4744 30.2152 35.26C30.7135 36.8191 31.293 38.3512 31.9513 39.8498C32.7553 41.6828 33.7506 43.4258 34.9204 45.0499C36.3514 46.9468 37.7493 47.986 39.1927 48.2293C39.4652 48.2745 39.7411 48.2966 40.0174 48.2953C40.7309 48.3007 41.4362 48.1427 42.0793 47.8334C42.6871 47.5517 43.2181 47.1276 43.6273 46.5972C44.0364 46.0667 44.3117 45.4454 44.4299 44.786C45.1182 45.2794 45.9459 45.5408 46.7928 45.5324C47.5224 45.5239 48.2446 45.3842 48.9248 45.12C49.9269 44.7447 52.2238 43.4705 51.8114 39.7591C51.5104 36.9796 50.3722 31.9239 49.4939 28.8145C49.2877 28.0888 48.9743 27.0578 48.6691 26.2908C47.5268 23.4289 45.6134 22.8309 44.2113 22.8309L44.1659 22.8474Z" fill="#45413C"/>
<path d="M52.8885 42.3077C51.54 42.3077 50.6534 41.5406 50.2452 40.0313C50.1091 39.5159 49.7421 38.1468 50.74 37.1447C50.8608 37.0273 50.975 36.9034 51.0823 36.7735C50.8513 35.689 50.5462 34.5013 50.2245 33.2518C50.0843 32.6951 49.9359 32.1302 49.8122 31.5487C49.7379 31.2436 49.6678 30.9137 49.5977 30.5714C49.5276 30.2291 49.4699 29.9322 49.3915 29.627C49.3184 29.3029 49.2177 28.9856 49.0905 28.6786H48.9585C47.8534 28.6538 46.9791 27.8538 46.6286 26.5342C46.4363 25.8533 46.4363 25.1325 46.6286 24.4517C47.1152 22.9218 49.1688 22.1836 50.905 21.7135L51.5936 21.5279C52.5515 21.247 53.5405 21.0863 54.538 21.0496C56.7195 21.0496 57.3834 22.4063 57.5855 23.2145V23.2888L57.6391 23.5733C57.7767 24.1668 57.7323 24.7881 57.5116 25.3559C57.291 25.9238 56.9043 26.412 56.402 26.7569C56.4679 27.1693 56.5669 27.6476 56.6576 28.0806C56.7016 28.2813 56.7429 28.4751 56.7814 28.6621L57.2927 31.1982C57.4288 31.8786 57.5484 32.6127 57.6638 33.3178C57.7587 33.924 57.8535 34.5013 57.9525 35.0292C59.1154 35.3756 59.734 35.8952 60.0144 37.421C60.2948 38.9468 59.7917 40.2334 58.6082 40.8272C57.6718 41.2085 56.7065 41.5147 55.7215 41.7427L55.3092 41.854C54.526 42.1122 53.712 42.2648 52.8885 42.3077Z" fill="#45413C"/>
<path d="M54.5005 22.3032C55.548 22.3032 56.15 22.6785 56.348 23.5403C56.348 23.6558 56.3768 23.7135 56.4016 23.8249C56.6078 24.9589 56.1294 25.4744 55.3541 25.994C55.2646 26.0513 55.1934 26.1329 55.1488 26.2294C55.1042 26.3258 55.0882 26.433 55.1026 26.5383C55.1851 27.2394 55.4036 28.1878 55.5521 28.9342C55.7542 29.9404 55.8572 30.4435 56.0593 31.4539C56.3232 32.7611 56.5129 34.2787 56.7645 35.5117C56.8511 35.9488 57.0449 36.0931 57.2758 36.1467C58.2779 36.3942 58.5707 36.5261 58.781 37.6602C58.9336 38.4849 58.8264 39.3385 58.0387 39.7221C57.0359 40.1012 56.0097 40.4152 54.9665 40.6623C54.2981 40.8814 53.6059 41.0199 52.9046 41.0747C52.1417 41.0747 51.7252 40.7118 51.4572 39.7138C51.3046 39.1365 51.1809 38.4767 51.6221 38.0643C52.15 37.5447 52.4469 37.1529 52.3726 36.856C52.0304 35.2065 51.5149 33.3219 51.0077 31.2889C50.8633 30.7075 50.7479 30.0064 50.5953 29.3714C50.4903 28.8537 50.3053 28.3557 50.0468 27.895C49.9193 27.7426 49.7552 27.6248 49.5699 27.5527C49.3846 27.4806 49.1841 27.4565 48.987 27.4827C48.4014 27.4827 48.0179 26.9631 47.8282 26.2455C47.6926 25.8055 47.6755 25.3375 47.7788 24.8888C48.0922 23.9156 49.82 23.3135 51.2139 22.9383L51.8984 22.7527C52.7529 22.5001 53.6351 22.3533 54.5253 22.3156M54.5253 19.8413C53.4218 19.877 52.3273 20.0516 51.2675 20.3609L50.5664 20.5465C48.5417 21.0949 46.1292 21.9939 45.4364 24.1053C45.1774 25.0137 45.1774 25.9763 45.4364 26.8847C45.9148 28.6744 47.0571 29.5528 48.1623 29.8374C48.1623 29.8745 48.1623 29.9157 48.1953 29.9611C48.2612 30.2332 48.3231 30.5343 48.3891 30.8518C48.4551 31.1693 48.5293 31.5446 48.6159 31.8827C48.7602 32.4683 48.9087 33.0374 49.053 33.5941C49.3087 34.5921 49.552 35.5488 49.7582 36.4395C48.8427 37.4004 48.6324 38.7365 49.0448 40.353C49.787 43.1283 51.7665 43.5448 52.8799 43.5448C53.8077 43.5007 54.7256 43.3343 55.6098 43.05L56.0222 42.9345C57.0846 42.692 58.1237 42.3566 59.1274 41.9324C60.814 41.1077 61.6017 39.3138 61.1893 37.1942C60.847 35.3591 59.9728 34.5467 58.9996 34.1096C58.946 33.7921 58.8924 33.4622 58.8387 33.124C58.7233 32.4023 58.6037 31.6601 58.4594 30.9549L57.981 28.427C57.9439 28.2414 57.8985 28.0394 57.8573 27.8373C57.816 27.6352 57.7707 27.4249 57.7294 27.2187C58.2246 26.7211 58.5857 26.106 58.779 25.4311C58.9722 24.7561 58.9914 24.0432 58.8346 23.3589L58.8099 23.2228L58.781 23.0743V22.996L58.7604 22.9218C58.5295 21.9898 57.647 19.8207 54.5129 19.8207L54.5253 19.8413Z" fill="#45413C"/>
<path d="M62.6524 40.2169H62.57C59.6132 40.2169 58.4462 35.5405 57.7286 31.4703L57.5431 30.3858C57.2239 28.4771 57.0475 26.5473 57.0152 24.6125C56.9386 23.5548 57.2527 22.5059 57.898 21.6645C58.5434 20.823 59.475 20.2477 60.5163 20.0474C60.8352 19.9936 61.1579 19.966 61.4813 19.965C62.3159 19.9841 63.1385 20.1677 63.902 20.5052C64.6656 20.8427 65.355 21.3276 65.9309 21.932C66.9002 22.9801 67.8102 24.0815 68.6567 25.231C68.6278 23.1444 68.8587 21.2722 69.9722 20.0392C70.3211 19.6591 70.7448 19.3552 71.2167 19.1465C71.6886 18.9379 72.1985 18.829 72.7145 18.8268H72.8258C73.3807 18.8195 73.9269 18.9649 74.4047 19.2471C74.8826 19.5293 75.2736 19.9374 75.5351 20.4268C76.1702 21.4825 76.3145 23.4826 76.3599 26.7445V27.2723C76.4135 31.0703 75.898 34.5054 74.9207 36.9385L74.896 36.9962L74.8671 37.0498C74.5553 37.6201 74.103 38.1013 73.5531 38.4477C73.0031 38.7942 72.3738 38.9943 71.7248 39.0292H71.5763C69.3742 39.0292 67.5185 36.691 65.7535 34.1302C65.8195 35.2683 65.8525 36.3281 65.8154 37.0993C65.7412 38.6045 64.2484 39.9859 62.9617 40.1962H62.6524V40.2169Z" fill="#45413C"/>
<path d="M72.8084 20.0969C73.1398 20.0899 73.4667 20.1748 73.7528 20.3422C74.0388 20.5096 74.2729 20.753 74.4291 21.0454C75.0229 21.9279 75.0765 24.7156 75.1054 26.7775V27.3053C75.1549 30.7487 74.7218 34.0931 73.7528 36.4931C73.5383 36.8629 73.2354 37.1737 72.8712 37.3976C72.507 37.6214 72.0929 37.7513 71.6661 37.7756H71.5795C68.9733 37.7756 66.099 31.9776 64.1567 29.7342L64.2598 30.8064C64.4788 32.8706 64.5862 34.9452 64.5815 37.021C64.5361 37.9034 63.5423 38.8272 62.7588 38.9591H62.5484C60.4206 38.9591 59.3772 33.858 58.9278 31.2394C58.8535 30.827 58.8164 30.5878 58.7381 30.1548C58.4319 28.3044 58.2609 26.4341 58.2267 24.5589C58.1685 23.8024 58.3874 23.0505 58.8427 22.4435C59.2979 21.8365 59.9584 21.4158 60.701 21.2598C60.9515 21.2156 61.2054 21.1935 61.4598 21.1939C62.134 21.2126 62.7978 21.3647 63.4129 21.6415C64.028 21.9182 64.5821 22.3141 65.0433 22.8063C66.1732 23.9114 69.1176 27.9857 70.2063 29.3301L70.1857 29.0167C70.1238 28.4146 69.996 27.7796 69.9548 27.0538C69.7609 23.9568 69.6249 20.2 72.7383 20.0763H72.8043M72.8043 17.6021H72.6435C71.9637 17.6117 71.293 17.76 70.6725 18.038C70.0521 18.316 69.4949 18.7177 69.0352 19.2186C68.3442 20.0167 67.8712 20.9798 67.6619 22.0145C67.3824 21.6811 67.0865 21.3618 66.7753 21.0578C66.0858 20.3413 65.2618 19.7678 64.3504 19.3701C63.439 18.9724 62.4581 18.7584 61.4639 18.7402C61.0728 18.7404 60.6824 18.7735 60.2969 18.8392C59.0761 19.0602 57.9674 19.6917 57.1545 20.6289C56.1882 21.7438 55.689 23.1883 55.7607 24.662C55.7968 26.652 55.9787 28.6368 56.305 30.6002L56.3999 31.1528L56.4906 31.6848C56.7731 33.4735 57.2063 35.2351 57.7855 36.9508C58.8741 39.9406 60.4783 41.4581 62.5526 41.4581H62.7299C62.8819 41.4582 63.0336 41.4458 63.1835 41.421C64.0977 41.2246 64.9386 40.7758 65.6106 40.1256C66.2827 39.4754 66.759 38.6498 66.9856 37.7426C68.3259 39.2066 69.831 40.2705 71.5837 40.2705H71.794C72.6519 40.2278 73.4845 39.9657 74.2122 39.5094C74.94 39.0532 75.5385 38.4179 75.9507 37.6643L76.0085 37.557L76.0538 37.4416C77.093 34.8601 77.6374 31.2559 77.5838 27.2971V26.7775C77.5343 23.2764 77.3693 21.198 76.6147 19.8908C76.2485 19.2027 75.7001 18.6287 75.0294 18.2316C74.3588 17.8345 73.5919 17.6295 72.8125 17.6392L72.8043 17.6021Z" fill="#45413C"/>
<path d="M89.0471 39.7592C88.6952 39.7569 88.3438 39.7308 87.9955 39.6808C87.2798 39.5852 86.5838 39.3764 85.9336 39.0622C84.3831 38.2746 83.6738 36.7447 83.1583 35.2148C82.8738 37.2766 82.2964 39.1323 80.3789 39.1323H80.2675C76.7087 38.9674 76.0901 36.5014 75.9499 34.3694C75.752 31.4332 75.6901 28.4394 75.6283 25.5486C75.5912 23.8537 75.554 22.1011 75.4922 20.3897V20.3403C75.5058 19.852 75.6904 19.3839 76.0137 19.0177C76.3369 18.6515 76.7785 18.4103 77.2613 18.3361C77.8328 18.2448 78.4104 18.1965 78.9892 18.1918H79.2407C80.2387 18.2289 81.9088 18.2907 83.0758 19.6763C83.7963 20.555 84.2207 21.639 84.2882 22.7733C84.8862 22.2743 85.4965 21.7753 86.0738 21.3753C87.3358 20.4493 88.8441 19.9183 90.4079 19.8495C90.6398 19.8488 90.8713 19.8654 91.1007 19.899C92.8904 20.1712 94.243 21.8619 93.9874 23.5197C93.6863 25.5816 91.1832 27.0125 88.9728 28.2909C88.5976 28.5054 88.2347 28.7033 87.9172 28.9095C88.4938 29.9226 89.1243 30.904 89.8058 31.8497C90.3296 32.6044 90.8698 33.3879 91.3193 34.1302L91.3853 34.2209L91.4182 34.2745C91.9914 35.2312 92.5523 36.3364 92.3832 37.4746C92.2883 38.1061 91.9529 38.6765 91.4471 39.0664C90.7485 39.5622 89.9024 39.8064 89.0471 39.7592Z" fill="#45413C"/>
<path d="M78.9717 19.4247H79.1779C80.3532 19.4701 81.3718 19.5938 82.1141 20.4722C82.9099 21.4165 83.1326 22.6454 83.0502 24.064C83.0208 24.5288 82.9644 24.9914 82.8811 25.4496C84.1182 24.5877 85.5492 23.2351 86.7657 22.3897C87.8211 21.6113 89.081 21.1583 90.3905 21.0866C90.5616 21.0862 90.7326 21.0986 90.9018 21.1237C92.0441 21.2969 92.8977 22.3609 92.7575 23.3382C92.4483 25.4001 87.875 27.2434 86.3451 28.4764C87.075 30.3816 89.0544 32.7858 90.2791 34.8229C90.308 34.8559 90.3204 34.8766 90.3493 34.9137C90.7204 35.5322 91.2689 36.5096 91.1493 37.289C91.1265 37.4522 91.0714 37.6092 90.9871 37.7509C90.9029 37.8925 90.7911 38.0159 90.6585 38.1137C90.1775 38.4202 89.6111 38.5647 89.042 38.5261C88.7494 38.5246 88.4573 38.5026 88.1678 38.4601C87.5873 38.3858 87.0222 38.2202 86.4935 37.9694C85.0419 37.2354 84.5347 35.557 83.9945 33.8209C83.9491 33.6807 83.9285 33.6106 83.8873 33.4703C83.5862 32.4394 83.1532 31.1157 82.8687 30.3816C82.8584 30.3626 82.8427 30.3471 82.8237 30.3368C82.8047 30.3266 82.783 30.3221 82.7615 30.3239C82.7353 30.3233 82.7095 30.3294 82.6863 30.3417C82.6632 30.354 82.6437 30.372 82.6295 30.394C81.8048 32.6909 82.3491 37.9034 80.3738 37.9034H80.3202C77.9985 37.7962 77.3305 36.5756 77.1779 34.2951C76.8686 29.6682 76.8933 25.0001 76.7243 20.3485C76.7328 20.1524 76.811 19.9658 76.9448 19.8221C77.0786 19.6785 77.2592 19.5873 77.4542 19.5649C77.9603 19.485 78.4717 19.4423 78.9841 19.4371M78.9841 16.9628C78.339 16.9669 77.6951 17.0206 77.0583 17.1237C76.2835 17.2402 75.5755 17.6286 75.0609 18.2195C74.5464 18.8103 74.2589 19.565 74.25 20.3485V20.4433C74.3119 22.1464 74.349 23.8949 74.3861 25.5815C74.4479 28.4888 74.5098 31.4951 74.7077 34.4601C74.9593 38.2292 76.8109 40.2333 80.2047 40.3777H80.3738C81.001 40.376 81.6163 40.2064 82.1558 39.8866C82.6953 39.5668 83.1394 39.1085 83.4419 38.5591C83.9557 39.2334 84.6136 39.7843 85.3677 40.1715C86.1477 40.549 86.983 40.7995 87.842 40.9138C88.2518 40.9722 88.6652 41.0025 89.0791 41.0045C90.1988 41.0543 91.3027 40.7261 92.2132 40.0725L92.2379 40.0519C92.9722 39.4532 93.4525 38.5986 93.5823 37.6601C93.8091 36.1508 93.1411 34.7735 92.4565 33.6394L92.3864 33.5281L92.3163 33.4332C91.8544 32.6786 91.3183 31.8992 90.7987 31.1445C90.3864 30.5425 89.974 29.9074 89.5863 29.3466C92.0359 27.9362 94.7988 26.3321 95.1864 23.7011C95.5328 21.3505 93.7308 19.0495 91.2524 18.6783C90.9618 18.6331 90.6681 18.611 90.374 18.6124C88.5583 18.6843 86.8047 19.2927 85.3347 20.3608L85.0172 20.5876C84.7698 19.9662 84.4246 19.3885 83.9945 18.8763C82.4728 17.0783 80.3821 16.9958 79.2604 16.9546L78.9841 16.9628Z" fill="#45413C"/>
<path d="M97.9003 41.6849C96.8999 41.5802 95.9096 41.394 94.9394 41.1282L94.5271 41.0293C92.5641 40.5798 90.3373 40.0684 90.8157 37.091C90.9023 36.5508 91.1332 35.1199 92.4858 34.691C92.6187 34.6511 92.7495 34.6043 92.8775 34.5508C93.1085 33.4704 93.3105 32.2786 93.5291 31.0167C93.624 30.4517 93.7229 29.8703 93.8301 29.2765C93.8838 28.9672 93.958 28.6332 94.0322 28.295C94.1064 27.9569 94.1765 27.6599 94.2301 27.3507C94.3035 26.9993 94.3422 26.6415 94.3456 26.2826L94.1724 26.1795C93.2239 25.6475 92.7992 24.5795 93.0136 23.2475C93.1058 22.5468 93.3914 21.8856 93.8384 21.3382C94.3374 20.8021 95.1456 20.5134 96.2178 20.5134C97.1114 20.5378 97.9994 20.6623 98.8653 20.8846L99.5581 21.0495C101.236 21.4619 104.729 22.2867 104.189 25.3176V25.396L104.123 25.6723C104.024 26.2706 103.735 26.8212 103.299 27.243C102.864 27.6647 102.304 27.9352 101.702 28.0146C101.603 28.427 101.5 28.8641 101.41 29.2806C101.368 29.4827 101.327 29.693 101.286 29.8579L100.717 32.3611C100.564 33.0374 100.375 33.7508 100.189 34.423C100.028 35.0291 99.8715 35.6065 99.7478 36.1426C100.573 36.9013 101.039 37.6148 100.643 39.2354C100.271 40.7736 99.2735 41.7097 97.9704 41.7097L97.9003 41.6849Z" fill="#45413C"/>
<path d="M96.2236 21.7506C97.0213 21.7783 97.8137 21.8931 98.5865 22.0928L99.2752 22.2537C102.051 22.9217 103.234 23.6764 102.987 25.0991L102.916 25.3795C102.644 26.5012 102.001 26.7486 101.098 26.8269C100.994 26.8348 100.896 26.8742 100.815 26.9398C100.735 27.0054 100.677 27.0941 100.648 27.194C100.438 27.862 100.236 28.8228 100.083 29.561L99.5185 32.0641C99.2216 33.3673 98.7803 34.823 98.504 36.0477C98.4469 36.189 98.4356 36.3447 98.4719 36.4927C98.5081 36.6408 98.5901 36.7736 98.7061 36.8725C99.5309 37.5776 99.7206 37.8333 99.4484 38.9344C99.2546 39.7591 98.8216 40.4437 97.9762 40.4437H97.9391C96.8794 40.3038 95.8297 40.0958 94.7968 39.821C92.5617 39.3055 91.7534 38.9962 92.0297 37.2849C92.1245 36.6869 92.2813 36.0477 92.8545 35.8663C93.5349 35.6518 93.9473 35.4539 94.0132 35.1364C94.3844 33.4868 94.6772 31.5528 95.0442 29.4868C95.1514 28.893 95.3329 28.2084 95.4566 27.5651C95.5703 27.044 95.6051 26.5088 95.5597 25.9774C95.4813 25.5651 95.2215 25.3424 94.7844 25.0949C94.2648 24.8063 94.1246 24.1671 94.2401 23.4454C94.2924 22.9943 94.4679 22.5663 94.7473 22.2083C94.9533 22.0355 95.192 21.9059 95.4492 21.8272C95.7064 21.7486 95.9767 21.7225 96.2442 21.7506M96.2442 19.2763C94.8256 19.2763 93.7205 19.6887 92.9452 20.5134C92.3252 21.2371 91.9246 22.1226 91.7905 23.066C91.5307 24.6661 92.0008 26.064 93.0483 26.9218C93.0483 26.9878 93.0359 27.062 93.0112 27.1445C92.9617 27.4208 92.8957 27.7218 92.8256 28.0393C92.7555 28.3569 92.6689 28.728 92.6112 29.0703C92.5039 29.6682 92.405 30.2497 92.306 30.8188C92.1369 31.8085 91.972 32.7569 91.8029 33.6353C90.6029 34.1384 89.8606 35.2353 89.5925 36.9055C89.3121 38.6581 89.7616 40.0189 90.9369 40.955C91.807 41.6478 92.9039 41.9406 94.2359 42.2499L94.6483 42.3447C95.6984 42.6349 96.772 42.8323 97.8566 42.9344H97.9556C99.4319 42.9344 101.226 42.0437 101.832 39.5364C102.273 37.7137 101.832 36.6168 101.098 35.7838C101.18 35.4539 101.275 35.1075 101.37 34.7528C101.556 34.0518 101.749 33.326 101.91 32.625L102.03 32.0889L102.475 30.1218L102.607 29.5363C102.644 29.3589 102.681 29.1775 102.723 28.996C103.38 28.7546 103.964 28.3476 104.417 27.8145C104.871 27.2813 105.179 26.64 105.312 25.9527L105.341 25.8455L105.383 25.6764V25.5238C105.536 24.7468 105.458 23.9419 105.158 23.2088C104.858 22.4758 104.35 21.8468 103.696 21.4C102.834 20.7609 101.634 20.2825 99.8237 19.8454L99.1185 19.6763C98.1615 19.4274 97.1791 19.289 96.1906 19.2639L96.2442 19.2763Z" fill="#45413C"/>
<path d="M112.223 46.7819C111.645 46.7835 111.073 46.6567 110.549 46.4107C108.487 45.4334 107.716 42.254 107.159 39.1323C106.747 40.1632 106.376 41.0869 106.034 41.755C105.456 42.8684 104.12 43.3674 103.052 43.3674C102.729 43.3696 102.407 43.3209 102.099 43.2231C101.996 43.1868 101.896 43.1399 101.803 43.0829C99.1097 41.7632 99.9427 36.9879 100.978 32.9755L101.25 31.9115C101.732 30.0563 102.355 28.2407 103.114 26.4805C103.412 25.6963 103.94 25.0205 104.629 24.5415C105.318 24.0625 106.135 23.8026 106.974 23.7959C107.402 23.7946 107.827 23.8643 108.232 24.0021C110.095 24.6372 111.502 26.0929 112.302 28.2207C112.761 29.6609 113.145 31.1241 113.452 32.6043C114.364 30.5424 115.704 28.3816 117.988 28.3816C118.624 28.3917 119.249 28.5468 119.815 28.8352C120.331 29.0873 120.772 29.4685 121.097 29.9419C121.421 30.4152 121.618 30.9645 121.667 31.5363C121.811 32.7734 121.102 34.7198 119.84 37.6065L119.634 38.0807C118.124 41.5241 116.248 44.3653 114.343 46.0808L114.293 46.1262L114.24 46.1674C113.649 46.5788 112.943 46.7938 112.223 46.7819Z" fill="#45413C"/>
<path d="M106.968 25.0331C107.261 25.0317 107.552 25.079 107.83 25.1733C109.347 25.6888 110.473 26.8888 111.129 28.6538C111.706 30.1961 112.733 35.2518 113.191 37.0086C113.232 36.8931 113.257 36.8354 113.302 36.7158C113.487 36.1467 113.636 35.5034 113.887 34.8477C114.799 32.4353 115.949 29.6188 117.991 29.6188C118.438 29.6279 118.877 29.7408 119.273 29.9487C119.596 30.1016 119.873 30.3367 120.077 30.6306C120.28 30.9245 120.403 31.2667 120.432 31.6229C120.609 32.7033 119.533 35.2353 118.708 37.1117L118.502 37.5859C117.141 40.6994 115.38 43.4829 113.516 45.1613C113.138 45.4199 112.688 45.554 112.23 45.5448C111.835 45.5458 111.445 45.4599 111.087 45.2933C108.613 44.1262 108.378 37.4251 107.52 34.4436C107.38 34.856 107.314 35.0498 107.174 35.4539C106.537 37.4049 105.791 39.3186 104.939 41.186C104.63 41.788 103.78 42.1303 103.058 42.1303C102.868 42.1337 102.679 42.1058 102.498 42.0478C102.448 42.0478 102.407 41.9901 102.357 41.9736C100.366 41.0086 101.512 35.8704 102.172 33.2848C102.283 32.8724 102.337 32.6456 102.444 32.2209C102.917 30.4214 103.523 28.6598 104.258 26.9507C104.458 26.3905 104.826 25.9056 105.312 25.5623C105.797 25.2191 106.377 25.0343 106.972 25.0331M106.972 22.5588C105.888 22.5634 104.831 22.8949 103.938 23.51C103.046 24.125 102.36 24.9951 101.97 26.0063C101.189 27.822 100.547 29.694 100.048 31.6064L99.9037 32.1384L99.7676 32.6704C98.6295 37.1199 97.7717 42.4355 101.211 44.1716C101.367 44.2606 101.532 44.3351 101.702 44.3943C102.137 44.5365 102.592 44.6075 103.05 44.6046C103.755 44.6103 104.452 44.4619 105.093 44.1699C105.734 43.8778 106.304 43.4491 106.762 42.9138C107.393 44.9757 108.349 46.7325 110.032 47.5283C110.72 47.8528 111.473 48.0204 112.234 48.0191C113.212 48.0327 114.17 47.7352 114.968 47.1696L115.079 47.0912L115.178 47.0005C117.211 45.1695 119.199 42.1798 120.774 38.5797L120.84 38.4272L120.98 38.1014C122.374 34.9178 123.071 32.9673 122.906 31.4373C122.842 30.6508 122.573 29.8948 122.127 29.2439C121.68 28.593 121.072 28.0698 120.362 27.7259C119.627 27.3553 118.818 27.1579 117.995 27.1486C116.213 27.1486 114.91 28.0723 113.929 29.3136C113.76 28.6868 113.607 28.1713 113.463 27.7878C112.527 25.3135 110.861 23.5939 108.634 22.8393C108.103 22.6578 107.545 22.5658 106.984 22.5671L106.972 22.5588Z" fill="#45413C"/>
<path d="M127.061 54.5965C124.916 54.5279 122.838 53.8342 121.082 52.6006C116.88 49.7758 115.515 44.2664 117.783 39.1942C118.508 37.5142 119.71 36.0842 121.241 35.082C122.772 34.0798 124.564 33.5495 126.393 33.557C128.417 33.5648 130.391 34.1812 132.059 35.3261C136.294 38.188 138.2 42.8314 136.311 45.6768C136.113 45.983 135.84 46.2338 135.518 46.4055C135.197 46.5772 134.836 46.6642 134.472 46.6582C134.161 46.6553 133.852 46.6038 133.556 46.5056C134.029 47.2992 134.177 48.2449 133.969 49.1449C133.764 49.9406 133.426 50.6962 132.971 51.38L132.896 51.4872C132.279 52.4603 131.421 53.2577 130.405 53.8024C129.39 54.347 128.251 54.6206 127.098 54.5965H127.061ZM127.375 40.988C126.414 40.988 125.449 41.7468 124.789 43.0252C124.265 44.0314 123.927 45.3799 124.991 46.4355C124.878 46.0504 124.851 45.645 124.911 45.2481C124.972 44.8512 125.119 44.4725 125.342 44.1386C125.564 43.7054 125.902 43.3423 126.319 43.0898C126.735 42.8372 127.214 42.7049 127.701 42.7076C128.564 42.7566 129.399 43.0295 130.125 43.4994C130.063 43.3592 130.01 43.2231 129.956 43.087C129.74 42.3799 129.268 41.7787 128.632 41.4004C128.271 41.1394 127.841 40.9902 127.395 40.9715L127.375 40.988Z" fill="#45413C"/>
<path d="M126.376 34.7941C128.152 34.802 129.885 35.3436 131.35 36.3488C134.991 38.823 136.752 42.753 135.263 45.0087C135.175 45.1446 135.052 45.2544 134.907 45.3269C134.762 45.3994 134.6 45.4319 134.438 45.4211C133.849 45.4211 133.139 45.0087 132.579 44.5963C132.123 44.2928 131.74 43.893 131.457 43.4252C130.896 42.4561 130.962 41.4829 129.312 40.3777C128.751 39.9782 128.084 39.7543 127.395 39.7344C125.906 39.7344 124.549 40.8148 123.708 42.4396C122.582 44.6169 122.982 46.6541 124.867 47.8747C125.394 48.2485 126.019 48.4605 126.665 48.485C126.924 48.5028 127.183 48.4541 127.417 48.3437C127.652 48.2333 127.854 48.0647 128.005 47.8541L128.084 47.7221L126.983 46.9304C125.696 46.019 126.108 45.2809 126.426 44.7283C126.54 44.4867 126.721 44.2829 126.948 44.1411C127.174 43.9993 127.437 43.9255 127.704 43.9283C128.529 43.9283 129.552 44.5262 130.496 45.2066C130.888 45.4912 131.321 45.8128 131.618 46.0933C132.682 47.0541 132.933 47.9778 132.727 48.8727C132.556 49.5222 132.277 50.1384 131.902 50.6954L131.832 50.8026C131.324 51.6037 130.618 52.26 129.782 52.7079C128.947 53.1558 128.009 53.3802 127.061 53.3594C125.161 53.2892 123.322 52.6673 121.77 51.5696C117.791 48.9015 117.048 43.8582 118.883 39.6973C119.509 38.2344 120.553 36.9889 121.884 36.1166C123.214 35.2444 124.773 34.7843 126.364 34.7941M126.364 32.3198C124.295 32.3103 122.268 32.9091 120.536 34.0418C118.805 35.1746 117.444 36.7913 116.624 38.6911C114.125 44.3241 115.667 50.4645 120.38 53.6274C122.34 54.998 124.658 55.765 127.049 55.8336C128.403 55.8522 129.741 55.5262 130.935 54.8865C132.13 54.2467 133.142 53.314 133.877 52.1758L133.923 52.1057L133.948 52.0727C134.484 51.2604 134.881 50.3642 135.123 49.4211C135.247 48.8932 135.283 48.3485 135.23 47.8087C136.087 47.6161 136.836 47.0969 137.317 46.3613C139.618 42.8932 137.601 37.5941 132.727 34.2992C130.854 33.0172 128.638 32.3276 126.368 32.3198H126.364Z" fill="#45413C"/>
<path d="M28.6568 52.8108C28.2754 52.8265 27.8997 52.7148 27.5888 52.4933C26.9867 52.0315 26.4135 51.0335 25.8073 49.9819C25.6588 49.7221 25.5104 49.4665 25.3702 49.2314C24.7722 48.2376 24.2155 47.2149 23.7949 46.4355C23.2671 45.454 22.7516 44.4602 22.3145 43.6107C22.2782 43.5492 22.2452 43.4859 22.2155 43.421C21.7289 43.7303 21.1021 44.1303 20.632 44.4107C20.0401 44.78 19.384 45.0346 18.6979 45.1612C18.6096 45.1786 18.5198 45.1869 18.4299 45.186C18.0752 45.186 16.8298 45.0499 15.6587 43.2973C14.57 41.6725 14.9123 39.7756 16.5082 38.5797C17.836 37.5817 18.5288 37.0827 19.8856 36.1466C21.5886 34.9682 23.3371 33.8567 25.1269 32.8146L25.4527 32.6208C26.8547 31.796 28.0259 31.3837 29.0321 31.3837C29.9476 31.3837 31.2012 31.7342 31.9641 33.4002C32.9579 35.5734 30.727 37.3013 28.9331 38.691L28.3641 39.1323C29.028 40.3694 29.9435 41.9488 30.8383 43.4828L30.8713 43.5365C31.4981 44.6169 32.1662 45.7715 32.7518 46.8973C32.8507 47.087 32.9456 47.3097 33.0404 47.487C33.1353 47.6644 33.2177 47.8582 33.3085 48.0355L33.4281 48.2623L33.3992 48.518C33.3005 49.2279 33.0488 49.9079 32.6615 50.511C32.2741 51.1141 31.7604 51.6258 31.1559 52.0108C30.4086 52.4946 29.5461 52.7707 28.6568 52.8108Z" fill="#EDF2F4"/>
<path d="M29.0141 32.1919C29.9296 32.1919 30.6925 32.6332 31.1956 33.7301C32.0781 35.66 29.179 37.3178 27.3027 38.9013C27.3687 39.0333 27.4058 39.0951 27.4718 39.223C28.1522 40.5261 29.1749 42.2828 30.1358 43.9323C30.7667 45.0251 31.4224 46.1633 31.9956 47.2602C32.1853 47.6272 32.3667 48.0314 32.5564 48.3984C32.4735 48.9907 32.2627 49.5579 31.9387 50.0606C31.6147 50.5634 31.1853 50.9896 30.6801 51.3098C30.0744 51.7052 29.3771 51.9381 28.6553 51.9861C28.4559 51.9993 28.2575 51.9472 28.0904 51.8376C27.4842 51.3758 26.7254 49.8871 26.0738 48.8066C25.5336 47.9035 25.0181 46.9674 24.5192 46.0437C23.7686 44.6499 23.0428 43.2272 22.5274 42.2416C22.2387 42.4148 20.9974 43.2313 20.2098 43.7055C19.7053 44.0218 19.1457 44.24 18.5603 44.3488C18.5178 44.3533 18.4749 44.3533 18.4325 44.3488C17.9706 44.3488 17.1335 44.0066 16.3458 42.8272C15.4345 41.4663 15.8551 40.089 17.0056 39.2271C18.3335 38.2291 19.0015 37.7466 20.3541 36.8106C22.9398 35.025 25.1501 33.7425 25.8635 33.3177C26.9934 32.6332 28.0862 32.1795 29.0182 32.1795M29.0182 30.53C27.8594 30.53 26.5439 30.9795 25.014 31.9032L24.6924 32.0929C23.7315 32.6661 21.7315 33.8538 19.418 35.4538C18.0531 36.3982 17.3561 36.9013 16.0159 37.9281C15.5613 38.2404 15.1734 38.6399 14.8746 39.1034C14.5758 39.567 14.3721 40.0853 14.2754 40.6282C14.1787 41.1712 14.1909 41.728 14.3113 42.2662C14.4317 42.8044 14.6579 43.3133 14.9767 43.7633C15.9169 45.1777 17.2118 46.019 18.4325 46.019C18.5708 46.0193 18.7088 46.0068 18.8448 45.9818C19.63 45.8389 20.3813 45.5493 21.0593 45.1282C21.315 44.9756 21.6036 44.7942 21.8841 44.6086C22.247 45.3138 22.647 46.0726 23.0552 46.8355C23.4635 47.5984 24.0449 48.6541 24.6511 49.6644L25.0635 50.3984C25.8223 51.7263 26.3749 52.6335 27.0553 53.1572C27.5104 53.4895 28.0632 53.6607 28.6264 53.6438C29.9977 53.5855 31.3053 53.0493 32.3228 52.1282C33.3403 51.2071 34.0035 49.9591 34.1977 48.6004L34.2595 48.0932L34.0245 47.6355L33.7647 47.1159C33.6657 46.9056 33.5667 46.7035 33.4636 46.5014C32.8698 45.3592 32.2018 44.1962 31.5626 43.1034L31.5378 43.0622C30.7914 41.7756 30.0244 40.4519 29.41 39.3508C31.3234 37.8662 33.9461 35.8332 32.6843 33.0662C31.9461 31.4538 30.6224 30.5671 29.0017 30.5671L29.0182 30.53Z" fill="#45413C"/>
<path d="M40.0002 46.0603C39.8151 46.0614 39.6301 46.0463 39.4476 46.015C38.4579 45.85 37.3857 44.9923 36.227 43.4706C35.1338 41.943 34.201 40.3069 33.4434 38.588C32.8166 37.1499 32.266 35.6798 31.7939 34.1838C31.2784 32.5343 31.2331 31.8621 31.266 31.5075C31.2124 29.8209 32.6929 28.6456 33.5877 28.2085C34.1165 27.935 34.7 27.7842 35.295 27.7672C36.4332 27.7672 37.3115 28.427 37.7693 29.627L38.6188 31.8374C38.9816 32.8188 39.1878 32.9632 39.3239 32.9632C39.4675 32.9544 39.6078 32.9166 39.7363 32.8518C41.0023 32.3034 41.027 32.2951 40.2476 30.0353L40.0703 29.5157C39.2744 27.2023 40.2724 25.0785 42.5446 24.2373C43.057 24.0333 43.6015 23.9216 44.1529 23.9073C45.4725 23.9073 46.4251 24.6991 47.0766 26.328C47.2993 26.8847 47.5674 27.7012 47.8478 28.6909C48.7097 31.7302 49.819 36.6746 50.1159 39.3633C50.3221 41.2437 49.7035 42.4603 48.2973 42.9881C47.8027 43.1887 47.2761 43.2991 46.7426 43.3139C46.3097 43.3225 45.8828 43.2116 45.5089 42.9933C45.1349 42.775 44.8284 42.4579 44.623 42.0767C44.0585 40.9977 43.5813 39.8752 43.1962 38.72C43.0955 38.3443 42.9339 37.9876 42.7178 37.6643C42.5158 37.7013 42.3201 37.7666 42.1363 37.8581C41.1508 38.2705 41.1879 38.3818 41.3776 38.8684C41.5673 39.355 41.7899 39.7839 41.959 40.1798C42.1281 40.5757 42.2972 40.8396 42.4456 41.2107C43.2704 43.3139 42.8291 45.0624 41.3446 45.7717C40.9243 45.9689 40.4645 46.0676 40.0002 46.0603Z" fill="#EDF2F4"/>
<path d="M44.1651 24.7156C45.0929 24.7156 45.7816 25.2599 46.3218 26.6166C46.6079 27.365 46.8556 28.1275 47.0641 28.9012C48.0432 32.36 48.7926 35.8798 49.3074 39.4375C49.4435 40.6746 49.2249 41.7509 48.0249 42.1963C47.6207 42.3611 47.191 42.4546 46.7548 42.4726C46.4611 42.4826 46.1708 42.4077 45.9185 42.2571C45.6662 42.1065 45.4626 41.8863 45.3321 41.6231C44.7909 40.5929 44.3358 39.5198 43.9712 38.4148C43.5589 37.2395 43.262 36.8024 42.7341 36.8024C42.411 36.8283 42.0959 36.9165 41.8063 37.0622C40.6887 37.5405 40.1567 37.9859 40.6021 39.1241C40.9815 40.1179 41.3774 40.7736 41.6454 41.4705C42.1774 42.8561 42.2021 44.3984 40.9609 44.9922C40.6558 45.1385 40.3219 45.2146 39.9835 45.2149C39.8454 45.2157 39.7074 45.2047 39.5712 45.1819C38.701 45.0334 37.7361 44.1056 36.8701 42.955C35.8198 41.4843 34.9243 39.9088 34.1979 38.2539C33.5739 36.8442 33.0233 35.403 32.5484 33.9363C32.2143 32.8683 31.9999 31.9445 32.0576 31.5363C31.9875 30.2992 33.1504 29.3259 33.9133 28.9548C34.33 28.7351 34.791 28.6125 35.2618 28.596C36.0866 28.596 36.6556 29.1033 36.9691 29.928C37.2825 30.7528 37.4969 31.2559 37.8351 32.1384C38.1979 33.0827 38.5773 33.7879 39.3237 33.7879C39.5792 33.7788 39.8302 33.7185 40.0619 33.6106C41.8929 32.8147 41.8805 32.2538 41.0269 29.7631C40.9526 29.5569 40.9196 29.4538 40.8454 29.2476C40.2104 27.4001 40.9485 25.7094 42.8413 25.0125C43.2626 24.8417 43.7107 24.7468 44.1651 24.732M44.1651 23.0825C43.5154 23.0965 42.8732 23.2249 42.2681 23.4619C39.5753 24.4599 38.3464 27.0579 39.2866 29.7837L39.3155 29.8703L39.4639 30.2827C39.65 30.7876 39.8029 31.3042 39.9217 31.8291C39.8475 31.8703 39.7361 31.9281 39.5712 32.0064C39.5176 31.8992 39.4557 31.7507 39.3773 31.5445L38.9155 30.3528L38.5278 29.3383C37.9423 27.8166 36.7587 26.9465 35.2783 26.9465C34.5604 26.9641 33.8557 27.1431 33.2164 27.4702C31.7896 28.1589 30.3999 29.66 30.4287 31.4827C30.3957 31.9487 30.4658 32.7198 30.9937 34.4312C31.4822 35.9578 32.0493 37.4581 32.6927 38.9261C33.4763 40.7021 34.4438 42.391 35.5793 43.9654C36.8742 45.6891 38.1031 46.6252 39.3279 46.8273C39.5538 46.8673 39.7829 46.8866 40.0124 46.885C40.5964 46.8861 41.173 46.755 41.699 46.5015C43.4599 45.6767 44.095 43.6726 43.3774 41.3633C43.5438 41.7423 43.7297 42.1126 43.9341 42.4726C44.2123 42.9786 44.623 43.3994 45.122 43.69C45.6211 43.9806 46.1897 44.1299 46.7672 44.1221C47.3995 44.1084 48.0241 43.9799 48.6105 43.7427C49.6291 43.3633 51.291 42.2787 50.9611 39.2601C50.66 36.5261 49.5342 31.5198 48.6641 28.4517C48.3754 27.4331 48.0991 26.5878 47.8682 26.0063C47.0888 24.0557 45.8476 23.066 44.1568 23.066L44.1651 23.0825ZM42.2186 38.7076L42.3176 38.6622L42.4289 38.9674C42.4949 39.1612 42.6186 39.5158 42.7836 39.9447L42.7135 39.8004C42.5485 39.4622 42.3836 39.1158 42.2186 38.7076Z" fill="#45413C"/>
<path d="M52.8896 41.2766C51.3514 41.2766 50.873 40.1508 50.6462 39.3055C50.5143 38.8106 50.205 37.6559 51.0297 36.8312C51.2153 36.6616 51.38 36.4705 51.5205 36.2621C51.2813 35.1198 50.9596 33.8662 50.6215 32.5507C50.4715 31.9875 50.334 31.421 50.2091 30.8517C50.1349 30.5507 50.0689 30.2249 49.9988 29.8909C49.9287 29.5568 49.8668 29.2393 49.7885 28.93C49.7184 28.5125 49.579 28.1097 49.3761 27.7382C49.3761 27.7135 49.3307 27.6723 48.9637 27.664C48.0359 27.6434 47.3142 26.9753 47.0214 25.8289C46.8402 25.229 46.8316 24.5902 46.9967 23.9856C47.4297 22.633 49.3596 21.9526 50.9926 21.5113L51.6813 21.3299C52.604 21.0575 53.5571 20.901 54.5185 20.8639C56.3247 20.8639 56.9556 21.8701 57.1659 22.7155L57.2278 23.0495C57.5165 24.6124 56.7742 25.4083 55.9577 25.9691C56.0236 26.4434 56.1515 27.0372 56.2628 27.5692C56.3041 27.7671 56.3453 27.9815 56.3783 28.1465L56.8855 30.662C57.0216 31.3383 57.1371 32.0682 57.2525 32.7693C57.368 33.4703 57.4711 34.126 57.5907 34.7239C58.7495 35.0208 59.3268 35.3631 59.6031 36.8601C59.8588 38.2374 59.4299 39.3343 58.4237 39.8251C57.5108 40.1887 56.5721 40.4836 55.6154 40.7075L55.203 40.823C54.4548 41.074 53.6771 41.2264 52.8896 41.2766Z" fill="#EDF2F4"/>
<path d="M54.5017 21.6846C55.5491 21.6846 56.1512 22.0599 56.3491 22.9218C56.3491 23.0372 56.378 23.095 56.4028 23.2063C56.6089 24.3403 56.1306 24.8558 55.3553 25.3754C55.2658 25.4327 55.1946 25.5144 55.15 25.6108C55.1054 25.7073 55.0894 25.8145 55.1038 25.9198C55.1862 26.6208 55.4048 27.5693 55.5533 28.3157C55.7553 29.3219 55.8584 29.825 56.0605 30.8353C56.3244 32.1425 56.5141 33.6601 56.7656 34.8931C56.8522 35.3302 57.0461 35.4746 57.277 35.5282C58.2791 35.7756 58.5719 35.9076 58.7822 37.0416C58.9348 37.8664 58.8275 38.72 58.0399 39.1035C57.0371 39.4826 56.0109 39.7967 54.9677 40.0437C54.2993 40.2629 53.6071 40.4013 52.9058 40.4561C52.1429 40.4561 51.7264 40.0932 51.4583 39.0952C51.3058 38.5179 51.182 37.8581 51.6233 37.4457C52.1511 36.9261 52.448 36.5344 52.3738 36.2375C52.0315 34.5879 51.5161 32.7034 51.0088 30.6704C50.8645 30.0889 50.749 29.3879 50.5965 28.7528C50.4915 28.2352 50.3064 27.7371 50.048 27.2765C49.9204 27.124 49.7564 27.0062 49.5711 26.9341C49.3858 26.862 49.1853 26.8379 48.9882 26.8641C48.4026 26.8641 48.0191 26.3445 47.8294 25.627C47.6937 25.187 47.6767 24.719 47.7799 24.2702C48.0933 23.297 49.8212 22.695 51.215 22.3197L51.8996 22.1341C52.754 21.8815 53.6362 21.7347 54.5264 21.697M54.5264 20.0475C53.4942 20.0837 52.4704 20.2486 51.479 20.5382L50.7862 20.7238C48.9593 21.2186 46.7902 22.0104 46.217 23.7465C46.0058 24.5004 46.0058 25.2978 46.217 26.0517C46.6046 27.4992 47.5614 28.4023 48.7902 28.493C48.8439 28.6415 48.9057 28.8476 48.9799 29.1446C49.0542 29.4415 49.1202 29.7549 49.182 30.0683C49.2439 30.3817 49.3181 30.7405 49.4006 31.0621C49.5449 31.6477 49.6934 32.2168 49.8129 32.7694C50.114 33.9405 50.3985 35.0498 50.6377 36.0684L50.4521 36.2581C49.281 37.4086 49.6934 38.9468 49.8501 39.5282C50.4191 41.6602 51.8171 42.1097 52.8893 42.1097C53.7443 42.0629 54.5897 41.9063 55.4048 41.6437L55.8172 41.5283C56.8252 41.2954 57.8127 40.981 58.7698 40.5881C60.11 39.9118 60.7162 38.4726 60.3946 36.7364C60.0977 35.1323 59.4131 34.489 58.2873 34.1013C58.2007 33.6436 58.1224 33.1529 58.0399 32.6415C57.9244 31.9322 57.809 31.1982 57.6688 30.5054L57.1657 27.9858C57.1285 27.8043 57.0873 27.6064 57.0419 27.4043C56.9718 27.0538 56.8894 26.6744 56.8275 26.3321C57.3333 25.935 57.7141 25.4008 57.9247 24.7932C58.1353 24.1856 58.1667 23.5302 58.0152 22.9053L57.9904 22.7733L57.9615 22.6207V22.5218C57.7306 21.5939 56.976 20.0475 54.5141 20.0475H54.5264Z" fill="#45413C"/>
<path d="M62.6532 39.186H62.5666C59.8903 39.186 58.7521 34.39 58.1335 30.7817L57.9438 29.6971C57.6298 27.8088 57.4562 25.8997 57.4242 23.9857C57.3553 23.0309 57.6387 22.084 58.2208 21.3241C58.8029 20.5642 59.6433 20.044 60.583 19.8619C60.8784 19.8092 61.1779 19.783 61.4779 19.7836C63.0549 19.8235 64.5516 20.488 65.6388 21.631C66.8682 23.01 68.0245 24.4526 69.1028 25.9527C68.9708 23.4414 69.0203 21.1238 70.2616 19.7671C70.5744 19.4295 70.9533 19.1598 71.3746 18.9746C71.796 18.7895 72.2509 18.6929 72.7111 18.6908H72.8101C73.2906 18.6819 73.7642 18.8062 74.1784 19.0501C74.5926 19.2939 74.9311 19.6477 75.1565 20.0722C75.7462 21.0413 75.8905 23.062 75.9318 26.2002V26.728C75.9813 30.4765 75.4823 33.8498 74.5214 36.2375V36.3117C74.2339 36.8045 73.8273 37.2172 73.3387 37.5119C72.8502 37.8066 72.2955 37.9738 71.7255 37.9983H71.5977C69.3007 37.9983 67.21 34.9055 65.3625 32.1797C65.3295 32.126 65.2924 32.0724 65.2553 32.0229C65.3922 33.4978 65.4486 34.9791 65.4244 36.4601C65.3584 37.7756 64.047 38.9756 62.913 39.1736H62.6532V39.186Z" fill="#EDF2F4"/>
<path d="M72.8117 19.4783C73.1431 19.4713 73.47 19.5562 73.756 19.7236C74.0421 19.891 74.2762 20.1344 74.4323 20.4268C75.0179 21.3093 75.0798 24.097 75.1086 26.1754V26.7032C75.1581 30.1466 74.7251 33.491 73.756 35.891C73.5416 36.2608 73.2387 36.5716 72.8745 36.7955C72.5103 37.0193 72.0962 37.1492 71.6694 37.1735H71.5828C68.9766 37.1735 66.1023 31.3755 64.16 29.1321L64.2631 30.2043C64.4821 32.2685 64.5895 34.3431 64.5847 36.4188C64.5394 37.3013 63.5456 38.2251 62.762 38.357H62.5517C60.4238 38.357 59.3805 33.2559 58.931 30.6373C58.8568 30.2249 58.8197 29.9857 58.7413 29.5527C58.4351 27.7023 58.2642 25.832 58.23 23.9568C58.1718 23.2003 58.3907 22.4484 58.8459 21.8414C59.3012 21.2344 59.9617 20.8137 60.7043 20.6577C60.9548 20.6135 61.2087 20.5914 61.463 20.5918C62.1373 20.6105 62.8011 20.7626 63.4162 21.0394C64.0313 21.3161 64.5854 21.712 65.0466 22.2042C66.1765 23.3093 69.1209 27.3836 70.2096 28.728L70.189 28.4146C70.1271 27.8125 69.9993 27.1774 69.958 26.4517C69.7642 23.3547 69.6281 19.5979 72.7416 19.4742H72.8076M72.8076 17.8247H72.6797C72.1118 17.8341 71.5517 17.9588 71.0335 18.1913C70.5153 18.4238 70.0498 18.7593 69.6652 19.1773C68.6838 20.2619 68.3374 21.7629 68.259 23.4578C67.6199 22.6085 66.9314 21.7975 66.1971 21.0289C64.9596 19.7336 63.2581 18.9831 61.4672 18.9423C61.1217 18.9424 60.7769 18.9714 60.4362 19.0289C59.4032 19.2184 58.4652 19.7536 57.7764 20.5464C56.9481 21.5061 56.5226 22.7486 56.5887 24.0145C56.6208 25.966 56.7986 27.9123 57.1207 29.8373L57.2197 30.4022L57.3104 30.9218C58.0362 35.1528 59.2939 39.9942 62.5558 39.9942H62.7332C62.8449 39.9966 62.9566 39.9897 63.0672 39.9736C64.5064 39.7261 66.1683 38.2333 66.259 36.489C66.2796 36.0353 66.2796 35.4869 66.259 34.8848C67.8508 37.0457 69.558 38.8106 71.6199 38.8106H71.789C72.4937 38.7668 73.1764 38.5487 73.776 38.1759C74.3755 37.803 74.8731 37.2871 75.2241 36.6745L75.2612 36.6003L75.2901 36.5261C76.2922 34.0518 76.8159 30.5507 76.7623 26.695V26.1506C76.7169 22.8516 76.5602 20.7897 75.8922 19.6433C75.5929 19.0897 75.1483 18.6281 74.6062 18.3084C74.0641 17.9887 73.4451 17.8229 72.8158 17.8288L72.8076 17.8247Z" fill="#45413C"/>
<path d="M89.0458 38.7364C88.7145 38.7356 88.3838 38.7108 88.0561 38.6622C87.3803 38.5766 86.7229 38.3816 86.1097 38.0849C84.3777 37.2065 83.7921 35.3261 83.223 33.5075L83.0993 33.0951C83.0498 32.9384 83.0003 32.7734 82.9508 32.6085C82.9508 32.7446 82.922 32.8806 82.9096 33.0209C82.6539 35.524 82.3859 38.1137 80.3611 38.1137H80.2704C77.0579 37.9653 76.4806 35.8168 76.3404 33.7343C76.1466 30.8064 76.0847 27.8208 76.0229 24.9341C75.9858 23.2392 75.9486 21.4866 75.8868 19.767C75.883 19.3661 76.0253 18.9776 76.2871 18.674C76.549 18.3704 76.9124 18.1726 77.3095 18.1175C77.8549 18.0281 78.4064 17.9813 78.959 17.9773H79.1982C80.4353 18.0227 81.7632 18.167 82.7323 19.3134C83.5158 20.2454 83.8911 21.4536 83.8787 22.9959L84.2911 22.6454C84.955 22.097 85.6395 21.5279 86.2705 21.0866C87.4632 20.208 88.8897 19.7028 90.3695 19.6351C90.582 19.6352 90.7942 19.6504 91.0046 19.6804C92.5716 19.9196 93.7634 21.3918 93.549 22.8351C93.2768 24.6826 90.8644 26.0764 88.7365 27.3053C88.2293 27.5981 87.7386 27.8826 87.3468 28.1301C87.9739 29.2888 88.6793 30.4034 89.4582 31.4662C89.9819 32.2208 90.5221 33.0085 90.9675 33.7425L91.0335 33.8332L91.0541 33.8704C91.5902 34.7611 92.118 35.8044 91.9654 36.7941C91.8868 37.325 91.6042 37.8043 91.1778 38.1302C90.5546 38.5643 89.8042 38.7777 89.0458 38.7364Z" fill="#EDF2F4"/>
<path d="M78.971 18.8061H79.1772C80.3524 18.8515 81.371 18.9752 82.1133 19.8536C82.9092 20.7979 83.1319 22.0268 83.0494 23.4454C83.0201 23.9101 82.9636 24.3728 82.8803 24.831C84.1175 23.9691 85.5484 22.6165 86.7649 21.7711C87.8203 20.9926 89.0803 20.5397 90.3897 20.468C90.5609 20.4676 90.7318 20.48 90.9011 20.5051C92.0434 20.6783 92.897 21.7422 92.7568 22.7196C92.4475 24.7815 87.8742 26.6248 86.3443 27.8578C87.0742 29.763 89.0454 32.1672 90.2825 34.2002C90.3114 34.2332 90.3238 34.2538 90.3526 34.2909C90.7238 34.9095 91.2722 35.8868 91.1526 36.6662C91.1299 36.8294 91.0748 36.9865 90.9905 37.1281C90.9062 37.2698 90.7945 37.3931 90.6619 37.491C90.1819 37.8003 89.6153 37.9477 89.0454 37.9116C88.7528 37.9101 88.4606 37.8881 88.1711 37.8456C87.5907 37.7713 87.0256 37.6057 86.4969 37.3549C85.0453 36.6209 84.5381 34.9425 83.9979 33.2064C83.9525 33.0662 83.9319 32.9961 83.8906 32.8558C83.5896 31.8249 83.1566 30.5012 82.8721 29.7671C82.8617 29.7481 82.8461 29.7326 82.8271 29.7223C82.808 29.7121 82.7864 29.7076 82.7649 29.7094C82.7387 29.7088 82.7128 29.7149 82.6897 29.7272C82.6666 29.7395 82.647 29.7575 82.6329 29.7795C81.8081 32.0765 82.3525 37.2889 80.3772 37.2889H80.3236C78.0019 37.1817 77.3338 35.9611 77.1813 33.6806C76.872 29.0537 76.8967 24.3856 76.7276 19.734C76.7362 19.5379 76.8144 19.3513 76.9481 19.2076C77.0819 19.064 77.2626 18.9728 77.4576 18.9504C77.9637 18.8705 78.4751 18.8278 78.9875 18.8226M78.9875 17.1731C78.3866 17.1771 77.787 17.2267 77.1936 17.3216C76.6119 17.4067 76.0795 17.6963 75.6918 18.1384C75.3042 18.5804 75.0866 19.1461 75.0781 19.734V19.767C75.14 21.4783 75.1771 23.2309 75.2142 24.9217C75.2761 27.8083 75.3379 30.8146 75.5359 33.7631C75.6761 35.8827 76.3194 38.7116 80.2452 38.9096H80.3772C81.1566 38.9096 82.5587 38.5797 83.2185 36.3652C83.2473 36.2703 83.2721 36.1755 83.2968 36.0765C83.7782 37.2384 84.6445 38.1994 85.7505 38.7982C86.4434 39.1329 87.1855 39.3543 87.9485 39.4539C88.3112 39.515 88.6777 39.5508 89.0454 39.5611C89.9812 39.6087 90.906 39.3416 91.6722 38.8023C92.2567 38.3467 92.6435 37.6838 92.7527 36.9508C92.9424 35.7136 92.3403 34.4765 91.7341 33.4785L91.6887 33.4043L91.6392 33.3342H91.6186C91.165 32.5878 90.6289 31.8043 90.1052 31.0496C89.5072 30.1836 88.8969 29.297 88.4557 28.4929L89.1608 28.0805C91.4495 26.7568 94.0475 25.2557 94.3774 23.0124C94.6537 21.1361 93.1403 19.2267 91.1361 18.9257C90.8864 18.8872 90.6341 18.8679 90.3815 18.868C88.7337 18.9377 87.1436 19.4945 85.8123 20.468C85.4 20.7484 84.9876 21.0783 84.5752 21.4165C84.4052 20.4679 83.9917 19.5798 83.3752 18.8391C82.0886 17.3174 80.3071 17.2514 79.2514 17.1896L78.9875 17.1731Z" fill="#45413C"/>
<path d="M97.9124 40.654C96.9376 40.5471 95.9726 40.3651 95.0258 40.1096L94.6134 40.0107C92.6505 39.5612 90.7989 39.1323 91.2154 36.5384C91.2979 36.023 91.4917 34.8147 92.601 34.4765C92.8207 34.4184 93.0325 34.3339 93.2319 34.225C93.4794 33.0868 93.6938 31.8208 93.9247 30.4806C94.0237 29.9156 94.1227 29.3342 94.2258 28.7404C94.2794 28.4393 94.3536 28.1135 94.4278 27.7795C94.5021 27.4455 94.5722 27.1321 94.6299 26.8146C94.7336 26.3955 94.7684 25.9623 94.733 25.5321C94.733 25.4702 94.7124 25.4083 94.366 25.2145C93.5742 24.7692 93.2278 23.8578 93.4134 22.7073C93.4857 22.0814 93.7378 21.4898 94.1392 21.0041C94.5722 20.5382 95.2608 20.3031 96.2258 20.3031C97.0877 20.327 97.944 20.4487 98.7784 20.666C99.0547 20.7279 99.1908 20.7608 99.4712 20.8309C101.145 21.2433 104.263 21.9856 103.793 24.6207L103.715 24.9547C103.62 25.5145 103.337 26.0248 102.911 26.4002C102.485 26.7756 101.944 26.9933 101.376 27.0166C101.244 27.4702 101.121 28.0476 101.009 28.563C100.964 28.761 100.923 28.9754 100.882 29.1321L100.317 31.6353C100.164 32.3074 99.9743 33.0167 99.7887 33.6971C99.6032 34.3776 99.4341 35.0209 99.3021 35.6147C99.3005 35.6325 99.3005 35.6505 99.3021 35.6683C100.222 36.4931 100.609 37.0498 100.251 38.5179C99.9207 39.8787 99.0959 40.6581 97.9784 40.6581L97.9124 40.654Z" fill="#EDF2F4"/>
<path d="M96.2231 21.132C97.0209 21.1597 97.8132 21.2745 98.586 21.4742L99.2747 21.6351C102.05 22.3031 103.234 23.0578 102.986 24.4805L102.916 24.7609C102.644 25.8826 102.001 26.13 101.097 26.2083C100.994 26.2162 100.895 26.2556 100.815 26.3212C100.735 26.3868 100.676 26.4755 100.648 26.5753C100.438 27.2434 100.236 28.2042 100.083 28.9424L99.518 31.4455C99.2211 32.7486 98.7798 34.2043 98.5036 35.4291C98.4464 35.5704 98.4351 35.7261 98.4714 35.8741C98.5077 36.0222 98.5896 36.155 98.7056 36.2539C99.5304 36.959 99.7201 37.2147 99.4479 38.3158C99.2541 39.1405 98.8211 39.8251 97.9757 39.8251H97.9386C96.8789 39.6852 95.8292 39.4772 94.7963 39.2024C92.5612 38.6869 91.7529 38.3776 92.0292 36.6662C92.1241 36.0683 92.2808 35.4291 92.854 35.2477C93.5344 35.0332 93.9468 34.8353 94.0128 34.5178C94.3839 32.8682 94.6767 30.9342 95.0437 28.8682C95.1509 28.2743 95.3324 27.5898 95.4561 26.9465C95.5698 26.4254 95.6046 25.8902 95.5592 25.3588C95.4808 24.9465 95.221 24.7238 94.7839 24.4763C94.2643 24.1877 94.1241 23.5485 94.2396 22.8268C94.2919 22.3757 94.4674 21.9477 94.7468 21.5897C94.9528 21.4169 95.1915 21.2873 95.4487 21.2086C95.7059 21.13 95.9763 21.1039 96.2437 21.132M96.2437 19.4824C95.0602 19.4824 94.1571 19.8082 93.5509 20.4515C93.0452 21.0545 92.7194 21.7876 92.6107 22.567C92.3756 24.0351 92.8705 25.2722 93.9303 25.8949C93.9116 26.1509 93.8786 26.4056 93.8313 26.6578C93.7777 26.9506 93.7076 27.2764 93.6375 27.5857C93.5674 27.895 93.489 28.2578 93.4313 28.5836C93.3241 29.1775 93.2251 29.7589 93.1261 30.328C92.9241 31.4991 92.7344 32.6126 92.5241 33.627L92.3674 33.6806C90.7715 34.1837 90.5034 35.858 90.4127 36.4064C89.8684 39.7632 92.4911 40.3859 94.4045 40.7983L94.8169 40.8972C95.8142 41.1684 96.8321 41.3573 97.8602 41.4622H97.9386C99.4438 41.4622 100.594 40.4271 101.015 38.6951C101.436 36.9632 100.949 36.1343 100.19 35.3673C100.306 34.9013 100.438 34.4064 100.578 33.8909C100.763 33.1981 100.953 32.4806 101.11 31.7961L101.221 31.2971L101.675 29.2929C101.716 29.1073 101.761 28.9135 101.803 28.7115C101.873 28.3857 101.951 28.0352 102.029 27.7135C102.649 27.5746 103.215 27.256 103.655 26.7977C104.095 26.3393 104.39 25.7614 104.504 25.1361L104.528 25.0248L104.57 24.8599V24.7568C105.176 21.3505 101.271 20.4144 99.6211 20.0144L98.9201 19.8495C98.0247 19.6186 97.1061 19.49 96.1819 19.4659L96.2437 19.4824Z" fill="#45413C"/>
<path d="M112.225 45.7468C111.708 45.7474 111.197 45.6348 110.728 45.4169C108.572 44.3942 107.92 40.555 107.347 37.1694C107.347 37.091 107.318 37.0085 107.306 36.9302C106.831 38.2986 106.28 39.6396 105.656 40.9468C105.161 41.9035 103.953 42.3365 103.042 42.3365C102.762 42.34 102.483 42.2982 102.217 42.2128C102.136 42.1839 102.059 42.1466 101.986 42.1014C99.5118 40.9055 100.452 36.0312 101.363 32.4641L101.636 31.4002C102.115 29.5692 102.733 27.7772 103.483 26.0393C103.745 25.3278 104.219 24.7136 104.84 24.2794C105.462 23.8452 106.201 23.6117 106.959 23.6104C107.342 23.6092 107.722 23.6705 108.085 23.7918C109.829 24.3856 111.149 25.763 111.9 27.7671C112.291 28.8063 112.832 31.1899 113.322 33.3755C114.225 31.0291 115.491 28.196 117.978 28.196C118.552 28.2062 119.116 28.3472 119.628 28.6084C120.079 28.8268 120.467 29.1592 120.751 29.5728C121.035 29.9865 121.206 30.4671 121.248 30.9672C121.397 32.1177 120.7 34.0023 119.459 36.8436L119.248 37.3178C117.764 40.7076 115.924 43.5035 114.06 45.1778L114.027 45.2066L113.99 45.2355C113.47 45.586 112.853 45.7648 112.225 45.7468Z" fill="#EDF2F4"/>
<path d="M106.966 24.4146C107.259 24.4131 107.55 24.4605 107.828 24.5548C109.345 25.0703 110.471 26.2703 111.127 28.0353C111.704 29.5776 112.731 34.6333 113.189 36.39C113.23 36.2746 113.255 36.2168 113.3 36.0973C113.485 35.5282 113.634 34.8849 113.885 34.2292C114.797 31.8168 115.947 29.0002 117.989 29.0002C118.436 29.0093 118.875 29.1223 119.271 29.3301C119.594 29.483 119.871 29.7182 120.075 30.0121C120.278 30.306 120.401 30.6482 120.43 31.0044C120.607 32.0848 119.531 34.6168 118.706 36.4931L118.5 36.9674C117.139 40.0808 115.378 42.8644 113.514 44.5428C113.136 44.8014 112.686 44.9355 112.228 44.9263C111.833 44.9273 111.443 44.8414 111.085 44.6747C108.611 43.5077 108.376 36.8065 107.518 33.825C107.378 34.2374 107.312 34.4312 107.172 34.8354C106.535 36.7864 105.789 38.7001 104.937 40.5674C104.628 41.1695 103.778 41.5118 103.056 41.5118C102.866 41.5151 102.677 41.4873 102.496 41.4293C102.446 41.4293 102.405 41.3716 102.355 41.3551C100.364 40.3901 101.51 35.2519 102.17 32.6663C102.281 32.2539 102.335 32.0271 102.442 31.6023C102.915 29.8029 103.521 28.0413 104.256 26.3321C104.456 25.7719 104.824 25.287 105.31 24.9438C105.795 24.6006 106.375 24.4157 106.97 24.4146M106.97 22.7651C106.05 22.7713 105.153 23.0548 104.397 23.5786C103.641 24.1025 103.06 24.8422 102.731 25.7012C101.966 27.4809 101.336 29.3157 100.846 31.1899L100.702 31.726L100.59 32.258C99.5265 36.4148 98.6852 41.3674 101.625 42.8273C101.741 42.894 101.862 42.9493 101.988 42.9922C102.338 43.1084 102.705 43.1655 103.073 43.1613C104.265 43.1613 105.762 42.5963 106.421 41.3262C106.615 40.9509 106.834 40.5015 107.036 39.9819C107.613 42.7695 108.459 45.2479 110.393 46.1675C110.972 46.4408 111.604 46.5817 112.244 46.5799C113.049 46.5929 113.837 46.3503 114.496 45.8871L114.57 45.8335L114.636 45.7758C116.582 44.019 118.496 41.1283 120.026 37.6313L120.096 37.4746L120.236 37.1571C121.552 34.1508 122.244 32.2333 122.092 30.8889C122.044 30.2462 121.829 29.6272 121.467 29.0939C121.105 28.5606 120.609 28.1315 120.03 27.8497C119.407 27.535 118.72 27.3658 118.022 27.3548C115.906 27.3548 114.562 28.9466 113.617 30.7446C113.376 29.6299 113.076 28.5287 112.718 27.4456C111.873 25.1981 110.38 23.6558 108.397 22.9795C107.947 22.8288 107.477 22.7522 107.003 22.7527L106.97 22.7651Z" fill="#45413C"/>
<path d="M127.062 53.582C124.998 53.5131 122.999 52.8439 121.31 51.6562C117.276 48.9469 115.977 43.6437 118.147 38.7611C118.839 37.1512 119.991 35.7811 121.458 34.8218C122.925 33.8625 124.642 33.3566 126.394 33.3672C128.335 33.3753 130.228 33.9657 131.829 35.0621C135.875 37.8003 137.73 42.188 135.953 44.8437C135.792 45.0932 135.57 45.2976 135.308 45.4375C135.046 45.5775 134.753 45.6485 134.456 45.6437C133.78 45.6437 132.988 45.3097 132.106 44.654C131.555 44.2806 131.093 43.7907 130.753 43.2189C130.593 42.9314 130.456 42.6323 130.341 42.3241C130.098 41.542 129.575 40.8769 128.873 40.456C128.442 40.1419 127.929 39.9626 127.396 39.9405C126.279 39.9405 125.178 40.7653 124.444 42.2004C123.891 43.2602 123.277 45.2396 125.318 46.5675C125.695 46.8347 126.136 46.997 126.596 47.0376L126.518 46.984C124.633 45.6437 125.396 44.287 125.722 43.6849C125.905 43.3114 126.19 42.9972 126.544 42.7783C126.898 42.5595 127.306 42.4449 127.722 42.4478C128.613 42.4478 129.619 42.8891 130.996 43.8829C131.33 44.1262 131.821 44.485 132.188 44.8272C133.384 45.9077 133.838 47.1077 133.549 48.3984C133.359 49.147 133.041 49.8571 132.609 50.4974L132.539 50.6005C131.958 51.5169 131.151 52.2679 130.195 52.7808C129.239 53.2937 128.167 53.5513 127.083 53.5284L127.062 53.582Z" fill="#EDF2F4"/>
<path d="M126.376 34.1755C128.152 34.1834 129.885 34.7251 131.349 35.7302C134.991 38.2044 136.752 42.1344 135.263 44.3901C135.175 44.526 135.052 44.6358 134.907 44.7083C134.762 44.7808 134.6 44.8133 134.438 44.8025C133.848 44.8025 133.139 44.3901 132.578 43.9777C132.123 43.6742 131.74 43.2744 131.457 42.8066C130.896 41.8375 130.962 40.8643 129.312 39.7591C128.751 39.3596 128.084 39.1357 127.395 39.1158C125.906 39.1158 124.549 40.1962 123.708 41.821C122.582 43.9984 122.982 46.0355 124.867 47.2561C125.394 47.6299 126.019 47.8419 126.665 47.8665C126.924 47.8842 127.182 47.8355 127.417 47.7251C127.651 47.6147 127.854 47.4462 128.005 47.2355L128.083 47.1036L126.982 46.3118C125.696 45.4004 126.108 44.6623 126.426 44.1097C126.54 43.8681 126.721 43.6643 126.948 43.5225C127.174 43.3807 127.437 43.3069 127.704 43.3097C128.529 43.3097 129.552 43.9076 130.496 44.5881C130.888 44.8726 131.321 45.1943 131.618 45.4747C132.681 46.4355 132.933 47.3592 132.727 48.2541C132.556 48.9037 132.277 49.5198 131.902 50.0768L131.832 50.184C131.324 50.9851 130.618 51.6414 129.782 52.0893C128.946 52.5373 128.009 52.7617 127.061 52.7408C125.161 52.6706 123.322 52.0487 121.77 50.9511C117.79 48.283 117.048 43.2396 118.883 39.0787C119.509 37.6159 120.553 36.3703 121.884 35.4981C123.214 34.6258 124.773 34.1658 126.364 34.1755M126.364 32.526C124.457 32.5195 122.589 33.0734 120.994 34.1188C119.399 35.1642 118.146 36.6551 117.39 38.4065C115.056 43.6643 116.479 49.3881 120.85 52.3243C122.675 53.6019 124.834 54.3185 127.061 54.3862C128.28 54.4023 129.483 54.1079 130.558 53.5308C131.632 52.9537 132.541 52.1127 133.201 51.0871L133.251 51.0129L133.271 50.9799C133.758 50.2563 134.117 49.4541 134.331 48.6087C134.501 47.8878 134.466 47.1339 134.232 46.4314H134.455C134.887 46.4358 135.314 46.3312 135.695 46.1272C136.076 45.9233 136.4 45.6265 136.636 45.2644C138.653 42.2293 136.694 37.3302 132.273 34.3446C130.537 33.1538 128.482 32.513 126.376 32.5054L126.364 32.526ZM124.714 43.8169C124.78 43.384 124.92 42.9656 125.127 42.5798C125.704 41.4581 126.554 40.7653 127.345 40.7653C127.72 40.7787 128.082 40.9036 128.384 41.1241C128.746 41.3385 129.049 41.6388 129.267 41.9983C128.761 41.785 128.22 41.6703 127.671 41.6602C127.11 41.6561 126.558 41.8081 126.078 42.0994C125.598 42.3907 125.209 42.8098 124.954 43.3097C124.86 43.4765 124.776 43.6486 124.702 43.8252L124.714 43.8169Z" fill="#45413C"/>
</svg>
