<svg width="24" height="24" viewBox="0 0 24 24" fill="none" xmlns="http://www.w3.org/2000/svg">
<path d="M9.79754 15.3439C7.79162 14.8882 6.22538 13.3712 5.75486 11.4285C5.41505 10.0254 5.41505 8.56527 5.75486 7.16223C6.22538 5.21947 7.79162 3.70254 9.79753 3.24683C11.2462 2.91772 12.7538 2.91772 14.2025 3.24683C16.2084 3.70254 17.7746 5.21947 18.2451 7.16223C18.585 8.56527 18.585 10.0254 18.2451 11.4285C17.7746 13.3712 16.2084 14.8882 14.2025 15.3439C12.7538 15.673 11.2462 15.673 9.79754 15.3439C9.0703 15.1787 8.40085 14.874 7.82046 14.46L6.67359 18.9669C6.32924 20.3201 7.77673 21.4446 9.0659 20.8255L10.9987 19.8972C11.6296 19.5943 12.3704 19.5943 13.0013 19.8972L14.9341 20.8255C16.2233 21.4446 17.6708 20.3201 17.3264 18.9669L16.1795 14.4601C15.5991 14.874 14.9297 15.1787 14.2025 15.3439" stroke="#363853" stroke-width="1.5"/>
</svg>
