<svg width="24" height="24" viewBox="0 0 24 24" fill="none" xmlns="http://www.w3.org/2000/svg">
<path d="M22 17.0208V13.0416L21.9756 12.6779C21.8604 10.9593 21.3378 9.34752 20.4999 7.9502M15.5896 17.8012C15.4203 16.9103 15.4203 15.9944 15.5896 15.1035C15.8616 13.6716 16.8981 12.5183 18.2698 12.121L18.5607 12.0367C18.8632 11.9491 19.176 11.9047 19.4903 11.9047C20.8764 11.9047 22 13.0544 22 14.4727V18.432C22 19.8503 20.8764 21 19.4903 21C19.176 21 18.8632 20.9556 18.5607 20.868L18.2698 20.7837C16.8981 20.3865 15.8616 19.2331 15.5896 17.8012Z" stroke="#363853" stroke-width="1.5" stroke-linecap="round"/>
<path d="M1.99997 17.0208V13.0416L2.02435 12.678C2.33801 7.99856 5.67194 4.112 10.1659 3.18694C11.3765 2.93774 12.6235 2.93774 13.8341 3.18694C15.5048 3.53086 17.0153 4.28413 18.2698 5.3353L18.4672 5.53274M3.49994 20.5L8.41038 15.5896L18.4672 5.53274L21.9999 2M1.99994 22L3.49994 20.5M8.41038 15.5896C8.41038 15.2663 8.38947 14.9406 8.29056 14.6328C7.90155 13.4224 6.94799 12.4737 5.73018 12.121L5.43922 12.0367C5.13678 11.9492 4.82397 11.9047 4.50966 11.9047C3.1236 11.9047 1.99997 13.0544 1.99998 14.4727L1.99998 18.4321C1.99997 19.2803 2.40187 20.0324 3.02145 20.5L3.49994 20.5" stroke="#363853" stroke-width="1.5" stroke-linecap="round"/>
</svg>
