<svg width="155" height="155" viewBox="0 0 155 155" fill="none" xmlns="http://www.w3.org/2000/svg">
<path d="M15.6445 77.4999C15.6445 93.9054 22.1616 109.639 33.762 121.239C45.3623 132.84 61.0959 139.357 77.5013 139.357C93.9067 139.357 109.64 132.84 121.241 121.239C132.841 109.639 139.358 93.9054 139.358 77.4999C139.358 61.0945 132.841 45.361 121.241 33.7606C109.64 22.1602 93.9067 15.6432 77.5013 15.6432C61.0959 15.6432 45.3623 22.1602 33.762 33.7606C22.1616 45.361 15.6445 61.0945 15.6445 77.4999Z" fill="#009FD9"/>
<path d="M46.2293 24.1176L41.9942 31.9527L49.0046 37.3137L36.4023 55.7264L51.5201 75.438L43.2231 99.3271L50.0314 120.771H73.9865L66.242 96.8199L64.1801 75.1865L49.017 56.3243L58.5801 34.6126L48.6335 28.2125L51.7964 21.202M99.9416 19.8412L98.4241 23.4206L83.8011 33.128L103.806 46.8478L99.4303 65.3513L106.639 75.3638L90.1641 105.467L93.6075 115.534L128.371 85.8423L114.54 61.5656L114.977 43.6024L95.125 32.8187L103.826 24.3031L104.016 21.5897" fill="#FFE500"/>
<path d="M46.2293 24.1176L41.9942 31.9527L49.0046 37.3137L36.4023 55.7264L51.5201 75.438L43.2231 99.3271L50.0314 120.771H73.9865L66.242 96.8199L64.1801 75.1865L49.017 56.3243L58.5801 34.6126L48.6335 28.2125L51.7964 21.202M99.9416 19.8412L98.4241 23.4206L83.8011 33.128L103.806 46.8478L99.4303 65.3513L106.639 75.3638L90.1641 105.467L93.6075 115.534L128.371 85.8423L114.54 61.5656L114.977 43.6024L95.125 32.8187L103.826 24.3031L104.016 21.5897" stroke="#FFF48C" stroke-width="2.42" stroke-miterlimit="10"/>
<path d="M23.8908 49.7345L23.4784 63.5533C23.4764 63.6106 23.4863 63.6677 23.5076 63.721C23.5289 63.7742 23.5611 63.8225 23.6021 63.8626L29.8496 69.8915C29.9141 69.9519 29.9575 70.0315 29.9733 70.1184L31.0496 76.2628C31.0573 76.3722 31.1081 76.474 31.1908 76.5459C31.2736 76.6179 31.3815 76.654 31.4909 76.6463C31.6003 76.6387 31.7021 76.5879 31.774 76.5051C31.846 76.4224 31.8821 76.3144 31.8744 76.2051L32.0888 69.5369C32.0903 69.4793 32.0797 69.422 32.0577 69.3687C32.0357 69.3154 32.0027 69.2674 31.961 69.2276L25.7423 63.2316C25.7006 63.1919 25.6677 63.1438 25.6456 63.0905C25.6236 63.0373 25.613 62.98 25.6145 62.9224L26.0021 49.0664C26.0042 48.9763 25.9767 48.8879 25.9238 48.8149L24.0887 46.2788C23.6763 47.0087 23.2639 47.7468 22.8516 48.4974L23.7629 49.4335C23.8036 49.4723 23.836 49.519 23.858 49.5708C23.8799 49.6225 23.8911 49.6782 23.8908 49.7345ZM129.357 49.6726L127.608 57.8171C127.597 57.8735 127.573 57.9268 127.54 57.9737C127.507 58.0206 127.464 58.0599 127.414 58.0893L122.985 60.6708C122.936 60.7001 122.893 60.7395 122.86 60.7863C122.826 60.8332 122.803 60.8866 122.791 60.9429L122.292 63.31C122.275 63.4085 122.294 63.51 122.345 63.5957C122.397 63.6813 122.478 63.7453 122.574 63.7755C122.669 63.8058 122.772 63.8004 122.864 63.7603C122.955 63.7201 123.029 63.648 123.072 63.5574L123.938 61.5698C123.972 61.4888 124.031 61.4209 124.107 61.3759L128.577 58.7697C128.627 58.7408 128.671 58.7016 128.705 58.6547C128.739 58.6078 128.763 58.5543 128.775 58.4975L130.515 50.3861C130.527 50.3326 130.55 50.2821 130.582 50.2375C130.614 50.1929 130.654 50.1551 130.701 50.1263L132.437 49.0417C132.185 48.5551 131.926 48.0767 131.662 47.5984L129.493 49.4582C129.426 49.5136 129.378 49.5886 129.357 49.6726ZM68.7287 20.2206L74.6504 25.5155C74.6991 25.5559 74.7361 25.6086 74.7576 25.6681L77.9494 33.528C77.9802 33.619 77.9802 33.7175 77.9494 33.8084L72.6916 50.2087C72.6733 50.2672 72.6683 50.3289 72.6768 50.3896C72.6854 50.4502 72.7073 50.5082 72.7411 50.5592L74.8525 53.817C74.9054 53.8996 74.986 53.9606 75.0799 53.9891C75.1738 54.0175 75.2747 54.0116 75.3646 53.9724C75.4545 53.9332 75.5274 53.8632 75.5704 53.775C75.6133 53.6868 75.6234 53.5862 75.5989 53.4913L74.9391 50.9593C74.9226 50.8915 74.9226 50.8208 74.9391 50.7531L79.3062 33.6641C79.3324 33.5823 79.3324 33.4944 79.3062 33.4126L75.9865 24.8227C75.9657 24.7718 75.9348 24.7255 75.8958 24.6866L71.1947 19.8164C71.1271 19.746 71.0867 19.6539 71.0807 19.5565C71.0747 19.4591 71.1034 19.3627 71.1617 19.2845L73.7638 15.7545C73.0421 15.7958 72.3246 15.8535 71.6112 15.9195L68.6792 19.6597C68.6148 19.7421 68.5841 19.8458 68.5933 19.9499C68.6025 20.054 68.6509 20.1508 68.7287 20.2206Z" fill="#FFF48C"/>
<path d="M43.8711 126.173C43.8711 127.017 47.1952 127.827 53.1122 128.424C59.0292 129.021 67.0543 129.356 75.4222 129.356C83.79 129.356 91.8152 129.021 97.7321 128.424C103.649 127.827 106.973 127.017 106.973 126.173C106.973 125.329 103.649 124.519 97.7321 123.922C91.8152 123.325 83.79 122.989 75.4222 122.989C67.0543 122.989 59.0292 123.325 53.1122 123.922C47.1952 124.519 43.8711 125.329 43.8711 126.173Z" fill="#00658A"/>
<path d="M66.1674 123.241C66.7484 123.862 67.451 124.356 68.2314 124.693C69.0119 125.03 69.8535 125.202 70.7036 125.2H74.7573C77.4789 125.199 80.1069 124.207 82.149 122.407C84.1911 120.608 85.507 118.126 85.8503 115.426L88.5513 94.1394H67.751C63.3561 94.1405 59.1417 95.8871 56.0344 98.9951C52.9272 102.103 51.1816 106.318 51.1816 110.713V113.686L44.7444 120.127C44.3279 120.543 44.044 121.072 43.9287 121.648C43.8134 122.225 43.8719 122.823 44.0967 123.366C44.3215 123.909 44.7026 124.373 45.1916 124.7C45.6805 125.026 46.2554 125.2 46.8434 125.2H61.5942C62.9874 125.194 64.34 124.73 65.4422 123.877C66.5443 123.025 67.3345 121.833 67.6902 120.486C68.0459 119.139 67.9472 117.712 67.4094 116.427C66.8717 115.141 65.9249 114.069 64.7159 113.377L63.6643 112.775" fill="#DAEDF7"/>
<path d="M85.8438 115.439L88.3181 95.9579C88.0165 95.3369 87.6791 94.7338 87.3078 94.1517L82.5201 95.2775C80.4211 98.5147 73.1055 101.1 73.1055 106.457C73.1055 114.635 74.1612 122.606 78.3633 124.602C80.3426 123.927 82.0929 122.711 83.4153 121.091C84.7377 119.471 85.5791 117.513 85.8438 115.439Z" fill="#C0DCEB"/>
<path d="M47.5651 125.01C47.3394 124.467 47.2801 123.87 47.3946 123.294C47.5092 122.717 47.7924 122.188 48.2084 121.773L54.6456 115.336V112.358C54.6456 110.182 55.0743 108.027 55.9072 106.017C56.7402 104.006 57.9611 102.179 59.5001 100.641C61.0391 99.1019 62.8662 97.8814 64.877 97.049C66.8877 96.2166 69.0428 95.7884 71.2191 95.7889H88.3328L88.5431 94.1394H67.751C63.3561 94.1405 59.1417 95.8871 56.0344 98.9951C52.9272 102.103 51.1816 106.318 51.1816 110.713V113.686L44.7444 120.127C44.3279 120.543 44.044 121.072 43.9287 121.648C43.8134 122.225 43.8719 122.823 44.0967 123.366C44.3215 123.909 44.7026 124.373 45.1916 124.7C45.6805 125.026 46.2554 125.2 46.8434 125.2H47.6681C47.6297 125.139 47.5952 125.075 47.5651 125.01Z" fill="#FFF48C"/>
<path d="M66.1674 123.241C66.7484 123.862 67.451 124.356 68.2314 124.693C69.0119 125.03 69.8535 125.202 70.7036 125.2H74.7573C77.4789 125.199 80.1069 124.207 82.149 122.407C84.1911 120.608 85.507 118.126 85.8503 115.426L88.5513 94.1394H67.751C63.3561 94.1405 59.1417 95.8871 56.0344 98.9951C52.9272 102.103 51.1816 106.318 51.1816 110.713V113.686L44.7444 120.127C44.3279 120.543 44.044 121.072 43.9287 121.648C43.8134 122.225 43.8719 122.823 44.0967 123.366C44.3215 123.909 44.7026 124.373 45.1916 124.7C45.6805 125.026 46.2554 125.2 46.8434 125.2H61.5942C62.9874 125.194 64.34 124.73 65.4422 123.877C66.5443 123.025 67.3345 121.833 67.6902 120.486C68.0459 119.139 67.9472 117.712 67.4094 116.427C66.8717 115.141 65.9249 114.069 64.7159 113.377L63.6643 112.775" stroke="#45413C" stroke-width="2.42" stroke-linecap="round" stroke-linejoin="round"/>
<path d="M104.378 122.911C104.378 124.114 103.9 125.268 103.049 126.119C102.198 126.969 101.044 127.447 99.8413 127.447C95.5485 127.447 92.934 124.523 92.0639 118.754C91.4824 114.87 91.3711 108.791 91.3711 98.9601C91.3711 97.757 91.849 96.6033 92.6997 95.7526C93.5504 94.9019 94.7042 94.424 95.9073 94.424C97.1103 94.424 98.2641 94.9019 99.1148 95.7526C99.9655 96.6033 100.443 97.757 100.443 98.9601C100.443 105.245 100.443 115.398 101.239 118.602C102.15 118.897 102.945 119.473 103.508 120.247C104.072 121.021 104.376 121.953 104.378 122.911Z" fill="#C0DCEB" stroke="#45413C" stroke-width="2.42" stroke-linecap="round" stroke-linejoin="round"/>
<path d="M51.1836 113.686L51.1877 118.87" stroke="#45413C" stroke-width="2.42" stroke-linecap="round" stroke-linejoin="round"/>
<path d="M78.8141 106.997C78.8553 112.56 78.9749 116.239 79.5605 118.593C80.6016 118.918 81.4909 119.607 82.0655 120.534C82.6401 121.461 82.8615 122.564 82.6892 123.641C82.5169 124.718 81.9625 125.696 81.1273 126.398C80.2922 127.099 79.2324 127.476 78.1419 127.46C73.849 127.46 71.2346 124.536 70.3686 118.767C69.8201 115.13 69.6882 113.323 69.6758 104.552" fill="#DAEDF7"/>
<path d="M79.5633 118.593C78.9777 116.239 78.8581 112.56 78.8169 106.997L73.188 105.488C73.133 105.804 73.1054 106.124 73.1055 106.445C73.1055 114.622 74.1612 122.593 78.3633 124.589C79.9757 125.274 81.2087 125.348 82.1695 125.002C82.4785 124.417 82.656 123.772 82.6895 123.112C82.723 122.451 82.6117 121.792 82.3634 121.179C82.1151 120.566 81.7358 120.015 81.2522 119.564C80.7685 119.113 80.1921 118.773 79.5633 118.569V118.593Z" fill="#C0DCEB"/>
<path d="M78.8141 106.997C78.8553 112.56 78.9749 116.239 79.5605 118.593C80.6016 118.918 81.4909 119.607 82.0655 120.534C82.6401 121.461 82.8615 122.564 82.6892 123.641C82.5169 124.718 81.9625 125.696 81.1273 126.398C80.2922 127.099 79.2324 127.476 78.1419 127.46C73.849 127.46 71.2346 124.536 70.3686 118.767C69.8201 115.13 69.6882 113.323 69.6758 104.552" stroke="#45413C" stroke-width="2.42" stroke-linecap="round" stroke-linejoin="round"/>
<path d="M65.4478 98.4076C59.6414 92.3446 56.2846 84.3471 56.0242 75.9563C55.7638 67.5655 58.6182 59.3753 64.0375 52.9639C69.4567 46.5526 77.0572 42.374 85.3741 41.2333C93.6911 40.0926 102.136 42.0706 109.081 46.7861C116.027 51.5016 120.981 58.6208 122.989 66.7719C124.998 74.9229 123.918 83.5289 119.958 90.9313C115.999 98.3337 109.44 104.009 101.545 106.862C93.6498 109.716 84.978 109.547 77.2006 106.387" fill="#DAEDF7"/>
<path d="M65.4478 98.4076C59.6414 92.3446 56.2846 84.3471 56.0242 75.9563C55.7638 67.5655 58.6182 59.3753 64.0375 52.9639C69.4567 46.5526 77.0572 42.374 85.3741 41.2333C93.6911 40.0926 102.136 42.0706 109.081 46.7861C116.027 51.5016 120.981 58.6208 122.989 66.7719C124.998 74.9229 123.918 83.5289 119.958 90.9313C115.999 98.3337 109.44 104.009 101.545 106.862C93.6498 109.716 84.978 109.547 77.2006 106.387" fill="#DAEDF7"/>
<path d="M90.7425 77.6814C69.1669 78.2464 69.4597 99.5169 60.5977 91.9868C64.7368 99.0763 71.2951 104.434 79.0678 107.076C86.8404 109.718 95.3053 109.466 102.907 106.367C110.509 103.268 116.738 97.5303 120.448 90.2075C124.159 82.8846 125.103 74.4688 123.106 66.506" fill="#C0DCEB"/>
<path d="M101.831 100.21C101.089 100.057 97.9468 97.4261 97.5839 96.4983M82.5156 97.2942C83.2662 97.3643 87.0518 95.7766 87.6704 94.9807" stroke="#45413C" stroke-width="2.42" stroke-linecap="round" stroke-linejoin="round"/>
<path d="M89.2455 101.006C89.3609 100.373 89.7229 99.8119 90.2519 99.4461C90.7808 99.0803 91.4335 98.9396 92.0662 99.055C92.6989 99.1704 93.2598 99.5324 93.6256 100.061C93.9914 100.59 94.1321 101.243 94.0167 101.876L93.5837 104.28C92.9255 103.746 92.1435 103.386 91.3098 103.233C90.4761 103.08 89.6173 103.14 88.8125 103.406L89.2455 101.006Z" fill="#FFCCDD" stroke="#45413C" stroke-width="2.42" stroke-linecap="round" stroke-linejoin="round"/>
<path d="M59.9617 87.5991C59.9616 80.0319 62.4789 72.6796 67.1171 66.7004C71.7553 60.7212 78.2509 56.455 85.5806 54.5737C92.9102 52.6923 100.658 53.3029 107.602 56.3091C114.547 59.3153 120.294 64.5463 123.938 71.1782C123.405 66.1591 121.765 61.3209 119.136 57.0127C116.506 52.7045 112.953 49.0339 108.732 46.2657C104.512 43.4976 99.7295 41.7009 94.7304 41.0056C89.7312 40.3102 84.6401 40.7334 79.8243 42.2446C75.0086 43.7558 70.5885 46.3174 66.883 49.7443C63.1774 53.1713 60.279 57.3783 58.3968 62.0615C56.5147 66.7447 55.6958 71.7874 55.9992 76.8255C56.3026 81.8637 57.7208 86.7716 60.1514 91.1951C60.0257 90.0005 59.9624 88.8003 59.9617 87.5991Z" fill="#FFF48C"/>
<path d="M65.4478 98.4076C59.6414 92.3446 56.2846 84.3471 56.0242 75.9563C55.7638 67.5655 58.6182 59.3753 64.0375 52.9639C69.4567 46.5526 77.0572 42.374 85.3741 41.2333C93.6911 40.0926 102.136 42.0706 109.081 46.7861C116.027 51.5016 120.981 58.6208 122.989 66.7719C124.998 74.9229 123.918 83.5289 119.958 90.9313C115.999 98.3337 109.44 104.009 101.545 106.862C93.6498 109.716 84.978 109.547 77.2006 106.387" stroke="#45413C" stroke-width="2.42" stroke-linecap="round" stroke-linejoin="round"/>
</svg>
