<svg width="155" height="155" viewBox="0 0 155 155" fill="none" xmlns="http://www.w3.org/2000/svg">
<path d="M59.4708 108.053C51.9541 104.088 45.9818 97.7193 42.5063 89.9639C39.0307 82.2084 38.2522 73.5125 40.2949 65.2631C42.3375 57.0136 47.0837 49.6857 53.7764 44.4481C60.4692 39.2104 68.723 36.3646 77.2216 36.3646C85.7202 36.3646 93.974 39.2104 100.667 44.4481C107.36 49.6857 112.106 57.0136 114.148 65.2631C116.191 73.5125 115.412 82.2084 111.937 89.9639C108.461 97.7193 102.489 104.088 94.9724 108.053V138.68H59.4708V108.053Z" fill="white"/>
<path d="M64.1211 72.7577C64.1211 73.3637 64.4599 73.9637 65.1181 74.5236C65.7762 75.0835 66.741 75.5922 67.9572 76.0207C69.1733 76.4492 70.6172 76.7891 72.2062 77.021C73.7952 77.2529 75.4983 77.3722 77.2182 77.3722C78.9382 77.3722 80.6413 77.2529 82.2303 77.021C83.8193 76.7891 85.2631 76.4492 86.4793 76.0207C87.6955 75.5922 88.6602 75.0835 89.3184 74.5236C89.9766 73.9637 90.3154 73.3637 90.3154 72.7577C90.3154 72.1517 89.9766 71.5517 89.3184 70.9918C88.6602 70.4319 87.6955 69.9232 86.4793 69.4947C85.2631 69.0662 83.8193 68.7263 82.2303 68.4944C80.6413 68.2625 78.9382 68.1432 77.2182 68.1432C75.4983 68.1432 73.7952 68.2625 72.2062 68.4944C70.6172 68.7263 69.1733 69.0662 67.9572 69.4947C66.741 69.9232 65.7762 70.4319 65.1181 70.9918C64.4599 71.5517 64.1211 72.1517 64.1211 72.7577Z" fill="#FFCCDD"/>
<path d="M59.4708 108.053C51.9541 104.088 45.9818 97.7193 42.5063 89.9639C39.0307 82.2084 38.2522 73.5125 40.2949 65.2631C42.3375 57.0136 47.0837 49.6857 53.7764 44.4481C60.4692 39.2104 68.723 36.3646 77.2216 36.3646C85.7202 36.3646 93.974 39.2104 100.667 44.4481C107.36 49.6857 112.106 57.0136 114.148 65.2631C116.191 73.5125 115.412 82.2084 111.937 89.9639C108.461 97.7193 102.489 104.088 94.9724 108.053" stroke="#45413C" stroke-width="2.42" stroke-miterlimit="10"/>
<path d="M59.4688 138.68V116.895M94.9704 116.895V138.68" stroke="#45413C" stroke-width="2.42" stroke-miterlimit="10" stroke-linecap="round"/>
<path d="M77.2176 95.69C68.9311 95.6936 60.8988 92.8285 54.4851 87.5815C48.0714 82.3344 43.6718 75.029 42.0335 66.906C40.9822 72.1144 41.1009 77.4913 42.381 82.6483C43.6611 87.8052 46.0708 92.6134 49.4358 96.7255C52.8008 100.838 57.0372 104.151 61.8389 106.426C66.6406 108.701 71.8877 109.882 77.2011 109.882C82.5146 109.882 87.7617 108.701 92.5634 106.426C97.3651 104.151 101.601 100.838 104.967 96.7255C108.332 92.6134 110.741 87.8052 112.021 82.6483C113.301 77.4913 113.42 72.1144 112.369 66.906C110.732 75.0234 106.337 82.3246 99.9299 87.571C93.523 92.8174 85.4985 95.6859 77.2176 95.69Z" fill="#F0F0F0"/>
<path d="M94.971 116.895L95.1772 116.775C100.212 113.421 104.693 109.302 108.46 104.569C116.798 94.0323 119.532 82.3414 116.365 70.7535L114.592 71.236C114.218 70.5277 113.686 69.9152 113.037 69.4463C111.777 68.2404 110.093 67.5784 108.349 67.603C104.951 67.603 102.192 69.9329 102.192 72.803C102.192 76.7413 106.394 77.6444 107.425 78.2176C107.957 84.9641 105.697 91.6116 100.678 98.0447C97.5917 101.955 93.9211 105.367 89.7957 108.16M59.4694 116.895L59.2632 116.775C54.2275 113.422 49.746 109.304 45.9805 104.569C37.6422 94.0323 34.9081 82.3414 38.071 70.7535L39.8443 71.236C40.2207 70.5284 40.7538 69.9163 41.4031 69.4463C42.6636 68.2404 44.3476 67.5784 46.0918 67.603C49.4898 67.603 52.2445 69.9329 52.2445 72.803C52.2445 76.7413 48.0465 77.6444 47.0155 78.2176C46.4836 84.9641 48.7393 91.6116 53.762 98.0447C56.8491 101.953 60.5181 105.365 64.6406 108.16" fill="white"/>
<path d="M94.971 116.895L95.1772 116.775C100.212 113.421 104.693 109.302 108.46 104.569C116.798 94.0323 119.532 82.3414 116.365 70.7535L114.592 71.236C114.218 70.5277 113.686 69.9152 113.037 69.4463C111.777 68.2404 110.093 67.5784 108.349 67.603C104.951 67.603 102.192 69.9329 102.192 72.803C102.192 76.7413 106.394 77.6444 107.425 78.2176C107.957 84.9641 105.697 91.6116 100.678 98.0447C97.5917 101.955 93.9211 105.367 89.7957 108.16M59.4694 116.895L59.2632 116.775C54.2275 113.422 49.746 109.304 45.9805 104.569C37.6422 94.0323 34.9081 82.3414 38.071 70.7535L39.8443 71.236C40.2207 70.5284 40.7538 69.9163 41.4031 69.4463C42.6636 68.2404 44.3476 67.5784 46.0918 67.603C49.4898 67.603 52.2445 69.9329 52.2445 72.803C52.2445 76.7413 48.0465 77.6444 47.0155 78.2176C46.4836 84.9641 48.7393 91.6116 53.762 98.0447C56.8491 101.953 60.5181 105.365 64.6406 108.16" stroke="#45413C" stroke-width="2.42" stroke-linecap="round" stroke-linejoin="round"/>
<path d="M27.1094 54.8481C27.1094 55.1741 27.2388 55.4866 27.4693 55.7171C27.6998 55.9476 28.0123 56.077 28.3383 56.077C28.6642 56.077 28.9768 55.9476 29.2072 55.7171C29.4377 55.4866 29.5672 55.1741 29.5672 54.8481C29.5672 54.5222 29.4377 54.2097 29.2072 53.9792C28.9768 53.7487 28.6642 53.6193 28.3383 53.6193C28.0123 53.6193 27.6998 53.7487 27.4693 53.9792C27.2388 54.2097 27.1094 54.5222 27.1094 54.8481Z" fill="white"/>
<path d="M48.0664 60.6213C48.0664 60.9473 48.1959 61.2598 48.4263 61.4903C48.6568 61.7208 48.9694 61.8502 49.2953 61.8502C49.6212 61.8502 49.9338 61.7208 50.1642 61.4903C50.3947 61.2598 50.5242 60.9473 50.5242 60.6213C50.5242 60.2954 50.3947 59.9828 50.1642 59.7524C49.9338 59.5219 49.6212 59.3925 49.2953 59.3925C48.9694 59.3925 48.6568 59.5219 48.4263 59.7524C48.1959 59.9828 48.0664 60.2954 48.0664 60.6213Z" fill="white"/>
<path d="M32.1367 59.4296C32.1367 60.006 32.3657 60.5587 32.7732 60.9663C33.1808 61.3738 33.7336 61.6028 34.31 61.6028C34.8863 61.6028 35.4391 61.3738 35.8467 60.9663C36.2542 60.5587 36.4832 60.006 36.4832 59.4296C36.4832 58.8532 36.2542 58.3004 35.8467 57.8929C35.4391 57.4853 34.8863 57.2563 34.31 57.2563C33.7336 57.2563 33.1808 57.4853 32.7732 57.8929C32.3657 58.3004 32.1367 58.8532 32.1367 59.4296Z" fill="white"/>
<path d="M68.2891 57.2564C68.9942 56.3945 72.6438 55.6481 73.6747 55.9533M86.1574 57.2564C85.4481 56.3945 81.8027 55.6481 80.7718 55.9533" stroke="#45413C" stroke-width="2.42" stroke-linecap="round" stroke-linejoin="round"/>
<path d="M77.2202 109.868L71.1211 132.614L77.2202 140.054L83.3234 132.614L77.2202 109.868Z" fill="#EF233C" stroke="#45413C" stroke-width="2.42" stroke-linecap="round" stroke-linejoin="round"/>
<path d="M73.3359 109.868C73.3359 110.652 73.7448 111.404 74.4725 111.958C75.2002 112.513 76.1872 112.824 77.2164 112.824C78.2456 112.824 79.2326 112.513 79.9603 111.958C80.6881 111.404 81.0969 110.652 81.0969 109.868C81.0969 109.083 80.6881 108.331 79.9603 107.777C79.2326 107.222 78.2456 106.911 77.2164 106.911C76.1872 106.911 75.2002 107.222 74.4725 107.777C73.7448 108.331 73.3359 109.083 73.3359 109.868Z" fill="#EF233C" stroke="#45413C" stroke-width="2.42" stroke-linecap="round" stroke-linejoin="round"/>
<path d="M64.1211 74.2299C64.1211 75.0287 64.4599 75.8197 65.1181 76.5576C65.7762 77.2956 66.741 77.9661 67.9572 78.531C69.1733 79.0958 70.6172 79.5438 72.2062 79.8495C73.7952 80.1552 75.4983 80.3125 77.2182 80.3125C78.9382 80.3125 80.6413 80.1552 82.2303 79.8495C83.8193 79.5438 85.2631 79.0958 86.4793 78.531C87.6955 77.9661 88.6602 77.2956 89.3184 76.5576C89.9766 75.8197 90.3154 75.0287 90.3154 74.2299C90.3154 73.4311 89.9766 72.6402 89.3184 71.9022C88.6602 71.1642 87.6955 70.4937 86.4793 69.9289C85.2631 69.3641 83.8193 68.916 82.2303 68.6104C80.6413 68.3047 78.9382 68.1473 77.2182 68.1473C75.4983 68.1473 73.7952 68.3047 72.2062 68.6104C70.6172 68.916 69.1733 69.3641 67.9572 69.9289C66.741 70.4937 65.7762 71.1642 65.1181 71.9022C64.4599 72.6402 64.1211 73.4311 64.1211 74.2299Z" stroke="#45413C" stroke-width="2.42" stroke-linecap="round" stroke-linejoin="round"/>
<path d="M71.5662 72.6793C71.5002 72.5845 71.4384 72.4896 71.3765 72.3906C68.9196 67.2557 66.0104 62.3497 62.6836 57.7306L57.5 64.1884C61.4258 66.9431 63.7764 74.1309 64.2671 75.1165C64.3414 75.2361 64.4197 75.3639 64.5022 75.4876C66.6837 72.1391 69.6652 71.8834 71.5662 72.6793ZM96.944 64.1884L91.7563 57.7306C91.7563 57.7306 83.4592 69.1988 83.5664 72.1968C83.4386 72.3494 83.3108 72.4937 83.1829 72.6381C85.0757 72.069 87.8016 72.5267 89.8593 75.6196C89.9707 75.467 90.0696 75.3185 90.1604 75.1742C91.1624 73.6443 93.0883 66.8895 96.944 64.1884Z" fill="#FFE500" stroke="#45413C" stroke-width="2.42" stroke-linejoin="round"/>
<path d="M83.1807 72.6381C82.022 72.9886 81.1766 73.7185 80.9869 74.4649C80.7601 72.9267 78.6528 71.9906 77.2178 72.5597C75.7827 71.9742 73.6754 72.9267 73.4486 74.4649C73.2754 73.7886 72.562 73.0958 71.564 72.6793C69.6465 71.8834 66.6815 72.1185 64.5 75.4876C65.8402 77.5495 68.4135 80.3124 77.2178 80.3124C84.9993 80.3124 88.3932 77.6608 89.8571 75.6196C87.8076 72.5267 85.0736 72.069 83.1807 72.6381Z" fill="#FFFACF" stroke="#45413C" stroke-width="2.42" stroke-linecap="round" stroke-linejoin="round"/>
<path d="M72.8483 60.1431L70.9844 64.4153M78.1515 60.1431L76.2876 64.4153M83.4588 60.1431L81.5949 64.4153" stroke="#FF866E" stroke-width="2.42" stroke-linecap="round" stroke-linejoin="round"/>
<path d="M81.9375 23.4289C81.9375 23.9266 82.1352 24.4038 82.4871 24.7557C82.8389 25.1076 83.3162 25.3053 83.8138 25.3053C84.3115 25.3053 84.7887 25.1076 85.1406 24.7557C85.4925 24.4038 85.6901 23.9266 85.6901 23.4289C85.6901 22.9313 85.4925 22.4541 85.1406 22.1022C84.7887 21.7503 84.3115 21.5526 83.8138 21.5526C83.3162 21.5526 82.8389 21.7503 82.4871 22.1022C82.1352 22.4541 81.9375 22.9313 81.9375 23.4289Z" fill="#FFF48C" stroke="#EBCB00" stroke-width="2.42" stroke-miterlimit="10"/>
<path d="M133.926 31.3384C133.926 31.836 134.123 32.3132 134.475 32.6651C134.827 33.017 135.304 33.2147 135.802 33.2147C136.3 33.2147 136.777 33.017 137.129 32.6651C137.481 32.3132 137.678 31.836 137.678 31.3384C137.678 30.8407 137.481 30.3635 137.129 30.0116C136.777 29.6597 136.3 29.462 135.802 29.462C135.304 29.462 134.827 29.6597 134.475 30.0116C134.123 30.3635 133.926 30.8407 133.926 31.3384Z" fill="#FFF48C" stroke="#EBCB00" stroke-width="2.42" stroke-miterlimit="10"/>
<path d="M62.25 27.4084C62.25 27.9061 62.4477 28.3833 62.7996 28.7352C63.1514 29.0871 63.6287 29.2847 64.1263 29.2847C64.624 29.2847 65.1012 29.0871 65.4531 28.7352C65.805 28.3833 66.0026 27.9061 66.0026 27.4084C66.0026 26.9108 65.805 26.4335 65.4531 26.0817C65.1012 25.7298 64.624 25.5321 64.1263 25.5321C63.6287 25.5321 63.1514 25.7298 62.7996 26.0817C62.4477 26.4335 62.25 26.9108 62.25 27.4084Z" fill="#FFF48C" stroke="#EBCB00" stroke-width="2.42" stroke-miterlimit="10"/>
<path d="M24.5273 25.862C24.5273 26.3597 24.725 26.8369 25.0769 27.1888C25.4288 27.5407 25.906 27.7384 26.4037 27.7384C26.9013 27.7384 27.3785 27.5407 27.7304 27.1888C28.0823 26.8369 28.28 26.3597 28.28 25.862C28.28 25.3644 28.0823 24.8872 27.7304 24.5353C27.3785 24.1834 26.9013 23.9857 26.4037 23.9857C25.906 23.9857 25.4288 24.1834 25.0769 24.5353C24.725 24.8872 24.5273 25.3644 24.5273 25.862Z" fill="#FFF48C" stroke="#EBCB00" stroke-width="2.42" stroke-miterlimit="10"/>
<path d="M17.3203 43.9035C17.3203 44.4012 17.518 44.8784 17.8699 45.2303C18.2218 45.5822 18.699 45.7799 19.1966 45.7799C19.6943 45.7799 20.1715 45.5822 20.5234 45.2303C20.8753 44.8784 21.073 44.4012 21.073 43.9035C21.073 43.4059 20.8753 42.9287 20.5234 42.5768C20.1715 42.2249 19.6943 42.0272 19.1966 42.0272C18.699 42.0272 18.2218 42.2249 17.8699 42.5768C17.518 42.9287 17.3203 43.4059 17.3203 43.9035Z" fill="#FFF48C" stroke="#EBCB00" stroke-width="2.42" stroke-miterlimit="10"/>
<path d="M36.4844 20.3733C36.4844 20.8509 36.5785 21.3239 36.7612 21.7651C36.944 22.2064 37.2119 22.6074 37.5497 22.9451C37.8874 23.2829 38.2884 23.5508 38.7297 23.7336C39.171 23.9164 39.6439 24.0104 40.1216 24.0104C40.5992 24.0104 41.0722 23.9164 41.5134 23.7336C41.9547 23.5508 42.3557 23.2829 42.6934 22.9451C43.0312 22.6074 43.2991 22.2064 43.4819 21.7651C43.6647 21.3239 43.7587 20.8509 43.7587 20.3733C43.7587 19.4086 43.3755 18.4835 42.6934 17.8014C42.0113 17.1193 41.0862 16.7361 40.1216 16.7361C39.1569 16.7361 38.2318 17.1193 37.5497 17.8014C36.8676 18.4835 36.4844 19.4086 36.4844 20.3733Z" fill="#FFF48C" stroke="#EBCB00" stroke-width="2.42" stroke-miterlimit="10"/>
<path d="M101.621 24.8435C101.621 25.8081 102.004 26.7332 102.686 27.4153C103.368 28.0975 104.294 28.4807 105.258 28.4807C106.223 28.4807 107.148 28.0975 107.83 27.4153C108.512 26.7332 108.895 25.8081 108.895 24.8435C108.895 23.8788 108.512 22.9537 107.83 22.2716C107.148 21.5895 106.223 21.2063 105.258 21.2063C104.294 21.2063 103.368 21.5895 102.686 22.2716C102.004 22.9537 101.621 23.8788 101.621 24.8435Z" fill="#FFF48C" stroke="#EBCB00" stroke-width="2.42" stroke-miterlimit="10"/>
<path d="M107.624 69.5907C107.585 69.2906 107.608 68.9858 107.69 68.6948C107.773 68.4038 107.914 68.1327 108.105 67.898C108.296 67.6634 108.533 67.4702 108.801 67.3301C109.07 67.19 109.364 67.1061 109.665 67.0834L114.981 66.671C115.537 66.6294 116.088 66.7971 116.527 67.1412C116.966 67.4853 117.26 67.981 117.352 68.5309C117.404 68.8457 117.392 69.1678 117.315 69.4776C117.239 69.7874 117.099 70.0783 116.906 70.3324C116.713 70.5865 116.47 70.7984 116.192 70.9552C115.914 71.1121 115.607 71.2104 115.29 71.2443L110.342 71.7515C109.696 71.8202 109.049 71.6321 108.54 71.2278C108.032 70.8235 107.703 70.2355 107.624 69.5907Z" fill="white" stroke="#45413C" stroke-width="2.42" stroke-linejoin="round"/>
<path d="M26.406 41.652C27.0429 41.5769 27.6872 41.707 28.2452 42.0232C28.6122 42.25 28.7442 42.4356 28.8143 42.4356C28.9899 42.3777 29.1709 42.3376 29.3545 42.316C29.5359 42.316 29.7669 42.2706 30.0555 42.2624C30.3442 42.2541 30.6122 42.2624 30.8803 42.2624C31.6244 42.2701 32.3676 42.3155 33.1071 42.3984C33.1071 42.3984 34.1917 42.5304 35.4701 42.7407C36.7484 42.951 38.1629 43.1531 38.633 43.2149C39.5031 43.3139 40.1258 42.5304 41.1073 41.0623C40.633 39.3633 40.2825 38.4314 39.4165 38.2582C38.9505 38.1633 37.5485 37.9448 36.2536 37.7509C34.9587 37.5571 33.6845 37.4087 33.6845 37.4087L32.8597 37.3221C32.3607 37.2767 31.6762 37.2231 30.9339 37.2148H29.804C29.419 37.2296 29.035 37.264 28.6534 37.3179C27.9827 37.4031 27.329 37.5909 26.7153 37.8746C26.3856 38.0268 26.1014 38.2624 25.8909 38.5583C25.6804 38.8542 25.5509 39.1999 25.5152 39.5613C25.4947 39.9546 25.5642 40.3474 25.7186 40.7098C25.873 41.0721 26.1081 41.3944 26.406 41.652Z" fill="white"/>
<path d="M51.6583 59.8585C52.1452 59.9624 52.571 60.2552 52.8423 60.6727C53.1137 61.0901 53.2084 61.5981 53.1057 62.0853L51.551 69.3679C51.1998 70.9956 50.2182 72.4179 48.8209 73.3237C47.4236 74.2294 45.7245 74.5449 44.0952 74.201L36.5611 72.5515C33.1672 71.8257 30.9362 71.3143 30.1239 67.3102L28.8867 56.8357C28.9916 56.3496 29.2848 55.9248 29.7021 55.6543C30.1195 55.3838 30.627 55.2896 31.1136 55.3924L51.6583 59.8585ZM49.0438 63.1369L33.4847 59.7265L34.3713 66.6751C35.1136 68.3865 35.9755 68.5638 37.3446 68.8566L44.8705 70.535C45.5283 70.6744 46.2145 70.5474 46.7788 70.1818C47.3431 69.8162 47.7394 69.2417 47.8809 68.5844L49.0438 63.1369Z" fill="#E5F8FF" stroke="#45413C" stroke-width="2.42" stroke-linejoin="round"/>
<path d="M33.6065 31.5776C32.1148 31.1495 30.5155 31.3114 29.1398 32.03C27.7642 32.7485 26.7176 33.9685 26.2167 35.4375C23.6558 42.9098 23.1568 45.7016 22.4104 53.6646C22.2731 55.2097 22.7357 56.7483 23.7024 57.9615C24.6691 59.1746 26.0656 59.9691 27.6023 60.1802L57.1863 66.6545C58.1343 66.7854 59.0968 66.5536 59.8813 66.0054C60.6657 65.4572 61.2143 64.633 61.4173 63.6978L65.9287 42.5263C66.1291 41.5885 65.9665 40.6096 65.4736 39.7869C64.9808 38.9642 64.1944 38.359 63.273 38.0932L33.6065 31.5776Z" fill="#B8ECFF"/>
<path d="M57.1712 66.6627C58.1223 66.7967 59.0889 66.5653 59.8762 66.0151C60.6636 65.465 61.2133 64.6369 61.4145 63.6977L62.6847 57.7306C59.8599 55.7429 56.6474 54.2749 53.6659 54.4604C42.2925 55.1615 39.1461 49.7057 33.7852 43.3262C31.4965 40.588 28.0119 39.7509 24.8242 39.6808C23.4221 44.3242 22.985 47.3964 22.3994 53.648C22.2599 55.1966 22.7223 56.7395 23.6907 57.9559C24.6592 59.1724 26.059 59.969 27.5995 60.1801L57.1712 66.6627Z" fill="#FFE500"/>
<path d="M62.6826 57.7306C59.8578 55.7429 56.6454 54.2749 53.6639 54.4604C42.2946 55.1615 39.1482 49.7057 33.7873 43.3262C31.4986 40.588 28.014 39.7509 24.8263 39.6808C24.4551 40.9179 24.1541 42.019 23.8984 43.1077C27.1356 43.2437 30.5748 44.1303 32.88 46.7861C38.4554 53.1944 41.7709 58.6667 53.5897 58.0151C56.365 57.8625 59.3341 59.0378 62.0393 60.7203L62.6826 57.7306Z" fill="white"/>
<path d="M33.6065 31.5776C32.1148 31.1495 30.5155 31.3114 29.1398 32.03C27.7642 32.7485 26.7176 33.9685 26.2167 35.4375C23.6558 42.9098 23.1568 45.7016 22.4104 53.6646C22.2731 55.2097 22.7357 56.7483 23.7024 57.9615C24.6691 59.1746 26.0656 59.9691 27.6023 60.1802L57.1863 66.6545C58.1343 66.7854 59.0968 66.5536 59.8813 66.0054C60.6657 65.4572 61.2143 64.633 61.4173 63.6978L65.9287 42.5263C66.1291 41.5885 65.9665 40.6096 65.4736 39.7869C64.9808 38.9642 64.1944 38.359 63.273 38.0932L33.6065 31.5776Z" stroke="#45413C" stroke-width="2.42" stroke-linejoin="round"/>
<path d="M28.8242 52.0316C28.8242 52.4341 28.9841 52.8201 29.2687 53.1047C29.5533 53.3893 29.9393 53.5491 30.3418 53.5491C30.7443 53.5491 31.1302 53.3893 31.4148 53.1047C31.6994 52.8201 31.8593 52.4341 31.8593 52.0316C31.8593 51.6291 31.6994 51.2431 31.4148 50.9585C31.1302 50.6739 30.7443 50.514 30.3418 50.514C29.9393 50.514 29.5533 50.6739 29.2687 50.9585C28.9841 51.2431 28.8242 51.6291 28.8242 52.0316Z" fill="white"/>
<path d="M28.8242 52.0316C28.8242 52.4341 28.9841 52.8201 29.2687 53.1047C29.5533 53.3893 29.9393 53.5491 30.3418 53.5491C30.7443 53.5491 31.1302 53.3893 31.4148 53.1047C31.6994 52.8201 31.8593 52.4341 31.8593 52.0316C31.8593 51.6291 31.6994 51.2431 31.4148 50.9585C31.1302 50.6739 30.7443 50.514 30.3418 50.514C29.9393 50.514 29.5533 50.6739 29.2687 50.9585C28.9841 51.2431 28.8242 51.6291 28.8242 52.0316Z" fill="#FFF48C"/>
<path d="M53.8477 61.6853C53.8477 62.0878 54.0075 62.4738 54.2921 62.7583C54.5767 63.0429 54.9627 63.2028 55.3652 63.2028C55.7677 63.2028 56.1537 63.0429 56.4383 62.7583C56.7229 62.4738 56.8828 62.0878 56.8828 61.6853C56.8828 61.2828 56.7229 60.8968 56.4383 60.6122C56.1537 60.3276 55.7677 60.1677 55.3652 60.1677C54.9627 60.1677 54.5767 60.3276 54.2921 60.6122C54.0075 60.8968 53.8477 61.2828 53.8477 61.6853Z" fill="#FFF48C"/>
<path d="M33.707 57.5038C33.707 58.2147 33.9894 58.8965 34.4921 59.3992C34.9948 59.9019 35.6766 60.1843 36.3875 60.1843C37.0984 60.1843 37.7802 59.9019 38.2829 59.3992C38.7855 58.8965 39.068 58.2147 39.068 57.5038C39.068 56.7929 38.7855 56.1111 38.2829 55.6085C37.7802 55.1058 37.0984 54.8234 36.3875 54.8234C35.6766 54.8234 34.9948 55.1058 34.4921 55.6085C33.9894 56.1111 33.707 56.7929 33.707 57.5038Z" fill="#FFF48C"/>
<path d="M33.125 36.0396L36.791 36.8396M39.8591 37.5076L57.777 41.4128" stroke="white" stroke-width="2.42" stroke-linecap="round" stroke-linejoin="round"/>
<path d="M128.034 41.652C128.331 41.3938 128.566 41.0714 128.72 40.7092C128.874 40.347 128.944 39.9545 128.925 39.5612C128.888 39.198 128.757 38.8507 128.544 38.554C128.332 38.2573 128.045 38.0216 127.712 37.8705C127.1 37.5874 126.448 37.3997 125.778 37.3138C125.397 37.2601 125.013 37.2257 124.628 37.2107H123.498C122.756 37.2107 122.067 37.2725 121.568 37.3179L120.743 37.4045C120.743 37.4045 119.473 37.5447 118.174 37.7468C116.875 37.9488 115.477 38.1592 115.011 38.254C114.153 38.4272 113.795 39.3592 113.32 41.0541C114.285 42.5262 114.912 43.3098 115.795 43.2108C116.265 43.1613 117.675 42.9428 118.958 42.7366C120.24 42.5304 121.32 42.3943 121.32 42.3943C122.06 42.3114 122.803 42.266 123.547 42.2582H124.372C124.632 42.2582 124.892 42.2912 125.069 42.3118C125.253 42.3363 125.436 42.3763 125.613 42.4314C125.683 42.4314 125.815 42.2541 126.182 42.019C126.745 41.7038 127.393 41.5753 128.034 41.652Z" fill="white"/>
<path d="M123.326 55.3718C123.812 55.269 124.32 55.3631 124.737 55.6336C125.155 55.9041 125.448 56.329 125.553 56.8151L124.315 67.2895C123.491 71.3102 121.276 71.8051 117.882 72.5309L110.352 74.201C108.721 74.5483 107.019 74.234 105.619 73.327C104.22 72.42 103.237 70.9946 102.888 69.3638L101.334 62.0812C101.231 61.5946 101.325 61.0871 101.595 60.6697C101.866 60.2524 102.291 59.9592 102.777 59.8543L123.326 55.3718ZM106.558 68.5679C106.628 68.8937 106.761 69.2025 106.95 69.4769C107.139 69.7512 107.38 69.9856 107.66 70.1667C107.939 70.3479 108.252 70.4722 108.579 70.5325C108.907 70.5929 109.243 70.5881 109.569 70.5184L117.086 68.8401C118.456 68.5473 119.317 68.37 120.06 66.6586L120.942 59.71L105.387 63.1204L106.558 68.5679Z" fill="#E5F8FF" stroke="#45413C" stroke-width="2.42" stroke-linejoin="round"/>
<path d="M120.835 31.5775C122.326 31.1506 123.924 31.3131 125.299 32.0316C126.673 32.75 127.719 33.9694 128.22 35.4374C130.777 42.9097 131.28 45.7015 132.022 53.6645C132.161 55.2067 131.702 56.7432 130.739 57.956C129.777 59.1688 128.385 59.9651 126.851 60.1801L97.2631 66.6544C96.3131 66.7872 95.3481 66.5551 94.5623 66.005C93.7765 65.4549 93.2283 64.6275 93.0279 63.6894L88.5124 42.5179C88.3132 41.5796 88.4769 40.6007 88.9704 39.7782C89.4639 38.9557 90.2506 38.3507 91.1722 38.0849L120.835 31.5775Z" fill="#B8ECFF"/>
<path d="M97.2633 66.6627C96.3133 66.7954 95.3483 66.5634 94.5625 66.0132C93.7767 65.4631 93.2285 64.6358 93.0282 63.6977L91.7539 57.7306C94.5828 55.7429 97.7952 54.2749 100.777 54.4604C112.146 55.1615 115.313 49.7057 120.645 43.3262C122.934 40.588 126.394 39.7509 129.606 39.6808C131.004 44.3242 131.445 47.3964 132.027 53.648C132.169 55.1933 131.711 56.734 130.747 57.9503C129.783 59.1666 128.388 59.9651 126.851 60.1801L97.2633 66.6627Z" fill="#FFE500"/>
<path d="M91.7539 57.7306C94.5828 55.7429 97.7952 54.2749 100.777 54.4604C112.146 55.1615 115.313 49.7057 120.645 43.3262C122.934 40.588 126.394 39.7509 129.606 39.6808C129.973 40.9179 130.278 42.019 130.534 43.1077C127.293 43.2437 123.858 44.1303 121.548 46.7861C115.977 53.1944 112.661 58.6667 100.843 58.0151C98.0674 57.8625 95.0983 59.0378 92.3931 60.7203L91.7539 57.7306Z" fill="white"/>
<path d="M120.835 31.5775C122.326 31.1506 123.924 31.3131 125.299 32.0316C126.673 32.75 127.719 33.9694 128.22 35.4374C130.777 42.9097 131.28 45.7015 132.022 53.6645C132.161 55.2067 131.702 56.7432 130.739 57.956C129.777 59.1688 128.385 59.9651 126.851 60.1801L97.2631 66.6544C96.3131 66.7872 95.3481 66.5551 94.5623 66.005C93.7765 65.4549 93.2283 64.6275 93.0279 63.6894L88.5124 42.5179C88.3132 41.5796 88.4769 40.6007 88.9704 39.7782C89.4639 38.9557 90.2506 38.3507 91.1722 38.0849L120.835 31.5775Z" stroke="#45413C" stroke-width="2.42" stroke-linejoin="round"/>
<path d="M122.578 52.0316C122.578 52.4341 122.738 52.8201 123.023 53.1047C123.307 53.3893 123.693 53.5491 124.096 53.5491C124.498 53.5491 124.884 53.3893 125.169 53.1047C125.453 52.8201 125.613 52.4341 125.613 52.0316C125.613 51.6291 125.453 51.2431 125.169 50.9585C124.884 50.6739 124.498 50.514 124.096 50.514C123.693 50.514 123.307 50.6739 123.023 50.9585C122.738 51.2431 122.578 51.6291 122.578 52.0316Z" fill="white"/>
<path d="M122.578 52.0316C122.578 52.4341 122.738 52.8201 123.023 53.1047C123.307 53.3893 123.693 53.5491 124.096 53.5491C124.498 53.5491 124.884 53.3893 125.169 53.1047C125.453 52.8201 125.613 52.4341 125.613 52.0316C125.613 51.6291 125.453 51.2431 125.169 50.9585C124.884 50.6739 124.498 50.514 124.096 50.514C123.693 50.514 123.307 50.6739 123.023 50.9585C122.738 51.2431 122.578 51.6291 122.578 52.0316Z" fill="#FFF48C"/>
<path d="M97.5586 61.6853C97.5586 62.0878 97.7185 62.4738 98.0031 62.7583C98.2877 63.0429 98.6737 63.2028 99.0761 63.2028C99.4786 63.2028 99.8646 63.0429 100.149 62.7583C100.434 62.4738 100.594 62.0878 100.594 61.6853C100.594 61.2828 100.434 60.8968 100.149 60.6122C99.8646 60.3276 99.4786 60.1677 99.0761 60.1677C98.6737 60.1677 98.2877 60.3276 98.0031 60.6122C97.7185 60.8968 97.5586 61.2828 97.5586 61.6853Z" fill="#FFF48C"/>
<path d="M115.367 57.5038C115.367 58.2147 115.65 58.8965 116.152 59.3992C116.655 59.9019 117.337 60.1843 118.048 60.1843C118.759 60.1843 119.44 59.9019 119.943 59.3992C120.446 58.8965 120.728 58.2147 120.728 57.5038C120.728 56.7929 120.446 56.1111 119.943 55.6085C119.44 55.1058 118.759 54.8234 118.048 54.8234C117.337 54.8234 116.655 55.1058 116.152 55.6085C115.65 56.1111 115.367 56.7929 115.367 57.5038Z" fill="#FFF48C"/>
<path d="M121.312 36.0396L117.646 36.8396M114.574 37.5076L96.6602 41.4128" stroke="white" stroke-width="2.42" stroke-linecap="round" stroke-linejoin="round"/>
<path d="M46.8186 69.5906C46.8575 69.2905 46.8349 68.9857 46.7522 68.6947C46.6694 68.4037 46.5282 68.1326 46.3372 67.8979C46.1461 67.6633 45.9093 67.4701 45.6411 67.33C45.3729 67.19 45.079 67.106 44.7773 67.0833L39.4617 66.6709C38.9075 66.6278 38.357 66.7927 37.9178 67.1335C37.4786 67.4744 37.1822 67.9666 37.0864 68.5143C37.0341 68.8291 37.0466 69.1513 37.1232 69.461C37.1998 69.7708 37.3389 70.0617 37.532 70.3158C37.7251 70.5699 37.9681 70.7818 38.246 70.9387C38.524 71.0955 38.831 71.1938 39.1483 71.2277L44.0969 71.7267C44.7397 71.7969 45.3845 71.6127 45.8932 71.2134C46.4018 70.8142 46.734 70.2317 46.8186 69.5906Z" fill="white" stroke="#45413C" stroke-width="2.42" stroke-linejoin="round"/>
</svg>
