<svg width="155" height="155" viewBox="0 0 155 155" fill="none" xmlns="http://www.w3.org/2000/svg">
<path d="M116.013 131.464C115.271 130.26 114.287 129.224 113.123 128.42C111.96 127.617 110.642 127.064 109.254 126.796V130.767C110.33 131.112 111.294 131.738 112.046 132.581M119.003 121.064C118.61 121.061 118.228 120.938 117.907 120.712C117.586 120.486 117.342 120.167 117.207 119.798C117.073 119.429 117.054 119.028 117.154 118.649C117.254 118.269 117.467 117.929 117.765 117.674C125.815 110.787 122.838 99.7519 122.714 99.286C122.645 99.0423 122.625 98.7874 122.654 98.5358C122.683 98.2842 122.762 98.0409 122.886 97.8198C123.009 97.5986 123.175 97.404 123.374 97.2469C123.572 97.0899 123.8 96.9735 124.044 96.9045C124.288 96.8354 124.542 96.8151 124.794 96.8445C125.046 96.874 125.289 96.9527 125.51 97.0762C125.731 97.1997 125.926 97.3655 126.083 97.5643C126.24 97.763 126.356 97.9907 126.425 98.2344C126.582 98.7952 130.232 112.086 120.281 120.602C119.925 120.906 119.471 121.07 119.003 121.064Z" fill="#87898C"/>
<path d="M116.013 131.464C115.271 130.26 114.287 129.224 113.123 128.42C111.96 127.617 110.642 127.064 109.254 126.796V130.767C110.33 131.112 111.294 131.738 112.046 132.581M119.003 121.064C118.61 121.061 118.228 120.938 117.907 120.712C117.586 120.486 117.342 120.167 117.207 119.798C117.073 119.429 117.054 119.028 117.154 118.649C117.254 118.269 117.467 117.929 117.765 117.674C125.815 110.787 122.838 99.7519 122.714 99.286C122.645 99.0423 122.625 98.7874 122.654 98.5358C122.683 98.2842 122.762 98.0409 122.886 97.8198C123.009 97.5986 123.175 97.404 123.374 97.2469C123.572 97.0899 123.8 96.9735 124.044 96.9045C124.288 96.8354 124.542 96.8151 124.794 96.8445C125.046 96.874 125.289 96.9527 125.51 97.0762C125.731 97.1997 125.926 97.3655 126.083 97.5643C126.24 97.763 126.356 97.9907 126.425 98.2344C126.582 98.7952 130.232 112.086 120.281 120.602C119.925 120.906 119.471 121.07 119.003 121.064Z" stroke="#45413C" stroke-width="2.42" stroke-linecap="round" stroke-linejoin="round"/>
<path d="M119.219 124.309H93.5443C92.5946 124.308 91.6842 123.93 91.013 123.258C90.3418 122.586 89.9648 121.675 89.9648 120.726V120.025C89.9648 119.075 90.342 118.165 91.0132 117.493C91.6845 116.822 92.595 116.445 93.5443 116.445H119.219V124.309ZM133.17 102.173H118.563C117.542 102.173 116.562 101.767 115.84 101.045C115.117 100.322 114.712 99.3425 114.712 98.321V92.3745C114.712 91.3526 115.117 90.3725 115.84 89.6496C116.562 88.9266 117.541 88.5199 118.563 88.5188H133.17V102.173Z" fill="#F0C2A1" stroke="#45413C" stroke-width="2.42" stroke-linecap="round" stroke-linejoin="round"/>
<path d="M133.404 88.5188H133.948C133.948 88.5188 136.715 88.5188 136.715 91.2859V99.4056C136.715 99.4056 136.715 102.173 133.948 102.173H133.404C133.404 102.173 130.637 102.173 130.637 99.4056V91.2859C130.637 91.2859 130.637 88.5188 133.404 88.5188Z" fill="#BF8256" stroke="#45413C" stroke-width="2.42" stroke-linecap="round" stroke-linejoin="round"/>
<path d="M115.931 116.445H123.758C123.758 116.445 127.337 116.445 127.337 120.025V120.73C127.337 120.73 127.337 124.309 123.758 124.309H115.931C115.931 124.309 112.352 124.309 112.352 120.73V120.025C112.352 120.025 112.352 116.445 115.931 116.445Z" fill="#BF8256" stroke="#45413C" stroke-width="2.42" stroke-linecap="round" stroke-linejoin="round"/>
<path d="M97.3512 95.6777C92.1552 95.6777 88.7408 94.5189 85.3922 93.3849C81.5489 92.0818 77.9199 90.8488 70.6662 91.3766C70.122 91.431 69.5725 91.3758 69.05 91.2143C68.5275 91.0529 68.0426 90.7884 67.624 90.4365C67.2053 90.0846 66.8615 89.6524 66.6126 89.1654C66.3637 88.6784 66.2149 88.1465 66.175 87.6011C66.1351 87.0556 66.2048 86.5077 66.38 85.9897C66.5553 85.4716 66.8326 84.994 67.1954 84.5848C67.5583 84.1757 67.9995 83.8434 68.4929 83.6075C68.9863 83.3716 69.522 83.237 70.0683 83.2115C78.9839 82.56 83.7881 84.193 88.0232 85.6322C92.7284 87.2322 96.444 88.4941 106.205 86.4033C107.266 86.1747 108.375 86.3772 109.287 86.9661C110.2 87.555 110.84 88.4821 111.069 89.5436C111.298 90.605 111.095 91.7138 110.506 92.6259C109.917 93.5381 108.99 94.179 107.929 94.4076C104.458 95.2031 100.912 95.6288 97.3512 95.6777Z" fill="#E0E0E0" stroke="#45413C" stroke-width="2.42" stroke-linecap="round" stroke-linejoin="round"/>
<path d="M135.435 51.3799C134.849 45.093 132.458 39.1096 128.55 34.1501C124.642 29.1906 119.383 25.4665 113.408 23.4263C107.432 21.386 100.994 21.1166 94.8694 22.6505C88.7443 24.1843 83.1932 27.4561 78.8845 32.0717C74.5758 36.6873 71.6932 42.4501 70.5837 48.6661C69.4743 54.8821 70.1854 61.2862 72.6313 67.1074C75.0773 72.9286 79.1538 77.9187 84.3701 81.4767C89.5864 85.0348 95.72 87.0091 102.032 87.162C100.337 92.8817 99.5086 100.836 98.2384 108.408H93.5827C91.6971 108.408 89.8834 109.131 88.5149 110.429C87.1464 111.726 86.3272 113.498 86.2259 115.381L85.764 123.843L83.5536 124.396C82.5064 124.65 81.5992 125.302 81.0236 126.213C80.448 127.124 80.2491 128.223 80.4691 129.278C80.6707 130.187 81.1762 130.999 81.9019 131.582C82.6276 132.164 83.5303 132.482 84.4609 132.482C84.7973 132.482 85.1324 132.44 85.4588 132.359L89.5125 131.344C90.7025 131.051 91.7663 130.382 92.5462 129.436C93.3261 128.49 93.7807 127.319 93.8425 126.095L94.2755 118.148C94.3007 117.728 94.4856 117.333 94.7923 117.045C95.0989 116.757 95.5041 116.597 95.925 116.598H100.098L99.6859 123.843L97.4797 124.396C96.4347 124.653 95.5305 125.306 94.9574 126.216C94.3843 127.127 94.1871 128.225 94.4074 129.278C94.6091 130.187 95.1146 130.999 95.8403 131.582C96.566 132.164 97.4687 132.482 98.3993 132.482C98.7357 132.482 99.0708 132.44 99.3972 132.359L103.451 131.344C104.641 131.051 105.705 130.382 106.485 129.436C107.265 128.49 107.719 127.319 107.781 126.095L108.214 118.148C108.239 117.728 108.424 117.333 108.731 117.045C109.037 116.757 109.443 116.597 109.863 116.598H118.424C119.604 116.598 120.743 116.172 121.634 115.399C122.525 114.627 123.107 113.559 123.274 112.391C125.159 99.0715 122.651 85.9991 121.563 81.298C126.316 77.9849 130.104 73.4697 132.541 68.2135C134.979 62.9573 135.977 57.1483 135.435 51.3799Z" fill="white"/>
<path d="M99.7925 21.8042C91.2413 22.5994 83.3446 26.7212 77.8028 33.2819C72.261 39.8426 69.5175 48.3173 70.1631 56.8811L122.449 52.5057C122.449 52.5057 129.459 63.31 123.517 79.8052C128.957 75.3689 132.829 69.3021 134.56 62.4989C136.292 55.6958 135.792 48.5163 133.134 42.0188C130.477 35.5213 125.802 30.0495 119.799 26.41C113.796 22.7706 106.783 21.1559 99.7925 21.8042Z" fill="#E0E0E0"/>
<path d="M99.3125 57.1409C99.3125 59.15 99.7082 61.1395 100.477 62.9957C101.246 64.8519 102.373 66.5384 103.794 67.9591C105.214 69.3798 106.901 70.5067 108.757 71.2756C110.613 72.0444 112.603 72.4402 114.612 72.4402C116.621 72.4402 118.61 72.0444 120.466 71.2756C122.323 70.5067 124.009 69.3798 125.43 67.9591C126.851 66.5384 127.978 64.8519 128.746 62.9957C129.515 61.1395 129.911 59.15 129.911 57.1409C129.911 55.1318 129.515 53.1423 128.746 51.2861C127.978 49.43 126.851 47.7434 125.43 46.3227C124.009 44.9021 122.323 43.7751 120.466 43.0063C118.61 42.2374 116.621 41.8417 114.612 41.8417C112.603 41.8417 110.613 42.2374 108.757 43.0063C106.901 43.7751 105.214 44.9021 103.794 46.3227C102.373 47.7434 101.246 49.43 100.477 51.2861C99.7082 53.1423 99.3125 55.1318 99.3125 57.1409Z" fill="#E0E0E0"/>
<path d="M89.9992 61.0502C89.9987 58.7358 89.4737 56.4517 88.4636 54.3694C87.4535 52.287 85.9846 50.4607 84.1673 49.0276C82.3501 47.5945 80.2316 46.5919 77.9712 46.0951C75.7108 45.5983 73.3672 45.6202 71.1164 46.1592C69.7807 51.322 69.7232 56.7326 70.9491 61.9226C72.1749 67.1126 74.6471 71.9257 78.1516 75.9453C81.5181 75.1649 84.5214 73.2681 86.6726 70.5636C88.8238 67.859 89.9963 64.506 89.9992 61.0502Z" fill="#E0E0E0"/>
<path d="M135.435 51.3799C134.849 45.093 132.458 39.1096 128.55 34.1501C124.642 29.1906 119.383 25.4665 113.408 23.4263C107.432 21.386 100.994 21.1166 94.8694 22.6505C88.7443 24.1843 83.1932 27.4561 78.8845 32.0717C74.5758 36.6873 71.6932 42.4501 70.5837 48.6661C69.4743 54.8821 70.1854 61.2862 72.6313 67.1074C75.0773 72.9286 79.1538 77.9187 84.3701 81.4767C89.5864 85.0348 95.72 87.0091 102.032 87.162C100.337 92.8817 99.5086 100.836 98.2384 108.408H93.5827C91.6971 108.408 89.8834 109.131 88.5149 110.429C87.1464 111.726 86.3272 113.498 86.2259 115.381L85.764 123.843L83.5536 124.396C82.5064 124.65 81.5992 125.302 81.0236 126.213C80.448 127.124 80.2491 128.223 80.4691 129.278C80.6707 130.187 81.1762 130.999 81.9019 131.582C82.6276 132.164 83.5303 132.482 84.4609 132.482C84.7973 132.482 85.1324 132.44 85.4588 132.359L89.5125 131.344C90.7025 131.051 91.7663 130.382 92.5462 129.436C93.3261 128.49 93.7807 127.319 93.8425 126.095L94.2755 118.148C94.3007 117.728 94.4856 117.333 94.7923 117.045C95.0989 116.757 95.5041 116.597 95.925 116.598H100.098L99.6859 123.843L97.4797 124.396C96.4347 124.653 95.5305 125.306 94.9574 126.216C94.3843 127.127 94.1871 128.225 94.4074 129.278C94.6091 130.187 95.1146 130.999 95.8403 131.582C96.566 132.164 97.4687 132.482 98.3993 132.482C98.7357 132.482 99.0708 132.44 99.3972 132.359L103.451 131.344C104.641 131.051 105.705 130.382 106.485 129.436C107.265 128.49 107.719 127.319 107.781 126.095L108.214 118.148C108.239 117.728 108.424 117.333 108.731 117.045C109.037 116.757 109.443 116.597 109.863 116.598H118.424C119.604 116.598 120.743 116.172 121.634 115.399C122.525 114.627 123.107 113.559 123.274 112.391C125.159 99.0715 122.651 85.9991 121.563 81.298C126.316 77.9849 130.104 73.4697 132.541 68.2135C134.979 62.9573 135.977 57.1483 135.435 51.3799Z" stroke="#45413C" stroke-width="2.42" stroke-linecap="round" stroke-linejoin="round"/>
<path d="M100.094 116.598L100.16 115.381C100.266 113.502 101.088 111.735 102.456 110.442C103.824 109.149 105.634 108.428 107.517 108.428" fill="white"/>
<path d="M100.094 116.598L100.16 115.381C100.266 113.502 101.088 111.735 102.456 110.442C103.824 109.149 105.634 108.428 107.517 108.428" stroke="#45413C" stroke-width="2.42" stroke-linecap="round" stroke-linejoin="round"/>
<path d="M121.541 81.298C120.553 81.9889 119.528 82.6236 118.469 83.199" stroke="#45413C" stroke-width="2.42" stroke-linecap="round" stroke-linejoin="round"/>
<path d="M96.5195 21.8042C96.5195 22.6726 96.8645 23.5054 97.4785 24.1195C98.0926 24.7335 98.9254 25.0785 99.7938 25.0785C100.662 25.0785 101.495 24.7335 102.109 24.1195C102.723 23.5054 103.068 22.6726 103.068 21.8042C103.068 20.9358 102.723 20.103 102.109 19.4889C101.495 18.8749 100.662 18.5299 99.7938 18.5299C98.9254 18.5299 98.0926 18.8749 97.4785 19.4889C96.8645 20.103 96.5195 20.9358 96.5195 21.8042Z" fill="#FF512E" stroke="#45413C" stroke-width="2.42" stroke-linecap="round" stroke-linejoin="round"/>
<path d="M148.112 44.4437C148.047 43.7978 147.73 43.2037 147.23 42.7894C146.73 42.3752 146.087 42.174 145.44 42.2293L133.65 43.3221C131.041 36.0923 125.973 30.0102 119.332 26.1398C112.692 22.2694 104.902 20.8573 97.3251 22.1503C89.7485 23.4434 82.8678 27.3594 77.8868 33.2132C72.9058 39.067 70.1417 46.4858 70.0781 54.1717L131.11 48.4974L145.91 47.1201C146.555 47.0513 147.147 46.7323 147.558 46.2319C147.97 45.7314 148.169 45.0894 148.112 44.4437Z" fill="#FF866E"/>
<path d="M105.411 23.598C108.804 23.2819 112.227 23.4947 115.555 24.229C110.594 22.1412 105.195 21.3075 99.8357 21.8018C94.476 22.296 89.3206 24.103 84.8251 27.0629C80.3297 30.0228 76.6325 34.0445 74.0605 38.7726C71.4884 43.5007 70.1207 48.7895 70.0781 54.1718L75.7937 53.6398C76.4006 45.9458 79.7045 38.7132 85.1229 33.2171C90.5413 27.721 97.7261 24.3145 105.411 23.598Z" fill="#FFCABF"/>
<path d="M87.168 48.4727L98.9867 47.3717C99.4186 47.3349 99.8477 47.4696 100.181 47.7466C100.514 48.0237 100.725 48.4208 100.768 48.8521L100.999 51.2975L87.5804 52.5347L87.168 48.4727ZM148.113 44.4438C148.048 43.7979 147.731 43.2038 147.231 42.7895C146.731 42.3752 146.088 42.174 145.441 42.2293L133.651 43.3221C134.214 44.8903 134.657 46.4991 134.975 48.1346L145.895 47.1201C146.542 47.0554 147.138 46.7382 147.553 46.2372C147.969 45.7363 148.17 45.092 148.113 44.4438Z" fill="#FF512E"/>
<path d="M148.112 44.4437C148.047 43.7978 147.73 43.2037 147.23 42.7894C146.73 42.3752 146.087 42.174 145.44 42.2293L133.65 43.3221C131.041 36.0923 125.973 30.0102 119.332 26.1398C112.692 22.2694 104.902 20.8573 97.3251 22.1503C89.7485 23.4434 82.8678 27.3594 77.8868 33.2132C72.9058 39.067 70.1417 46.4858 70.0781 54.1717L131.11 48.4974L145.91 47.1201C146.555 47.0513 147.147 46.7323 147.558 46.2319C147.97 45.7314 148.169 45.0894 148.112 44.4437Z" stroke="#45413C" stroke-width="2.42" stroke-linecap="round" stroke-linejoin="round"/>
<path d="M96.9492 47.5614L98.9864 47.3717C99.4183 47.3349 99.8473 47.4696 100.181 47.7466C100.514 48.0236 100.725 48.4208 100.768 48.8521L100.999 51.2975" stroke="#45413C" stroke-width="2.42" stroke-linecap="round" stroke-linejoin="round"/>
<path d="M134.353 45.52C134.147 44.7915 133.917 44.0726 133.664 43.3633Z" fill="white"/>
<path d="M134.353 45.52C134.147 44.7915 133.917 44.0726 133.664 43.3633" stroke="#45413C" stroke-width="2.42" stroke-linecap="round" stroke-linejoin="round"/>
<path d="M87.1657 48.4727C87.1059 47.8304 87.1731 47.1826 87.3636 46.5663C87.5541 45.9501 87.8641 45.3773 88.276 44.8809C88.6878 44.3844 89.1934 43.9739 89.7639 43.6728C90.3344 43.3718 90.9586 43.186 91.6008 43.1262C92.898 43.0053 94.19 43.4047 95.1926 44.2364C95.6891 44.6483 96.0996 45.1539 96.4007 45.7244C96.7017 46.2948 96.8875 46.919 96.9473 47.5613L87.1657 48.4727Z" fill="#E0E0E0" stroke="#45413C" stroke-width="2.42" stroke-linecap="round" stroke-linejoin="round"/>
<path d="M90.4492 66.1184C90.7008 68.8195 92.7297 70.8401 94.9854 70.6298C97.2411 70.4195 98.8576 68.0607 98.6102 65.3596L90.4492 66.1184Z" fill="#FFA694" stroke="#45413C" stroke-width="2.42" stroke-linecap="round" stroke-linejoin="round"/>
<path d="M61.5352 59.6729C61.5352 63.3652 63.0019 66.9063 65.6128 69.5171C68.2237 72.128 71.7647 73.5948 75.4571 73.5948C79.1494 73.5948 82.6905 72.128 85.3013 69.5171C87.9122 66.9063 89.3789 63.3652 89.3789 59.6729C89.3789 55.9806 87.9122 52.4395 85.3013 49.8286C82.6905 47.2177 79.1494 45.751 75.4571 45.751C71.7647 45.751 68.2237 47.2177 65.6128 49.8286C63.0019 52.4395 61.5352 55.9806 61.5352 59.6729Z" fill="white" stroke="#45413C" stroke-width="2.42" stroke-linecap="round" stroke-linejoin="round"/>
<path d="M69.6523 62.6379C69.6523 63.0721 69.8248 63.4885 70.1319 63.7955C70.4389 64.1025 70.8553 64.275 71.2895 64.275C71.7237 64.275 72.1401 64.1025 72.4471 63.7955C72.7541 63.4885 72.9266 63.0721 72.9266 62.6379C72.9266 62.2037 72.7541 61.7873 72.4471 61.4802C72.1401 61.1732 71.7237 61.0007 71.2895 61.0007C70.8553 61.0007 70.4389 61.1732 70.1319 61.4802C69.8248 61.7873 69.6523 62.2037 69.6523 62.6379Z" fill="#45413C"/>
<path d="M99.8555 56.1059C99.8555 59.7982 101.322 63.3393 103.933 65.9501C106.544 68.561 110.085 70.0277 113.777 70.0277C117.47 70.0277 121.011 68.561 123.622 65.9501C126.232 63.3393 127.699 59.7982 127.699 56.1059C127.699 52.4135 126.232 48.8725 123.622 46.2616C121.011 43.6507 117.47 42.184 113.777 42.184C110.085 42.184 106.544 43.6507 103.933 46.2616C101.322 48.8725 99.8555 52.4135 99.8555 56.1059Z" fill="white" stroke="#45413C" stroke-width="2.42" stroke-linecap="round" stroke-linejoin="round"/>
<path d="M107.977 59.0709C107.977 59.5051 108.149 59.9215 108.456 60.2285C108.763 60.5355 109.18 60.708 109.614 60.708C110.048 60.708 110.464 60.5355 110.771 60.2285C111.078 59.9215 111.251 59.5051 111.251 59.0709C111.251 58.6367 111.078 58.2202 110.771 57.9132C110.464 57.6062 110.048 57.4337 109.614 57.4337C109.18 57.4337 108.763 57.6062 108.456 57.9132C108.149 58.2202 107.977 58.6367 107.977 59.0709Z" fill="#45413C"/>
<path d="M51.8752 92.7581C51.9114 92.6072 51.9975 92.4731 52.1195 92.3773C52.2415 92.2815 52.3923 92.2297 52.5474 92.2302H83.3438V96.6468H51.8381C51.7364 96.6464 51.636 96.6234 51.5442 96.5796C51.4524 96.5357 51.3715 96.4721 51.3072 96.3932C51.2429 96.3143 51.1969 96.2222 51.1725 96.1235C51.1481 96.0247 51.1458 95.9218 51.1659 95.822L51.8752 92.7581Z" fill="#DAEDF7" stroke="#45413C" stroke-width="2.42" stroke-linecap="round" stroke-linejoin="round"/>
<path d="M77.2948 92.758C77.331 92.6072 77.4171 92.473 77.5391 92.3772C77.6611 92.2814 77.8118 92.2296 77.967 92.2302H87.596C87.7506 92.2298 87.9008 92.2817 88.0221 92.3776C88.1434 92.4734 88.2287 92.6075 88.264 92.758L88.9775 95.8013C88.9976 95.9011 88.9953 96.004 88.9709 96.1028C88.9465 96.2015 88.9005 96.2937 88.8362 96.3725C88.7719 96.4514 88.691 96.515 88.5992 96.5589C88.5074 96.6027 88.407 96.6257 88.3053 96.6261H76.3875L77.2948 92.758ZM39.8673 96.655H26.7083C26.5594 96.654 26.4127 96.6182 26.2801 96.5503C26.1476 96.4824 26.0327 96.3844 25.9449 96.2641C25.8571 96.1437 25.7987 96.0045 25.7744 95.8576C25.7502 95.7106 25.7607 95.56 25.8052 95.4178L27.0671 91.6817C27.131 91.4928 27.2524 91.3288 27.4145 91.2126C27.5765 91.0965 27.7709 91.0341 27.9702 91.0343H39.8673V96.655ZM63.9255 87.6734H58.0738V47.8665H63.9255C64.5154 47.8643 65.0999 47.9785 65.6456 48.2025C66.1913 48.4265 66.6875 48.7559 67.1058 49.1718C67.524 49.5878 67.8562 50.0822 68.0832 50.6267C68.3102 51.1711 68.4276 51.755 68.4286 52.3449V83.1908C68.4286 83.7812 68.312 84.3658 68.0855 84.911C67.8589 85.4562 67.5269 85.9513 67.1085 86.3678C66.69 86.7843 66.1934 87.114 65.6472 87.3381C65.101 87.5621 64.5159 87.6761 63.9255 87.6734Z" fill="#C0DCEB" stroke="#45413C" stroke-width="2.42" stroke-linecap="round" stroke-linejoin="round"/>
<path d="M15.0961 47.8665H59.237C59.237 47.8665 63.7237 47.8665 63.7237 52.3531V83.1908C63.7237 83.1908 63.7237 87.6775 59.237 87.6775H15.0961C15.0961 87.6775 10.6094 87.6775 10.6094 83.1908V52.3531C10.6094 52.3531 10.6094 47.8665 15.0961 47.8665Z" fill="#E8F4FA"/>
<path d="M63.7237 53.4748V52.3449C63.7237 51.1557 63.2516 50.0151 62.4111 49.1738C61.5705 48.3325 60.4304 47.8593 59.2412 47.8582H15.1167C14.5257 47.8555 13.9401 47.9695 13.3934 48.1938C12.8466 48.4181 12.3496 48.7481 11.9308 49.165C11.512 49.5819 11.1796 50.0774 10.9529 50.6231C10.7261 51.1688 10.6094 51.7539 10.6094 52.3449V53.4665L63.7237 53.4748Z" fill="white"/>
<path d="M15.0961 47.8665H59.237C59.237 47.8665 63.7237 47.8665 63.7237 52.3531V83.1908C63.7237 83.1908 63.7237 87.6775 59.237 87.6775H15.0961C15.0961 87.6775 10.6094 87.6775 10.6094 83.1908V52.3531C10.6094 52.3531 10.6094 47.8665 15.0961 47.8665Z" stroke="#45413C" stroke-width="2.42" stroke-linecap="round" stroke-linejoin="round"/>
<path d="M42.122 91.0137L40.757 71.3597C40.6931 70.3937 40.2644 69.4881 39.5576 68.8265C38.8508 68.1648 37.9189 67.7967 36.9507 67.7968H34.5754C33.6093 67.7965 32.6791 68.1629 31.9726 68.8219C31.2661 69.481 30.836 70.3835 30.7692 71.3473L29.1485 94.6178C29.1316 94.8786 29.1683 95.1401 29.2564 95.3862C29.3444 95.6322 29.4819 95.8577 29.6605 96.0485C29.839 96.2394 30.0547 96.3917 30.2943 96.496C30.5339 96.6003 30.7924 96.6544 31.0537 96.655H53.6149C53.7711 96.655 53.9248 96.6166 54.0626 96.5433C54.2004 96.4699 54.3181 96.3638 54.4053 96.2342C54.4925 96.1047 54.5465 95.9557 54.5625 95.8004C54.5786 95.6451 54.5562 95.4883 54.4974 95.3436L53.3675 91.6075C53.2962 91.432 53.1741 91.2817 53.0169 91.1759C52.8597 91.0701 52.6745 91.0136 52.485 91.0137H42.122Z" fill="#DAEDF7" stroke="#45413C" stroke-width="2.42" stroke-linecap="round" stroke-linejoin="round"/>
<path d="M42.1211 91.0137L42.2366 92.7539M46.7397 91.0137L47.9398 96.655" stroke="#45413C" stroke-width="2.42" stroke-linecap="round" stroke-linejoin="round"/>
<path d="M32.8125 82.9063C32.8125 83.6654 33.114 84.3933 33.6507 84.93C34.1874 85.4667 34.9154 85.7682 35.6744 85.7682C36.4334 85.7682 37.1614 85.4667 37.6981 84.93C38.2348 84.3933 38.5363 83.6654 38.5363 82.9063C38.5363 82.1473 38.2348 81.4194 37.6981 80.8827C37.1614 80.346 36.4334 80.0444 35.6744 80.0444C34.9154 80.0444 34.1874 80.346 33.6507 80.8827C33.114 81.4194 32.8125 82.1473 32.8125 82.9063Z" fill="white" stroke="#45413C" stroke-width="2.42" stroke-linecap="round" stroke-linejoin="round"/>
<path d="M14.5859 83.5867V79.6444M17.6994 83.5867V79.6444M20.8128 83.5867V79.6444" stroke="#45413C" stroke-width="2.42" stroke-linecap="round" stroke-linejoin="round"/>
<path d="M118.588 92.0818C118.322 92.6678 117.922 93.1834 117.421 93.5873C116.92 93.9912 116.331 94.2721 115.701 94.4076C112.232 95.2025 108.687 95.6283 105.128 95.6777C99.9321 95.6777 96.5218 94.5189 93.1691 93.3849C89.3299 92.0818 85.7009 90.8488 78.4431 91.3766C77.8985 91.4315 77.3484 91.3766 76.8254 91.2153C76.3024 91.054 75.817 90.7894 75.3979 90.4373C74.9789 90.0851 74.6347 89.6526 74.3857 89.1651C74.1367 88.6777 73.988 88.1453 73.9483 87.5994C73.9086 87.0534 73.9787 86.5051 74.1546 85.9868C74.3304 85.4684 74.6084 84.9906 74.9721 84.5816C75.3357 84.1725 75.7777 83.8405 76.2719 83.6052C76.7661 83.3698 77.3025 83.236 77.8493 83.2115C86.7608 82.56 91.565 84.193 95.8042 85.6322C99.7259 86.9642 102.959 88.0652 109.582 87.1827" fill="white"/>
<path d="M118.588 92.0818C118.322 92.6678 117.922 93.1834 117.421 93.5873C116.92 93.9912 116.331 94.2721 115.701 94.4076C112.232 95.2025 108.687 95.6283 105.128 95.6777C99.9321 95.6777 96.5218 94.5189 93.1691 93.3849C89.3299 92.0818 85.7009 90.8488 78.4431 91.3766C77.8985 91.4315 77.3484 91.3766 76.8254 91.2153C76.3024 91.054 75.817 90.7894 75.3979 90.4373C74.9789 90.0851 74.6347 89.6526 74.3857 89.1651C74.1367 88.6777 73.988 88.1453 73.9483 87.5994C73.9086 87.0534 73.9787 86.5051 74.1546 85.9868C74.3304 85.4684 74.6084 84.9906 74.9721 84.5816C75.3357 84.1725 75.7777 83.8405 76.2719 83.6052C76.7661 83.3698 77.3025 83.236 77.8493 83.2115C86.7608 82.56 91.565 84.193 95.8042 85.6322C99.7259 86.9642 102.959 88.0652 109.582 87.1827" stroke="#45413C" stroke-width="2.42" stroke-linecap="round" stroke-linejoin="round"/>
<path d="M106.368 96.6549H78.6641C77.6426 96.6549 76.6629 97.0607 75.9406 97.7831C75.2183 98.5054 74.8125 99.485 74.8125 100.507V136.309C76.9349 136.416 79.0806 136.47 81.2497 136.47C91.0139 136.493 100.746 135.344 110.236 133.047V100.507C110.236 99.9994 110.136 99.4972 109.941 99.0288C109.746 98.5604 109.461 98.1351 109.102 97.7772C108.742 97.4193 108.316 97.136 107.847 96.9434C107.377 96.7508 106.875 96.6528 106.368 96.6549Z" fill="#BF8256"/>
<path d="M6.41016 100.507V105.83C19.2887 122.804 44.8479 134.796 74.8114 136.309V100.507C74.8114 99.4851 75.2172 98.5054 75.9395 97.7831C76.6618 97.0608 77.6415 96.655 78.663 96.655H10.2824C9.77486 96.6522 9.27179 96.7499 8.80211 96.9422C8.33243 97.1346 7.90539 97.4178 7.54555 97.7758C7.18571 98.1337 6.90015 98.5592 6.7053 99.0278C6.51045 99.4965 6.41015 99.999 6.41016 100.507Z" fill="#F0C2A1"/>
<path d="M74.8103 136.47V100.507C74.8103 99.4851 75.2161 98.5055 75.9384 97.7831C76.6607 97.0608 77.6404 96.655 78.6619 96.655H10.2813C9.25979 96.655 8.28012 97.0608 7.5578 97.7831C6.83548 98.5055 6.42969 99.4851 6.42969 100.507V105.83" stroke="#45413C" stroke-width="2.42" stroke-linecap="round" stroke-linejoin="round"/>
<path d="M110.236 133.047V100.507C110.236 99.4851 109.83 98.5055 109.108 97.7831C108.385 97.0608 107.406 96.655 106.384 96.655H78.6641C77.6426 96.655 76.6629 97.0608 75.9406 97.7831C75.2183 98.5055 74.8125 99.4851 74.8125 100.507V136.47" stroke="#45413C" stroke-width="2.42" stroke-linecap="round" stroke-linejoin="round"/>
</svg>
