<svg width="155" height="155" viewBox="0 0 155 155" fill="none" xmlns="http://www.w3.org/2000/svg">
<path d="M47.3223 99.9912C47.336 100.002 47.3472 100.016 47.3551 100.031C47.3629 100.047 47.3672 100.064 47.3677 100.082C47.3675 100.099 47.3633 100.116 47.3554 100.131C47.3475 100.146 47.3362 100.159 47.3223 100.168L5.44527 133.336C5.32403 133.428 5.18123 133.488 5.0304 133.51C4.87957 133.531 4.72571 133.514 4.5834 133.46C4.44753 133.417 4.32804 133.334 4.24104 133.221C4.15404 133.108 4.10369 132.971 4.0968 132.829C4.0968 131.414 4.0968 130.074 4.12566 128.734C4.12566 128.532 4.45144 128.297 4.6865 128.14C8.07625 125.897 11.4825 123.674 14.8722 121.431C17.961 119.369 21.0291 117.307 24.1178 115.266C31.7743 110.202 39.4376 105.14 47.1079 100.082C47.1762 100.045 47.248 100.014 47.3223 99.9912ZM4.0968 32.3075C4.10062 32.17 4.14601 32.0369 4.22699 31.9258C4.30797 31.8146 4.42073 31.7306 4.55041 31.6848C4.68629 31.6264 4.83444 31.6022 4.98184 31.6144C5.12925 31.6267 5.27139 31.6749 5.39579 31.7549L51.442 61.9163C51.4616 61.9275 51.4787 61.9429 51.4921 61.9612C51.5054 61.9795 51.5147 62.0005 51.5194 62.0227C51.5241 62.0449 51.524 62.0678 51.5192 62.09C51.5144 62.1122 51.5049 62.1331 51.4914 62.1513C50.7244 61.7389 49.9533 61.3472 49.1986 60.9142C42.3256 57.0956 35.4527 53.2756 28.5797 49.4542C24.5343 47.2109 20.4682 45.0005 16.4104 42.7737L4.74011 36.3777C4.53277 36.2883 4.35895 36.1357 4.24344 35.9417C4.12792 35.7477 4.0766 35.5221 4.0968 35.2972C4.11741 34.3199 4.0968 33.3426 4.0968 32.3075ZM146.178 14.5422C146.327 14.5372 146.475 14.5729 146.606 14.6456C146.737 14.7182 146.845 14.825 146.92 14.9546C146.982 15.0794 147 15.2217 146.971 15.3581C146.942 15.4945 146.867 15.6169 146.759 15.7051L102.173 55.1656C102.136 55.1965 102.089 55.2134 102.041 55.2134C101.993 55.2134 101.946 55.1965 101.909 55.1656C102.989 54.077 104.066 52.9841 105.15 51.8955L114.519 42.518C120.081 36.9564 125.64 31.3948 131.196 25.8332C134.495 22.5341 137.905 19.2763 141.093 15.8742C141.514 15.3619 142.06 14.9665 142.678 14.726C143.297 14.4855 143.966 14.408 144.623 14.501C145.13 14.5422 145.637 14.5505 146.178 14.5422ZM113.27 58.5925C113.25 58.5748 113.234 58.5524 113.225 58.5272C113.215 58.5019 113.212 58.4748 113.216 58.4482C113.221 58.421 113.232 58.3951 113.247 58.3724C113.263 58.3496 113.283 58.3305 113.307 58.3162L149.666 36.2622C149.79 36.1893 149.929 36.1467 150.073 36.1381C150.216 36.1295 150.36 36.1551 150.491 36.2127C150.611 36.2641 150.714 36.349 150.787 36.4573C150.86 36.5655 150.901 36.6925 150.903 36.823C150.903 37.8169 150.904 38.7571 150.875 39.7097C150.875 39.9035 150.532 40.1468 150.285 40.2664C143.549 43.5929 136.804 46.9208 130.05 50.2501C124.668 52.914 119.307 55.611 113.934 58.2915C113.715 58.3987 113.488 58.4935 113.27 58.5925ZM14.6166 15.668C14.5139 15.5776 14.4443 15.4554 14.4189 15.321C14.3935 15.1865 14.4137 15.0474 14.4764 14.9258C14.5501 14.798 14.6566 14.6924 14.785 14.6199C14.9134 14.5474 15.0589 14.5106 15.2063 14.5134C16.1836 14.5134 17.0908 14.5134 17.9939 14.534C18.2819 14.5595 18.5518 14.6849 18.7568 14.8886C24.126 20.8021 29.4869 26.7225 34.8396 32.6498C38.7077 36.9275 42.5703 41.208 46.4274 45.4912C46.5264 45.5985 46.613 45.7139 46.7037 45.8335C46.7195 45.854 46.7307 45.8777 46.7366 45.9029C46.7425 45.9281 46.7429 45.9543 46.7378 45.9797C46.7327 46.0051 46.7223 46.0291 46.7072 46.0501C46.692 46.0711 46.6726 46.0887 46.6501 46.1016L14.6166 15.668ZM150.903 122.911C150.899 123.047 150.853 123.179 150.773 123.289C150.693 123.399 150.582 123.483 150.454 123.53C150.321 123.584 150.176 123.605 150.033 123.592C149.889 123.579 149.751 123.532 149.629 123.455L117.121 101.686C117.105 101.677 117.091 101.664 117.08 101.649C117.069 101.634 117.061 101.617 117.057 101.598C117.053 101.58 117.053 101.561 117.057 101.543C117.061 101.525 117.069 101.507 117.08 101.492C117.872 101.905 118.672 102.292 119.456 102.729C125.905 106.193 132.352 109.661 138.796 113.134C142.705 115.245 146.609 117.365 150.508 119.493C150.614 119.552 150.707 119.634 150.778 119.733C150.85 119.832 150.898 119.946 150.92 120.066C150.903 120.989 150.903 121.921 150.903 122.911ZM11.301 140.594C11.1529 140.597 11.0066 140.561 10.8774 140.488C10.7483 140.416 10.641 140.31 10.567 140.182C10.5049 140.057 10.4866 139.915 10.5151 139.779C10.5435 139.643 10.617 139.52 10.7237 139.431L53.3183 100.919C53.3599 100.886 53.4115 100.868 53.4647 100.868C53.5179 100.868 53.5695 100.886 53.6111 100.919L51.1038 103.393C47.8419 106.581 44.5676 109.765 41.3181 112.96C36.1496 118.035 30.988 123.121 25.8333 128.218C22.7858 131.212 19.7094 134.186 16.6537 137.171C15.6558 138.149 14.7073 139.167 13.6805 140.12C13.3538 140.393 12.9504 140.559 12.5258 140.594H11.301ZM4.12154 19.7671C4.13012 19.6252 4.18166 19.4892 4.2693 19.3773C4.35695 19.2653 4.47656 19.1827 4.61227 19.1403C4.75629 19.0875 4.91137 19.0724 5.06288 19.0962C5.2144 19.12 5.35735 19.182 5.47826 19.2763L48.6667 54.8192C48.684 54.8339 48.698 54.8523 48.7076 54.8729C48.7171 54.8936 48.7221 54.9161 48.7221 54.9388C48.7221 54.9616 48.7171 54.9841 48.7076 55.0047C48.698 55.0254 48.684 55.0437 48.6667 55.0584C47.6769 54.3161 46.6831 53.5821 45.7017 52.8357C41.2067 49.4294 36.7242 46.0067 32.221 42.6087C27.0704 38.6952 21.8703 34.8271 16.7032 30.9302C12.7567 27.9569 8.84327 24.9507 4.89269 21.9774C4.33598 21.565 4.01432 21.1527 4.06793 20.4681C4.09779 20.2355 4.11568 20.0015 4.12154 19.7671ZM85.1291 14.567C85.2439 14.565 85.3579 14.5862 85.4642 14.6294C85.5705 14.6727 85.6669 14.737 85.7477 14.8185C85.821 14.8864 85.8768 14.971 85.9106 15.065C85.9443 15.159 85.9549 15.2598 85.9415 15.3587L80.6342 51.4377C80.6252 51.4838 80.5987 51.5245 80.5602 51.5515C80.5218 51.5784 80.4744 51.5893 80.428 51.5821C81.0988 39.4856 81.7724 27.3658 82.4487 15.2227C82.4744 15.0325 82.5712 14.859 82.7197 14.7374C82.8681 14.6157 83.0571 14.5548 83.2487 14.567H85.1291ZM99.9789 107.364C100.021 107.341 100.07 107.33 100.119 107.336C100.165 107.343 100.208 107.366 100.239 107.402C108.622 118.057 117.002 128.713 125.493 139.501C125.573 139.599 125.62 139.72 125.628 139.846C125.636 139.973 125.605 140.099 125.538 140.206C125.461 140.323 125.357 140.418 125.233 140.483C125.11 140.548 124.972 140.58 124.833 140.577C124.12 140.577 123.456 140.577 122.792 140.544C122.544 140.544 122.247 140.231 122.091 140C119.917 136.804 117.773 133.592 115.604 130.392C112.673 126.07 109.733 121.754 106.783 117.443L100.078 107.624C100.036 107.541 100.003 107.454 99.9789 107.364ZM53.4915 140.062C53.4288 140.211 53.3222 140.337 53.1859 140.424C53.0496 140.511 52.8901 140.555 52.7286 140.549H50.7698C50.6421 140.552 50.5153 140.526 50.3993 140.473C50.2834 140.419 50.1815 140.339 50.1017 140.239C50.029 140.15 49.9834 140.041 49.9702 139.926C49.9571 139.812 49.9769 139.696 50.0275 139.592C54.6351 130.041 59.2235 120.528 63.7927 111.051C63.8215 110.999 63.8678 110.958 63.9236 110.936C63.9794 110.914 64.041 110.913 64.0979 110.932L53.4915 140.062ZM139.501 139.439C139.602 139.53 139.669 139.652 139.693 139.786C139.717 139.919 139.696 140.057 139.633 140.177C139.559 140.306 139.452 140.412 139.323 140.484C139.194 140.557 139.047 140.593 138.899 140.59C138.487 140.59 138.124 140.59 137.745 140.553C137.406 140.486 137.098 140.309 136.87 140.05C134.862 137.909 132.891 135.744 130.891 133.6C126.687 129.08 122.481 124.562 118.272 120.045C115.19 116.727 112.122 113.404 109.068 110.078C109.057 110.069 109.049 110.058 109.043 110.046C109.037 110.033 109.034 110.019 109.034 110.006C109.034 109.992 109.037 109.978 109.043 109.966C109.049 109.954 109.057 109.943 109.068 109.934C109.091 109.915 109.12 109.905 109.15 109.905C109.18 109.905 109.209 109.915 109.233 109.934C119.291 119.728 129.332 129.517 139.501 139.439ZM90.9313 47.1366C90.9147 47.1344 90.8988 47.1285 90.8846 47.1195C90.8705 47.1105 90.8585 47.0985 90.8495 47.0844C90.8405 47.0702 90.8346 47.0543 90.8324 47.0377C90.8301 47.0211 90.8315 47.0042 90.8365 46.9882C91.1375 46.0933 91.4179 45.1902 91.7478 44.3036C92.6496 41.8953 93.565 39.4911 94.4943 37.0911C95.4551 34.588 96.4324 32.0889 97.3809 29.5858C98.8407 25.7534 100.291 21.9211 101.731 18.0887C102.103 17.1114 102.457 16.134 102.837 15.1567C102.861 15.0464 102.906 14.9419 102.97 14.8492C103.035 14.7566 103.117 14.6775 103.212 14.6166C103.307 14.5557 103.413 14.5141 103.524 14.4943C103.635 14.4744 103.749 14.4767 103.859 14.501C104.196 14.5343 104.535 14.5467 104.874 14.5381C104.999 14.5309 105.125 14.5524 105.24 14.601C105.356 14.6496 105.459 14.724 105.542 14.8185C105.616 14.9071 105.664 15.0153 105.678 15.1301C105.693 15.2449 105.674 15.3615 105.624 15.466L90.9313 47.1366ZM39.8541 140.565C39.7174 140.571 39.5814 140.543 39.4583 140.483C39.3352 140.423 39.2289 140.334 39.149 140.223C39.0787 140.121 39.0411 140 39.0411 139.876C39.0411 139.753 39.0787 139.632 39.149 139.53L56.1884 113.686C56.2146 113.652 56.2517 113.627 56.2937 113.617C56.3357 113.606 56.3801 113.61 56.4194 113.629L53.2028 119.509L46.0604 132.491C44.6831 134.994 43.2934 137.493 41.9366 140.004C41.8541 140.205 41.7063 140.373 41.5171 140.48C41.3278 140.587 41.1082 140.627 40.8933 140.594C40.5552 140.565 40.217 140.561 39.8541 140.565ZM4.12566 63.5782C4.12774 63.4688 4.15712 63.3618 4.21114 63.2667C4.26516 63.1716 4.34209 63.0916 4.43495 63.0338C4.53563 62.9681 4.64832 62.923 4.76651 62.9011C4.8847 62.8792 5.00607 62.8808 5.12362 62.906L37.05 69.8422C37.1008 69.8493 37.1467 69.8764 37.1776 69.9173C37.2086 69.9583 37.222 70.0099 37.2149 70.0607L34.4767 69.6484C32.1138 69.2855 29.7509 68.9267 27.3879 68.5556C25.1405 68.2009 22.893 67.8298 20.6455 67.4792C17.8084 67.0339 14.963 66.6174 12.1258 66.1679C9.93195 65.8215 7.74222 65.4339 5.55249 65.071C5.10712 64.9967 4.65351 64.9472 4.20814 64.8771C4.17515 64.8771 4.12979 64.7988 4.12979 64.7576C4.12566 64.3699 4.12566 63.9905 4.12566 63.5782ZM150.924 110.651C150.897 110.755 150.845 110.851 150.773 110.932C150.702 111.012 150.612 111.074 150.512 111.113C150.403 111.156 150.288 111.176 150.171 111.172C150.055 111.169 149.941 111.141 149.835 111.092L115.402 94.8653C115.376 94.8551 115.352 94.8397 115.333 94.8198C115.313 94.8 115.298 94.7763 115.289 94.7502C115.279 94.7241 115.275 94.6963 115.276 94.6685C115.278 94.6407 115.286 94.6136 115.299 94.589C116.124 94.923 116.948 95.2488 117.773 95.5952C124.008 98.2427 130.243 100.892 136.479 103.542C140.927 105.425 145.386 107.296 149.856 109.154C150.615 109.48 151.101 109.847 150.924 110.651ZM37.2891 59.6441C37.2582 59.6919 37.2122 59.7279 37.1584 59.7466C37.1046 59.7653 37.0461 59.7655 36.9922 59.7472C36.7036 59.6523 36.4108 59.5616 36.1345 59.4461L16.6661 51.1986C12.6303 49.4886 8.59309 47.7758 4.55454 46.0603C4.45548 46.0149 4.36737 45.9486 4.29621 45.8661C4.22505 45.7835 4.17251 45.6866 4.14216 45.582C4.11868 45.4165 4.10354 45.25 4.0968 45.083C4.10026 44.9536 4.14101 44.8279 4.21417 44.7211C4.28732 44.6143 4.38976 44.5309 4.50917 44.4809C4.63293 44.4198 4.7691 44.388 4.90712 44.388C5.04514 44.388 5.1813 44.4198 5.30506 44.4809L37.2891 59.6441ZM118.486 81.1867C118.493 81.1536 118.512 81.1242 118.54 81.1044C118.567 81.0846 118.601 81.0757 118.635 81.0795L150.079 82.4486C150.269 82.4449 150.454 82.5141 150.595 82.6421C150.736 82.7702 150.823 82.9473 150.838 83.1373V83.7187C150.837 83.8197 150.812 83.9191 150.765 84.0087C150.719 84.0983 150.652 84.1755 150.569 84.2342C150.39 84.3681 150.165 84.4286 149.943 84.4033L118.486 81.1867ZM5.2762 119.245C5.16073 119.314 5.03063 119.354 4.89658 119.363C4.76253 119.371 4.62835 119.348 4.50505 119.295C4.39085 119.251 4.29167 119.175 4.2193 119.076C4.14693 118.977 4.10441 118.86 4.0968 118.738C4.0968 117.088 4.0968 117.088 5.78342 116.264C11.0069 113.699 16.2193 111.13 21.4208 108.556C21.5026 108.517 21.5949 108.506 21.6836 108.525C21.7724 108.543 21.8524 108.591 21.9115 108.659C21.9339 108.692 21.9491 108.729 21.9565 108.768C21.9638 108.807 21.963 108.848 21.9541 108.886C21.9452 108.925 21.9284 108.961 21.9047 108.993C21.8811 109.025 21.8511 109.052 21.8167 109.072L5.2762 119.245ZM5.0865 89.7477C4.85482 89.7892 4.61612 89.7373 4.42257 89.6033C4.33425 89.5451 4.26143 89.4662 4.21042 89.3736C4.15941 89.2809 4.13173 89.1772 4.12979 89.0714V88.993C4.1413 88.816 4.21657 88.6491 4.34167 88.5232C4.46676 88.3973 4.63321 88.3211 4.81021 88.3085L39.2067 83.7723C39.2523 83.7652 39.2989 83.7745 39.3383 83.7987C39.3776 83.8229 39.407 83.8604 39.4211 83.9043L5.0865 89.7477ZM91.4055 139.744C91.4289 139.842 91.4276 139.944 91.4017 140.042C91.3758 140.139 91.3261 140.228 91.2571 140.301C91.182 140.383 91.091 140.449 90.9897 140.495C90.8883 140.542 90.7787 140.567 90.6674 140.569H90.5437C89.9828 140.623 89.8509 140.417 89.7684 139.947C89.3766 137.683 88.8983 135.41 88.4777 133.163C88.1024 131.142 87.756 129.122 87.3972 127.097C86.9711 124.708 86.5477 122.317 86.1271 119.926L84.9147 113.183C84.8157 112.631 84.6961 112.078 84.5807 111.534C84.5767 111.503 84.579 111.471 84.5875 111.441C84.596 111.411 84.6105 111.383 84.6302 111.359C84.6499 111.334 84.6743 111.314 84.7019 111.3C84.7295 111.285 84.7598 111.276 84.791 111.274C86.9848 120.726 89.1828 130.181 91.4055 139.744ZM4.50917 108.507C4.46862 108.526 4.42423 108.536 4.37927 108.536C4.33432 108.536 4.28993 108.526 4.24938 108.507C4.21121 108.489 4.17866 108.461 4.15536 108.426C4.13206 108.392 4.11892 108.351 4.11741 108.309C4.07618 107.002 4.08855 107.026 5.52362 106.494C9.38761 105.072 13.2351 103.608 17.095 102.197C22.071 100.361 27.0498 98.5327 32.0313 96.7128C32.0586 96.7023 32.0886 96.7016 32.1163 96.7106C32.1441 96.7196 32.1679 96.7378 32.1839 96.7622C32.1898 96.7746 32.193 96.788 32.1933 96.8017C32.1936 96.8154 32.1909 96.829 32.1854 96.8415C32.1799 96.854 32.1718 96.8652 32.1615 96.8743C32.1513 96.8834 32.1392 96.8902 32.1262 96.8942L4.50917 108.507ZM147.081 139.448C147.128 139.484 147.166 139.53 147.192 139.584C147.218 139.637 147.232 139.695 147.232 139.755C147.232 139.814 147.218 139.873 147.192 139.926C147.166 139.979 147.128 140.026 147.081 140.062C146.98 140.144 146.854 140.189 146.724 140.189C146.594 140.189 146.468 140.144 146.367 140.062L146.285 139.984C143.971 137.786 141.617 135.621 139.25 133.468C135.291 129.868 131.307 126.293 127.344 122.693C123.718 119.394 120.103 116.095 116.499 112.796C116.486 112.785 116.476 112.773 116.468 112.758C116.461 112.743 116.457 112.727 116.457 112.711C116.457 112.695 116.461 112.679 116.468 112.664C116.476 112.649 116.486 112.636 116.499 112.626C116.526 112.606 116.559 112.594 116.594 112.594C116.628 112.594 116.661 112.606 116.688 112.626L147.081 139.448ZM149.728 48.1964C149.861 48.1422 150.005 48.12 150.148 48.1314C150.292 48.1429 150.43 48.1878 150.553 48.2624C150.668 48.3294 150.759 48.4305 150.814 48.5518C150.868 48.673 150.884 48.8083 150.858 48.9387C150.759 49.4253 150.388 49.5614 149.398 49.9243C146.064 51.1449 142.733 52.3821 139.406 53.6357C134.796 55.3677 130.187 57.1038 125.579 58.844C125.553 58.855 125.523 58.856 125.496 58.847C125.469 58.8379 125.446 58.8193 125.431 58.7946C125.424 58.7832 125.42 58.7705 125.419 58.7573C125.418 58.7441 125.419 58.7308 125.424 58.7185C125.429 58.7061 125.437 58.6951 125.446 58.6861C125.456 58.6771 125.468 58.6705 125.48 58.6667L149.728 48.1964ZM61.636 33.4333C61.5937 33.4437 61.5492 33.4396 61.5095 33.4217C61.4699 33.4037 61.4374 33.373 61.4174 33.3343C58.9101 27.4002 56.3987 21.4661 53.8667 15.4825C53.8234 15.3784 53.8096 15.2644 53.8271 15.153C53.8446 15.0416 53.8926 14.9373 53.9657 14.8515C54.0455 14.7557 54.1459 14.6792 54.2595 14.6278C54.373 14.5763 54.4968 14.5513 54.6214 14.5546H55.0998C55.2658 14.5476 55.4298 14.5933 55.5683 14.6851C55.7068 14.777 55.8128 14.9103 55.8709 15.066C57.7871 21.1692 59.7088 27.2916 61.636 33.4333ZM81.793 139.81C81.7977 139.907 81.781 140.004 81.7439 140.094C81.7068 140.184 81.6504 140.265 81.5786 140.33C81.4164 140.472 81.2082 140.549 80.993 140.549C80.8339 140.559 80.677 140.507 80.5555 140.404C80.4339 140.301 80.3571 140.155 80.3414 139.996C80.149 131.974 79.9552 123.963 79.76 115.963C79.7605 115.945 79.7645 115.929 79.7716 115.913C79.7788 115.897 79.7891 115.883 79.8018 115.872C79.8145 115.86 79.8294 115.851 79.8456 115.846C79.8618 115.84 79.8789 115.838 79.8961 115.839C80.527 123.802 81.1538 131.769 81.793 139.81ZM149.963 66.2586C150.076 66.2372 150.193 66.2386 150.305 66.2627C150.418 66.2868 150.524 66.333 150.619 66.3988C150.707 66.4558 150.78 66.5339 150.83 66.6261C150.881 66.7183 150.907 66.8216 150.908 66.9267C150.908 67.3968 150.668 67.4463 149.827 67.5617C147.225 67.9164 144.619 68.2339 142.017 68.5762C140.264 68.8071 138.516 69.0752 136.763 69.302C134.722 69.5659 132.676 69.8009 130.635 70.0649C128.734 70.3123 126.837 70.5845 124.936 70.8401C124.909 70.8453 124.881 70.8402 124.857 70.8257C124.833 70.8112 124.816 70.7884 124.808 70.7618C124.806 70.7484 124.806 70.7346 124.81 70.7214C124.813 70.7082 124.819 70.6959 124.828 70.6853C124.837 70.6748 124.847 70.6662 124.86 70.6602C124.872 70.6541 124.885 70.6508 124.899 70.6504L149.963 66.2586ZM128.841 14.534C128.993 14.5115 129.147 14.5302 129.289 14.5883C129.43 14.6464 129.553 14.7416 129.645 14.8639C129.726 14.9783 129.764 15.1167 129.755 15.2561C129.746 15.3955 129.69 15.5277 129.596 15.6309C125.662 20.1258 121.827 24.5012 117.996 28.8724C117.973 28.8967 117.944 28.9137 117.911 28.921C117.879 28.9284 117.845 28.9258 117.814 28.9136C117.84 28.7932 117.882 28.6767 117.938 28.5672C121.297 24.0173 124.665 19.4729 128.041 14.934C128.253 14.7113 128.536 14.5698 128.841 14.534ZM44.7367 38.9922C44.6904 39.0261 44.6328 39.0409 44.5759 39.0334C44.5204 39.03 44.4685 39.0048 44.4315 38.9633L23.5281 14.8845C23.4704 14.819 23.4385 14.7347 23.4385 14.6474C23.4385 14.5601 23.4704 14.4758 23.5281 14.4103C23.8992 14.5917 24.3941 14.6948 24.625 14.967C28.5343 19.5815 32.4107 24.2208 36.2994 28.8394C38.9469 31.9982 41.5971 35.1598 44.2501 38.3241C44.4274 38.5344 44.5759 38.7695 44.7367 38.9922ZM118.177 140.425C118.111 140.484 118.03 140.522 117.943 140.535C117.856 140.548 117.767 140.536 117.686 140.499C117.481 140.428 117.297 140.305 117.154 140.14C115.658 137.749 114.222 135.328 112.73 132.936C110.763 129.777 108.758 126.639 106.771 123.493C106.358 122.841 105.946 122.181 105.562 121.526C105.55 121.5 105.544 121.473 105.544 121.445C105.544 121.417 105.55 121.39 105.562 121.365C105.573 121.338 105.589 121.313 105.61 121.293C105.631 121.272 105.655 121.256 105.682 121.245L118.177 140.425ZM101.006 139.959C101.019 140.002 101.024 140.047 101.019 140.092C101.014 140.137 100.999 140.18 100.976 140.219C100.953 140.258 100.922 140.292 100.885 140.318C100.849 140.344 100.807 140.362 100.762 140.371C100.67 140.399 100.57 140.393 100.481 140.355C100.392 140.316 100.319 140.248 100.276 140.161C100.266 140.14 100.26 140.118 100.255 140.095C99.2737 137.208 98.2552 134.301 97.2242 131.41C96.0902 128.235 94.9314 125.068 93.7932 121.893C93.7883 121.877 93.7868 121.86 93.7888 121.844C93.7908 121.828 93.7962 121.812 93.8048 121.798C93.8134 121.784 93.8249 121.772 93.8386 121.762C93.8522 121.753 93.8677 121.747 93.8839 121.744C93.9175 121.733 93.9538 121.735 93.9862 121.749C94.0187 121.762 94.0453 121.787 94.0613 121.818L101.006 139.959ZM75.6238 34.0642C75.5888 34.0657 75.5544 34.0544 75.527 34.0324C75.4997 34.0104 75.4813 33.9792 75.4754 33.9446C75.0602 27.6353 74.6479 21.3217 74.2382 15.0041C74.2387 14.9601 74.2481 14.9166 74.2657 14.8762C74.2833 14.8358 74.3088 14.7994 74.3407 14.769C74.3726 14.7387 74.4102 14.715 74.4514 14.6994C74.4926 14.6838 74.5365 14.6767 74.5805 14.6783C74.6689 14.6677 74.7579 14.6919 74.8287 14.7457C74.8995 14.7996 74.9466 14.879 74.9599 14.967V15.0206C75.1207 19.2062 75.3022 23.3878 75.463 27.5734C75.5372 29.4786 75.5785 31.3838 75.6362 33.289C75.6321 33.5488 75.6238 33.8086 75.6238 34.0642ZM19.3919 80.0279C19.4383 80.0233 19.4847 80.0371 19.521 80.0665C19.5573 80.0958 19.5805 80.1383 19.5857 80.1846C19.5852 80.2074 19.5802 80.2298 19.571 80.2506C19.5618 80.2714 19.5486 80.2902 19.5321 80.3059C19.5156 80.3216 19.4962 80.3339 19.475 80.3421C19.4538 80.3503 19.4312 80.3543 19.4084 80.3537L4.56278 81.0795C4.47766 81.0885 4.39221 81.0657 4.32291 81.0154C4.25362 80.9652 4.20539 80.891 4.18752 80.8073C4.14628 80.4815 4.237 80.4774 4.72361 80.465C9.61029 80.3125 14.5011 80.1434 19.3919 80.0279ZM127.188 73.3763C127.182 73.3548 127.182 73.3324 127.187 73.3108C127.192 73.2893 127.202 73.2693 127.216 73.2525C127.249 73.2144 127.295 73.1895 127.344 73.1824C128.495 73.0464 129.641 72.8979 130.796 72.7701C133.217 72.535 135.65 72.3371 138.07 72.0938C140.491 71.8505 142.854 71.5659 145.246 71.3102C146.924 71.1247 148.602 70.9474 150.285 70.7906C150.33 70.7845 150.376 70.7845 150.421 70.7906C150.479 70.7997 150.531 70.8293 150.568 70.8741C150.605 70.9189 150.625 70.9758 150.623 71.034C150.615 71.0927 150.587 71.1469 150.543 71.1869C150.5 71.2269 150.443 71.2501 150.384 71.2525C148.459 71.4505 146.52 71.6374 144.565 71.8133L131.885 72.9639L127.188 73.3763ZM25.9817 64.8483C25.9765 64.8732 25.966 64.8967 25.9511 64.9173C25.9362 64.9379 25.9171 64.9551 25.8951 64.9679C25.869 64.979 25.841 64.9847 25.8126 64.9847C25.7843 64.9847 25.7562 64.979 25.7302 64.9679L22.926 64.3081L11.5196 61.5864C9.34225 61.0668 7.16077 60.5637 4.99578 60.0152C4.7884 59.9823 4.5832 59.9369 4.38134 59.8791C4.34695 59.8691 4.31506 59.8519 4.28773 59.8288C4.2604 59.8056 4.23824 59.777 4.22268 59.7447C4.20713 59.7124 4.19853 59.6772 4.19745 59.6414C4.19636 59.6056 4.20282 59.57 4.21639 59.5368C4.25214 59.4701 4.30978 59.4177 4.37961 59.3884C4.44944 59.3591 4.52722 59.3547 4.5999 59.376L25.9817 64.8483ZM25.5858 88.9765C25.5881 88.9944 25.5869 89.0126 25.5821 89.03C25.5773 89.0474 25.5691 89.0637 25.558 89.0779C25.5468 89.092 25.533 89.1039 25.5173 89.1127C25.5015 89.1215 25.4842 89.1271 25.4662 89.1291L4.50917 93.7436C4.42359 93.7602 4.33516 93.7541 4.25268 93.7259C4.1702 93.6977 4.09655 93.6483 4.03906 93.5828C4.21639 93.4426 4.36897 93.2117 4.57515 93.1704C7.22262 92.6261 9.87834 92.1271 12.5258 91.5869C15.1073 91.059 17.6847 90.5023 20.2662 89.9374C21.8167 89.6075 23.3672 89.2734 24.9219 88.9559C25.1434 88.9421 25.3656 88.949 25.5858 88.9765ZM72.4856 139.881C72.4619 140.071 72.3663 140.246 72.2184 140.368C72.0705 140.491 71.8815 140.552 71.6897 140.54C71.5436 140.542 71.4027 140.486 71.298 140.384C71.2521 140.339 71.2174 140.283 71.1966 140.223C71.1759 140.162 71.1696 140.097 71.1784 140.033C71.7516 136.66 72.3124 133.328 72.8774 129.996C72.8843 129.964 72.9031 129.936 72.93 129.918C72.9568 129.899 72.9896 129.892 73.0217 129.897L72.4856 139.881ZM150.776 53.1697C150.833 53.2432 150.859 53.3364 150.848 53.429C150.838 53.5216 150.791 53.6062 150.718 53.6646C150.648 53.7319 150.565 53.7838 150.475 53.8172C145.757 55.3924 141.037 56.9636 136.314 58.5306C135.357 58.8495 134.395 59.1602 133.427 59.4626C133.394 59.4743 133.359 59.4735 133.327 59.4606C133.295 59.4477 133.269 59.4234 133.254 59.3925C133.247 59.3777 133.244 59.3617 133.244 59.3456C133.245 59.3294 133.248 59.3136 133.256 59.2991C133.263 59.2845 133.273 59.2717 133.285 59.2615C133.298 59.2513 133.312 59.2439 133.328 59.2399L150.776 53.1697ZM36.8809 41.2107C36.9023 41.193 36.9293 41.1833 36.9572 41.1833C36.985 41.1833 37.012 41.193 37.0335 41.2107L41.5696 45.1118C41.5807 45.1203 41.5897 45.1312 41.5959 45.1437C41.6021 45.1563 41.6054 45.17 41.6054 45.184C41.6054 45.198 41.6021 45.2118 41.5959 45.2243C41.5897 45.2368 41.5807 45.2477 41.5696 45.2562C40.617 44.4809 39.6438 43.718 38.7118 42.9262C38.0727 42.3778 37.4994 41.784 36.8809 41.2107ZM94.3417 28.3982C94.3278 28.8138 94.2795 29.2276 94.1973 29.6353C94.1396 29.8415 94.0778 30.0477 93.9994 30.258C93.9884 30.2833 93.9684 30.3037 93.9433 30.3151C93.9181 30.3266 93.8896 30.3282 93.8633 30.3198C93.8499 30.318 93.837 30.3133 93.8256 30.306C93.8141 30.2988 93.8044 30.2892 93.797 30.2779C93.7895 30.2665 93.7846 30.2537 93.7825 30.2404C93.7805 30.227 93.7813 30.2133 93.785 30.2002C93.9747 29.6147 94.1602 29.0291 94.3458 28.4394L94.3417 28.3982ZM29.8622 82.4486L32.4684 82.2218C32.5434 82.2128 32.6189 82.2335 32.6787 82.2795C32.7068 82.2985 32.7303 82.3236 32.7474 82.3528C32.7646 82.3821 32.7749 82.4148 32.7777 82.4486H29.8622ZM114.301 47.8995C114.311 47.9083 114.324 47.913 114.338 47.913C114.351 47.913 114.365 47.9083 114.375 47.8995L116.025 46.25C116.071 46.2056 116.133 46.1806 116.198 46.1799C116.262 46.1781 116.326 46.2001 116.375 46.2418L114.301 47.8995Z" fill="#E0E0E0"/>
<path d="M9.79688 44.7243C9.79688 51.3324 12.4219 57.6698 17.0946 62.3425C21.7672 67.0151 28.1047 69.6402 34.7128 69.6402C41.3209 69.6402 47.6583 67.0151 52.331 62.3425C57.0036 57.6698 59.6287 51.3324 59.6287 44.7243C59.6287 38.1161 57.0036 31.7787 52.331 27.106C47.6583 22.4334 41.3209 19.8083 34.7128 19.8083C28.1047 19.8083 21.7672 22.4334 17.0946 27.106C12.4219 31.7787 9.79688 38.1161 9.79688 44.7243Z" fill="#EF233C" stroke="#45413C" stroke-width="2.42" stroke-linecap="round" stroke-linejoin="round"/>
<path d="M15.0273 44.7242C15.0273 47.309 15.5365 49.8685 16.5256 52.2565C17.5148 54.6445 18.9646 56.8143 20.7923 58.6421C22.62 60.4698 24.7898 61.9196 27.1779 62.9088C29.5659 63.8979 32.1254 64.407 34.7102 64.407C37.295 64.407 39.8544 63.8979 42.2425 62.9088C44.6305 61.9196 46.8003 60.4698 48.628 58.6421C50.4557 56.8143 51.9056 54.6445 52.8947 52.2565C53.8839 49.8685 54.393 47.309 54.393 44.7242C54.393 39.504 52.3193 34.4976 48.628 30.8063C44.9368 27.1151 39.9304 25.0414 34.7102 25.0414C29.49 25.0414 24.4836 27.1151 20.7923 30.8063C17.1011 34.4976 15.0273 39.504 15.0273 44.7242Z" fill="white" stroke="#45413C" stroke-width="2.42" stroke-linecap="round" stroke-linejoin="round"/>
<path d="M34.7113 32.9344V27.9817M22.9173 44.7243H17.9688M34.7113 56.5142V61.4627M46.5012 44.7243H51.4498M27.9359 32.988L26.34 30.225M22.975 37.9489L20.2121 36.353M22.975 51.4996L20.2121 53.0955M27.9359 56.4564L26.34 59.2194M41.4826 56.4564L43.0785 59.2194M46.4435 51.4996L49.2064 53.0955M46.4435 37.9489L49.2064 36.353M41.4826 32.988L43.0785 30.225M31.5607 33.7921L34.7113 44.7243L37.9237 38.9675" stroke="#45413C" stroke-width="2.42" stroke-linecap="round" stroke-linejoin="round"/>
<path d="M122.09 111.381C125.232 105.042 126.547 97.9541 125.888 90.9102C125.23 83.8663 122.624 77.1448 118.362 71.498C114.1 65.8513 108.35 61.5022 101.757 58.9377C95.1635 56.3732 87.9864 55.6946 81.0292 56.9777C74.0719 58.2608 67.6091 61.4551 62.3643 66.2029C57.1195 70.9507 53.2997 77.0646 51.3326 83.8602C49.3654 90.6557 49.3285 97.8647 51.2261 104.68C53.1236 111.495 56.8807 117.648 62.0767 122.449C57.0416 124.354 51.4085 125.468 46.9135 123.649L42.4805 133.274C42.4805 133.274 48.0393 137.398 58.456 138.771H105.715C105.715 138.771 130.87 131.221 134.655 115.604L122.09 111.381Z" fill="white"/>
<path d="M83.4844 100.074C83.4844 104.769 85.3495 109.272 88.6696 112.592C91.9896 115.912 96.4925 117.777 101.188 117.777C105.883 117.777 110.386 115.912 113.706 112.592C117.026 109.272 118.891 104.769 118.891 100.074C118.891 95.3784 117.026 90.8755 113.706 87.5555C110.386 84.2354 105.883 82.3702 101.188 82.3702C96.4925 82.3702 91.9896 84.2354 88.6696 87.5555C85.3495 90.8755 83.4844 95.3784 83.4844 100.074Z" fill="#E0E0E0"/>
<path d="M74.0921 99.1087C74.0866 96.4058 73.4633 93.74 72.2699 91.3149C71.0764 88.8898 69.3444 86.7696 67.2061 85.1163C65.0678 83.4631 62.5799 82.3205 59.9324 81.776C57.285 81.2314 54.5481 81.2993 51.9309 81.9744C49.9291 87.7644 49.3505 93.9513 50.2441 100.012C51.1378 106.073 53.4773 111.83 57.065 116.796C61.6392 116.621 65.9678 114.681 69.1425 111.383C72.3172 108.085 74.0912 103.686 74.0921 99.1087Z" fill="#E0E0E0"/>
<path d="M105.715 138.779C105.715 138.779 130.87 131.229 134.655 115.612L122.09 111.381C125.232 105.042 126.547 97.9541 125.888 90.9102C125.23 83.8663 122.624 77.1448 118.362 71.498C114.1 65.8513 108.35 61.5022 101.757 58.9377C95.1635 56.3732 87.9864 55.6946 81.0292 56.9777C74.0719 58.2608 67.6091 61.4551 62.3643 66.2029C57.1195 70.9507 53.2997 77.0646 51.3326 83.8602C49.3654 90.6557 49.3285 97.8647 51.2261 104.68C53.1236 111.495 56.8807 117.648 62.0767 122.449C57.0416 124.354 51.4085 125.468 46.9135 123.649L42.4805 133.274C42.4805 133.274 48.0393 137.398 58.456 138.771" stroke="#45413C" stroke-width="2.42" stroke-linecap="round" stroke-linejoin="round"/>
<path d="M138.617 84.9229H124.844C125.327 86.7993 125.665 88.7101 125.854 90.6384H138.617C139.375 90.6384 140.102 90.3373 140.638 89.8014C141.174 89.2654 141.475 88.5386 141.475 87.7806C141.475 87.0227 141.174 86.2958 140.638 85.7599C140.102 85.2239 139.375 84.9229 138.617 84.9229Z" fill="#FF512E"/>
<path d="M125.424 87.5539C125.265 86.6879 125.077 85.8315 124.859 84.9847Z" fill="white"/>
<path d="M125.424 87.5539C125.265 86.6879 125.077 85.8315 124.859 84.9847" stroke="#45413C" stroke-width="2.42" stroke-linecap="round" stroke-linejoin="round"/>
<path d="M39.4648 97.5993C39.4648 101.895 41.1714 106.015 44.2092 109.053C47.2469 112.091 51.367 113.798 55.6631 113.798C59.9591 113.798 64.0792 112.091 67.1169 109.053C70.1547 106.015 71.8613 101.895 71.8613 97.5993C71.8613 93.3033 70.1547 89.1832 67.1169 86.1455C64.0792 83.1077 59.9591 81.4011 55.6631 81.4011C51.367 81.4011 47.2469 83.1077 44.2092 86.1455C41.1714 89.1832 39.4648 93.3033 39.4648 97.5993Z" fill="white" stroke="#45413C" stroke-width="2.42" stroke-linecap="round" stroke-linejoin="round"/>
<path d="M48.9922 94.4612C48.9922 94.7114 49.0415 94.9592 49.1372 95.1903C49.233 95.4215 49.3733 95.6315 49.5502 95.8084C49.7271 95.9853 49.9371 96.1256 50.1683 96.2214C50.3994 96.3171 50.6472 96.3664 50.8974 96.3664C51.1476 96.3664 51.3953 96.3171 51.6265 96.2214C51.8576 96.1256 52.0676 95.9853 52.2445 95.8084C52.4215 95.6315 52.5618 95.4215 52.6575 95.1903C52.7533 94.9592 52.8026 94.7114 52.8026 94.4612C52.8026 94.211 52.7533 93.9633 52.6575 93.7321C52.5618 93.501 52.4215 93.291 52.2445 93.1141C52.0676 92.9371 51.8576 92.7968 51.6265 92.7011C51.3953 92.6053 51.1476 92.556 50.8974 92.556C50.6472 92.556 50.3994 92.6053 50.1683 92.7011C49.9371 92.7968 49.7271 92.9371 49.5502 93.1141C49.3733 93.291 49.233 93.501 49.1372 93.7321C49.0415 93.9633 48.9922 94.211 48.9922 94.4612Z" fill="#45413C"/>
<path d="M84.2461 97.5993C84.2461 101.895 85.9527 106.015 88.9904 109.053C92.0282 112.091 96.1483 113.798 100.444 113.798C104.74 113.798 108.86 112.091 111.898 109.053C114.936 106.015 116.643 101.895 116.643 97.5993C116.643 93.3033 114.936 89.1832 111.898 86.1455C108.86 83.1077 104.74 81.4011 100.444 81.4011C96.1483 81.4011 92.0282 83.1077 88.9904 86.1455C85.9527 89.1832 84.2461 93.3033 84.2461 97.5993Z" fill="white" stroke="#45413C" stroke-width="2.42" stroke-linecap="round" stroke-linejoin="round"/>
<path d="M93.7734 94.4612C93.7734 94.7114 93.8227 94.9592 93.9185 95.1903C94.0142 95.4215 94.1545 95.6315 94.3315 95.8084C94.5084 95.9853 94.7184 96.1256 94.9495 96.2214C95.1807 96.3171 95.4284 96.3664 95.6786 96.3664C95.9288 96.3664 96.1766 96.3171 96.4077 96.2214C96.6389 96.1256 96.8489 95.9853 97.0258 95.8084C97.2027 95.6315 97.343 95.4215 97.4388 95.1903C97.5345 94.9592 97.5838 94.7114 97.5838 94.4612C97.5838 94.211 97.5345 93.9633 97.4388 93.7321C97.343 93.501 97.2027 93.291 97.0258 93.1141C96.8489 92.9371 96.6389 92.7968 96.4077 92.7011C96.1766 92.6053 95.9288 92.556 95.6786 92.556C95.4284 92.556 95.1807 92.6053 94.9495 92.7011C94.7184 92.7968 94.5084 92.9371 94.3315 93.1141C94.1545 93.291 94.0142 93.501 93.9185 93.7321C93.8227 93.9633 93.7734 94.211 93.7734 94.4612Z" fill="#45413C"/>
<path d="M73.1562 112.965C73.1562 108.923 75.1315 105.645 77.5687 105.645C80.0059 105.645 81.9853 108.923 81.9853 112.965H73.1562Z" fill="#FFA694" stroke="#45413C" stroke-width="2.42" stroke-linecap="round" stroke-linejoin="round"/>
<path d="M73.1546 129.6C69.0756 127.877 65.3276 125.457 62.0781 122.449M122.096 111.381C119.763 116.077 116.488 120.242 112.476 123.619C108.465 126.995 103.801 129.509 98.7757 131.006" stroke="#45413C" stroke-width="2.42" stroke-linecap="round" stroke-linejoin="round"/>
<path d="M78.3251 131.963C78.3176 131.762 78.3592 131.563 78.4461 131.382C78.5331 131.2 78.6628 131.043 78.824 130.924C78.9856 130.803 79.1741 130.724 79.3732 130.693C79.5723 130.662 79.7759 130.681 79.9663 130.746C83.1293 131.835 86.6469 132.107 90.6016 131.427C90.8246 131.388 91.0539 131.411 91.2647 131.494C91.4754 131.576 91.6595 131.715 91.7968 131.895C91.9342 132.075 92.0196 132.289 92.0437 132.514C92.0678 132.739 92.0297 132.966 91.9336 133.171C91.0016 135.08 88.8943 137.41 84.2427 136.425C79.4385 135.427 78.3993 133.419 78.3251 131.963Z" fill="#E0E0E0"/>
<path d="M60.4482 122.924H33.6436C33.6453 122.123 33.4557 121.334 33.0905 120.622C32.7254 119.909 32.1953 119.294 31.5444 118.829C30.8935 118.363 30.1407 118.059 29.3487 117.943C28.5567 117.827 27.7485 117.902 26.9913 118.162C26.2342 118.421 25.55 118.858 24.9959 119.436C24.4419 120.014 24.0339 120.715 23.806 121.483C23.578 122.25 23.5368 123.061 23.6857 123.847C23.8346 124.634 24.1693 125.373 24.662 126.004C23.9143 126.46 23.2991 127.104 22.8775 127.872C22.4558 128.64 22.2425 129.505 22.2587 130.38C22.2748 131.256 22.5199 132.112 22.9696 132.864C23.4192 133.616 24.0578 134.237 24.8217 134.665C25.5857 135.094 26.4485 135.315 27.3244 135.306C28.2003 135.298 29.0587 135.06 29.8144 134.618C30.57 134.175 31.1966 133.542 31.6318 132.781C32.067 132.021 32.2957 131.16 32.2951 130.285H60.4482V122.924Z" fill="#FFF2E8" stroke="#45413C" stroke-width="2.42" stroke-linecap="round" stroke-linejoin="round"/>
<path d="M67.8679 116.441C67.8679 116.441 70.5236 121.328 78.2021 121.328C85.8806 121.328 87.2744 116.441 87.2744 116.441C87.2744 116.441 97.9509 116.161 97.9509 125.653C97.9509 135.146 86.6311 138.779 76.7588 138.779C66.4493 138.779 57.5131 135.023 57.1997 126.606C56.8863 118.189 65.5874 116.849 67.8679 116.441Z" fill="#BF8256"/>
<path d="M76.5562 134.289C69.0715 134.289 62.1889 132.709 57.6445 129.34C59.5951 135.843 67.62 138.784 76.7583 138.784C85.5461 138.784 95.4802 135.897 97.5504 128.569C92.3049 132.59 84.0986 134.289 76.5562 134.289Z" fill="#915E3A"/>
<path d="M67.8679 116.441C67.8679 116.441 70.5236 121.328 78.2021 121.328C85.8806 121.328 87.2744 116.441 87.2744 116.441C87.2744 116.441 97.9509 116.161 97.9509 125.653C97.9509 135.146 86.6311 138.779 76.7588 138.779C66.4493 138.779 57.5131 135.023 57.1997 126.606C56.8863 118.189 65.5874 116.849 67.8679 116.441Z" stroke="#45413C" stroke-width="2.42" stroke-linecap="round" stroke-linejoin="round"/>
<path d="M33.8359 126.367C33.8359 127.762 34.1543 129.143 34.7729 130.432C35.3916 131.721 36.2983 132.892 37.4413 133.878C38.5843 134.865 39.9413 135.647 41.4348 136.181C42.9282 136.715 44.5289 136.99 46.1454 136.99C47.7619 136.99 49.3626 136.715 50.8561 136.181C52.3495 135.647 53.7065 134.865 54.8496 133.878C55.9926 132.892 56.8993 131.721 57.5179 130.432C58.1365 129.143 58.4549 127.762 58.4549 126.367C58.4549 124.972 58.1365 123.591 57.5179 122.302C56.8993 121.013 55.9926 119.842 54.8496 118.855C53.7065 117.869 52.3495 117.086 50.8561 116.553C49.3626 116.019 47.7619 115.744 46.1454 115.744C44.5289 115.744 42.9282 116.019 41.4348 116.553C39.9413 117.086 38.5843 117.869 37.4413 118.855C36.2983 119.842 35.3916 121.013 34.7729 122.302C34.1543 123.591 33.8359 124.972 33.8359 126.367Z" fill="white" stroke="#45413C" stroke-width="2.42" stroke-linecap="round" stroke-linejoin="round"/>
<path d="M126.899 99.0344L121.889 125.365C121.103 125.214 120.293 125.254 119.525 125.48C118.758 125.706 118.056 126.112 117.477 126.664C116.898 127.217 116.46 127.899 116.198 128.656C115.936 129.412 115.859 130.219 115.973 131.011C116.086 131.803 116.387 132.556 116.851 133.208C117.315 133.86 117.927 134.392 118.638 134.76C119.349 135.127 120.137 135.32 120.937 135.321C121.737 135.322 122.525 135.132 123.237 134.767C123.545 135.588 124.062 136.315 124.738 136.874C125.413 137.433 126.224 137.806 127.088 137.955C127.952 138.104 128.841 138.024 129.664 137.723C130.488 137.422 131.219 136.911 131.784 136.24C132.348 135.569 132.728 134.762 132.884 133.899C133.04 133.035 132.967 132.147 132.673 131.32C132.378 130.494 131.873 129.759 131.207 129.189C130.54 128.619 129.736 128.233 128.875 128.07L134.136 100.412L126.899 99.0344Z" fill="#FFF2E8" stroke="#45413C" stroke-width="2.42" stroke-linecap="round" stroke-linejoin="round"/>
<path d="M119.232 77.5372C120.935 67.5906 126.733 53.6522 139.146 56.044C151.558 58.4358 151.476 71.269 149.311 82.6589C147.043 94.5808 137.57 104.927 129.983 102.923C122.395 100.919 117.525 87.4796 119.232 77.5372Z" fill="#BF8256"/>
<path d="M143.79 57.7059C146.025 64.3452 145.299 72.898 143.79 80.9022C142.066 89.9745 137.113 98.3211 131.336 103.138C138.66 103.698 147.188 93.8798 149.324 82.6507C151.163 72.9227 151.485 62.139 143.79 57.7059Z" fill="#915E3A"/>
<path d="M119.232 77.5372C120.935 67.5906 126.733 53.6522 139.146 56.044C151.558 58.4358 151.476 71.269 149.311 82.6589C147.043 94.5808 137.57 104.927 129.983 102.923C122.395 100.919 117.525 87.4796 119.232 77.5372Z" stroke="#45413C" stroke-width="2.42" stroke-linecap="round" stroke-linejoin="round"/>
<path d="M125.311 125.819C127.937 126.319 130.685 125.589 132.952 123.789C135.218 121.99 136.816 119.27 137.395 116.226C137.974 113.182 137.486 110.064 136.039 107.559C134.592 105.053 132.303 103.365 129.677 102.865C128.377 102.618 127.033 102.67 125.722 103.018C124.411 103.367 123.159 104.004 122.037 104.895C120.915 105.786 119.945 106.913 119.182 108.21C118.42 109.508 117.88 110.952 117.593 112.459C117.307 113.966 117.279 115.507 117.512 116.994C117.744 118.481 118.233 119.885 118.95 121.126C119.666 122.367 120.597 123.42 121.688 124.225C122.78 125.03 124.011 125.572 125.311 125.819Z" fill="white" stroke="#45413C" stroke-width="2.42" stroke-linecap="round" stroke-linejoin="round"/>
</svg>
