<svg width="155" height="155" viewBox="0 0 155 155" fill="none" xmlns="http://www.w3.org/2000/svg">
<path d="M83.6877 139.575C74.203 139.575 65.2668 139.2 58.5327 138.524C49.3036 137.592 47.3984 136.511 47.3984 135.171C47.3984 133.831 49.2871 132.755 58.5327 131.823C65.2503 131.146 74.1783 130.771 83.6877 130.771C93.1972 130.771 102.105 131.146 108.822 131.823C118.051 132.755 119.956 133.835 119.956 135.171C119.956 136.507 118.064 137.592 108.822 138.524C102.084 139.2 93.1724 139.575 83.6877 139.575Z" fill="#B8ECFF"/>
<path d="M83.6883 131.596C103.256 131.596 119.12 133.2 119.12 135.171C119.12 137.142 103.256 138.751 83.6883 138.751C64.1209 138.751 48.2237 137.146 48.2237 135.171C48.2237 133.196 64.0879 131.596 83.6553 131.596M83.6553 129.946C74.1376 129.946 65.1807 130.322 58.4342 131.002C55.8089 131.232 53.2004 131.624 50.6238 132.177C49.2093 132.515 46.5742 133.142 46.5742 135.171C46.5742 137.2 49.2093 137.831 50.6238 138.169C53.2042 138.727 55.8169 139.124 58.4466 139.357C65.1931 140.037 74.15 140.412 83.6677 140.412C93.1853 140.412 102.142 140.037 108.889 139.357C111.514 139.127 114.122 138.734 116.699 138.181C118.114 137.843 120.749 137.217 120.749 135.183C120.749 133.15 118.114 132.528 116.699 132.19C114.122 131.637 111.514 131.244 108.889 131.014C102.142 130.334 93.1853 129.959 83.6677 129.959L83.6553 129.946Z" fill="#4ACFFF"/>
<path d="M75.7701 133.703C76.2728 134.241 76.8808 134.669 77.5562 134.961C78.2316 135.253 78.96 135.404 79.6959 135.402H83.2135C85.5732 135.402 87.8517 134.541 89.6221 132.981C91.3924 131.421 92.5331 129.269 92.8302 126.928L95.1725 108.474H77.1474C75.2586 108.473 73.3882 108.845 71.6433 109.568C69.8983 110.291 68.3131 111.351 66.9783 112.688C65.6434 114.024 64.5852 115.61 63.8641 117.356C63.1431 119.102 62.7733 120.973 62.776 122.862V125.439L57.1965 131.023C56.8362 131.383 56.5908 131.842 56.4912 132.341C56.3915 132.841 56.4422 133.359 56.6368 133.83C56.8314 134.301 57.1612 134.703 57.5845 134.987C58.0078 135.27 58.5057 135.422 59.0151 135.423H71.7989C73.0099 135.424 74.1874 135.024 75.1478 134.287C76.1082 133.549 76.7977 132.514 77.1088 131.344C77.4198 130.173 77.3351 128.933 76.8677 127.816C76.4003 126.698 75.5765 125.767 74.5247 125.167L73.6092 124.643" fill="white"/>
<path d="M73.6141 124.622L74.5296 125.146C75.5814 125.746 76.4052 126.678 76.8726 127.795C77.34 128.912 77.4248 130.153 77.1137 131.323C76.8026 132.494 76.1131 133.528 75.1527 134.266C74.1923 135.004 73.0148 135.403 71.8038 135.402H59.0201C58.5105 135.402 58.0125 135.25 57.589 134.967C57.1655 134.684 56.8355 134.281 56.6406 133.81C56.6406 133.81 76.7235 134.66 73.6141 124.622Z" fill="#F0F0F0"/>
<path d="M75.7701 133.703C76.2728 134.241 76.8808 134.669 77.5562 134.961C78.2316 135.253 78.96 135.404 79.6959 135.402H83.2135C85.5732 135.402 87.8517 134.541 89.6221 132.981C91.3924 131.421 92.5331 129.269 92.8302 126.928L95.1725 108.474H77.1474C75.2586 108.473 73.3882 108.845 71.6433 109.568C69.8983 110.291 68.3131 111.351 66.9783 112.688C65.6434 114.024 64.5852 115.61 63.8641 117.356C63.1431 119.102 62.7733 120.973 62.776 122.862V125.439L57.1965 131.023C56.8362 131.383 56.5908 131.842 56.4912 132.341C56.3915 132.841 56.4422 133.359 56.6368 133.83C56.8314 134.301 57.1612 134.703 57.5845 134.987C58.0078 135.27 58.5057 135.422 59.0151 135.423H71.7989C73.0099 135.424 74.1874 135.024 75.1478 134.287C76.1082 133.549 76.7977 132.514 77.1088 131.344C77.4198 130.173 77.3351 128.933 76.8677 127.816C76.4003 126.698 75.5765 125.767 74.5247 125.167L73.6092 124.643" stroke="#45413C" stroke-width="2.42" stroke-linecap="round" stroke-linejoin="round"/>
<path d="M108.896 133.419C108.896 133.936 108.795 134.449 108.597 134.927C108.4 135.405 108.11 135.84 107.744 136.206C107.378 136.572 106.944 136.863 106.466 137.061C105.988 137.259 105.475 137.361 104.958 137.361C101.246 137.361 98.97 134.825 98.2154 129.827C97.7081 126.458 97.6133 121.187 97.6133 112.643C97.6133 111.597 98.0286 110.595 98.768 109.855C99.5073 109.116 100.51 108.701 101.556 108.701C102.601 108.701 103.604 109.116 104.343 109.855C105.083 110.595 105.498 111.597 105.498 112.643C105.498 118.09 105.498 126.895 106.187 129.674C106.975 129.933 107.662 130.435 108.148 131.107C108.635 131.78 108.897 132.589 108.896 133.419Z" fill="white" stroke="#45413C" stroke-width="2.42" stroke-linecap="round" stroke-linejoin="round"/>
<path d="M62.7461 125.183V129.674" stroke="#45413C" stroke-width="2.42" stroke-linecap="round" stroke-linejoin="round"/>
<path d="M86.7347 119.62C86.7718 124.445 86.8749 127.633 87.3822 129.674C88.2727 129.967 89.0295 130.569 89.5168 131.37C90.0041 132.171 90.1899 133.119 90.0409 134.045C89.8919 134.971 89.4179 135.813 88.7039 136.421C87.9899 137.028 87.0826 137.362 86.145 137.361C82.4336 137.361 80.1573 134.825 79.4068 129.827C78.9325 126.672 78.8171 125.105 78.8047 117.497" fill="white"/>
<path d="M86.7347 119.62C86.7718 124.445 86.8749 127.633 87.3822 129.674C88.2727 129.967 89.0295 130.569 89.5168 131.37C90.0041 132.171 90.1899 133.119 90.0409 134.045C89.8919 134.971 89.4179 135.813 88.7039 136.421C87.9899 137.028 87.0826 137.362 86.145 137.361C82.4336 137.361 80.1573 134.825 79.4068 129.827C78.9325 126.672 78.8171 125.105 78.8047 117.497" stroke="#45413C" stroke-width="2.42" stroke-linecap="round" stroke-linejoin="round"/>
<path d="M75.142 112.173C70.1079 106.916 67.1973 99.9828 66.9713 92.7081C66.7452 85.4334 69.2196 78.3325 73.9176 72.7737C78.6157 67.2149 85.2049 63.5916 92.4155 62.602C99.6261 61.6125 106.948 63.3267 112.97 67.4144C118.992 71.5021 123.287 77.6739 125.029 84.7405C126.772 91.8071 125.836 99.2685 122.404 105.687C118.972 112.105 113.286 117.026 106.442 119.501C99.5977 121.976 92.0795 121.831 85.336 119.092" fill="white"/>
<path d="M75.142 112.173C70.1079 106.916 67.1973 99.9828 66.9713 92.7081C66.7452 85.4334 69.2196 78.3325 73.9176 72.7737C78.6157 67.2149 85.2049 63.5916 92.4155 62.602C99.6261 61.6125 106.948 63.3267 112.97 67.4144C118.992 71.5021 123.287 77.6739 125.029 84.7405C126.772 91.8071 125.836 99.2685 122.404 105.687C118.972 112.105 113.286 117.026 106.442 119.501C99.5977 121.976 92.0795 121.831 85.336 119.092" stroke="#45413C" stroke-width="2.42" stroke-linecap="round" stroke-linejoin="round"/>
<path d="M90.3841 112.404C89.5764 111.433 88.5202 110.701 87.3283 110.284C87.2069 110.242 87.0752 110.241 86.9532 110.281C86.8312 110.321 86.7255 110.4 86.6523 110.505C86.579 110.611 86.5422 110.737 86.5474 110.866C86.5525 110.994 86.5994 111.117 86.6809 111.216L91.0068 116.577C91.0628 116.645 91.1333 116.7 91.2132 116.738C91.293 116.776 91.3803 116.796 91.4686 116.796C91.5435 116.796 91.6177 116.782 91.6872 116.754C91.8051 116.707 91.9045 116.623 91.9706 116.514C92.0367 116.406 92.0661 116.279 92.0542 116.152C91.8926 114.762 91.3099 113.454 90.3841 112.404ZM105.37 113.266C106.454 112.622 107.693 112.284 108.953 112.288C109.08 112.291 109.203 112.335 109.303 112.413C109.403 112.49 109.475 112.598 109.509 112.721C109.543 112.843 109.536 112.973 109.49 113.091C109.445 113.209 109.362 113.309 109.255 113.377L103.382 117.002C103.307 117.048 103.222 117.077 103.135 117.086C103.047 117.095 102.958 117.085 102.875 117.055C102.803 117.031 102.737 116.991 102.681 116.94C102.586 116.856 102.521 116.744 102.495 116.619C102.469 116.495 102.484 116.366 102.537 116.251C103.154 114.99 104.143 113.948 105.37 113.266Z" fill="#E0E0E0"/>
<path d="M106.7 110.342C106.057 110.21 103.335 107.929 103.018 107.109M89.9414 107.818C90.593 107.876 93.8673 106.503 94.4116 105.81" stroke="#45413C" stroke-width="2.42" stroke-linecap="round" stroke-linejoin="round"/>
<path d="M95.7776 111.047C95.8065 110.758 95.8949 110.478 96.0374 110.224C96.18 109.971 96.3734 109.75 96.6056 109.575C96.8378 109.401 97.1037 109.276 97.3866 109.209C97.6694 109.142 97.9631 109.135 98.2489 109.187C98.5348 109.239 98.8068 109.35 99.0476 109.513C99.2884 109.676 99.4929 109.886 99.6482 110.132C99.8035 110.378 99.9061 110.653 99.9497 110.94C99.9933 111.228 99.9768 111.521 99.9014 111.802L99.5261 113.864C98.9567 113.403 98.2808 113.093 97.5604 112.961C96.84 112.829 96.098 112.88 95.4023 113.109L95.7776 111.047Z" fill="#FFA694" stroke="#45413C" stroke-width="2.42" stroke-linecap="round" stroke-linejoin="round"/>
<path d="M103.481 52.4439C104.74 52.4465 105.984 52.1633 107.118 51.6157C108.252 51.0681 109.246 50.2703 110.027 49.2824C110.808 48.2945 111.354 47.1424 111.625 45.9127C111.896 44.6829 111.885 43.4078 111.591 42.1832C111.298 40.9587 110.73 39.8167 109.932 38.8433C109.133 37.8698 108.124 37.0904 106.98 36.5636C105.836 36.0368 104.588 35.7764 103.329 35.802C102.07 35.8277 100.833 36.1387 99.712 36.7117C99.2014 35.2305 98.4012 33.8657 97.3578 32.6969C96.3145 31.5281 95.0489 30.5787 93.6349 29.9039C92.2209 29.2292 90.6868 28.8426 89.1219 28.7667C87.557 28.6909 85.9926 28.9272 84.52 29.462C83.5265 25.518 81.2592 22.0121 78.0698 19.4881C74.8804 16.9641 70.9473 15.5632 66.8805 15.5025C62.8137 15.4419 58.8406 16.725 55.5774 19.1528C52.3143 21.5806 49.9435 25.0174 48.8328 28.9301C48.182 28.8147 47.5225 28.7553 46.8616 28.7527C45.2874 28.7234 43.7232 29.0081 42.2603 29.5902C40.7974 30.1723 39.4652 31.0401 38.3416 32.143C37.2179 33.2459 36.3254 34.5616 35.7161 36.0134C35.1068 37.4652 34.793 39.0239 34.793 40.5983C34.793 42.1728 35.1068 43.7314 35.7161 45.1832C36.3254 46.635 37.2179 47.9508 38.3416 49.0536C39.4652 50.1565 40.7974 51.0244 42.2603 51.6065C43.7232 52.1886 45.2874 52.4733 46.8616 52.4439H103.481Z" fill="#C0DCEB"/>
<path d="M108.673 37.6147C97.4814 42.9757 83.4482 45.7963 68.3758 44.9633C56.256 44.2953 45.0599 41.3591 35.6577 36.8188C35.0537 38.6001 34.8832 40.4998 35.1604 42.3601C35.4377 44.2205 36.1546 45.9879 37.2517 47.5156C38.3489 49.0434 39.7946 50.2874 41.4688 51.1446C43.1431 52.0017 44.9976 52.4471 46.8785 52.4439H103.482C105.211 52.4482 106.9 51.9131 108.311 50.913C109.722 49.9129 110.787 48.4977 111.356 46.8642C111.926 45.2308 111.972 43.4605 111.488 41.7997C111.004 40.1389 110.015 38.6702 108.657 37.5982L108.673 37.6147Z" fill="#ADC4D9"/>
<path d="M103.481 52.4439C104.74 52.4465 105.984 52.1633 107.118 51.6157C108.252 51.0681 109.246 50.2703 110.027 49.2824C110.808 48.2945 111.354 47.1424 111.625 45.9127C111.896 44.6829 111.885 43.4078 111.591 42.1832C111.298 40.9587 110.73 39.8167 109.932 38.8433C109.133 37.8698 108.124 37.0904 106.98 36.5636C105.836 36.0368 104.588 35.7764 103.329 35.802C102.07 35.8277 100.833 36.1387 99.712 36.7117C99.2014 35.2305 98.4012 33.8657 97.3578 32.6969C96.3145 31.5281 95.0489 30.5787 93.6349 29.9039C92.2209 29.2292 90.6868 28.8426 89.1219 28.7667C87.557 28.6909 85.9926 28.9272 84.52 29.462C83.5265 25.518 81.2592 22.0121 78.0698 19.4881C74.8804 16.9641 70.9473 15.5632 66.8805 15.5025C62.8137 15.4419 58.8406 16.725 55.5774 19.1528C52.3143 21.5806 49.9435 25.0174 48.8328 28.9301C48.182 28.8147 47.5225 28.7553 46.8616 28.7527C45.2874 28.7234 43.7232 29.0081 42.2603 29.5902C40.7974 30.1723 39.4652 31.0401 38.3416 32.143C37.2179 33.2459 36.3254 34.5616 35.7161 36.0134C35.1068 37.4652 34.793 39.0239 34.793 40.5983C34.793 42.1728 35.1068 43.7314 35.7161 45.1832C36.3254 46.635 37.2179 47.9508 38.3416 49.0536C39.4652 50.1565 40.7974 51.0244 42.2603 51.6065C43.7232 52.1886 45.2874 52.4733 46.8616 52.4439H103.481Z" stroke="#45413C" stroke-width="2.42" stroke-linecap="round" stroke-linejoin="round"/>
<path d="M54.8649 68.2669C54.4314 68.2648 54.0102 68.1228 53.664 67.8619C53.3177 67.6011 53.0649 67.2355 52.9432 66.8194L51.8463 63.0132C51.701 62.5036 51.7635 61.9571 52.0201 61.4934C52.2767 61.0297 52.7064 60.6865 53.2154 60.5389C53.3967 60.4881 53.5839 60.4618 53.7721 60.4606C54.2058 60.462 54.6273 60.6038 54.9737 60.8647C55.3201 61.1256 55.5727 61.4916 55.6938 61.908L56.7907 65.7143C56.8644 65.9667 56.887 66.2313 56.8573 66.4925C56.8275 66.7538 56.746 67.0065 56.6175 67.2359C56.3613 67.7006 55.9312 68.0446 55.4216 68.1927C55.2402 68.2421 55.053 68.2671 54.8649 68.2669Z" fill="#B8ECFF"/>
<path d="M53.7713 61.2811C54.0263 61.281 54.2744 61.3638 54.4782 61.517C54.6821 61.6702 54.8305 61.8856 54.9012 62.1306L55.994 65.9369C56.0374 66.0853 56.0511 66.2408 56.0341 66.3944C56.0171 66.5481 55.9699 66.6969 55.8952 66.8322C55.8204 66.9676 55.7196 67.0867 55.5985 67.1829C55.4775 67.2791 55.3386 67.3503 55.1899 67.3926C55.0843 67.4251 54.9745 67.4417 54.8641 67.4421C54.6087 67.4413 54.3605 67.3576 54.1568 67.2037C53.953 67.0498 53.8047 66.8339 53.7342 66.5884L52.6414 62.7822C52.5989 62.6324 52.5865 62.4757 52.6051 62.3212C52.6236 62.1667 52.6727 62.0173 52.7494 61.8819C52.8262 61.7465 52.929 61.6276 53.0521 61.5323C53.1751 61.4369 53.3158 61.367 53.4661 61.3265C53.5723 61.2973 53.6818 61.282 53.7919 61.2811M53.7919 59.6316C53.354 59.6319 52.9221 59.7338 52.5303 59.9294C52.1385 60.125 51.7975 60.4088 51.534 60.7586C51.2706 61.1084 51.092 61.5146 51.0122 61.9452C50.9324 62.3757 50.9537 62.819 51.0743 63.2399L52.1713 67.0462C52.3398 67.637 52.6953 68.1573 53.1845 68.5291C53.6737 68.9008 54.2703 69.104 54.8847 69.1081C55.3226 69.1078 55.7545 69.0058 56.1463 68.8103C56.5381 68.6147 56.8791 68.3308 57.1426 67.981C57.406 67.6312 57.5847 67.2251 57.6644 66.7945C57.7442 66.3639 57.7229 65.9207 57.6023 65.4997L56.4682 61.677C56.2997 61.0861 55.9442 60.5658 55.455 60.1941C54.9657 59.8223 54.3692 59.6192 53.7548 59.6151L53.7919 59.6316Z" fill="#4ACFFF"/>
<path d="M58.742 80.2506C58.309 80.2487 57.8882 80.1073 57.542 79.8473C57.1958 79.5873 56.9427 79.2225 56.8203 78.8072L55.7275 74.9969C55.6544 74.7448 55.6317 74.4807 55.6607 74.2199C55.6897 73.959 55.7699 73.7064 55.8967 73.4766C56.0235 73.2468 56.1944 73.0442 56.3996 72.8805C56.6048 72.7168 56.8402 72.5952 57.0925 72.5226C57.2733 72.4698 57.4608 72.4434 57.6492 72.4442C58.0828 72.4457 58.5044 72.5875 58.8507 72.8484C59.1971 73.1093 59.4498 73.4753 59.5709 73.8917L60.6678 77.6979C60.8142 78.2076 60.7522 78.7545 60.4955 79.2185C60.2388 79.6825 59.8083 80.0255 59.2987 80.1722C59.1179 80.225 58.9304 80.2514 58.742 80.2506Z" fill="#B8ECFF"/>
<path d="M57.6482 73.269C57.9032 73.2689 58.1514 73.3517 58.3552 73.5049C58.559 73.6582 58.7075 73.8735 58.7782 74.1185L59.8751 77.9248C59.9176 78.0745 59.9299 78.2312 59.9114 78.3858C59.8928 78.5403 59.8438 78.6896 59.767 78.8251C59.6903 78.9605 59.5874 79.0793 59.4644 79.1747C59.3414 79.27 59.2006 79.34 59.0503 79.3805C58.9446 79.412 58.8348 79.4272 58.7245 79.4258C58.4697 79.4253 58.2219 79.3423 58.0182 79.1891C57.8145 79.036 57.6659 78.821 57.5946 78.5763L56.5018 74.7701C56.459 74.6217 56.4458 74.4663 56.463 74.3128C56.4802 74.1594 56.5275 74.0108 56.6022 73.8756C56.6769 73.7404 56.7775 73.6212 56.8982 73.5249C57.019 73.4286 57.1575 73.3571 57.306 73.3144C57.4121 73.2852 57.5216 73.2699 57.6317 73.269M57.6317 71.6195C57.1938 71.6198 56.762 71.7217 56.3702 71.9173C55.9784 72.1129 55.6373 72.3968 55.3739 72.7465C55.1104 73.0963 54.9318 73.5025 54.852 73.9331C54.7723 74.3637 54.7935 74.8069 54.9142 75.2278L56.0111 79.0341C56.1828 79.6215 56.5397 80.1376 57.0287 80.5055C57.5178 80.8733 58.1126 81.0732 58.7245 81.0754C58.9893 81.0748 59.2529 81.0387 59.5081 80.9681C60.2278 80.7601 60.8356 80.2751 61.1982 79.6196C61.5608 78.964 61.6485 78.1914 61.4421 77.4712L60.3452 73.6649C60.1767 73.0741 59.8211 72.5537 59.3319 72.182C58.8427 71.8102 58.2462 71.6071 57.6317 71.603V71.6195Z" fill="#4ACFFF"/>
<path d="M77.1628 80.2506C76.7298 80.2487 76.309 80.1073 75.9628 79.8473C75.6166 79.5872 75.3635 79.2225 75.2411 78.8072L74.1442 74.9969C73.9977 74.4872 74.0597 73.9402 74.3164 73.4763C74.5732 73.0123 75.0037 72.6692 75.5133 72.5226C75.6927 72.47 75.8788 72.4437 76.0658 72.4442C76.4997 72.445 76.9215 72.5865 77.268 72.8475C77.6146 73.1085 77.867 73.4749 77.9875 73.8917L79.0845 77.6979C79.1581 77.9503 79.181 78.2147 79.152 78.476C79.1229 78.7372 79.0425 78.9902 78.9152 79.2202C78.7879 79.4502 78.6164 79.6527 78.4104 79.8161C78.2045 79.9795 77.9683 80.1005 77.7154 80.1722C77.536 80.225 77.3498 80.2514 77.1628 80.2506Z" fill="#B8ECFF"/>
<path d="M76.0651 73.269C76.3201 73.2689 76.5682 73.3517 76.7721 73.5049C76.9759 73.6582 77.1243 73.8735 77.195 74.1185L78.2919 77.9248C78.3348 78.0732 78.348 78.2285 78.3308 78.382C78.3136 78.5355 78.2663 78.6841 78.1916 78.8193C78.1169 78.9545 78.0163 79.0737 77.8955 79.1699C77.7748 79.2662 77.6362 79.3378 77.4878 79.3805C77.3821 79.4117 77.2723 79.427 77.162 79.4258C76.907 79.426 76.6589 79.3432 76.4551 79.19C76.2512 79.0367 76.1028 78.8214 76.0321 78.5763L74.9352 74.7701C74.8497 74.4704 74.8863 74.1491 75.037 73.8764C75.1877 73.6036 75.4402 73.4016 75.7393 73.3144C75.8455 73.2854 75.955 73.2702 76.0651 73.269ZM76.0651 71.6195C75.8013 71.6195 75.5389 71.657 75.2857 71.7309C74.566 71.9389 73.9582 72.4238 73.5956 73.0794C73.233 73.735 73.1453 74.5076 73.3516 75.2278L74.4486 79.0341C74.6196 79.6218 74.9764 80.1383 75.4656 80.5063C75.9547 80.8743 76.5499 81.0739 77.162 81.0754C77.4268 81.0748 77.6903 81.0387 77.9455 80.9681C78.6651 80.7602 79.2727 80.275 79.6346 79.6193C79.9965 78.9635 80.0831 78.1908 79.8755 77.4712L78.7827 73.6649C78.6139 73.0734 78.2578 72.5526 77.7677 72.1808C77.2777 71.809 76.6802 71.6062 76.0651 71.603V71.6195Z" fill="#4ACFFF"/>
<path d="M96.3737 78.6464C95.9401 78.645 95.5185 78.5032 95.1722 78.2423C94.8258 77.9814 94.5731 77.6154 94.452 77.199L93.3551 73.3762C93.2087 72.8666 93.2707 72.3196 93.5274 71.8557C93.7841 71.3917 94.2146 71.0486 94.7242 70.902C94.905 70.8492 95.0925 70.8228 95.2809 70.8236C95.7146 70.8251 96.1361 70.9669 96.4825 71.2278C96.8289 71.4887 97.0815 71.8547 97.2026 72.2711L98.2995 76.0773C98.4459 76.587 98.384 77.1339 98.1272 77.5979C97.8705 78.0619 97.44 78.4049 96.9304 78.5516C96.7504 78.61 96.5629 78.6419 96.3737 78.6464Z" fill="#B8ECFF"/>
<path d="M95.2802 71.6649C95.5352 71.6647 95.7833 71.7475 95.9871 71.9008C96.191 72.054 96.3394 72.2694 96.4101 72.5144L97.5029 76.3206C97.5458 76.469 97.559 76.6244 97.5418 76.7779C97.5245 76.9314 97.4772 77.08 97.4026 77.2152C97.3279 77.3504 97.2273 77.4695 97.1065 77.5658C96.9858 77.6621 96.8472 77.7336 96.6988 77.7763C96.593 77.8076 96.4832 77.8228 96.373 77.8217C96.118 77.8218 95.8698 77.7391 95.666 77.5858C95.4622 77.4326 95.3138 77.2172 95.2431 76.9722L94.1503 73.1659C94.1074 73.0176 94.0942 72.8622 94.1114 72.7087C94.1286 72.5552 94.1759 72.4066 94.2506 72.2714C94.3253 72.1362 94.4259 72.0171 94.5466 71.9208C94.6674 71.8245 94.806 71.7529 94.9544 71.7102C95.0601 71.679 95.1699 71.6637 95.2802 71.6649ZM95.2802 70.0154C94.8423 70.0157 94.4104 70.1176 94.0186 70.3132C93.6268 70.5087 93.2858 70.7926 93.0223 71.1424C92.7589 71.4922 92.5802 71.8984 92.5005 72.3289C92.4207 72.7595 92.442 73.2027 92.5626 73.6237L93.6595 77.4299C93.8318 78.017 94.1889 78.5327 94.6778 78.9005C95.1667 79.2683 95.7612 79.4684 96.373 79.4712C96.6381 79.4712 96.9019 79.4337 97.1565 79.3599C97.8762 79.1519 98.484 78.6669 98.8466 78.0113C99.2092 77.3557 99.2969 76.5831 99.0906 75.8629L97.9936 72.0566C97.8251 71.4658 97.4696 70.9455 96.9804 70.5737C96.4911 70.202 95.8946 69.9988 95.2802 69.9948V70.0154Z" fill="#4ACFFF"/>
<path d="M100.182 90.6961C99.7487 90.6947 99.3271 90.5529 98.9807 90.292C98.6344 90.0311 98.3817 89.6651 98.2606 89.2487L97.1637 85.4424C97.0173 84.9328 97.0792 84.3858 97.336 83.9218C97.5927 83.4578 98.0232 83.1148 98.5328 82.9681C98.7136 82.9153 98.9011 82.8889 99.0895 82.8898C99.5232 82.8912 99.9447 83.033 100.291 83.2939C100.637 83.5548 100.89 83.9208 101.011 84.3372L102.108 88.1435C102.255 88.6532 102.193 89.2001 101.936 89.6641C101.679 90.1281 101.249 90.4711 100.739 90.6178C100.558 90.6706 100.371 90.697 100.182 90.6961Z" fill="#B8ECFF"/>
<path d="M99.0927 83.7269C99.3477 83.7268 99.5958 83.8096 99.7996 83.9628C100.003 84.1161 100.152 84.3314 100.223 84.5764L101.315 88.3827C101.358 88.5311 101.371 88.6864 101.354 88.8399C101.337 88.9934 101.29 89.142 101.215 89.2772C101.14 89.4124 101.04 89.5316 100.919 89.6278C100.798 89.7241 100.66 89.7957 100.511 89.8384C100.406 89.8696 100.296 89.8849 100.185 89.8837C99.9305 89.8839 99.6823 89.8011 99.4785 89.6479C99.2747 89.4946 99.1263 89.2793 99.0556 89.0342L97.9628 85.228C97.9199 85.0796 97.9067 84.9242 97.9239 84.7707C97.9411 84.6173 97.9884 84.4687 98.0631 84.3335C98.1378 84.1983 98.2384 84.0791 98.3592 83.9828C98.4799 83.8865 98.6185 83.815 98.7669 83.7723C98.8726 83.7411 98.9824 83.7258 99.0927 83.7269ZM99.0927 82.0774C98.6548 82.0777 98.2229 82.1797 97.8311 82.3752C97.4393 82.5708 97.0983 82.8547 96.8348 83.2044C96.5714 83.5542 96.3927 83.9604 96.313 84.391C96.2332 84.8216 96.2545 85.2648 96.3751 85.6857L97.472 89.492C97.6463 90.076 98.0038 90.5886 98.4916 90.9539C98.9795 91.3192 99.5719 91.518 100.181 91.5209C100.446 91.5209 100.71 91.4834 100.965 91.4095C101.685 91.2015 102.292 90.7166 102.655 90.061C103.018 89.4054 103.105 88.6328 102.899 87.9126L101.802 84.1063C101.633 83.5155 101.278 82.9951 100.789 82.6234C100.3 82.2517 99.703 82.0485 99.0886 82.0444L99.0927 82.0774Z" fill="#4ACFFF"/>
<path d="M90.1781 88.5104C89.7444 88.509 89.3229 88.3672 88.9765 88.1063C88.6301 87.8454 88.3775 87.4794 88.2564 87.063L87.1595 83.2732C87.087 83.0206 87.0651 82.7562 87.095 82.4951C87.1248 82.234 87.2058 81.9813 87.3333 81.7515C87.4608 81.5217 87.6324 81.3193 87.8382 81.1559C88.044 80.9924 88.28 80.8712 88.5327 80.799C88.712 80.7459 88.8982 80.7195 89.0853 80.7206C89.5189 80.7221 89.9405 80.8638 90.2869 81.1247C90.6332 81.3857 90.8859 81.7517 91.007 82.1681L92.1039 85.9743C92.2503 86.484 92.1883 87.0309 91.9316 87.4949C91.6749 87.9589 91.2444 88.3019 90.7348 88.4486C90.5532 88.4958 90.3657 88.5167 90.1781 88.5104Z" fill="#B8ECFF"/>
<path d="M89.0847 81.5289C89.3397 81.5288 89.5878 81.6116 89.7916 81.7648C89.9954 81.918 90.1439 82.1334 90.2146 82.3784L91.3115 86.1847C91.354 86.3344 91.3663 86.4911 91.3478 86.6456C91.3292 86.8002 91.2802 86.9495 91.2034 87.0849C91.1267 87.2204 91.0238 87.3392 90.9008 87.4346C90.7778 87.5299 90.637 87.5999 90.4867 87.6404C90.381 87.6716 90.2712 87.6869 90.161 87.6857C89.906 87.6859 89.6578 87.6031 89.454 87.4499C89.2502 87.2966 89.1017 87.0812 89.031 86.8362L87.9382 83.03C87.8957 82.8802 87.8834 82.7235 87.902 82.569C87.9205 82.4145 87.9696 82.2651 88.0463 82.1297C88.123 81.9943 88.2259 81.8754 88.3489 81.7801C88.472 81.6848 88.6127 81.6148 88.763 81.5743C88.8692 81.5451 88.9787 81.5298 89.0888 81.5289M89.0888 79.8794C88.6509 79.8797 88.219 79.9816 87.8272 80.1772C87.4354 80.3728 87.0944 80.6566 86.8309 81.0064C86.5675 81.3562 86.3888 81.7624 86.3091 82.193C86.2293 82.6236 86.2506 83.0668 86.3712 83.4877L87.4681 87.294C87.6398 87.8813 87.9968 88.3975 88.4858 88.7653C88.9748 89.1332 89.5696 89.3331 90.1816 89.3352C90.4464 89.3347 90.7099 89.2986 90.9651 89.228C91.6842 89.0191 92.2913 88.5339 92.6537 87.8786C93.0162 87.2233 93.1044 86.4512 92.8992 85.7311L91.8022 81.9248C91.6337 81.3339 91.2782 80.8136 90.7889 80.4419C90.2997 80.0701 89.7032 79.867 89.0888 79.8629V79.8794Z" fill="#4ACFFF"/>
<path d="M104.442 77.133C104.009 77.1315 103.587 76.9898 103.241 76.7289C102.894 76.4679 102.642 76.1019 102.521 75.6855L101.42 71.8793C101.275 71.3697 101.338 70.8237 101.595 70.3603C101.851 69.8969 102.28 69.5536 102.789 69.405C102.97 69.3542 103.157 69.3278 103.345 69.3267C103.779 69.3288 104.2 69.4708 104.546 69.7316C104.893 69.9924 105.145 70.3581 105.267 70.7741L106.364 74.5804C106.509 75.09 106.447 75.6364 106.19 76.1001C105.934 76.5638 105.504 76.907 104.995 77.0546C104.815 77.1051 104.629 77.1314 104.442 77.133Z" fill="#B8ECFF"/>
<path d="M103.35 70.1473C103.606 70.1481 103.854 70.2317 104.058 70.3857C104.262 70.5396 104.41 70.7555 104.48 71.0009L105.573 74.8072C105.616 74.9556 105.629 75.111 105.612 75.2644C105.595 75.4179 105.548 75.5665 105.473 75.7017C105.398 75.8369 105.298 75.9561 105.177 76.0524C105.056 76.1486 104.918 76.2202 104.769 76.2629C104.663 76.2921 104.553 76.3074 104.443 76.3083C104.188 76.3084 103.94 76.2256 103.736 76.0724C103.533 75.9191 103.384 75.7038 103.313 75.4587L102.221 71.6525C102.177 71.5041 102.164 71.3486 102.18 71.1949C102.197 71.0413 102.245 70.8925 102.319 70.7571C102.394 70.6218 102.495 70.5026 102.616 70.4064C102.737 70.3103 102.876 70.239 103.025 70.1968C103.13 70.1643 103.24 70.1476 103.35 70.1473ZM103.35 68.4978C102.913 68.4981 102.481 68.6 102.089 68.7956C101.697 68.9912 101.356 69.275 101.093 69.6248C100.829 69.9746 100.651 70.3808 100.571 70.8114C100.491 71.2419 100.512 71.6852 100.633 72.1061L101.73 75.9124C101.898 76.5032 102.254 77.0235 102.743 77.3953C103.232 77.767 103.829 77.9702 104.443 77.9743C104.881 77.974 105.313 77.872 105.705 77.6765C106.097 77.4809 106.438 77.197 106.701 76.8472C106.965 76.4974 107.143 76.0913 107.223 75.6607C107.303 75.2301 107.282 74.7869 107.161 74.3659L106.064 70.5597C105.895 69.9688 105.54 69.4485 105.051 69.0768C104.561 68.705 103.965 68.5019 103.35 68.4978Z" fill="#4ACFFF"/>
<path d="M62.6211 92.2383C62.1869 92.2371 61.7648 92.0955 61.4177 91.8346C61.0706 91.5738 60.8172 91.2076 60.6953 90.7909L59.6025 86.9846C59.5294 86.7326 59.5067 86.4685 59.5357 86.2077C59.5647 85.9468 59.6449 85.6942 59.7717 85.4644C59.8985 85.2345 60.0694 85.032 60.2746 84.8683C60.4798 84.7046 60.7152 84.583 60.9675 84.5104C61.1483 84.4576 61.3358 84.4312 61.5242 84.432C61.9578 84.4335 62.3794 84.5752 62.7257 84.8361C63.0721 85.0971 63.3248 85.4631 63.4459 85.8795L64.5428 89.6857C64.6892 90.1954 64.6272 90.7423 64.3705 91.2063C64.1138 91.6703 63.6833 92.0133 63.1737 92.16C62.9942 92.2125 62.8081 92.2389 62.6211 92.2383Z" fill="#B8ECFF"/>
<path d="M61.5272 85.2568C61.7822 85.2567 62.0303 85.3395 62.2342 85.4927C62.438 85.6459 62.5864 85.8613 62.6571 86.1063L63.754 89.9126C63.796 90.0623 63.8079 90.2189 63.7891 90.3732C63.7703 90.5276 63.7211 90.6767 63.6445 90.812C63.5678 90.9473 63.4652 91.0661 63.3424 91.1615C63.2197 91.257 63.0793 91.3273 62.9293 91.3683C62.8236 91.3997 62.7138 91.415 62.6035 91.4136C62.3492 91.4129 62.102 91.3297 61.899 91.1765C61.696 91.0233 61.5482 90.8085 61.4777 90.5641L60.3808 86.7579C60.3379 86.6095 60.3247 86.4541 60.3419 86.3006C60.3591 86.1471 60.4064 85.9985 60.4811 85.8633C60.5558 85.7282 60.6564 85.609 60.7772 85.5127C60.8979 85.4164 61.0365 85.3449 61.1849 85.3022C61.2907 85.271 61.4005 85.2557 61.5107 85.2568M61.5107 83.6073C61.0061 83.608 60.5108 83.7432 60.0759 83.9991C59.6409 84.255 59.2821 84.6222 59.0364 85.063C58.6742 85.7202 58.5868 86.4941 58.7931 87.2156L59.8901 91.0219C60.0586 91.6127 60.4141 92.133 60.9033 92.5048C61.3925 92.8765 61.9891 93.0797 62.6035 93.0838C62.8686 93.0838 63.1324 93.0463 63.387 92.9724C63.7467 92.8713 64.0828 92.6999 64.3759 92.4681C64.669 92.2364 64.9132 91.9489 65.0946 91.6222C65.2759 91.2955 65.3908 90.9362 65.4325 90.5649C65.4742 90.1936 65.4419 89.8177 65.3376 89.4589L64.2406 85.6527C64.0684 85.0657 63.7113 84.5499 63.2224 84.1821C62.7335 83.8144 62.139 83.6142 61.5272 83.6114L61.5107 83.6073Z" fill="#4ACFFF"/>
<path d="M80.612 92.2383C80.1783 92.2369 79.7568 92.0951 79.4104 91.8342C79.064 91.5733 78.8114 91.2073 78.6903 90.7909L77.5934 86.9846C77.447 86.475 77.5089 85.928 77.7657 85.4641C78.0224 85.0001 78.4529 84.657 78.9625 84.5104C79.1433 84.4576 79.3308 84.4312 79.5192 84.432C79.9528 84.4335 80.3744 84.5752 80.7208 84.8361C81.0671 85.0971 81.3198 85.4631 81.4409 85.8795L82.5378 89.6857C82.6842 90.1954 82.6223 90.7423 82.3655 91.2063C82.1088 91.6703 81.6783 92.0133 81.1687 92.16C80.9879 92.2128 80.8004 92.2392 80.612 92.2383Z" fill="#B8ECFF"/>
<path d="M79.5198 85.2568C79.7748 85.2567 80.023 85.3395 80.2268 85.4927C80.4306 85.6459 80.5791 85.8613 80.6497 86.1063L81.7425 89.9126C81.7854 90.061 81.7986 90.2163 81.7814 90.3698C81.7642 90.5233 81.7169 90.6719 81.6422 90.8071C81.5675 90.9423 81.4669 91.0614 81.3462 91.1577C81.2254 91.254 81.0868 91.3256 80.9384 91.3683C80.8327 91.3995 80.7229 91.4148 80.6126 91.4136C80.3576 91.4138 80.1095 91.331 79.9057 91.1777C79.7018 91.0245 79.5534 90.8091 79.4827 90.5641L78.3899 86.7579C78.347 86.6095 78.3338 86.4541 78.351 86.3006C78.3683 86.1471 78.4156 85.9985 78.4902 85.8634C78.5649 85.7282 78.6655 85.609 78.7863 85.5127C78.907 85.4164 79.0456 85.3449 79.194 85.3022C79.2998 85.271 79.4096 85.2557 79.5198 85.2568ZM79.5198 83.6073C79.0816 83.6067 78.6493 83.7081 78.2571 83.9034C77.8648 84.0988 77.5234 84.3827 77.2598 84.7327C76.9962 85.0827 76.8176 85.4893 76.7382 85.9202C76.6588 86.3511 76.6807 86.7946 76.8022 87.2156L77.8992 91.0219C78.0677 91.6127 78.4232 92.133 78.9124 92.5048C79.4017 92.8765 79.9982 93.0797 80.6126 93.0838C81.0505 93.0835 81.4824 92.9815 81.8742 92.786C82.266 92.5904 82.607 92.3065 82.8705 91.9567C83.1339 91.6069 83.3126 91.2008 83.3923 90.7702C83.4721 90.3396 83.4508 89.8964 83.3302 89.4754L82.2333 85.6692C82.061 85.0822 81.7039 84.5664 81.215 84.1986C80.7261 83.8309 80.1316 83.6307 79.5198 83.6279V83.6073Z" fill="#4ACFFF"/>
<path d="M73.2057 66.6668C72.7719 66.6661 72.3501 66.5245 72.0036 66.2635C71.657 66.0025 71.4046 65.6361 71.2841 65.2194L70.1871 61.4173C70.0407 60.9076 70.1027 60.3607 70.3594 59.8967C70.6162 59.4327 71.0466 59.0897 71.5562 58.943C71.7356 58.8902 71.9218 58.8638 72.1088 58.8646C72.5426 58.8654 72.9645 59.0069 73.311 59.2679C73.6575 59.529 73.91 59.8953 74.0305 60.3121L75.1274 64.1183C75.2739 64.628 75.2119 65.175 74.9551 65.6389C74.6984 66.1029 74.2679 66.4459 73.7583 66.5926C73.5786 66.6437 73.3925 66.6687 73.2057 66.6668Z" fill="#B8ECFF"/>
<path d="M72.1055 59.6853C72.3605 59.6851 72.6087 59.7679 72.8125 59.9212C73.0163 60.0744 73.1648 60.2898 73.2355 60.5348L74.3324 64.341C74.3753 64.4894 74.3885 64.6448 74.3712 64.7983C74.354 64.9518 74.3067 65.1004 74.232 65.2356C74.1574 65.3708 74.0568 65.4899 73.936 65.5862C73.8152 65.6825 73.6767 65.754 73.5282 65.7967C73.4224 65.8277 73.3127 65.843 73.2025 65.8421C72.9475 65.8423 72.6993 65.7595 72.4955 65.6062C72.2917 65.453 72.1432 65.2376 72.0725 64.9926L70.9756 61.1864C70.9328 61.038 70.9195 60.8826 70.9368 60.7291C70.954 60.5756 71.0013 60.427 71.076 60.2918C71.1506 60.1566 71.2512 60.0375 71.372 59.9412C71.4928 59.8449 71.6313 59.7734 71.7798 59.7307C71.8859 59.7014 71.9954 59.6862 72.1055 59.6853ZM72.1055 58.0358C71.6677 58.0359 71.2359 58.1377 70.8441 58.3333C70.4524 58.5289 70.1115 58.8129 69.8484 59.1628C69.5852 59.5127 69.407 59.9191 69.3278 60.3497C69.2486 60.7803 69.2706 61.2234 69.3921 61.6441L70.4849 65.4503C70.6568 66.0384 71.0143 66.555 71.5042 66.923C71.994 67.2909 72.5898 67.4904 73.2025 67.4916C73.4659 67.491 73.7281 67.4549 73.9819 67.3844C74.7016 67.1764 75.3094 66.6914 75.672 66.0358C76.0346 65.3802 76.1223 64.6076 75.9159 63.8874L74.819 60.0812C74.6511 59.49 74.2957 58.9693 73.8063 58.5974C73.317 58.2256 72.7201 58.0227 72.1055 58.0193V58.0358Z" fill="#4ACFFF"/>
<path d="M82.7054 64.44C82.2718 64.4386 81.8502 64.2968 81.5039 64.0359C81.1575 63.775 80.9048 63.409 80.7837 62.9926L79.6868 59.1863C79.6144 58.9337 79.5925 58.6693 79.6223 58.4082C79.6521 58.1471 79.7331 57.8944 79.8606 57.6646C79.9882 57.4348 80.1597 57.2324 80.3655 57.069C80.5713 56.9055 80.8073 56.7842 81.06 56.7121C81.2394 56.659 81.4256 56.6326 81.6126 56.6337C82.0463 56.6352 82.4678 56.7769 82.8142 57.0378C83.1606 57.2987 83.4132 57.6648 83.5343 58.0812L84.6312 61.8874C84.7777 62.3971 84.7157 62.944 84.459 63.408C84.2022 63.872 83.7717 64.215 83.2621 64.3617C83.0813 64.4145 82.8938 64.4409 82.7054 64.44Z" fill="#B8ECFF"/>
<path d="M81.6235 57.4584C81.8785 57.4582 82.1266 57.541 82.3305 57.6942C82.5343 57.8475 82.6827 58.0629 82.7534 58.3079L83.8503 62.1141C83.8928 62.2639 83.9052 62.4205 83.8866 62.5751C83.8681 62.7296 83.819 62.879 83.7423 63.0144C83.6656 63.1498 83.5627 63.2687 83.4397 63.364C83.3166 63.4593 83.1759 63.5293 83.0256 63.5698C82.9199 63.6013 82.8101 63.6166 82.6998 63.6152C82.445 63.6147 82.1972 63.5316 81.9935 63.3785C81.7898 63.2253 81.6412 63.0103 81.5699 62.7657L80.4812 58.9429C80.4387 58.7932 80.4264 58.6365 80.4449 58.482C80.4635 58.3274 80.5125 58.1781 80.5893 58.0427C80.666 57.9072 80.7689 57.7884 80.8919 57.6931C81.0149 57.5977 81.1557 57.5277 81.306 57.4872C81.4121 57.458 81.5216 57.4428 81.6317 57.4419M81.6317 55.7924C81.1938 55.7926 80.762 55.8946 80.3702 56.0902C79.9784 56.2857 79.6373 56.5696 79.3739 56.9194C79.1104 57.2692 78.9318 57.6754 78.852 58.1059C78.7723 58.5365 78.7935 58.9797 78.9142 59.4007L80.0111 63.2069C80.179 63.7981 80.5344 64.3188 81.0237 64.6907C81.5131 65.0625 82.11 65.2654 82.7245 65.2688C82.9893 65.2682 83.2529 65.2322 83.5081 65.1616C84.2272 64.9526 84.8343 64.4675 85.1967 63.8122C85.5591 63.1569 85.6474 62.3848 85.4421 61.6646L84.3452 57.8584C84.1767 57.2675 83.8211 56.7472 83.3319 56.3755C82.8427 56.0037 82.2462 55.8006 81.6317 55.7965V55.7924Z" fill="#4ACFFF"/>
<path d="M86.5737 76.4278C86.14 76.4264 85.7185 76.2846 85.3721 76.0237C85.0257 75.7628 84.7731 75.3968 84.652 74.9804L83.5592 71.1741C83.4861 70.9218 83.4636 70.6574 83.4929 70.3964C83.5222 70.1353 83.6028 69.8826 83.73 69.6527C83.8572 69.4228 84.0285 69.2203 84.2342 69.0568C84.4398 68.8933 84.6757 68.772 84.9283 68.6998C85.1077 68.647 85.2939 68.6206 85.4809 68.6215C85.9149 68.6243 86.3363 68.7677 86.682 69.0301C87.0277 69.2926 87.279 69.6599 87.3985 70.0772L88.4954 73.8834C88.6418 74.3931 88.5798 74.94 88.3231 75.404C88.0664 75.868 87.6359 76.211 87.1263 76.3577C86.9464 76.4073 86.7603 76.4309 86.5737 76.4278Z" fill="#B8ECFF"/>
<path d="M85.4872 69.4463C85.7422 69.4461 85.9903 69.5289 86.1941 69.6821C86.3979 69.8354 86.5464 70.0508 86.6171 70.2958L87.714 74.102C87.7559 74.2518 87.7678 74.4083 87.749 74.5627C87.7302 74.717 87.6811 74.8661 87.6044 75.0014C87.5278 75.1367 87.4251 75.2555 87.3024 75.351C87.1797 75.4465 87.0392 75.5167 86.8893 75.5577C86.7835 75.5889 86.6737 75.6042 86.5635 75.6031C86.309 75.603 86.0615 75.5201 85.8584 75.3668C85.6552 75.2135 85.5076 74.9982 85.4377 74.7536L84.3408 70.9473C84.2977 70.7976 84.2849 70.6408 84.3032 70.486C84.3215 70.3313 84.3705 70.1818 84.4473 70.0462C84.5241 69.9106 84.6272 69.7917 84.7505 69.6965C84.8738 69.6013 85.0149 69.5316 85.1655 69.4916C85.2712 69.4604 85.381 69.4451 85.4913 69.4463M85.4913 67.7968C85.0536 67.7964 84.6217 67.8977 84.2299 68.0928C83.838 68.2879 83.4969 68.5714 83.2334 68.9209C82.9698 69.2704 82.7911 69.6764 82.7114 70.1068C82.6316 70.5372 82.6529 70.9802 82.7737 71.4009L83.8706 75.2113C84.0392 75.8022 84.3947 76.3225 84.8839 76.6942C85.3731 77.066 85.9697 77.2691 86.5841 77.2732C86.8492 77.2732 87.113 77.2357 87.3676 77.1619C88.0873 76.9539 88.6951 76.4689 89.0577 75.8133C89.4203 75.1577 89.508 74.3851 89.3017 73.6649L88.2212 69.838C88.0496 69.2507 87.6926 68.7345 87.2036 68.3667C86.7146 67.9988 86.1197 67.7989 85.5078 67.7968H85.4913Z" fill="#4ACFFF"/>
<path d="M92.5883 66.7781C92.1549 66.776 91.7336 66.634 91.3874 66.3732C91.0411 66.1124 90.7884 65.7468 90.6667 65.3307L89.5739 61.5244C89.4274 61.0148 89.4894 60.4678 89.7461 60.0039C90.0029 59.5399 90.4334 59.1968 90.943 59.0502C91.1224 58.9974 91.3085 58.971 91.4955 58.9718C91.9294 58.9726 92.3512 59.1141 92.6977 59.3751C93.0442 59.6361 93.2967 60.0025 93.4172 60.4193L94.5141 64.2255C94.6606 64.7352 94.5986 65.2821 94.3419 65.7461C94.0851 66.2101 93.6546 66.5531 93.1451 66.6998C92.9642 66.7526 92.7767 66.779 92.5883 66.7781Z" fill="#B8ECFF"/>
<path d="M91.4989 59.7924C91.7539 59.7923 92.0021 59.8751 92.2059 60.0283C92.4097 60.1815 92.5582 60.3969 92.6288 60.6419L93.7258 64.4482C93.7677 64.5979 93.7796 64.7545 93.7608 64.9088C93.742 65.0632 93.6929 65.2123 93.6162 65.3476C93.5396 65.4829 93.4369 65.6017 93.3142 65.6972C93.1914 65.7926 93.051 65.8629 92.901 65.9039C92.7952 65.9348 92.6855 65.9501 92.5752 65.9492C92.3202 65.9494 92.0721 65.8666 91.8683 65.7134C91.6645 65.5601 91.516 65.3447 91.4453 65.0997L90.3484 61.2935C90.3059 61.1437 90.2936 60.9871 90.3121 60.8325C90.3307 60.678 90.3797 60.5286 90.4565 60.3932C90.5332 60.2578 90.6361 60.139 90.7591 60.0436C90.8821 59.9483 91.0229 59.8783 91.1732 59.8378C91.2789 59.8066 91.3887 59.7913 91.4989 59.7924ZM91.4989 58.1429C91.061 58.1432 90.6292 58.2451 90.2374 58.4407C89.8456 58.6363 89.5045 58.9201 89.2411 59.2699C88.9776 59.6197 88.799 60.0259 88.7192 60.4565C88.6394 60.8871 88.6607 61.3303 88.7814 61.7512L89.8742 65.541C90.0429 66.1325 90.399 66.6533 90.8891 67.0251C91.3791 67.397 91.9766 67.5997 92.5917 67.6029C92.8555 67.6029 93.1179 67.5654 93.3711 67.4915C94.0908 67.2835 94.6987 66.7985 95.0612 66.143C95.4238 65.4874 95.5116 64.7147 95.3052 63.9946L94.2124 60.1801C94.0401 59.593 93.683 59.0773 93.1941 58.7095C92.7052 58.3417 92.1107 58.1416 91.4989 58.1388V58.1429Z" fill="#4ACFFF"/>
<path d="M100.901 64.44C100.468 64.4388 100.047 64.2976 99.7005 64.0375C99.3542 63.7774 99.1012 63.4123 98.9794 62.9967L97.8824 59.1863C97.736 58.6766 97.798 58.1297 98.0547 57.6657C98.3115 57.2017 98.742 56.8587 99.2515 56.712C99.431 56.6595 99.6171 56.6331 99.8041 56.6337C100.238 56.6345 100.66 56.776 101.006 57.037C101.353 57.298 101.605 57.6644 101.726 58.0811L102.823 61.8874C102.896 62.1397 102.919 62.4042 102.89 62.6654C102.861 62.9267 102.781 63.1796 102.653 63.4096C102.526 63.6396 102.355 63.8422 102.149 64.0056C101.943 64.169 101.707 64.29 101.454 64.3616C101.274 64.4145 101.088 64.4409 100.901 64.44Z" fill="#B8ECFF"/>
<path d="M99.8034 57.4584C100.058 57.4582 100.307 57.541 100.51 57.6943C100.714 57.8475 100.863 58.0629 100.933 58.3079L102.03 62.1141C102.073 62.2625 102.086 62.4179 102.069 62.5714C102.052 62.7249 102.005 62.8735 101.93 63.0086C101.855 63.1438 101.755 63.263 101.634 63.3593C101.513 63.4556 101.375 63.5271 101.226 63.5698C101.12 63.601 101.011 63.6163 100.9 63.6152C100.645 63.6153 100.397 63.5325 100.193 63.3793C99.9895 63.2261 99.8411 63.0107 99.7704 62.7657L98.6735 58.9429C98.588 58.6433 98.6246 58.322 98.7753 58.0492C98.926 57.7765 99.1784 57.5744 99.4776 57.4872C99.5838 57.4583 99.6933 57.443 99.8034 57.4419M99.8034 55.7924C99.5396 55.792 99.2771 55.8295 99.024 55.9037C98.3043 56.1117 97.6964 56.5967 97.3339 57.2523C96.9713 57.9079 96.8836 58.6805 97.0899 59.4007L98.1868 63.2069C98.3542 63.7985 98.7094 64.3195 99.1989 64.6915C99.6884 65.0634 100.286 65.2661 100.9 65.2688C101.165 65.2682 101.429 65.2322 101.684 65.1616C102.403 64.9527 103.01 64.4674 103.371 63.8119C103.733 63.1564 103.82 62.3843 103.614 61.6646L102.521 57.8584C102.352 57.2668 101.996 56.746 101.506 56.3742C101.016 56.0024 100.418 55.7997 99.8034 55.7965V55.7924Z" fill="#4ACFFF"/>
<path d="M62.6189 65.1864C62.1852 65.185 61.7637 65.0432 61.4173 64.7823C61.0709 64.5214 60.8183 64.1554 60.6972 63.739L59.6044 59.9327C59.5299 59.6806 59.5065 59.4161 59.5355 59.1548C59.5646 58.8935 59.6455 58.6407 59.7735 58.411C60.0297 57.9464 60.4598 57.6023 60.9694 57.4543C61.1506 57.4035 61.3379 57.3772 61.5261 57.376C61.9596 57.3781 62.3808 57.5201 62.727 57.7809C63.0733 58.0417 63.3261 58.4074 63.4478 58.8234L64.5447 62.6297C64.6889 63.1393 64.6259 63.6852 64.3695 64.1486C64.113 64.612 63.684 64.9554 63.1756 65.1039C62.9945 65.1562 62.8073 65.1839 62.6189 65.1864Z" fill="#B8ECFF"/>
<path d="M61.5271 58.2007C61.7825 58.2014 62.0307 58.2851 62.2345 58.439C62.4382 58.5929 62.5865 58.8089 62.6571 59.0543L63.754 62.8605C63.7959 63.0103 63.8078 63.1668 63.789 63.3212C63.7702 63.4755 63.7211 63.6247 63.6444 63.7599C63.5678 63.8952 63.4651 64.014 63.3424 64.1095C63.2196 64.205 63.0792 64.2752 62.9292 64.3162C62.8231 64.3458 62.7136 64.361 62.6035 64.3616C62.3492 64.3609 62.102 64.2776 61.899 64.1245C61.696 63.9713 61.5481 63.7564 61.4777 63.5121L60.3807 59.7058C60.3373 59.5575 60.3237 59.402 60.3406 59.2483C60.3576 59.0946 60.4048 58.9458 60.4796 58.8105C60.5543 58.6752 60.6551 58.556 60.7762 58.4598C60.8972 58.3636 61.0361 58.2924 61.1849 58.2501C61.2904 58.2176 61.4002 58.201 61.5107 58.2007M61.5107 56.5511C61.0727 56.5514 60.6409 56.6534 60.2491 56.8489C59.8573 57.0445 59.5162 57.3284 59.2528 57.6782C58.9893 58.028 58.8107 58.4341 58.7309 58.8647C58.6512 59.2953 58.6724 59.7385 58.7931 60.1595L59.89 63.9657C60.0585 64.5566 60.4141 65.0769 60.9033 65.4486C61.3925 65.8204 61.989 66.0235 62.6035 66.0276C63.0414 66.0273 63.4732 65.9254 63.865 65.7298C64.2568 65.5342 64.5979 65.2504 64.8613 64.9006C65.1248 64.5508 65.3034 64.1446 65.3832 63.714C65.463 63.2835 65.4417 62.8402 65.321 62.4193L64.2241 58.613C64.0556 58.0222 63.7 57.5019 63.2108 57.1301C62.7216 56.7584 62.1251 56.5552 61.5107 56.5511Z" fill="#4ACFFF"/>
<path d="M66.499 77.1742C66.0652 77.1717 65.6437 77.0296 65.2968 76.7689C64.95 76.5082 64.6963 76.1428 64.5732 75.7268L63.4804 71.9205C63.3338 71.4114 63.3952 70.865 63.6512 70.4011C63.9071 69.9372 64.3366 69.5938 64.8454 69.4463C65.0267 69.3957 65.2139 69.3694 65.4021 69.3679C65.8356 69.37 66.2568 69.5121 66.6031 69.7729C66.9493 70.0337 67.2021 70.3993 67.3238 70.8154L68.429 74.6134C68.5731 75.123 68.5101 75.6689 68.2537 76.1323C67.9973 76.5957 67.5682 76.9391 67.0599 77.0876C66.8777 77.1417 66.689 77.1708 66.499 77.1742Z" fill="#B8ECFF"/>
<path d="M65.4041 70.1886C65.6595 70.1894 65.9077 70.273 66.1114 70.4269C66.3152 70.5809 66.4635 70.7968 66.534 71.0422L67.6309 74.8484C67.7163 75.1476 67.6796 75.4683 67.5288 75.7404C67.3781 76.0125 67.1256 76.2137 66.8268 76.3C66.7198 76.3326 66.6087 76.3492 66.4969 76.3495C66.2422 76.3478 65.995 76.2638 65.792 76.1099C65.5891 75.9561 65.4414 75.7406 65.3711 75.4959L64.2742 71.6896C64.2317 71.5399 64.2193 71.3832 64.2379 71.2287C64.2564 71.0741 64.3055 70.9248 64.3822 70.7894C64.459 70.6539 64.5618 70.5351 64.6849 70.4398C64.8079 70.3444 64.9486 70.2744 65.0989 70.2339C65.2051 70.2047 65.3146 70.1895 65.4247 70.1886M65.4247 68.5391C64.9868 68.5394 64.555 68.6413 64.1632 68.8369C63.7713 69.0324 63.4303 69.3163 63.1669 69.6661C62.9034 70.0159 62.7248 70.4221 62.645 70.8526C62.5652 71.2832 62.5865 71.7264 62.7071 72.1474L63.8041 75.9536C63.9726 76.5445 64.3281 77.0648 64.8173 77.4366C65.3066 77.8083 65.9031 78.0114 66.5175 78.0155C66.7827 78.0159 67.0465 77.9784 67.301 77.9042C68.0208 77.6962 68.6286 77.2112 68.9912 76.5556C69.3537 75.9 69.4415 75.1274 69.2351 74.4072L68.1382 70.601C67.9696 70.0101 67.6141 69.4898 67.1249 69.118C66.6357 68.7463 66.0391 68.5431 65.4247 68.5391Z" fill="#4ACFFF"/>
<path d="M44.3024 65.1863C43.8686 65.1855 43.4468 65.044 43.1002 64.783C42.7537 64.522 42.5012 64.1556 42.3807 63.7389L41.2838 59.9326C41.1385 59.423 41.201 58.8766 41.4576 58.4129C41.7142 57.9492 42.1439 57.606 42.6529 57.4584C42.8342 57.4075 43.0214 57.3812 43.2096 57.38C43.6429 57.3828 44.0638 57.5251 44.41 57.7858C44.7561 58.0465 45.009 58.4117 45.1313 58.8275L46.2241 62.6337C46.3705 63.1434 46.3086 63.6903 46.0518 64.1543C45.7951 64.6183 45.3646 64.9613 44.855 65.108C44.6752 65.159 44.4893 65.1854 44.3024 65.1863Z" fill="#B8ECFF"/>
<path d="M43.2075 58.2007C43.4622 58.2023 43.7095 58.2864 43.9124 58.4402C44.1153 58.5941 44.263 58.8095 44.3333 59.0543L45.4303 62.8605C45.4728 63.0103 45.4851 63.167 45.4666 63.3215C45.448 63.4761 45.3989 63.6254 45.3222 63.7608C45.2455 63.8962 45.1426 64.0151 45.0196 64.1104C44.8965 64.2058 44.7558 64.2757 44.6055 64.3162C44.4994 64.3455 44.3898 64.3607 44.2797 64.3616C44.0247 64.3617 43.7766 64.279 43.5728 64.1257C43.369 63.9725 43.2205 63.7571 43.1498 63.5121L42.0529 59.7058C42.0104 59.5561 41.9981 59.3994 42.0166 59.2449C42.0352 59.0903 42.0842 58.941 42.1609 58.8056C42.2377 58.6701 42.3405 58.5513 42.4636 58.456C42.5866 58.3606 42.7274 58.2907 42.8776 58.2501C42.9846 58.2176 43.0957 58.2009 43.2075 58.2007ZM43.2075 56.5511C42.9424 56.5508 42.6786 56.5883 42.424 56.6625C42.0654 56.7654 41.7306 56.9381 41.439 57.1709C41.1474 57.4037 40.9048 57.6919 40.725 58.0188C40.5452 58.3458 40.4319 58.705 40.3916 59.076C40.3512 59.4469 40.3847 59.8221 40.49 60.1801L41.5869 63.9863C41.7554 64.5772 42.111 65.0975 42.6002 65.4693C43.0894 65.841 43.6859 66.0441 44.3003 66.0482C44.7383 66.0479 45.1701 65.946 45.5619 65.7504C45.9537 65.5549 46.2948 65.271 46.5582 64.9212C46.8217 64.5714 47.0003 64.1652 47.0801 63.7347C47.1598 63.3041 47.1386 62.8609 47.0179 62.4399L45.921 58.6337C45.7525 58.0428 45.3969 57.5225 44.9077 57.1507C44.4185 56.779 43.822 56.5758 43.2075 56.5718V56.5511Z" fill="#4ACFFF"/>
<path d="M48.1765 77.1742C47.743 77.1721 47.3218 77.0301 46.9755 76.7693C46.6293 76.5085 46.3765 76.1428 46.2548 75.7268L45.1579 71.9205C45.0137 71.4109 45.0767 70.865 45.3331 70.4016C45.5895 69.9382 46.0186 69.5948 46.527 69.4463C46.7082 69.3955 46.8954 69.3691 47.0837 69.3679C47.5171 69.37 47.9384 69.5121 48.2846 69.7729C48.6309 70.0337 48.8837 70.3993 49.0053 70.8154L50.0982 74.6216C50.2434 75.1313 50.181 75.6777 49.9244 76.1414C49.6678 76.6051 49.238 76.9483 48.7291 77.0959C48.5493 77.1469 48.3634 77.1733 48.1765 77.1742Z" fill="#B8ECFF"/>
<path d="M47.083 70.1886C47.3377 70.1902 47.5849 70.2743 47.7879 70.4282C47.9908 70.582 48.1385 70.7974 48.2088 71.0422L49.3057 74.8485C49.3491 74.9966 49.3627 75.1518 49.3457 75.3052C49.3287 75.4586 49.2814 75.6071 49.2066 75.7421C49.1318 75.8771 49.031 75.9959 48.91 76.0917C48.789 76.1874 48.6502 76.2583 48.5016 76.3C48.396 76.3325 48.2862 76.3492 48.1758 76.3495C47.9204 76.3487 47.6722 76.2651 47.4685 76.1112C47.2647 75.9572 47.1164 75.7413 47.0459 75.4959L45.949 71.6896C45.907 71.5399 45.8951 71.3833 45.9139 71.229C45.9327 71.0746 45.9819 70.9255 46.0585 70.7902C46.1352 70.6549 46.2378 70.5361 46.3606 70.4407C46.4833 70.3452 46.6237 70.2749 46.7737 70.2339C46.8798 70.2044 46.9894 70.1891 47.0995 70.1886M47.0995 68.5391C46.8344 68.5387 46.5705 68.5762 46.316 68.6504C45.5969 68.8594 44.9898 69.3445 44.6273 69.9998C44.2649 70.6551 44.1767 71.4272 44.3819 72.1474L45.4788 75.9536C45.6474 76.5445 46.0029 77.0648 46.4921 77.4366C46.9813 77.8083 47.5779 78.0114 48.1923 78.0155C48.6302 78.0152 49.0621 77.9133 49.4539 77.7177C49.8457 77.5222 50.1867 77.2383 50.4502 76.8885C50.7136 76.5387 50.8922 76.1325 50.972 75.702C51.0518 75.2714 51.0305 74.8282 50.9099 74.4072L49.8129 70.601C49.6444 70.0101 49.2889 69.4898 48.7997 69.118C48.3105 68.7463 47.7139 68.5431 47.0995 68.5391Z" fill="#4ACFFF"/>
<path d="M51.6227 89.327C51.1894 89.3242 50.7685 89.1819 50.4224 88.9212C50.0763 88.6605 49.8233 88.2952 49.7011 87.8795L48.6041 84.0733C48.4588 83.5636 48.5213 83.0172 48.7779 82.5535C49.0345 82.0898 49.4643 81.7466 49.9732 81.599C50.1541 81.5462 50.3416 81.5198 50.5299 81.5206C50.9636 81.5221 51.3851 81.6639 51.7315 81.9248C52.0779 82.1857 52.3305 82.5517 52.4516 82.9681L53.5486 86.7743C53.6222 87.0268 53.6448 87.2914 53.6151 87.5526C53.5853 87.8139 53.5038 88.0666 53.3753 88.296C53.1191 88.7607 52.689 89.1047 52.1795 89.2527C51.998 89.3022 51.8108 89.3271 51.6227 89.327Z" fill="#B8ECFF"/>
<path d="M50.53 82.3413C50.785 82.3412 51.0331 82.424 51.2369 82.5772C51.4407 82.7304 51.5892 82.9458 51.6599 83.1908L52.7568 86.9847C52.7993 87.1344 52.8116 87.2911 52.7931 87.4457C52.7745 87.6002 52.7255 87.7496 52.6488 87.885C52.572 88.0204 52.4692 88.1392 52.3461 88.2346C52.2231 88.3299 52.0823 88.3999 51.9321 88.4404C51.8265 88.4729 51.7167 88.4896 51.6063 88.4899C51.3514 88.4889 51.1038 88.4051 50.9008 88.2511C50.6977 88.0972 50.5502 87.8814 50.4805 87.6363L49.3836 83.83C49.3411 83.6803 49.3287 83.5236 49.3473 83.369C49.3658 83.2145 49.4149 83.0652 49.4916 82.9297C49.5683 82.7943 49.6712 82.6755 49.7942 82.5801C49.9173 82.4848 50.058 82.4148 50.2083 82.3743C50.3145 82.3451 50.424 82.3298 50.5341 82.329M50.5341 80.6794C50.0962 80.6797 49.6643 80.7817 49.2725 80.9772C48.8807 81.1728 48.5397 81.4567 48.2762 81.8065C48.0128 82.1563 47.8341 82.5624 47.7544 82.993C47.6746 83.4236 47.6959 83.8668 47.8165 84.2878L48.9134 88.094C49.082 88.6849 49.4375 89.2052 49.9267 89.5769C50.4159 89.9487 51.0125 90.1518 51.6269 90.1559C52.0648 90.1556 52.4967 90.0537 52.8885 89.8581C53.2803 89.6625 53.6213 89.3787 53.8848 89.0289C54.1482 88.6791 54.3268 88.2729 54.4066 87.8423C54.4864 87.4118 54.4651 86.9685 54.3445 86.5476L53.2475 82.7413C53.079 82.1505 52.7235 81.6302 52.2343 81.2584C51.745 80.8867 51.1485 80.6835 50.5341 80.6794Z" fill="#4ACFFF"/>
<path d="M55.4998 101.311C55.0661 101.309 54.6446 101.168 54.2982 100.907C53.9518 100.646 53.6992 100.28 53.5781 99.8633L52.4853 96.057C52.4122 95.805 52.3895 95.5409 52.4185 95.28C52.4475 95.0192 52.5278 94.7666 52.6545 94.5368C52.7813 94.3069 52.9522 94.1044 53.1574 93.9407C53.3626 93.777 53.598 93.6553 53.8503 93.5828C54.0311 93.53 54.2186 93.5036 54.407 93.5044C54.8406 93.5059 55.2622 93.6476 55.6086 93.9085C55.9549 94.1694 56.2076 94.5355 56.3287 94.9519L57.4256 98.7581C57.572 99.2678 57.5101 99.8147 57.2533 100.279C56.9966 100.743 56.5661 101.086 56.0565 101.232C55.8757 101.285 55.6882 101.312 55.4998 101.311Z" fill="#B8ECFF"/>
<path d="M54.4089 94.3292C54.6639 94.3291 54.912 94.4118 55.1158 94.5651C55.3196 94.7183 55.4681 94.9337 55.5388 95.1787L56.6357 98.9849C56.6782 99.1347 56.6906 99.2914 56.672 99.4459C56.6535 99.6005 56.6044 99.7498 56.5277 99.8852C56.4509 100.021 56.3481 100.139 56.225 100.235C56.102 100.33 55.9612 100.4 55.811 100.441C55.7053 100.472 55.5954 100.487 55.4852 100.486C55.2309 100.485 54.9837 100.402 54.7807 100.249C54.5777 100.096 54.4299 99.8808 54.3594 99.6365L53.2625 95.8303C53.22 95.6805 53.2076 95.5238 53.2262 95.3693C53.2447 95.2147 53.2938 95.0654 53.3705 94.93C53.4472 94.7946 53.5501 94.6757 53.6731 94.5804C53.7962 94.485 53.9369 94.4151 54.0872 94.3746C54.1934 94.3453 54.3029 94.3301 54.413 94.3292M54.413 92.6797C53.9751 92.68 53.5432 92.7819 53.1514 92.9775C52.7596 93.1731 52.4186 93.4569 52.1551 93.8067C51.8917 94.1565 51.713 94.5627 51.6333 94.9933C51.5535 95.4238 51.5748 95.867 51.6954 96.288L52.7923 100.094C52.9603 100.685 53.3156 101.206 53.805 101.578C54.2943 101.95 54.8912 102.153 55.5058 102.156C55.7706 102.156 56.0342 102.12 56.2893 102.049C57.0084 101.84 57.6155 101.355 57.9779 100.7C58.3404 100.044 58.4286 99.2721 58.2234 98.552L57.1264 94.7457C56.9579 94.1548 56.6024 93.6345 56.1132 93.2628C55.624 92.891 55.0274 92.6879 54.413 92.6838V92.6797Z" fill="#4ACFFF"/>
<path d="M70.4274 89.327C69.9941 89.3242 69.5732 89.1819 69.2271 88.9212C68.881 88.6605 68.628 88.2952 68.5057 87.8795L67.4088 84.0733C67.2635 83.5636 67.326 83.0172 67.5826 82.5535C67.8392 82.0898 68.2689 81.7466 68.7779 81.599C68.9587 81.5462 69.1462 81.5198 69.3346 81.5206C69.7683 81.5221 70.1898 81.6639 70.5362 81.9248C70.8826 82.1857 71.1352 82.5517 71.2563 82.9681L72.3532 86.7743C72.4974 87.284 72.4344 87.8299 72.178 88.2933C71.9216 88.7567 71.4925 89.1 70.9841 89.2486C70.8029 89.2994 70.6157 89.3258 70.4274 89.327Z" fill="#B8ECFF"/>
<path d="M69.336 82.3413C69.591 82.3411 69.8391 82.4239 70.0429 82.5772C70.2467 82.7304 70.3952 82.9458 70.4659 83.1908L71.5587 86.997C71.6018 87.1468 71.6145 87.3036 71.5962 87.4583C71.5779 87.6131 71.529 87.7626 71.4522 87.8982C71.3753 88.0337 71.2723 88.1526 71.1489 88.2478C71.0256 88.3431 70.8845 88.4127 70.7339 88.4527C70.6284 88.4852 70.5186 88.5019 70.4081 88.5022C70.1528 88.5014 69.9046 88.4178 69.7008 88.2639C69.4971 88.1099 69.3488 87.894 69.2782 87.6486L68.1854 83.8423C68.1425 83.694 68.1293 83.5386 68.1466 83.3851C68.1638 83.2316 68.2111 83.083 68.2858 82.9478C68.3604 82.8126 68.461 82.6935 68.5818 82.5972C68.7026 82.5009 68.8411 82.4293 68.9896 82.3866C69.0957 82.3574 69.2052 82.3422 69.3153 82.3413M69.3153 80.6918C68.8774 80.6921 68.4456 80.794 68.0538 80.9896C67.662 81.1851 67.3209 81.469 67.0575 81.8188C66.794 82.1686 66.6154 82.5748 66.5356 83.0053C66.4558 83.4359 66.4771 83.8791 66.5978 84.3001L67.6947 88.1063C67.8632 88.6972 68.2187 89.2175 68.708 89.5893C69.1972 89.961 69.7937 90.1641 70.4081 90.1682C70.846 90.1679 71.2779 90.066 71.6697 89.8704C72.0615 89.6749 72.4026 89.391 72.666 89.0412C72.9294 88.6914 73.1081 88.2852 73.1879 87.8547C73.2676 87.4241 73.2464 86.9809 73.1257 86.5599L72.0288 82.7537C71.8603 82.1628 71.5047 81.6425 71.0155 81.2707C70.5263 80.899 69.9298 80.6959 69.3153 80.6918Z" fill="#4ACFFF"/>
<path d="M74.3073 101.311C73.8744 101.309 73.4535 101.167 73.1073 100.907C72.7612 100.647 72.5081 100.283 72.3856 99.8674L71.2887 96.057C71.1423 95.5474 71.2042 95.0004 71.461 94.5365C71.7177 94.0725 72.1482 93.7294 72.6578 93.5828C72.8386 93.53 73.0261 93.5036 73.2145 93.5044C73.6482 93.5059 74.0697 93.6476 74.4161 93.9085C74.7625 94.1694 75.0151 94.5355 75.1362 94.9519L76.2331 98.7581C76.3795 99.2678 76.3176 99.8147 76.0608 100.279C75.8041 100.743 75.3736 101.086 74.864 101.232C74.6832 101.285 74.4957 101.312 74.3073 101.311Z" fill="#B8ECFF"/>
<path d="M73.2107 94.3292C73.4657 94.3291 73.7139 94.4118 73.9177 94.5651C74.1215 94.7183 74.27 94.9337 74.3407 95.1787L75.4376 98.9849C75.4801 99.1347 75.4924 99.2914 75.4739 99.4459C75.4553 99.6005 75.4063 99.7498 75.3295 99.8852C75.2528 100.021 75.1499 100.139 75.0269 100.235C74.9039 100.33 74.7631 100.4 74.6128 100.441C74.5071 100.472 74.3973 100.487 74.2871 100.486C74.0324 100.485 73.7849 100.402 73.5813 100.248C73.3778 100.095 73.229 99.8808 73.1571 99.6365L72.0643 95.8303C72.0215 95.6819 72.0083 95.5265 72.0255 95.373C72.0427 95.2195 72.09 95.0709 72.1647 94.9357C72.2394 94.8005 72.34 94.6814 72.4607 94.5851C72.5815 94.4888 72.72 94.4173 72.8685 94.3746C72.9746 94.3453 73.0841 94.3301 73.1942 94.3292M73.1942 92.6797C72.7563 92.68 72.3245 92.7819 71.9327 92.9775C71.5409 93.1731 71.1998 93.4569 70.9364 93.8067C70.6729 94.1565 70.4943 94.5627 70.4145 94.9933C70.3348 95.4238 70.356 95.867 70.4767 96.288L71.5736 100.094C71.7415 100.685 72.0969 101.206 72.5863 101.578C73.0756 101.95 73.6725 102.153 74.2871 102.156C74.5518 102.156 74.8154 102.119 75.0706 102.049C75.7897 101.84 76.3968 101.355 76.7592 100.7C77.1216 100.044 77.2099 99.2721 77.0046 98.552L75.9077 94.7457C75.7392 94.1548 75.3836 93.6345 74.8944 93.2628C74.4052 92.891 73.8087 92.6879 73.1942 92.6838V92.6797Z" fill="#4ACFFF"/>
</svg>
