<svg width="155" height="155" viewBox="0 0 155 155" fill="none" xmlns="http://www.w3.org/2000/svg">
<path d="M61.5987 121.01C53.8088 127.629 32.926 130.247 32.9219 123.15C32.9219 115.727 46.6376 123.13 55.6027 114.643L61.5987 121.01ZM88.3661 121.01C96.156 127.629 117.039 130.247 117.043 123.15C117.043 115.727 103.327 123.13 94.3621 114.643L88.3661 121.01Z" fill="#E0E0E0" stroke="#45413C" stroke-width="2.42" stroke-linecap="round" stroke-linejoin="round"/>
<path d="M100.841 116.89C105.867 116.884 110.806 115.585 115.184 113.117C119.561 110.648 123.23 107.095 125.837 102.799C128.444 98.502 129.901 93.6067 130.067 88.584C130.234 83.5612 129.106 78.5801 126.79 74.1199C124.474 69.6597 121.049 65.8707 116.845 63.1175C112.641 60.3643 107.799 58.7396 102.785 58.3998C97.7706 58.06 92.7535 59.0164 88.2162 61.1772C83.6789 63.3379 79.7741 66.6302 76.8777 70.7371C73.9813 66.6302 70.0766 63.3379 65.5393 61.1772C61.002 59.0164 55.9849 58.06 50.9709 58.3998C45.9569 58.7396 41.1147 60.3643 36.9105 63.1175C32.7062 65.8707 29.2814 69.6597 26.9656 74.1199C24.6499 78.5801 23.5211 83.5612 23.688 88.584C23.8549 93.6067 25.3119 98.502 27.9186 102.799C30.5253 107.095 34.1941 110.648 38.5719 113.117C42.9496 115.585 47.8889 116.884 52.9144 116.89C53.7722 116.89 54.6176 116.853 55.4588 116.783C55.731 117.196 56.0196 117.658 56.3124 118.136C49.3391 119.047 42.4689 117.233 42.1844 122.354C41.8957 127.604 51.599 128.297 60.2094 126.132C61.0631 128.422 61.4827 130.851 61.4465 133.295H88.5109C88.4728 130.851 88.8924 128.421 89.7481 126.132C98.3585 128.297 108.062 127.604 107.773 122.354C107.489 117.233 100.614 119.055 93.6451 118.136C94.0574 117.46 94.4698 116.837 94.8327 116.276C96.8091 116.687 98.8225 116.893 100.841 116.89ZM74.9808 112.024C74.072 111.202 73.1075 110.442 72.0942 109.752C73.9035 108.186 75.5154 106.405 76.8942 104.449C77.8911 105.865 79.0117 107.19 80.2428 108.408C78.3291 109.363 76.558 110.58 74.9808 112.024Z" fill="white" stroke="#45413C" stroke-width="2.42" stroke-linecap="round" stroke-linejoin="round"/>
<path d="M80.4251 118.016C78.8045 115.851 76.9818 113.845 74.9818 112.024M69.9219 117.501C71.4423 115.523 73.1356 113.685 74.9818 112.008" stroke="#45413C" stroke-width="2.42" stroke-linecap="round" stroke-linejoin="round"/>
<path d="M115.541 103.682C115.747 101.265 114.279 99.1457 112.263 98.9931C110.246 98.8406 108.448 100.643 108.242 103.063L115.541 103.682Z" fill="#FFA694" stroke="#45413C" stroke-width="2.42" stroke-linecap="round" stroke-linejoin="round"/>
<path d="M117.265 99.3973C117.243 99.6686 117.328 99.9377 117.504 100.146C117.679 100.354 117.93 100.484 118.201 100.507L125.336 101.109L126.441 88.1106L119.323 87.5085C119.189 87.4966 119.053 87.5115 118.925 87.5522C118.796 87.5929 118.677 87.6586 118.574 87.7456C118.47 87.8326 118.386 87.9392 118.324 88.0591C118.262 88.1791 118.225 88.3101 118.214 88.4446L117.265 99.3973Z" fill="#80DDFF" stroke="#45413C" stroke-width="2.42" stroke-linecap="round" stroke-linejoin="round"/>
<path d="M120.681 99.6873L121.611 88.7327C121.611 88.7327 121.697 87.7096 122.72 87.7964L139.009 89.1784C139.009 89.1784 140.032 89.2652 139.945 90.2884L139.015 101.243C139.015 101.243 138.929 102.266 137.905 102.179L121.617 100.797C121.617 100.797 120.594 100.71 120.681 99.6873Z" fill="#B8ECFF"/>
<path d="M130.574 88.4651L139.007 101.282C138.975 101.545 138.842 101.786 138.636 101.953C138.43 102.12 138.167 102.2 137.902 102.177L132.129 101.69L123.02 87.8094L130.574 88.4651Z" fill="#E5F8FF"/>
<path d="M120.681 99.6873L121.611 88.7327C121.611 88.7327 121.697 87.7096 122.72 87.7964L139.009 89.1784C139.009 89.1784 140.032 89.2652 139.945 90.2884L139.015 101.243C139.015 101.243 138.929 102.266 137.905 102.179L121.617 100.797C121.617 100.797 120.594 100.71 120.681 99.6873Z" stroke="#45413C" stroke-width="2.42" stroke-linecap="round" stroke-linejoin="round"/>
<path d="M84.0974 96.5808C84.0745 96.852 84.1603 97.1212 84.3358 97.3292C84.5114 97.5372 84.7623 97.667 85.0335 97.6901L92.1511 98.2963L93.2563 85.294L86.1387 84.692C86.0043 84.6801 85.8688 84.6949 85.7402 84.7356C85.6116 84.7763 85.4923 84.8421 85.3891 84.9291C85.286 85.0161 85.2012 85.1227 85.1394 85.2426C85.0777 85.3626 85.0403 85.4936 85.0294 85.628L84.0974 96.5808Z" fill="#80DDFF" stroke="#45413C" stroke-width="2.42" stroke-linecap="round" stroke-linejoin="round"/>
<path d="M87.4896 96.8728L88.4191 85.9181C88.4191 85.9181 88.5059 84.895 89.5291 84.9818L105.817 86.3639C105.817 86.3639 106.84 86.4507 106.754 87.4738L105.824 98.4285C105.824 98.4285 105.737 99.4516 104.714 99.3648L88.4259 97.9827C88.4259 97.9827 87.4028 97.8959 87.4896 96.8728Z" fill="#B8ECFF"/>
<path d="M97.3868 85.6487L105.82 98.4654C105.787 98.7273 105.654 98.9662 105.449 99.1322C105.243 99.2982 104.982 99.3784 104.719 99.3561L98.9456 98.8695L89.832 85.0054L97.3868 85.6487Z" fill="#E5F8FF"/>
<path d="M87.4896 96.8728L88.4191 85.9181C88.4191 85.9181 88.5059 84.895 89.5291 84.9818L105.817 86.3639C105.817 86.3639 106.84 86.4507 106.754 87.4738L105.824 98.4285C105.824 98.4285 105.737 99.4516 104.714 99.3648L88.4259 97.9827C88.4259 97.9827 87.4028 97.8959 87.4896 96.8728Z" stroke="#45413C" stroke-width="2.42" stroke-linecap="round" stroke-linejoin="round"/>
<path d="M38.7367 103.892C38.3821 101.492 39.7182 99.3066 41.7223 99.0097C43.7265 98.7128 45.6317 100.424 45.9822 102.824L38.7367 103.892Z" fill="#FFA694" stroke="#45413C" stroke-width="2.42" stroke-linecap="round" stroke-linejoin="round"/>
<path d="M36.7604 99.719C36.7802 99.8525 36.7736 99.9886 36.7408 100.12C36.708 100.25 36.6497 100.374 36.5693 100.482C36.4889 100.59 36.3879 100.682 36.2721 100.751C36.1562 100.821 36.0279 100.866 35.8944 100.886L28.8386 101.925L26.9375 89.0178L34.0057 87.9786C34.1392 87.9587 34.2753 87.9654 34.4062 87.9982C34.5371 88.0309 34.6603 88.0892 34.7687 88.1696C34.8771 88.2501 34.9686 88.3511 35.0379 88.4669C35.1072 88.5827 35.153 88.7111 35.1727 88.8446L36.7604 99.719Z" fill="#80DDFF" stroke="#45413C" stroke-width="2.42" stroke-linecap="round" stroke-linejoin="round"/>
<path d="M14.4327 90.8588L30.6053 88.4793C30.6053 88.4793 31.6212 88.3298 31.7707 89.3457L33.371 100.223C33.371 100.223 33.5205 101.238 32.5046 101.388L16.332 103.767C16.332 103.767 15.3161 103.917 15.1667 102.901L13.5663 92.0241C13.5663 92.0241 13.4169 91.0083 14.4327 90.8588Z" fill="#B8ECFF"/>
<path d="M22.8087 89.624L15.1797 102.936C15.229 103.196 15.3772 103.427 15.5932 103.581C15.8091 103.735 16.0762 103.799 16.3385 103.76L22.0582 102.936L30.3057 88.5353L22.8087 89.624Z" fill="#E5F8FF"/>
<path d="M14.4327 90.8588L30.6053 88.4793C30.6053 88.4793 31.6212 88.3298 31.7707 89.3457L33.371 100.223C33.371 100.223 33.5205 101.238 32.5046 101.388L16.332 103.767C16.332 103.767 15.3161 103.917 15.1667 102.901L13.5663 92.0241C13.5663 92.0241 13.4169 91.0083 14.4327 90.8588Z" stroke="#45413C" stroke-width="2.42" stroke-linecap="round" stroke-linejoin="round"/>
<path d="M69.7146 94.8735C69.7373 95.0089 69.7326 95.1476 69.7007 95.2811C69.6687 95.4147 69.6102 95.5404 69.5287 95.6509C69.4471 95.7613 69.3441 95.8542 69.2258 95.924C69.1076 95.9938 68.9764 96.039 68.8403 96.0571L61.7722 97.0963L59.8711 84.1888L66.9393 83.1496C67.0728 83.1297 67.2089 83.1364 67.3398 83.1692C67.4707 83.202 67.5939 83.2602 67.7023 83.3407C67.8107 83.4211 67.9022 83.5221 67.9715 83.6379C68.0408 83.7537 68.0866 83.8821 68.1063 84.0156L69.7146 94.8735Z" fill="#80DDFF" stroke="#45413C" stroke-width="2.42" stroke-linecap="round" stroke-linejoin="round"/>
<path d="M47.3859 86.0105L63.5584 83.631C63.5584 83.631 64.5743 83.4815 64.7238 84.4974L66.3241 95.3743C66.3241 95.3743 66.4736 96.3902 65.4577 96.5397L49.2851 98.9192C49.2851 98.9192 48.2693 99.0687 48.1198 98.0528L46.5194 87.1759C46.5194 87.1759 46.37 86.16 47.3859 86.0105Z" fill="#B8ECFF"/>
<path d="M55.7618 84.7744L48.1328 98.0901C48.1821 98.3505 48.3303 98.5818 48.5463 98.7356C48.7623 98.8893 49.0293 98.9535 49.2916 98.9148L55.0113 98.0901L63.2589 83.6898L55.7618 84.7744Z" fill="#E5F8FF"/>
<path d="M47.3859 86.0105L63.5584 83.631C63.5584 83.631 64.5743 83.4815 64.7238 84.4974L66.3241 95.3743C66.3241 95.3743 66.4736 96.3902 65.4577 96.5397L49.2851 98.9192C49.2851 98.9192 48.2693 99.0687 48.1198 98.0528L46.5194 87.1759C46.5194 87.1759 46.37 86.16 47.3859 86.0105Z" stroke="#45413C" stroke-width="2.42" stroke-linecap="round" stroke-linejoin="round"/>
<path d="M70.8628 121.01C63.6709 127.864 41.753 130.206 42.186 122.354C42.5984 115.018 56.5079 121.913 64.8668 114.643M79.1062 121.01C86.2981 127.864 108.216 130.206 107.783 122.354C107.371 115.018 93.4611 121.913 85.1022 114.643M87.4528 133.295C88.5208 133.369 87.7043 130.326 85.6424 126.284M62.541 133.291C61.5513 133.398 62.0998 130.961 63.7122 127.542" stroke="#45413C" stroke-width="2.42" stroke-linecap="round" stroke-linejoin="round"/>
<path d="M58.5332 116.354C57.5168 116.544 56.4914 116.682 55.4609 116.767M89.4285 114.585C91.1744 115.323 92.9878 115.889 94.8431 116.276M76.8799 70.7371C72.5659 76.8734 70.769 84.4303 71.8591 91.8517C72.9492 99.273 76.8434 105.994 82.7398 110.631" stroke="#45413C" stroke-width="2.42" stroke-linecap="round" stroke-linejoin="round"/>
<path d="M76.8797 104.449C74.7752 107.435 72.1336 110.004 69.0898 112.024" stroke="#45413C" stroke-width="2.42" stroke-linecap="round" stroke-linejoin="round"/>
<path d="M51.5839 77.3681C68.512 80.1905 85.7906 80.1905 102.719 77.3681M49.9261 104.96C68.2936 108.305 87.1142 108.305 105.482 104.96M64.4542 74.4814C72.8435 76.0203 81.4427 76.0203 89.832 74.4814M118.546 60.7286C120.835 61.6086 122.701 63.3302 123.762 65.5411M117.14 57.3595C119.575 57.6107 121.823 58.7818 123.424 60.6338M26.235 69.504C24.3235 71.0349 23.0671 73.2365 22.7215 75.6608M26.5566 65.8669C24.3107 66.8483 22.5234 68.6489 21.5586 70.902" stroke="#8CA4B8" stroke-width="2.42" stroke-linecap="round" stroke-linejoin="round"/>
<path d="M51.7413 67.2524C51.7413 67.2524 51.2464 71.9371 53.2588 71.9948C54.9083 72.0443 54.8135 69.6236 54.8135 69.6236M59.8858 72.7866C59.8858 72.7866 59.8404 74.535 58.7682 74.535C57.0486 74.535 57.7249 71.1288 57.7249 71.1288M112.307 69.5123C112.307 69.5123 111.812 74.1969 113.825 74.2546C115.495 74.3041 115.375 71.8835 115.375 71.8835M120.452 75.0258C120.452 75.0258 120.402 76.7784 119.334 76.7784C117.615 76.7784 118.291 73.368 118.291 73.368" stroke="#45413C" stroke-width="2.42" stroke-linecap="round" stroke-linejoin="round"/>
<path d="M12.5508 127.468H42.5884V133.295H14.3611C13.8813 133.294 13.4215 133.103 13.0822 132.763C12.743 132.424 12.5519 131.964 12.5508 131.484V127.468Z" fill="#E0E0E0" stroke="#45413C" stroke-width="2.42" stroke-linecap="round" stroke-linejoin="round"/>
<path d="M39.4783 127.468H53.0621C53.0621 127.468 54.8724 127.468 54.8724 129.278V131.484C54.8724 131.484 54.8724 133.295 53.0621 133.295H39.4783C39.4783 133.295 37.668 133.295 37.668 131.484V129.278C37.668 129.278 37.668 127.468 39.4783 127.468Z" fill="#87898C" stroke="#45413C" stroke-width="2.42" stroke-linecap="round" stroke-linejoin="round"/>
<path d="M25.7812 106.214H32.6432C33.0455 106.214 33.4361 106.349 33.7535 106.596C34.0709 106.843 34.2969 107.189 34.3958 107.579L38.9031 125.208C38.9716 125.475 38.9781 125.755 38.9221 126.025C38.8661 126.295 38.7491 126.549 38.58 126.767C38.4109 126.985 38.1942 127.162 37.9465 127.283C37.6987 127.405 37.4265 127.468 37.1505 127.468H31.2164L25.7812 106.214Z" fill="#87898C" stroke="#45413C" stroke-width="2.42" stroke-linecap="round" stroke-linejoin="round"/>
<path d="M4.97857 108.474C4.91005 108.207 4.90355 107.927 4.95955 107.657C5.01555 107.387 5.13257 107.133 5.30167 106.915C5.47078 106.697 5.68749 106.52 5.93524 106.399C6.183 106.277 6.45524 106.214 6.73117 106.214H28.5625C28.9653 106.214 29.3565 106.349 29.6746 106.596C29.9926 106.843 30.2194 107.189 30.3192 107.579L34.8265 125.208C34.8943 125.476 34.9001 125.755 34.8435 126.025C34.7869 126.296 34.6695 126.549 34.5001 126.767C34.3307 126.985 34.1138 127.161 33.8659 127.283C33.6181 127.404 33.3458 127.468 33.0698 127.468H11.2385C10.8369 127.467 10.4471 127.333 10.1299 127.087C9.81275 126.84 9.58624 126.496 9.48586 126.107L4.97857 108.474Z" fill="#E0E0E0" stroke="#45413C" stroke-width="2.42" stroke-linecap="round" stroke-linejoin="round"/>
<path d="M16.9062 116.841C16.9062 117.524 17.1778 118.18 17.6611 118.663C18.1445 119.147 18.8001 119.418 19.4836 119.418C20.1672 119.418 20.8227 119.147 21.3061 118.663C21.7894 118.18 22.061 117.524 22.061 116.841C22.061 116.157 21.7894 115.502 21.3061 115.018C20.8227 114.535 20.1672 114.264 19.4836 114.264C18.8001 114.264 18.1445 114.535 17.6611 115.018C17.1778 115.502 16.9062 116.157 16.9062 116.841Z" fill="white" stroke="#45413C" stroke-width="2.42" stroke-linecap="round" stroke-linejoin="round"/>
<path d="M139.202 127.468H109.164V133.295H137.391C137.871 133.294 138.331 133.103 138.67 132.763C139.01 132.424 139.201 131.964 139.202 131.484V127.468Z" fill="#E0E0E0" stroke="#45413C" stroke-width="2.42" stroke-linecap="round" stroke-linejoin="round"/>
<path d="M98.6892 127.468H112.273C112.273 127.468 114.083 127.468 114.083 129.278V131.484C114.083 131.484 114.083 133.295 112.273 133.295H98.6892C98.6892 133.295 96.8789 133.295 96.8789 131.484V129.278C96.8789 129.278 96.8789 127.468 98.6892 127.468Z" fill="#87898C" stroke="#45413C" stroke-width="2.42" stroke-linecap="round" stroke-linejoin="round"/>
<path d="M125.97 106.214H119.113C118.71 106.214 118.318 106.349 118 106.596C117.682 106.843 117.456 107.189 117.356 107.579L112.848 125.208C112.781 125.476 112.775 125.755 112.831 126.025C112.888 126.296 113.006 126.549 113.175 126.767C113.344 126.985 113.561 127.161 113.809 127.283C114.057 127.404 114.329 127.468 114.605 127.468H120.539L125.97 106.214Z" fill="#87898C" stroke="#45413C" stroke-width="2.42" stroke-linecap="round" stroke-linejoin="round"/>
<path d="M146.779 108.474C146.847 108.206 146.852 107.927 146.796 107.657C146.739 107.386 146.622 107.133 146.452 106.915C146.283 106.697 146.066 106.521 145.818 106.399C145.57 106.278 145.298 106.214 145.022 106.214H123.187C122.784 106.214 122.393 106.349 122.075 106.596C121.757 106.843 121.53 107.189 121.43 107.579L116.923 125.208C116.855 125.476 116.849 125.755 116.906 126.025C116.962 126.296 117.08 126.549 117.249 126.767C117.419 126.985 117.635 127.161 117.883 127.283C118.131 127.404 118.403 127.468 118.679 127.468H140.511C140.913 127.468 141.303 127.335 141.621 127.088C141.938 126.842 142.164 126.497 142.263 126.107L146.779 108.474Z" fill="#E0E0E0" stroke="#45413C" stroke-width="2.42" stroke-linecap="round" stroke-linejoin="round"/>
<path d="M129.691 116.841C129.691 117.179 129.758 117.515 129.888 117.827C130.017 118.14 130.207 118.424 130.446 118.663C130.686 118.903 130.97 119.093 131.282 119.222C131.595 119.352 131.93 119.418 132.269 119.418C132.607 119.418 132.942 119.352 133.255 119.222C133.568 119.093 133.852 118.903 134.091 118.663C134.331 118.424 134.52 118.14 134.65 117.827C134.779 117.515 134.846 117.179 134.846 116.841C134.846 116.502 134.779 116.167 134.65 115.855C134.52 115.542 134.331 115.258 134.091 115.018C133.852 114.779 133.568 114.589 133.255 114.46C132.942 114.33 132.607 114.264 132.269 114.264C131.93 114.264 131.595 114.33 131.282 114.46C130.97 114.589 130.686 114.779 130.446 115.018C130.207 115.258 130.017 115.542 129.888 115.855C129.758 116.167 129.691 116.502 129.691 116.841Z" fill="white" stroke="#45413C" stroke-width="2.42" stroke-linecap="round" stroke-linejoin="round"/>
<path d="M7.77734 133.295H145.145" stroke="#45413C" stroke-width="2.42" stroke-linecap="round" stroke-linejoin="round"/>
<path d="M150.08 66.2463C149.744 65.0725 149.021 64.0467 148.029 63.335C147.037 62.6233 145.834 62.2675 144.614 62.3253C143.395 62.383 142.231 62.851 141.31 63.6532C140.39 64.4554 139.767 65.545 139.544 66.7452C138.731 66.5993 137.896 66.643 137.102 66.8731C136.209 67.1296 135.396 67.6115 134.742 68.2727C134.089 68.9338 133.616 69.7519 133.37 70.6484C133.123 71.5448 133.112 72.4896 133.336 73.392C133.56 74.2943 134.012 75.1239 134.649 75.8011C134.202 76.8575 134.165 78.0422 134.544 79.1247C134.923 80.2072 135.691 81.1099 136.699 81.6573C137.707 82.2047 138.882 82.3575 139.996 82.0861C141.111 81.8147 142.084 81.1383 142.727 80.1888C143.646 80.3988 144.603 80.3656 145.505 80.0927C146.407 79.8198 147.222 79.3165 147.869 78.6324C148.517 77.9484 148.975 77.1072 149.199 76.192C149.422 75.2768 149.404 74.3191 149.144 73.4134C148.984 72.8554 148.736 72.3264 148.41 71.8464C149.194 71.1695 149.767 70.2826 150.063 69.2903C150.359 68.298 150.365 67.2418 150.08 66.2463Z" fill="#F0F0F0" stroke="#45413C" stroke-width="2.42" stroke-linecap="round" stroke-linejoin="round"/>
<path d="M135.492 57.8791C135.492 58.3942 135.697 58.8882 136.061 59.2525C136.425 59.6167 136.919 59.8214 137.434 59.8214C137.95 59.8214 138.444 59.6167 138.808 59.2525C139.172 58.8882 139.377 58.3942 139.377 57.8791C139.377 57.3639 139.172 56.8699 138.808 56.5057C138.444 56.1414 137.95 55.9368 137.434 55.9368C136.919 55.9368 136.425 56.1414 136.061 56.5057C135.697 56.8699 135.492 57.3639 135.492 57.8791Z" fill="#F0F0F0" stroke="#45413C" stroke-width="2.42" stroke-linecap="round" stroke-linejoin="round"/>
<path d="M5.49119 15.1979C47.6156 14.6536 107.134 14.5051 149.255 15.6433C149.23 16.5381 149.597 31.4539 148.978 48.2212L148.949 48.9387L148.277 48.8934L41.7228 49.2315C40.898 55.3223 41.9248 59.4214 43.0094 63.5823C39.8382 61.4173 34.5432 59.1121 28.3534 49.5037C28.3534 49.5037 6.39842 49.7965 5.4582 49.8377C4.85613 36.2869 4.452 31.6477 5.49119 15.1979Z" fill="white" stroke="#45413C" stroke-width="2.42" stroke-linejoin="round"/>
<path d="M15.4492 24.3238C16.711 24.3238 17.7049 24.4599 17.8409 26.229C17.8409 26.4063 17.8616 26.5837 17.8616 26.761C17.8409 27.5569 17.6389 31.2765 17.6389 33.4003C17.6173 33.8677 17.6547 34.336 17.7502 34.7941C19.1688 35.0828 20.4307 34.7941 21.7585 35.2065C22.4678 35.4498 22.7771 35.8952 22.7771 36.757C22.7771 39.5901 21.2266 39.6437 18.9461 39.6437H18.0842C15.4698 39.5777 13.7213 38.8684 13.3666 36.4106C13.1742 34.9948 13.0791 33.5673 13.0821 32.1384C13.103 29.9619 13.2573 27.7887 13.544 25.6311C13.7666 24.5012 14.9625 24.3238 15.4492 24.3238ZM28.8886 30.3693C30.3236 30.3899 31.6103 30.3899 31.6103 31.4745C31.6103 33.6024 29.4164 33.5364 27.7793 33.7343V34.023C27.7793 34.6869 28.0019 35.4581 28.9298 35.6148C29.3269 35.6593 29.7261 35.6814 30.1257 35.6807C31.0123 35.6807 31.8082 35.4828 32.6288 35.4828C32.8109 35.4849 32.9908 35.5234 33.1578 35.596C33.3248 35.6687 33.4755 35.774 33.6012 35.9058C33.7269 36.0376 33.8249 36.1932 33.8895 36.3635C33.9541 36.5338 33.9839 36.7153 33.9773 36.8973C33.9773 39.2025 31.1443 39.6643 29.2844 39.6643C26.9834 39.6643 25.3215 39.0911 24.571 38.1179C23.6843 36.9632 23.3544 34.5756 23.3544 32.3446C23.3544 29.5322 24.039 26.3445 25.6761 25.2599C26.5009 24.7074 28.2453 24.2207 30.1051 24.2207C31.7876 24.2207 33.6886 24.662 33.6886 26.4558C33.6955 26.641 33.6816 26.8263 33.6474 27.0084C33.0701 28.8476 28.3112 27.2311 27.8741 29.0002C27.824 29.2402 27.8005 29.485 27.804 29.7301C27.8026 29.9386 27.8178 30.1468 27.8494 30.3528L28.8886 30.3693ZM36.3485 24.4146H39.1485C41.297 24.4146 43.0703 24.4599 43.6435 24.4599C45.4579 24.4599 46.9425 24.9465 46.9425 27.0249C46.9425 28.8394 44.5053 28.8847 42.7568 29.194V29.5033C42.7568 30.7652 42.8228 32.5137 42.8888 34.1549C42.9342 35.2395 42.9795 36.3694 42.9795 37.4292C42.9795 37.7839 42.9548 38.1591 42.9548 38.5138C42.6758 38.9074 42.304 39.2262 41.8725 39.442C41.4409 39.6578 40.9628 39.7639 40.4805 39.7509C39.73 39.7509 38.831 39.4622 38.4434 38.8643C38.3411 37.8201 38.297 36.7711 38.3114 35.722C38.3114 34.8147 38.3362 33.9075 38.3774 33.0003C38.4228 31.6271 38.5094 30.2745 38.5547 29.3219C38.3114 29.3012 37.2475 29.2559 36.5835 29.1693C36.1413 29.147 35.7136 29.0044 35.3464 28.7569C35.0248 28.5961 34.6124 27.8909 34.6124 26.5383C34.6124 25.1857 35.3753 24.4146 36.3485 24.4146ZM61.2974 33.223C60.72 33.223 59.9035 37.0746 58.2417 37.0746H58.1551C56.4726 37.0746 55.7633 34.3735 55.1199 33.4663C54.8766 33.9776 54.8766 34.8395 54.8766 35.7715C54.9087 36.5417 54.8575 37.3132 54.7241 38.0725C54.6493 38.3813 54.4959 38.6654 54.2787 38.8973C54.033 39.1076 53.7478 39.2667 53.4397 39.3652C53.1316 39.4636 52.807 39.4994 52.4849 39.4705C51.4003 39.4705 50.8353 39.0293 50.8353 37.5241V37.3921C50.9673 33.8951 51.0127 29.5982 51.9199 26.5672C52.2745 25.33 52.9385 24.3981 54.0024 24.3981C54.5042 24.4076 54.9881 24.5863 55.3756 24.9053C56.7447 25.8785 57.4994 30.7941 58.3406 30.7941C59.2932 30.7941 59.7798 25.594 62.1716 24.9053C62.3374 24.8628 62.5077 24.8407 62.6788 24.8393C63.0237 24.8515 63.3606 24.9462 63.6613 25.1155C63.9619 25.2849 64.2176 25.5239 64.4067 25.8125C65.2315 27.0744 65.2315 28.493 65.4005 30.5054C65.5779 32.6745 65.6892 34.1591 65.6892 35.7962C65.6892 36.5509 65.6438 37.3261 65.5779 38.1426C65.377 38.5721 65.0529 38.932 64.6468 39.1765C64.2406 39.4211 63.7709 39.5392 63.2974 39.5159C62.1263 39.5159 61.6479 38.4973 61.4829 37.2148L61.2974 33.223ZM72.279 30.3693C73.7182 30.3899 75.0007 30.3899 75.0007 31.4745C75.0007 33.6024 72.8069 33.5364 71.1697 33.7343V34.023C71.1697 34.6869 71.3924 35.4581 72.3203 35.6148C72.7173 35.6592 73.1166 35.6813 73.5162 35.6807C74.4028 35.6807 75.1987 35.4828 76.0193 35.4828C76.2014 35.4849 76.3812 35.5234 76.5482 35.596C76.7152 35.6687 76.866 35.774 76.9916 35.9058C77.1173 36.0376 77.2153 36.1932 77.2799 36.3635C77.3445 36.5338 77.3744 36.7153 77.3678 36.8973C77.3678 39.2025 74.5347 39.6643 72.6749 39.6643C70.3738 39.6643 68.7119 39.0911 67.9614 38.1179C67.0748 36.9632 66.7243 34.5756 66.7243 32.3446C66.7243 29.5322 67.4088 26.3445 69.046 25.2599C69.8707 24.7074 71.6151 24.2207 73.4749 24.2207C75.1574 24.2207 77.0626 24.662 77.0626 26.4558C77.0701 26.6412 77.0548 26.8268 77.0172 27.0084C76.4399 28.8476 71.6811 27.2311 71.2439 29.0002C71.1954 29.2404 71.1733 29.4851 71.178 29.7301C71.1757 29.9384 71.1895 30.1466 71.2192 30.3528L72.279 30.3693ZM89.8711 28.5095L87.0875 28.427C86.6876 28.4111 86.2888 28.4785 85.9164 28.6249C85.504 28.8229 85.339 29.4208 85.339 29.9322C85.3276 30.3973 85.3427 30.8627 85.3844 31.326H87.1989C88.7247 31.326 89.6731 31.5446 89.6731 32.8724C89.6731 34.1096 89.2319 34.4024 87.8587 34.4477C87.0034 34.4412 86.15 34.5297 85.3143 34.7117C85.137 35.9075 85.4463 37.7014 85.005 38.8932C84.7617 39.5159 84.0277 39.6478 83.4751 39.6478C82.7246 39.6478 81.9946 39.5159 81.5946 38.8725C81.2941 38.3572 81.1508 37.7652 81.1823 37.1694V36.6127C81.1823 34.3735 81.2936 31.5858 81.2936 29.128C81.2936 26.0971 81.805 24.5012 85.6772 24.3238C86.9143 24.2579 87.2937 24.2579 87.669 24.2579C89.5948 24.2579 91.966 24.3898 91.966 26.7321C91.966 28.0641 91.2979 28.46 90.036 28.5054L89.8711 28.5095ZM97.6279 30.126V32.2951C97.6279 33.425 97.5372 34.7075 97.5372 35.7715C97.5372 36.1467 97.6692 36.2993 97.8465 36.39C98.6217 36.8024 98.8444 36.9426 98.8444 37.9158C98.8444 38.6251 98.6217 39.3097 97.8918 39.487C96.9816 39.6066 96.063 39.6521 95.1454 39.6231C93.1783 39.6231 92.4443 39.4664 92.4443 38.0066C92.4443 37.4952 92.4897 36.9426 92.935 36.6993C93.4629 36.4106 93.7598 36.1673 93.7598 35.9034C93.7598 34.3982 93.7845 32.8271 93.7845 31.0539C93.7845 30.5466 93.8299 29.9487 93.8299 29.4043C93.8482 28.9575 93.8024 28.5103 93.6938 28.0765C93.5866 27.7425 93.3639 27.6105 93.0093 27.4785C92.5969 27.3218 92.4113 26.8146 92.4113 26.1919C92.3986 25.8112 92.4749 25.4328 92.634 25.0867C93.0464 24.3774 94.3371 24.3115 95.3763 24.3115H95.8877C97.9496 24.3115 98.898 24.6208 98.964 25.8373V26.0806C99.0041 26.4294 98.9192 26.7812 98.7244 27.0734C98.5296 27.3656 98.2375 27.5793 97.9001 27.6765C97.8206 27.7119 97.7533 27.7699 97.7064 27.8431C97.6595 27.9164 97.6351 28.0018 97.6362 28.0889C97.6279 28.6868 97.6279 29.4827 97.6279 30.126ZM103.426 38.7818C102.945 39.2167 102.325 39.4667 101.677 39.487C101.388 39.4957 101.102 39.4264 100.849 39.2863C100.596 39.1463 100.385 38.9407 100.238 38.6911C100.099 38.4893 100.022 38.2515 100.016 38.0066V37.8746C100.016 37.0498 100.548 36.0807 100.948 35.4828C101.236 35.0374 103.228 32.1838 103.228 32.0271L102.696 31.2023C100.725 28.1672 100.172 27.1074 100.152 25.9569V25.7548C100.218 24.7816 100.976 24.3816 101.941 24.361H102.053C103.826 24.361 104.642 25.4455 105.22 26.4847C105.727 27.4373 106.704 29.3713 106.948 29.3713C107.191 29.3713 107.744 28.3775 107.876 28.2208C108.371 27.2528 108.957 26.3333 109.624 25.4744C109.86 25.1752 110.159 24.9313 110.5 24.7596C110.84 24.5879 111.214 24.4927 111.595 24.4805C112.482 24.4805 113.364 24.8929 113.364 25.9197V26.0063C113.317 26.7303 113.089 27.4307 112.7 28.0435C111.913 29.4779 111.002 30.8412 109.979 32.1178C110.111 32.4724 110.841 33.5776 111.109 34.0642C112.082 35.8581 112.857 36.856 112.857 37.6725C112.857 38.7818 111.95 39.322 110.997 39.322H110.82C110.307 39.343 109.797 39.2368 109.335 39.0128C108.296 38.4354 107.125 35.3797 106.37 35.4044C105.904 35.4581 104.911 37.4746 103.426 38.7818ZM122.597 30.126V32.2951C122.597 33.425 122.511 34.7075 122.511 35.7715C122.511 36.1467 122.643 36.2993 122.82 36.39C123.595 36.8024 123.814 36.9426 123.814 37.9158C123.814 38.6251 123.595 39.3097 122.865 39.487C121.955 39.6066 121.037 39.6521 120.119 39.6231C118.148 39.6231 117.418 39.4664 117.418 38.0066C117.418 37.4952 117.463 36.9426 117.905 36.6993C118.437 36.4106 118.729 36.1673 118.729 35.9034C118.729 34.3982 118.75 32.8271 118.75 31.0539C118.75 30.5466 118.795 29.9487 118.795 29.4043C118.815 28.9577 118.77 28.5106 118.663 28.0765C118.609 27.9271 118.518 27.7939 118.398 27.6893C118.278 27.5847 118.134 27.5122 117.979 27.4785C117.566 27.3218 117.381 26.8146 117.381 26.1919C117.368 25.8116 117.443 25.4334 117.599 25.0867C118.012 24.3774 119.307 24.3115 120.346 24.3115H120.853C122.915 24.3115 123.868 24.6208 123.934 25.8373V26.0806C123.974 26.4294 123.889 26.7812 123.694 27.0734C123.499 27.3656 123.207 27.5793 122.87 27.6765C122.79 27.7115 122.722 27.7693 122.675 27.8427C122.628 27.9161 122.604 28.0017 122.606 28.0889C122.597 28.6868 122.597 29.4827 122.597 30.126ZM126.342 24.4146H129.15C131.299 24.4146 133.068 24.4599 133.645 24.4599C135.46 24.4599 136.919 24.9465 136.919 27.0249C136.919 28.8394 134.486 28.8847 132.738 29.194V29.5033C132.738 30.7652 132.804 32.5137 132.87 34.1549C132.915 35.2395 132.96 36.3694 132.96 37.4292C132.96 37.7839 132.936 38.1591 132.936 38.5138C132.657 38.9074 132.285 39.2262 131.853 39.442C131.422 39.6578 130.944 39.7639 130.461 39.7509C129.707 39.7509 128.812 39.4622 128.424 38.8643C128.32 37.8203 128.276 36.7711 128.292 35.722C128.292 34.8147 128.314 33.9075 128.358 33.0003C128.404 31.6271 128.49 30.2745 128.536 29.3219C128.292 29.3012 127.228 29.2559 126.565 29.1693C126.122 29.147 125.695 29.0044 125.327 28.7569C125.014 28.6002 124.618 27.895 124.618 26.5424C124.618 25.1898 125.364 24.4146 126.342 24.4146ZM140.709 23.7053C141.4 23.7013 142.083 23.861 142.701 24.1713C143.075 24.3563 143.402 24.6233 143.659 24.9525C143.915 25.2816 144.094 25.6644 144.181 26.0723C144.34 26.6721 144.415 27.2911 144.404 27.9115C144.404 30.3858 143.542 33.4003 142.919 34.3982C142.507 35.0374 141.946 35.6354 141.237 35.6354C140.955 35.6513 140.675 35.5745 140.441 35.4168C139.27 34.6168 139.068 32.7817 139.068 30.4353C139.068 29.3961 139.113 28.2414 139.113 27.0249L139.068 26.0971C139.068 25.8744 139.047 25.4331 139.047 25.2311V25.0125C139.044 24.818 139.066 24.6239 139.113 24.4352C139.356 23.8908 140 23.7053 140.709 23.7053ZM141.534 36.4106C142.441 36.4106 143.282 36.9426 143.282 37.8952C143.282 39.2024 142.132 39.7757 140.977 39.7757C140.583 39.7736 140.204 39.6231 139.916 39.354C139.628 39.085 139.452 38.7172 139.422 38.3241C139.429 37.9532 139.546 37.5927 139.759 37.2891C139.972 36.9855 140.272 36.7528 140.618 36.621C140.91 36.484 141.228 36.4122 141.55 36.4106H141.534Z" fill="#FF512E"/>
</svg>
