<svg width="155" height="155" viewBox="0 0 155 155" fill="none" xmlns="http://www.w3.org/2000/svg">
<path d="M23.6201 130.651C23.6201 130.651 -1.64628 68.4483 23.6201 43.7056C48.8866 18.9629 94.3513 20.6124 122.009 37.6601C149.668 54.7078 133.082 123.435 133.082 123.435C133.082 123.435 122.632 133.938 88.2687 136.887C53.666 139.876 23.6201 130.651 23.6201 130.651Z" fill="#E0E0E0"/>
<path d="M63.2168 17.0865V114.181M63.2168 114.181L6.16016 137.913M63.2168 114.181L148.843 125.542" stroke="#45413C" stroke-width="2.42" stroke-linecap="round" stroke-linejoin="round"/>
<path d="M59.3267 114.985C59.3267 114.985 57.5287 123.336 59.9824 123.451C62.436 123.567 66.6959 114.202 66.6959 114.202L59.3267 114.985Z" fill="white" stroke="#45413C" stroke-width="2.42" stroke-linecap="round" stroke-linejoin="round"/>
<path d="M104.353 69.4339C104.352 63.6711 102.785 58.0168 99.818 53.0763C96.8512 48.1359 92.5968 44.0951 87.5101 41.3867C82.4234 38.6782 76.6959 37.4039 70.9407 37.7002C65.1855 37.9966 59.6192 39.8523 54.8376 43.0689C50.056 46.2855 46.2391 50.7418 43.7954 55.9609C41.3517 61.1799 40.3732 66.9653 40.9647 72.6976C41.5562 78.43 43.6953 83.8937 47.1532 88.5038C50.6111 93.1139 55.2575 96.697 60.5952 98.8694C58.3972 103.212 55.3497 110.383 57.0075 113.979C59.0694 118.466 63.8365 117.839 63.8365 117.839C63.8365 117.839 63.7086 121.752 64.9251 123.876C68.785 130.606 91.8452 127.93 93.6308 122.688C95.9814 115.781 91.1565 103.443 88.2699 97.0632C93.1545 94.2916 97.2167 90.274 100.042 85.4202C102.867 80.5664 104.355 75.0501 104.353 69.4339Z" fill="white"/>
<path d="M104.351 69.4338C104.359 64.1308 103.033 58.9109 100.496 54.2542C97.7469 50.4126 94.1192 47.2841 89.9153 45.1298C85.7114 42.9755 81.0533 41.8579 76.3296 41.8701C71.6058 41.8823 66.9536 43.0241 62.7609 45.2002C58.5682 47.3762 54.9568 50.5235 52.2279 54.3792C49.499 58.235 47.7319 62.6875 47.0739 67.3652C46.4159 72.0429 46.8862 76.8101 48.4455 81.2691C50.0048 85.728 52.6079 89.7494 56.0376 92.9976C59.4673 96.2458 63.6241 98.6267 68.1611 99.9416C67.258 108.032 66.326 122.342 70.2931 127.159C78.4376 129.22 92.2646 126.705 93.6296 122.697C95.9802 115.789 91.1553 103.451 88.2687 97.0714C93.1546 94.2991 97.2175 90.2802 100.043 85.4249C102.868 80.5695 104.355 75.0515 104.351 69.4338Z" fill="#E0E0E0"/>
<path d="M104.353 69.4339C104.352 63.6711 102.785 58.0168 99.818 53.0763C96.8512 48.1359 92.5968 44.0951 87.5101 41.3867C82.4234 38.6782 76.6959 37.4039 70.9407 37.7002C65.1855 37.9966 59.6192 39.8523 54.8376 43.0689C50.056 46.2855 46.2391 50.7418 43.7954 55.9609C41.3517 61.1799 40.3732 66.9653 40.9647 72.6976C41.5562 78.43 43.6953 83.8937 47.1532 88.5038C50.6111 93.1139 55.2575 96.697 60.5952 98.8694C58.3972 103.212 55.3497 110.383 57.0075 113.979C59.0694 118.466 63.8365 117.839 63.8365 117.839C63.8365 117.839 63.7086 121.752 64.9251 123.876C68.785 130.606 91.8452 127.93 93.6308 122.688C95.9814 115.781 91.1565 103.443 88.2699 97.0632C93.1545 94.2916 97.2167 90.274 100.042 85.4202C102.867 80.5664 104.355 75.0501 104.353 69.4339Z" stroke="#45413C" stroke-width="2.42" stroke-linecap="round" stroke-linejoin="round"/>
<path d="M63.835 117.839C63.5771 113.474 63.7761 109.094 64.4289 104.771M70.0784 101.113C66.8199 100.863 63.62 100.107 60.5938 98.8735M88.2685 97.0714C87.0476 97.767 85.7815 98.3801 84.4787 98.9065M81.5962 31.6105V52.5057M88.2685 35.1858V56.0769M94.6562 34.4971V55.3923" stroke="#45413C" stroke-width="2.42" stroke-linecap="round" stroke-linejoin="round"/>
</svg>
