<svg width="155" height="155" viewBox="0 0 155 155" fill="none" xmlns="http://www.w3.org/2000/svg">
<path d="M122.354 138.705V106.251C129.712 101.507 135.305 94.4748 138.271 86.2383C141.237 78.0018 141.412 69.0183 138.769 60.6725C136.126 52.3267 130.811 45.0819 123.644 40.055C116.476 35.0281 107.855 32.498 99.1075 32.8548C90.3603 33.2116 81.9734 36.4355 75.2393 42.0295C68.5053 47.6235 63.7981 55.277 61.8433 63.8104C59.8885 72.3437 60.7946 81.2832 64.422 89.2507C68.0494 97.2183 74.1966 103.772 81.9161 107.901C80.6212 111.352 81.0336 116.4 81.9161 121.88H86.0853V138.718" fill="white"/>
<path d="M140.078 66.2009C138.987 59.5711 136.228 53.3276 132.062 48.0562C135.932 56.9434 136.434 66.9357 133.473 76.1658C130.512 85.3958 124.292 93.2321 115.975 98.21C107.657 103.188 97.8117 104.967 88.2782 103.215C78.7446 101.462 70.1754 96.2982 64.1719 88.6879C68.0544 97.6153 75.0682 104.814 83.8915 108.928C92.7147 113.042 102.738 113.786 112.072 111.021C121.406 108.256 129.407 102.172 134.565 93.9162C139.724 85.6602 141.685 75.8025 140.078 66.2009Z" fill="#F0F0F0"/>
<path d="M122.354 138.705V106.251C129.712 101.507 135.305 94.4748 138.271 86.2383C141.237 78.0018 141.412 69.0183 138.769 60.6725C136.126 52.3267 130.811 45.0819 123.644 40.055C116.476 35.0281 107.855 32.498 99.1075 32.8548C90.3603 33.2116 81.9734 36.4355 75.2393 42.0295C68.5053 47.6235 63.7981 55.277 61.8433 63.8104C59.8885 72.3437 60.7946 81.2832 64.422 89.2507C68.0494 97.2183 74.1966 103.772 81.9161 107.901C80.6212 111.352 81.0336 116.4 81.9161 121.88H86.0853V138.718" stroke="#45413C" stroke-width="2.42" stroke-linecap="round" stroke-linejoin="round"/>
<path d="M91.2667 133.27C91.2249 133.518 91.0968 133.743 90.9051 133.905C90.7134 134.067 90.4705 134.156 90.2193 134.157H82.5202C82.2686 134.156 82.0251 134.067 81.8327 133.905C81.6403 133.743 81.5114 133.518 81.4686 133.27L78.9531 118.507H93.7988L91.2667 133.27Z" fill="#FFF5E3" stroke="#45413C" stroke-width="2.42" stroke-linecap="round" stroke-linejoin="round"/>
<path d="M95.4888 116.758C95.4893 116.528 95.4445 116.301 95.3569 116.088C95.2692 115.875 95.1405 115.682 94.9781 115.519C94.8157 115.357 94.6228 115.227 94.4104 115.139C94.1979 115.051 93.9702 115.006 93.7403 115.006H78.9978C78.7607 114.994 78.5238 115.031 78.3014 115.114C78.079 115.197 77.8757 115.324 77.7039 115.487C77.5321 115.651 77.3953 115.848 77.3018 116.066C77.2084 116.284 77.1602 116.519 77.1602 116.756C77.1602 116.994 77.2084 117.229 77.3018 117.447C77.3953 117.665 77.5321 117.862 77.7039 118.025C77.8757 118.189 78.079 118.316 78.3014 118.399C78.5238 118.482 78.7607 118.518 78.9978 118.507H93.7403C94.204 118.507 94.6487 118.323 94.9766 117.995C95.3046 117.667 95.4888 117.222 95.4888 116.758Z" fill="white" stroke="#45413C" stroke-width="2.42" stroke-linecap="round" stroke-linejoin="round"/>
<path d="M77.2461 126.334C77.2461 127.032 77.3837 127.724 77.651 128.37C77.9184 129.015 78.3102 129.601 78.8042 130.095C79.2982 130.589 79.8846 130.981 80.53 131.249C81.1754 131.516 81.8672 131.654 82.5658 131.654C83.2644 131.654 83.9561 131.516 84.6015 131.249C85.2469 130.981 85.8334 130.589 86.3274 130.095C86.8213 129.601 87.2132 129.015 87.4805 128.37C87.7479 127.724 87.8855 127.032 87.8855 126.334C87.8855 125.635 87.7479 124.944 87.4805 124.298C87.2132 123.653 86.8213 123.066 86.3274 122.572C85.8334 122.078 85.2469 121.686 84.6015 121.419C83.9561 121.152 83.2644 121.014 82.5658 121.014C81.8672 121.014 81.1754 121.152 80.53 121.419C79.8846 121.686 79.2982 122.078 78.8042 122.572C78.3102 123.066 77.9184 123.653 77.651 124.298C77.3837 124.944 77.2461 125.635 77.2461 126.334Z" fill="white" stroke="#45413C" stroke-width="2.42" stroke-linecap="round" stroke-linejoin="round"/>
<path d="M90.1245 111.187C87.2741 110.395 84.5205 109.288 81.9141 107.888" stroke="#45413C" stroke-width="2.42" stroke-linecap="round" stroke-linejoin="round"/>
<path d="M140.795 131.468C140.675 132.218 140.291 132.9 139.713 133.393C139.135 133.886 138.4 134.156 137.64 134.157H123.038C122.279 134.155 121.546 133.884 120.968 133.392C120.391 132.899 120.008 132.217 119.888 131.468L114.688 98.7581H145.995L140.795 131.468Z" fill="#FFF5E3"/>
<path d="M145.298 103.138L145.995 98.7581H114.688L115.38 103.138H145.298Z" fill="#F0D5A8"/>
<path d="M140.795 131.468C140.675 132.218 140.291 132.9 139.713 133.393C139.135 133.886 138.4 134.156 137.64 134.157H123.038C122.279 134.155 121.546 133.884 120.968 133.392C120.391 132.899 120.008 132.217 119.888 131.468L114.688 98.7581H145.995L140.795 131.468Z" stroke="#45413C" stroke-width="2.42" stroke-linecap="round" stroke-linejoin="round"/>
<path d="M142.897 94.457H117.787L119.115 88.3785H141.573L142.897 94.457ZM147.528 98.7581H113.16L114.183 94.457H146.501L147.528 98.7581Z" fill="white" stroke="#45413C" stroke-width="2.42" stroke-linecap="round" stroke-linejoin="round"/>
<path d="M122.207 114.42C122.207 116.578 123.064 118.648 124.59 120.173C126.116 121.699 128.185 122.557 130.343 122.557C132.501 122.557 134.571 121.699 136.096 120.173C137.622 118.648 138.479 116.578 138.479 114.42C138.479 112.262 137.622 110.193 136.096 108.667C134.571 107.141 132.501 106.284 130.343 106.284C128.185 106.284 126.116 107.141 124.59 108.667C123.064 110.193 122.207 112.262 122.207 114.42Z" fill="#9CEB60" stroke="#45413C" stroke-width="2.42" stroke-linecap="round" stroke-linejoin="round"/>
<path d="M134.227 119.938C134.227 121.634 134.9 123.261 136.1 124.461C137.299 125.66 138.926 126.334 140.623 126.334C142.319 126.334 143.946 125.66 145.145 124.461C146.345 123.261 147.019 121.634 147.019 119.938C147.019 118.242 146.345 116.615 145.145 115.415C143.946 114.216 142.319 113.542 140.623 113.542C138.926 113.542 137.299 114.216 136.1 115.415C134.9 116.615 134.227 118.242 134.227 119.938Z" fill="white" stroke="#45413C" stroke-width="2.42" stroke-linecap="round" stroke-linejoin="round"/>
<path d="M103.306 108.457C102.139 117.657 101.013 126.924 98.1719 132.153L104.609 138.705L110.114 132.631C110.354 127.909 107.24 117.307 103.306 108.457Z" fill="#EF233C" stroke="#45413C" stroke-width="2.42" stroke-linecap="round" stroke-linejoin="round"/>
<path d="M99.3555 108.457C99.3555 109.256 99.7717 110.021 100.513 110.586C101.253 111.15 102.258 111.468 103.306 111.468C104.354 111.468 105.359 111.15 106.1 110.586C106.84 110.021 107.257 109.256 107.257 108.457C107.257 107.659 106.84 106.893 106.1 106.329C105.359 105.764 104.354 105.447 103.306 105.447C102.258 105.447 101.253 105.764 100.513 106.329C99.7717 106.893 99.3555 107.659 99.3555 108.457Z" fill="#EF233C" stroke="#45413C" stroke-width="2.42" stroke-linecap="round" stroke-linejoin="round"/>
<path d="M58.2227 80.3619C58.2227 84.0991 59.7072 87.6832 62.3498 90.3257C64.9924 92.9683 68.5765 94.4529 72.3136 94.4529C76.0508 94.4529 79.6349 92.9683 82.2774 90.3257C84.92 87.6832 86.4046 84.0991 86.4046 80.3619C86.4046 76.6248 84.92 73.0407 82.2774 70.3981C79.6349 67.7555 76.0508 66.2709 72.3136 66.2709C68.5765 66.2709 64.9924 67.7555 62.3498 70.3981C59.7072 73.0407 58.2227 76.6248 58.2227 80.3619Z" fill="white" stroke="#45413C" stroke-width="2.42" stroke-linecap="round" stroke-linejoin="round"/>
<path d="M72.8633 80.362C72.8633 80.8924 73.074 81.4011 73.4491 81.7762C73.8242 82.1513 74.3329 82.362 74.8633 82.362C75.3938 82.362 75.9025 82.1513 76.2776 81.7762C76.6526 81.4011 76.8633 80.8924 76.8633 80.362C76.8633 79.8315 76.6526 79.3228 76.2776 78.9477C75.9025 78.5727 75.3938 78.3619 74.8633 78.3619C74.3329 78.3619 73.8242 78.5727 73.4491 78.9477C73.074 79.3228 72.8633 79.8315 72.8633 80.362Z" fill="#45413C"/>
<path d="M101.16 71.5081C101.16 73.3586 101.525 75.1909 102.233 76.9005C102.941 78.6101 103.979 80.1635 105.287 81.472C106.596 82.7804 108.149 83.8184 109.859 84.5265C111.568 85.2346 113.401 85.5991 115.251 85.5991C117.102 85.5991 118.934 85.2346 120.644 84.5265C122.353 83.8184 123.906 82.7804 125.215 81.472C126.523 80.1635 127.561 78.6101 128.269 76.9005C128.978 75.1909 129.342 73.3586 129.342 71.5081C129.342 69.6577 128.978 67.8254 128.269 66.1158C127.561 64.4062 126.523 62.8528 125.215 61.5443C123.906 60.2359 122.353 59.1979 120.644 58.4898C118.934 57.7817 117.102 57.4172 115.251 57.4172C113.401 57.4172 111.568 57.7817 109.859 58.4898C108.149 59.1979 106.596 60.2359 105.287 61.5443C103.979 62.8528 102.941 64.4062 102.233 66.1158C101.525 67.8254 101.16 69.6577 101.16 71.5081Z" fill="white" stroke="#45413C" stroke-width="2.42" stroke-linecap="round" stroke-linejoin="round"/>
<path d="M112.688 72.4071C112.688 72.9376 112.898 73.4463 113.273 73.8214C113.648 74.1965 114.157 74.4072 114.688 74.4072C115.218 74.4072 115.727 74.1965 116.102 73.8214C116.477 73.4463 116.688 72.9376 116.688 72.4071C116.688 71.8767 116.477 71.368 116.102 70.9929C115.727 70.6178 115.218 70.4071 114.688 70.4071C114.157 70.4071 113.648 70.6178 113.273 70.9929C112.898 71.368 112.688 71.8767 112.688 72.4071Z" fill="#45413C"/>
<path d="M99.6293 86.3661C99.7125 86.7771 99.7138 87.2005 99.6333 87.6121C99.5528 88.0236 99.3921 88.4153 99.1602 88.7647C98.9283 89.1141 98.6299 89.4145 98.282 89.6486C97.9341 89.8826 97.5434 90.0459 97.1324 90.129C96.7214 90.2122 96.298 90.2135 95.8864 90.133C95.4749 90.0525 95.0832 89.8918 94.7338 89.6599C94.0281 89.1916 93.5373 88.4622 93.3694 87.6321L92.7344 84.5104C95.1385 85.3558 97.2004 84.8403 98.9943 83.2444L99.6293 86.3661Z" fill="#FFA694" stroke="#45413C" stroke-width="2.42" stroke-linecap="round" stroke-linejoin="round"/>
<path d="M7.6772 67.438L6.76172 16.3443L87.3776 16.802L85.5507 67.8957L68.1937 67.438V78.8609L54.0285 67.438H7.6772Z" fill="white" stroke="#45413C" stroke-width="2.42" stroke-linejoin="round"/>
<path d="M22.7576 37.2436C22.6113 36.2734 22.5451 35.2928 22.5597 34.3116C22.5597 32.7817 22.3205 32.5632 21.3226 32.5632C20.3823 32.5632 19.8792 32.7157 19.8792 33.7426C19.8792 34.6415 19.9906 35.2725 19.9906 35.9075C19.9906 37.1447 19.5535 38.3571 18.4153 38.3571C18.0127 38.3559 17.6211 38.2258 17.2977 37.9859C16.6874 37.5488 16.2709 36.4766 16.0111 35.2725C15.722 33.76 15.5838 32.2225 15.5987 30.6827C15.5987 29.6105 15.6647 28.06 15.7926 26.8105C15.8222 26.1334 15.9485 25.4641 16.1678 24.8228C16.473 23.862 17.4792 23.5857 18.0689 23.5857C19.306 23.5857 19.8174 24.328 19.8174 25.4208V27.4125C19.8174 28.5054 19.9493 29.293 20.9762 29.293C22.4648 29.293 22.5968 28.8311 22.5968 26.6249V26.1548C22.5968 24.5053 23.4711 23.4455 24.8896 23.4455C26.1268 23.4455 26.7948 23.9486 26.9515 25.6971C26.9928 26.1795 27.0175 26.8765 27.0175 27.7095C27.001 30.4641 26.7783 34.6127 26.4113 36.6746C26.234 37.7014 25.7969 38.489 24.7247 38.489C23.8051 38.489 22.9556 38.2705 22.7576 37.2436ZM39.5043 35.4374C39.5043 36.9674 39.0012 38.5426 37.1208 38.5426C34.7372 38.5426 35.3063 34.2786 35.0218 33.623C34.6917 33.387 34.2874 33.2786 33.8836 33.3178C33.3805 33.3178 32.9021 33.425 32.8362 33.623C32.7042 34.0601 32.6836 34.4477 32.5722 34.889C32.2671 36.1797 32.0485 38.456 30.4073 38.456C28.6794 38.456 28.201 36.2003 28.2876 34.9549C28.2876 32.8931 28.7701 30.5178 29.0753 28.5919C29.5784 25.5733 30.6052 23.3465 33.7764 23.3465C38.3455 23.3465 38.828 28.1342 39.2404 32.3735C39.2858 33.1322 39.5043 34.3776 39.5043 35.4374ZM32.8568 29.2518C32.8568 30.0765 33.1619 30.2126 33.863 30.2126H33.9743C34.696 30.2126 35.0012 30.0353 35.0012 29.227C35.0012 28.4188 34.6506 26.8435 33.9496 26.8435C33.3764 26.8765 32.8568 28.2126 32.8568 29.2847V29.2518ZM45.8013 32.258C46.2137 32.258 46.9807 30.0683 47.1993 29.26L48.2509 26.1342C48.82 24.3197 49.6695 23.73 50.7004 23.73C51.8798 23.73 52.7334 24.1424 52.7623 25.4991C52.7623 26.9672 51.9953 28.8476 51.4056 30.2456L51.3396 30.3982C49.7231 34.225 48.3004 38.5344 45.789 38.5344H45.5663C43.2487 38.5344 42.6178 36.8478 41.8301 34.7488L41.7188 34.4436C40.6267 31.4046 39.8124 28.2728 39.2858 25.0867C39.2858 24.0558 40.226 23.73 41.0342 23.73C41.9951 23.73 42.9807 24.1424 43.3972 24.8228C43.8343 25.6764 44.0941 27.3796 44.4652 28.6043C44.8776 29.9817 45.1663 30.9466 45.4302 31.7549C45.5168 31.9941 45.6694 32.258 45.8013 32.258ZM58.3954 29.4126C59.814 29.4373 61.0841 29.4373 61.0841 30.5095C61.0841 32.6085 58.9191 32.5714 57.2985 32.7364V33.0209C57.2985 33.6766 57.517 34.4436 58.4366 34.5962C58.8282 34.6407 59.2219 34.6627 59.616 34.6622C60.4944 34.6622 61.2655 34.4642 62.0903 34.4642C62.2704 34.4668 62.4482 34.5054 62.6132 34.5777C62.7782 34.65 62.9271 34.7545 63.0512 34.8851C63.1753 35.0157 63.272 35.1697 63.3357 35.3382C63.3995 35.5067 63.4289 35.6863 63.4223 35.8663C63.4223 38.1385 60.6222 38.5962 58.7871 38.5962C56.5149 38.5962 54.8737 38.0313 54.1314 37.0663C53.2571 35.9282 52.9272 33.5694 52.9272 31.3838C52.9272 28.6043 53.6035 25.4579 55.2242 24.3733C56.0489 23.8249 57.7603 23.3465 59.5954 23.3465C61.2449 23.3465 63.1377 23.7836 63.1377 25.5527C63.1444 25.7365 63.1306 25.9205 63.0965 26.1012C62.5274 27.9156 57.8263 26.3197 57.3892 28.0682C57.3404 28.3056 57.3183 28.5476 57.3232 28.7899C57.3208 28.9941 57.3346 29.1982 57.3644 29.4002L58.3954 29.4126ZM78.1813 35.4374C78.1813 36.9674 77.6782 38.5426 75.7977 38.5426C73.4142 38.5426 73.9833 34.2786 73.6987 33.623C73.3687 33.387 72.9644 33.2786 72.5606 33.3178C72.0575 33.3178 71.575 33.425 71.5131 33.623C71.3812 34.0601 71.3564 34.4477 71.2492 34.889C70.9441 36.1797 70.7255 38.456 69.0842 38.456C67.3564 38.456 66.8739 36.2003 66.9646 34.9549C66.9646 32.8931 67.443 30.5178 67.7522 28.5919C68.2512 25.5733 69.2822 23.3465 72.4534 23.3465C77.0225 23.3589 77.5009 28.1466 77.9132 32.3858C77.9627 33.1322 78.1813 34.3776 78.1813 35.4374ZM71.5338 29.2518C71.5338 30.0765 71.8389 30.2126 72.54 30.2126H72.6472C73.3688 30.2126 73.674 30.0353 73.674 29.227C73.674 28.4188 73.3276 26.8435 72.6266 26.8435C72.0369 26.8765 71.5338 28.2126 71.5338 29.2847V29.2518ZM25.0092 48.9552C25.0261 49.7362 24.7444 50.4943 24.2216 51.0748C27.2402 51.1408 29.034 53.1078 29.034 55.611C28.9887 58.4976 26.1474 60.6173 22.2545 60.6173C20.3535 60.6173 18.2957 60.4647 16.7658 59.3801C16.0895 58.877 16.0647 58.1141 16.0647 57.4337V51.1078C16.0647 50.3861 16.0441 49.7511 16.0441 49.2067C16.0249 48.5713 16.0985 47.9364 16.2627 47.3222C16.4777 46.6902 16.8933 46.1457 17.4462 45.7716C18.2902 45.2692 19.2604 45.0188 20.2421 45.05C22.803 45.0623 25.0092 46.485 25.0092 48.9552ZM19.8916 48.4067V50.3985C20.0348 50.4688 20.1945 50.4987 20.3535 50.4851C21.1164 50.4851 21.6855 49.6975 21.6855 49.0006C21.7025 48.8755 21.6926 48.7483 21.6565 48.6274C21.6205 48.5065 21.559 48.3947 21.4762 48.2994C21.3935 48.2042 21.2913 48.1277 21.1767 48.0751C21.062 48.0225 20.9374 47.995 20.8112 47.9944C20.6361 47.9842 20.4611 48.0164 20.301 48.0882C20.141 48.16 20.0005 48.2692 19.8916 48.4067ZM24.2669 55.3182C24.2669 54.2666 23.4999 53.7429 22.205 53.7429C21.5287 53.7429 20.6091 53.8749 20.1432 54.246V56.6955C20.4277 57.0007 21.4092 57.1079 21.8916 57.1079C23.2814 57.112 24.2669 56.3038 24.2669 55.3182ZM39.4383 60.4111C37.2321 60.4111 35.5702 57.0007 34.3207 55.8213C34.3878 56.2482 34.4181 56.68 34.4115 57.112C34.4115 58.5306 34.3207 59.343 33.9991 59.8214C33.6774 60.2997 32.9269 60.5678 32.2052 60.5678C30.9186 60.5678 30.2382 60.0647 30.1969 58.8399C30.065 55.3842 30.0196 53.545 30.0196 52.3862C30.0196 51.5367 30.0444 51.0996 30.0444 50.7367V50.1222C30.1062 49.0294 30.1516 48.0232 31.0258 46.7778C32.1186 45.2273 34.2836 45.1283 35.2898 45.1283C38.7455 45.1283 40.8239 46.6376 40.9765 49.7428V50.0727C40.9765 52.7161 39.0961 53.8749 38.1971 54.0522C38.0651 54.0934 37.8466 54.1182 37.8466 54.1842C37.8466 54.2501 37.9125 54.2914 37.9373 54.312C37.962 54.3326 38.527 55.0336 38.762 55.3388C39.3724 56.1924 40.226 57.0914 40.6425 57.7471C40.9439 58.1861 41.118 58.6999 41.1456 59.2317C41.1456 59.9121 40.5765 60.3492 39.5249 60.3904L39.4383 60.4111ZM35.4589 48.3655C35.0487 48.3328 34.6415 48.4582 34.3207 48.716V51.2934C34.5144 51.3462 34.7138 51.3753 34.9146 51.38C36.0486 51.38 36.9022 50.8563 36.9022 49.6769C36.883 49.3122 36.7206 48.9698 36.4503 48.7243C36.18 48.4787 35.8237 48.3498 35.4589 48.3655ZM47.2653 51.2068C48.688 51.2274 49.954 51.2274 49.954 52.2996C49.954 54.3986 47.789 54.3615 46.1725 54.5306V54.8192C46.1725 55.4749 46.391 56.2419 47.3106 56.3945C47.7024 56.437 48.096 56.4591 48.4901 56.4605C49.3643 56.4605 50.1396 56.2625 50.9643 56.2625C51.1444 56.2646 51.3223 56.3027 51.4875 56.3745C51.6527 56.4462 51.802 56.5503 51.9264 56.6805C52.0509 56.8107 52.1481 56.9645 52.2123 57.1328C52.2765 57.3011 52.3065 57.4805 52.3004 57.6605C52.3004 59.9368 49.5004 60.3946 47.6612 60.3946C45.389 60.3946 43.7477 59.8255 43.0054 58.8646C42.1312 57.7265 41.8013 55.3636 41.8013 53.1779C41.8013 50.4026 42.4817 47.2521 44.0982 46.1675C44.923 45.6191 46.6343 45.1366 48.4736 45.1366C50.1231 45.1366 52.0159 45.5737 52.0159 47.3469C52.0233 47.5295 52.0081 47.7124 51.9705 47.8913C51.4014 49.7098 46.7003 48.1098 46.2632 49.8624C46.2165 50.1001 46.1944 50.3419 46.1972 50.5841C46.1959 50.7884 46.211 50.9925 46.2426 51.1944L47.2653 51.2068ZM64.078 57.244C64.078 58.7739 63.5748 60.3451 61.6944 60.3451C59.3109 60.3451 59.8799 56.0811 59.5954 55.4254C59.2657 55.1921 58.8636 55.0839 58.4614 55.1203C57.9583 55.1203 57.4758 55.2316 57.4098 55.4254C57.2778 55.8625 57.2572 56.2502 57.1459 56.6955C56.8407 57.9863 56.6222 60.2585 54.9809 60.2585C53.2571 60.2585 52.7747 58.0069 52.8613 56.7615C52.8613 54.6996 53.3437 52.3202 53.6489 50.3985C54.152 47.3799 55.1788 45.1489 58.35 45.1489C62.9192 45.1489 63.4017 49.9408 63.8182 54.18C63.8594 54.9223 64.078 56.1718 64.078 57.244ZM57.4304 51.0583C57.4304 51.8831 57.7397 52.0233 58.4366 52.0233H58.5315C59.2531 52.0233 59.5583 51.846 59.5583 51.0377C59.5583 50.2294 59.2078 48.6542 58.5067 48.6542C57.9335 48.6707 57.4304 50.0026 57.4304 51.0748V51.0583ZM70.0038 53.9945C69.9815 53.9941 69.9594 53.9997 69.9399 54.0105C69.9204 54.0214 69.904 54.0372 69.8925 54.0563C69.3481 56.0275 70.0451 60.3987 68.2966 60.3987C66.3089 60.3987 65.7151 59.3719 65.5873 57.4708C65.2574 53.7965 65.344 48.6583 65.1749 45.8789C65.1749 45.7264 65.2267 45.5784 65.3219 45.4592C65.417 45.3401 65.5499 45.2569 65.6986 45.2232C66.1059 45.1406 66.5201 45.0964 66.9357 45.0912C67.7852 45.116 68.5069 45.1572 69.076 45.8582C69.6451 46.5593 69.9007 47.6067 69.9007 48.7861C69.9008 49.1747 69.8788 49.563 69.8348 49.949C70.7296 49.1614 71.7152 47.9572 72.5441 47.1242C73.4637 46.25 74.5359 45.6397 75.4307 45.6397C75.841 45.6572 76.2293 45.8294 76.5178 46.1217C76.8062 46.4139 76.9733 46.8045 76.9854 47.215C76.9854 48.9634 73.7482 51.0418 72.6554 52.2006C73.3565 53.7099 75.1297 55.4996 76.3668 56.9883L76.4328 57.0543C76.8039 57.512 77.373 58.2337 77.373 58.8894C77.3734 59.1674 77.2637 59.4343 77.0679 59.6317C76.6555 60.0729 75.7977 60.2461 75.006 60.2461C74.5093 60.255 74.0145 60.1812 73.542 60.0276C72.2513 59.5698 71.707 58.2131 71.1585 56.811L71.0513 56.5306C70.742 55.7058 70.3296 54.6254 70.0657 54.0563C70.0618 54.0414 70.054 54.0279 70.0431 54.017C70.0323 54.0061 70.0187 53.9983 70.0038 53.9945Z" fill="#D90429"/>
</svg>
