<svg width="155" height="155" viewBox="0 0 155 155" fill="none" xmlns="http://www.w3.org/2000/svg">
<path d="M47.4353 100.065C47.4604 100.089 47.4752 100.122 47.4766 100.156C47.4764 100.173 47.4722 100.19 47.4643 100.205C47.4565 100.22 47.4451 100.233 47.4312 100.243L5.70677 133.522C5.58553 133.614 5.44273 133.674 5.2919 133.695C5.14107 133.717 4.98721 133.7 4.8449 133.645C4.71026 133.602 4.59223 133.518 4.50671 133.405C4.42119 133.292 4.37227 133.156 4.36654 133.014C4.36654 131.592 4.36654 130.247 4.39541 128.891C4.39541 128.684 4.71707 128.449 4.95212 128.293C8.3295 126.041 11.7234 123.81 15.1008 121.563C18.1812 119.501 21.2328 117.439 24.3133 115.377C31.945 110.291 39.5823 105.212 47.225 100.14C47.2921 100.107 47.3626 100.082 47.4353 100.065ZM4.37067 32.1384C4.37517 32.0028 4.41938 31.8715 4.49782 31.7608C4.57626 31.6501 4.68547 31.5649 4.81191 31.5157C4.94487 31.4601 5.08929 31.4375 5.23288 31.4497C5.37648 31.4619 5.515 31.5086 5.63667 31.5858L51.522 61.8626C51.5418 61.8743 51.559 61.89 51.5723 61.9087C51.5857 61.9275 51.595 61.9488 51.5997 61.9713C51.6044 61.9938 51.6043 62.0171 51.5994 62.0395C51.5945 62.062 51.585 62.0832 51.5715 62.1018C50.8127 61.6894 50.0416 61.2771 49.2869 60.8647C42.4414 57.0351 35.5946 53.2027 28.7464 49.3676C24.7174 47.1242 20.6761 44.9221 16.6348 42.6706C12.7529 40.5317 8.87521 38.3956 5.00161 36.2622C4.7924 36.1734 4.61669 36.0206 4.49964 35.8258C4.3826 35.6309 4.33023 35.4041 4.35005 35.1776C4.38304 34.1756 4.37892 33.1941 4.37067 32.1384ZM145.932 14.336C146.081 14.331 146.229 14.3667 146.36 14.4394C146.491 14.512 146.6 14.6188 146.674 14.7484C146.736 14.8746 146.754 15.018 146.725 15.1557C146.696 15.2933 146.621 15.4171 146.513 15.5072L102.088 55.0955C102.051 55.1264 102.004 55.1433 101.956 55.1433C101.908 55.1433 101.861 55.1264 101.824 55.0955C102.9 54.0027 103.972 52.9058 105.053 51.7965C108.162 48.6597 111.274 45.5242 114.389 42.3901C119.929 36.8203 125.467 31.2436 131.004 25.6599C134.303 22.3609 137.693 19.0825 140.86 15.6721C141.277 15.1581 141.82 14.7607 142.437 14.5186C143.053 14.2766 143.722 14.198 144.377 14.2907C144.884 14.3319 145.396 14.3402 145.932 14.336ZM113.144 58.5306C113.124 58.5127 113.108 58.4903 113.099 58.4651C113.09 58.4399 113.087 58.4129 113.09 58.3863C113.094 58.3589 113.105 58.3329 113.12 58.31C113.136 58.2872 113.157 58.2682 113.181 58.2543L149.392 36.122C149.516 36.049 149.655 36.0065 149.798 35.9979C149.942 35.9893 150.085 36.0149 150.217 36.0725C150.339 36.1209 150.445 36.2032 150.523 36.3099C150.6 36.4165 150.646 36.543 150.654 36.6746C150.654 37.6725 150.654 38.6169 150.621 39.5612C150.621 39.755 150.278 39.9983 150.035 40.1221C143.313 43.4733 136.593 46.8191 129.874 50.1593C124.51 52.8371 119.149 55.5258 113.791 58.2255C113.589 58.3368 113.379 58.4317 113.144 58.5306ZM14.841 15.4618C14.7401 15.3701 14.6722 15.2477 14.6477 15.1137C14.6231 14.9796 14.6432 14.8411 14.7049 14.7195C14.7762 14.5907 14.8817 14.484 15.0097 14.4112C15.1378 14.3384 15.2834 14.3024 15.4307 14.3072H18.2101C18.4978 14.3322 18.7669 14.4595 18.9689 14.6659C24.3188 20.6069 29.6577 26.5521 34.9856 32.5013L46.5322 45.384C46.6312 45.4953 46.7178 45.6108 46.8085 45.7263C46.8238 45.7474 46.8345 45.7714 46.8401 45.7968C46.8456 45.8222 46.8459 45.8485 46.8409 45.874C46.8358 45.8995 46.8256 45.9238 46.8108 45.9452C46.796 45.9666 46.777 45.9847 46.7549 45.9984L14.841 15.4618ZM150.654 123.064C150.648 123.2 150.602 123.331 150.522 123.441C150.442 123.551 150.332 123.635 150.204 123.682C150.071 123.736 149.926 123.758 149.783 123.745C149.639 123.732 149.501 123.685 149.379 123.608L116.991 101.752C116.975 101.742 116.961 101.729 116.949 101.714C116.938 101.699 116.93 101.681 116.926 101.663C116.922 101.644 116.921 101.625 116.925 101.606C116.928 101.588 116.935 101.57 116.946 101.554C117.738 101.966 118.538 102.358 119.317 102.791C125.742 106.269 132.165 109.749 138.587 113.233C142.486 115.347 146.376 117.473 150.258 119.612C150.361 119.674 150.45 119.758 150.518 119.857C150.585 119.957 150.63 120.07 150.65 120.189C150.654 121.134 150.654 122.066 150.654 123.064ZM11.5419 140.8C11.3938 140.804 11.2475 140.767 11.1183 140.695C10.9892 140.622 10.8819 140.516 10.8079 140.388C10.7458 140.263 10.7275 140.121 10.7559 139.985C10.7844 139.849 10.8579 139.726 10.9646 139.637L53.4066 101.006C53.4488 100.974 53.5002 100.957 53.553 100.957C53.6058 100.957 53.6572 100.974 53.6994 101.006L51.2004 103.48C47.9508 106.68 44.6889 109.872 41.4476 113.076C36.2984 118.151 31.156 123.241 26.0205 128.346C22.9854 131.348 19.9173 134.33 16.874 137.328C15.8801 138.309 14.9358 139.332 13.909 140.289C13.5835 140.562 13.1816 140.727 12.7584 140.763C12.3461 140.792 11.9626 140.8 11.5419 140.8ZM4.38716 19.5609C4.39594 19.4206 4.44719 19.2863 4.5341 19.1758C4.62102 19.0653 4.73948 18.9839 4.87377 18.9423C5.01775 18.8856 5.17398 18.8671 5.32721 18.8888C5.48044 18.9105 5.62543 18.9716 5.74801 19.066L48.7838 54.7285C48.8006 54.7436 48.814 54.762 48.8232 54.7826C48.8324 54.8032 48.8371 54.8255 48.8371 54.8481C48.8371 54.8706 48.8324 54.8929 48.8232 54.9136C48.814 54.9342 48.8006 54.9526 48.7838 54.9677C47.7982 54.2254 46.8085 53.4872 45.8271 52.7367C41.3486 49.3167 36.8716 45.8967 32.3959 42.4767C27.2453 38.5674 22.0864 34.6869 16.9193 30.7776C12.9853 27.7919 9.08415 24.7775 5.15006 21.796C4.59335 21.3836 4.27582 20.9506 4.34593 20.2784C4.37479 20.0434 4.38304 19.8042 4.38716 19.5609ZM85.1061 14.3567C85.3283 14.355 85.5425 14.4392 85.7041 14.5917C85.7777 14.6602 85.8337 14.7455 85.8674 14.8402C85.9012 14.935 85.9116 15.0364 85.8979 15.1361C84.1329 27.2325 82.3748 39.3042 80.6236 51.3511C80.6145 51.3972 80.588 51.4379 80.5496 51.4648C80.5111 51.4918 80.4637 51.5027 80.4174 51.4955C81.0882 39.3495 81.7603 27.1899 82.4339 15.0165C82.4586 14.8263 82.5544 14.6525 82.7021 14.53C82.8498 14.4076 83.0383 14.3457 83.2298 14.3567H85.1061ZM99.9022 107.463C99.9435 107.44 99.9911 107.43 100.038 107.435C100.086 107.442 100.128 107.467 100.158 107.505L125.313 139.707C125.393 139.806 125.441 139.928 125.449 140.055C125.457 140.182 125.425 140.308 125.358 140.417C125.282 140.532 125.178 140.627 125.055 140.692C124.933 140.757 124.796 140.79 124.657 140.788C123.948 140.788 123.284 140.788 122.624 140.755C122.377 140.755 122.08 140.437 121.923 140.206C119.758 136.998 117.622 133.777 115.461 130.569C112.542 126.231 109.612 121.901 106.674 117.579C104.447 114.28 102.22 110.995 99.993 107.723C99.9519 107.641 99.9214 107.554 99.9022 107.463ZM53.5839 140.272C53.5218 140.421 53.4158 140.546 53.2801 140.632C53.1445 140.719 52.9857 140.761 52.8251 140.755H50.8705C50.7438 140.758 50.618 140.733 50.5028 140.68C50.3877 140.627 50.2863 140.548 50.2065 140.45C50.1339 140.359 50.0884 140.25 50.0752 140.135C50.0621 140.019 50.0819 139.903 50.1323 139.798C54.7207 130.214 59.2926 120.669 63.848 111.162C63.8768 111.11 63.9231 111.069 63.9789 111.047C64.0347 111.025 64.0963 111.024 64.1532 111.043C60.6287 120.775 57.1056 130.518 53.5839 140.272ZM139.284 139.641C139.384 139.735 139.45 139.859 139.473 139.993C139.496 140.128 139.475 140.266 139.412 140.388C139.339 140.515 139.232 140.621 139.104 140.694C138.975 140.766 138.83 140.803 138.682 140.8C138.27 140.8 137.907 140.8 137.532 140.763C137.193 140.697 136.886 140.518 136.662 140.256C134.662 138.111 132.695 135.938 130.703 133.786C126.513 129.249 122.321 124.713 118.125 120.177C115.057 116.848 112.001 113.512 108.958 110.169C108.948 110.16 108.939 110.149 108.934 110.136C108.928 110.124 108.925 110.11 108.925 110.096C108.925 110.083 108.928 110.069 108.934 110.057C108.939 110.044 108.948 110.033 108.958 110.024C108.981 110.006 109.011 109.995 109.041 109.995C109.071 109.995 109.1 110.006 109.123 110.024L139.284 139.641ZM90.8835 47.0376C90.8676 47.0343 90.8525 47.0277 90.8392 47.0183C90.8259 47.0089 90.8146 46.9969 90.8061 46.983C90.7976 46.9691 90.7921 46.9536 90.7898 46.9375C90.7875 46.9213 90.7885 46.9049 90.7928 46.8892C91.0897 45.9902 91.3701 45.083 91.7 44.1922C92.599 41.7757 93.5104 39.3633 94.4341 36.955C95.3908 34.4436 96.3682 31.9405 97.3208 29.425C98.7765 25.5816 100.207 21.7382 101.655 17.8784C102.026 16.8969 102.377 15.9113 102.756 14.934C102.779 14.8235 102.824 14.7187 102.887 14.6255C102.951 14.5324 103.033 14.4529 103.128 14.3915C103.222 14.3302 103.328 14.2882 103.439 14.2681C103.55 14.2479 103.664 14.25 103.774 14.2742C104.112 14.3076 104.45 14.32 104.789 14.3113C104.916 14.3081 105.042 14.3336 105.157 14.3857C105.273 14.4378 105.375 14.5152 105.457 14.6123C105.531 14.702 105.578 14.8108 105.593 14.9262C105.607 15.0415 105.589 15.1586 105.539 15.2639L90.8835 47.0376ZM39.9754 140.771C39.8408 140.775 39.7072 140.746 39.5865 140.686C39.4657 140.627 39.3614 140.538 39.2826 140.429C39.2129 140.327 39.1757 140.206 39.1757 140.083C39.1757 139.959 39.2129 139.838 39.2826 139.736L56.2726 113.789C56.2987 113.755 56.3359 113.73 56.3779 113.72C56.4199 113.709 56.4642 113.713 56.5035 113.732L53.2994 119.629C50.9296 123.975 48.557 128.317 46.1817 132.656C44.8085 135.171 43.427 137.678 42.0579 140.194C41.9762 140.394 41.8296 140.56 41.6419 140.666C41.4541 140.772 41.2361 140.812 41.0229 140.779C40.6888 140.775 40.3507 140.771 39.9754 140.771ZM4.39129 63.5328C4.39298 63.4233 4.42172 63.3159 4.47496 63.2202C4.52821 63.1245 4.60429 63.0435 4.69645 62.9843C4.79694 62.9183 4.90977 62.8733 5.02813 62.852C5.14648 62.8307 5.26792 62.8337 5.38512 62.8606L37.196 69.8174C37.2463 69.8256 37.2916 69.8529 37.3223 69.8936C37.3531 69.9343 37.3669 69.9853 37.3609 70.036L34.6351 69.6236C32.2763 69.2607 29.9203 68.8951 27.567 68.5267C25.3277 68.172 23.0926 67.7968 20.8493 67.4462C18.0204 67.0009 15.1874 66.5844 12.3626 66.1308C10.1728 65.7802 7.99547 65.3926 5.80987 65.0297C5.3645 64.9555 4.91501 64.906 4.47376 64.8359C4.43665 64.8359 4.39541 64.7575 4.39129 64.7163V63.5328ZM150.662 110.758C150.636 110.864 150.585 110.961 150.513 111.042C150.441 111.123 150.351 111.186 150.25 111.224C150.143 111.27 150.028 111.294 149.911 111.294C149.795 111.294 149.68 111.27 149.573 111.224L115.263 94.9436C115.237 94.9335 115.214 94.918 115.194 94.8982C115.175 94.8783 115.16 94.8546 115.15 94.8285C115.14 94.8024 115.136 94.7746 115.138 94.7468C115.14 94.7191 115.147 94.692 115.16 94.6673C115.985 95.0014 116.81 95.3271 117.61 95.6735C123.826 98.3293 130.039 100.988 136.249 103.649C140.684 105.538 145.126 107.415 149.577 109.282C150.357 109.587 150.839 109.954 150.662 110.758ZM37.4352 59.5863C37.4042 59.6341 37.3582 59.6702 37.3044 59.6889C37.2506 59.7076 37.1922 59.7077 37.1383 59.6894C36.8496 59.5946 36.5609 59.5038 36.2846 59.3843C29.8185 56.6158 23.3511 53.857 16.8822 51.1078C12.8574 49.3923 8.83398 47.6768 4.81191 45.9613C4.71303 45.9146 4.62516 45.8474 4.55409 45.7642C4.48301 45.6811 4.43034 45.5838 4.39953 45.4789C4.39953 45.3139 4.37479 45.1489 4.37067 44.9799C4.37265 44.8528 4.40995 44.7288 4.47842 44.6217C4.54688 44.5147 4.64379 44.4288 4.7583 44.3737C4.88206 44.3126 5.01823 44.2808 5.15625 44.2808C5.29427 44.2808 5.43043 44.3126 5.55419 44.3737L37.4352 59.5863ZM118.327 81.2114C118.333 81.1786 118.352 81.1493 118.378 81.1294C118.405 81.1095 118.438 81.1005 118.472 81.1042L149.812 82.4651C150.004 82.4614 150.189 82.5312 150.33 82.6601C150.471 82.789 150.557 82.9672 150.571 83.1579V83.7393C150.569 83.8406 150.544 83.9401 150.497 84.0302C150.451 84.1203 150.385 84.1985 150.303 84.2589C150.123 84.3929 149.899 84.4533 149.676 84.428L118.327 81.2114ZM5.53358 119.385C5.41901 119.455 5.2893 119.495 5.15567 119.503C5.02203 119.511 4.88848 119.486 4.76655 119.431C4.64913 119.387 4.54722 119.31 4.47379 119.209C4.40036 119.108 4.35872 118.987 4.35417 118.862C4.35417 117.212 4.35417 117.212 6.03255 116.387C11.2285 113.811 16.4217 111.233 21.6122 108.651C21.694 108.612 21.7863 108.601 21.875 108.619C21.9637 108.638 22.0438 108.685 22.1029 108.754C22.1275 108.788 22.1446 108.827 22.1532 108.868C22.1617 108.909 22.1615 108.951 22.1525 108.992C22.1436 109.033 22.1261 109.071 22.1012 109.105C22.0763 109.139 22.0446 109.167 22.0081 109.187L5.53358 119.385ZM5.33563 89.7889C5.22158 89.8098 5.10451 89.8078 4.99123 89.783C4.87795 89.7582 4.77074 89.7112 4.67583 89.6446C4.58743 89.5854 4.51464 89.5058 4.46366 89.4125C4.41268 89.3191 4.38502 89.2148 4.38304 89.1085V89.0466C4.39359 88.8699 4.46799 88.7031 4.59241 88.5771C4.71683 88.4512 4.88277 88.3748 5.05934 88.3621L39.3321 83.7929C39.3777 83.7858 39.4244 83.7952 39.4637 83.8193C39.503 83.8435 39.5324 83.881 39.5465 83.9249L5.33563 89.7889ZM91.3578 139.951C91.3797 140.049 91.3777 140.152 91.3518 140.249C91.326 140.347 91.2771 140.437 91.2093 140.511C91.0553 140.674 90.8437 140.771 90.6196 140.779H90.5C89.9433 140.833 89.8072 140.627 89.7289 140.157C89.3165 137.88 88.8629 135.621 88.4381 133.348C88.0629 131.324 87.7206 129.291 87.3618 127.262C86.9412 124.867 86.5192 122.469 86.0958 120.066C85.6944 117.809 85.2931 115.554 84.8917 113.303C84.7886 112.746 84.669 112.193 84.5576 111.653C84.553 111.622 84.5548 111.591 84.5627 111.56C84.5707 111.53 84.5848 111.502 84.6041 111.477C84.6234 111.452 84.6475 111.432 84.6749 111.417C84.7024 111.402 84.7327 111.392 84.7638 111.389L91.3578 139.951ZM4.76243 108.61C4.72141 108.63 4.67625 108.641 4.63047 108.641C4.58468 108.641 4.53952 108.63 4.49851 108.61C4.46172 108.592 4.43026 108.564 4.40715 108.53C4.38403 108.496 4.37005 108.457 4.36654 108.416C4.32531 107.105 4.33768 107.129 5.77275 106.597C9.62024 105.171 13.4554 103.711 17.3193 102.284C22.2679 100.442 27.2274 98.6069 32.198 96.7787C32.2257 96.7687 32.256 96.7686 32.2838 96.7783C32.3116 96.7881 32.3352 96.8072 32.3505 96.8323C32.3565 96.8441 32.3599 96.857 32.3604 96.8702C32.3609 96.8834 32.3585 96.8965 32.3534 96.9087C32.3483 96.9209 32.3406 96.9318 32.3309 96.9407C32.3211 96.9496 32.3095 96.9562 32.2969 96.9602L4.76243 108.61ZM146.835 139.654C146.879 139.692 146.914 139.74 146.938 139.793C146.962 139.847 146.975 139.904 146.975 139.963C146.975 140.021 146.962 140.079 146.938 140.133C146.914 140.186 146.879 140.234 146.835 140.272C146.735 140.355 146.608 140.4 146.478 140.4C146.348 140.4 146.222 140.355 146.122 140.272L146.039 140.194C143.734 137.992 141.388 135.819 139.029 133.658C135.086 130.045 131.115 126.458 127.169 122.845C123.556 119.546 119.953 116.233 116.36 112.907C116.347 112.897 116.337 112.885 116.33 112.87C116.323 112.856 116.319 112.84 116.319 112.824C116.319 112.808 116.323 112.793 116.33 112.778C116.337 112.764 116.347 112.751 116.36 112.742C116.388 112.72 116.422 112.708 116.457 112.708C116.492 112.708 116.526 112.72 116.554 112.742C126.613 121.688 136.707 130.658 146.835 139.654ZM149.474 48.1016C149.607 48.044 149.751 48.0199 149.895 48.0314C150.039 48.0429 150.178 48.0897 150.299 48.1676C150.414 48.2348 150.505 48.3359 150.56 48.4569C150.616 48.5779 150.632 48.713 150.608 48.8439C150.505 49.3346 150.138 49.4707 149.153 49.8336C145.823 51.057 142.505 52.2941 139.198 53.545C134.601 55.2797 130.007 57.0213 125.416 58.7698C125.389 58.7799 125.36 58.7805 125.333 58.7715C125.306 58.7625 125.283 58.7444 125.268 58.7203C125.262 58.7082 125.259 58.6951 125.259 58.6818C125.259 58.6685 125.261 58.6553 125.266 58.643C125.271 58.6306 125.279 58.6195 125.288 58.6101C125.298 58.6007 125.309 58.5933 125.321 58.5884L149.474 48.1016ZM61.6954 33.2848C61.6531 33.296 61.6083 33.2923 61.5685 33.2743C61.5286 33.2562 61.4963 33.225 61.4768 33.1859C58.9778 27.2311 56.4706 21.2805 53.955 15.2763C53.9112 15.1719 53.8969 15.0574 53.9136 14.9455C53.9303 14.8335 53.9775 14.7282 54.0499 14.6412C54.13 14.5461 54.2306 14.4704 54.3442 14.4197C54.4577 14.369 54.5813 14.3446 54.7056 14.3484H55.1798C55.346 14.3407 55.5103 14.3862 55.6489 14.4781C55.7876 14.57 55.8933 14.7037 55.951 14.8598L61.6954 33.2848ZM81.7782 140.017C81.7847 140.114 81.7688 140.211 81.7316 140.301C81.6944 140.392 81.637 140.472 81.5638 140.536C81.4047 140.681 81.1972 140.76 80.9823 140.759C80.8235 140.768 80.6672 140.716 80.5458 140.613C80.4245 140.51 80.3475 140.365 80.3308 140.206C80.1356 132.157 79.9431 124.118 79.7534 116.09C79.754 116.073 79.7579 116.056 79.765 116.04C79.7722 116.024 79.7824 116.01 79.795 115.998C79.8076 115.986 79.8225 115.977 79.8387 115.971C79.8549 115.965 79.8722 115.962 79.8895 115.963C80.5163 123.954 81.1432 131.934 81.7782 140.017ZM149.705 66.2215C149.818 66.2001 149.935 66.2015 150.047 66.2256C150.16 66.2496 150.266 66.2959 150.361 66.3617C150.448 66.4211 150.519 66.5004 150.569 66.5929C150.62 66.6854 150.647 66.7885 150.65 66.8937C150.65 67.3638 150.406 67.4133 149.573 67.5287C146.979 67.8834 144.381 68.2009 141.788 68.5473C140.039 68.7782 138.299 69.0463 136.55 69.2731C134.517 69.5411 132.48 69.7721 130.447 70.0401C128.554 70.2875 126.661 70.5597 124.769 70.8195C124.742 70.8238 124.714 70.8183 124.69 70.8039C124.667 70.7895 124.649 70.7673 124.641 70.7412C124.639 70.7276 124.64 70.7138 124.644 70.7007C124.647 70.6875 124.654 70.6752 124.662 70.6644C124.67 70.6537 124.681 70.6447 124.693 70.6381C124.705 70.6314 124.718 70.6272 124.732 70.6257L149.705 66.2215ZM128.657 14.3278C128.809 14.3025 128.964 14.3199 129.106 14.3782C129.249 14.4365 129.371 14.5333 129.462 14.6577C129.542 14.7721 129.581 14.9105 129.572 15.0499C129.563 15.1893 129.506 15.3215 129.412 15.4247L117.865 28.7115C117.843 28.7359 117.813 28.7528 117.781 28.7602C117.749 28.7675 117.715 28.765 117.684 28.7528C117.71 28.6323 117.751 28.5158 117.808 28.4064C121.156 23.84 124.513 19.2791 127.878 14.7237C128.084 14.5051 128.359 14.3651 128.657 14.3278ZM44.8539 38.8643C44.8318 38.8812 44.8065 38.8935 44.7796 38.9006C44.7527 38.9077 44.7247 38.9094 44.6971 38.9055C44.6696 38.9043 44.6425 38.8975 44.6177 38.8854C44.5929 38.8734 44.5708 38.8564 44.5528 38.8354L23.7236 14.6742C23.665 14.6091 23.6327 14.5246 23.6327 14.4371C23.6327 14.3495 23.665 14.2651 23.7236 14.2C24.0947 14.3814 24.5855 14.4886 24.8164 14.7608C28.7134 19.3918 32.5732 24.0434 36.4496 28.6909L44.3714 38.1756C44.5487 38.4066 44.693 38.6416 44.8539 38.8643ZM118.035 140.635C117.969 140.694 117.887 140.732 117.8 140.745C117.712 140.757 117.623 140.744 117.544 140.705C117.339 140.636 117.156 140.512 117.016 140.346C115.523 137.946 114.092 135.522 112.608 133.118C110.645 129.955 108.645 126.804 106.669 123.633C106.257 122.977 105.865 122.317 105.465 121.658C105.452 121.633 105.445 121.607 105.445 121.579C105.445 121.552 105.452 121.525 105.465 121.501C105.475 121.473 105.491 121.447 105.512 121.426C105.532 121.405 105.557 121.388 105.585 121.377L118.035 140.635ZM100.941 140.182C100.954 140.225 100.958 140.27 100.953 140.315C100.948 140.359 100.933 140.402 100.91 140.441C100.887 140.48 100.857 140.513 100.82 140.54C100.784 140.566 100.742 140.584 100.698 140.594C100.605 140.62 100.506 140.613 100.418 140.574C100.33 140.535 100.258 140.466 100.216 140.379L100.191 140.318C99.2177 137.402 98.1991 134.503 97.1723 131.604C96.0424 128.416 94.8877 125.237 93.7537 122.053C93.748 122.037 93.746 122.02 93.7476 122.004C93.7493 121.987 93.7546 121.97 93.7633 121.956C93.7719 121.941 93.7837 121.929 93.7977 121.919C93.8117 121.91 93.8277 121.903 93.8444 121.901C93.8779 121.891 93.9139 121.893 93.9457 121.907C93.9776 121.922 94.0031 121.947 94.0176 121.979C96.3187 128.021 98.6239 134.07 100.941 140.182ZM75.6338 33.9199C75.5985 33.9223 75.5636 33.9114 75.5361 33.8892C75.5086 33.867 75.4904 33.8353 75.4853 33.8003C75.0729 27.4772 74.6606 21.143 74.2482 14.7979C74.2482 14.7539 74.257 14.7103 74.2741 14.6697C74.2912 14.6291 74.3162 14.5924 74.3477 14.5617C74.3792 14.5309 74.4166 14.5068 74.4576 14.4907C74.4985 14.4746 74.5423 14.4669 74.5863 14.468C74.6751 14.4585 74.7641 14.4836 74.8348 14.5382C74.9055 14.5928 74.9524 14.6725 74.9657 14.7608C74.9637 14.7786 74.9637 14.7966 74.9657 14.8144C75.1224 19.0124 75.3039 23.2104 75.4647 27.4043C75.5348 29.3177 75.5802 31.2312 75.6338 33.1446C75.6379 33.4003 75.6338 33.6601 75.6338 33.9199ZM19.5998 80.0362C19.6462 80.0315 19.6926 80.0454 19.7289 80.0747C19.7652 80.104 19.7884 80.1465 19.7936 80.1929C19.7931 80.2156 19.7881 80.238 19.7789 80.2588C19.7697 80.2796 19.7565 80.2984 19.74 80.3141C19.7235 80.3298 19.7041 80.3421 19.6829 80.3503C19.6617 80.3585 19.639 80.3625 19.6163 80.3619L4.82016 81.0918C4.7352 81.0999 4.6502 81.0768 4.58111 81.0267C4.51202 80.9765 4.46359 80.903 4.4449 80.8197C4.40366 80.4939 4.49851 80.4898 4.98099 80.4733C9.8718 80.3248 14.7255 80.1516 19.5998 80.0362ZM127.012 73.3762C127.006 73.3542 127.006 73.3311 127.011 73.3089C127.016 73.2866 127.026 73.2659 127.041 73.2484C127.056 73.2291 127.076 73.2132 127.098 73.2019C127.12 73.1905 127.144 73.1839 127.169 73.1824C128.315 73.0463 129.457 72.8979 130.604 72.7701C133.02 72.535 135.441 72.3577 137.858 72.0938C140.274 71.8298 142.621 71.5659 145.004 71.3061C146.678 71.1205 148.353 70.9391 150.027 70.7865C150.072 70.7803 150.118 70.7803 150.163 70.7865C150.22 70.7963 150.272 70.8262 150.309 70.8709C150.346 70.9155 150.366 70.9718 150.365 71.0298C150.357 71.0886 150.329 71.1427 150.285 71.1827C150.242 71.2227 150.185 71.246 150.126 71.2484C148.201 71.4463 146.267 71.6333 144.324 71.8092C140.112 72.1941 135.901 72.5721 131.692 72.9432L127.012 73.3762ZM26.1649 64.807C26.1614 64.8325 26.1516 64.8568 26.1365 64.8777C26.1214 64.8985 26.1014 64.9153 26.0783 64.9266C26.0544 64.9412 26.0278 64.9506 26.0001 64.9542C25.9723 64.9577 25.9442 64.9553 25.9174 64.9472C24.9855 64.7287 24.0535 64.5101 23.1215 64.2833L11.7646 61.5369C9.5955 61.0131 7.42227 60.5059 5.26553 59.9575C5.05815 59.9246 4.85295 59.8791 4.65109 59.8214C4.61926 59.8083 4.59034 59.789 4.56602 59.7647C4.5417 59.7403 4.52246 59.7114 4.50942 59.6796C4.49637 59.6477 4.48978 59.6136 4.49004 59.5792C4.49029 59.5448 4.49737 59.5107 4.51088 59.4791C4.54523 59.4119 4.60184 59.3588 4.67103 59.3287C4.74022 59.2986 4.81771 59.2935 4.89026 59.3141L26.1649 64.807ZM25.7731 89.0136C25.7754 89.0315 25.7741 89.0497 25.7693 89.0671C25.7646 89.0845 25.7564 89.1008 25.7452 89.115C25.7341 89.1291 25.7203 89.141 25.7045 89.1498C25.6888 89.1586 25.6714 89.1642 25.6535 89.1662L4.78717 93.7972C4.70046 93.8176 4.60987 93.8141 4.52495 93.7873C4.44003 93.7604 4.36394 93.7111 4.30469 93.6446C4.48201 93.5003 4.63459 93.2735 4.83666 93.2323C7.47175 92.692 10.1192 92.189 12.7584 91.6487C15.3317 91.1168 17.9008 90.5559 20.4699 89.9992C22.0163 89.6693 23.5628 89.3353 25.1133 89.0136C25.3328 88.993 25.5537 88.993 25.7731 89.0136ZM72.5079 140.087C72.4842 140.277 72.3886 140.452 72.2407 140.574C72.0928 140.697 71.9038 140.758 71.7121 140.746C71.6391 140.75 71.5664 140.738 71.4983 140.711C71.4301 140.685 71.3682 140.645 71.3162 140.594C71.2697 140.548 71.2346 140.493 71.2138 140.431C71.193 140.369 71.1871 140.304 71.1966 140.239L72.8873 130.169C72.8952 130.138 72.9142 130.11 72.9407 130.092C72.9673 130.074 72.9997 130.066 73.0317 130.07C72.8626 133.386 72.6894 136.701 72.5079 140.087ZM150.518 53.0872C150.573 53.1615 150.598 53.2541 150.587 53.3461C150.576 53.4381 150.531 53.5226 150.46 53.5821C150.391 53.653 150.306 53.7067 150.212 53.7388C145.517 55.3196 140.814 56.8921 136.105 58.4564C135.152 58.7739 134.192 59.0873 133.218 59.3884C133.185 59.3994 133.149 59.3984 133.117 59.3856C133.084 59.3727 133.058 59.3489 133.041 59.3183C133.035 59.3032 133.033 59.287 133.034 59.2709C133.035 59.2547 133.039 59.2389 133.046 59.2246C133.054 59.2102 133.064 59.1975 133.077 59.1874C133.089 59.1772 133.104 59.1698 133.119 59.1657L150.518 53.0872ZM37.031 41.0911C37.0525 41.0734 37.0795 41.0637 37.1073 41.0637C37.1352 41.0637 37.1622 41.0734 37.1836 41.0911L41.7198 45.0046C41.7309 45.0131 41.7399 45.024 41.7461 45.0365C41.7523 45.049 41.7555 45.0628 41.7555 45.0768C41.7555 45.0908 41.7523 45.1045 41.7461 45.1171C41.7399 45.1296 41.7309 45.1405 41.7198 45.1489C40.7713 44.3696 39.8022 43.6067 38.8702 42.8108C38.2146 42.2623 37.6331 41.6644 37.031 41.0911ZM94.2857 28.2332C94.2674 28.6485 94.2191 29.062 94.1413 29.4703C94.0836 29.6806 94.0176 29.8827 93.9434 30.0971C93.9316 30.1228 93.9109 30.1433 93.885 30.1547C93.8592 30.1661 93.8301 30.1676 93.8032 30.159C93.7901 30.1566 93.7777 30.1516 93.7667 30.1441C93.7558 30.1366 93.7465 30.127 93.7395 30.1157C93.7325 30.1044 93.7279 30.0918 93.7261 30.0787C93.7243 30.0655 93.7253 30.0522 93.7289 30.0394C93.9145 29.4538 94.1042 28.8641 94.2898 28.2744C94.2932 28.2606 94.2917 28.2461 94.2857 28.2332ZM30.033 82.4774L32.6268 82.2506C32.7018 82.2416 32.7773 82.2624 32.8371 82.3084C32.8652 82.3274 32.8887 82.3524 32.9058 82.3817C32.923 82.4109 32.9333 82.4437 32.9361 82.4774H30.0495H30.033ZM114.171 47.8088C114.182 47.8166 114.196 47.8208 114.21 47.8208C114.224 47.8208 114.237 47.8166 114.249 47.8088L115.898 46.1593C115.921 46.1368 115.948 46.119 115.978 46.1069C116.008 46.0949 116.04 46.0889 116.072 46.0892C116.137 46.0857 116.2 46.1079 116.249 46.151L114.171 47.8088Z" fill="#E0E0E0"/>
<path d="M76.8201 21.3011C67.3341 21.302 58.1134 24.4328 50.588 30.2081C43.0626 35.9833 37.6531 44.0803 35.1983 53.2432C32.7436 62.4062 33.3808 72.1231 37.0112 80.8869C40.6416 89.6508 47.0623 96.9719 55.2775 101.715V138.503H98.3669V101.711C106.582 96.9676 113.003 89.6461 116.634 80.8819C120.264 72.1176 120.901 62.4003 118.446 53.2371C115.99 44.074 110.58 35.977 103.054 30.2021C95.5279 24.4271 86.3066 21.2969 76.8201 21.297V21.3011Z" fill="#FFCABF"/>
<path d="M76.8197 92.1106C66.7246 92.1089 56.9504 88.5642 49.201 82.0945C41.4517 75.6247 36.2188 66.6404 34.4148 56.7079C33.9617 59.2437 33.734 61.8146 33.7344 64.3905C33.7357 70.3734 34.983 76.2905 37.3967 81.7648C39.8104 87.2392 43.3378 92.151 47.754 96.1873C52.1703 100.224 57.3787 103.296 63.0476 105.209C68.7165 107.122 74.7216 107.833 80.6805 107.297C86.6394 106.762 92.4215 104.991 97.6585 102.098C102.896 99.2056 107.473 95.2538 111.099 90.4948C114.724 85.7358 117.32 80.2738 118.719 74.4568C120.118 68.6398 120.29 62.5952 119.225 56.7079C117.421 66.6408 112.189 75.6256 104.439 82.0954C96.6896 88.5653 86.9149 92.1097 76.8197 92.1106Z" fill="#FFA694"/>
<path d="M98.3685 138.499V101.711C106.583 96.968 113.003 89.6473 116.633 80.8838C120.263 72.1204 120.9 62.4041 118.445 53.2419C115.99 44.0796 110.58 35.9835 103.055 30.2091C95.5297 24.4347 86.3093 21.3048 76.8238 21.3048C67.3384 21.3048 58.1179 24.4347 50.5926 30.2091C43.0673 35.9835 37.6576 44.0796 35.2026 53.2419C32.7476 62.4041 33.3845 72.1204 37.0144 80.8838C40.6443 89.6473 47.0645 96.968 55.2791 101.711V138.499" stroke="#45413C" stroke-width="2.42" stroke-linecap="round" stroke-linejoin="round"/>
<path d="M108.939 22.6991C108.939 22.6991 117.599 35.9364 102.881 42.786C91.3341 48.1717 81.7298 36.4684 81.7298 36.4684C90.4599 36.7323 104.72 27.8456 108.939 22.6991ZM44.7106 22.6991C44.7106 22.6991 36.0507 35.9364 50.7685 42.786C62.3151 48.1717 71.9194 36.4684 71.9194 36.4684C63.1893 36.7323 48.9169 27.8456 44.7106 22.6991Z" fill="#FFE500" stroke="#45413C" stroke-width="2.42" stroke-linecap="round" stroke-linejoin="round"/>
<path d="M68.4278 49.7965C68.4031 48.6774 68.6021 47.5647 69.0132 46.5236C69.4243 45.4825 70.0392 44.534 70.8219 43.7338C71.6046 42.9336 72.5392 42.2978 73.5709 41.8637C74.6027 41.4297 75.7107 41.2061 76.8301 41.2061C77.9494 41.2061 79.0574 41.4297 80.0892 41.8637C81.1209 42.2978 82.0556 42.9336 82.8382 43.7338C83.6209 44.534 84.2358 45.4825 84.6469 46.5236C85.0581 47.5647 85.2571 48.6774 85.2323 49.7965V64.6627C84.0157 64.04 81.1827 61.4998 81.1827 61.4998L76.828 64.6627L72.4609 61.6977C72.4609 61.6977 69.8299 63.9452 68.4278 64.6627V49.7965Z" fill="#FF866E" stroke="#45413C" stroke-width="2.42" stroke-linecap="round" stroke-linejoin="round"/>
<path d="M76.8207 103.822L69.9258 129.522L76.8207 137.934L83.7157 129.522L76.8207 103.822Z" fill="#EF233C" stroke="#45413C" stroke-width="2.42" stroke-linecap="round" stroke-linejoin="round"/>
<path d="M72.4375 105.653C72.4375 106.539 72.8993 107.389 73.7214 108.015C74.5435 108.641 75.6585 108.993 76.8211 108.993C77.9837 108.993 79.0987 108.641 79.9207 108.015C80.7428 107.389 81.2047 106.539 81.2047 105.653C81.2047 104.767 80.7428 103.918 79.9207 103.291C79.0987 102.665 77.9837 102.313 76.8211 102.313C75.6585 102.313 74.5435 102.665 73.7214 103.291C72.8993 103.918 72.4375 104.767 72.4375 105.653Z" fill="#EF233C" stroke="#45413C" stroke-width="2.42" stroke-linecap="round" stroke-linejoin="round"/>
<path d="M35.1055 101.542C45.4149 110.89 53.5223 122.82 59.3409 137.472C59.3409 137.472 62.1616 127.253 70.2813 125.365C66.1576 123.69 62.4132 119.732 62.4132 119.732L67.5308 112.235C64.2471 111.241 61.1656 109.673 58.4296 107.604L61.9059 99.3561L53.0357 100.515L52.5491 90.8569C49.4232 95.5003 42.0953 100.432 35.1055 101.542Z" fill="white" stroke="#45413C" stroke-width="2.42" stroke-linecap="round" stroke-linejoin="round"/>
<path d="M43.5391 120.622C43.5391 122.336 44.2199 123.98 45.4317 125.192C46.6436 126.404 48.2872 127.084 50.001 127.084C51.7149 127.084 53.3585 126.404 54.5703 125.192C55.7822 123.98 56.463 122.336 56.463 120.622C56.463 118.909 55.7822 117.265 54.5703 116.053C53.3585 114.841 51.7149 114.161 50.001 114.161C48.2872 114.161 46.6436 114.841 45.4317 116.053C44.2199 117.265 43.5391 118.909 43.5391 120.622Z" fill="#FFCABF" stroke="#45413C" stroke-width="2.42" stroke-linecap="round" stroke-linejoin="round"/>
<path d="M95.3206 133.621C99.032 120.21 106.005 107.583 116.455 95.7848C116.455 95.7848 106.063 97.8715 100.714 91.4796C101.086 95.9251 99.2382 101.043 99.2382 101.043L90.2401 99.855C90.8421 103.231 90.8421 106.686 90.2401 110.061L81.2914 110.688L86.3266 118.082L77.9141 122.862C83.4688 123.567 91.1803 127.88 95.3206 133.621Z" fill="white" stroke="#45413C" stroke-width="2.42" stroke-linecap="round" stroke-linejoin="round"/>
<path d="M97.1836 120.622C97.1836 122.336 97.8644 123.98 99.0763 125.192C100.288 126.404 101.932 127.084 103.646 127.084C105.359 127.084 107.003 126.404 108.215 125.192C109.427 123.98 110.108 122.336 110.108 120.622C110.108 118.909 109.427 117.265 108.215 116.053C107.003 114.841 105.359 114.161 103.646 114.161C101.932 114.161 100.288 114.841 99.0763 116.053C97.8644 117.265 97.1836 118.909 97.1836 120.622Z" fill="#FFCABF" stroke="#45413C" stroke-width="2.42" stroke-linecap="round" stroke-linejoin="round"/>
<path d="M116.456 91.4879C116.456 91.4879 124.213 89.591 126.353 91.4879C126.642 90.0817 124.056 88.4404 124.056 88.4404C124.056 88.4404 129.801 87.5538 131.669 89.2652C131.248 87.0631 121.339 80.7166 116.456 91.4879ZM41.1807 130.499C41.1807 130.499 33.6795 133.229 31.3166 131.579C31.1846 133.006 33.9311 134.355 33.9311 134.355C33.9311 134.355 28.3186 135.864 26.2773 134.383C26.9578 136.507 37.5023 141.74 41.1807 130.499ZM44.9911 84.3043C44.9911 84.3043 31.4032 94.6673 27.5722 84.4321C27.5722 84.4321 33.1517 86.7125 36.76 84.7826C40.7271 82.663 44.9911 84.3043 44.9911 84.3043ZM64.0182 86.4775C64.7193 89.3023 70.4802 93.8178 70.4802 93.8178C70.4802 93.8178 69.5441 90.2837 69.973 87.3971C71.2348 79.0052 60.9006 80.2465 60.9006 80.2465C62.344 80.9434 64.7193 81.6279 65.6801 83.9084C67.3915 87.9208 64.0182 86.4775 64.0182 86.4775ZM112.353 127.089C112.353 127.089 115.33 133.113 118.25 134.619C113.726 136.342 109.953 132.14 112.353 127.089Z" fill="white" stroke="#45413C" stroke-width="2.42" stroke-linecap="round" stroke-linejoin="round"/>
<path d="M27.1215 95.8715C27.8101 99.7313 23.9585 100.684 22.375 100.993C24.3585 102.601 25.208 104.173 23.806 107.125C26.9813 107.125 28.5524 109.233 28.3792 111.769C28.3792 111.769 32.0576 107.896 35.0144 110.412M122.822 99.2117C122.129 103.067 125.981 104.024 127.564 104.333C125.581 105.938 124.731 107.513 126.134 110.466C122.962 110.466 121.387 112.569 121.564 115.109C121.564 115.109 117.882 111.237 114.925 113.752" stroke="#FF512E" stroke-width="2.42" stroke-linecap="round" stroke-linejoin="round"/>
</svg>
