<svg width="155" height="155" viewBox="0 0 155 155" fill="none" xmlns="http://www.w3.org/2000/svg">
<path d="M144.45 57.013C142.075 43.0266 135.596 30.062 125.835 19.767C111.987 71.7803 59.2853 103.777 6.48438 91.6405C11.3205 105.935 20.5469 118.338 32.8477 127.08C82.2094 134.903 130.016 104.952 144.45 57.013Z" fill="#F7E5C6"/>
<path d="M133.488 46.7407C132.346 40.188 126.358 35.7838 121.237 33.1528C113.095 52.2812 99.2131 68.409 81.51 79.3079C63.8068 90.2068 43.1558 95.3389 22.4102 93.9951C23.2019 116.626 33.4866 103.319 33 108.123C32.5629 110.045 29.5773 110.507 31 115.818C36.5836 125.823 67.7017 122.346 89.7309 112.107C109.443 102.944 140.029 74.3041 133.488 46.7407Z" fill="#F0D5A8"/>
<path d="M32.848 127.08C82.2097 134.915 130.017 104.952 144.45 57.013M125.835 19.767C111.963 71.8793 59.0835 103.892 6.18359 91.5704" stroke="#45413C" stroke-width="2.42" stroke-linecap="round" stroke-linejoin="round"/>
<path d="M111.357 92.8157C105.407 98.1767 97.4891 98.1767 92.8911 97.5457C75.2413 118.165 40.7211 117.521 38.9479 117.534C37.1747 117.546 36.3994 116.123 36.5355 115.163C36.6016 114.693 36.8078 114.255 37.1271 113.905C37.4465 113.554 37.864 113.309 38.3252 113.2C41.1255 112.521 43.8882 111.695 46.6017 110.725C46.9311 110.605 47.2219 110.398 47.4435 110.126C47.665 109.854 47.8091 109.527 47.8606 109.18C47.9121 108.833 47.8691 108.479 47.7361 108.154C47.6031 107.829 47.385 107.547 47.1048 107.336C44.1191 105.1 42.2057 102.531 41.451 99.5911C41.379 99.3026 41.2418 99.0344 41.05 98.8071C40.8581 98.5799 40.6168 98.3996 40.3444 98.2801C40.072 98.1607 39.7759 98.1052 39.4788 98.118C39.1817 98.1308 38.8915 98.2115 38.6304 98.354L29.9704 103.092C29.5106 103.345 28.9791 103.434 28.4618 103.347C27.9446 103.26 27.472 103.001 27.1204 102.611C26.7688 102.222 26.5589 101.726 26.5245 101.202C26.4902 100.679 26.6335 100.159 26.9312 99.7272L33.6076 90.0817C34.6062 89.0216 35.8257 88.1943 37.1798 87.6584C38.5339 87.1225 39.9893 86.8911 41.4428 86.9806L49.0471 87.4507C52.6708 86.0923 55.839 83.7414 58.1895 80.6671C36.2262 70.2957 49.579 45.7798 50.9358 43.6891C52.8286 40.7653 55.4967 38.522 58.8039 38.1673C59.0514 38.1385 59.2905 38.1179 59.5297 38.0972L60.2184 38.0519H60.8328C58.6934 42.3859 57.4587 47.1101 57.2039 51.9367C57.175 51.9985 57.1379 52.0604 57.1091 52.1222C54.5523 56.7821 53.6203 62.1843 56.5029 66.8648C57.8153 69.0125 59.7178 70.7374 61.9834 71.8339C64.7134 76.5384 68.4806 80.5582 72.9983 83.5874C77.5161 86.6165 82.6652 88.5752 88.054 89.3145C93.4428 90.0537 98.9292 89.5539 104.096 87.8532C109.262 86.1525 113.973 83.2956 117.869 79.5C117.089 85.1744 114.896 89.6404 111.357 92.8157Z" fill="white"/>
<path d="M57.1406 53.8459C57.1406 63.337 60.9109 72.4394 67.6222 79.1506C74.3334 85.8618 83.4357 89.6321 92.9268 89.6321C102.418 89.6321 111.52 85.8618 118.231 79.1506C124.943 72.4394 128.713 63.337 128.713 53.8459C128.713 44.3549 124.943 35.2525 118.231 28.5413C111.52 21.8301 102.418 18.0598 92.9268 18.0598C83.4357 18.0598 74.3334 21.8301 67.6222 28.5413C60.9109 35.2525 57.1406 44.3549 57.1406 53.8459Z" fill="white"/>
<path d="M124.613 37.2395C125.871 45.6063 124.123 54.1482 119.68 61.3485C115.237 68.5488 108.386 73.9415 100.343 76.5689C92.3005 79.1964 83.587 78.8886 75.7499 75.7002C67.9128 72.5118 61.4592 66.6492 57.5352 59.1533C58.3053 64.2988 60.1884 69.2145 63.053 73.5578C65.9177 77.901 69.695 81.5673 74.1218 84.3011C78.5485 87.0349 83.5182 88.7704 88.6845 89.3867C93.8507 90.003 99.0892 89.4852 104.035 87.8695C108.98 86.2538 113.514 83.579 117.32 80.0316C121.126 76.4841 124.113 72.1493 126.072 67.3293C128.031 62.5093 128.915 57.3201 128.663 52.1234C128.411 46.9266 127.029 41.8473 124.613 37.2395Z" fill="#F0F0F0"/>
<path d="M81.887 44.155L96.5074 46.9151L95.8509 50.3918L81.2305 47.6318L81.887 44.155Z" fill="#656769" stroke="#45413C" stroke-width="2.42" stroke-linecap="round" stroke-linejoin="round"/>
<path d="M85.2821 47.4211C84.8136 49.8826 83.4612 52.0878 81.4797 53.6214C79.4982 55.155 77.0242 55.9111 74.5239 55.7474C72.0236 55.5836 69.6695 54.5113 67.9049 52.7324C66.1403 50.9534 65.0871 48.5907 64.9436 46.0891L64.8199 43.8746C64.7799 43.1621 64.9027 42.4499 65.1788 41.7919C65.455 41.134 65.8773 40.5475 66.4138 40.077C66.9503 39.6064 67.5869 39.2642 68.2753 39.0762C68.9637 38.8883 69.6858 38.8595 70.387 38.9921L82.346 41.2478C82.8665 41.3453 83.3627 41.5446 83.806 41.8342C84.2494 42.1239 84.6312 42.4982 84.9296 42.9357C85.2281 43.3732 85.4372 43.8653 85.5451 44.3837C85.653 44.9022 85.6575 45.4369 85.5584 45.9571L85.2821 47.4211Z" fill="#525252"/>
<path d="M82.3418 41.2478L75.4922 39.9735L65.0508 47.0994C65.3345 48.9199 66.1054 50.6298 67.2817 52.0479L82.8903 41.4003C82.7119 41.3345 82.5285 41.2835 82.3418 41.2478Z" fill="#656769"/>
<path d="M85.2821 47.4211C84.8136 49.8826 83.4612 52.0878 81.4797 53.6214C79.4982 55.155 77.0242 55.9111 74.5239 55.7474C72.0236 55.5836 69.6695 54.5113 67.9049 52.7324C66.1403 50.9534 65.0871 48.5907 64.9436 46.0891L64.8199 43.8746C64.7799 43.1621 64.9027 42.4499 65.1788 41.7919C65.455 41.134 65.8773 40.5475 66.4138 40.077C66.9503 39.6064 67.5869 39.2642 68.2753 39.0762C68.9637 38.8883 69.6858 38.8595 70.387 38.9921L82.346 41.2478C82.8665 41.3453 83.3627 41.5446 83.806 41.8342C84.2494 42.1239 84.6312 42.4982 84.9296 42.9357C85.2281 43.3732 85.4372 43.8653 85.5451 44.3837C85.653 44.9022 85.6575 45.4369 85.5584 45.9571L85.2821 47.4211Z" stroke="#45413C" stroke-width="2.42" stroke-linecap="round" stroke-linejoin="round"/>
<path d="M113.966 50.2087L128.399 58.5058C128.308 59.6312 128.13 60.7479 127.867 61.8461C126.523 61.0213 112.758 53.4253 112.758 53.4253L113.966 50.2087Z" fill="#656769" stroke="#45413C" stroke-width="2.42" stroke-linecap="round" stroke-linejoin="round"/>
<path d="M115.219 53.0707C114.758 55.5384 113.408 57.7516 111.426 59.2914C109.443 60.8313 106.964 61.591 104.459 61.427C101.954 61.2629 99.5959 60.1864 97.8309 58.4011C96.0658 56.6158 95.0163 54.2455 94.8808 51.7387L94.7571 49.5283C94.7179 48.8155 94.8414 48.1032 95.118 47.4451C95.3947 46.787 95.8173 46.2005 96.354 45.7297C96.8906 45.259 97.5273 44.9164 98.2158 44.7279C98.9043 44.5394 99.6267 44.5099 100.328 44.6417L112.287 46.8974C113.339 47.0964 114.268 47.7046 114.871 48.5884C115.474 49.4722 115.702 50.5593 115.504 51.6108L115.219 53.0707Z" fill="#525252"/>
<path d="M112.279 46.8974L105.434 45.6066L94.9922 52.7325C95.2759 54.5531 96.0468 56.263 97.2232 57.6811L112.828 47.0293C112.648 46.9743 112.464 46.9302 112.279 46.8974Z" fill="#656769"/>
<path d="M115.219 53.0707C114.758 55.5384 113.408 57.7516 111.426 59.2914C109.443 60.8313 106.964 61.591 104.459 61.427C101.954 61.2629 99.5959 60.1864 97.8309 58.4011C96.0658 56.6158 95.0163 54.2455 94.8808 51.7387L94.7571 49.5283C94.7179 48.8155 94.8414 48.1032 95.118 47.4451C95.3947 46.787 95.8173 46.2005 96.354 45.7297C96.8906 45.259 97.5273 44.9164 98.2158 44.7279C98.9043 44.5394 99.6267 44.5099 100.328 44.6417L112.287 46.8974C113.339 47.0964 114.268 47.7046 114.871 48.5884C115.474 49.4722 115.702 50.5593 115.504 51.6108L115.219 53.0707Z" stroke="#45413C" stroke-width="2.42" stroke-linecap="round" stroke-linejoin="round"/>
<path d="M67.4345 45.252C65.7849 48.7737 58.4157 49.8913 58.3869 49.9366C57.947 50.6129 57.5511 51.2741 57.1992 51.9202C57.454 47.0936 58.6887 42.3694 60.8281 38.0354C68.0695 37.9117 68.9314 42.0107 67.4345 45.252Z" fill="white"/>
<path d="M60.9609 38.0436C67.926 24.0805 83.4768 15.6473 99.5678 18.6824C106.005 19.8991 111.985 22.8592 116.855 27.2402C121.726 31.6212 125.301 37.255 127.19 43.5277C129.08 49.8004 129.211 56.4714 127.571 62.8137C125.93 69.156 122.58 74.9263 117.886 79.4959" stroke="#45413C" stroke-width="2.42" stroke-linecap="round" stroke-linejoin="round"/>
<path d="M91.7192 89.6157C80.9685 99.6695 69.3477 108.564 47.8009 108.346C47.94 108.821 47.8934 109.331 47.6706 109.772C47.4478 110.214 47.0654 110.555 46.6009 110.725C43.8874 111.695 41.1248 112.521 38.3245 113.2C37.8633 113.309 37.4457 113.554 37.1264 113.905C36.8071 114.255 36.6009 114.693 36.5347 115.163C36.3987 116.123 37.1739 117.55 38.9471 117.534C40.7204 117.517 75.2364 118.177 92.8904 97.5457C97.4884 98.156 105.406 98.1767 111.357 92.8157C114.895 89.6404 117.068 85.1744 117.88 79.4877C114.427 82.8517 110.33 85.4829 105.834 87.2234C101.338 88.9638 96.5373 89.7776 91.7192 89.6157Z" fill="#F0F0F0"/>
<path d="M61.9821 71.8174C60.9429 71.504 48.786 64.7616 58.3861 49.9366C58.415 49.8953 65.8089 48.7737 67.4296 45.252C69.0502 41.7302 67.9038 37.1735 58.7944 38.1632C55.4954 38.5219 52.8232 40.7653 50.9303 43.689C49.5736 45.7798 36.2208 70.2998 58.1841 80.667C55.8353 83.7423 52.6685 86.0945 49.0458 87.4548L41.4374 86.9847C39.9837 86.8931 38.5276 87.1236 37.1733 87.6597C35.8189 88.1957 34.5995 89.0241 33.6022 90.0857L26.9464 99.7395C26.6493 100.171 26.5062 100.689 26.54 101.212C26.5739 101.734 26.7827 102.23 27.133 102.62C27.4832 103.009 27.9543 103.269 28.4703 103.358C28.9864 103.446 29.5173 103.359 29.9774 103.109L38.6373 98.3663C38.8984 98.2239 39.1886 98.1431 39.4858 98.1303C39.7829 98.1175 40.079 98.173 40.3514 98.2924C40.6237 98.4119 40.8651 98.5922 41.0569 98.8194C41.2487 99.0467 41.386 99.3149 41.458 99.6034C42.2127 102.54 44.1261 105.113 47.1076 107.348C47.3879 107.559 47.6062 107.841 47.7395 108.165C47.8728 108.49 47.9162 108.844 47.8652 109.191C47.8141 109.538 47.6704 109.865 47.4493 110.137C47.2282 110.409 46.9377 110.617 46.6086 110.738C43.8958 111.709 41.133 112.535 38.3322 113.212C37.8708 113.319 37.4527 113.564 37.1332 113.913C36.8137 114.263 36.6077 114.702 36.5425 115.171C36.4105 116.132 37.1816 117.563 38.9549 117.546C40.7281 117.53 75.2442 118.185 92.894 97.558C97.4961 98.1684 105.41 98.189 111.369 92.8322C114.903 89.6486 117.076 85.1867 117.888 79.5" stroke="#45413C" stroke-width="2.42" stroke-linecap="round" stroke-linejoin="round"/>
<path d="M70.7833 81.966C66.2759 78.4172 62.687 73.8375 60.3188 68.6123C57.9506 63.3872 56.8723 57.6695 57.1748 51.9407M117.885 79.4959C114.295 82.9919 110.011 85.6942 105.309 87.4276C100.608 89.1611 95.5941 89.8868 90.594 89.5579" stroke="#45413C" stroke-width="2.42" stroke-linecap="round" stroke-linejoin="round"/>
<path d="M81.845 66.3657C81.7695 66.7421 81.7704 67.1297 81.8476 67.5057C81.9248 67.8817 82.0768 68.2383 82.2944 68.5544C82.512 68.8706 82.791 69.1398 83.1146 69.3461C83.4383 69.5524 83.8001 69.6916 84.1786 69.7554C84.557 69.8192 84.9445 69.8063 85.3179 69.7176C85.6913 69.6288 86.0431 69.4659 86.3523 69.2387C86.6616 69.0114 86.9221 68.7243 87.1183 68.3944C87.3145 68.0645 87.4425 67.6986 87.4946 67.3183L87.9729 64.4935C87.0389 64.8959 86.0085 65.02 85.0056 64.851C84.0027 64.682 83.0699 64.2271 82.3192 63.541L81.845 66.3657Z" fill="#FFB0CA" stroke="#45413C" stroke-width="2.42" stroke-linecap="round" stroke-linejoin="round"/>
<path d="M74.1357 66.4446C75.3007 66.6646 76.4529 66.6902 77.3389 66.5159C78.225 66.3416 78.7722 65.9816 78.8602 65.5152C78.9483 65.0487 78.5699 64.5141 77.8084 64.0287C77.0469 63.5434 75.9646 63.1472 74.7996 62.9273C73.6346 62.7074 72.4824 62.6818 71.5964 62.8561C70.7103 63.0304 70.1631 63.3904 70.075 63.8568C69.987 64.3232 70.3653 64.8579 71.1269 65.3432C71.8884 65.8285 72.9707 66.2247 74.1357 66.4446Z" fill="#FFB0CA"/>
<path d="M94.7528 70.3367C95.3297 70.4456 95.9095 70.508 96.4591 70.5202C97.0087 70.5324 97.5174 70.4943 97.9561 70.408C98.3948 70.3217 98.755 70.1889 99.016 70.0172C99.277 69.8455 99.4338 69.6382 99.4774 69.4073C99.521 69.1763 99.4506 68.9262 99.2701 68.6711C99.0896 68.4161 98.8027 68.1611 98.4256 67.9208C98.0485 67.6805 97.5888 67.4596 97.0725 67.2706C96.5563 67.0816 95.9937 66.9283 95.4168 66.8194C94.84 66.7105 94.2602 66.6482 93.7106 66.636C93.1609 66.6237 92.6522 66.6619 92.2135 66.7482C91.7748 66.8345 91.4147 66.9673 91.1536 67.139C90.8926 67.3107 90.7358 67.5179 90.6922 67.7489C90.6486 67.9798 90.7191 68.23 90.8995 68.485C91.08 68.74 91.367 68.995 91.744 69.2353C92.1211 69.4756 92.5809 69.6966 93.0971 69.8855C93.6134 70.0745 94.176 70.2278 94.7528 70.3367Z" fill="#FFB0CA"/>
<path d="M93.3176 60.4399C92.0145 60.0687 90.4062 62.7492 90.4062 62.7492C91.4333 62.5442 92.4991 62.6758 93.4455 63.1245" stroke="#45413C" stroke-width="2.42" stroke-linecap="round" stroke-linejoin="round"/>
<path d="M46.6018 110.725L45.8018 111.006L51.2287 116.758C55.9257 116.183 60.5727 115.254 65.1299 113.979C55.5916 107.9 50.4369 93.1621 48.742 87.4342L41.4388 86.9847C39.6332 86.8742 37.8318 87.2607 36.2305 88.1022L38.7047 98.3292C38.9627 98.1985 39.2467 98.1272 39.5358 98.1205C39.8249 98.1139 40.1119 98.172 40.3756 98.2906C40.6393 98.4092 40.8732 98.5853 41.06 98.8061C41.2469 99.0268 41.3819 99.2866 41.4553 99.5663C42.21 102.502 44.1234 105.076 47.1049 107.311C47.3852 107.522 47.6035 107.804 47.7368 108.128C47.8701 108.453 47.9135 108.807 47.8625 109.154C47.8114 109.501 47.6677 109.828 47.4466 110.1C47.2255 110.372 46.935 110.58 46.6059 110.701L46.6018 110.725Z" fill="#4ACFFF" stroke="#45413C" stroke-width="2.42" stroke-linecap="round" stroke-linejoin="round"/>
<path d="M48.0117 100.593C49.8179 98.7829 53.286 99.2076 53.286 99.2076C53.286 99.2076 51.1375 101.183 51.6365 102.919" stroke="#45413C" stroke-width="2.42" stroke-linecap="round" stroke-linejoin="round"/>
<path d="M79.2617 59.8419C79.2617 60.2061 79.4064 60.5554 79.6639 60.8129C79.9215 61.0704 80.2707 61.2151 80.6349 61.2151C80.9991 61.2151 81.3484 61.0704 81.6059 60.8129C81.8635 60.5554 82.0082 60.2061 82.0082 59.8419C82.0082 59.4777 81.8635 59.1284 81.6059 58.8709C81.3484 58.6134 80.9991 58.4687 80.6349 58.4687C80.2707 58.4687 79.9215 58.6134 79.6639 58.8709C79.4064 59.1284 79.2617 59.4777 79.2617 59.8419Z" fill="#45413C"/>
<path d="M134.16 91.6899C132.647 91.6899 131.195 92.2912 130.125 93.3616C129.054 94.4319 128.453 95.8836 128.453 97.3973H134.16C134.16 97.6735 134.16 97.9457 134.119 98.222C134.001 99.8727 133.512 101.475 132.688 102.911C133.168 103.042 133.663 103.109 134.16 103.109C135.674 103.109 137.126 102.507 138.196 101.437C139.266 100.367 139.868 98.9151 139.868 97.4014C139.868 95.8877 139.266 94.436 138.196 93.3657C137.126 92.2954 135.674 91.6941 134.16 91.6941V91.6899Z" fill="#FFAA54" stroke="#EB6D00" stroke-width="2.42" stroke-linecap="round" stroke-linejoin="round"/>
<path d="M134.162 97.3973V91.6899M134.162 97.3973L138.199 93.3601M134.162 97.3973H139.87M134.162 97.3973L138.199 101.434M134.162 97.3973L130.125 93.3601" stroke="#EB6D00" stroke-width="2.42" stroke-linecap="round" stroke-linejoin="round"/>
<path d="M98.0067 120.094H145.838C145.838 120.094 147.521 120.094 147.521 121.777V126.618C147.521 126.618 147.521 128.301 145.838 128.301H98.0067C98.0067 128.301 96.3242 128.301 96.3242 126.618V121.777C96.3242 121.777 96.3242 120.094 98.0067 120.094Z" fill="#DEBB7E"/>
<path d="M125.36 120.095C123.744 118.478 124.346 107.406 124.346 107.406H121.847C121.847 107.406 122.482 118.445 120.828 120.095H125.36Z" fill="#E5F8FF" stroke="#45413C" stroke-width="2.42" stroke-linecap="round" stroke-linejoin="round"/>
<path d="M134.16 97.3972C134.248 98.911 134.025 100.427 133.506 101.851C132.987 103.276 132.182 104.58 131.141 105.682C130.101 106.785 128.846 107.663 127.453 108.264C126.061 108.864 124.561 109.174 123.044 109.174C121.528 109.174 120.028 108.864 118.635 108.264C117.243 107.663 115.988 106.785 114.947 105.682C113.907 104.58 113.102 103.276 112.583 101.851C112.064 100.427 111.841 98.911 111.929 97.3972H134.16Z" fill="#E5F8FF"/>
<path d="M113.562 103.175C114.716 105.076 116.414 106.586 118.437 107.511C120.459 108.435 122.712 108.731 124.905 108.36C127.097 107.989 129.128 106.968 130.733 105.43C132.339 103.891 133.445 101.906 133.909 99.7313C125.876 107.661 120.074 97.8385 113.562 103.175Z" fill="#FF87AF"/>
<path d="M144.914 124.198H98.9422C98.3463 124.197 97.7687 123.991 97.3057 123.616C96.8427 123.241 96.5223 122.719 96.3978 122.136C96.356 122.318 96.3352 122.505 96.336 122.692V125.682C96.336 126.373 96.6105 127.036 97.0993 127.525C97.5881 128.014 98.251 128.288 98.9422 128.288H144.914C145.605 128.288 146.268 128.014 146.757 127.525C147.246 127.036 147.52 126.373 147.52 125.682V122.692C147.519 122.505 147.498 122.319 147.458 122.136C147.334 122.719 147.014 123.241 146.551 123.616C146.088 123.991 145.51 124.197 144.914 124.198Z" fill="#B89558"/>
<path d="M98.0067 120.094H145.838C145.838 120.094 147.521 120.094 147.521 121.777V126.618C147.521 126.618 147.521 128.301 145.838 128.301H98.0067C98.0067 128.301 96.3242 128.301 96.3242 126.618V121.777C96.3242 121.777 96.3242 120.094 98.0067 120.094Z" stroke="#45413C" stroke-width="2.42" stroke-linecap="round" stroke-linejoin="round"/>
<path d="M102.584 137.819L105.595 128.301H100.893L97.8789 137.819M145.962 137.819L142.952 128.301H138.247L141.245 137.769" fill="#DEBB7E"/>
<path d="M102.584 137.819L105.595 128.301H100.893L97.8789 137.819M145.962 137.819L142.952 128.301H138.247L141.245 137.769" stroke="#45413C" stroke-width="2.42" stroke-linecap="round" stroke-linejoin="round"/>
<path d="M134.16 97.3972C134.248 98.911 134.025 100.427 133.506 101.851C132.987 103.276 132.182 104.58 131.141 105.682C130.101 106.785 128.846 107.663 127.453 108.264C126.061 108.864 124.561 109.174 123.044 109.174C121.528 109.174 120.028 108.864 118.635 108.264C117.243 107.663 115.988 106.785 114.947 105.682C113.907 104.58 113.102 103.276 112.583 101.851C112.064 100.427 111.841 98.911 111.929 97.3972H134.16Z" stroke="#45413C" stroke-width="2.42" stroke-linecap="round" stroke-linejoin="round"/>
<path d="M105.785 48.9964C110.849 48.9469 115.006 54.0274 115.068 60.3409C115.006 54.0274 119.06 48.8644 124.14 48.8149C119.076 48.8644 114.923 43.788 114.862 37.4704C114.907 43.788 110.849 48.9469 105.785 48.9964Z" fill="white" stroke="#45413C" stroke-width="2.42" stroke-linecap="round" stroke-linejoin="round"/>
</svg>
