<svg width="155" height="155" viewBox="0 0 155 155" fill="none" xmlns="http://www.w3.org/2000/svg">
<path d="M145.016 42.9509C139.321 43.0623 131.272 44.1881 129.16 41.7715C127.424 39.6601 128.921 34.291 129.123 29.7548C129.119 29.7178 129.119 29.6805 129.123 29.6435C129.132 29.6127 129.132 29.58 129.124 29.5491C129.115 29.5182 129.098 29.4903 129.075 29.4685C129.051 29.4467 129.022 29.4318 128.991 29.4256C128.959 29.4194 128.927 29.422 128.897 29.4332C125.144 30.7734 118.463 33.9198 114.929 30.2579C111.973 27.3259 111.667 19.9485 111.321 15.7339V15.6597C111.321 15.4948 111.135 15.3546 110.966 15.5649C109.078 17.9443 105.77 21.965 102.216 22.8475H102.187C101.639 22.9952 101.076 23.0769 100.508 23.0908H100.455C94.8011 22.8763 92.2072 16.2535 90.6567 10.8308V10.7978C90.6556 10.7583 90.6418 10.7203 90.6172 10.6894C90.5925 10.6586 90.5585 10.6366 90.5203 10.6268C90.4821 10.617 90.4417 10.6199 90.4053 10.6352C90.3689 10.6504 90.3384 10.6771 90.3185 10.7112C89.7742 11.7215 89.003 13.3628 88.6195 14.0473C88.3185 14.5752 88.0381 15.1071 87.7577 15.6391C86.8752 17.1979 84.871 20.1052 83.4937 21.0495H83.4689C83.089 21.4138 82.655 21.7171 82.1823 21.9485H82.1534C81.735 22.2242 81.2796 22.4394 80.8008 22.5877H80.7596C80.5348 22.6588 80.3021 22.7017 80.0668 22.7155H80.0256C79.7947 22.7723 79.5581 22.8027 79.3204 22.8062H79.2957C78.8122 22.8127 78.3299 22.7573 77.8606 22.6413H77.7699C75.1719 22.299 71.7945 18.8804 70.7924 17.9814C70.7697 17.96 70.749 17.9365 70.7306 17.9113C70.7077 17.8825 70.6768 17.8611 70.6418 17.8498C70.6068 17.8386 70.5692 17.838 70.5338 17.8482C70.4985 17.8584 70.4669 17.8788 70.4432 17.9069C70.4195 17.935 70.4047 17.9696 70.4007 18.0062C70.0666 21.4536 70.2811 29.4373 64.1366 29.5239C59.7283 29.594 53.8272 26.1712 50.0168 23.8949L49.9632 23.8578C49.932 23.831 49.8927 23.8156 49.8516 23.814C49.8105 23.8125 49.7701 23.825 49.737 23.8494C49.7039 23.8739 49.6802 23.9088 49.6696 23.9486C49.659 23.9883 49.6622 24.0304 49.6786 24.0681C51.6374 28.3981 55.1179 34.8642 53.8931 38.3405C52.4746 42.0148 44.8208 41.6396 40.6682 42.0519C40.6055 42.0641 40.5411 42.0641 40.4785 42.0519C38.829 41.5447 47.6003 49.6067 47.0353 52.7202C46.4703 55.8336 35.9794 56.811 27.6535 59.912L27.5545 59.9368C27.5173 59.9447 27.4836 59.9644 27.4585 59.9929C27.4333 60.0214 27.4179 60.0572 27.4147 60.0952C27.4115 60.1331 27.4205 60.171 27.4405 60.2034C27.4605 60.2358 27.4903 60.2608 27.5257 60.2749L27.5999 60.3038C31.9794 62.0894 44.994 65.6235 42.4661 71.9741C42.4644 71.9823 42.4644 71.9907 42.4661 71.9989C41.7569 74.1185 39.2207 76.8938 37.8021 78.2464C37.8021 78.2464 36.5897 79.4835 36.3382 79.7351C36.3156 79.7581 36.2907 79.7788 36.264 79.7969C36.1361 79.8835 36.1361 80.1062 36.4083 80.131C40.0372 80.4526 47.5425 80.6382 48.3178 85.8135C48.9735 90.0486 44.7136 95.6116 42.1816 98.9065C42.1614 98.9341 42.1379 98.959 42.1115 98.9808C42.0845 99.0037 42.0652 99.0343 42.0562 99.0685C42.0472 99.1027 42.0488 99.1389 42.061 99.1721C42.0731 99.2053 42.0951 99.2341 42.124 99.2544C42.153 99.2748 42.1875 99.2858 42.2228 99.2859C42.8084 99.2859 43.0476 99.2859 44.4414 99.1746H44.4868C48.6353 98.523 51.4477 99.9251 53.5303 101.236C53.5712 101.262 53.6075 101.294 53.6375 101.331C56.6685 104.853 58.5159 106.325 55.7818 119.6C55.7571 119.719 55.7406 119.818 55.8602 119.876C55.9001 119.897 55.9462 119.902 55.9896 119.89C56.033 119.879 56.0707 119.852 56.0952 119.814C60.2891 116.053 65.0191 111.529 70.8708 111.307H70.9038C73.2007 111.43 74.0914 112.082 75.176 113.261L75.2007 113.29C75.9384 114.256 76.4856 115.353 76.8131 116.523C77.1788 117.813 77.4544 119.126 77.6379 120.453C77.6379 120.556 77.6626 120.635 77.774 120.672C77.8135 120.684 77.856 120.681 77.8938 120.665C77.9316 120.648 77.9623 120.618 77.9802 120.581L78.0338 120.507C82.7967 114.734 86.3185 109.715 91.3041 116.647C93.5969 119.855 95.5722 124.453 96.8588 126.994C96.9001 127.08 96.9372 127.15 97.0485 127.146C97.096 127.145 97.141 127.126 97.1742 127.092C97.2073 127.058 97.2259 127.012 97.2259 126.965C99.6259 119.624 101.222 111.204 106.038 112.301C108.975 112.853 113.201 116.132 116.389 117.963C116.418 117.981 116.451 117.991 116.484 117.994C116.518 117.997 116.552 117.991 116.583 117.978C116.615 117.964 116.642 117.943 116.664 117.917C116.685 117.891 116.7 117.86 116.707 117.826C117.841 112.466 118.183 105.166 121.655 103.657C124.987 102.251 132.286 106.181 136.695 107.905C136.734 107.918 136.777 107.917 136.816 107.903C136.855 107.889 136.888 107.861 136.909 107.826C136.93 107.79 136.939 107.748 136.933 107.707C136.927 107.666 136.907 107.628 136.876 107.599C134.282 103.014 128.121 94.1889 132.451 90.4569C134.864 88.2218 140.212 87.595 143.61 87.0218C143.722 87.0218 143.808 86.9971 143.837 86.8816C143.843 86.8594 143.845 86.8362 143.842 86.8133C143.839 86.7904 143.832 86.7683 143.82 86.7484C143.809 86.7284 143.793 86.7109 143.775 86.697C143.757 86.683 143.736 86.6729 143.713 86.6671C138.723 82.6382 130.859 76.9598 134.711 72.0772C135.672 70.7988 137.441 69.5741 138.806 68.7534C140.171 67.9328 141.75 67.1039 142.08 66.9101L142.175 66.8689C142.206 66.86 142.235 66.8423 142.256 66.8179C142.278 66.7934 142.292 66.7632 142.297 66.731C142.301 66.6987 142.297 66.6658 142.283 66.6361C142.27 66.6064 142.248 66.5813 142.22 66.5637C138.781 64.3863 131.791 61.1739 132.068 57.1409C132.406 52.9016 139.008 48.1098 145.099 43.3509C145.131 43.3256 145.155 43.2907 145.166 43.2512C145.177 43.2117 145.176 43.1696 145.161 43.1311C145.147 43.0925 145.121 43.0595 145.087 43.0367C145.053 43.014 145.012 43.0027 144.971 43.0045L145.016 42.9509Z" fill="#FFE500"/>
<path d="M102.81 123.633C96.5087 123.633 92.3726 122.227 88.323 120.849C83.6631 119.27 79.2507 117.777 70.467 118.416C69.8172 118.464 69.1644 118.382 68.5458 118.178C67.9273 117.973 67.3552 117.648 66.8622 117.222C66.3692 116.796 65.9649 116.277 65.6724 115.695C65.38 115.112 65.2051 114.478 65.1577 113.828C65.1103 113.179 65.1914 112.526 65.3963 111.907C65.6012 111.289 65.9259 110.717 66.3519 110.224C66.7779 109.731 67.2969 109.326 67.8791 109.034C68.4614 108.741 69.0955 108.566 69.7454 108.519C80.5538 107.731 86.3766 109.711 91.5148 111.455C97.218 113.393 101.721 114.923 113.556 112.387C114.194 112.252 114.852 112.243 115.492 112.362C116.133 112.481 116.744 112.725 117.29 113.08C117.837 113.435 118.308 113.894 118.677 114.431C119.046 114.968 119.306 115.573 119.441 116.21C119.576 116.847 119.585 117.505 119.466 118.146C119.347 118.787 119.103 119.398 118.748 119.944C118.393 120.49 117.934 120.962 117.397 121.331C116.86 121.7 116.256 121.959 115.618 122.095C111.415 123.057 107.122 123.572 102.81 123.633Z" fill="#E0E0E0" stroke="#45413C" stroke-width="2.42" stroke-linecap="round" stroke-linejoin="round"/>
<path d="M131.762 106.964C130.689 107.714 129.576 108.402 128.426 109.026" stroke="#45413C" stroke-width="2.42" stroke-linecap="round" stroke-linejoin="round"/>
<path d="M110.599 113.327C109.308 117.682 108.479 123.225 107.626 128.998H134.352C134.265 121.586 133.397 114.203 131.762 106.973C138.706 102.14 143.699 94.9888 145.843 86.805C147.988 78.6213 147.145 69.9409 143.464 62.3232C139.784 54.7055 133.508 48.6498 125.764 45.2439C118.019 41.838 109.314 41.3051 101.212 43.7411C93.1105 46.177 86.1427 51.4221 81.5607 58.534C76.9787 65.646 75.0828 74.1587 76.2136 82.543C77.3444 90.9272 81.4278 98.6335 87.7302 104.278C94.0326 109.921 102.141 113.133 110.599 113.336V113.327Z" fill="white"/>
<path d="M110.599 113.327C109.308 117.682 108.479 123.225 107.626 128.998H134.352C134.265 121.586 133.397 114.203 131.762 106.973C138.706 102.14 143.699 94.9888 145.843 86.805C147.988 78.6213 147.145 69.9409 143.464 62.3232C139.784 54.7055 133.508 48.6498 125.764 45.2439C118.019 41.838 109.314 41.3051 101.212 43.7411C93.1105 46.177 86.1427 51.4221 81.5607 58.534C76.9787 65.646 75.0828 74.1587 76.2136 82.543C77.3444 90.9272 81.4278 98.6335 87.7302 104.278C94.0326 109.921 102.141 113.133 110.599 113.336V113.327Z" stroke="#45413C" stroke-width="2.42" stroke-linecap="round" stroke-linejoin="round"/>
<path d="M110.288 94.1436C110.288 94.1436 106.915 102.614 114.99 105.896M100.849 67.4915C100.849 67.4915 93.2407 65.842 93.2696 55.3965" stroke="#45413C" stroke-width="2.42" stroke-linecap="round" stroke-linejoin="round"/>
<path d="M51.8451 119.414C51.8848 119.25 51.9782 119.104 52.1105 119C52.2428 118.895 52.4064 118.838 52.575 118.837H85.9983V123.633H51.8039C51.6911 123.633 51.5797 123.607 51.4782 123.558C51.3767 123.509 51.2875 123.437 51.2174 123.349C51.1472 123.26 51.0979 123.157 51.0731 123.047C51.0483 122.937 51.0486 122.823 51.074 122.713L51.8451 119.414Z" fill="#BDBEC0" stroke="#45413C" stroke-width="2.42" stroke-linecap="round" stroke-linejoin="round"/>
<path d="M79.4348 119.414C79.4729 119.25 79.5654 119.104 79.6972 118.999C79.8289 118.894 79.9922 118.837 80.1606 118.837H90.6103C90.7793 118.836 90.9436 118.893 91.0762 118.998C91.2088 119.103 91.3019 119.249 91.3402 119.414L92.1113 122.713C92.1377 122.823 92.1385 122.937 92.1134 123.048C92.0884 123.158 92.0383 123.261 91.967 123.348C91.8972 123.437 91.8083 123.508 91.7068 123.558C91.6054 123.607 91.4942 123.633 91.3814 123.633H78.4492L79.4348 119.414Z" fill="#87898C" stroke="#45413C" stroke-width="2.42" stroke-linecap="round" stroke-linejoin="round"/>
<path d="M128.553 119.27C128.235 119.982 127.753 120.608 127.147 121.098C126.541 121.588 125.827 121.928 125.065 122.09C120.856 123.055 116.557 123.572 112.24 123.633C105.938 123.633 101.802 122.227 97.7527 120.849C93.0928 119.27 88.6804 117.777 79.8967 118.416C79.2469 118.464 78.5941 118.382 77.9755 118.178C77.357 117.973 76.7849 117.648 76.2919 117.222C75.7989 116.796 75.3946 116.277 75.1021 115.695C74.8097 115.112 74.6347 114.478 74.5874 113.828C74.54 113.179 74.621 112.526 74.826 111.907C75.0309 111.289 75.3556 110.717 75.7816 110.224C76.2076 109.731 76.7266 109.326 77.3088 109.034C77.8911 108.741 78.5252 108.566 79.1751 108.519C89.9835 107.731 95.8063 109.711 100.945 111.455C105.699 113.068 109.604 114.404 117.65 113.332" fill="white"/>
<path d="M128.553 119.27C128.235 119.982 127.753 120.608 127.147 121.098C126.541 121.588 125.827 121.928 125.065 122.09C120.856 123.055 116.557 123.572 112.24 123.633C105.938 123.633 101.802 122.227 97.7527 120.849C93.0928 119.27 88.6804 117.777 79.8967 118.416C79.2469 118.464 78.5941 118.382 77.9755 118.178C77.357 117.973 76.7849 117.648 76.2919 117.222C75.7989 116.796 75.3946 116.277 75.1021 115.695C74.8097 115.112 74.6347 114.478 74.5874 113.828C74.54 113.179 74.621 112.526 74.826 111.907C75.0309 111.289 75.3556 110.717 75.7816 110.224C76.2076 109.731 76.7266 109.326 77.3088 109.034C77.8911 108.741 78.5252 108.566 79.1751 108.519C89.9835 107.731 95.8063 109.711 100.945 111.455C105.699 113.068 109.604 114.404 117.65 113.332" stroke="#45413C" stroke-width="2.42" stroke-linecap="round" stroke-linejoin="round"/>
<path d="M142.659 123.633H18.9453C18.9453 126.476 20.0749 129.203 22.0857 131.214C24.0964 133.225 26.8235 134.355 29.6671 134.355H131.937C134.781 134.355 137.508 133.225 139.518 131.214C141.529 129.203 142.659 126.476 142.659 123.633Z" fill="#F7E5C6"/>
<path d="M141.845 123.633H19.7812" stroke="#45413C" stroke-width="2.42" stroke-linecap="round" stroke-linejoin="round"/>
<path d="M88.4428 91.9868C77.4735 96.1642 67.3001 97.1291 57.4773 96.6508L55.3906 76.7824C65.7245 75.1441 76.1934 74.5171 86.6489 74.9102L88.4428 91.9868Z" fill="#E0E0E0" stroke="#45413C" stroke-width="2.42" stroke-linecap="round" stroke-linejoin="round"/>
<path d="M102.489 102.065C111.685 101.1 118.518 98.4735 116.621 80.4072C114.658 61.7554 107.491 61.1945 98.2946 62.1595C92.5213 62.7657 87.6429 66.84 85.0985 72.5185L77.8571 72.3906C76.7899 80.849 77.6917 89.4397 80.4922 97.4921L88.2243 95.7024C91.8863 100.098 97.1235 102.63 102.489 102.065Z" fill="#EF233C" stroke="#45413C" stroke-width="2.42" stroke-linecap="round" stroke-linejoin="round"/>
<path d="M93.4971 79.6279C87.8311 80.2258 85.0805 75.7474 84.5691 70.8855C84.0578 66.0235 87.2702 62.473 91.6456 62.0111C96.0209 61.5492 99.8931 64.3534 100.413 69.2195C100.932 74.0855 99.1632 79.0341 93.4971 79.6279Z" fill="#EF233C" stroke="#45413C" stroke-width="2.42" stroke-linecap="round" stroke-linejoin="round"/>
<path d="M95.2678 79.2649C95.2678 79.2649 94.41 91.4548 99.3586 95.7105C104.307 99.9663 107.845 96.9477 107.845 96.9477" stroke="#45413C" stroke-width="2.42" stroke-linecap="round" stroke-linejoin="round"/>
<path d="M44.4502 119.047L30.4293 121.67C30.2677 121.7 30.1011 121.692 29.9433 121.645C29.7855 121.599 29.6411 121.515 29.5221 121.402C29.4039 121.287 29.3143 121.147 29.2606 120.991C29.2069 120.836 29.1905 120.67 29.2128 120.507L29.7943 116.264C29.825 116.051 29.9208 115.853 30.0685 115.698C30.2162 115.542 30.4085 115.435 30.619 115.393L43.312 113.022L44.4502 119.047Z" fill="#BDBEC0" stroke="#45413C" stroke-width="2.42" stroke-linecap="round" stroke-linejoin="round"/>
<path d="M68.3219 104.668L62.0826 105.835L54.1484 63.3596L60.3877 62.1925C61.0162 62.075 61.6617 62.0825 62.2873 62.2145C62.9129 62.3466 63.5063 62.6007 64.0337 62.9622C64.561 63.3237 65.012 63.7856 65.3607 64.3215C65.7095 64.8574 65.9492 65.4568 66.0662 66.0854L72.2147 98.9849C72.3329 99.6137 72.3258 100.26 72.1941 100.886C72.0623 101.512 71.8083 102.106 71.4468 102.634C71.0852 103.161 70.6231 103.613 70.0869 103.962C69.5507 104.311 68.9509 104.551 68.3219 104.668Z" fill="#87898C" stroke="#45413C" stroke-width="2.42" stroke-linecap="round" stroke-linejoin="round"/>
<path d="M8.28745 71.9305L55.3831 63.1338C55.3831 63.1338 60.1705 62.2396 61.0647 67.027L67.2098 99.9266C67.2098 99.9266 68.104 104.714 63.3166 105.608L16.221 114.405C16.221 114.405 11.4336 115.299 10.5394 110.512L4.39427 77.6121C4.39427 77.6121 3.50006 72.8247 8.28745 71.9305Z" fill="#F0F0F0"/>
<path d="M61.2911 68.2174L61.0684 67.0215C60.8311 65.7525 60.0997 64.6297 59.0349 63.8997C57.9701 63.1697 56.6591 62.8924 55.3899 63.1286L8.29218 71.9329C7.66359 72.0499 7.06422 72.2896 6.52832 72.6384C5.99242 72.9871 5.53051 73.4381 5.16898 73.9654C4.80745 74.4928 4.55339 75.0862 4.42133 75.7118C4.28927 76.3374 4.2818 76.9829 4.39933 77.6114L4.62202 78.8073L61.2911 68.2174Z" fill="white"/>
<path d="M8.28745 71.9305L55.3831 63.1338C55.3831 63.1338 60.1705 62.2396 61.0647 67.027L67.2098 99.9266C67.2098 99.9266 68.104 104.714 63.3166 105.608L16.221 114.405C16.221 114.405 11.4336 115.299 10.5394 110.512L4.39427 77.6121C4.39427 77.6121 3.50006 72.8247 8.28745 71.9305Z" stroke="#45413C" stroke-width="2.42" stroke-linecap="round" stroke-linejoin="round"/>
<path d="M45.7481 112.577L40.3872 91.8796C40.1293 90.8602 39.4918 89.9779 38.6049 89.4129C37.718 88.848 36.6489 88.6432 35.616 88.8404L33.0799 89.3146C32.0494 89.5034 31.1294 90.0774 30.5067 90.9199C29.884 91.7624 29.6053 92.8103 29.7272 93.8508L32.6386 119.006C32.6711 119.283 32.7596 119.551 32.8988 119.793C33.0379 120.035 33.2248 120.247 33.448 120.415C33.6713 120.582 33.9263 120.703 34.1976 120.769C34.4689 120.835 34.7509 120.846 35.0263 120.8L59.101 116.301C59.2676 116.27 59.4242 116.199 59.5565 116.093C59.6889 115.987 59.7931 115.85 59.8597 115.694C59.927 115.539 59.9551 115.369 59.9414 115.2C59.9278 115.031 59.8728 114.868 59.7814 114.725L57.8267 110.965C57.7159 110.791 57.5558 110.655 57.3669 110.573C57.178 110.492 56.9691 110.469 56.7669 110.507L45.7481 112.577Z" fill="#E0E0E0" stroke="#45413C" stroke-width="2.42" stroke-linecap="round" stroke-linejoin="round"/>
<path d="M45.7266 112.577L46.1967 114.412M50.6545 111.657L53.0587 117.439" stroke="#45413C" stroke-width="2.42" stroke-linecap="round" stroke-linejoin="round"/>
<path d="M34.125 105.216C34.125 106.039 34.4522 106.829 35.0345 107.412C35.6168 107.994 36.4067 108.321 37.2302 108.321C38.0538 108.321 38.8436 107.994 39.4259 107.412C40.0083 106.829 40.3354 106.039 40.3354 105.216C40.3354 104.392 40.0083 103.603 39.4259 103.02C38.8436 102.438 38.0538 102.111 37.2302 102.111C36.4067 102.111 35.6168 102.438 35.0345 103.02C34.4522 103.603 34.125 104.392 34.125 105.216Z" fill="white" stroke="#45413C" stroke-width="2.42" stroke-linecap="round" stroke-linejoin="round"/>
<path d="M14.8695 110.144L14.0859 105.938M18.1932 109.521L17.4097 105.319M21.517 108.903L20.7294 104.696" stroke="#45413C" stroke-width="2.42" stroke-linecap="round" stroke-linejoin="round"/>
<path d="M112.678 56.4357C103.721 63.6482 107.214 76.2298 114.88 78.7041C108.785 95.1992 121.911 97.2611 123.334 97.323" fill="white"/>
<path d="M112.678 56.4357C103.721 63.6482 107.214 76.2298 114.88 78.7041C108.785 95.1992 121.911 97.2611 123.334 97.323" stroke="#45413C" stroke-width="2.42" stroke-linecap="round" stroke-linejoin="round"/>
</svg>
