<svg width="155" height="155" viewBox="0 0 155 155" fill="none" xmlns="http://www.w3.org/2000/svg">
<path d="M126.917 104.004C126.917 138.136 100.034 139.398 66.8706 139.398C33.7072 139.398 6.82422 138.12 6.82422 104.004C6.82422 69.8875 33.7072 42.1963 66.8706 42.1963C100.034 42.1963 126.917 69.8669 126.917 104.004Z" fill="#B8ECFF"/>
<path d="M31.6036 125.443H29.3231L27.8633 104.391H33.0634L31.6036 125.443Z" fill="#BF8256"/>
<path d="M32.6345 110.585L33.0634 104.391H27.8633L28.2922 110.585H32.6345Z" fill="#915E3A"/>
<path d="M67.9121 125.443H65.6317L64.1719 104.391H69.372L67.9121 125.443Z" fill="#BF8256"/>
<path d="M68.9431 110.585L69.372 104.391H64.1719L64.6007 110.585H68.9431Z" fill="#915E3A"/>
<path d="M31.6036 125.443H29.3231L27.8633 104.391H33.0634L31.6036 125.443ZM67.9135 125.443H65.633L64.1732 104.391H69.3733L67.9135 125.443Z" stroke="#45413C" stroke-width="2.42" stroke-linecap="round" stroke-linejoin="round"/>
<path d="M24.2734 104.391H72.9671V108.041H24.2734V104.391Z" fill="#F0C2A1" stroke="#45413C" stroke-width="2.42" stroke-linecap="round" stroke-linejoin="round"/>
<path d="M51.7454 104.391H45.0195L45.8484 92.2755H50.9165L51.7454 104.391Z" fill="#E0E0E0" stroke="#45413C" stroke-width="2.42" stroke-linecap="round" stroke-linejoin="round"/>
<path d="M33.6478 74.2505H63.1122C63.1122 74.2505 64.803 74.2505 64.803 75.9412V96.4983C64.803 96.4983 64.803 98.1891 63.1122 98.1891H33.6478C33.6478 98.1891 31.957 98.189 31.957 96.4983V75.9412C31.957 75.9412 31.957 74.2505 33.6478 74.2505Z" fill="#00B8F0"/>
<path d="M33.6478 74.2505C33.1997 74.2516 32.7703 74.4301 32.4534 74.7469C32.1366 75.0637 31.9581 75.4932 31.957 75.9412V96.5024C31.9581 96.9501 32.1367 97.3791 32.4537 97.6953C32.7707 98.0115 33.2001 98.1891 33.6478 98.1891H33.755L57.6936 74.2711L33.6478 74.2505Z" fill="#80DDFF"/>
<path d="M33.6478 74.2505H63.1122C63.1122 74.2505 64.803 74.2505 64.803 75.9412V96.4983C64.803 96.4983 64.803 98.1891 63.1122 98.1891H33.6478C33.6478 98.1891 31.957 98.189 31.957 96.4983V75.9412C31.957 75.9412 31.957 74.2505 33.6478 74.2505Z" stroke="#45413C" stroke-width="2.42" stroke-linecap="round" stroke-linejoin="round"/>
<path d="M64.803 92.2755V96.5024C64.803 96.7242 64.7592 96.9439 64.6742 97.1488C64.5892 97.3537 64.4646 97.5398 64.3075 97.6965C64.1505 97.8532 63.964 97.9773 63.7589 98.0618C63.5538 98.1463 63.3341 98.1896 63.1122 98.189H33.6478C33.2001 98.189 32.7707 98.0115 32.4537 97.6953C32.1367 97.3791 31.9581 96.9501 31.957 96.5024V92.2755H64.803Z" fill="#E0E0E0" stroke="#45413C" stroke-width="2.42" stroke-linecap="round" stroke-linejoin="round"/>
<path d="M47.3281 95.2323C47.3281 95.5123 47.4393 95.7808 47.6373 95.9788C47.8353 96.1768 48.1038 96.288 48.3838 96.288C48.6638 96.288 48.9323 96.1768 49.1303 95.9788C49.3283 95.7808 49.4395 95.5123 49.4395 95.2323C49.4395 94.9523 49.3283 94.6838 49.1303 94.4858C48.9323 94.2879 48.6638 94.1766 48.3838 94.1766C48.1038 94.1766 47.8353 94.2879 47.6373 94.4858C47.4393 94.6838 47.3281 94.9523 47.3281 95.2323Z" fill="#45413C"/>
<path d="M55.405 104.391H41.3594L41.7718 102.973C41.8707 102.617 42.0829 102.304 42.3763 102.081C42.6696 101.858 43.0279 101.736 43.3965 101.735H53.3761C53.7447 101.736 54.103 101.858 54.3963 102.081C54.6897 102.304 54.9019 102.617 55.0009 102.973L55.405 104.391Z" fill="#E0E0E0" stroke="#45413C" stroke-width="2.42" stroke-linecap="round" stroke-linejoin="round"/>
<path d="M60.8633 104.391C60.8633 103.735 61.124 103.106 61.588 102.642C62.052 102.178 62.6813 101.917 63.3376 101.917C63.9938 101.917 64.6231 102.178 65.0871 102.642C65.5511 103.106 65.8118 103.735 65.8118 104.391H60.8633Z" fill="#87898C" stroke="#45413C" stroke-width="2.42" stroke-linecap="round" stroke-linejoin="round"/>
<path d="M88.0285 125.443H18.3242" stroke="#45413C" stroke-width="2.42" stroke-linecap="round" stroke-linejoin="round"/>
<path d="M31.6977 112.499H18.3243L13.8912 92.1848C13.8556 92.0371 13.854 91.8833 13.8865 91.735C13.9191 91.5867 13.9849 91.4477 14.079 91.3285C14.1732 91.2093 14.2932 91.1131 14.43 91.0472C14.5667 90.9812 14.7167 90.9471 14.8686 90.9476H26.1925C26.4271 90.9442 26.6556 91.0232 26.838 91.1709C27.0203 91.3186 27.1451 91.5256 27.1904 91.7559L31.6977 112.499ZM19.0542 116.148C19.1208 116.475 19.2984 116.769 19.5569 116.98C19.8154 117.192 20.139 117.307 20.4728 117.307H33.5782V112.499H18.3202L19.0542 116.148Z" fill="#46B000" stroke="#45413C" stroke-width="2.42" stroke-linecap="round" stroke-linejoin="round"/>
<path d="M34.6145 112.499H29.4969L25.0638 92.1848C25.0339 92.0412 25.0362 91.8928 25.0704 91.7502C25.1046 91.6076 25.17 91.4744 25.2618 91.36C25.3556 91.2434 25.4743 91.1493 25.6091 91.0843C25.7439 91.0194 25.8915 90.9854 26.0412 90.9847H29.101C29.327 90.9842 29.5466 91.0601 29.724 91.2001C29.9014 91.3401 30.0263 91.536 30.0784 91.7559L34.6145 112.499Z" fill="#6DD627" stroke="#45413C" stroke-width="2.42" stroke-linecap="round" stroke-linejoin="round"/>
<path d="M45.8222 113.682C45.8488 113.538 45.8433 113.389 45.806 113.247C45.7688 113.105 45.7007 112.972 45.6067 112.859C45.5126 112.746 45.3949 112.656 45.2618 112.593C45.1287 112.531 44.9835 112.499 44.8366 112.499H29.4961L30.0775 115.67C30.1614 116.132 30.4046 116.55 30.7647 116.851C31.1248 117.152 31.5791 117.318 32.0487 117.319H43.4798C43.9491 117.319 44.4033 117.153 44.7629 116.852C45.1225 116.55 45.3646 116.132 45.4469 115.67L45.8222 113.682Z" fill="#6DD627" stroke="#45413C" stroke-width="2.42" stroke-linecap="round" stroke-linejoin="round"/>
<path d="M28.8975 117.307H32.2089V122.227H28.8975V117.307ZM35.1574 125.443H25.9531L26.8521 122.899C26.9212 122.703 27.049 122.534 27.2182 122.415C27.3873 122.295 27.5893 122.231 27.7965 122.231H33.3223C33.5295 122.231 33.7315 122.295 33.9006 122.415C34.0697 122.534 34.1976 122.703 34.2667 122.899L35.1574 125.443Z" fill="#BDBEC0" stroke="#45413C" stroke-width="2.42" stroke-linecap="round" stroke-linejoin="round"/>
<path d="M74.697 87.9126C70.6947 82.4099 68.4517 75.8246 68.263 69.023C68.0742 62.2213 69.9486 55.5218 73.6396 49.8056C77.3305 44.0894 82.6652 39.6242 88.942 36.9974C95.2187 34.3705 102.144 33.705 108.806 35.0883C115.468 36.4716 121.555 39.839 126.267 44.7476C130.98 49.6562 134.096 55.8761 135.206 62.5892C136.316 69.3023 135.368 76.1942 132.487 82.3585C129.606 88.5227 124.927 93.6707 119.065 97.1251C122.471 101.443 126.512 109.909 127.156 117.744C127.156 117.744 129.057 116.161 130.356 116.119C134.801 115.971 135.972 119.093 137.222 125.377C137.391 125.324 142.348 121.715 143.82 126.346C143.983 126.858 144.043 127.397 143.997 127.932C143.952 128.467 143.801 128.988 143.554 129.465C143.307 129.941 142.968 130.365 142.558 130.711C142.147 131.057 141.672 131.318 141.16 131.48L137.746 132.4C136.178 132.899 134.249 132.565 133.403 131.163C132.24 129.237 130.158 126.214 128.042 126.107C122.801 129.068 113.696 130.61 104.166 131.996C103.572 125.311 100.491 113.154 98.3923 109.48C94.0788 101.958 72 98.7581 72.0454 91.9127C72.0578 89.6693 73.0598 88.4198 74.697 87.9126Z" fill="white"/>
<path d="M131.261 56.3285C132.048 56.3269 132.834 56.3862 133.612 56.5058C135.467 61.5875 136.072 67.0408 135.378 72.4057C134.683 77.7705 132.708 82.8896 129.62 87.3311C125.667 86.9023 122.03 84.9757 119.454 81.9474C116.878 78.919 115.561 75.0191 115.772 71.0492C115.983 67.0793 117.707 63.3411 120.59 60.6032C123.472 57.8652 127.294 56.3355 131.269 56.3285H131.261Z" fill="#E0E0E0"/>
<path d="M74.5508 71.8752C74.5508 75.9984 76.1887 79.9527 79.1043 82.8683C82.0199 85.7839 85.9742 87.4218 90.0974 87.4218C94.2207 87.4218 98.175 85.7839 101.091 82.8683C104.006 79.9527 105.644 75.9984 105.644 71.8752C105.644 67.7519 104.006 63.7976 101.091 60.882C98.175 57.9664 94.2207 56.3285 90.0974 56.3285C85.9742 56.3285 82.0199 57.9664 79.1043 60.882C76.1887 63.7976 74.5508 67.7519 74.5508 71.8752Z" fill="#E0E0E0"/>
<path d="M74.697 87.9126C70.6947 82.4099 68.4517 75.8246 68.263 69.023C68.0742 62.2213 69.9486 55.5218 73.6396 49.8056C77.3305 44.0894 82.6652 39.6242 88.942 36.9974C95.2187 34.3705 102.144 33.705 108.806 35.0883C115.468 36.4716 121.555 39.839 126.267 44.7476C130.98 49.6562 134.096 55.8761 135.206 62.5892C136.316 69.3023 135.368 76.1942 132.487 82.3585C129.606 88.5227 124.927 93.6707 119.065 97.1251C122.471 101.443 126.512 109.909 127.156 117.744C127.156 117.744 129.057 116.161 130.356 116.119C134.801 115.971 135.972 119.093 137.222 125.377C137.391 125.324 142.348 121.715 143.82 126.346C143.983 126.858 144.043 127.397 143.997 127.932C143.952 128.467 143.801 128.988 143.554 129.465C143.307 129.941 142.968 130.365 142.558 130.711C142.147 131.057 141.672 131.318 141.16 131.48L137.746 132.4C136.178 132.899 134.249 132.565 133.403 131.163C132.24 129.237 130.158 126.214 128.042 126.107C122.801 129.068 113.696 130.61 104.166 131.996C103.572 125.311 100.491 113.154 98.3923 109.48C94.0788 101.958 72 98.7581 72.0454 91.9127C72.0578 89.6693 73.0598 88.4198 74.697 87.9126Z" stroke="#45413C" stroke-width="2.42" stroke-linecap="round" stroke-linejoin="round"/>
<path d="M128.043 126.115C128.043 126.115 129.738 125.291 130.105 124.573ZM104.513 127.905C103.321 130.082 100.479 128.375 98.2114 127.262C96.7351 126.54 94.9371 127.303 93.8855 128.569L91.5226 131.192C91.1773 131.605 90.9173 132.083 90.7575 132.598C90.5976 133.113 90.5412 133.654 90.5914 134.191C90.6416 134.727 90.7975 135.249 91.05 135.725C91.3025 136.201 91.6468 136.622 92.0628 136.965C95.8031 140.066 98.0176 134.346 98.133 134.21C103.581 137.328 107.007 137.192 109.849 134.511C111.824 132.73 112.859 129.447 111.89 126.132M68.8047 61.9781C68.9449 61.2111 69.1112 60.4537 69.3037 59.7059Z" fill="white"/>
<path d="M128.043 126.115C128.043 126.115 129.738 125.291 130.105 124.573M104.513 127.905C103.321 130.082 100.479 128.375 98.2114 127.262C96.7351 126.54 94.9371 127.303 93.8855 128.569L91.5226 131.192C91.1773 131.605 90.9173 132.083 90.7575 132.598C90.5976 133.113 90.5412 133.654 90.5914 134.191C90.6416 134.727 90.7975 135.249 91.05 135.725C91.3025 136.201 91.6468 136.622 92.0628 136.965C95.8031 140.066 98.0176 134.346 98.133 134.21C103.581 137.328 107.007 137.192 109.849 134.511C111.824 132.73 112.859 129.447 111.89 126.132M68.8047 61.9781C68.9449 61.2111 69.1112 60.4537 69.3037 59.7059" stroke="#45413C" stroke-width="2.42" stroke-linecap="round" stroke-linejoin="round"/>
<path d="M115.625 78.6547C115.625 81.4506 113.74 83.7104 111.414 83.7104C109.088 83.7104 107.191 81.4506 107.191 78.6547H115.625Z" fill="#FFA694" stroke="#45413C" stroke-width="2.42" stroke-linecap="round" stroke-linejoin="round"/>
<path d="M116.172 70.8649C116.172 74.6633 117.681 78.3061 120.367 80.992C123.053 83.6779 126.695 85.1868 130.494 85.1868C134.292 85.1868 137.935 83.6779 140.621 80.992C143.307 78.3061 144.816 74.6633 144.816 70.8649C144.816 67.0665 143.307 63.4236 140.621 60.7378C137.935 58.0519 134.292 56.543 130.494 56.543C126.695 56.543 123.053 58.0519 120.367 60.7378C117.681 63.4236 116.172 67.0665 116.172 70.8649Z" fill="white" stroke="#45413C" stroke-width="2.42" stroke-linecap="round" stroke-linejoin="round"/>
<path d="M133.738 69.6318C133.738 70.0791 133.916 70.5081 134.232 70.8244C134.549 71.1408 134.978 71.3185 135.425 71.3185C135.872 71.3185 136.301 71.1408 136.618 70.8244C136.934 70.5081 137.112 70.0791 137.112 69.6318C137.112 69.1845 136.934 68.7555 136.618 68.4392C136.301 68.1229 135.872 67.9452 135.425 67.9452C134.978 67.9452 134.549 68.1229 134.232 68.4392C133.916 68.7555 133.738 69.1845 133.738 69.6318Z" fill="#45413C"/>
<path d="M76.5703 70.8649C76.5703 74.6633 78.0792 78.3061 80.7651 80.992C83.451 83.6779 87.0938 85.1868 90.8922 85.1868C94.6906 85.1868 98.3334 83.6779 101.019 80.992C103.705 78.3061 105.214 74.6633 105.214 70.8649C105.214 67.0665 103.705 63.4236 101.019 60.7378C98.3334 58.0519 94.6906 56.543 90.8922 56.543C87.0938 56.543 83.451 58.0519 80.7651 60.7378C78.0792 63.4236 76.5703 67.0665 76.5703 70.8649Z" fill="white" stroke="#45413C" stroke-width="2.42" stroke-linecap="round" stroke-linejoin="round"/>
<path d="M94.1406 69.6318C94.1406 70.0791 94.3183 70.5081 94.6346 70.8244C94.9509 71.1408 95.3799 71.3185 95.8273 71.3185C96.2746 71.3185 96.7036 71.1408 97.0199 70.8244C97.3362 70.5081 97.5139 70.0791 97.5139 69.6318C97.5139 69.1845 97.3362 68.7555 97.0199 68.4392C96.7036 68.1229 96.2746 67.9452 95.8273 67.9452C95.3799 67.9452 94.9509 68.1229 94.6346 68.4392C94.3183 68.7555 94.1406 69.1845 94.1406 69.6318Z" fill="#45413C"/>
<path d="M72.043 91.9333C72.1089 80.4238 98.0599 95.0343 102.064 101.418M116.411 98.5313C117.321 98.0969 118.207 97.6268 119.071 97.121" stroke="#45413C" stroke-width="2.42" stroke-linecap="round" stroke-linejoin="round"/>
<path d="M114.311 99.3561C114.274 99.2432 114.214 99.1394 114.135 99.0513C114.055 98.9632 113.958 98.8928 113.849 98.8448C113.74 98.7968 113.622 98.7721 113.503 98.7721C113.384 98.7721 113.266 98.7968 113.157 98.8448C111.353 99.5692 109.446 100.006 107.507 100.14C107.348 100.154 107.196 100.213 107.069 100.309C106.942 100.405 106.844 100.535 106.787 100.684C106.73 100.833 106.716 100.995 106.746 101.152C106.776 101.309 106.85 101.454 106.959 101.571C108.121 102.832 110.154 104.457 112.526 103.909C115.202 103.27 114.769 100.733 114.311 99.3561Z" fill="#E0E0E0"/>
<path d="M135.207 52.2666C136.803 50.3572 139.776 51.347 140.196 53.6769M89.5193 51.1366C88.377 48.9263 85.2594 49.2438 84.3398 51.4253" stroke="#45413C" stroke-width="2.42" stroke-linecap="round" stroke-linejoin="round"/>
<path d="M22.4362 63.4379C22.0237 63.4356 21.6152 63.3558 21.2321 63.2029C20.2214 62.7594 19.3699 62.0186 18.7908 61.0791L18.3372 60.4193C17.4588 59.1327 16.6011 57.8048 15.7681 56.5223C14.6505 54.8069 13.5 53.0295 12.3412 51.3924C10.9267 49.3964 10.3865 47.2438 10.7824 45.1613C11.1948 42.9262 12.7041 40.8685 15.0052 39.3633C16.0237 38.6952 16.6547 38.2457 17.0918 37.92C17.4011 37.6931 17.6444 37.5076 17.9166 37.355C19.6857 36.2375 21.9785 34.9508 24.0486 34.9508C24.8305 34.9256 25.602 35.1353 26.2636 35.5528C26.9251 35.9703 27.4464 36.5765 27.76 37.2931C29.3353 40.4808 26.6755 42.151 25.6734 42.7778L25.36 42.9633C23.7393 43.8747 22.9682 44.3283 21.4094 45.2892C20.9729 45.542 20.5893 45.8767 20.2795 46.2747C20.257 46.5689 20.3404 46.8614 20.5145 47.0995L20.8898 47.7139C21.3929 47.3675 21.9166 47.0088 22.3331 46.7407C23.4136 46.0479 24.6754 45.3386 25.8796 45.3386C26.6755 45.3386 27.7848 45.6438 28.5559 47.0954C29.9704 49.747 28.4116 51.1119 26.8363 52.1882L26.494 52.4192C25.9456 52.7944 24.9187 53.4872 24.4033 53.9244C24.5888 54.2666 24.9022 54.7491 25.1538 55.1368C25.9167 56.3203 26.8033 57.6605 27.0301 58.8729C27.1662 59.6193 27.1126 61.0255 25.294 62.3451C24.4819 63.0041 23.4808 63.3869 22.4362 63.4379Z" fill="#EDF2F4"/>
<path d="M24.027 36.1879C24.5744 36.1683 25.1148 36.3155 25.5766 36.6101C26.0384 36.9047 26.3997 37.3328 26.6126 37.8374C27.4704 39.5736 26.7569 40.6127 24.9631 41.7262L24.6786 41.8952C23.0744 42.7942 22.2785 43.2602 20.7032 44.2334C20.1232 44.5736 19.6159 45.0248 19.2104 45.5613C18.7733 46.184 19.0166 47.0912 19.4001 47.7222C19.737 48.3085 20.1102 48.8732 20.5177 49.4129C21.2558 48.9057 22.2579 48.2046 22.9507 47.7634C24.0847 47.0294 25.0414 46.5551 25.8373 46.5551C26.4848 46.5551 27.0126 46.8809 27.425 47.6562C28.2498 49.2191 27.8374 49.949 26.0971 51.1449C24.86 51.9697 23.0538 53.1738 22.9878 53.648C22.8723 54.4728 25.4043 57.2481 25.7755 59.0997C25.9528 60.0688 25.1817 60.844 24.5383 61.3224C23.9459 61.8212 23.2147 62.1264 22.4435 62.1966C22.1843 62.1958 21.9279 62.1439 21.6888 62.0441C20.9107 61.6888 20.2581 61.1066 19.8166 60.3739L19.363 59.7141C17.3258 56.7244 15.4 53.5532 13.3546 50.6707C10.5958 46.7778 11.9773 42.8355 15.6887 40.3942C17.4124 39.2643 18.0104 38.7447 18.5754 38.3942C20.3115 37.2931 22.3651 36.1838 24.0435 36.1838M24.0435 33.7095C21.6517 33.7095 19.1568 35.0992 17.2516 36.3034C16.963 36.4848 16.7032 36.6745 16.3774 36.9137C15.9361 37.2354 15.3341 37.6725 14.3402 38.3241C11.7587 40.0148 10.068 42.3571 9.58138 44.9221C9.12364 47.3428 9.73396 49.8253 11.3464 52.0975C12.4928 53.7181 13.6392 55.4831 14.7444 57.1904C15.5691 58.477 16.4475 59.809 17.3258 61.0997L17.6269 61.5368L17.7877 61.7719C18.504 62.9176 19.5548 63.8159 20.7981 64.3451C21.3219 64.558 21.8821 64.6673 22.4476 64.6668C23.961 64.6668 25.194 63.8998 25.994 63.3224C28.3611 61.6028 28.4106 59.6605 28.2291 58.6543V58.6048C27.9405 57.1615 26.992 55.7182 26.1672 54.4398C26.1178 54.3656 26.0683 54.2913 26.0188 54.2089C26.4312 53.9161 26.8724 53.615 27.1611 53.4212L27.5116 53.182C28.7487 52.3325 31.6766 50.3408 29.623 46.4891C28.4972 44.4066 26.7776 44.0973 25.8497 44.0973L25.9033 44.0685H25.9487L26.2291 43.9035H26.2951C29.3508 41.986 30.2044 39.6024 28.8312 36.823C28.4162 35.9021 27.7394 35.1236 26.8851 34.5846C26.0309 34.0457 25.0369 33.77 24.027 33.792L24.0435 33.7095Z" fill="#45413C"/>
<path d="M36.4978 55.0831C35.5988 55.0831 34.3287 54.7203 33.405 52.9883C31.0627 48.6006 29.7307 46.085 28.9636 44.5098C28.6173 43.8046 28.3863 43.3056 28.2049 42.9139C28.0977 42.6788 28.0111 42.5015 27.9286 42.3159L27.5162 41.4664L27.4461 41.2932C26.8317 39.8087 26.1389 38.122 26.778 35.4374C27.5574 32.0807 31.1163 30.0765 33.1658 29.1487C34.9399 28.3315 36.8626 27.8866 38.8154 27.8414C42.2629 27.8414 44.8526 29.5775 46.1062 32.724V32.7611L46.267 33.2642C46.7237 34.5867 46.8012 36.0106 46.4908 37.3749C46.1803 38.7391 45.4943 39.9893 44.5103 40.9839C44.6794 41.087 44.8278 41.1777 44.9227 41.2437C45.4217 41.5695 45.9866 41.9035 46.5351 42.2293C47.3369 42.6681 48.1059 43.1642 48.8362 43.7139C49.6489 44.3436 50.2655 45.1918 50.6135 46.1593C51.0259 47.3964 50.6135 49.1037 48.2465 50.0934L47.9867 50.1923H47.8918C47.4479 50.2817 46.9961 50.326 46.5433 50.3243C44.4485 50.3243 42.6051 49.4129 40.836 48.4026C41.2246 49.3402 41.3898 50.3552 41.3185 51.3676C41.1494 52.5718 40.1886 53.7223 38.7453 54.4481C38.0558 54.8318 37.2862 55.0493 36.4978 55.0831ZM36.304 37.8416C37.8669 37.0169 37.5411 36.1921 37.438 35.8993C37.3349 35.6065 36.9473 35.5983 36.7906 35.5983C36.5775 35.5987 36.3668 35.6436 36.172 35.7302C35.9558 35.8208 35.7498 35.9342 35.5576 36.0684L36.304 37.8416Z" fill="#EDF2F4"/>
<path d="M38.796 29.0868C41.3569 29.0868 43.7446 30.1631 44.9363 33.1858C44.9941 33.3714 45.0229 33.4662 45.0848 33.6518C45.5413 34.927 45.5667 36.3169 45.1569 37.6079C44.7472 38.8989 43.925 40.0197 42.8167 40.7983C42.6476 40.9344 42.3425 41.0911 42.3755 41.1818C42.4084 41.2726 42.528 41.2973 42.5693 41.3179C42.6105 41.3385 43.8064 41.986 44.2518 42.2953C45.5549 43.153 47.1879 43.9778 48.0704 44.6953C48.6953 45.1733 49.1727 45.818 49.4477 46.5551C49.7529 47.5118 49.1756 48.3902 47.7982 48.9758L47.6786 49.017C47.3148 49.0902 46.9446 49.1275 46.5735 49.1284C43.5837 49.1284 40.9198 46.8108 38.2311 45.5819C38.5678 46.124 38.8549 46.6954 39.0888 47.2892C39.9136 49.2315 40.2393 50.3985 40.1239 51.2356C40.0084 52.0728 39.1548 52.9099 38.2187 53.3759C37.6967 53.6692 37.1136 53.8372 36.5156 53.8666C35.6908 53.8666 35.0392 53.4171 34.5155 52.4274C32.1155 47.9325 30.8454 45.5283 30.0907 43.9901C29.534 42.8602 29.2659 42.2623 29.0556 41.7963C28.8989 41.4705 28.8165 41.3097 28.6433 40.9715C28.0288 39.4705 27.4061 38.0849 27.967 35.7343C28.6515 32.7858 32.0454 31.0043 33.6454 30.295C35.2619 29.5454 37.0147 29.1342 38.796 29.0868ZM35.6125 39.3962C35.9288 39.3334 36.2382 39.2395 36.5362 39.1158C38.2187 38.357 39.2166 37.1075 38.5981 35.4704C38.449 35.1229 38.1953 34.8305 37.8723 34.6339C37.5494 34.4373 37.1731 34.3463 36.796 34.3735C36.4111 34.373 36.0305 34.4531 35.6784 34.6085C35.0343 34.8317 34.4867 35.2701 34.1279 35.8498L35.6125 39.3715M38.796 26.5878C36.6695 26.6409 34.5761 27.1263 32.6433 28.0146C29.8845 29.2517 26.4123 31.4827 25.5422 35.1652C24.8329 38.2251 25.637 40.188 26.2845 41.7633L26.3381 41.8953L26.3711 41.9736L26.4082 42.0478L26.8205 42.8726C26.903 43.0375 26.9855 43.219 27.0886 43.4417C27.2618 43.8252 27.501 44.3489 27.8556 45.0664C28.6391 46.6623 29.9175 49.083 32.3175 53.5821C33.5918 55.9697 35.4887 56.3285 36.5032 56.3285C37.4866 56.3026 38.4501 56.0455 39.3156 55.578C41.126 54.6707 42.3383 53.1697 42.561 51.5614C42.6019 51.2774 42.6157 50.9902 42.6023 50.7037C43.8478 51.2656 45.1949 51.5673 46.5611 51.5903C47.0955 51.5897 47.6286 51.5372 48.1529 51.4336L48.3426 51.3923L48.5281 51.3263L48.59 51.3016H48.7426C51.8684 49.9861 52.3509 47.5407 51.8107 45.85C51.3917 44.6512 50.6357 43.5987 49.6333 42.819C48.8475 42.2301 48.0207 41.6982 47.159 41.2272L46.3343 40.7447C47.1083 39.6215 47.6088 38.3328 47.7957 36.9816C47.9826 35.6304 47.8507 34.2542 47.4106 32.9631L47.2621 32.4972L47.2374 32.4188L47.2044 32.3404C45.757 28.6909 42.759 26.6785 38.7671 26.6785L38.796 26.5878Z" fill="#45413C"/>
<path d="M52.3138 48.2954C50.0911 48.2954 49.5055 46.3819 49.3158 45.7551C49.1261 45.1283 48.656 43.5943 49.7282 42.4809C49.9095 42.3042 50.0738 42.1109 50.2189 41.9035C49.8808 40.5303 49.4396 39.0169 48.9818 37.4333C48.7811 36.7515 48.5777 36.0519 48.3715 35.3343C48.2643 34.9673 48.1694 34.5632 48.0705 34.1467C47.9715 33.7302 47.8766 33.3508 47.7694 32.9714C47.6552 32.4864 47.4763 32.019 47.2375 31.5817C47.1189 31.5616 46.9989 31.552 46.8787 31.5528C45.6415 31.5528 44.6766 30.6703 44.223 29.1775C43.9545 28.4055 43.9116 27.573 44.0993 26.7775C44.6065 24.9878 47.0436 24.0929 49.1055 23.5156L49.955 23.2805C51.1195 22.9235 52.3256 22.7197 53.5427 22.6743C55.8685 22.6743 56.7263 23.9774 57.0314 25.0744V25.1486L57.1057 25.4991C57.301 26.1924 57.2704 26.93 57.0183 27.6047C56.7662 28.2795 56.3057 28.8564 55.7036 29.2518C55.8026 29.8002 55.9634 30.4641 56.116 31.0621C56.1778 31.3095 56.2355 31.5528 56.2892 31.7755L57.0108 34.8807C57.2088 35.7055 57.382 36.6168 57.5469 37.4828C57.7119 38.3488 57.8603 39.0911 58.0253 39.8004C59.5098 40.2128 60.2109 40.72 60.6068 42.5386C61.0026 44.3572 60.4624 45.7758 59.1428 46.4603C58.0368 46.9197 56.8965 47.292 55.7324 47.5737L55.1964 47.7263C54.2652 48.0436 53.2957 48.235 52.3138 48.2954Z" fill="#EDF2F4"/>
<path d="M53.5466 23.9115C54.825 23.9115 55.5549 24.3692 55.8477 25.4084L55.9219 25.7589C56.2229 27.1569 55.6539 27.8208 54.7136 28.4394C54.6046 28.5115 54.5192 28.614 54.4679 28.7342C54.4166 28.8544 54.4016 28.9871 54.425 29.1157C54.5528 29.9734 54.8621 31.1487 55.0765 32.0683L55.7982 35.1694C56.1735 36.7859 56.4745 38.654 56.8291 40.1715C56.957 40.7076 57.2003 40.885 57.4807 40.9509C58.7178 41.252 59.0848 41.4128 59.39 42.8108C59.6086 43.8252 59.5096 44.8727 58.5652 45.3716C57.3555 45.8439 56.1156 46.2351 54.8538 46.5428C54.0335 46.8205 53.1814 46.9936 52.3177 47.0583C51.394 47.0583 50.8744 46.6129 50.5032 45.4087C50.2847 44.6953 50.0909 43.8953 50.627 43.3468C51.2455 42.7035 51.5754 42.2169 51.4847 41.854C50.994 39.7921 50.2764 37.5034 49.5589 35.0044C49.3568 34.2869 49.1836 33.4209 48.961 32.6415C48.8096 32.001 48.5607 31.3877 48.2228 30.8229C47.9135 30.4105 47.5135 30.3239 46.9032 30.3157C46.1774 30.3157 45.6661 29.6889 45.4145 28.8188C45.2281 28.2823 45.1868 27.7061 45.2949 27.1486C45.6248 25.9527 47.7321 25.1857 49.4599 24.7156L50.2847 24.4847C51.3452 24.1593 52.4426 23.9695 53.5507 23.9197M53.5507 21.4454C52.2234 21.4914 50.9078 21.7104 49.6373 22.097L48.7795 22.332C46.4166 22.9919 43.6165 24.0558 42.9155 26.4558C42.6693 27.4811 42.7121 28.5545 43.0392 29.5569C43.6 31.392 44.8413 32.5673 46.4083 32.7735C46.4578 32.9164 46.5156 33.102 46.5815 33.3302C46.6805 33.6766 46.7753 34.0725 46.8661 34.456C46.9568 34.8395 47.0681 35.2807 47.1836 35.6931C47.3857 36.4106 47.596 37.1117 47.7939 37.7962C48.2063 39.1406 48.5651 40.4231 48.8702 41.6107L48.8455 41.6355C47.262 43.285 47.9218 45.4252 48.1362 46.1304C48.6104 47.6892 49.7239 49.549 52.3177 49.549C53.4111 49.4908 54.4916 49.2855 55.5301 48.9387L56.0662 48.7902C57.856 48.283 58.9859 47.9655 59.7075 47.582C61.5344 46.6335 62.322 44.6582 61.8107 42.3035C61.3694 40.2416 60.4581 39.3756 59.0766 38.8602C58.9694 38.3612 58.8663 37.8292 58.7591 37.2725C58.59 36.3942 58.4127 35.4828 58.2106 34.625L57.7529 32.6621L57.4889 31.5198C57.4353 31.293 57.3776 31.0497 57.3157 30.7982C57.2333 30.46 57.1467 30.0971 57.0683 29.7549C57.9219 28.9301 58.8333 27.5239 58.3467 25.2558V25.1733L58.289 24.9053V24.8311L58.2683 24.7568C57.992 23.763 56.9735 21.4578 53.5878 21.4578L53.5507 21.4454Z" fill="#45413C"/>
<path d="M65.9978 45.1984C63.9689 45.1984 61.1606 44.7283 60.1915 40.6623L57.177 25.128C57.0781 24.6676 57.0945 24.1899 57.2247 23.7374C57.3549 23.2848 57.595 22.8715 57.9234 22.5341C58.8884 21.4949 60.6699 20.8062 63.5235 20.3774C65.4626 20.0883 67.4398 20.1897 69.3391 20.6755C71.2384 21.1613 73.0214 22.0217 74.5835 23.2063C75.9318 24.2496 77.0328 25.578 77.8077 27.0965C78.5827 28.615 79.0124 30.286 79.0661 31.9899C79.3836 38.7488 74.6908 44.3613 68.1463 45.05C67.5442 45.1242 66.7525 45.1984 65.9978 45.1984ZM67.8412 35.5282C68.9546 35.1694 69.6845 33.6106 69.4907 31.8662C69.3381 30.3569 68.3484 28.7404 67.1277 28.7404H66.8679L67.8412 35.5282Z" fill="#EDF2F4"/>
<path d="M65.6807 21.466C71.5035 21.466 77.5077 25.1774 77.8293 32.06C78.1221 38.3241 73.6767 43.2396 68.0189 43.8293C67.3482 43.9096 66.6736 43.9537 65.9982 43.9613C63.759 43.9613 62.0847 43.2767 61.3961 40.3901C60.3926 35.2271 59.3919 30.0655 58.394 24.9053C58.3324 24.6392 58.3378 24.362 58.4098 24.0986C58.4818 23.8352 58.618 23.5937 58.8063 23.396C59.8538 22.2702 62.3528 21.8166 63.693 21.6145C64.3454 21.5154 65.0043 21.4658 65.6642 21.466M67.3384 36.8477C67.4585 36.8451 67.5783 36.8355 67.6972 36.8189C69.6766 36.5632 70.9962 34.3446 70.7241 31.7384C70.5014 29.5981 69.0746 27.5033 67.1281 27.5033C67.0136 27.5034 66.8992 27.5117 66.7859 27.528L66.5343 27.5569C66.3376 27.5831 66.1483 27.6494 65.9781 27.7515C65.8079 27.8536 65.6604 27.9895 65.5446 28.1507C66.0271 31.5652 66.2663 33.2724 66.7487 36.6828C66.9283 36.797 67.1381 36.8545 67.3508 36.8477M65.7013 18.9918C64.9187 18.9931 64.1373 19.051 63.3631 19.165C60.2208 19.6392 58.2125 20.4475 57.0372 21.7093C56.5764 22.1893 56.2398 22.7745 56.0565 23.4141C55.8733 24.0537 55.8489 24.7284 55.9857 25.3795L57.5486 33.4456L58.9878 40.8684V40.9715C59.8538 44.6005 62.2085 46.4438 65.9982 46.4438C66.7589 46.4344 67.5187 46.3863 68.2745 46.2995C71.6813 45.9458 74.8203 44.2913 77.0376 41.6808C79.3289 38.9744 80.4975 35.4936 80.3036 31.9528C80.2322 30.0738 79.7526 28.2329 78.898 26.558C78.0435 24.8831 76.8345 23.4143 75.3551 22.2537C72.5874 20.119 69.1841 18.9735 65.6889 19L65.7013 18.9918Z" fill="#45413C"/>
<path d="M92.4285 44.8479C92.2094 44.8475 91.9905 44.8351 91.7728 44.8108C88.1109 44.3984 88.1315 39.7757 88.1398 37.5612V36.7364C87.9223 36.68 87.7 36.6441 87.4758 36.6292H86.9686C86.9397 36.7653 86.9109 36.9137 86.8779 37.0663C86.8284 37.3261 86.7707 37.6148 86.6841 37.9323C86.5975 38.2499 86.548 38.4849 86.4779 38.7901C86.0284 40.753 85.2737 44.0396 82.3005 44.0396H82.2427C78.9767 43.9902 77.7891 40.1674 77.7891 37.6107C77.7891 34.456 78.3705 30.5549 78.754 27.9693C79.5128 22.8187 82.9273 19.3547 87.249 19.3547C87.5129 19.3547 87.781 19.3547 88.049 19.3918C92.3749 19.8042 97.4719 22.8393 97.1997 34.9508V36.3653C97.2338 37.4522 97.2008 38.5402 97.1007 39.6231C96.7131 42.9427 95.0141 44.8479 92.4285 44.8479ZM87.3604 29.5569C87.447 29.5569 87.5748 29.5899 87.7727 29.6023H88.3377V29.4332C88.3611 28.69 88.2203 27.9508 87.9253 27.2682C87.5566 27.8949 87.3497 28.6035 87.3232 29.3301C87.3562 29.4332 87.3562 29.5033 87.3604 29.5569Z" fill="#EDF2F4"/>
<path d="M87.252 20.5918C87.4806 20.5907 87.7091 20.6018 87.9366 20.6248C94.914 21.2887 96.1016 28.8724 95.9656 34.9219C95.9161 36.0271 96.0439 37.9076 95.8666 39.4829C95.6274 41.586 94.7532 43.6066 92.4315 43.6066C92.2606 43.607 92.0899 43.5973 91.9201 43.5778C88.4891 43.1654 89.6727 36.9797 89.2892 35.99C89.0706 35.6807 88.2994 35.4539 87.5613 35.4044H87.2149C86.5757 35.4044 86.0231 35.5281 85.9324 35.7756C85.7138 36.4106 85.6685 36.9632 85.487 37.6354C84.988 39.5158 84.6252 42.8231 82.2993 42.8231H82.2581C79.7838 42.786 79.0251 39.4169 79.0251 37.6313C79.0251 34.6663 79.5529 31.0332 79.9735 28.1713C80.5838 24.064 83.2354 20.5918 87.252 20.5918ZM88.2623 30.8683C89.1448 30.8683 89.5407 30.5755 89.5984 29.5239C89.6644 28.2868 89.1861 25.9403 88.0355 25.862H87.986C87.0211 25.862 86.1633 27.7589 86.1262 29.3218C86.0932 30.5219 86.5798 30.7693 87.7015 30.8435H88.2623M87.252 18.1175C82.3035 18.1175 78.3859 22.0104 77.5281 27.8043C77.1405 30.4229 76.5508 34.4023 76.5508 37.6271C76.5508 41.3963 78.5013 45.2397 82.221 45.2933H82.2993C85.1489 45.2933 86.4479 43.1159 87.1242 41.1447C87.1695 41.4045 87.2231 41.6602 87.2932 41.9159C88.151 45.1654 90.382 45.8953 91.6356 46.0397C91.8999 46.0689 92.1656 46.0841 92.4315 46.085C95.6728 46.085 97.8749 43.7221 98.3244 39.7591C98.4298 38.6256 98.4657 37.4867 98.4316 36.3488V34.9714C98.5264 30.8476 98.0192 27.4332 96.8934 24.7857C95.2439 20.8351 92.2088 18.5423 88.1634 18.1546C87.8541 18.1258 87.5448 18.1134 87.2438 18.1134L87.252 18.1175Z" fill="#45413C"/>
<path d="M101.419 46.5428C101.016 46.5402 100.614 46.4974 100.219 46.415C98.0003 45.949 97.1096 43.7757 97.3776 41.8788L97.4312 41.5159V41.4747C97.7323 40.0726 98.8498 38.6375 99.8395 37.3756C100.132 36.9962 100.433 36.6086 100.664 36.2828C99.9137 34.8725 99.4271 34.0065 98.5323 32.4518L98.2642 31.9817C97.0683 29.8827 95.7116 27.5033 95.5137 24.9713V24.8063C95.4954 24.5138 95.4954 24.2205 95.5137 23.928C95.7075 22.1341 96.8415 21.0743 98.7055 20.9465H99.2044C99.7687 20.9477 100.332 20.9988 100.887 21.0991C102.734 21.429 104.186 22.3073 105.011 23.5733C105.914 25.1032 106.495 26.9383 107.011 28.5549L107.254 29.3178C107.691 28.9054 108.141 28.493 108.627 28.0311C108.879 27.8002 109.122 27.5569 109.37 27.3136C110.607 26.0765 111.976 24.7197 114.38 24.7197C115.191 24.7306 115.996 24.8698 116.764 25.1321C120.52 26.3486 120.302 28.6291 120.034 29.5528C119.701 30.7088 119.076 31.7597 118.219 32.6044C117.176 33.722 115.943 34.8189 114.854 35.7838C114.442 36.155 114.029 36.5014 113.716 36.8065C112.281 38.0808 111.275 39.087 110.116 40.2499C109.502 40.8643 108.858 41.487 108.112 42.2334C107.765 42.5675 107.431 42.9097 107.11 43.2438C105.543 44.8603 103.893 46.5428 101.419 46.5428Z" fill="#EDF2F4"/>
<path d="M99.2376 22.1712C99.7284 22.1733 100.218 22.2174 100.702 22.3032C102.099 22.5547 103.333 23.198 103.976 24.2207C105.308 26.4764 105.951 29.7425 106.759 31.4992C107.617 30.7157 108.471 29.8497 109.469 28.9383C110.904 27.6228 112.071 25.9527 114.392 25.9527C115.075 25.9652 115.751 26.0835 116.397 26.3032C117.997 26.8228 119.283 27.6929 118.871 29.1899C118.59 30.1585 118.063 31.0379 117.341 31.7425C115.931 33.2559 114.071 34.8023 112.9 35.8663C110.689 37.8251 109.423 39.2313 107.275 41.3097C105.295 43.2272 103.827 45.2809 101.444 45.2809C101.125 45.2795 100.807 45.245 100.495 45.1778C98.9324 44.852 98.4541 43.2643 98.6273 42.0148C98.6479 41.887 98.6561 41.821 98.6726 41.6932C99.0603 39.8952 101.485 37.5694 102.116 36.291C101.168 34.4848 100.673 33.5817 99.6417 31.7961C98.4046 29.6023 96.9736 27.2599 96.7839 24.8475C96.7645 24.573 96.7645 24.2973 96.7839 24.0228C96.9077 22.864 97.5468 22.2331 98.8458 22.1465H99.2582M99.2582 19.6722H98.6891C96.2149 19.8413 94.5942 21.3671 94.3385 23.7547C94.3073 24.0988 94.2977 24.4445 94.3097 24.7898V25.029C94.5282 27.8208 95.9592 30.328 97.2211 32.5425L97.4809 33.0002C98.2149 34.2745 98.6685 35.0621 99.2211 36.1055L98.8788 36.5426C97.8108 37.9117 96.5984 39.4663 96.2396 41.1447V41.3179L96.219 41.4788L96.1942 41.6355C95.7324 44.9097 97.7613 47.0953 100.009 47.5655C100.486 47.6679 100.972 47.7204 101.46 47.7222C104.458 47.7222 106.359 45.7634 108.058 44.0396C108.376 43.7138 108.706 43.3757 109.036 43.054C109.79 42.32 110.434 41.6767 111.052 41.0581C112.199 39.9076 113.188 38.9138 114.578 37.6807C114.9 37.388 115.287 37.0416 115.7 36.6787C116.751 35.7426 118.067 34.5755 119.151 33.4168C120.139 32.4296 120.86 31.208 121.246 29.8662C121.535 28.8765 122.092 25.5197 117.172 23.9238C116.275 23.6273 115.337 23.4769 114.392 23.4784C111.481 23.4784 109.761 25.1857 108.508 26.4311C108.281 26.662 108.062 26.8764 107.848 27.0744C107.415 25.6415 106.831 24.259 106.104 22.9506V22.8929C105.118 21.3258 103.365 20.2495 101.155 19.8578C100.529 19.7442 99.8944 19.6862 99.2582 19.6846V19.6722Z" fill="#45413C"/>
<path d="M22.2826 62.0936C21.9164 62.0932 21.5537 62.0218 21.2146 61.8833C20.2874 61.4692 19.508 60.7832 18.9795 59.9162L18.5259 59.2564C17.6516 57.978 16.7939 56.6502 15.9609 55.3718C14.8475 53.6481 13.6928 51.8707 12.5258 50.2253C11.1773 48.3243 10.6618 46.2789 11.0371 44.3077C11.4495 42.184 12.8722 40.221 15.0784 38.7777C16.1093 38.1055 16.7279 37.6519 17.1815 37.322C17.4867 37.0993 17.7259 36.9096 17.965 36.7736C19.6847 35.6849 21.9115 34.4354 23.8909 34.4354C24.588 34.4217 25.2734 34.615 25.8606 34.9908C26.4478 35.3666 26.9104 35.9081 27.1899 36.5467C28.4271 39.0746 26.8106 40.5221 25.2559 41.4953L24.9466 41.6767C23.3342 42.5798 22.5631 43.0376 20.9919 44.0067C20.5108 44.2865 20.0902 44.6594 19.7548 45.1036C19.5609 45.3799 19.7177 45.9284 19.9733 46.3407C20.229 46.7531 20.3857 47.0377 20.5836 47.3263C21.1816 46.9139 21.8579 46.4438 22.3692 46.118C23.8249 45.1819 24.8188 44.7819 25.6683 44.7819C26.3528 44.7819 27.3178 45.0459 27.9858 46.316C29.1199 48.448 28.2621 49.615 26.3982 50.8769L26.0518 51.1078C25.2251 51.6394 24.4344 52.2249 23.6847 52.8604C23.9643 53.394 24.2755 53.9104 24.6167 54.4069C25.3631 55.5574 26.2085 56.8811 26.4394 58.0028C26.5796 58.7822 26.4394 59.9286 24.8641 61.0544C24.1338 61.6627 23.2308 62.0262 22.2826 62.0936Z" fill="#EDF2F4"/>
<path d="M23.8942 35.2601C24.4414 35.2416 24.9813 35.3893 25.4429 35.6838C25.9044 35.9783 26.2659 36.4056 26.4798 36.9096C27.3375 38.6499 26.6241 39.6849 24.8303 40.8025L24.5457 40.9674C22.9416 41.8664 22.1498 42.3365 20.5745 43.3056C19.9954 43.6471 19.4884 44.0981 19.0817 44.6335C18.6446 45.2603 18.8879 46.1634 19.2714 46.7944C19.6066 47.3808 19.9785 47.9455 20.3848 48.4851C21.1271 47.982 22.1292 47.281 22.8179 46.8356C23.956 46.1057 24.9128 45.6314 25.7045 45.6314C26.352 45.6314 26.8798 45.9572 27.2922 46.7284C28.1169 48.2954 27.7046 49.0212 25.9684 50.2171C24.7313 51.0418 22.921 52.246 22.855 52.7244C22.7436 53.5491 25.2715 56.3244 25.6468 58.1719C25.8241 59.1451 25.053 59.9204 24.4096 60.3946C23.8186 60.8957 23.0867 61.2012 22.3148 61.2688C22.056 61.2687 21.7997 61.2183 21.5601 61.1204C20.7842 60.7633 20.1334 60.1815 19.692 59.4502L19.2343 58.7863C17.1724 55.7966 15.2342 52.6295 13.2012 49.747C10.4424 45.8541 11.8239 41.9118 15.5353 39.4664C17.2549 38.3406 17.8528 37.8169 18.4219 37.4705C20.1622 36.3694 22.2117 35.2601 23.8942 35.2601ZM23.8942 33.6106C21.7127 33.6106 19.358 34.9302 17.5394 36.0849C17.2755 36.2498 17.0281 36.4354 16.7147 36.6622C16.2693 36.988 15.659 37.4334 14.6528 38.0973C12.261 39.6643 10.6981 41.8087 10.2527 44.1634C9.84032 46.3572 10.4012 48.6212 11.8775 50.7078C13.0363 52.3573 14.1868 54.1141 15.2961 55.8254C16.1208 57.1121 16.9951 58.4399 17.8693 59.7224L18.3271 60.3946C18.9533 61.4003 19.871 62.1915 20.958 62.6627C21.3874 62.8379 21.8469 62.9276 22.3106 62.9266C23.4322 62.8662 24.5054 62.4503 25.3746 61.7389C27.3788 60.2874 27.4365 58.7038 27.2798 57.8873V57.8543C27.02 56.5636 26.1293 55.1863 25.3416 53.9739C25.1643 53.6976 24.9499 53.3677 24.7808 53.0872C25.3128 52.6749 26.1128 52.1347 26.5664 51.8254L26.9128 51.5903C28.7602 50.3284 30.2654 48.7779 28.7644 45.9613C28.4982 45.3765 28.0702 44.8801 27.5309 44.5308C26.9916 44.1815 26.3635 43.9939 25.721 43.9902C24.4138 43.9902 23.0818 44.7325 21.956 45.4582C21.6343 45.6644 21.2467 45.9242 20.8591 46.1923L20.7106 45.9449C20.6229 45.8075 20.5614 45.6551 20.5292 45.4954C20.8046 45.1857 21.1258 44.92 21.4818 44.7077C23.0282 43.7551 23.7993 43.3056 25.3829 42.4149L25.6633 42.2499H25.688C26.6695 41.6314 29.6675 39.7551 27.9231 36.2292C27.5825 35.4456 27.0189 34.7795 26.3025 34.3139C25.5861 33.8483 24.7486 33.6037 23.8942 33.6106Z" fill="#45413C"/>
<path d="M36.3492 53.7388C35.1987 53.7388 34.2873 53.1078 33.6192 51.8666C31.2769 47.483 29.9491 44.9716 29.1821 43.4046C28.8398 42.7035 28.6088 42.2087 28.4315 41.8169C28.3243 41.5819 28.2336 41.4045 28.147 41.2107L27.7346 40.386L27.6686 40.2251C27.0501 38.7241 26.4315 37.1694 27.0047 34.6209C27.747 31.4415 31.178 29.495 33.1574 28.6167C34.8786 27.8242 36.7436 27.392 38.6379 27.3466C41.9369 27.3466 44.3452 28.9425 45.5452 31.9652V32.0188L45.6937 32.4807C46.1591 33.8107 46.2166 35.2495 45.8588 36.6124C45.501 37.9754 44.7441 39.2004 43.6854 40.1303C44.0277 40.3282 44.3741 40.5427 44.5596 40.6581C45.0669 40.9922 45.6401 41.3262 46.2092 41.652C46.9914 42.0848 47.7436 42.5697 48.4607 43.1035C49.2126 43.6828 49.7846 44.4636 50.1103 45.3551C50.5556 46.7531 49.7597 48.0356 47.9783 48.7861L47.7638 48.8645H47.702C47.285 48.9468 46.861 48.9883 46.436 48.9882C44.139 48.9882 42.1142 47.8088 40.1554 46.6706L39.9328 46.5428C40.6874 48.4191 40.9266 49.4913 40.8029 50.3861C40.6256 51.6233 39.4709 52.6418 38.4523 53.1532C37.8075 53.512 37.0867 53.7127 36.3492 53.7388ZM35.9368 37.4663L36.0399 37.4251C37.5203 36.7529 38.0688 35.8787 37.6894 34.823C37.5928 34.6361 37.4428 34.4822 37.2585 34.3809C37.0742 34.2795 36.8639 34.2353 36.6543 34.2539C36.3842 34.2547 36.1173 34.3123 35.8708 34.423C35.5158 34.562 35.19 34.7662 34.91 35.025L35.9368 37.4663Z" fill="#EDF2F4"/>
<path d="M38.6435 28.1589C41.2085 28.1589 43.592 29.2311 44.7838 32.258C44.8457 32.4435 44.8745 32.5342 44.9323 32.7198C45.3817 33.9928 45.4038 35.3776 44.9953 36.6643C44.5867 37.9509 43.7698 39.0693 42.6683 39.8498C42.4992 39.9859 42.1941 40.1426 42.2271 40.2334C42.2601 40.3241 42.3796 40.3488 42.4209 40.3653C42.4621 40.3818 43.6374 41.0375 44.1034 41.3468C45.4024 42.2004 47.0354 43.0293 47.922 43.7468C48.5455 44.2245 49.0227 44.8674 49.2994 45.6025C49.6045 46.5634 49.0231 47.4376 47.6498 48.0232L47.5344 48.0685C47.1704 48.1404 46.8002 48.1763 46.4292 48.1758C43.4395 48.1758 40.7755 45.8582 38.0827 44.6334C38.4201 45.1758 38.7085 45.7471 38.9445 46.3407C39.7693 48.2789 40.0951 49.4459 39.9755 50.283C39.8559 51.1201 39.0105 51.9573 38.0744 52.4274C37.5515 52.7179 36.9688 52.8844 36.3713 52.914C35.5465 52.914 34.895 52.4645 34.3671 51.4789C31.9671 46.9799 30.697 44.5798 29.9464 43.0416C29.3897 41.9076 29.1217 41.3097 28.9114 40.8478L28.499 40.023C27.8845 38.5179 27.2619 37.1364 27.8227 34.7817C28.499 31.8497 31.8929 30.0765 33.497 29.3589C35.1129 28.6126 36.8642 28.2043 38.6435 28.1589ZM35.4599 38.4684C35.7766 38.4067 36.0861 38.3127 36.3837 38.188C38.0662 37.4292 39.0682 36.1797 38.4456 34.5425C38.2971 34.1943 38.0437 33.901 37.7207 33.7036C37.3977 33.5063 37.0211 33.4146 36.6435 33.4415C36.2584 33.4429 35.8778 33.5244 35.5259 33.6807C34.8818 33.9111 34.337 34.3568 33.9836 34.9425C34.5774 36.3529 34.8744 37.058 35.4641 38.4684M38.6476 26.5094C36.6385 26.5561 34.6599 27.0121 32.8331 27.8496C30.7093 28.7899 27.0268 30.9012 26.2103 34.4229C25.5587 37.2271 26.2763 38.9591 26.9113 40.5261L26.9649 40.6581V40.7117L26.9897 40.7612L27.134 41.054L27.3856 41.5736C27.4722 41.7427 27.5588 41.9324 27.6619 42.1633C27.8474 42.5757 28.0742 43.0581 28.4206 43.7674C29.2 45.351 30.4825 47.7675 32.8702 52.2542C33.8888 54.1635 35.3156 54.5635 36.3301 54.5635C37.1843 54.538 38.0205 54.3119 38.7713 53.9037C40.3384 53.1161 41.3858 51.8418 41.5714 50.5098C41.6493 49.7822 41.582 49.0463 41.3734 48.3448C42.8992 49.1696 44.5653 49.8253 46.388 49.8253C46.867 49.826 47.345 49.779 47.8148 49.6851L47.9426 49.6603L48.0663 49.615L48.1364 49.5861H48.2478C50.8581 48.4892 51.3035 46.5716 50.8499 45.1448C50.4759 44.1022 49.8138 43.187 48.9406 42.5056C48.1934 41.9443 47.4079 41.4359 46.59 40.9839C46.0457 40.6622 45.4807 40.3323 44.99 40.0107C45.8943 38.9622 46.508 37.695 46.7699 36.3355C47.0318 34.9759 46.9328 33.5715 46.4828 32.2621L46.4416 32.126L46.3344 31.8002V31.7466L46.3137 31.693C44.9982 28.394 42.2724 26.5548 38.6394 26.5548L38.6476 26.5094ZM35.9259 35.3054C36.0115 35.258 36.0996 35.2153 36.1898 35.1776C36.3314 35.1146 36.4844 35.0809 36.6393 35.0786C36.7313 35.0748 36.8229 35.0918 36.9074 35.1281C36.9899 35.3508 37.1383 35.792 36.3548 36.3199L35.9424 35.3054H35.9259Z" fill="#45413C"/>
<path d="M52.1642 46.9552C50.4446 46.9552 49.8508 45.6686 49.558 44.7036C49.3683 44.0809 48.9683 42.7778 49.8797 41.8169C50.1333 41.5875 50.3466 41.3171 50.5106 41.0169C50.1642 39.5901 49.6859 38.0231 49.2199 36.3653C49.0219 35.6849 48.8075 34.988 48.6137 34.2745C48.5106 33.9075 48.4116 33.5116 48.3126 33.1034C48.2137 32.6951 48.1229 32.2786 48.0116 31.9075C47.8884 31.3723 47.681 30.8601 47.3972 30.3899C47.327 30.3033 47.2652 30.2167 46.7209 30.2126C45.6775 30.2126 44.8528 29.4373 44.4528 28.1507C44.2148 27.442 44.1777 26.6813 44.3456 25.9527C44.7002 24.7156 46.16 23.7795 49.0714 22.9671L49.8962 22.7321C51.0276 22.3861 52.1986 22.1866 53.3808 22.1382C55.0303 22.1382 56.0818 22.8475 56.4736 24.2414V24.2909L56.5478 24.6414C56.9602 26.5177 56.0447 27.462 55.0715 28.126C55.1664 28.7322 55.3602 29.5239 55.5293 30.2209L55.6983 30.9343L56.4695 34.0519C56.6633 34.8766 56.8365 35.7756 57.0056 36.6416C57.1746 37.5076 57.3272 38.3158 57.5004 39.054C57.5112 39.1116 57.5307 39.1672 57.5582 39.219C59.0097 39.5777 59.6778 39.9282 60.0654 41.6932C60.4118 43.3015 59.9582 44.5799 58.8283 45.1613C57.7491 45.6044 56.638 45.9656 55.5045 46.2418L54.9602 46.3943C54.0575 46.7055 53.1171 46.8941 52.1642 46.9552Z" fill="#EDF2F4"/>
<path d="M53.3981 22.9794C54.6724 22.9794 55.4023 23.4413 55.6951 24.4805C55.7281 24.6207 55.7404 24.6908 55.7693 24.831C56.0703 26.229 55.5012 26.8929 54.5651 27.5115C54.4553 27.582 54.3689 27.6835 54.3168 27.8032C54.2647 27.9228 54.2492 28.0552 54.2724 28.1837C54.4002 29.0455 54.7095 30.2208 54.9239 31.1363C55.2126 32.3734 55.3569 33.0002 55.6497 34.2415C56.025 35.8539 56.3219 37.722 56.6806 39.2436C56.8044 39.7797 57.0477 39.9529 57.3322 40.0189C58.5693 40.3241 58.9364 40.4808 59.2374 41.8787C59.4601 42.8973 59.3611 43.9406 58.4126 44.4396C57.2025 44.912 55.9627 45.3046 54.7012 45.6149C53.8808 45.8922 53.0287 46.0654 52.1651 46.1304C51.2414 46.1304 50.7218 45.685 50.3465 44.4809C50.128 43.7674 49.9341 42.9633 50.4702 42.419C51.0929 41.7757 51.4187 41.289 51.3321 40.9262C50.8372 38.8643 50.1197 36.5714 49.4063 34.0765C49.2001 33.3549 49.0269 32.493 48.8042 31.7095C48.6507 31.0717 48.4004 30.4611 48.0619 29.8992C47.7527 29.4868 47.3485 29.4043 46.7382 29.3961C46.0165 29.3961 45.5011 28.7651 45.2495 27.895C45.067 27.3648 45.0272 26.7959 45.1341 26.2455C45.4763 25.0413 47.5836 24.2784 49.295 23.8001L50.1197 23.5691C51.1806 23.2455 52.2778 23.0557 53.3857 23.0042M53.3857 21.3547C52.1268 21.4002 50.8792 21.6095 49.6743 21.9774L48.8248 22.2124C46.664 22.8145 44.1155 23.7671 43.5299 25.7712C43.3312 26.6402 43.3726 27.5467 43.6495 28.394C44.1526 30.0435 45.299 31.0414 46.6928 31.0621H46.8001C46.9682 31.4225 47.1061 31.7963 47.2124 32.1796C47.3197 32.5425 47.4145 32.9508 47.5094 33.3384C47.6042 33.726 47.7073 34.1631 47.8186 34.5467C48.0207 35.2601 48.231 35.9611 48.429 36.6457C48.8702 38.1591 49.2908 39.5942 49.6207 40.9097C49.5152 41.0423 49.4023 41.169 49.2826 41.289C48.0454 42.5798 48.565 44.3159 48.7671 44.9716C49.3403 46.8479 50.4826 47.8046 52.161 47.8046C53.1771 47.7428 54.1807 47.5487 55.1466 47.2273L55.6827 47.0747C56.8755 46.7906 58.0425 46.4071 59.1714 45.9283C60.6683 45.153 61.2787 43.5571 60.8457 41.5571C60.4333 39.6519 59.6456 38.9962 58.2106 38.5715C58.0662 37.9364 57.9343 37.2395 57.7982 36.5096C57.6291 35.6353 57.4559 34.7364 57.258 33.891L56.9281 32.4765L56.5363 30.7858C56.4827 30.559 56.425 30.3198 56.3631 30.0724C56.2394 29.5651 56.1074 29.0125 56.0085 28.5259C56.6167 28.0736 57.074 27.4481 57.3205 26.7313C57.567 26.0146 57.5912 25.2401 57.3899 24.5094L57.3611 24.3815L57.3116 24.1588V24.0599C57.0312 23.0496 56.1487 21.3547 53.427 21.3547H53.3857Z" fill="#45413C"/>
<path d="M65.8436 43.8541C63.7818 43.8541 61.3322 43.3799 60.4415 39.652L57.4311 24.1342C57.3447 23.7381 57.3583 23.3268 57.4706 22.9373C57.5829 22.5478 57.7904 22.1924 58.0744 21.9032C58.9734 20.93 60.6765 20.2825 63.4354 19.8702C65.3183 19.589 67.2385 19.6867 69.0832 20.1576C70.9279 20.6285 72.66 21.4632 74.1778 22.6125C75.4793 23.6204 76.5419 24.9034 77.2898 26.3698C78.0376 27.8362 78.4521 29.4498 78.5037 31.0951C78.8088 37.6313 74.2727 43.0541 67.9509 43.7221C67.2511 43.8015 66.5478 43.8455 65.8436 43.8541ZM67.3406 35.0869H67.4519C68.9736 34.8931 69.988 33.058 69.7654 30.9095C69.5922 29.2312 68.4829 27.4167 66.9901 27.4167C66.9104 27.4107 66.8305 27.4107 66.7509 27.4167L66.5076 27.4456C66.4258 27.4578 66.3465 27.4829 66.2725 27.5198L67.3406 35.0869Z" fill="#EDF2F4"/>
<path d="M65.5432 20.5382C71.3618 20.5382 77.366 24.2496 77.6918 31.1322C77.9846 37.3797 73.535 42.3077 67.8772 42.9015C67.2063 42.9786 66.5319 43.0213 65.8566 43.0293C63.6215 43.0293 61.9472 42.3489 61.2586 39.4581L58.2523 23.9774C58.1934 23.7097 58.2021 23.4315 58.2777 23.168C58.3533 22.9044 58.4934 22.6639 58.6853 22.4681C59.7327 21.3382 62.2318 20.8846 63.5679 20.6825C64.222 20.5869 64.8821 20.5386 65.5432 20.5382ZM67.1927 35.9199C67.3141 35.9174 67.4353 35.9078 67.5556 35.891C69.535 35.6354 70.8546 33.4168 70.5783 30.8105C70.3597 28.6703 68.9288 26.5754 66.9824 26.5754C66.868 26.5764 66.7537 26.5832 66.6401 26.596L66.3927 26.629C66.1927 26.6519 65.9997 26.7166 65.8264 26.8189C65.653 26.9212 65.5031 27.0588 65.3865 27.2229C65.8689 30.6332 66.1122 32.3405 66.5947 35.755C66.7736 35.8672 66.9815 35.9246 67.1927 35.9199ZM65.5432 18.8887C64.8005 18.8875 64.0589 18.9426 63.3246 19.0536C60.3719 19.4949 58.5162 20.2248 57.477 21.3465C57.1101 21.7329 56.8431 22.2032 56.6993 22.7163C56.5556 23.2295 56.5394 23.77 56.6523 24.2908L58.1203 31.9858L59.6297 39.7756V39.8416C60.4049 43.0994 62.4338 44.6788 65.8153 44.6788C66.5906 44.6788 67.3947 44.6046 68.0092 44.5427C71.2178 44.2191 74.1765 42.6659 76.265 40.2086C78.42 37.6612 79.5178 34.3854 79.3331 31.0538C79.2757 29.2933 78.8301 27.5672 78.0281 25.9989C77.2261 24.4305 76.0875 23.0587 74.6938 21.9815C72.0755 19.9559 68.8535 18.8669 65.5432 18.8887ZM68.0174 33.9611L67.5803 30.9013L67.2092 28.262C68.0339 28.4435 68.8092 29.6394 68.9453 30.9879C69.0814 32.3363 68.6855 33.4621 68.0133 33.9735L68.0174 33.9611Z" fill="#45413C"/>
<path d="M92.2811 43.5076C92.0785 43.5074 91.876 43.495 91.6749 43.4705C88.3759 43.087 88.3759 38.889 88.4006 36.6333V35.5199C88.0709 35.3923 87.7228 35.3185 87.3697 35.3013H87.081C86.886 35.2983 86.6912 35.3149 86.4995 35.3508C86.4377 35.5776 86.3882 35.8127 86.3387 36.0766C86.2892 36.3405 86.2274 36.6209 86.149 36.9013C86.0707 37.1818 86.0129 37.4622 85.9387 37.7715C85.4892 39.7344 84.8047 42.72 82.1613 42.72H82.1118C79.1427 42.6746 78.0664 39.0952 78.0664 36.7034C78.0664 33.5776 78.6437 29.693 79.0231 27.1197C79.7572 22.1712 83.0108 18.8392 87.114 18.8392C87.3642 18.8392 87.6198 18.8515 87.881 18.8763C92.0295 19.2887 96.9203 22.2207 96.6564 34.0147V35.4415C96.6866 36.512 96.6535 37.5833 96.5575 38.6498C96.1781 41.7798 94.6646 43.5076 92.2811 43.5076ZM87.8398 25.7506C87.5387 25.8455 86.8294 27.0249 86.7965 28.4064C86.7965 29.0043 86.7965 29.029 87.6212 29.0827H88.1243C88.2641 29.098 88.4055 29.0797 88.5367 29.029C88.6126 28.8698 88.6466 28.6938 88.6357 28.5177C88.6934 27.1898 88.1367 25.8042 87.8398 25.7506Z" fill="#EDF2F4"/>
<path d="M87.0989 19.6557C87.3257 19.6557 87.5525 19.6557 87.7876 19.6887C94.765 20.3567 95.9527 27.9363 95.8166 33.99C95.763 35.091 95.8949 36.9756 95.7135 38.5509C95.4784 40.6499 94.6001 42.6747 92.2784 42.6747C92.1088 42.6734 91.9394 42.6624 91.7711 42.6417C88.3402 42.2293 89.5237 36.0642 89.136 35.058C88.9175 34.7446 88.1505 34.5219 87.4082 34.4683H87.0659C86.4226 34.4683 85.87 34.592 85.7793 34.8353C85.5607 35.4745 85.5154 36.023 85.338 36.6952C84.8391 38.5797 84.472 41.887 82.1462 41.887H82.1091C79.6348 41.8499 78.8761 38.4808 78.8761 36.6952C78.8761 33.7261 79.3998 30.0971 79.8245 27.2352C80.4307 23.1114 83.0865 19.6557 87.0989 19.6557ZM88.1092 29.9322C88.9958 29.9322 89.3917 29.6435 89.4495 28.5878C89.5154 27.3507 89.0371 25.0084 87.8865 24.9259H87.8329C86.8721 24.9259 86.0102 26.8228 85.9731 28.3858C85.9442 29.5858 86.4267 29.8332 87.5484 29.9074H88.1092M87.0989 17.9814C82.5627 17.9814 78.9874 21.5939 78.1915 26.9672C77.808 29.561 77.2266 33.4827 77.2266 36.6704C77.2266 39.3921 78.5214 43.4582 82.0844 43.5118H82.1462C85.4453 43.5118 86.27 40.0231 86.7278 37.9406C86.7979 37.6313 86.868 37.3426 86.9298 37.1158C87.0205 36.7859 87.0783 36.489 87.1319 36.2251C87.1407 36.1883 87.1476 36.1512 87.1525 36.1137H87.2968L87.5814 36.1467V36.6209C87.5814 38.955 87.5484 43.8128 91.5773 44.2829C91.8101 44.3086 92.0441 44.3224 92.2784 44.3242C93.6145 44.3242 96.7815 43.7798 97.3547 38.7282C97.4535 37.6315 97.488 36.5299 97.4578 35.4292V34.0271C97.5486 30.027 97.0455 26.7156 95.9815 24.1795C94.4392 20.5217 91.6598 18.4062 87.936 18.0474C87.6515 18.0227 87.3669 18.0062 87.1113 18.0062L87.0989 17.9814ZM87.6309 28.2332C87.6485 28.009 87.6858 27.7869 87.7422 27.5692C87.7792 27.7929 87.7998 28.0189 87.8041 28.2455H87.6556L87.6309 28.2332Z" fill="#45413C"/>
<path d="M101.278 45.1984C100.904 45.1984 100.531 45.1583 100.165 45.0788C98.1939 44.6664 97.4062 42.7118 97.6495 40.9963L97.699 40.6458V40.6169C97.9794 39.3097 99.0681 37.9158 100.029 36.6869C100.404 36.2044 100.767 35.7426 101.01 35.3673C100.186 33.8209 99.7073 32.9467 98.7588 31.3054L98.4908 30.8353C97.2537 28.6703 95.9835 26.4352 95.7897 24.0104V23.8661C95.7732 23.5914 95.7732 23.316 95.7897 23.0413C95.9588 21.4702 96.9567 20.5423 98.6021 20.431H99.0681C99.6089 20.4328 100.148 20.4825 100.681 20.5794C102.413 20.8887 103.773 21.7011 104.507 22.8681C105.335 24.4223 105.991 26.0623 106.462 27.7589C106.619 28.2455 106.767 28.7157 106.916 29.1486L107.217 28.8559C107.703 28.3899 108.202 27.9074 108.751 27.4125C109.006 27.1816 109.254 26.9342 109.505 26.6867C110.672 25.5238 111.98 24.2125 114.227 24.2125C114.996 24.2301 115.757 24.3693 116.483 24.6249C119.782 25.6888 119.782 27.5321 119.485 28.5383C119.167 29.6315 118.575 30.6252 117.765 31.425C116.734 32.526 115.51 33.6147 114.425 34.5755C114.013 34.9467 113.6 35.2931 113.283 35.6024C111.839 36.8807 110.833 37.8911 109.666 39.0581C109.056 39.6725 108.429 40.2952 107.67 41.0334C107.32 41.3757 106.986 41.7179 106.66 42.0561C105.085 43.652 103.584 45.1984 101.278 45.1984Z" fill="#EDF2F4"/>
<path d="M99.0867 21.2393C99.579 21.2428 100.07 21.2883 100.555 21.3753C101.953 21.6228 103.182 22.2661 103.825 23.2929C105.161 25.5486 105.804 28.8105 106.608 30.5673C107.47 29.7879 108.324 28.9177 109.322 28.0105C110.765 26.695 111.92 25.0166 114.246 25.0166C114.927 25.0281 115.602 25.1478 116.246 25.3713C117.85 25.8909 119.132 26.761 118.72 28.2579C118.437 29.2259 117.911 30.1049 117.19 30.8106C115.776 32.324 113.916 33.8704 112.749 34.9343C110.53 36.922 109.256 38.3241 107.116 40.4066C105.136 42.3242 103.668 44.3737 101.285 44.3737C100.966 44.3725 100.648 44.338 100.336 44.2706C98.7733 43.9448 98.2743 42.3572 98.4681 41.1118C98.4681 40.9839 98.4929 40.918 98.5135 40.7901C98.897 38.9922 101.326 36.6663 101.957 35.388C101.008 33.5776 100.509 32.6786 99.4826 30.893C98.2455 28.6992 96.8145 26.3569 96.6207 23.9445C96.6057 23.6698 96.6057 23.3944 96.6207 23.1197C96.7444 21.9609 97.3836 21.33 98.6826 21.2434H99.095M99.095 19.5939H98.5795C96.5176 19.7341 95.2103 20.9547 95 22.9424C94.9697 23.2507 94.9614 23.5608 94.9753 23.8702V24.0599C95.1815 26.6703 96.5629 29.0951 97.7795 31.2312L98.0434 31.6931C98.897 33.1694 99.3712 34.023 100.052 35.2972C99.8537 35.5653 99.6187 35.8704 99.3836 36.1674C98.3692 37.4664 97.2186 38.9385 96.9093 40.4314V40.5468L96.8887 40.6994L96.864 40.8685C96.5671 42.9634 97.5609 45.3593 100.027 45.8747C100.45 45.9642 100.881 46.0098 101.314 46.0108C103.961 46.0108 105.66 44.2665 107.297 42.5798C107.619 42.2499 107.953 41.9077 108.291 41.5778C109.046 40.8479 109.681 40.2087 110.299 39.5901C111.454 38.4313 112.456 37.4292 113.862 36.1797C114.188 35.8787 114.58 35.5323 114.996 35.1653C116.089 34.1921 117.334 33.1034 118.39 31.957C119.287 31.0624 119.944 29.9561 120.299 28.7404C120.6 27.7012 120.86 25.1404 116.761 23.7919C115.952 23.517 115.104 23.3709 114.25 23.3589C111.677 23.3589 110.163 24.8641 108.947 26.0765C108.695 26.328 108.456 26.5631 108.213 26.7816C107.899 27.0662 107.602 27.3425 107.314 27.6064L107.272 27.4703C106.753 25.8208 106.163 23.9733 105.252 22.431C104.394 21.0619 102.835 20.1176 100.872 19.7671C100.293 19.6617 99.7047 19.6079 99.1156 19.6062L99.095 19.5939Z" fill="#45413C"/>
</svg>
