<svg width="155" height="155" viewBox="0 0 155 155" fill="none" xmlns="http://www.w3.org/2000/svg">
<path d="M28.7832 56.9553C39.968 56.9553 49.0351 47.9696 49.0351 36.8848C49.0351 25.8002 39.968 16.8143 28.7832 16.8143C17.5983 16.8143 8.53125 25.8002 8.53125 36.8848C8.53125 47.9696 17.5983 56.9553 28.7832 56.9553Z" fill="#EF233C" stroke="#45413C" stroke-width="2.42" stroke-linecap="round" stroke-linejoin="round"/>
<path d="M28.7835 53.2233C37.8868 53.2233 45.2665 45.9086 45.2665 36.8849C45.2665 27.8615 37.8868 20.5465 28.7835 20.5465C19.6804 20.5465 12.3008 27.8615 12.3008 36.8849C12.3008 45.9086 19.6804 53.2233 28.7835 53.2233Z" fill="white"/>
<path d="M28.7838 25.2021C32.7339 25.1889 36.5568 26.5987 39.5526 29.1734C42.5482 31.7482 44.5169 35.3157 45.0975 39.223C45.2101 38.4514 45.2666 37.6727 45.2666 36.893C45.1156 32.6219 43.3123 28.5761 40.2375 25.6079C37.1625 22.6398 33.0555 20.981 28.7817 20.981C24.5079 20.981 20.4009 22.6398 17.3259 25.6079C14.2509 28.5761 12.4479 32.6219 12.2969 36.893C12.2988 37.6726 12.3553 38.4512 12.466 39.223C13.0476 35.3153 15.0168 31.7478 18.0133 29.1731C21.0097 26.5984 24.8331 25.1887 28.7838 25.2021Z" fill="#F0F0F0"/>
<path d="M28.7835 53.2233C37.8868 53.2233 45.2665 45.9086 45.2665 36.8849C45.2665 27.8615 37.8868 20.5465 28.7835 20.5465C19.6804 20.5465 12.3008 27.8615 12.3008 36.8849C12.3008 45.9086 19.6804 53.2233 28.7835 53.2233Z" stroke="#45413C" stroke-width="2.42" stroke-linecap="round" stroke-linejoin="round"/>
<path d="M28.783 47.2521V36.889H22.0117" stroke="#45413C" stroke-width="2.42" stroke-linecap="round" stroke-linejoin="round"/>
<path d="M147.985 116.396H135.746C136.121 116.393 136.492 116.465 136.839 116.607C137.186 116.748 137.501 116.956 137.768 117.22C138.034 117.483 138.245 117.797 138.39 118.142C138.535 118.488 138.61 118.858 138.612 119.233V133.171C143.709 128.935 147.049 122.956 147.985 116.396Z" fill="#BF8256"/>
<path d="M135.744 116.396H29.5692C29.1946 116.394 28.8233 116.465 28.4765 116.607C28.1297 116.748 27.8141 116.956 27.5479 117.22C27.2817 117.483 27.0701 117.797 26.9251 118.142C26.7802 118.488 26.7047 118.858 26.7031 119.233V128.561C36.2632 135.593 47.8254 139.377 59.6933 139.357H121.509C127.76 139.367 133.815 137.177 138.614 133.171V119.233C138.613 118.858 138.537 118.487 138.392 118.141C138.247 117.796 138.035 117.482 137.768 117.219C137.502 116.955 137.185 116.747 136.838 116.605C136.491 116.464 136.119 116.393 135.744 116.396Z" fill="#DEA47A"/>
<path d="M129.796 89.5621C129.796 89.5621 125.297 83.0011 125.862 78.2382C131.961 79.1866 144.146 80.8897 144.146 80.8897C144.146 80.8897 141.693 89.5497 148.25 89.5497L129.796 89.5621Z" fill="#E0E0E0" stroke="#45413C" stroke-width="2.42" stroke-linecap="round" stroke-linejoin="round"/>
<path d="M127.075 76.8773L125.219 77.3928L125.862 78.2176C125.993 78.3846 126.081 78.5805 126.119 78.7887C126.157 78.997 126.145 79.2114 126.082 79.4139C126.02 79.6164 125.91 79.8007 125.761 79.9516C125.612 80.1022 125.429 80.2147 125.227 80.2795C124.283 80.6052 123.066 80.9929 121.899 81.2816C116.225 83.5414 115.672 89.0714 108.468 89.0755C107.374 91.3836 105.972 93.5337 104.303 95.4674C107 98.82 108.625 104.54 106.984 108.742C106.159 110.804 104.831 112.779 102.682 113.175V116.396H74.7232C75.2923 112.14 73.6716 111.059 73.6716 111.059C72.7718 111.746 71.7879 112.314 70.7437 112.75C68.6818 113.616 66.4344 113.538 64.0302 113.451C61.9106 113.373 59.494 113.29 56.9414 113.864C56.6705 113.923 56.3938 113.952 56.1167 113.95C55.176 113.965 54.2634 113.629 53.5574 113.007C52.8519 112.386 52.4032 111.523 52.3001 110.587C52.197 109.652 52.4465 108.713 52.9999 107.951C53.5533 107.19 54.3707 106.664 55.2919 106.474C58.7971 105.711 61.8446 105.822 64.29 105.909C65.5271 105.95 67.2426 106.012 67.7251 105.81C70.0757 104.812 70.0757 103.364 70.0056 102.882C69.9483 102.756 69.8988 102.626 69.8571 102.494C65.8818 100.59 62.4104 97.7771 59.7229 94.2834C57.0354 90.7898 55.207 86.713 54.3859 82.3822C53.5645 78.0518 53.7735 73.5886 54.9954 69.3535C56.2173 65.1184 58.4182 61.2301 61.4199 58.0028C61.3873 50.8604 64.0719 43.9729 68.9293 38.7364C74.0828 33.1807 81.2177 29.8794 88.7882 29.5474C96.359 29.2156 103.755 31.8799 109.375 36.9632C112.147 39.464 114.393 42.4904 115.985 45.8665C117.577 49.2426 118.483 52.9017 118.649 56.6308C118.816 60.3595 118.24 64.0845 116.955 67.5894C115.67 71.0937 113.702 74.3086 111.165 77.0464C111.165 78.4807 111.057 79.9133 110.839 81.331C114.464 79.9619 122.613 70.3948 127.594 74.6299C127.77 74.787 127.901 74.9882 127.972 75.213C128.043 75.4377 128.053 75.6777 128 75.9074C127.947 76.1371 127.833 76.3483 127.67 76.519C127.507 76.6897 127.301 76.8134 127.075 76.8773Z" fill="white"/>
<path d="M90.0453 86.2425C105.856 86.2425 118.673 73.54 118.673 57.8709C118.673 42.2017 105.856 29.4993 90.0453 29.4993C74.2347 29.4993 61.418 42.2017 61.418 57.8709C61.418 73.54 74.2347 86.2425 90.0453 86.2425Z" fill="white"/>
<path d="M62.3782 83.3269C60.3506 85.5088 58.6804 87.9971 57.4297 90.7002C58.9444 93.419 60.8945 95.871 63.203 97.9581C68.8229 103.041 76.2193 105.706 83.7902 105.374C91.3606 105.042 98.4956 101.74 103.649 96.1848C105.677 94.0017 107.347 91.5118 108.598 88.8074C107.083 86.0886 105.133 83.637 102.824 81.5495C97.204 76.467 89.8072 73.8034 82.2363 74.1358C74.6659 74.4686 67.5313 77.7709 62.3782 83.3269Z" fill="#F0F0F0"/>
<path d="M72.9638 103.777C68.5238 102.263 64.5328 99.6625 61.3537 96.213C58.1747 92.7634 55.9083 88.5741 54.761 84.0251C53.6134 79.4766 53.6216 74.7136 54.7841 70.1688C55.9466 65.624 58.2267 61.442 61.4172 58.0028" stroke="#45413C" stroke-width="2.42" stroke-linecap="round" stroke-linejoin="round"/>
<path d="M55.0802 77.0051C53.9494 79.0109 53.6117 81.3681 54.135 83.6106C54.6579 85.8535 56.0035 87.8181 57.905 89.1167C59.9409 90.52 62.4486 91.0631 64.8828 90.6276C67.3167 90.1921 69.4804 88.8131 70.9031 86.7908C71.6013 85.7941 72.0949 84.6687 72.3547 83.4799C72.6149 82.2914 72.6364 81.0625 72.4182 79.8654C72.2001 78.6682 71.746 77.5263 71.0833 76.5061C70.4207 75.4855 69.5617 74.6067 68.5567 73.9205C67.0037 72.8516 65.1641 72.2768 63.2783 72.271C61.0077 74.5399 58.1804 76.1721 55.0802 77.0051Z" fill="white" stroke="#45413C" stroke-width="2.42" stroke-linecap="round" stroke-linejoin="round"/>
<path d="M65.3166 69.8257C63.752 72.0567 61.7108 73.9119 59.3404 75.2563C56.9705 76.6006 54.3309 77.4011 51.6133 77.599" stroke="#45413C" stroke-width="2.42" stroke-linecap="round" stroke-linejoin="round"/>
<path d="M60.8867 85.7723C61.6224 85.7723 62.2187 85.1813 62.2187 84.4527C62.2187 83.724 61.6224 83.1331 60.8867 83.1331C60.1514 83.1331 59.5547 83.724 59.5547 84.4527C59.5547 85.1813 60.1514 85.7723 60.8867 85.7723Z" fill="#45413C"/>
<path d="M99.648 74.3082C100.779 76.314 101.116 78.6712 100.594 80.9141C100.071 83.1566 98.7251 85.1212 96.8232 86.4198C94.7889 87.8198 92.2846 88.3613 89.8536 87.9266C87.4222 87.492 85.2609 86.1163 83.8374 84.0981C83.1388 83.1018 82.6452 81.9764 82.3846 80.7875C82.1244 79.5986 82.1025 78.3697 82.3211 77.1726C82.5392 75.9755 82.9933 74.8332 83.6564 73.813C84.3195 72.7923 85.1785 71.9135 86.1838 71.2278C87.7373 70.1589 89.5769 69.584 91.4623 69.5782C93.7304 71.8439 96.5527 73.4748 99.648 74.3082Z" fill="white" stroke="#45413C" stroke-width="2.42" stroke-linecap="round" stroke-linejoin="round"/>
<path d="M89.4102 67.1287C90.9735 69.36 93.0139 71.2153 95.3835 72.5601C97.753 73.9045 100.392 74.7045 103.109 74.902" stroke="#45413C" stroke-width="2.42" stroke-linecap="round" stroke-linejoin="round"/>
<path d="M95.1718 82.8403C95.9075 82.8403 96.5038 82.2493 96.5038 81.5207C96.5038 80.7916 95.9075 80.201 95.1718 80.201C94.4361 80.201 93.8398 80.7916 93.8398 81.5207C93.8398 82.2493 94.4361 82.8403 95.1718 82.8403Z" fill="#45413C"/>
<path d="M62.5225 65.6978C61.1765 61.0325 61.0585 56.0993 62.1806 51.375C63.3027 46.6513 65.6268 42.2976 68.9267 38.7364C74.0806 33.1807 81.2152 29.8794 88.786 29.5474C96.3565 29.2156 103.753 31.8799 109.373 36.9632C112.144 39.4643 114.39 42.4908 115.982 45.8669C117.573 49.2431 118.478 52.9017 118.645 56.6308C118.812 60.3595 118.236 64.0845 116.951 67.5889C115.667 71.0937 113.699 74.3082 111.162 77.0464" stroke="#87898C" stroke-width="2.42" stroke-linecap="round" stroke-linejoin="round"/>
<path d="M73.6383 38.0849C71.2019 37.5782 68.6646 37.9931 66.5165 39.2492C64.3684 40.5053 62.7626 42.5135 62.0092 44.885C61.6211 46.1362 61.4838 47.4517 61.6055 48.756C61.7271 50.0604 62.1057 51.3276 62.7185 52.4856C63.3317 53.6431 64.1676 54.6683 65.1783 55.5017C66.1886 56.3355 67.354 56.9611 68.6072 57.343C71.1495 58.1397 73.9042 57.896 76.2672 56.6655C78.6301 55.4349 80.4091 53.3178 81.2136 50.7779C81.8203 48.8575 81.8203 46.7972 81.2136 44.8768C78.1365 43.3164 75.5241 40.974 73.6383 38.0849Z" fill="white" stroke="#87898C" stroke-width="2.42" stroke-linecap="round" stroke-linejoin="round"/>
<path d="M84.3937 46.1592C81.5928 45.3073 79.0171 43.8409 76.8546 41.8667C74.6921 39.8927 72.9976 37.4609 71.8945 34.7488" stroke="#87898C" stroke-width="2.42" stroke-linecap="round" stroke-linejoin="round"/>
<path d="M68.7085 46.2128C69.5011 46.2128 70.1436 45.5757 70.1436 44.7901C70.1436 44.0046 69.5011 43.3674 68.7085 43.3674C67.9159 43.3674 67.2734 44.0046 67.2734 44.7901C67.2734 45.5757 67.9159 46.2128 68.7085 46.2128Z" fill="#87898C"/>
<path d="M101.24 44.5098C103.35 45.13 105.197 46.4261 106.498 48.1989C107.798 49.9717 108.481 52.1227 108.439 54.3211C108.398 56.5195 107.635 58.6432 106.268 60.3657C104.901 62.0882 103.006 63.3138 100.875 63.8536C98.7431 64.3934 96.4935 64.2182 94.4712 63.3542C92.4493 62.4903 90.7672 60.9859 89.6843 59.0725C88.601 57.1591 88.1767 54.9425 88.4765 52.7643C88.7763 50.5862 89.7833 48.5667 91.3433 47.017C94.8049 47.0612 98.2173 46.1964 101.24 44.5098Z" fill="white" stroke="#87898C" stroke-width="2.42" stroke-linecap="round" stroke-linejoin="round"/>
<path d="M87.9258 46.6706C90.8124 47.2104 93.7824 47.1036 96.6228 46.358C99.4629 45.612 102.102 44.2454 104.351 42.3571" stroke="#87898C" stroke-width="2.42" stroke-linecap="round" stroke-linejoin="round"/>
<path d="M94.7984 53.2645C95.591 53.2645 96.2334 52.6274 96.2334 51.8418C96.2334 51.0562 95.591 50.4191 94.7984 50.4191C94.0058 50.4191 93.3633 51.0562 93.3633 51.8418C93.3633 52.6274 94.0058 53.2645 94.7984 53.2645Z" fill="#87898C"/>
<path d="M81.8649 63.0503C83.2728 63.0503 84.4134 61.9204 84.4134 60.5266C84.4134 59.1327 83.2728 58.0028 81.8649 58.0028C80.4575 58.0028 79.3164 59.1327 79.3164 60.5266C79.3164 61.9204 80.4575 63.0503 81.8649 63.0503Z" fill="#FFCCDD" stroke="#87898C" stroke-width="2.42" stroke-linecap="round" stroke-linejoin="round"/>
<path d="M138.61 133.171V119.233C138.608 118.858 138.533 118.488 138.388 118.142C138.243 117.797 138.032 117.483 137.766 117.22C137.499 116.956 137.184 116.748 136.837 116.607C136.49 116.465 136.119 116.393 135.744 116.396H29.5692C29.1946 116.393 28.8233 116.465 28.4765 116.607C28.1297 116.748 27.8141 116.956 27.5479 117.22C27.2817 117.483 27.0701 117.797 26.9251 118.142C26.7802 118.488 26.7047 118.858 26.7031 119.233V128.561" stroke="#45413C" stroke-width="2.42" stroke-linecap="round" stroke-linejoin="round"/>
<path d="M83.3129 100.226C83.3496 99.8319 83.4667 99.4492 83.6576 99.1024C83.8485 98.7556 84.1087 98.4517 84.4221 98.2096C84.7372 97.9642 85.0993 97.7861 85.4857 97.6859C85.8721 97.5857 86.275 97.5655 86.6696 97.6265C87.0643 97.6875 87.4424 97.8286 87.7806 98.0409C88.1187 98.2529 88.4098 98.5321 88.6367 98.8612C88.8614 99.1865 89.016 99.5548 89.0915 99.9432C89.1666 100.331 89.1604 100.731 89.0738 101.117L86.5335 112.412L82.2695 111.752L83.3129 100.226Z" fill="#FFE500" stroke="#45413C" stroke-width="2.42" stroke-linecap="round" stroke-linejoin="round"/>
<path d="M86.5257 112.412L83.7215 116.346L82.2617 111.752L86.5257 112.412Z" fill="#656769" stroke="#45413C" stroke-width="2.42" stroke-linecap="round" stroke-linejoin="round"/>
<path d="M74.7232 116.4C75.2923 112.144 73.6716 111.059 73.6716 111.059C72.7718 111.746 71.7879 112.314 70.7437 112.75C68.6818 113.616 66.4303 113.538 64.0343 113.451C61.9106 113.377 59.4982 113.29 56.9414 113.864C56.6705 113.921 56.3938 113.95 56.1167 113.95C55.176 113.965 54.2634 113.629 53.5574 113.007C52.8519 112.386 52.4032 111.522 52.3001 110.588C52.197 109.652 52.4465 108.713 52.9999 107.952C53.5533 107.191 54.3707 106.664 55.2919 106.474C58.7971 105.711 61.8446 105.822 64.29 105.909C65.5271 105.95 67.2468 106.012 67.7251 105.81C70.0798 104.812 70.0798 103.364 70.0056 102.882C69.9491 102.757 69.8996 102.629 69.8571 102.498" stroke="#45413C" stroke-width="2.42" stroke-linecap="round" stroke-linejoin="round"/>
<path d="M32.1211 111.266H58.8225V116.4H33.4943C33.1301 116.4 32.7808 116.255 32.5233 115.998C32.2658 115.74 32.1211 115.391 32.1211 115.026V111.266Z" fill="#E0E0E0" stroke="#45413C" stroke-width="2.42" stroke-linecap="round" stroke-linejoin="round"/>
<path d="M68.3711 111.266H55.8224C55.0637 111.266 54.4492 111.88 54.4492 112.639V115.026C54.4492 115.785 55.0637 116.4 55.8224 116.4H68.3711C69.1295 116.4 69.7443 115.785 69.7443 115.026V112.639C69.7443 111.88 69.1295 111.266 68.3711 111.266Z" fill="#656769" stroke="#45413C" stroke-width="2.42" stroke-linecap="round" stroke-linejoin="round"/>
<path d="M43.875 92.5394H49.9741C50.3308 92.5386 50.6772 92.6557 50.9601 92.8731C51.243 93.09 51.4459 93.3947 51.537 93.7395L55.5412 109.274C55.6026 109.509 55.6092 109.755 55.5597 109.994C55.5103 110.232 55.4068 110.456 55.2566 110.647C55.1053 110.84 54.9119 110.997 54.6909 111.104C54.4702 111.211 54.2278 111.266 53.9824 111.266H48.7081L43.875 92.5394Z" fill="#656769" stroke="#45413C" stroke-width="2.42" stroke-linecap="round" stroke-linejoin="round"/>
<path d="M25.3863 94.5312C25.3253 94.2958 25.3196 94.0491 25.3697 93.8108C25.4198 93.5729 25.5242 93.3493 25.6749 93.158C25.8256 92.965 26.0183 92.8091 26.2384 92.7019C26.4585 92.5947 26.7002 92.539 26.9451 92.5394H46.3557C46.7116 92.539 47.0579 92.6561 47.34 92.8735C47.6221 93.0908 47.8241 93.3951 47.9145 93.7395L51.9351 109.274C51.9962 109.51 52.002 109.756 51.9516 109.994C51.9017 110.233 51.797 110.456 51.6465 110.647C51.496 110.84 51.303 110.996 51.0832 111.103C50.863 111.21 50.6213 111.266 50.3764 111.266H30.9534C30.599 111.267 30.2541 111.151 29.9722 110.936C29.6903 110.722 29.4872 110.42 29.3946 110.078L25.3863 94.5312Z" fill="#E0E0E0" stroke="#45413C" stroke-width="2.42" stroke-linecap="round" stroke-linejoin="round"/>
<path d="M38.2811 104.173C39.5474 104.173 40.5739 103.155 40.5739 101.9C40.5739 100.646 39.5474 99.6282 38.2811 99.6282C37.0148 99.6282 35.9883 100.646 35.9883 101.9C35.9883 103.155 37.0148 104.173 38.2811 104.173Z" fill="white" stroke="#45413C" stroke-width="2.42" stroke-linecap="round" stroke-linejoin="round"/>
<path d="M102.68 113.175L102.676 116.395" stroke="#45413C" stroke-width="2.42" stroke-linecap="round" stroke-linejoin="round"/>
<path d="M148.248 89.5621H138.594V116.396H147.815" fill="white"/>
<path d="M148.248 89.5621H138.594V116.396H147.815" stroke="#45413C" stroke-width="2.42" stroke-linecap="round" stroke-linejoin="round"/>
<path d="M142.244 90.9229C142.241 90.5604 142.096 90.2136 141.838 89.9587C141.581 89.7035 141.233 89.5608 140.87 89.562H126.404C126.225 89.5616 126.047 89.5962 125.881 89.6643C125.716 89.7323 125.565 89.8325 125.438 89.9587C125.311 90.0853 125.21 90.2354 125.14 90.4008C125.071 90.5662 125.036 90.7435 125.035 90.9229V115.026C125.036 115.206 125.071 115.383 125.14 115.548C125.21 115.714 125.311 115.864 125.438 115.991C125.565 116.117 125.716 116.217 125.881 116.285C126.047 116.353 126.225 116.388 126.404 116.387H140.875C141.236 116.387 141.583 116.244 141.84 115.989C142.096 115.734 142.241 115.388 142.244 115.026V90.9229Z" fill="white" stroke="#45413C" stroke-width="2.42" stroke-linecap="round" stroke-linejoin="round"/>
<path d="M125.035 92.6219H133.254" stroke="#45413C" stroke-width="2.42" stroke-linecap="round" stroke-linejoin="round"/>
<path d="M125.035 103.208H128.78" stroke="#45413C" stroke-width="2.42" stroke-linecap="round" stroke-linejoin="round"/>
<path d="M125.035 110.993H131.975" stroke="#45413C" stroke-width="2.42" stroke-linecap="round" stroke-linejoin="round"/>
<path d="M139.281 107.913H146.222" stroke="#45413C" stroke-width="2.42" stroke-linecap="round" stroke-linejoin="round"/>
<path d="M136.906 95.6075H144.853" stroke="#45413C" stroke-width="2.42" stroke-linecap="round" stroke-linejoin="round"/>
<path d="M128.504 92.6219L131.292 95.4715L133.16 92.6219H128.504Z" fill="white" stroke="#45413C" stroke-width="2.42" stroke-linecap="round" stroke-linejoin="round"/>
<path d="M108.496 89.0838C115.704 89.0838 116.224 83.5414 121.898 81.2816C123.065 80.9929 124.282 80.6053 125.226 80.2836C125.428 80.2184 125.61 80.1059 125.759 79.9549C125.907 79.804 126.017 79.6197 126.079 79.4172C126.141 79.2147 126.153 79.0003 126.115 78.7924C126.076 78.5842 125.988 78.3883 125.857 78.2217L125.218 77.397L127.074 76.8815C127.305 76.82 127.515 76.6963 127.682 76.5239C127.848 76.352 127.964 76.1376 128.017 75.9041C128.071 75.6707 128.06 75.4274 127.985 75.1998C127.91 74.9726 127.775 74.7697 127.593 74.6134C122.612 70.3783 114.459 79.9454 110.838 81.3145" stroke="#656769" stroke-width="2.42" stroke-linecap="round" stroke-linejoin="round"/>
<path d="M104.304 95.4673C107.001 98.824 108.626 104.54 106.981 108.742C106.181 110.804 104.832 112.779 102.688 113.175C97.2568 114.177 96.23 110.255 89.9247 111.719C89.3474 111.851 89.1494 112.024 88.4731 112.663L88.0607 113.076C87.3127 113.755 86.3267 114.113 85.3172 114.071C84.3073 114.028 83.3551 113.589 82.6668 112.849C82.3254 112.484 82.0602 112.055 81.887 111.587C81.7134 111.118 81.6346 110.62 81.6557 110.121C81.6771 109.622 81.7971 109.132 82.0099 108.68C82.2223 108.228 82.5229 107.823 82.8936 107.488C83.005 107.389 83.1081 107.29 83.2153 107.187C86.2463 104.325 89.4752 103.096 97.83 104.775C99.1372 105.034 100.23 104.993 100.37 104.68" fill="white"/>
<path d="M104.304 95.4673C107.001 98.824 108.626 104.54 106.981 108.742C106.181 110.804 104.832 112.779 102.688 113.175C97.2568 114.177 96.23 110.255 89.9247 111.719C89.3474 111.851 89.1494 112.024 88.4731 112.663L88.0607 113.076C87.3127 113.755 86.3267 114.113 85.3172 114.071C84.3073 114.028 83.3551 113.589 82.6668 112.849C82.3254 112.484 82.0602 112.055 81.887 111.587C81.7134 111.118 81.6346 110.62 81.6557 110.121C81.6771 109.622 81.7971 109.132 82.0099 108.68C82.2223 108.228 82.5229 107.823 82.8936 107.488C83.005 107.389 83.1081 107.29 83.2153 107.187C86.2463 104.325 89.4752 103.096 97.83 104.775C99.1372 105.034 100.23 104.993 100.37 104.68" stroke="#45413C" stroke-width="2.42" stroke-miterlimit="10" stroke-linecap="round"/>
<path d="M49.3438 70.2999C49.3438 70.2999 49.6324 63.2894 56.614 56.5553" stroke="#45413C" stroke-width="2.42" stroke-linecap="round" stroke-linejoin="round"/>
<path d="M45.8281 66.0194C45.8281 66.0194 46.6281 56.3698 57.8366 49.8253" stroke="#45413C" stroke-width="2.42" stroke-linecap="round" stroke-linejoin="round"/>
<path d="M82.8641 94.2839C83.0979 94.3086 83.3288 94.3416 83.5569 94.3828C85.5404 94.7292 87.0538 92.5931 85.9445 90.923C85.1214 89.6895 83.956 88.7233 82.5919 88.1431C81.2273 87.5629 79.723 87.3934 78.2636 87.6565C76.8042 87.9192 75.4532 88.6025 74.3769 89.6223C73.3006 90.6421 72.5455 91.9543 72.2041 93.3972C72.1954 93.4298 72.1884 93.4628 72.1835 93.4962C71.7711 95.4633 73.9608 96.9066 75.6928 95.855C77.8413 94.5465 80.3655 93.9935 82.8641 94.2839Z" fill="white" stroke="#45413C" stroke-width="2.42" stroke-linecap="round" stroke-linejoin="round"/>
<path d="M72.293 93.088C76.7178 91.7073 81.3203 90.9782 85.9551 90.923" stroke="#45413C" stroke-width="2.42" stroke-linecap="round" stroke-linejoin="round"/>
<path d="M75.8633 88.5353L77.4716 94.9849" stroke="#45413C" stroke-width="2.42" stroke-linecap="round" stroke-linejoin="round"/>
<path d="M81.3477 87.7394L81.4425 94.2096" stroke="#45413C" stroke-width="2.42" stroke-linecap="round" stroke-linejoin="round"/>
<path d="M98.4492 126.825L104.247 136.722C104.247 136.722 119.947 132.082 120.186 125.402C117.299 121.587 113.208 115.385 113.208 115.385C113.208 115.385 112.573 123.249 98.4492 126.825Z" fill="white" stroke="#45413C" stroke-width="2.42" stroke-linecap="round" stroke-linejoin="round"/>
<path d="M103.969 128.136L106.488 132.326" stroke="#45413C" stroke-width="2.42" stroke-linecap="round" stroke-linejoin="round"/>
<path d="M108.559 125.653L110.988 129.707" stroke="#45413C" stroke-width="2.42" stroke-linecap="round" stroke-linejoin="round"/>
<path d="M112.695 122.787L115.392 126.977" stroke="#45413C" stroke-width="2.42" stroke-linecap="round" stroke-linejoin="round"/>
<path d="M130.106 124.882L123.363 133.885C123.363 133.885 133.673 146.099 139.821 143.728C142.168 139.674 146.221 133.621 146.221 133.621C146.221 133.621 138.823 136.103 130.106 124.882Z" fill="white" stroke="#45413C" stroke-width="2.42" stroke-linecap="round" stroke-linejoin="round"/>
<path d="M131.048 130.317L128.215 134.185" stroke="#45413C" stroke-width="2.42" stroke-linecap="round" stroke-linejoin="round"/>
<path d="M135.082 133.447L132.336 137.184" stroke="#45413C" stroke-width="2.42" stroke-linecap="round" stroke-linejoin="round"/>
<path d="M139.286 136.033L136.523 140.062" stroke="#45413C" stroke-width="2.42" stroke-linecap="round" stroke-linejoin="round"/>
<path d="M110.437 70.6422C111.662 75.9479 111.329 81.4948 109.478 86.6157C107.626 91.7366 104.335 96.2134 100 99.5087" stroke="#45413C" stroke-width="2.42" stroke-linecap="round" stroke-linejoin="round"/>
</svg>
