<svg width="155" height="155" viewBox="0 0 155 155" fill="none" xmlns="http://www.w3.org/2000/svg">
<path d="M45.5379 110.676C45.5377 110.658 45.5336 110.64 45.5258 110.623C45.5179 110.607 45.5066 110.593 45.4925 110.581C45.4156 110.606 45.341 110.638 45.2698 110.676C37.1899 116.259 29.1128 121.843 21.0385 127.427C17.7807 129.682 14.5518 131.963 11.294 134.227C9.24582 135.645 7.1908 137.061 5.12891 138.474V138.532H11.9991L45.4884 110.775C45.5037 110.763 45.5162 110.748 45.5248 110.731C45.5334 110.714 45.5379 110.695 45.5379 110.676ZM25.7437 54.8563C32.9878 59.0571 40.2292 63.2688 47.4678 67.4916C48.2637 67.9576 49.0761 68.3947 49.8843 68.8483C49.8988 68.8277 49.9089 68.8043 49.9141 68.7797C49.9192 68.755 49.9193 68.7295 49.9142 68.7048C49.9092 68.6801 49.8992 68.6567 49.8849 68.636C49.8705 68.6153 49.8521 68.5978 49.8307 68.5844L5.12891 37.9447V43.0128L12.9146 47.4871C17.191 49.9449 21.4797 52.3821 25.7437 54.8563ZM144.307 17.8082C140.958 21.5609 137.37 25.1403 133.882 28.7899L116.306 47.1985L106.434 57.545C105.291 58.7409 104.157 59.9492 103.015 61.1492C103.054 61.1821 103.104 61.2001 103.155 61.2001C103.207 61.2001 103.256 61.1821 103.296 61.1492L149.874 18.0186V16.468H146.162C145.437 16.7439 144.797 17.2062 144.307 17.8082ZM114.937 64.7617C114.933 64.7911 114.937 64.821 114.947 64.8489C114.957 64.8769 114.973 64.9021 114.995 64.9225C115.226 64.8111 115.465 64.708 115.696 64.5885C121.358 61.6317 127.007 58.6585 132.682 55.7182C138.356 52.7779 144.142 49.7923 149.874 46.8314V42.485L115.028 64.6173C115.003 64.6333 114.982 64.6545 114.966 64.6794C114.951 64.7044 114.941 64.7324 114.937 64.7617ZM10.8733 16.7608C10.806 16.8959 10.784 17.0492 10.8108 17.1978C10.8375 17.3464 10.9115 17.4824 11.0218 17.5856L44.775 51.149C44.7988 51.1337 44.8192 51.1137 44.8349 51.0902C44.8506 51.0666 44.8613 51.0401 44.8664 51.0122C44.8714 50.9844 44.8706 50.9558 44.8641 50.9283C44.8576 50.9007 44.8455 50.8748 44.8286 50.8521C44.7378 50.7243 44.643 50.5965 44.5399 50.4727C40.4711 45.7524 36.3996 41.032 32.3253 36.3117C26.6839 29.7768 21.0371 23.2475 15.3848 16.7237C15.2895 16.6193 15.1764 16.5328 15.0507 16.468H11.129C11.0198 16.5418 10.9317 16.6427 10.8733 16.7608ZM121.506 113.583C120.681 113.117 119.857 112.684 118.999 112.235C118.977 112.269 118.969 112.311 118.978 112.351C118.986 112.391 119.01 112.426 119.044 112.449L149.874 134.049V129.583C147.215 128.069 144.554 126.557 141.89 125.047C135.1 121.226 128.305 117.404 121.506 113.583ZM49.4596 114.297L52.1029 111.583C52.0597 111.546 52.0049 111.526 51.9483 111.526C51.8916 111.526 51.8369 111.546 51.7936 111.583L23.3395 138.532H25.8839C30.3129 133.971 34.7349 129.409 39.1501 124.845C42.5866 121.323 46.0231 117.807 49.4596 114.297ZM29.5912 47.2768C34.339 51.0212 39.0745 54.7807 43.7976 58.5554C44.8327 59.3801 45.8595 60.2049 46.9235 61.0049C46.9414 60.9879 46.9557 60.9675 46.9655 60.9448C46.9753 60.9221 46.9804 60.8976 46.9804 60.8729C46.9804 60.8482 46.9753 60.8238 46.9655 60.8011C46.9557 60.7784 46.9414 60.7579 46.9235 60.741C33.0181 48.7765 19.0865 36.7832 5.12891 24.7609V27.9899C7.80937 30.1301 10.5146 32.2786 13.2198 34.4147C18.6673 38.7117 24.1437 42.9798 29.5912 47.2768ZM82.5117 17.0907C81.7969 30.4903 81.0863 43.8568 80.3797 57.1904C80.4298 57.1965 80.4803 57.1832 80.5209 57.1533C80.5615 57.1234 80.5892 57.0792 80.5983 57.0296C82.454 43.7785 84.3138 30.5095 86.1777 17.2227C86.192 17.1138 86.1808 17.0032 86.145 16.8994C86.1092 16.7957 86.0499 16.7016 85.9716 16.6247C85.906 16.5612 85.8308 16.5083 85.7489 16.468H82.92C82.8044 16.5283 82.7062 16.6172 82.6347 16.7262C82.5632 16.8352 82.5209 16.9607 82.5117 17.0907ZM101.135 118.68C101.085 118.673 101.034 118.683 100.99 118.709C101.014 118.809 101.048 118.906 101.093 118.998L108.158 129.827C110.052 132.73 111.943 135.632 113.832 138.532H116.133L101.258 118.738C101.226 118.704 101.182 118.683 101.135 118.68ZM62.8495 122.775L55.5875 138.532H57.6494C59.4941 133.232 61.3361 127.935 63.1753 122.643C63.1141 122.623 63.0479 122.625 62.9882 122.649C62.9286 122.674 62.8794 122.718 62.8495 122.775ZM110.582 121.534C110.571 121.544 110.563 121.557 110.557 121.57C110.551 121.584 110.548 121.599 110.548 121.614C110.548 121.629 110.551 121.644 110.557 121.658C110.563 121.672 110.571 121.684 110.582 121.695C113.815 125.361 117.036 129.035 120.281 132.693L125.457 138.532H127.399L110.756 121.546C110.732 121.526 110.702 121.513 110.671 121.511C110.64 121.509 110.609 121.517 110.582 121.534ZM104.005 17.0165C103.592 18.0928 103.23 19.1732 102.842 20.2537C101.316 24.4764 99.7876 28.7005 98.2563 32.926C97.2501 35.689 96.2192 38.4478 95.2047 41.2066C94.2356 43.8582 93.2624 46.5057 92.3181 49.1614C91.9675 50.1387 91.6748 51.1367 91.3572 52.1223C91.3523 52.1396 91.351 52.1578 91.3534 52.1756C91.3557 52.1935 91.3618 52.2107 91.371 52.2261C91.3803 52.2416 91.3926 52.255 91.4073 52.2655C91.4219 52.276 91.4386 52.2834 91.4562 52.2872C96.6068 40.6829 101.766 29.0785 106.953 17.3794C107.004 17.2627 107.023 17.1344 107.007 17.0081C106.991 16.8818 106.941 16.7621 106.863 16.6618C106.802 16.5858 106.73 16.5203 106.648 16.468H104.339C104.184 16.6201 104.069 16.8087 104.005 17.0165ZM55.0885 125.616C55.0462 125.596 54.998 125.592 54.9527 125.604C54.9074 125.616 54.8679 125.644 54.8411 125.682C52.1469 129.963 49.4486 134.246 46.7461 138.532H48.3214L51.6988 132.103C52.8342 129.942 53.9641 127.78 55.0885 125.616ZM17.3724 74.7165C19.7436 75.1 22.1106 75.5165 24.4818 75.9041C26.9561 76.3165 29.4634 76.7289 31.9541 77.1083L34.8408 77.5701C34.8492 77.515 34.8358 77.4588 34.8035 77.4134C34.7712 77.3679 34.7224 77.3369 34.6676 77.3268L5.12891 70.6133V72.7082C6.22858 72.9006 7.31726 73.0889 8.39494 73.2731C11.3847 73.7886 14.3827 74.2257 17.3724 74.7165ZM119.716 105.727C118.863 105.348 117.993 104.989 117.131 104.622C117.117 104.649 117.109 104.678 117.107 104.708C117.105 104.738 117.109 104.768 117.119 104.796C117.129 104.824 117.145 104.85 117.165 104.872C117.186 104.894 117.211 104.911 117.238 104.923L149.874 121.006V119.076C146.39 117.556 142.91 116.023 139.432 114.478C132.859 111.575 126.287 108.658 119.716 105.727ZM33.7026 65.8627C33.9913 65.9905 34.3006 66.0895 34.6016 66.1926C34.6584 66.2154 34.7216 66.2166 34.7793 66.1961C34.837 66.1756 34.8853 66.1348 34.915 66.0813L5.12891 51.3016V53.1944L13.1703 56.7574C20.0158 59.7925 26.8599 62.8276 33.7026 65.8627ZM120.492 89.8425L149.874 92.9725V91.0425L120.648 89.7188C120.611 89.7152 120.574 89.7261 120.545 89.7492C120.516 89.7722 120.497 89.8057 120.492 89.8425ZM18.7127 120.128C18.6536 120.05 18.5691 119.996 18.474 119.975C18.3789 119.954 18.2793 119.967 18.1931 120.012C13.8356 122.253 9.48087 124.5 5.12891 126.754V129.27L18.6137 120.61C18.6549 120.588 18.6908 120.557 18.7188 120.519C18.7468 120.481 18.7661 120.438 18.7756 120.392C18.785 120.346 18.7842 120.298 18.7734 120.253C18.7625 120.207 18.7418 120.164 18.7127 120.128ZM36.9356 92.6714L5.12891 97.0797V98.5313L37.1625 92.8116C37.1481 92.7647 37.1172 92.7246 37.0755 92.6988C37.0337 92.673 36.984 92.6633 36.9356 92.6714ZM84.7592 123.311C84.8788 123.917 85.0066 124.548 85.1097 125.138C85.5427 127.612 85.9633 130.086 86.3881 132.561C86.7262 134.548 87.0616 136.535 87.3943 138.52H88.4252C87.2733 133.34 86.1241 128.17 84.9777 123.01C84.9427 123.013 84.9087 123.024 84.8781 123.041C84.8475 123.059 84.821 123.083 84.8003 123.111C84.7796 123.14 84.7652 123.172 84.7581 123.207C84.751 123.241 84.7514 123.277 84.7592 123.311ZM29.5211 107.01C29.5061 106.982 29.4814 106.961 29.4517 106.95C29.422 106.939 29.3895 106.94 29.3603 106.952C24.1148 108.967 18.868 110.984 13.6198 113.002C10.7867 114.094 7.95782 115.204 5.12891 116.301V117.859L29.4592 107.138C29.484 107.128 29.5042 107.11 29.5157 107.086C29.5272 107.062 29.5291 107.035 29.5211 107.01ZM118.393 124.511C118.38 124.522 118.369 124.536 118.362 124.552C118.355 124.568 118.351 124.585 118.351 124.602C118.351 124.619 118.355 124.636 118.362 124.652C118.369 124.667 118.38 124.681 118.393 124.693C122.2 128.338 126.011 131.981 129.824 135.621L132.904 138.54H133.787L118.599 124.519C118.571 124.493 118.535 124.478 118.497 124.477C118.459 124.475 118.422 124.487 118.393 124.511ZM127.811 65.1287C127.828 65.154 127.852 65.1729 127.881 65.1819C127.909 65.191 127.94 65.1896 127.968 65.1782C132.829 63.2702 137.688 61.3568 142.546 59.4378C144.979 58.4811 147.416 57.5299 149.857 56.5842V55.0419L127.865 64.9843C127.852 64.9896 127.839 64.9977 127.829 65.0081C127.819 65.0184 127.811 65.0308 127.806 65.0445C127.801 65.0581 127.799 65.0727 127.8 65.0872C127.801 65.1017 127.805 65.1158 127.811 65.1287ZM52.4906 16.6783C52.4142 16.7755 52.3645 16.8908 52.3464 17.0131C52.3283 17.1353 52.3425 17.2602 52.3875 17.3752C55.0556 23.9733 57.703 30.5177 60.3464 37.0622C60.3661 37.1044 60.4001 37.1382 60.4423 37.1579C60.4845 37.1775 60.5323 37.1816 60.5773 37.1694C58.5484 30.4119 56.5236 23.6613 54.503 16.9175C54.4428 16.7249 54.3096 16.5635 54.1318 16.468H52.7586C52.6556 16.5187 52.5643 16.5903 52.4906 16.6783ZM79.6787 128.194L79.9137 138.532H80.6148L79.823 128.053C79.7854 128.053 79.7493 128.068 79.7224 128.094C79.6954 128.12 79.6797 128.156 79.6787 128.194ZM127.156 78.3248C127.164 78.3536 127.182 78.3785 127.207 78.3945C127.232 78.4105 127.262 78.4165 127.292 78.4114C129.296 78.1268 131.292 77.8299 133.296 77.5578C135.449 77.265 137.605 77.0093 139.754 76.733C141.601 76.4814 143.465 76.1887 145.292 75.933C146.818 75.7185 148.348 75.5206 149.874 75.3144V74.0773L127.251 78.2258C127.226 78.2286 127.203 78.2401 127.185 78.2582C127.168 78.2762 127.158 78.2998 127.156 78.3248ZM130.566 16.7691C126.992 21.7726 123.442 26.7857 119.914 31.8085C119.855 31.9289 119.81 32.0563 119.782 32.1879C119.816 32.2013 119.853 32.2038 119.887 32.1949C119.922 32.186 119.953 32.1662 119.976 32.1384L132.203 17.5402C132.304 17.4246 132.363 17.2789 132.372 17.126C132.381 16.973 132.339 16.8214 132.253 16.6948C132.195 16.6036 132.117 16.5262 132.026 16.468H130.958C130.804 16.5338 130.669 16.6373 130.566 16.7691ZM42.4492 43.2726C42.4881 43.3174 42.5427 43.3454 42.6017 43.351C42.6603 43.3556 42.7187 43.3395 42.7667 43.3056C42.5976 43.0582 42.445 42.8025 42.2553 42.5674C39.4649 39.0842 36.6704 35.6079 33.8717 32.1384C29.7754 27.0194 25.675 21.9087 21.5704 16.8062C21.4277 16.6562 21.2529 16.5406 21.0591 16.468H20.3168C20.3215 16.5592 20.3563 16.6462 20.4158 16.7154L42.4492 43.2726ZM106.854 134.153C106.842 134.181 106.836 134.211 106.836 134.241C106.836 134.272 106.842 134.302 106.854 134.33C107.267 135.052 107.679 135.777 108.129 136.499L109.366 138.532H109.778L106.966 134.016C106.913 134.046 106.873 134.095 106.854 134.153ZM94.582 134.573C94.5644 134.577 94.5478 134.584 94.5331 134.595C94.5185 134.605 94.5061 134.619 94.4969 134.634C94.4876 134.65 94.4816 134.667 94.4792 134.685C94.4768 134.703 94.4781 134.721 94.4831 134.738L95.7944 138.532H96.1862C95.7106 137.243 95.2377 135.951 94.7676 134.656C94.7529 134.621 94.7256 134.593 94.6911 134.578C94.6566 134.562 94.6176 134.561 94.582 134.573ZM75.1631 37.7385C75.1673 37.7764 75.1859 37.8113 75.2151 37.8358C75.2442 37.8604 75.2818 37.8728 75.3198 37.8705V37.0127C75.258 34.9137 75.2126 32.8106 75.1343 30.7074C74.9652 26.0929 74.7755 21.4825 74.6064 16.868V16.8103C74.594 16.7128 74.5439 16.6241 74.4668 16.5632C74.3897 16.5022 74.2917 16.474 74.194 16.4845C74.1469 16.4851 74.1004 16.4949 74.0571 16.5134C74.0137 16.5319 73.9745 16.5588 73.9416 16.5925C73.9086 16.6262 73.8826 16.6661 73.8651 16.7098C73.8476 16.7535 73.8388 16.8003 73.8394 16.8474C74.282 23.8166 74.7233 30.7803 75.1631 37.7385ZM16.259 88.7332C16.2538 88.6832 16.2294 88.6373 16.1909 88.6049C16.1524 88.5726 16.1029 88.5565 16.0528 88.56C12.4115 88.6507 8.77021 88.7703 5.12891 88.894V89.4796L16.0569 88.9188C16.0827 88.9211 16.1086 88.918 16.133 88.9097C16.1575 88.9014 16.1799 88.8881 16.1989 88.8706C16.218 88.8531 16.2331 88.8319 16.2435 88.8082C16.2538 88.7846 16.2591 88.759 16.259 88.7332ZM141.131 79.8217C138.579 80.0898 136.018 80.3083 133.465 80.5681C132.249 80.6918 131.04 80.8527 129.828 81.0052C129.802 81.0074 129.777 81.0151 129.754 81.0279C129.731 81.0407 129.711 81.0583 129.696 81.0795C129.68 81.0979 129.669 81.1198 129.663 81.1435C129.657 81.1672 129.657 81.1919 129.663 81.2155L134.612 80.7661C139.065 80.3509 143.519 79.9385 147.973 79.5289L149.87 79.3475V78.8196L148.69 78.9516C146.175 79.2403 143.655 79.5619 141.131 79.8217ZM19.7683 71.2442L22.7251 71.9783C22.7826 71.9911 22.8428 71.9823 22.8942 71.9535C22.9178 71.9393 22.9381 71.9201 22.9538 71.8974C22.9694 71.8746 22.98 71.8488 22.9849 71.8216L5.12891 67.0297V67.57L7.764 68.2256L19.7683 71.2442ZM22.5849 98.4282C22.3519 98.4033 22.1169 98.4033 21.8838 98.4282C20.2343 98.7787 18.6096 99.1458 16.9724 99.5087C14.2548 100.111 11.5414 100.746 8.81557 101.311C7.57843 101.575 6.3413 101.826 5.12891 102.078V102.585L22.4488 98.5932C22.4882 98.588 22.5241 98.5681 22.5493 98.5375C22.5746 98.5069 22.5873 98.4678 22.5849 98.4282ZM136.059 65.7885C136.076 65.8213 136.104 65.8471 136.138 65.8614C136.172 65.8757 136.209 65.8777 136.245 65.8668C137.259 65.5328 138.274 65.1905 139.28 64.84C142.812 63.6166 146.344 62.3918 149.874 61.1657V60.6296L136.142 65.6194C136.125 65.6245 136.109 65.633 136.095 65.6444C136.082 65.6558 136.071 65.67 136.063 65.6858C136.055 65.7017 136.051 65.7191 136.05 65.7367C136.05 65.7544 136.053 65.772 136.059 65.7885ZM36.4161 47.6397C37.3975 48.5181 38.4243 49.3552 39.4305 50.2088C39.4526 50.1885 39.4659 50.1604 39.4677 50.1305C39.4675 50.1155 39.4641 50.1007 39.4577 50.0872C39.4513 50.0737 39.442 50.0617 39.4305 50.0521L34.6511 45.7469C34.6284 45.7266 34.599 45.7154 34.5686 45.7154C34.5382 45.7154 34.5088 45.7266 34.4861 45.7469C35.1294 46.3819 35.7439 47.0376 36.4161 47.6397ZM94.5408 33.7219C94.5698 33.7304 94.601 33.728 94.6283 33.7151C94.6557 33.7021 94.6773 33.6796 94.6892 33.6518C94.7676 33.425 94.8336 33.1941 94.8954 32.9632C94.9787 32.5404 95.027 32.1114 95.0398 31.6807C94.8501 32.3212 94.6563 32.9577 94.4583 33.59C94.4547 33.6041 94.4539 33.6188 94.4561 33.6331C94.4583 33.6475 94.4635 33.6613 94.4712 33.6737C94.4789 33.686 94.489 33.6967 94.501 33.705C94.513 33.7133 94.5265 33.719 94.5408 33.7219ZM95.048 31.6188V31.6807C95.0499 31.6761 95.0509 31.6712 95.0509 31.6662C95.0509 31.6613 95.0499 31.6564 95.048 31.6518V31.6188ZM118.092 51.2068C118.024 51.21 117.959 51.2379 117.91 51.2851L116.459 52.8109L118.281 51.2769C118.229 51.2311 118.161 51.2061 118.092 51.2068ZM116.162 53.1202L116.459 52.8109L116.079 53.1285C116.092 53.136 116.107 53.1393 116.122 53.1378C116.137 53.1363 116.151 53.1302 116.162 53.1202Z" fill="#E0E0E0"/>
<path d="M105.132 116.049C105.132 116.049 108.481 117.385 111.318 115.81C114.155 114.235 115.978 117.46 114.266 118.759C116.015 119.352 114.753 123.055 112.374 121.233C113.755 123.154 110.217 125.332 109.487 122.779C108.345 118.742 104.254 118.037 104.254 118.037M107.792 107.884C107.792 107.884 110.881 106.033 111.347 102.82C111.813 99.6077 115.471 100.107 115.471 102.259C117.005 101.224 119.182 104.474 116.295 105.261C118.662 105.327 118.25 109.464 115.784 108.49C111.879 106.952 108.84 109.781 108.84 109.781" fill="white"/>
<path d="M105.132 116.049C105.132 116.049 108.481 117.385 111.318 115.81C114.155 114.235 115.978 117.46 114.266 118.759C116.015 119.352 114.753 123.055 112.374 121.233C113.755 123.154 110.217 125.332 109.487 122.779C108.345 118.742 104.254 118.037 104.254 118.037M107.792 107.884C107.792 107.884 110.881 106.033 111.347 102.82C111.813 99.6077 115.471 100.107 115.471 102.259C117.005 101.224 119.182 104.474 116.295 105.261C118.662 105.327 118.25 109.464 115.784 108.49C111.879 106.952 108.84 109.781 108.84 109.781" stroke="#45413C" stroke-width="2.42" stroke-linecap="round" stroke-linejoin="round"/>
<path d="M70.1523 22.7444C70.1523 23.6369 70.5069 24.4928 71.1379 25.1238C71.769 25.7549 72.6249 26.1094 73.5174 26.1094C74.4098 26.1094 75.2657 25.7549 75.8968 25.1238C76.5278 24.4928 76.8824 23.6369 76.8824 22.7444C76.8824 21.8519 76.5278 20.996 75.8968 20.365C75.2657 19.7339 74.4098 19.3794 73.5174 19.3794C72.6249 19.3794 71.769 19.7339 71.1379 20.365C70.5069 20.996 70.1523 21.8519 70.1523 22.7444Z" fill="#EF233C" stroke="#45413C" stroke-width="2.42" stroke-linecap="round" stroke-linejoin="round"/>
<path d="M98.0407 129.369C98.0797 129.693 98.0496 130.022 97.9522 130.334C97.8549 130.646 97.6925 130.934 97.4759 131.179C97.2593 131.424 96.9933 131.619 96.6954 131.754C96.3976 131.888 96.0746 131.958 95.7479 131.959H81.793V114.078H98.185C93.6241 124.812 97.2489 122.862 98.0407 129.369Z" fill="white"/>
<path d="M81.793 114.078V124.635C84.6425 124.577 87.5663 124.47 90.4859 124.47C92.4598 124.476 94.4325 124.374 96.3953 124.165C95.653 122.321 95.4963 120.404 98.185 114.078H81.793Z" fill="#E0E0E0"/>
<path d="M98.0407 129.369C98.0797 129.693 98.0496 130.022 97.9522 130.334C97.8549 130.646 97.6925 130.934 97.4759 131.179C97.2593 131.424 96.9933 131.619 96.6954 131.754C96.3976 131.888 96.0746 131.958 95.7479 131.959H81.793V114.078H98.185C93.6241 124.812 97.2489 122.862 98.0407 129.369Z" stroke="#45413C" stroke-width="2.42" stroke-linecap="round" stroke-linejoin="round"/>
<path d="M102.011 113.979C102.011 117.653 97.755 120.635 88.7116 120.635C79.6681 120.635 70.0803 122.251 69.2555 113.979C68.4308 105.707 81.6516 107.323 90.6992 107.323C99.7468 107.323 102.011 110.305 102.011 113.979Z" fill="#656769" stroke="#45413C" stroke-width="2.42" stroke-linecap="round" stroke-linejoin="round"/>
<path d="M86.7421 116.412L80.2967 116.325C78.3141 116.299 76.3754 116.909 74.7654 118.067C73.1554 119.224 71.9591 120.867 71.3522 122.754L69.8057 130.119C69.6866 130.641 69.3902 131.106 68.967 131.433C68.5439 131.761 68.0202 131.932 67.4852 131.917C66.9502 131.902 66.437 131.702 66.033 131.351C65.629 131 65.3592 130.519 65.2696 129.992L63.4799 118.375C62.5644 114.486 67.4098 109.451 71.4017 109.505" fill="#FFF0ED"/>
<path d="M77.842 114.474H82.4483L71.413 109.505C68.7078 109.472 65.6067 111.777 64.1758 114.474H77.842Z" fill="#FFCABF"/>
<path d="M93.7517 108.047C96.0314 108.14 98.308 107.759 100.452 106.925C102.595 106.09 104.564 104.819 106.246 103.185C107.927 101.55 109.288 99.583 110.251 97.3965C111.215 95.2101 111.761 92.8469 111.859 90.4417C111.957 88.0366 111.606 85.6366 110.824 83.3789C110.043 81.1212 108.846 79.0499 107.304 77.2833C105.762 75.5167 103.903 74.0895 101.835 73.083C99.7661 72.0765 97.5282 71.5106 95.2486 71.4174C92.969 71.3243 90.6923 71.7057 88.5486 72.5401C86.4049 73.3744 84.4361 74.6453 82.7547 76.2801C81.0732 77.915 79.7121 79.8817 78.7489 82.0682C77.7857 84.2546 77.2394 86.6178 77.1411 89.023C77.0428 91.4282 77.3945 93.8281 78.1761 96.0858C78.9577 98.3435 80.1538 100.415 81.6963 102.181C83.2387 103.948 85.0972 105.375 87.1657 106.382C89.2342 107.388 91.4721 107.954 93.7517 108.047Z" fill="white" stroke="#45413C" stroke-width="2.42" stroke-linecap="round" stroke-linejoin="round"/>
<path d="M86.7421 116.412L80.2967 116.325C78.3141 116.299 76.3754 116.909 74.7654 118.067C73.1554 119.224 71.9591 120.867 71.3522 122.754L69.8057 130.119C69.6866 130.641 69.3902 131.106 68.967 131.433C68.5439 131.761 68.0202 131.932 67.4852 131.917C66.9502 131.902 66.437 131.702 66.033 131.351C65.629 131 65.3592 130.519 65.2696 129.992L63.4799 118.375C62.5644 114.486 67.4098 109.451 71.4017 109.505" stroke="#45413C" stroke-width="2.42" stroke-linecap="round" stroke-linejoin="round"/>
<path d="M97.7086 109.723C97.7546 110.551 97.6313 111.379 97.3461 112.158C97.061 112.936 96.6201 113.648 96.0504 114.25C95.4806 114.852 94.794 115.332 94.0326 115.66C93.2712 115.988 92.4509 116.156 91.6219 116.156C89.6389 116.156 87.7081 116.792 86.1136 117.971C84.5191 119.149 83.345 120.809 82.764 122.705L81.3166 130.086C81.2039 130.609 80.9136 131.077 80.4952 131.409C80.0768 131.742 79.556 131.92 79.0214 131.912C78.4869 131.904 77.9715 131.712 77.5629 131.367C77.1544 131.022 76.8778 130.546 76.7804 130.021L74.8587 118.429C73.8896 114.552 78.6691 109.455 82.6609 109.455H64.4255L61.1719 57.3677H94.822L97.7086 109.723Z" fill="white"/>
<path d="M77.8423 114.474H90.457C90.6779 114.474 90.8967 114.43 91.1008 114.346C91.305 114.261 91.4904 114.137 91.6467 113.981C91.8029 113.825 91.9268 113.639 92.0114 113.435C92.096 113.231 92.1395 113.012 92.1395 112.791V110.729C92.1395 109.802 91.3848 109.492 90.457 109.492H81.9702C79.4547 109.835 76.7866 111.987 75.5 114.461L77.8423 114.474Z" fill="#F0F0F0"/>
<path d="M97.7086 109.723C97.7546 110.551 97.6313 111.379 97.3461 112.158C97.061 112.936 96.6201 113.648 96.0504 114.25C95.4806 114.852 94.794 115.332 94.0326 115.66C93.2712 115.988 92.4509 116.156 91.6219 116.156C89.6389 116.156 87.7081 116.792 86.1136 117.971C84.5191 119.149 83.345 120.809 82.764 122.705L81.3166 130.086C81.2039 130.609 80.9136 131.077 80.4952 131.409C80.0768 131.742 79.556 131.92 79.0214 131.912C78.4869 131.904 77.9715 131.712 77.5629 131.367C77.1544 131.022 76.8778 130.546 76.7804 130.021L74.8587 118.429C73.8896 114.552 78.6691 109.455 82.6609 109.455H64.4255L61.1719 57.3677H94.822L97.7086 109.723Z" fill="#FFF0ED" stroke="#45413C" stroke-width="2.42" stroke-linecap="round" stroke-linejoin="round"/>
<path d="M83.7965 131.959H61.7178C61.7178 131.959 60.4807 130.272 61.7178 129.072C62.9549 127.872 61.7178 125.608 61.7178 125.608C69.0193 126.915 76.495 126.915 83.7965 125.608C83.4206 125.998 83.1621 126.486 83.0505 127.016C82.939 127.547 82.9788 128.097 83.1656 128.606C83.5723 129.678 83.7859 130.813 83.7965 131.959Z" fill="white" stroke="#45413C" stroke-width="2.42" stroke-linecap="round" stroke-linejoin="round"/>
<path d="M61.5352 129.262C61.5352 129.262 63.0774 128.322 65.8816 128.61ZM82.9747 127.62C82.9747 127.62 82.5623 129.229 79.3911 129.072Z" fill="white"/>
<path d="M61.5352 129.262C61.5352 129.262 63.0774 128.322 65.8816 128.61M82.9747 127.62C82.9747 127.62 82.5623 129.229 79.3911 129.072" stroke="#45413C" stroke-width="2.42" stroke-linecap="round" stroke-linejoin="round"/>
<path d="M77.1293 89.7271C69.3166 89.5263 61.8174 86.612 55.9193 81.4846C50.0211 76.3571 46.0919 69.3364 44.8062 61.6276C43.5204 53.9188 44.9584 46.0028 48.8731 39.2387C52.7879 32.4745 58.9352 27.2842 66.2599 24.5586C73.5845 21.8331 81.6295 21.7424 89.0137 24.3022C96.3979 26.8619 102.661 31.9124 106.727 38.5865C110.793 45.2607 112.409 53.1422 111.298 60.8781C110.186 68.6139 106.416 75.7214 100.635 80.9805C100.994 81.4371 101.273 81.9517 101.46 82.5022C103.567 88.5642 103.109 93.4674 100.152 97.0757C97.6781 100.086 94.0409 101.381 91.1254 102.437C89.8223 102.898 87.6449 103.674 87.2161 104.206C86.4687 105.306 85.3169 106.068 84.0113 106.324C82.7057 106.58 81.3517 106.31 80.244 105.573C79.1363 104.836 78.3644 103.691 78.0962 102.388C77.828 101.085 78.0851 99.7284 78.8118 98.6138C80.9891 95.3354 84.5851 94.0777 87.7315 92.9271C89.5707 92.2715 91.6574 91.5292 92.3625 90.6714" fill="#FFF0ED"/>
<path d="M73.5191 22.7444C67.6514 23.5304 62.0949 25.8506 57.4107 29.4709C52.7264 33.0912 49.0804 37.8834 46.8407 43.3635C44.6009 48.8436 43.8468 54.8177 44.6544 60.6825C45.462 66.5473 47.8028 72.0952 51.4404 76.766C77.1316 89.7394 98.1876 78.6341 110.316 65.4668C111.873 60.0892 112.064 54.4082 110.872 48.9381C109.68 43.4679 107.142 38.3816 103.488 34.1396C99.8348 29.8976 95.1808 26.634 89.9478 24.6442C84.7148 22.6545 79.0681 22.0015 73.5191 22.7444Z" fill="#FFA694"/>
<path d="M124.058 43.9654C124.013 43.6364 123.904 43.3194 123.737 43.0326C123.57 42.7457 123.348 42.4946 123.084 42.2935C122.819 42.0925 122.518 41.9455 122.197 41.8609C121.876 41.7763 121.542 41.7557 121.213 41.8004L109.159 43.4211C106.18 36.1076 100.725 30.0745 93.7468 26.3778C86.7689 22.681 78.7131 21.556 70.9894 23.1998C63.2657 24.8435 56.366 29.1513 51.4981 35.369C46.6301 41.5868 44.104 49.3185 44.3617 57.211L75.9829 52.9677L106.759 48.8439L121.889 46.8108C122.218 46.7672 122.536 46.6589 122.824 46.4921C123.111 46.3253 123.363 46.1033 123.565 45.8389C123.766 45.5745 123.914 45.2729 123.998 44.9514C124.083 44.6299 124.103 44.2948 124.058 43.9654ZM61.6692 50.6418C61.5149 49.3265 61.8837 48.0032 62.6961 46.9572C63.5085 45.9113 64.6995 45.2266 66.0121 45.0507C67.3248 44.8749 68.654 45.222 69.713 46.0172C70.7721 46.8124 71.4762 47.992 71.6735 49.3016L61.6692 50.6418Z" fill="#EF233C"/>
<path d="M77.1293 89.7271C69.3166 89.5263 61.8174 86.612 55.9193 81.4846C50.0211 76.3571 46.0919 69.3364 44.8062 61.6276C43.5204 53.9188 44.9584 46.0028 48.8731 39.2387C52.7879 32.4745 58.9352 27.2842 66.2599 24.5586C73.5845 21.8331 81.6295 21.7424 89.0137 24.3022C96.3979 26.8619 102.661 31.9124 106.727 38.5865C110.793 45.2607 112.409 53.1422 111.298 60.8781C110.186 68.6139 106.416 75.7214 100.635 80.9805C100.994 81.4371 101.273 81.9517 101.46 82.5022C103.567 88.5642 103.109 93.4674 100.152 97.0757C97.6781 100.086 94.0409 101.381 91.1254 102.437C89.8223 102.898 87.6449 103.674 87.2161 104.206C86.4687 105.306 85.3169 106.068 84.0113 106.324C82.7057 106.58 81.3517 106.31 80.244 105.573C79.1363 104.836 78.3644 103.691 78.0962 102.388C77.828 101.085 78.0851 99.7284 78.8118 98.6138C80.9891 95.3354 84.5851 94.0777 87.7315 92.9271C89.5707 92.2715 91.6574 91.5292 92.3625 90.6714" stroke="#45413C" stroke-width="2.42" stroke-linecap="round" stroke-linejoin="round"/>
<path d="M74.457 28.427C80.3162 27.6348 86.2785 28.1696 91.9032 29.9919C97.5279 31.8142 102.671 34.8774 106.952 38.955C103.541 33.1938 98.489 28.581 92.4419 25.7066C86.3949 22.8322 79.628 21.8268 73.0065 22.819C66.385 23.8112 60.2099 26.756 55.271 31.2766C50.3322 35.7973 46.854 41.6884 45.2812 48.1964C48.2796 42.8655 52.4761 38.3046 57.5395 34.8736C62.6029 31.4427 68.3944 29.2358 74.457 28.427Z" fill="#FF866E"/>
<path d="M124.058 43.9654C124.013 43.6364 123.904 43.3194 123.737 43.0326C123.57 42.7457 123.348 42.4946 123.084 42.2935C122.819 42.0925 122.518 41.9455 122.197 41.8609C121.876 41.7763 121.542 41.7557 121.213 41.8004L109.159 43.4211C106.18 36.1076 100.725 30.0745 93.7468 26.3778C86.7689 22.681 78.7131 21.556 70.9894 23.1998C63.2657 24.8435 56.366 29.1513 51.4981 35.369C46.6301 41.5868 44.104 49.3185 44.3617 57.211L75.9829 52.9677L106.759 48.8439L121.889 46.8108C122.218 46.7672 122.536 46.6589 122.824 46.4921C123.111 46.3253 123.363 46.1033 123.565 45.8389C123.766 45.5745 123.914 45.2729 123.998 44.9514C124.083 44.6299 124.103 44.2948 124.058 43.9654ZM61.6692 50.6418C61.5149 49.3265 61.8837 48.0032 62.6961 46.9572C63.5085 45.9113 64.6995 45.2266 66.0121 45.0507C67.3248 44.8749 68.654 45.222 69.713 46.0172C70.7721 46.8124 71.4762 47.992 71.6735 49.3016L61.6692 50.6418Z" stroke="#45413C" stroke-width="2.42" stroke-linecap="round" stroke-linejoin="round"/>
<path d="M71.6758 49.3015L73.7377 49.0211C74.1799 48.9625 74.6274 49.0814 74.9821 49.3519C75.3369 49.6224 75.57 50.0224 75.6305 50.4644L75.9645 52.9635" stroke="#45413C" stroke-width="2.42" stroke-linecap="round" stroke-linejoin="round"/>
<path d="M109.979 45.6438C109.738 44.9015 109.472 44.1743 109.184 43.4623Z" fill="white"/>
<path d="M109.979 45.6438C109.738 44.9015 109.472 44.1743 109.184 43.4623" stroke="#45413C" stroke-width="2.42" stroke-linecap="round" stroke-linejoin="round"/>
<path d="M66.1484 73.5205C68.2103 72.9473 67.5134 65.0833 71.6867 64.5142C75.8599 63.9451 76.2971 71.0091 79.3074 71.1122" stroke="#45413C" stroke-width="2.42" stroke-linecap="round" stroke-linejoin="round"/>
<path d="M101.902 52.7574C102.785 59.3307 96.5741 57.7678 90.0008 58.6503C83.4275 59.5327 78.982 62.5225 78.0995 55.9492C77.7129 52.8104 78.5801 49.6458 80.5127 47.1426C82.4454 44.6394 85.2875 42.9995 88.4219 42.5792C91.5564 42.1589 94.7301 42.992 97.2539 44.8977C99.7778 46.8033 101.448 49.6276 101.902 52.7574ZM63.3529 58.9059C64.2354 65.4751 58.025 63.9163 51.4516 64.7988C44.8783 65.6813 40.4329 68.6711 39.5628 62.0977C39.1762 58.959 40.0433 55.7944 41.976 53.2912C43.9086 50.7879 46.7507 49.1481 49.8852 48.7278C53.0196 48.3075 56.1933 49.1406 58.7172 51.0462C61.241 52.9519 62.9113 55.7762 63.3652 58.9059H63.3529Z" fill="white" stroke="#45413C" stroke-width="2.42" stroke-linecap="round" stroke-linejoin="round"/>
<path d="M87.0273 48.4933C87.0273 48.9395 87.2046 49.3675 87.5201 49.683C87.8357 49.9985 88.2636 50.1758 88.7098 50.1758C89.1561 50.1758 89.584 49.9985 89.8996 49.683C90.2151 49.3675 90.3923 48.9395 90.3923 48.4933C90.3923 48.0471 90.2151 47.6191 89.8996 47.3036C89.584 46.9881 89.1561 46.8108 88.7098 46.8108C88.2636 46.8108 87.8357 46.9881 87.5201 47.3036C87.2046 47.6191 87.0273 48.0471 87.0273 48.4933Z" fill="#45413C"/>
<path d="M71.0934 69.0008C71.0934 69.0008 71.0934 71.2937 70.1367 72.1349ZM72.9986 68.7163C72.9986 68.7163 73.6667 70.906 74.8255 71.4339Z" fill="white"/>
<path d="M71.0934 69.0008C71.0934 69.0008 71.0934 71.2937 70.1367 72.1349M72.9986 68.7163C72.9986 68.7163 73.6667 70.906 74.8255 71.4339" stroke="#45413C" stroke-width="2.42" stroke-linecap="round" stroke-linejoin="round"/>
<path d="M48.0742 55.5285C48.0742 55.9747 48.2515 56.4026 48.567 56.7182C48.8825 57.0337 49.3105 57.211 49.7567 57.211C50.2029 57.211 50.6309 57.0337 50.9464 56.7182C51.262 56.4026 51.4392 55.9747 51.4392 55.5285C51.4392 55.0822 51.262 54.6543 50.9464 54.3387C50.6309 54.0232 50.2029 53.8459 49.7567 53.8459C49.3105 53.8459 48.8825 54.0232 48.567 54.3387C48.2515 54.6543 48.0742 55.0822 48.0742 55.5285Z" fill="#45413C"/>
<path d="M52.8359 106.366H80.7333V111.769C80.3221 111.769 79.9277 111.605 79.6369 111.314C79.3462 111.024 79.1828 110.629 79.1828 110.218V106.366H52.8359Z" fill="#E8F4FA" stroke="#45413C" stroke-width="2.42" stroke-linecap="round" stroke-linejoin="round"/>
<path d="M77.7107 106.358H90.5852C90.5852 106.358 92.1357 106.358 92.1357 107.909V110.218C92.1357 110.218 92.1357 111.769 90.5852 111.769H77.7107C77.7107 111.769 76.1602 111.769 76.1602 110.218V107.909C76.1602 107.909 76.1602 106.358 77.7107 106.358Z" fill="#C0DCEB" stroke="#45413C" stroke-width="2.42" stroke-linecap="round" stroke-linejoin="round"/>
<path d="M65.1289 86.6218H71.5002C71.8731 86.6219 72.2355 86.7458 72.5304 86.9743C72.8252 87.2027 73.0358 87.5226 73.1291 87.8837L77.3147 104.259C77.3781 104.508 77.384 104.767 77.3319 105.018C77.2797 105.269 77.1709 105.505 77.0138 105.707C76.8566 105.91 76.6553 106.074 76.4251 106.186C76.195 106.299 75.9421 106.358 75.6858 106.358H70.1682L65.1289 86.6218Z" fill="#C0DCEB" stroke="#45413C" stroke-width="2.42" stroke-linecap="round" stroke-linejoin="round"/>
<path d="M45.8036 88.7208C45.7388 88.4707 45.7327 88.209 45.7856 87.9561C45.8385 87.7033 45.9491 87.466 46.1087 87.2629C46.2684 87.0598 46.4727 86.8962 46.7059 86.785C46.9391 86.6738 47.1948 86.618 47.4531 86.6218H67.7298C68.1027 86.6218 68.4651 86.7458 68.76 86.9742C69.0548 87.2026 69.2654 87.5225 69.3587 87.8836L73.5443 104.259C73.6097 104.51 73.6164 104.772 73.5638 105.026C73.5112 105.279 73.4008 105.517 73.2412 105.721C73.0816 105.925 72.877 106.089 72.6435 106.201C72.41 106.313 72.1537 106.37 71.8948 106.366H51.6223C51.2454 106.37 50.8782 106.247 50.5792 106.018C50.2802 105.788 50.0667 105.465 49.9728 105.1L45.8036 88.7208Z" fill="#E8F4FA" stroke="#45413C" stroke-width="2.42" stroke-linecap="round" stroke-linejoin="round"/>
<path d="M56.8828 96.4901C56.8828 97.1244 57.1348 97.7328 57.5834 98.1813C58.0319 98.6299 58.6403 98.8819 59.2746 98.8819C59.9089 98.8819 60.5173 98.6299 60.9659 98.1813C61.4144 97.7328 61.6664 97.1244 61.6664 96.4901C61.6664 95.8557 61.4144 95.2474 60.9659 94.7988C60.5173 94.3503 59.9089 94.0983 59.2746 94.0983C58.6403 94.0983 58.0319 94.3503 57.5834 94.7988C57.1348 95.2474 56.8828 95.8557 56.8828 96.4901Z" fill="white" stroke="#45413C" stroke-width="2.42" stroke-linecap="round" stroke-linejoin="round"/>
<path d="M43.0273 87.8383C43.0273 89.177 43.5591 90.4608 44.5057 91.4074C45.4523 92.354 46.7362 92.8858 48.0749 92.8858C49.4135 92.8858 50.6974 92.354 51.644 91.4074C52.5906 90.4608 53.1224 89.177 53.1224 87.8383C53.1224 86.4996 52.5906 85.2157 51.644 84.2691C50.6974 83.3226 49.4135 82.7908 48.0749 82.7908C46.7362 82.7908 45.4523 83.3226 44.5057 84.2691C43.5591 85.2157 43.0273 86.4996 43.0273 87.8383Z" fill="#FFF0ED" stroke="#45413C" stroke-width="2.42" stroke-linecap="round" stroke-linejoin="round"/>
<path d="M15.1016 102.977C15.1016 103.778 15.2301 104.572 15.4798 105.312C15.7295 106.053 16.0956 106.726 16.557 107.292C17.0184 107.859 17.5662 108.309 18.1691 108.615C18.772 108.922 19.4182 109.08 20.0707 109.08C20.7233 109.08 21.3695 108.922 21.9723 108.615C22.5752 108.309 23.123 107.859 23.5844 107.292C24.0459 106.726 24.4119 106.053 24.6616 105.312C24.9114 104.572 25.0399 103.778 25.0399 102.977C25.0399 101.358 24.5163 99.8057 23.5844 98.6611C22.6526 97.5165 21.3886 96.8735 20.0707 96.8735C18.7528 96.8735 17.4889 97.5165 16.557 98.6611C15.6251 99.8057 15.1016 101.358 15.1016 102.977Z" stroke="#45413C" stroke-width="2.42" stroke-linecap="round" stroke-linejoin="round"/>
<path d="M18.0273 102.977C18.0273 103.641 18.2424 104.277 18.6252 104.747C19.008 105.216 19.5272 105.48 20.0686 105.48C20.61 105.48 21.1292 105.216 21.512 104.747C21.8948 104.277 22.1099 103.641 22.1099 102.977C22.1099 102.313 21.8948 101.676 21.512 101.207C21.1292 100.737 20.61 100.474 20.0686 100.474C19.5272 100.474 19.008 100.737 18.6252 101.207C18.2424 101.676 18.0273 102.313 18.0273 102.977Z" stroke="#45413C" stroke-width="2.42" stroke-linecap="round" stroke-linejoin="round"/>
<path d="M38.6777 119.93L36.5086 118.585L34.1333 119.93L32.3106 118.812L30.459 119.93L28.5373 118.474L25.9558 119.93C24.7491 113.525 24.7491 106.952 25.9558 100.548H38.6777C37.5024 106.449 37.6674 112.993 38.6777 119.93Z" fill="white" stroke="#45413C" stroke-width="2.42" stroke-linecap="round" stroke-linejoin="round"/>
<path d="M36.2887 91.6074H15.1172C16.6269 91.6074 18.075 92.206 19.1441 93.272C20.2132 94.338 20.816 95.7844 20.8204 97.2941V102.96H41.9919V97.2941C41.9875 95.7844 41.3847 94.338 40.3156 93.272C39.2466 92.206 37.7984 91.6074 36.2887 91.6074Z" fill="#DAEDF7" stroke="#45413C" stroke-width="2.42" stroke-linecap="round" stroke-linejoin="round"/>
<path d="M15.1172 91.6074V102.977H20.8204V97.2941C20.816 95.7844 20.2132 94.338 19.1441 93.272C18.075 92.206 16.6269 91.6074 15.1172 91.6074Z" fill="#ADC4D9" stroke="#45413C" stroke-width="2.42" stroke-linecap="round" stroke-linejoin="round"/>
<path d="M20.0703 109.08H25.0395" stroke="#45413C" stroke-width="2.42" stroke-linecap="round" stroke-linejoin="round"/>
</svg>
