<svg width="155" height="155" viewBox="0 0 155 155" fill="none" xmlns="http://www.w3.org/2000/svg">
<path d="M132.097 132.284C84.0344 104.243 74.1662 100.375 7.62891 97.2736C9.86812 126.091 46.7059 156.883 132.097 132.284Z" fill="#4ACFFF"/>
<path d="M7.62891 97.2942C74.1662 100.395 84.0344 104.255 132.097 132.305" stroke="#45413C" stroke-width="2.42" stroke-linecap="round" stroke-linejoin="round"/>
<path d="M89.3256 115.67C110.848 122.363 120.254 134.746 125.879 128.866C135.087 119.294 100.724 103.942 93.672 103.253L57.4281 94.6673C51.1806 91.3476 14.0541 85.1207 16.4294 98.1848C17.881 106.197 32.5534 101.071 54.1827 107.41C62.1911 115.026 74.3562 117.179 89.3256 115.67Z" fill="white"/>
<path d="M89.3256 115.67C110.848 122.363 120.254 134.746 125.879 128.866C135.087 119.294 100.724 103.942 93.672 103.253L57.4281 94.6673C51.1806 91.3476 14.0541 85.1207 16.4294 98.1848C17.881 106.197 32.5534 101.071 54.1827 107.41" stroke="#45413C" stroke-width="2.42" stroke-linecap="round" stroke-linejoin="round"/>
<path d="M45.2578 74.5185C45.2578 84.3366 49.158 93.7526 56.1005 100.695C63.0429 107.637 72.4589 111.538 82.277 111.538C92.0951 111.538 101.511 107.637 108.454 100.695C115.396 93.7526 119.296 84.3366 119.296 74.5185C119.296 64.7004 115.396 55.2844 108.454 48.3419C101.511 41.3995 92.0951 37.4993 82.277 37.4993C72.4589 37.4993 63.0429 41.3995 56.1005 48.3419C49.158 55.2844 45.2578 64.7004 45.2578 74.5185Z" fill="white"/>
<path d="M111.526 51.8377C106.911 45.8929 100.594 41.4944 93.4179 39.2277C86.2413 36.961 78.5446 36.9335 71.352 39.1488C68.3581 41.6231 66.4282 44.7241 66.9148 46.7572C68.123 51.8335 96.1689 61.2646 101.93 59.776C106.165 58.6749 110.19 55.281 111.526 51.8377Z" fill="#F0F0F0"/>
<path d="M109 62.8688C105.895 61.2156 102.344 60.5966 98.8633 61.1017C95.3825 61.6068 92.1537 63.2097 89.647 65.6771L89.5233 65.5368C86.3729 68.8297 84.4755 73.1222 84.1607 77.6685C83.846 82.2148 85.1337 86.7278 87.8002 90.4234C90.4667 94.1191 94.3435 96.764 98.7572 97.8986C103.171 99.0332 107.843 98.5859 111.961 96.6343C115.453 91.9572 117.784 86.5168 118.761 80.7619C112.769 76.2381 109.251 70.1885 109 62.8688ZM63.3703 48.2788C60.0612 51.721 55.716 53.9848 50.9989 54.7243C48.3396 58.9355 46.5551 63.6389 45.7517 68.5542C44.9483 73.4696 45.1424 78.4963 46.3226 83.3351C48.6295 84.5023 51.1455 85.199 53.7242 85.3845C56.3029 85.5701 58.8928 85.2408 61.3431 84.4158C63.7933 83.5909 66.055 82.2868 67.9964 80.5794C69.9378 78.872 71.5201 76.7955 72.6514 74.4707C73.7826 72.1459 74.44 69.6193 74.5854 67.038C74.7308 64.4567 74.3613 61.8723 73.4983 59.4352C72.6354 56.9981 71.2962 54.757 69.5589 52.8424C67.8215 50.9277 65.7206 49.3778 63.3785 48.2829L63.3703 48.2788Z" fill="#F0F0F0"/>
<path d="M58.9916 103.302C52.3865 97.9587 47.8208 90.5055 46.0608 82.1938C44.3008 73.8821 45.4537 65.2179 49.3259 57.6556C53.1981 50.0933 59.5539 44.0933 67.3264 40.6626C75.099 37.232 83.8152 36.5796 92.0118 38.8149C100.208 41.0503 107.387 46.0373 112.342 52.9389C117.296 59.8404 119.726 68.2365 119.223 76.7176C118.72 85.1987 115.315 93.2486 109.579 99.516C103.843 105.783 96.1254 109.887 87.722 111.138" stroke="#45413C" stroke-width="2.42" stroke-linecap="round" stroke-linejoin="round"/>
<path d="M62.7723 48.8685C57.8237 53.5738 51.6381 55.4872 44.7843 54.947C42.7149 57.7754 41.6001 61.1894 41.6016 64.6941C41.603 68.1987 42.7207 71.6118 44.7925 74.4385C46.8644 77.2652 49.7827 79.3585 53.1243 80.415C56.4659 81.4714 60.0572 81.4361 63.3774 80.3142C66.6976 79.1922 69.5741 77.0419 71.59 74.1751C73.6058 71.3082 74.6562 67.8738 74.5888 64.3698C74.5214 60.8658 73.3396 57.4743 71.215 54.6872C69.0903 51.9 66.1332 49.8619 62.7723 48.8685Z" fill="white" stroke="#45413C" stroke-width="2.42" stroke-linecap="round" stroke-linejoin="round"/>
<path d="M41.5898 64.9719C52.0395 67.809 63.1036 67.3101 74.6049 64.4358M42.6043 54.6954C50.8519 55.9326 58.2953 53.8047 63.8913 47.7303" stroke="#45413C" stroke-width="2.42" stroke-linecap="round" stroke-linejoin="round"/>
<path d="M108.994 62.8811C109.212 69.6977 112.293 75.4133 117.563 79.8258C117.056 83.2935 115.458 86.5098 113.001 89.0082C110.543 91.5067 107.354 93.1575 103.895 93.7212C100.436 94.285 96.8871 93.7324 93.7633 92.1436C90.6395 90.5548 88.103 88.0124 86.5214 84.885C84.9398 81.7576 84.3954 78.2077 84.9671 74.7501C85.5388 71.2924 87.1969 68.1067 89.701 65.6548C92.205 63.203 95.425 61.6124 98.8939 61.1136C102.363 60.6149 105.9 61.234 108.994 62.8811Z" fill="white" stroke="#45413C" stroke-width="2.42" stroke-linecap="round" stroke-linejoin="round"/>
<path d="M112.812 89.2156C103.373 83.9166 95.8343 75.8051 89.6445 65.7101M119.299 81.1784C112.544 76.2834 108.729 69.5452 108.989 61.2894" stroke="#45413C" stroke-width="2.42" stroke-linecap="round" stroke-linejoin="round"/>
<path d="M71.5091 79.1495C70.5482 82.6754 72.1524 86.1847 75.0927 86.9847C78.0329 87.7847 81.1917 85.5744 82.1526 82.0362L71.5091 79.1495Z" fill="#FFA694" stroke="#45413C" stroke-width="2.42" stroke-linecap="round" stroke-linejoin="round"/>
<path d="M100.326 57.7965C94.9442 59.1862 68.7581 50.3737 67.6282 45.6396C66.8447 42.3406 72.8036 36.0312 79.0222 35.1281C86.4904 34.0476 108.359 42.9344 109.538 46.9839C110.718 51.0335 105.707 56.4068 100.326 57.7965Z" fill="#FFCCDD" stroke="#45413C" stroke-width="2.42" stroke-linecap="round" stroke-linejoin="round"/>
<path d="M41.5898 107.191C41.5898 107.191 49.425 115.756 63.8913 119.113C81.0709 123.097 94.432 122.045 94.432 122.045" stroke="#B8ECFF" stroke-width="2.42" stroke-linecap="round" stroke-linejoin="round"/>
<path d="M30.6289 107.191C34.8888 122.231 62.914 137.666 99.7683 129.93" stroke="#B8ECFF" stroke-width="2.42" stroke-linecap="round" stroke-linejoin="round"/>
<path d="M148.979 78.4278C148.542 76.9023 147.603 75.5691 146.314 74.6441C145.024 73.7192 143.46 73.2567 141.875 73.3316C140.29 73.4065 138.777 74.0145 137.581 75.057C136.384 76.0995 135.575 77.5154 135.284 79.0752C134.227 78.8838 133.14 78.9402 132.109 79.2402C130.948 79.5741 129.892 80.2009 129.043 81.0605C128.193 81.9201 127.58 82.9836 127.26 84.1488C126.94 85.314 126.925 86.5418 127.217 87.7144C127.509 88.8869 128.097 89.9648 128.925 90.8445C128.349 92.2169 128.304 93.7544 128.797 95.1586C129.29 96.5628 130.288 97.7337 131.596 98.4441C132.904 99.1546 134.429 99.3539 135.875 99.0035C137.322 98.6531 138.587 97.7779 139.424 96.5477C140.805 96.8613 142.248 96.7516 143.566 96.233C144.884 95.7145 146.015 94.811 146.811 93.6405C147.608 92.4699 148.034 91.0865 148.033 89.6705C148.032 88.2545 147.604 86.8717 146.806 85.7022C147.825 84.8235 148.571 83.6717 148.956 82.3826C149.341 81.0936 149.349 79.7213 148.979 78.4278ZM32.8782 73.0422C32.5105 74.5102 31.6581 75.8112 30.459 76.7345C29.2599 77.6579 27.7843 78.1496 26.271 78.13C24.7578 78.1105 23.2954 77.5808 22.1206 76.6267C20.9457 75.6727 20.1273 74.3501 19.7976 72.8731C18.4152 73.1683 16.9749 73.0202 15.6815 72.4499C14.3881 71.8795 13.3074 70.9159 12.5931 69.696C11.8789 68.4762 11.5673 67.0622 11.7028 65.6551C11.8384 64.2481 12.414 62.9195 13.348 61.8584C12.7612 60.5697 12.6727 59.1092 13.0994 57.759C13.5261 56.4087 14.4379 55.2644 15.6587 54.5469C16.8795 53.8293 18.3229 53.5895 19.7101 53.8735C21.0974 54.1576 22.3303 54.9455 23.1708 56.0851C24.3004 55.7863 25.4883 55.7869 26.6175 56.0869C27.7468 56.3868 28.7784 56.9757 29.6108 57.7956C30.4432 58.6156 31.0476 59.6382 31.3646 60.7627C31.6816 61.8873 31.7001 63.0751 31.4184 64.209C31.2499 64.9083 30.9715 65.5764 30.5937 66.1884C31.5874 66.9948 32.3303 68.0682 32.735 69.2823C33.1397 70.4964 33.1894 71.8008 32.8782 73.0422Z" fill="white" stroke="#45413C" stroke-width="2.42" stroke-linecap="round" stroke-linejoin="round"/>
<path d="M133.09 65.7101C133.09 66.3794 133.356 67.0214 133.829 67.4947C134.302 67.968 134.944 68.2339 135.614 68.2339C136.283 68.2339 136.925 67.968 137.398 67.4947C137.871 67.0214 138.137 66.3794 138.137 65.7101C138.137 65.0408 137.871 64.3988 137.398 63.9255C136.925 63.4522 136.283 63.1863 135.614 63.1863C134.944 63.1863 134.302 63.4522 133.829 63.9255C133.356 64.3988 133.09 65.0408 133.09 65.7101Z" fill="white" stroke="#45413C" stroke-width="2.42" stroke-linecap="round" stroke-linejoin="round"/>
<path d="M27.8008 49.1118C27.8008 49.7506 28.0545 50.3631 28.5062 50.8148C28.9578 51.2664 29.5704 51.5201 30.2091 51.5201C30.8478 51.5201 31.4603 51.2664 31.912 50.8148C32.3636 50.3631 32.6174 49.7506 32.6174 49.1118C32.6174 48.4731 32.3636 47.8606 31.912 47.4089C31.4603 46.9573 30.8478 46.7036 30.2091 46.7036C29.5704 46.7036 28.9578 46.9573 28.5062 47.4089C28.0545 47.8606 27.8008 48.4731 27.8008 49.1118Z" fill="white" stroke="#45413C" stroke-width="2.42" stroke-linecap="round" stroke-linejoin="round"/>
<path d="M27.1479 47.1696C20.7519 48.8727 14.3023 43.8458 12.5332 37.9488C10.4713 31.1239 14.4838 23.4248 21.4942 21.4949L21.7292 21.4289C22.7602 21.165 26.3891 20.4351 29.3912 21.7753C31.3913 22.6619 32.4964 23.9485 32.8099 25.6682C33.2965 28.3527 31.7789 30.526 29.0448 31.1569C28.3268 31.309 27.5896 31.3493 26.8592 31.2765C26.5335 31.2518 26.2077 31.2105 25.8819 31.1693C25.2717 31.052 24.6447 31.052 24.0344 31.1693C22.1787 31.6476 21.5024 33.0002 22.022 35.1487C22.286 36.258 23.3911 37.623 25.0118 37.2849L25.1932 37.2436C26.3149 36.9508 26.8675 36.3488 27.5727 35.5941C28.2778 34.8395 29.251 33.7879 30.7933 33.4415C31.1282 33.3557 31.4708 33.3032 31.816 33.2848C32.6944 33.2533 33.5538 33.5454 34.2311 34.1057C34.9084 34.6659 35.3565 35.4553 35.4903 36.324C35.5902 36.8469 35.6234 37.3804 35.5893 37.9117C35.2511 42.4478 31.4078 45.9654 27.1479 47.1696Z" fill="#45413C"/>
<path d="M50.4989 42.7653C47.1174 43.1777 45.9627 41.2808 45.5504 40.089C45.1124 38.5544 44.794 36.9882 44.5978 35.4044C44.5441 34.992 44.4947 34.7281 44.4534 34.5384H44.3709L43.9586 34.6126C44.0344 35.2041 44.1445 35.7907 44.2885 36.3693C44.3957 36.8683 44.4947 37.3384 44.5648 37.8415C45.0143 41.1406 43.74 43.5159 41.3565 43.9447C40.4245 44.1049 39.4657 43.9603 38.6224 43.5324C37.3358 42.9014 36.1976 41.4004 35.1832 38.9467C34.2909 36.6557 33.6251 34.2828 33.1955 31.8621C32.9316 30.4435 32.5769 27.9981 32.412 25.8372C32.2305 23.5238 32.3831 22.6124 32.4986 22.2206C32.911 20.0433 34.9357 18.7072 36.7956 18.3773C39.6822 17.8659 41.7688 19.3629 42.1565 22.0887L42.5689 25.0784C42.609 25.4356 42.6794 25.7888 42.7792 26.1341C43.0142 26.0929 43.1915 26.0558 43.2781 26.0269C43.2715 25.2783 43.2095 24.5312 43.0926 23.7918C43.0555 23.5155 43.0348 23.3794 42.9977 23.099C42.5317 19.6103 44.4782 16.9133 47.8555 16.501C51.0226 16.1133 52.9402 17.6515 53.5381 20.9423C53.6742 21.6928 53.8103 22.798 53.9216 24.1217C54.3652 28.7542 54.459 33.4135 54.2021 38.0601C53.9587 41.7839 51.769 42.6004 50.4989 42.7653Z" fill="#45413C"/>
<path d="M60.9286 41.8375C58.7223 41.9901 55.3862 42.3076 55.0274 38.1261C54.9656 37.4168 54.8006 35.5157 56.3594 34.4724L56.6811 34.2497C56.611 33.3466 56.5491 32.4229 56.4831 31.4703C56.3965 30.2332 56.3099 28.9383 56.2027 27.5692C56.1738 27.1568 56.1574 26.7444 56.1409 26.3073C56.1244 25.8702 56.112 25.4826 56.0831 25.0702C56.0611 24.6641 56.0087 24.2602 55.9264 23.8619C55.2914 23.6887 53.7119 23.0372 53.4975 20.4887C53.4106 19.603 53.5526 18.7098 53.9099 17.8948C54.9903 15.7587 58.1326 15.4865 59.8193 15.3793L60.644 15.3257C62.8008 15.1979 67.2957 15.0411 67.6132 18.9917V19.4495C67.6586 21.5691 66.6276 22.6083 65.6091 23.2104C65.6091 23.9815 65.6462 24.8599 65.6709 25.5733L65.774 28.8146C65.8029 29.7012 65.7988 30.6455 65.774 31.5569V33.6188C66.9575 34.2415 67.7452 35.0291 67.7947 37.1405C67.8442 39.2519 66.8792 40.8189 65.2338 41.3138C64.5369 41.553 63.2874 41.6725 60.9286 41.8375Z" fill="#45413C"/>
<path d="M77.9116 41.4911C77.4703 41.4911 77.1693 41.4581 76.9383 41.4457H76.6373C72.7115 41.3509 68.7568 39.4993 68.1217 35.1446C67.786 32.9513 67.5849 30.7396 67.5196 28.5218C67.4601 25.1838 67.6255 21.8456 68.0145 18.5298V18.3979C68.4516 16.0803 70.7898 14.9958 72.8929 14.9999C74.5136 14.9999 78.3074 15.0741 78.5466 19.5608V20.534C78.526 20.8639 78.4806 21.5155 78.4188 22.3608C78.2662 24.5093 78.0064 28.1341 77.9569 30.3857V30.8847C78.3239 30.9136 78.6951 30.9301 79.0786 30.9507C80.378 30.9481 81.6682 31.1685 82.8931 31.6022C84.6787 32.3074 85.5117 33.7219 85.3921 35.726C85.0539 41.8045 80.9178 41.5612 77.9116 41.4911Z" fill="#45413C"/>
<path d="M93.5314 42.5468C93.0861 42.4973 92.7891 42.4519 92.5623 42.419L92.3067 42.3818H92.2613C88.3519 41.9447 84.5622 39.7715 84.257 35.3714C84.092 33.1636 84.0617 30.9477 84.1663 28.7362C84.3683 25.4246 84.794 22.1304 85.4406 18.8763C85.4406 18.8309 85.4406 18.7897 85.4694 18.7443C86.088 16.4762 88.4963 15.602 90.5953 15.7834C92.2077 15.9278 95.9851 16.3278 95.882 20.8103V21.2268C95.882 21.3959 95.882 21.565 95.849 21.7341V21.7794C95.8078 22.1052 95.7088 22.7526 95.5851 23.5856C95.2634 25.7094 94.7356 29.2723 94.5088 31.5239C94.4881 31.7095 94.4758 31.8744 94.4634 32.0229C94.8263 32.0848 95.1974 32.1301 95.5809 32.1837C96.8787 32.2939 98.148 32.6259 99.3336 33.1652C101.061 34.0188 101.783 35.4992 101.507 37.4952C100.649 43.4829 96.5418 42.8808 93.5314 42.5468Z" fill="#45413C"/>
<path d="M112.989 45.7468C108.844 44.8231 109.529 39.6312 109.818 37.392C109.818 37.2931 109.842 37.1858 109.855 37.0786C109.802 37.0649 109.748 37.0539 109.694 37.0456C109.694 37.0456 109.694 37.091 109.665 37.1157C109.574 37.3755 109.463 37.6766 109.323 38.0024C109.224 38.2292 109.125 38.4848 109.018 38.7488C108.238 40.7034 106.832 44.32 103.43 43.7509C102.848 43.6555 102.292 43.4393 101.798 43.1161C101.305 42.7929 100.884 42.37 100.564 41.8746C99.3763 40.122 99.3515 37.59 99.6072 35.9941C100.084 33.3174 100.747 30.6773 101.591 28.0929C101.768 27.5321 101.95 26.9795 102.102 26.464C103.512 21.6557 107.368 17.7257 112.824 18.8185C121.043 20.468 121.043 29.429 120.123 35.9652V36.0312C120.065 36.39 120.012 36.8931 119.954 37.425C119.858 38.525 119.697 39.6183 119.471 40.6993C118.564 44.6169 116.152 46.4602 112.989 45.7468Z" fill="#45413C"/>
<path d="M120.661 47.4376C119.971 47.2546 119.338 46.9011 118.82 46.4098C118.302 45.9184 117.915 45.3047 117.696 44.6252C117.456 43.9653 117.401 43.2519 117.54 42.5633L117.581 42.3736C117.94 40.753 119.21 39.3014 120.204 38.3818L121.255 37.4416C121.886 36.8931 123.127 35.8209 123.903 35.1322C123.853 34.992 123.824 34.9219 123.775 34.7817C121.824 29.3961 121.164 27.3837 121.593 25.2475L121.663 24.93C121.663 24.8888 121.663 24.8517 121.692 24.8145C122.34 22.6867 124.43 21.7341 127.14 22.4186L127.358 22.4805C131.581 23.6434 132.53 27.0455 132.855 28.2991C132.925 28.5589 132.991 28.8311 133.061 29.1239C133.156 29.5363 133.297 30.1012 133.441 30.6744C134.397 29.7409 135.442 28.9039 136.563 28.1754L137.024 27.8661C137.791 27.404 138.65 27.1173 139.541 27.0268C140.432 26.9362 141.331 27.044 142.175 27.3424C144.864 28.3033 146.208 30.5342 145.474 32.6786L145.429 32.8023C144.942 34.2209 143.858 35.2766 142.954 35.9776C141.334 37.3452 139.629 38.6096 137.849 39.7633C137.919 40.0395 137.994 40.3241 138.051 40.5468C138.183 41.0746 138.311 41.5736 138.381 41.9324C138.542 42.7571 138.711 43.5118 138.855 44.1716C139.268 46.0974 139.561 47.4706 139.132 48.749C138.352 51.0459 136.039 52.048 133.614 51.1985L133.371 51.116C132.367 50.7955 131.454 50.2383 130.711 49.4913C129.841 48.5304 129.404 46.9469 128.929 45.2644C128.843 44.9633 128.74 44.5963 128.633 44.2499L128.443 44.3943C127.227 45.3783 125.923 46.2467 124.546 46.9881C123.344 47.5907 121.969 47.7499 120.661 47.4376Z" fill="#45413C"/>
<path d="M25.3546 45.1943C19.2556 47.1819 13.5482 42.0519 11.7461 36.6951C9.53992 30.2043 13.5152 23.1897 19.9937 21.3505L20.2081 21.2928C22.1711 20.7732 25.0742 20.5794 27.2516 21.5196C29.0001 22.2743 29.932 23.3093 30.2083 24.7444C30.6207 26.9135 29.4495 28.6208 27.2186 29.1527C26.5929 29.2867 25.9504 29.3242 25.3134 29.2641C25.0082 29.2641 24.6989 29.2063 24.3855 29.1692C23.6473 29.033 22.8896 29.0414 22.1546 29.194C18.7483 30.093 19.1195 33.1157 19.4329 34.3569C19.87 36.0931 21.5278 37.5776 23.5567 37.1199L23.767 37.0869C25.1691 36.7116 25.8742 35.9405 26.6289 35.124C27.3835 34.3075 28.0928 33.5528 29.3588 33.26C29.6291 33.1883 29.905 33.14 30.1836 33.1157C30.8489 33.0819 31.5033 33.2953 32.0209 33.7147C32.5385 34.1341 32.8828 34.73 32.9878 35.3879C33.072 35.8419 33.1052 36.3039 33.0867 36.7652C33.0001 38.7158 32.0681 40.6457 30.3692 42.2911C28.9602 43.6543 27.2384 44.6511 25.3546 45.1943Z" fill="#EDF2F4"/>
<path d="M20.3972 22.1217C22.2694 21.6268 24.8921 21.4701 26.8303 22.3031C28.2736 22.9258 29.0819 23.7341 29.3046 24.9382C29.6262 26.563 28.8551 27.8867 27.0241 28.3197C26.4903 28.4327 25.9422 28.4619 25.3994 28.4063C24.3107 28.3362 23.2014 28.0352 21.9436 28.3651C18.2817 29.3342 18.026 32.4476 18.5786 34.6126C19.1147 36.6992 21.156 38.5467 23.7127 37.9611L23.9602 37.9034C27.0076 37.0786 27.3417 34.6044 29.5273 34.0806C29.7467 34.0245 29.97 33.9845 30.1953 33.961C30.6637 33.9343 31.1252 34.0836 31.4891 34.3796C31.853 34.6757 32.0932 35.0971 32.1624 35.5611C32.2377 35.9453 32.2681 36.3369 32.2531 36.7281C32.1418 40.555 28.2778 43.5323 25.1602 44.3736C19.4859 46.2169 14.2157 41.4333 12.5703 36.4271C11.0403 30.5548 13.7827 23.6433 20.2075 22.1794L20.3972 22.1299M20.0096 20.4804L19.7869 20.5381C15.9889 21.6227 13.1064 23.9691 11.5187 27.1898C10.0793 30.2599 9.84816 33.7593 10.8713 36.992C12.5208 43.1777 19.1848 47.7798 25.5396 46.0396C29.7747 44.8025 33.5562 41.355 33.9397 36.7693C33.9662 36.246 33.9302 35.7213 33.8325 35.2064C33.6939 34.3557 33.2478 33.5855 32.5788 33.0419C31.9099 32.4984 31.0646 32.2194 30.2036 32.2579C29.8568 32.2774 29.5129 32.3313 29.1768 32.4187C27.6427 32.7775 26.7025 33.7631 25.9849 34.5549C25.2674 35.3466 24.7066 35.9446 23.5602 36.2539L23.3746 36.2992C21.6962 36.6786 20.5457 35.2683 20.2653 34.1342C20.0301 33.3054 20.0474 32.4253 20.3147 31.6064C20.5086 31.1115 20.9292 30.4105 22.3313 30.0393C22.9553 29.9215 23.5959 29.9215 24.22 30.0393C24.5334 30.0764 24.855 30.1136 25.1973 30.1383C25.9258 30.205 26.6602 30.1591 27.3747 30.0022C30.0757 29.3424 31.585 27.1898 31.0861 24.5506C30.7685 22.8598 29.6634 21.5979 27.6674 20.7361C24.6612 19.433 21.0364 20.1917 20.0096 20.4639V20.4804Z" fill="#45413C"/>
<path d="M49.3865 40.522C47.2669 40.7983 45.9266 40.1096 45.3823 38.4849C44.9595 36.999 44.6534 35.4823 44.4668 33.9487C44.2276 32.159 44.207 32.1631 43.1843 32.3239C41.8482 32.5342 41.873 32.6992 41.9843 33.4703C42.0833 34.1673 42.2152 34.7405 42.339 35.2972C42.4503 35.7714 42.5493 36.225 42.6194 36.691C43.0318 39.4787 42.0792 41.4004 40.1451 41.7509C39.392 41.8844 38.6159 41.7731 37.9306 41.4334C36.8502 40.9138 35.8234 39.5323 34.9079 37.3096C34.0411 35.0794 33.3934 32.7702 32.9738 30.4146C32.7182 29.0167 32.3676 26.6125 32.2068 24.4846C32.0831 22.8846 32.0955 21.7506 32.2728 21.1485C32.578 19.3835 34.244 18.2948 35.7698 18.0144C38.1121 17.602 39.7121 18.7113 40.042 20.9629C40.2152 22.1588 40.3018 22.7526 40.4791 23.9485C40.7637 25.9279 41.1389 25.8661 41.7163 25.7754C43.2462 25.5321 43.3658 25.5197 42.9534 22.3526C42.9163 22.0763 42.8957 21.9402 42.8586 21.664C42.4462 18.7196 44.0709 16.4515 46.8586 16.0968C49.535 15.7587 50.9824 16.9216 51.5185 19.7711C51.6587 20.4969 51.7989 21.5732 51.9309 22.8681C52.4163 27.4436 52.5541 32.0493 52.3433 36.6457C52.1329 39.5612 50.6154 40.3571 49.3865 40.522Z" fill="#EDF2F4"/>
<path d="M46.9519 16.9834C48.9437 16.7319 50.1231 17.3711 50.6303 19.9855C50.7705 20.7031 50.9066 21.7546 51.0427 23.0083C51.5161 27.528 51.6649 32.0758 51.4881 36.6168C51.385 38.2003 50.8695 39.458 49.3025 39.6642C47.9581 39.8416 46.6715 39.6931 46.1849 38.192C45.7822 36.7675 45.4967 35.3125 45.3313 33.8415C45.0302 31.5404 44.622 31.26 43.0879 31.4991C41.657 31.726 40.9271 32.0888 41.1539 33.6311C41.3559 34.9755 41.6611 35.8992 41.8013 36.8518C42.0817 38.7199 41.7106 40.6292 40.0528 40.9302C39.468 41.0378 38.864 40.9509 38.3332 40.6828C37.3311 40.2003 36.4404 38.7199 35.7311 37.0044C34.8948 34.8269 34.2733 32.5728 33.8754 30.2744C33.5329 28.3415 33.288 26.3926 33.1413 24.4351C33.0259 23.0041 33.0341 21.8165 33.2032 21.3423C33.4383 19.8082 34.9888 19.0701 35.9455 18.8969C37.9208 18.534 38.9394 19.5113 39.1868 21.1526C39.3641 22.3485 39.4549 22.9423 39.6322 24.1382C39.8796 25.7877 40.259 26.9176 41.859 26.6619C44.1766 26.2908 44.2921 25.5815 43.8632 22.2619C43.8261 21.9856 43.8096 21.8495 43.7725 21.5691C43.4549 19.0948 44.6632 17.2803 46.9725 16.9834M46.7828 15.2927C43.4343 15.7051 41.5126 18.3979 41.9869 21.8412C42.024 22.1175 42.0405 22.2536 42.0817 22.5299C42.2067 23.2934 42.2702 24.0656 42.2714 24.8392C42.0641 24.8967 41.8534 24.9408 41.6405 24.9712C41.5234 24.6048 41.4433 24.2277 41.4013 23.8454C41.2322 22.6495 41.1497 22.0557 40.9889 20.8598C40.6054 18.1587 38.5146 16.6948 35.6816 17.2144C33.8383 17.5525 31.8341 18.8639 31.4341 21.0289C31.3186 21.4124 31.1537 22.3031 31.3599 24.6454C31.5207 26.798 31.896 29.2228 32.1599 30.6373C32.6037 33.0486 33.279 35.4114 34.1764 37.6931C35.2032 40.1343 36.329 41.6148 37.628 42.2292C38.4646 42.6414 39.4113 42.7744 40.3291 42.6086C42.6962 42.1715 43.9374 39.8292 43.4797 36.5714C43.4096 36.0724 43.3065 35.6023 43.1951 35.1075C43.0838 34.6126 42.9518 34.0105 42.857 33.3466V33.2765C43.0161 33.2365 43.1771 33.2049 43.3395 33.1816L43.492 33.161C43.5374 33.3466 43.5951 33.6435 43.657 34.093C43.8565 35.6779 44.1819 37.2444 44.6302 38.7776C45.5416 41.4993 48.0777 41.5529 49.521 41.3591C50.7417 41.2107 52.8778 40.3859 53.1664 36.7281C53.3865 32.0894 53.2721 27.4409 52.8242 22.8186C52.7087 21.4948 52.5685 20.3938 52.4118 19.6391C51.8015 16.3401 49.9375 14.8927 46.7663 15.2927H46.7828Z" fill="#45413C"/>
<path d="M60.3621 39.5075C58.0404 39.6725 55.6445 39.9199 55.3723 36.6456C55.3187 35.9817 55.1991 34.5837 56.3084 33.8497C56.5973 33.6817 56.8577 33.4687 57.0796 33.2188C57.0053 32.1754 56.9311 31.1074 56.8569 29.9981C56.7744 28.7609 56.6878 27.4661 56.5888 26.0929C56.56 25.7093 56.5435 25.2928 56.5311 24.8557C56.5187 24.4186 56.5022 24.0062 56.4734 23.6186C56.4652 23.0455 56.3707 22.4769 56.1929 21.932C56.1311 21.8 56.1022 21.7216 55.6115 21.5979C55.0342 21.4495 54.028 20.9216 53.8671 19.0288C53.7917 18.3031 53.8995 17.5701 54.1805 16.8968C54.9104 15.4782 57.0672 15.0617 59.2775 14.9174L60.1023 14.8638C62.8652 14.6947 65.8385 14.8267 66.09 17.668V18.0803C66.1478 20.0185 65.1292 20.7897 64.09 21.2722C64.09 22.1464 64.1395 23.2887 64.1725 24.2165C64.2261 25.5114 64.2508 26.1588 64.3003 27.4578C64.3333 28.3279 64.3333 29.2641 64.3374 30.1672C64.3415 31.0703 64.3374 31.8909 64.3704 32.6414C64.3713 32.7011 64.3782 32.7605 64.391 32.8188C65.7684 33.4538 66.3581 33.9445 66.4158 35.7714C66.4653 37.4663 65.7642 38.658 64.5065 39.0292C63.8879 39.223 62.6508 39.3426 60.3621 39.5075Z" fill="#EDF2F4"/>
<path d="M60.1478 15.705C63.4469 15.4989 65.0139 15.9236 65.183 17.7381V18.1051C65.2283 19.5608 64.5809 20.1134 63.5871 20.5546C63.4657 20.6066 63.3622 20.6928 63.2889 20.8026C63.2157 20.9124 63.176 21.0412 63.1747 21.1732C63.1747 22.101 63.2324 23.2887 63.2737 24.2495C63.3273 25.5444 63.3561 26.1918 63.4098 27.4908C63.484 29.1774 63.4345 31.1033 63.5005 32.6909C63.5252 33.2517 63.7355 33.4703 64.0036 33.5899C65.1789 34.1301 65.5088 34.3528 65.5582 35.8085C65.5954 36.8642 65.3067 37.9034 64.2593 38.2209C62.9465 38.4626 61.6179 38.6087 60.2839 38.658C57.4261 38.8601 56.3498 38.7487 56.1601 36.5673C56.1024 35.8085 56.0983 34.9755 56.7251 34.5549C57.4798 34.0559 57.8839 33.66 57.888 33.26C57.7313 31.0125 57.5993 28.662 57.4179 26.0186C57.3643 25.2599 57.3684 24.3691 57.3107 23.5444C57.2953 22.8749 57.1785 22.2117 56.9643 21.5773C56.7581 21.099 56.3952 20.9258 55.822 20.7773C55.1416 20.6 54.7993 19.8701 54.7251 18.9422C54.6596 18.3712 54.7375 17.793 54.9519 17.2597C55.5045 16.1504 57.6035 15.8741 59.2818 15.7669L60.1066 15.7133M60.053 13.9937L59.2282 14.0473C57.6653 14.1504 54.4117 14.4184 53.3518 16.5216C53.0037 17.3274 52.8715 18.21 52.9683 19.0824C53.1869 21.5773 54.7251 22.2206 55.3725 22.3815H55.4179C55.5075 22.7887 55.5654 23.2023 55.5911 23.6186C55.6199 24.0062 55.6364 24.4433 55.6488 24.8557C55.6612 25.2681 55.6818 25.7093 55.7148 26.1135C55.822 27.4867 55.9127 28.7774 55.9993 30.0146C56.0694 30.9837 56.1354 31.9198 56.2055 32.8352C56.123 32.8971 56.0076 32.9796 55.855 33.0827C54.3127 34.1177 54.4818 35.9693 54.5395 36.6745C54.8983 40.7983 58.0859 40.4684 60.4159 40.2993C62.7458 40.1302 64.0366 40.0065 64.7335 39.7962C66.383 39.3055 67.315 37.7838 67.2572 35.6724C67.1995 33.561 66.3995 32.7858 65.216 32.2002V30.0764C65.216 29.1651 65.216 28.2249 65.1871 27.3382C65.1417 26.0392 65.1211 25.3918 65.0758 24.0969C65.051 23.3547 65.018 22.4474 65.0098 21.6887C66.0284 21.099 67.0717 20.0721 67.0181 17.9772V17.569C67.0201 17.5526 67.0201 17.5359 67.0181 17.5195C66.6923 13.639 62.2262 13.8081 60.0819 13.9401L60.053 13.9937Z" fill="#45413C"/>
<path d="M77.9527 39.1488C77.5403 39.1488 77.2269 39.1199 77.0042 39.1076H76.7032C73.532 39.0086 69.7257 38.3117 68.9752 33.5735C68.6382 31.4118 68.4549 29.229 68.4268 27.0414C68.3887 23.7515 68.5733 20.4628 68.9793 17.1979V17.136C69.3587 15.2061 71.3423 14.4968 72.9176 14.4968C74.6001 14.4968 77.4125 14.5504 77.6269 18.1835V18.5876C77.6351 18.7373 77.6351 18.8874 77.6269 19.0371C77.6269 19.3835 77.5692 20.0351 77.5114 20.8722C77.363 23.0331 77.1238 26.6455 77.0785 28.9424C77.0785 29.561 77.0785 29.9981 77.1032 30.2868C77.7652 30.3759 78.4314 30.4295 79.0991 30.4476C80.3061 30.4468 81.5047 30.6475 82.6456 31.0414C84.0641 31.5982 84.6745 32.6374 84.5837 34.2662C84.3033 39.3962 81.0785 39.2065 77.9527 39.1488Z" fill="#EDF2F4"/>
<path d="M72.9088 15.3463C74.946 15.3463 76.5501 15.5772 76.7151 18.233C76.7151 18.4969 76.7398 18.7649 76.7357 19.0288C76.678 20.2165 76.278 25.763 76.2244 28.9259C76.1815 29.6244 76.2272 30.3255 76.3604 31.0126C78.4801 31.4744 80.3894 31.0785 82.3482 31.8373C83.3915 32.2497 83.8162 32.9384 83.7503 34.2209C83.5317 38.4436 81.276 38.3694 77.977 38.2869C77.3007 38.2869 76.9831 38.2292 76.7398 38.2251C72.9501 38.0601 70.4057 37.0622 69.8284 33.4002C69.509 31.2894 69.3313 29.1595 69.2964 27.0249C69.2666 23.7717 69.4567 20.5202 69.8655 17.2927C70.1995 15.6432 72.1253 15.3546 72.9088 15.3546M72.9088 13.6597C70.8222 13.6597 68.5129 14.7154 68.0716 16.9958V17.1237C67.6734 20.425 67.4998 23.7495 67.552 27.0743C67.6019 29.2849 67.8031 31.4894 68.1541 33.6724C68.7479 38.0725 72.6697 39.9076 76.6574 39.9199H76.9666C77.1893 39.9199 77.4945 39.9529 77.944 39.9653C80.9585 40.0395 85.0864 40.2787 85.4451 34.3075C85.5647 32.3239 84.7441 30.9425 82.9709 30.2455C81.7417 29.8184 80.4494 29.601 79.1481 29.6022C78.7357 29.6022 78.3234 29.5651 77.944 29.5321V28.963C77.9976 26.6908 78.2491 23.0866 78.4058 20.934C78.4636 20.1093 78.5131 19.4453 78.5296 19.1072V18.2041C78.5275 18.1835 78.5275 18.1628 78.5296 18.1422C78.2863 13.7215 74.5254 13.6514 72.9212 13.6514L72.9088 13.6597Z" fill="#45413C"/>
<path d="M94.1959 40.2539C93.7835 40.2045 93.4784 40.1591 93.2598 40.1261L92.9588 40.0849C89.8041 39.7055 86.0679 38.6745 85.6885 33.8992C85.5232 31.7338 85.5067 29.5596 85.639 27.3919C85.8653 24.1183 86.3144 20.864 86.9834 17.6515V17.5896C87.5154 15.7092 89.5443 15.1772 91.1072 15.3174C92.7814 15.4659 95.5856 15.7669 95.5114 19.4C95.5093 19.4205 95.5093 19.4413 95.5114 19.4618C95.5114 19.5732 95.5114 19.6886 95.4908 19.8041C95.4701 19.9196 95.4908 20.1051 95.466 20.2536C95.4289 20.5917 95.3258 21.2351 95.2021 22.0639C94.8887 24.1959 94.3773 27.7754 94.1382 30.0476C94.0763 30.662 94.0557 31.0991 94.0557 31.3878C94.7161 31.5349 95.3837 31.6478 96.0557 31.726C97.2611 31.8317 98.4403 32.1384 99.5444 32.6332C100.914 33.3095 101.446 34.3982 101.223 36.0106C100.514 41.0828 97.2929 40.6086 94.1959 40.2539Z" fill="#EDF2F4"/>
<path d="M91.0462 16.1628C93.0751 16.3443 94.6545 16.7154 94.6133 19.3629C94.5844 19.6227 94.6133 19.8907 94.5721 20.1547C94.4195 21.3299 93.5824 26.8063 93.2813 29.9569C93.1837 30.6471 93.174 31.3468 93.2525 32.0394C95.3143 32.691 97.2649 32.4518 99.1577 33.3879C100.168 33.8951 100.539 34.625 100.37 35.8869C99.8175 40.0643 97.5783 39.788 94.2875 39.4127C93.6153 39.3385 93.2978 39.2684 93.0504 39.2437C89.2771 38.7364 86.8193 37.524 86.5307 33.8333C86.3803 31.7069 86.372 29.5729 86.5059 27.4455C86.7392 24.2104 87.1911 20.9947 87.8585 17.8206C88.3204 16.2 90.2627 16.0927 91.0462 16.1711M91.1823 14.4845C89.1204 14.2948 86.7204 15.1443 86.1018 17.3711V17.4948C85.4471 20.7444 85.0118 24.0344 84.7987 27.3424C84.6757 29.5479 84.7019 31.7591 84.877 33.9611C85.1286 38.3942 88.8854 40.5591 92.8648 40.9303H92.9061L93.17 40.9674C93.3885 41.0004 93.6937 41.0458 94.1391 41.0994C97.1412 41.4416 101.24 42.0478 102.069 36.1508C102.341 34.1879 101.657 32.7446 99.9371 31.8951C98.7361 31.3522 97.452 31.0162 96.1391 30.9012C95.7267 30.8435 95.335 30.7899 94.9473 30.7239C94.9473 30.5548 94.9762 30.3693 94.9968 30.159C95.2319 27.9033 95.7638 24.3444 96.0896 22.2166C96.2133 21.3918 96.3123 20.7485 96.3577 20.4145V20.3691C96.3577 20.1835 96.3865 20.0145 96.3907 19.866C96.3948 19.7175 96.3907 19.6722 96.3907 19.5773V19.4371C96.4979 15.0247 92.7493 14.6164 91.1534 14.4886L91.1823 14.4845Z" fill="#45413C"/>
<path d="M114.296 43.6478C110.943 42.8849 111.537 38.6168 111.855 36.3075C111.904 35.9446 111.962 35.5199 111.978 35.2559C111.427 34.9714 110.813 34.8296 110.193 34.8436C110.094 35.0662 110.011 35.3013 109.921 35.5487C109.83 35.7961 109.727 36.0807 109.595 36.3735C109.496 36.6085 109.389 36.8725 109.281 37.1487C108.502 39.0952 107.351 42.0313 104.63 41.5653C104.166 41.4864 103.724 41.3118 103.331 41.0527C102.939 40.7935 102.604 40.4555 102.349 40.0601C101.38 38.6209 101.257 36.4188 101.574 34.8559C101.933 32.2827 102.811 29.528 103.603 27.0991C103.784 26.5341 103.978 25.9815 104.131 25.4496C105.413 21.099 109.042 17.6144 113.855 18.4845C121.121 19.8041 121.236 29.1032 120.383 34.6332C120.321 35.0456 120.263 35.5652 120.205 36.1096C120.113 37.1749 119.957 38.2338 119.739 39.2807C118.964 42.7117 116.981 44.2623 114.296 43.6478ZM111.541 28.5342C111.733 28.621 111.935 28.6807 112.143 28.7115L112.312 28.7486C112.828 28.8517 112.956 28.8105 112.968 28.8022C113.07 28.642 113.131 28.4594 113.145 28.2702C113.36 27.1321 113.145 25.796 112.89 25.4619C112.51 25.6846 111.78 26.7568 111.562 27.9816C111.511 28.1615 111.504 28.351 111.541 28.5342Z" fill="#EDF2F4"/>
<path d="M113.704 19.3546C120.978 20.1794 120.236 29.4826 119.522 34.5425C119.349 35.6477 119.267 37.5488 118.912 39.1158C118.413 41.3509 117.176 43.454 114.462 42.8272C111.023 42.0437 113.056 35.9694 112.813 34.9095C112.64 34.5714 111.914 34.2539 111.192 34.1054C110.471 33.9569 109.683 33.9734 109.543 34.2456C109.234 34.8559 109.106 35.3961 108.825 36.0477C108.038 37.8704 107.151 41.1612 104.767 40.7529C102.256 40.3158 102.021 36.8683 102.417 35.0333C102.854 31.9404 104.066 28.5383 104.982 25.7547C106.066 21.7299 109.106 18.1793 113.712 19.3464M111.988 29.5404L112.157 29.5734C113.262 29.8002 113.782 29.6476 114.009 28.4517C114.236 27.2558 114.133 24.8228 113.032 24.596C112.104 24.4063 110.97 26.2249 110.693 27.8125C110.483 29.0084 110.916 29.3218 111.988 29.5404ZM114.005 17.7051C108.495 16.0556 104.726 20.5918 103.283 25.2228C103.114 25.7589 102.936 26.3032 102.755 26.8723C101.963 29.3466 101.106 32.1136 100.734 34.7487C100.413 36.3694 100.487 38.8395 101.662 40.5839C101.98 41.0732 102.396 41.4912 102.883 41.8114C103.371 42.1316 103.92 42.3469 104.495 42.4437C107.86 43.021 109.275 39.4498 110.054 37.5199C110.165 37.256 110.264 37.0003 110.368 36.7735C110.508 36.4477 110.619 36.1549 110.714 35.891C110.732 35.8493 110.747 35.8066 110.759 35.7632L110.887 35.7879L111.056 35.825C111.056 35.957 111.023 36.0889 111.007 36.2044C110.766 37.611 110.707 39.0428 110.834 40.4643C111.246 43.4334 113.056 44.2582 114.133 44.5015C117.275 45.2149 119.675 43.4087 120.574 39.5529C120.802 38.4747 120.967 37.3842 121.069 36.2869C121.127 35.7549 121.18 35.2518 121.242 34.893V34.8271C121.654 31.6394 122.1 28.0228 121.432 24.93C120.607 21.033 118.063 18.5422 114.009 17.7175L114.005 17.7051Z" fill="#45413C"/>
<path d="M122.468 45.5077C121.918 45.3598 121.415 45.0755 121.005 44.6811C120.595 44.2868 120.291 43.7952 120.121 43.252C119.945 42.7576 119.906 42.2243 120.01 41.7097C120.031 41.6354 120.039 41.5983 120.056 41.52C120.398 40.056 121.705 38.6952 122.464 38.0189C122.612 37.8828 123.012 37.5323 123.519 37.1034C124.344 36.3817 125.994 35.0209 126.662 34.4147C126.53 34.0477 126.468 33.8621 126.336 33.491C124.476 28.2703 123.862 26.3445 124.254 24.4186L124.332 24.0887V24.0599C124.851 22.4104 126.48 21.7258 128.678 22.299L128.872 22.3526C132.109 23.2722 133.157 25.6145 133.647 27.5032C133.713 27.7465 133.775 28.0187 133.845 28.328C134.043 29.1527 134.386 30.5837 134.65 31.4456L135.14 31.0332C135.318 30.8847 135.433 30.7899 135.553 30.7198C137.59 28.8888 138.105 28.5713 138.947 28.0352L139.425 27.7259C140.066 27.3466 140.782 27.113 141.523 27.0417C142.265 26.9705 143.012 27.0633 143.714 27.3135C145.875 28.1053 146.93 29.7878 146.353 31.4373L146.312 31.561C145.899 32.7982 144.901 33.7013 144.101 34.3528C142.384 35.808 140.561 37.1353 138.65 38.324L138.534 38.3941C138.625 38.8065 138.777 39.388 138.885 39.8169C139.017 40.3323 139.14 40.8231 139.206 41.1571C139.371 42.0066 139.54 42.7654 139.685 43.4293C140.097 45.2809 140.34 46.5056 139.99 47.5531C139.293 49.5861 137.243 50.0273 135.569 49.417L135.322 49.3263C134.458 49.0458 133.672 48.5654 133.029 47.9242C132.328 47.1448 131.899 45.586 131.483 44.0767C131.295 43.3104 131.047 42.5603 130.74 41.8334C130.431 42.019 129.953 42.3777 129.553 42.6581C128.376 43.6 127.112 44.4284 125.779 45.1324C124.755 45.6461 123.581 45.7791 122.468 45.5077Z" fill="#EDF2F4"/>
<path d="M128.675 23.1815C131.446 23.9691 132.308 25.9197 132.799 27.6723C133.211 29.2682 133.9 32.4683 134.267 32.5878C134.7 32.728 135.883 31.5734 136.147 31.4208C138.555 29.2641 138.811 29.2228 139.99 28.4599C140.513 28.161 141.093 27.9782 141.692 27.9241C142.292 27.87 142.895 27.9459 143.463 28.1465C144.824 28.6455 145.995 29.7177 145.5 31.1651L145.459 31.2888C145.112 32.3033 144.275 33.0992 143.496 33.7631C141.628 35.3041 139.659 36.7189 137.603 37.9982C137.644 38.5632 138.213 40.4725 138.378 41.2973C138.976 44.3159 139.615 46.1097 139.203 47.252C138.683 48.7943 137.166 49.0953 135.838 48.6211L135.59 48.5304C134.861 48.3078 134.197 47.91 133.656 47.3716C132.452 46.0685 132.048 41.2313 130.963 40.8849C130.275 40.7364 128.027 43.1365 125.433 44.3901C124.588 44.8147 123.619 44.9243 122.699 44.6994C122.284 44.5941 121.902 44.3826 121.593 44.0854C121.283 43.7883 121.056 43.4158 120.934 43.0045C120.805 42.6625 120.776 42.2902 120.852 41.9323C120.852 41.854 120.881 41.8169 120.897 41.7426C121.178 40.5632 122.279 39.3632 123.066 38.6622C123.644 38.1426 127.603 34.9137 127.673 34.6621C127.479 34.1013 127.384 33.8373 127.186 33.26C125.355 28.0764 124.807 26.3279 125.165 24.6619L125.236 24.3733C125.673 23 126.992 22.7444 128.535 23.1361L128.708 23.1856M129.12 21.5608L128.947 21.5114H128.906C126.229 20.8144 124.151 21.7217 123.508 23.8083V23.9196L123.442 24.2083V24.2372C123 26.3527 123.656 28.361 125.586 33.7549L125.73 34.1672C124.947 34.8477 123.669 35.9322 123.017 36.4848C122.489 36.9426 122.11 37.2725 121.941 37.425C120.943 38.3199 119.681 39.7467 119.314 41.3468L119.273 41.5365C119.128 42.2114 119.178 42.9137 119.417 43.5612C119.628 44.2358 120.008 44.8457 120.519 45.3339C121.03 45.8222 121.657 46.1728 122.341 46.353C123.646 46.6835 125.026 46.5373 126.234 45.9407C127.617 45.2183 128.927 44.3649 130.147 43.3922L130.419 43.186C130.539 43.5612 130.654 43.9736 130.745 44.3076C131.211 45.986 131.632 47.5654 132.506 48.5221C133.24 49.272 134.146 49.8311 135.145 50.151L135.388 50.2418C137.788 51.0954 140.081 50.1345 140.861 47.8871C141.273 46.6499 141.013 45.2602 140.597 43.3509C140.452 42.687 140.287 41.9365 140.127 41.1035C140.056 40.7406 139.933 40.2416 139.801 39.7179C139.743 39.4787 139.665 39.1735 139.59 38.8931C141.38 37.7419 143.103 36.4918 144.753 35.1487C145.636 34.427 146.725 33.425 147.228 32.027L147.273 31.9074C148.007 29.8043 146.683 27.6022 144.032 26.629C143.203 26.33 142.319 26.2153 141.442 26.293C140.564 26.3706 139.714 26.6387 138.951 27.0785L138.481 27.3836C137.319 28.1269 136.233 28.9834 135.24 29.9404C135.098 29.3764 134.961 28.8114 134.827 28.2455L134.634 27.4496V27.4249C134.304 26.1877 133.397 22.798 129.186 21.6103L129.12 21.5608Z" fill="#45413C"/>
</svg>
