<svg width="155" height="155" viewBox="0 0 155 155" fill="none" xmlns="http://www.w3.org/2000/svg">
<path d="M45.1486 42.588L33.8866 57.846C33.8866 57.846 32.6989 52.3779 27.3875 49.7304C22.0761 47.0829 15.1069 49.4418 11.0697 48.0809L10.8594 40.3859L19.643 29.062C20.9013 31.4834 22.9112 33.4311 25.371 34.6126C29.3587 36.4312 35.0949 34.5631 38.6496 36.6745C42.2043 38.7859 45.1486 42.588 45.1486 42.588Z" fill="white" stroke="#45413C" stroke-width="2.42" stroke-linecap="round" stroke-linejoin="round"/>
<path d="M11.0697 48.0727C11.0697 48.0727 15.4615 47.0335 15.6059 43.0005C11.6182 42.6871 10.8594 40.386 10.8594 40.386L11.0697 48.0727Z" fill="#F0F0F0" stroke="#45413C" stroke-width="2.42" stroke-linecap="round" stroke-linejoin="round"/>
<path d="M112.223 35.3096L123.481 50.5676C123.481 50.5676 124.672 45.1036 129.984 42.4561C135.295 39.8086 142.26 42.1674 146.302 40.8066L146.508 33.124L137.728 21.7836C136.466 24.1991 134.457 26.1418 132 27.3218C128.013 29.1445 122.276 27.2723 118.722 29.4084C115.167 31.5446 112.223 35.3096 112.223 35.3096Z" fill="white" stroke="#45413C" stroke-width="2.42" stroke-linecap="round" stroke-linejoin="round"/>
<path d="M146.302 40.7983C146.302 40.7983 141.91 39.7591 141.766 35.7261C145.749 35.4127 146.504 33.1157 146.504 33.1157L146.302 40.7983Z" fill="#F0F0F0" stroke="#45413C" stroke-width="2.42" stroke-linecap="round" stroke-linejoin="round"/>
<path d="M90.8677 96.4407C98.9338 92.1684 104.134 83.8054 104.134 72.7454C104.134 65.6823 101.328 58.9085 96.3337 53.9142C91.3394 48.9198 84.5656 46.114 77.5025 46.114C70.4394 46.114 63.6656 48.9198 58.6712 53.9142C53.6769 58.9085 50.8711 65.6823 50.8711 72.7454C50.8711 83.0136 56.3227 91.9251 64.7229 96.4448C57.4691 103.2 50.735 131.406 58.6032 132.14C60.9249 132.359 62.4713 130.953 63.5517 128.713C63.4239 133.25 63.7332 138.532 64.8095 138.532C68.9704 138.532 70.2116 128.025 70.2116 128.025H84.7686C84.7686 128.025 86.0057 138.532 90.1708 138.532C91.3667 138.532 91.6182 132.561 91.3708 127.146C92.4801 130.272 94.1585 132.408 96.9832 132.14C104.864 131.406 98.1214 103.187 90.8677 96.4407Z" fill="white"/>
<path d="M73.3087 70.9514C73.3079 68.7663 72.7707 66.6148 71.7443 64.6858C70.7179 62.7567 69.2336 61.1092 67.4218 59.8877C65.61 58.6663 63.526 57.9083 61.3528 57.6803C59.1796 57.4523 56.9837 57.7612 54.9578 58.5801C52.2819 62.8212 50.8648 67.7347 50.8711 72.7494C50.8653 75.8897 51.3895 79.0085 52.4217 81.9743C54.4275 83.3451 56.7692 84.1426 59.1947 84.2811C61.6201 84.4196 64.0374 83.8938 66.1862 82.7602C68.335 81.6266 70.1337 79.9283 71.3888 77.8482C72.6439 75.7681 73.3077 73.385 73.3087 70.9555V70.9514ZM81.6964 70.9514C81.6954 73.4077 82.3724 75.8166 83.6528 77.9128C84.9331 80.0089 86.7672 81.711 88.953 82.8316C91.1387 83.9522 93.5914 84.4478 96.0407 84.2638C98.4901 84.0798 100.841 83.2233 102.835 81.7887C103.716 78.8557 104.154 75.8076 104.134 72.7453C104.14 67.7306 102.723 62.817 100.047 58.5759C98.0214 57.7571 95.8255 57.4481 93.6523 57.6761C91.4791 57.9041 89.3951 58.6621 87.5833 59.8836C85.7715 61.1051 84.2872 62.7526 83.2608 64.6816C82.2344 66.6107 81.6972 68.7622 81.6964 70.9473V70.9514Z" fill="#E0E0E0"/>
<path d="M77.5025 46.114C70.4394 46.114 63.6656 48.9198 58.6712 53.9142C53.6769 58.9085 50.8711 65.6823 50.8711 72.7454V73.632C69.1106 61.9782 86.8346 61.2895 104.109 73.632V72.7619C104.114 65.7002 101.313 58.926 96.3236 53.9287C91.3341 48.9315 84.5641 46.1206 77.5025 46.114Z" fill="#E0E0E0"/>
<path d="M115.664 69.6649C115.664 69.3772 115.778 69.1014 115.982 68.898C116.185 68.6946 116.461 68.5803 116.749 68.5803H147.759C148.047 68.5803 148.323 68.6946 148.526 68.898C148.73 69.1014 148.844 69.3772 148.844 69.6649V138.532H115.664V69.6649Z" fill="white" stroke="#45413C" stroke-width="2.42" stroke-linecap="round" stroke-linejoin="round"/>
<path d="M107.578 69.6649C107.578 69.5226 107.605 69.3817 107.659 69.2502C107.713 69.1186 107.793 68.999 107.893 68.8982C107.994 68.7975 108.113 68.7175 108.244 68.663C108.376 68.6084 108.516 68.5803 108.659 68.5803H122.679C122.822 68.5803 122.962 68.6084 123.094 68.663C123.225 68.7175 123.344 68.7975 123.445 68.8982C123.545 68.999 123.625 69.1186 123.679 69.2502C123.733 69.3817 123.76 69.5226 123.76 69.6649V138.532H107.578V69.6649Z" fill="#E8F4FA" stroke="#45413C" stroke-width="2.42" stroke-linecap="round" stroke-linejoin="round"/>
<path d="M148.845 76.6958H136.704M107.578 87.7599H116.873M131.306 81.1495H119.57M148.845 95.2075H136.704M126.729 103.554H117.97M148.845 132.165H138.568M131.306 115.62H120.659" stroke="#45413C" stroke-width="2.42" stroke-linecap="round" stroke-linejoin="round"/>
<path d="M143.719 76.6958L139.603 80.9433L136.836 76.6958H143.719Z" fill="#F0F0F0" stroke="#45413C" stroke-width="2.42" stroke-linecap="round" stroke-linejoin="round"/>
<path d="M39.3401 69.6649C39.3401 69.3772 39.2259 69.1014 39.0225 68.898C38.8191 68.6946 38.5432 68.5803 38.2556 68.5803H7.24471C6.95707 68.5803 6.68121 68.6946 6.47782 68.898C6.27442 69.1014 6.16016 69.3772 6.16016 69.6649V138.532H39.3401V69.6649Z" fill="white" stroke="#45413C" stroke-width="2.42" stroke-linecap="round" stroke-linejoin="round"/>
<path d="M47.4274 69.6649C47.4279 69.5226 47.4004 69.3817 47.3463 69.2502C47.2923 69.1186 47.2128 68.999 47.1124 68.8982C47.012 68.7975 46.8927 68.7175 46.7614 68.663C46.63 68.6084 46.4892 68.5803 46.347 68.5803H32.3261C32.0403 68.5825 31.7669 68.6979 31.566 68.9011C31.365 69.1044 31.2528 69.379 31.2539 69.6649V138.532H47.4274V69.6649Z" fill="#E8F4FA" stroke="#45413C" stroke-width="2.42" stroke-linecap="round" stroke-linejoin="round"/>
<path d="M6.16016 76.6958H18.3006M47.4269 87.7599H38.1319M23.6986 81.1495H35.4349M6.16016 95.2075H18.3006M28.276 103.554H37.0349M6.16016 132.165H16.4366M23.6986 115.62H34.3462" stroke="#45413C" stroke-width="2.42" stroke-linecap="round" stroke-linejoin="round"/>
<path d="M11.2852 76.6958L15.4007 80.9433L18.1678 76.6958H11.2852Z" fill="#F0F0F0" stroke="#45413C" stroke-width="2.42" stroke-linecap="round" stroke-linejoin="round"/>
<path d="M112.435 128.025H41.9844C41.3009 127.998 40.6543 127.707 40.1803 127.214C39.7062 126.721 39.4414 126.063 39.4414 125.379C39.4414 124.695 39.7062 124.038 40.1803 123.544C40.6543 123.051 41.3009 122.761 41.9844 122.734H112.435C112.791 122.72 113.147 122.778 113.48 122.904C113.813 123.031 114.117 123.224 114.374 123.471C114.631 123.718 114.836 124.014 114.975 124.342C115.115 124.67 115.187 125.023 115.187 125.379C115.187 125.736 115.115 126.088 114.975 126.416C114.836 126.744 114.631 127.041 114.374 127.288C114.117 127.535 113.813 127.727 113.48 127.854C113.147 127.981 112.791 128.039 112.435 128.025Z" fill="#ADC4D9" stroke="#45413C" stroke-width="2.42" stroke-linecap="round" stroke-linejoin="round"/>
<path d="M56.556 114.02C54.3663 122.944 54.2549 131.752 58.6179 132.14C67.5294 132.965 65.0386 109.896 69.3109 107.191L56.556 114.02ZM99.1794 114.614C101.241 123.332 101.241 131.74 96.9938 132.136C88.0782 132.961 90.5731 109.892 86.3008 107.187L99.1794 114.614Z" fill="white"/>
<path d="M74.8359 46.1139C74.8359 46.8204 75.1166 47.498 75.6162 47.9976C76.1158 48.4972 76.7934 48.7779 77.4999 48.7779C78.2064 48.7779 78.884 48.4972 79.3836 47.9976C79.8832 47.498 80.1639 46.8204 80.1639 46.1139C80.1639 45.4074 79.8832 44.7298 79.3836 44.2302C78.884 43.7306 78.2064 43.45 77.4999 43.45C76.7934 43.45 76.1158 43.7306 75.6162 44.2302C75.1166 44.7298 74.8359 45.4074 74.8359 46.1139Z" fill="#FF512E" stroke="#45413C" stroke-width="2.42" stroke-linecap="round" stroke-linejoin="round"/>
<path d="M103.777 68.4276C102.752 62.1926 99.5429 56.5252 94.724 52.4381C89.905 48.351 83.7898 46.1105 77.4711 46.117C71.1523 46.1234 65.0417 48.3764 60.2311 52.4733C55.4205 56.5702 52.2234 62.2441 51.2109 68.4812C69.2113 57.0996 86.7167 56.4192 103.777 68.4276Z" fill="#FF866E"/>
<path d="M77.5028 48.9758C81.6759 48.9706 85.8081 49.7989 89.6568 51.412C93.5055 53.0252 96.9933 55.3907 99.9156 58.3698C97.5074 54.6103 94.1923 51.5169 90.2754 49.3742C86.3584 47.2316 81.9654 46.1086 77.5008 46.1086C73.0361 46.1086 68.6431 47.2316 64.7262 49.3742C60.8092 51.5169 57.4941 54.6103 55.0859 58.3698C58.0087 55.3902 61.4972 53.0244 65.3466 51.4112C69.1961 49.7981 73.329 48.9701 77.5028 48.9758Z" fill="#FFCABF"/>
<path d="M90.8677 96.4407C98.9338 92.1684 104.134 83.8054 104.134 72.7454C104.134 65.6823 101.328 58.9085 96.3337 53.9142C91.3394 48.9198 84.5656 46.114 77.5025 46.114C70.4394 46.114 63.6656 48.9198 58.6712 53.9142C53.6769 58.9085 50.8711 65.6823 50.8711 72.7454C50.8711 83.0136 56.3227 91.9251 64.7229 96.4448C57.4691 103.2 50.735 131.406 58.6032 132.14C60.9249 132.359 62.4713 130.953 63.5517 128.713C63.4239 133.25 63.7332 138.532 64.8095 138.532C68.9704 138.532 70.2116 128.025 70.2116 128.025H84.7686C84.7686 128.025 86.0057 138.532 90.1708 138.532C91.3667 138.532 91.6182 132.561 91.3708 127.146C92.4801 130.272 94.1585 132.408 96.9832 132.14C104.864 131.406 98.1214 103.187 90.8677 96.4407Z" stroke="#45413C" stroke-width="2.42" stroke-linecap="round" stroke-linejoin="round"/>
<path d="M51.2109 68.473C69.2154 57.0955 86.7208 56.4192 103.785 68.4276" stroke="#45413C" stroke-width="2.42" stroke-linecap="round" stroke-linejoin="round"/>
<path d="M73.2578 56.3739C73.2578 55.3141 73.6788 54.2977 74.4282 53.5483C75.1776 52.7989 76.194 52.3779 77.2538 52.3779C78.3136 52.3779 79.3299 52.7989 80.0793 53.5483C80.8287 54.2977 81.2497 55.3141 81.2497 56.3739H73.2578Z" fill="#E0E0E0" stroke="#45413C" stroke-width="2.42" stroke-linecap="round" stroke-linejoin="round"/>
<path d="M81.25 56.3738H82.8995C83.2528 56.3738 83.5916 56.5141 83.8414 56.7639C84.0912 57.0137 84.2315 57.3525 84.2315 57.7058V60.18" stroke="#45413C" stroke-width="2.42" stroke-linecap="round" stroke-linejoin="round"/>
<path d="M73.5664 80.6754C73.5664 77.6939 74.354 75.2732 77.5005 75.2732C80.6469 75.2732 81.4346 77.6939 81.4346 80.6754C80.1988 80.1147 78.8575 79.8246 77.5005 79.8246C76.1435 79.8246 74.8022 80.1147 73.5664 80.6754Z" fill="#FFA694" stroke="#45413C" stroke-width="2.42" stroke-linecap="round" stroke-linejoin="round"/>
<path d="M62.4453 58.0728C62.169 58.0728 61.8886 58.0398 61.6206 58.0398C59.3817 58.0398 57.1932 58.7037 55.3316 59.9475C53.4701 61.1914 52.0192 62.9593 51.1625 65.0277C50.3057 67.0961 50.0815 69.3721 50.5183 71.568C50.9551 73.7638 52.0332 75.7808 53.6163 77.3639C55.1994 78.947 57.2164 80.0251 59.4122 80.4619C61.608 80.8986 63.884 80.6745 65.9525 79.8177C68.0209 78.9609 69.7888 77.5101 71.0326 75.6485C72.2765 73.787 72.9404 71.5984 72.9404 69.3596C72.9405 68.6285 72.8687 67.8992 72.7259 67.1822L62.4453 58.0728Z" fill="white" stroke="#45413C" stroke-width="2.42" stroke-linecap="round" stroke-linejoin="round"/>
<path d="M59.6094 65.8339C59.6094 66.1872 59.7497 66.526 59.9995 66.7758C60.2493 67.0256 60.5881 67.1659 60.9414 67.1659C61.2946 67.1659 61.6334 67.0256 61.8832 66.7758C62.133 66.526 62.2733 66.1872 62.2733 65.8339C62.2733 65.4807 62.133 65.1419 61.8832 64.8921C61.6334 64.6423 61.2946 64.502 60.9414 64.502C60.5881 64.502 60.2493 64.6423 59.9995 64.8921C59.7497 65.1419 59.6094 65.4807 59.6094 65.8339Z" fill="#45413C"/>
<path d="M93.394 58.0398C93.1136 58.0398 92.8332 58.0398 92.5693 58.0728L82.2887 67.1905C82.1459 67.9075 82.074 68.6368 82.0742 69.3678C82.0742 71.6067 82.7381 73.7952 83.9819 75.6568C85.2258 77.5183 86.9937 78.9692 89.0621 79.826C91.1305 80.6827 93.4066 80.9069 95.6024 80.4701C97.7982 80.0333 99.8152 78.9552 101.398 77.3721C102.981 75.789 104.06 73.772 104.496 71.5762C104.933 69.3804 104.709 67.1044 103.852 65.0359C102.995 62.9675 101.544 61.1996 99.6829 59.9558C97.8214 58.7119 95.6328 58.048 93.394 58.048V58.0398Z" fill="white" stroke="#45413C" stroke-width="2.42" stroke-linecap="round" stroke-linejoin="round"/>
<path d="M92.7305 65.8339C92.7305 66.1872 92.8708 66.526 93.1206 66.7758C93.3704 67.0256 93.7092 67.1659 94.0624 67.1659C94.4157 67.1659 94.7545 67.0256 95.0043 66.7758C95.2541 66.526 95.3944 66.1872 95.3944 65.8339C95.3944 65.4807 95.2541 65.1419 95.0043 64.8921C94.7545 64.6423 94.4157 64.502 94.0624 64.502C93.7092 64.502 93.3704 64.6423 93.1206 64.8921C92.8708 65.1419 92.7305 65.4807 92.7305 65.8339Z" fill="#45413C"/>
<path d="M59.9787 55.8872L74.1728 68.473M95.0227 55.8872L80.8286 68.473M64.717 96.4694C67.0445 97.7189 69.5468 98.6114 72.1398 99.1168M83.7482 98.9849C86.2333 98.4804 88.634 97.6251 90.8783 96.4446M56.556 114.02C54.3663 122.944 54.2549 131.752 58.6179 132.14C67.5294 132.965 65.0386 109.896 69.3109 107.191M99.1794 114.614C101.241 123.332 101.241 131.74 96.9938 132.136C88.0782 132.961 90.5731 109.892 86.3008 107.187" stroke="#45413C" stroke-width="2.42" stroke-linecap="round" stroke-linejoin="round"/>
<path d="M48.9566 44.6705C48.7628 46.6293 51.101 48.3819 52.9649 47.751C54.9072 47.0912 55.5959 44.7819 59.0929 45.5324C59.1706 45.5467 59.2508 45.5383 59.3239 45.5084C59.397 45.4784 59.4599 45.428 59.5053 45.3633C59.5496 45.296 59.5732 45.2171 59.5732 45.1365C59.5732 45.0559 59.5496 44.977 59.5053 44.9097C58.565 43.3715 56.0207 41.5364 52.8124 41.4787C50.8783 41.4416 49.1463 42.7158 48.9566 44.6705ZM58.4826 22.2041C55.8392 23.2887 55.1835 27.4867 57.2454 29.4455C59.4104 31.5074 62.8455 30.8022 64.2559 35.8085C64.2878 35.9218 64.3523 36.0233 64.4413 36.1003C64.5304 36.1774 64.64 36.2266 64.7568 36.242C64.8735 36.2573 64.9922 36.2381 65.0981 36.1868C65.2041 36.1354 65.2926 36.054 65.3528 35.9528C66.6889 33.6971 67.3116 29.1857 65.2043 25.0248C63.9383 22.4763 61.1218 21.1196 58.4826 22.2041ZM108.063 46.3984C107.762 48.3407 105.061 49.4541 103.415 48.3819C101.696 47.2603 101.605 44.852 98.0296 44.7076C97.9478 44.7057 97.8683 44.6795 97.8014 44.6322C97.7344 44.585 97.6831 44.5189 97.6539 44.4424C97.6247 44.3658 97.619 44.2823 97.6374 44.2025C97.6559 44.1227 97.6977 44.0502 97.7575 43.9942C99.0523 42.7571 101.972 41.5942 105.094 42.3447C107.003 42.7901 108.364 44.4561 108.063 46.3984ZM96.0214 27.4042C98.3059 29.1115 97.9018 33.3425 95.4069 34.7239C92.7966 36.1673 89.6336 34.6456 87.0233 39.1405C86.9637 39.242 86.8757 39.3238 86.7702 39.3759C86.6647 39.4279 86.5462 39.4479 86.4294 39.4333C86.3147 39.4205 86.2062 39.3747 86.1169 39.3015C86.0276 39.2283 85.9614 39.1309 85.9263 39.0209C85.1923 36.5054 85.7119 31.9816 88.7841 28.4723C90.6687 26.3114 93.7327 25.697 96.0214 27.4042Z" fill="#4ACFFF" stroke="#009FD9" stroke-width="2.42" stroke-linecap="round" stroke-linejoin="round"/>
<path d="M93.1025 85.5786C93.1025 85.5786 93.6551 90.7911 91.4117 90.8571C89.556 90.9107 89.688 88.2178 89.688 88.2178M85.1477 91.8179C85.1477 91.8179 85.0116 93.2612 86.1745 93.2612C87.3374 93.2612 87.1148 90.4199 87.1148 90.4199M60.2153 85.7477C60.2153 85.7477 59.7081 90.5437 61.77 90.6055C63.4772 90.655 63.3618 88.1766 63.3618 88.1766M68.3021 92.8365C68.3021 92.8365 68.434 94.2757 67.2711 94.2757C66.1082 94.2757 66.3309 91.4344 66.3309 91.4344" stroke="#45413C" stroke-width="2.42" stroke-linecap="round" stroke-linejoin="round"/>
<path d="M75.3189 100.758C75.2676 100.623 75.253 100.476 75.2765 100.333C75.3001 100.19 75.3609 100.055 75.4529 99.9432C75.5449 99.8311 75.6648 99.7453 75.8006 99.6944C75.9363 99.6434 76.0831 99.6291 76.2261 99.653C77.5063 99.8513 78.8104 99.8373 80.086 99.6118C80.2276 99.589 80.3727 99.6036 80.5069 99.654C80.6411 99.7044 80.7599 99.7889 80.8515 99.8993C80.9431 100.01 81.0044 100.142 81.0292 100.283C81.0541 100.424 81.0417 100.57 80.9932 100.705C80.7784 101.28 80.394 101.778 79.8907 102.13C79.3875 102.483 78.7891 102.675 78.1745 102.681C77.5599 102.687 76.958 102.506 76.4482 102.163C75.9384 101.82 75.5446 101.33 75.3189 100.758Z" fill="#E0E0E0"/>
<path d="M99.0015 101.702C100.654 104.167 101.731 106.972 102.152 109.909M100.045 97.9209C101.995 100.158 103.415 102.807 104.197 105.669M56.0193 104.523C54.3659 106.987 53.289 109.792 52.8687 112.729M55.3636 100.742C53.4145 102.979 51.9951 105.628 51.2109 108.49" stroke="#8CA4B8" stroke-width="2.42" stroke-linecap="round" stroke-linejoin="round"/>
</svg>
