<svg width="155" height="155" viewBox="0 0 155 155" fill="none" xmlns="http://www.w3.org/2000/svg">
<path d="M4.94922 95.1705C4.94922 105.67 9.12012 115.739 16.5444 123.164C23.9686 130.588 34.0381 134.759 44.5375 134.759H110.452C115.651 134.759 120.799 133.735 125.602 131.745C130.405 129.756 134.769 126.84 138.445 123.164C142.121 119.488 145.037 115.123 147.027 110.32C149.016 105.517 150.04 100.369 150.04 95.1705C150.044 86.1689 146.685 77.4908 140.62 70.8388C134.555 64.1867 126.224 60.0411 117.26 59.2152C93.2848 56.9677 67.8328 56.0358 38.3766 58.6626C29.255 59.4796 20.7683 63.6774 14.5834 70.4316C8.39843 77.1857 4.96209 86.0082 4.94922 95.1663V95.1705Z" fill="#4ACFFF"/>
<path d="M110.099 43.087C110.099 43.087 117.864 36.3859 127.761 40.4973C137.658 44.6087 134.463 54.6584 139.18 56.1677C141.836 57.0254 145.906 57.6935 147.077 59.4956C148.438 61.6028 137.378 76.3041 126.194 68.1555C102.689 68.8359 137.526 120.688 69.2861 120.688C44.4197 120.688 29.0586 113.909 29.0586 101.03C29.0586 93.0137 36.1556 86.6342 53.191 84.3414C95.1628 78.7 93.9092 96.057 110.099 43.087Z" fill="#FFE500"/>
<path d="M63.5329 83.3105C62.7302 85.0876 61.3188 86.5194 59.5534 87.3477C40.9964 88.1724 43.8377 103.109 46.0687 103.109C48.2996 103.109 49.5491 95.2323 54.2255 94.82C56.2626 94.6426 58.2998 95.6777 58.9142 96.7086C56.6173 99.3561 56.0565 106.367 58.3534 107.191C60.6504 108.016 63.7143 100.16 70.234 101.138C72.3372 102.375 74.197 102.548 77.8012 102.028C81.4054 101.509 84.2219 95.8839 85.3353 91.1704C85.657 91.2364 96.4407 92.5271 99.5871 81.0795C112.808 75.1454 121.319 60.5843 117.95 44.5551C117.61 42.9432 117.144 41.3603 116.556 39.821C114.213 40.4722 112.022 41.5824 110.111 43.0871C95.3726 91.2859 95.0757 81.2651 63.5329 83.3105Z" fill="#EBCB00"/>
<path d="M110.099 43.087C110.099 43.087 117.864 36.3859 127.761 40.4973C137.658 44.6087 134.463 54.6584 139.18 56.1677C141.836 57.0254 145.906 57.6935 147.077 59.4956C148.438 61.6028 137.378 76.3041 126.194 68.1555C102.689 68.8359 137.526 120.688 69.2861 120.688C44.4197 120.688 29.0586 113.909 29.0586 101.03C29.0586 93.0137 36.1556 86.6342 53.191 84.3414C95.1628 78.7 93.9092 96.057 110.099 43.087Z" stroke="#45413C" stroke-width="2.42" stroke-linecap="round" stroke-linejoin="round"/>
<path d="M147.077 59.5079C145.906 57.7058 141.836 57.0336 139.184 56.18C138.124 55.8377 137.464 55.0665 136.965 54.0273C134.153 56.2377 136.174 56.4315 136.174 60.6048C136.174 62.8481 126.928 67.3183 127.827 69.1905C138.425 74.9102 148.372 61.512 147.077 59.5079Z" fill="#FF8A14" stroke="#45413C" stroke-width="2.42" stroke-linecap="round" stroke-linejoin="round"/>
<path d="M127.762 47.9407L129.565 50.8933C128.759 50.3211 127.763 50.0819 126.785 50.2253" fill="#FFE500"/>
<path d="M127.762 47.9407L129.565 50.8933C128.759 50.3211 127.763 50.0819 126.785 50.2253" stroke="#45413C" stroke-width="2.42" stroke-linecap="round" stroke-linejoin="round"/>
<path d="M95.8178 77.0876C92.6713 88.5352 81.8876 87.2444 81.566 87.1785C80.4649 91.892 78.2381 96.8281 73.772 98.9477C71.0627 98.9106 68.5802 98.4158 66.4771 97.1621C59.9367 96.1848 56.8934 104.057 54.5964 103.216C52.2995 102.375 52.8603 95.3477 55.1573 92.7208C54.5428 91.6899 52.5016 90.6589 50.4685 90.8321C45.7922 91.2445 44.5468 99.1168 42.3117 99.1168C40.0766 99.1168 37.2271 84.1764 55.7965 83.3557C56.9266 82.8171 57.9212 82.0311 58.7064 81.056C59.4916 80.0809 60.0474 78.9417 60.3326 77.7226C60.3326 77.7226 51.2603 73.5576 55.3552 65.0214C52.0281 59.8221 50.2673 53.7752 50.283 47.6025C50.283 27.4578 68.7122 11.6184 89.6321 16.0143C95.665 17.2931 101.197 20.2946 105.558 24.6549C109.919 29.0152 112.922 34.5471 114.202 40.5797C117.55 56.6089 109.039 71.1699 95.8178 77.0876Z" fill="white"/>
<path d="M114.174 40.5797C113.775 38.667 113.196 36.7962 112.446 34.9919C112.845 39.4613 112.308 43.9647 110.871 48.2154C109.434 52.4662 107.128 56.3712 104.099 59.6819C101.07 62.9926 97.3856 65.6365 93.2793 67.4454C89.1729 69.2542 84.735 70.1884 80.2479 70.1884C73.8509 70.1883 67.5977 68.2906 62.2794 64.7356C56.9612 61.1805 52.817 56.1279 50.3711 50.217C51.0328 58.3073 54.714 65.8526 60.6833 71.3536C66.6525 76.8545 74.4728 79.9083 82.5902 79.9082C102.735 79.9247 118.574 61.4996 114.174 40.5797Z" fill="#F0F0F0"/>
<path d="M82.1612 83.9413C81.3818 89.4218 79.2745 96.3456 73.7693 98.9642C71.06 98.9271 68.5774 98.4323 66.4743 97.1745C59.9381 96.2054 56.8865 104.074 54.5937 103.232C52.3009 102.391 52.8534 95.3642 55.1545 92.7332C54.5401 91.7064 52.4988 90.6713 50.4658 90.8486C45.7853 91.261 44.544 99.1333 42.3089 99.1333C40.0738 99.1333 37.2202 84.1929 55.7896 83.3722C55.7896 83.3722 60.4453 81.5578 60.6763 75.4381M82.59 79.9247C102.735 79.9247 118.574 61.4997 114.174 40.5797C112.896 34.5469 109.895 29.0147 105.534 24.6542C101.174 20.2937 95.6415 17.2924 89.6087 16.0143C68.6929 11.6143 50.2802 27.4578 50.2802 47.6025C50.2813 56.1753 53.6876 64.3966 59.7498 70.458C65.8121 76.5195 74.0338 79.9247 82.6065 79.9247H82.59Z" stroke="#45413C" stroke-width="2.42" stroke-linecap="round" stroke-linejoin="round"/>
<path d="M55.1557 92.7332C55.3949 92.3538 57.2176 88.6507 64.0095 89.0218M81.5562 87.1991C81.5562 87.1991 92.6244 88.7249 95.8162 77.1041M60.3476 77.735C60.3476 77.735 51.2752 73.5741 55.3702 65.042M73.787 98.9642C73.787 98.9642 85.28 99.4385 91.9852 95.4673" stroke="#45413C" stroke-width="2.42" stroke-linecap="round" stroke-linejoin="round"/>
<path d="M71.463 34.0757L81.9304 35.5095L81.4322 39.1459L70.9648 37.712L71.463 34.0757ZM117.088 46.984C117.049 47.2583 116.946 47.5194 116.786 47.7454C116.626 47.9715 116.414 48.1559 116.168 48.2831C115.922 48.4103 115.649 48.4767 115.372 48.4767C115.095 48.4767 114.822 48.4102 114.576 48.2829L102.51 42.0354L103.005 38.4024L116.176 45.219C116.491 45.3842 116.747 45.6421 116.91 45.9578C117.073 46.2736 117.135 46.6318 117.088 46.984Z" fill="#87898C" stroke="#45413C" stroke-width="2.42" stroke-linecap="round" stroke-linejoin="round"/>
<path d="M90.7385 52.5922C78.5568 50.9427 77.6744 38.9218 79.7156 36.3734C82.9363 32.3362 103.996 35.095 105.473 39.9033C106.879 44.5096 102.553 54.2087 90.7385 52.5922Z" fill="#525252"/>
<path d="M87.8088 51.9326L102.469 37.2725C101.488 36.817 100.475 36.4352 99.4378 36.1303L84.9221 50.6254C85.8307 51.1711 86.7993 51.6097 87.8088 51.9326ZM81.9447 48.1263L94.98 35.0869C92.9459 34.7351 90.8903 34.5215 88.8273 34.4478L79.5117 43.7634C80.026 45.3644 80.853 46.8474 81.9447 48.1263Z" fill="#656769"/>
<path d="M58.9432 48.2211C46.7656 46.5716 45.8832 34.5549 47.9203 32.0064C51.1451 27.9692 72.2012 30.728 73.6775 35.5364C75.0713 40.1385 70.7413 49.8706 58.9432 48.2211Z" fill="#525252"/>
<path d="M52.7947 46.0643C53.6731 46.6281 54.6141 47.0876 55.5989 47.4334L70.2919 32.7404C69.2927 32.3051 68.2648 31.9386 67.2156 31.6435L52.7947 46.0643ZM49.9039 43.487L62.733 30.6537C60.6774 30.3175 58.6009 30.1246 56.5185 30.0764L47.5781 39.0168C48.0483 40.6467 48.839 42.1665 49.9039 43.487Z" fill="#656769"/>
<path d="M58.9432 48.2211C46.7656 46.5716 45.8832 34.5549 47.9203 32.0064C51.1451 27.9692 72.2012 30.728 73.6775 35.5364C75.0713 40.1385 70.7413 49.8706 58.9432 48.2211ZM90.7417 52.5923C78.56 50.9428 77.6775 38.922 79.7188 36.3735C82.9395 32.3363 104 35.0951 105.476 39.9035C106.882 44.5097 102.556 54.2089 90.7417 52.5923Z" stroke="#45413C" stroke-width="2.42" stroke-linecap="round" stroke-linejoin="round"/>
<path d="M77.2328 53.0583C77.0817 53.7647 76.6711 54.3888 76.0822 54.8073C75.4933 55.2258 74.7689 55.4082 74.052 55.3186C73.3352 55.229 72.678 54.8738 72.2102 54.3233C71.7425 53.7727 71.4981 53.0668 71.5255 52.3449L71.8843 49.4912C72.6649 50.1488 73.6188 50.5667 74.6314 50.6947C75.6439 50.8228 76.6719 50.6554 77.5916 50.2129L77.2328 53.0583Z" fill="#FFB0CA" stroke="#45413C" stroke-width="2.42" stroke-linecap="round" stroke-linejoin="round"/>
<path d="M93.6859 123.971C93.3956 123.974 93.1145 123.87 92.8956 123.679C92.6766 123.489 92.535 123.225 92.4974 122.937C92.4599 122.649 92.529 122.358 92.6917 122.117C92.8544 121.877 93.0995 121.705 93.3807 121.633C102.865 119.13 109.538 114.886 113.798 108.655C113.886 108.527 113.999 108.417 114.129 108.332C114.26 108.247 114.406 108.188 114.56 108.16C114.713 108.131 114.871 108.133 115.023 108.165C115.176 108.198 115.321 108.26 115.449 108.348C115.578 108.436 115.688 108.549 115.773 108.68C115.858 108.811 115.916 108.957 115.945 109.11C115.973 109.264 115.971 109.421 115.939 109.574C115.907 109.726 115.845 109.871 115.756 110C111.162 116.717 104.041 121.274 93.991 123.93C93.8917 123.957 93.789 123.971 93.6859 123.971ZM26.4434 112.243C26.2296 112.243 26.0198 112.185 25.8361 112.075C25.6525 111.965 25.5018 111.808 25.4001 111.62C24.0513 109.121 23.3575 106.32 23.3836 103.48C23.3836 103.165 23.5087 102.863 23.7314 102.64C23.9542 102.417 24.2562 102.292 24.5712 102.292C24.8862 102.292 25.1883 102.417 25.411 102.64C25.6338 102.863 25.7589 103.165 25.7589 103.48C25.7325 105.925 26.327 108.337 27.4867 110.49C27.5843 110.671 27.6332 110.875 27.6289 111.08C27.6246 111.286 27.5671 111.487 27.4621 111.664C27.3571 111.841 27.208 111.987 27.0295 112.09C26.851 112.192 26.6491 112.246 26.4434 112.247V112.243ZM56.3986 125.987H56.2749C51.2077 125.508 46.2037 124.506 41.3427 122.998C41.1943 122.95 41.0568 122.873 40.9382 122.771C40.8196 122.67 40.722 122.546 40.6512 122.407C40.5081 122.127 40.4824 121.8 40.5798 121.501C40.6771 121.201 40.8895 120.952 41.1702 120.809C41.451 120.666 41.777 120.641 42.0767 120.738C46.7755 122.195 51.6122 123.162 56.5099 123.625C56.8095 123.66 57.0844 123.808 57.2789 124.038C57.4734 124.269 57.5728 124.565 57.5571 124.866C57.5413 125.167 57.4116 125.451 57.1941 125.66C56.9767 125.869 56.6878 125.988 56.3862 125.992L56.3986 125.987ZM70.6628 130.903C58.5801 130.903 48.3943 129.612 40.3241 127.064C40.0289 126.965 39.7845 126.753 39.6435 126.476C39.5025 126.198 39.4762 125.876 39.5703 125.579C39.6644 125.282 39.8713 125.034 40.1465 124.889C40.4217 124.743 40.7432 124.711 41.0416 124.8C48.8768 127.274 58.8234 128.511 70.6628 128.511C73.7144 128.511 76.6629 128.425 79.4382 128.251C79.7526 128.232 80.0618 128.339 80.2976 128.548C80.5335 128.756 80.6768 129.05 80.6959 129.365C80.7151 129.679 80.6085 129.988 80.3997 130.224C80.1909 130.46 79.8969 130.603 79.5825 130.623C76.7618 130.812 73.7597 130.903 70.6628 130.903ZM95.8178 128.326C95.5272 128.325 95.2469 128.218 95.0298 128.025C94.8128 127.832 94.6741 127.566 94.6401 127.277C94.606 126.989 94.679 126.697 94.8451 126.459C95.0112 126.221 95.259 126.051 95.5415 125.983C103.265 124.107 109.525 121.121 114.14 117.113C114.258 117.011 114.394 116.933 114.542 116.883C114.69 116.834 114.847 116.814 115.002 116.825C115.158 116.836 115.31 116.877 115.45 116.947C115.589 117.016 115.714 117.113 115.816 117.231C115.918 117.348 115.997 117.485 116.046 117.633C116.096 117.781 116.115 117.937 116.105 118.093C116.094 118.249 116.052 118.401 115.983 118.54C115.913 118.68 115.816 118.805 115.699 118.907C110.795 123.167 104.201 126.33 96.1024 128.293C96.009 128.314 95.9136 128.325 95.8178 128.326ZM29.7136 121.876C29.4647 121.878 29.2217 121.8 29.0208 121.653C25.3094 118.989 22.765 115.777 21.433 112.099C21.3789 111.952 21.3542 111.796 21.3603 111.64C21.3664 111.483 21.4033 111.33 21.4688 111.188C21.5342 111.046 21.6271 110.918 21.7419 110.812C21.8568 110.705 21.9914 110.623 22.1382 110.569C22.285 110.515 22.4409 110.49 22.5973 110.496C22.7536 110.502 22.9071 110.539 23.0492 110.604C23.1913 110.67 23.3191 110.763 23.4252 110.878C23.5314 110.992 23.614 111.127 23.6681 111.274C24.8352 114.49 27.1032 117.332 30.4064 119.711C30.6116 119.857 30.765 120.064 30.8443 120.303C30.9237 120.542 30.9248 120.8 30.8476 121.039C30.7703 121.279 30.6187 121.488 30.4148 121.635C30.2109 121.783 29.9653 121.861 29.7136 121.86V121.876Z" fill="#80DDFF"/>
<path d="M124.512 34.9631C126.877 35.1851 129.205 35.7047 131.44 36.5095M128.285 31.2476C131.376 31.8745 134.389 32.8426 137.267 34.1342" stroke="#45413C" stroke-width="2.42" stroke-linecap="round" stroke-linejoin="round"/>
<path d="M40.3848 102.461C41.7168 104.68 51.2881 110.42 61.3584 110.181C68.076 110.02 67.4781 116.754 58.6903 115.934C49.9025 115.113 36.3105 111.134 35.8486 105.171C35.3868 99.2076 39.0446 100.243 40.3848 102.461ZM90.3898 107.991C95.2023 107.208 98.225 105.154 100.114 102.973C102.002 100.791 106.427 105.488 98.0229 109.909C89.6187 114.329 87.1568 108.515 90.3898 107.991Z" fill="#FFF48C"/>
</svg>
