<svg width="155" height="155" viewBox="0 0 155 155" fill="none" xmlns="http://www.w3.org/2000/svg">
<path d="M78.9242 15.5772C75.9221 21.0329 73.6911 25.6145 70.1447 26.4434C67.1055 27.066 62.6064 23.0412 58.2311 20.6701C58.1921 20.6468 58.1548 20.6206 58.1197 20.5917C58.0931 20.5687 58.061 20.553 58.0265 20.5463C57.992 20.5395 57.9563 20.5419 57.923 20.5531C57.8896 20.5644 57.8598 20.5841 57.8365 20.6104C57.8131 20.6367 57.7971 20.6686 57.7898 20.703C57.064 24.9134 56.528 32.7775 50.9815 34.361C46.4453 35.7425 38.9771 32.4435 34.6348 30.7321L34.5564 30.6991C34.3997 30.6042 34.1441 30.728 34.2719 30.9878C35.5956 33.9363 37.7647 39.0209 36.6967 42.823C36.6949 42.8326 36.6949 42.8423 36.6967 42.8519C36.5396 43.4483 36.3125 44.0242 36.0204 44.5674L35.9915 44.6169C32.6925 49.8747 24.7212 49.1077 18.4984 47.9613H18.4696C18.4308 47.9411 18.3865 47.9341 18.3434 47.9413C18.3002 47.9484 18.2606 47.9694 18.2304 48.001C18.2002 48.0326 18.1811 48.0731 18.1759 48.1165C18.1706 48.1599 18.1796 48.2038 18.2015 48.2417C18.9067 49.2438 20.1067 50.7737 20.5768 51.4706C20.9356 52.0108 21.3108 52.5387 21.682 53.0624C22.7418 54.6542 24.515 57.9779 24.7047 59.7305V59.7635C24.9563 61.2027 24.8284 60.0357 24.8903 61.413V61.4172C24.9126 61.9502 24.857 62.4837 24.7253 63.0007V63.0461C24.6756 63.2977 24.5895 63.5408 24.4697 63.7677V63.809C24.3957 64.0551 24.2962 64.2928 24.1727 64.5182C24.1716 64.5265 24.1716 64.5348 24.1727 64.543C23.9098 65.0085 23.5898 65.4393 23.2202 65.8255C23.1961 65.8468 23.174 65.8703 23.1542 65.8956C21.3933 68.1967 16.1437 69.7431 14.7252 70.2544C14.692 70.2678 14.6574 70.2775 14.6221 70.2833C14.5823 70.2874 14.5448 70.3037 14.5147 70.33C14.4845 70.3563 14.4633 70.3913 14.4538 70.4301C14.4443 70.4689 14.4471 70.5098 14.4617 70.547C14.4763 70.5842 14.5021 70.616 14.5355 70.6379C17.7644 72.6297 25.7851 76.2999 22.515 82.1845C20.1727 86.399 13.5581 90.3331 9.2199 92.8445L9.15392 92.8775C9.11057 92.8907 9.07338 92.919 9.04909 92.9573C9.0248 92.9955 9.015 93.0412 9.02148 93.0861C9.02796 93.1309 9.05028 93.172 9.08441 93.2018C9.11854 93.2316 9.16221 93.2482 9.20753 93.2486C14.5685 93.4961 22.8696 93.3311 25.6408 96.1765C28.5027 99.3065 23.9377 106.395 22.0614 110.515C22.0316 110.578 21.9911 110.635 21.9418 110.684C20.5314 112.008 33.3111 107.595 36.0822 109.641C38.8534 111.686 34.0451 122.111 32.5523 131.521C32.5446 131.556 32.5349 131.591 32.5234 131.625C32.5125 131.665 32.515 131.708 32.5306 131.747C32.5461 131.786 32.5738 131.819 32.6096 131.84C32.6453 131.862 32.6872 131.872 32.7289 131.868C32.7706 131.864 32.8099 131.847 32.8409 131.818L32.911 131.761C37.0719 128.462 47.6866 117.843 52.5897 123.323C54.3011 125.022 55.662 128.775 56.2269 130.775L56.8991 132.891C56.9014 132.924 56.9014 132.957 56.8991 132.99C56.8991 133.15 57.13 133.258 57.3115 133.01C59.6167 129.711 63.9095 122.701 69.4478 124.474C73.9839 125.905 77.1757 132.647 79.0521 136.647C79.0681 136.68 79.0805 136.715 79.0892 136.75C79.1001 136.788 79.1218 136.821 79.1516 136.847C79.1815 136.872 79.2181 136.887 79.2569 136.892C79.2957 136.896 79.3349 136.889 79.3696 136.871C79.4044 136.853 79.433 136.826 79.4521 136.792C79.7613 136.231 79.8644 136.016 80.5572 134.631C80.5589 134.617 80.5589 134.603 80.5572 134.59C82.182 130.334 85.0934 128.35 87.5677 127.014C87.616 126.989 87.6673 126.97 87.7203 126.956C92.8626 125.794 95.3328 124.754 106.978 133.794C107.081 133.872 107.168 133.938 107.296 133.851C107.336 133.824 107.365 133.783 107.377 133.736C107.388 133.688 107.381 133.638 107.358 133.596C107.348 133.577 107.341 133.558 107.337 133.538C105.91 127.744 104.038 121.08 107.003 115.435C107.01 115.418 107.02 115.403 107.032 115.389C108.409 113.27 109.543 112.742 111.304 112.284H111.345C112.696 112.054 114.077 112.066 115.424 112.321H115.444C116.916 112.598 118.367 112.974 119.787 113.447C119.898 113.48 119.981 113.513 120.075 113.426C120.11 113.397 120.131 113.357 120.137 113.312C120.142 113.268 120.131 113.223 120.104 113.187C120.085 113.16 120.068 113.131 120.055 113.101C116.933 105.777 113.902 100.003 123.49 98.6384C127.919 98.0199 133.552 98.3786 136.769 98.391C136.88 98.391 136.966 98.391 137.024 98.2838C137.037 98.2618 137.045 98.2375 137.047 98.2124C137.05 98.1872 137.047 98.1618 137.04 98.1377C137.032 98.1136 137.019 98.0914 137.002 98.0726C136.985 98.0537 136.965 98.0386 136.942 98.0281C130.987 92.193 123.527 86.5887 127.243 82.5557C129.395 80.0402 134.954 77.6071 138.509 75.4834C138.542 75.4669 138.57 75.4423 138.591 75.412C138.612 75.3817 138.624 75.3467 138.628 75.3101C138.632 75.2735 138.626 75.2365 138.612 75.2027C138.597 75.1688 138.575 75.1391 138.546 75.1164C133.853 71.4338 126.822 67.574 127.238 63.5285C127.651 59.6852 135.544 54.6707 139.663 51.3263C139.704 51.3076 139.736 51.2757 139.756 51.2359C139.775 51.1961 139.78 51.1509 139.771 51.1077C139.747 51.0607 139.707 51.0241 139.659 51.005C139.61 50.986 139.556 50.9858 139.507 51.0046C133.548 51.2397 121.453 52.7985 120.125 46.8808C119.23 43.5076 121.531 38.1302 122.822 34.6291C122.867 34.5136 122.908 34.4311 122.822 34.3404C122.783 34.3059 122.733 34.2868 122.682 34.2868C122.63 34.2868 122.58 34.3059 122.541 34.3404C115.824 37.1198 105.91 41.8251 103.18 35.8002C102.442 34.2703 102.195 31.9981 102.129 30.3032C102.063 28.6083 102.092 26.7031 102.096 26.3031C102.092 26.2661 102.092 26.2288 102.096 26.1918C102.102 26.1566 102.098 26.1203 102.084 26.0874C102.07 26.0545 102.047 26.0263 102.017 26.0062C101.987 25.9862 101.953 25.9751 101.917 25.9744C101.881 25.9737 101.846 25.9833 101.815 26.0021C97.7782 28.2083 90.7801 33.2806 86.9367 31.062C82.9243 28.6826 80.7511 23.701 79.3572 15.6102C79.3508 15.5782 79.337 15.5481 79.317 15.5223C79.297 15.4965 79.2712 15.4758 79.2418 15.4617C79.2134 15.4479 79.1826 15.44 79.1511 15.4383C79.1196 15.4367 79.0881 15.4414 79.0585 15.4521C79.0289 15.4629 79.0017 15.4795 78.9787 15.501C78.9556 15.5225 78.9371 15.5484 78.9242 15.5772Z" fill="#FFE500"/>
<path d="M71.1839 97.9251C58.9445 101.793 48.635 101.657 38.3256 97.591C37.3338 97.2112 36.2322 97.2382 35.2603 97.6663C34.2884 98.0944 33.5249 98.8889 33.1357 99.877C32.7466 100.865 32.7633 101.967 33.1822 102.943C33.6012 103.919 34.3885 104.69 35.3729 105.088C45.5669 109.101 58.7548 109.261 69.0148 107.088" fill="#E0E0E0"/>
<path d="M71.1839 97.9251C58.9445 101.793 48.635 101.657 38.3256 97.591C37.3338 97.2112 36.2322 97.2382 35.2603 97.6663C34.2884 98.0944 33.5249 98.8889 33.1357 99.877C32.7466 100.865 32.7633 101.967 33.1822 102.943C33.6012 103.919 34.3885 104.69 35.3729 105.088C45.5669 109.101 58.7548 109.261 69.0148 107.088" stroke="#45413C" stroke-width="2.42" stroke-linecap="round" stroke-linejoin="round"/>
<path d="M95.7535 40.6251C88.566 38.0031 80.68 38.0244 73.5067 40.6851C66.3335 43.3459 60.3411 48.4724 56.6021 55.1474C52.8631 61.8224 51.6215 69.61 53.0994 77.1168C54.5773 84.6235 58.6782 91.3594 64.6684 96.1189C61.4478 102.049 59.3075 109.348 57.8394 117.563C57.8394 117.563 55.9714 116.004 54.6889 115.963C50.3135 115.818 49.1589 118.89 47.93 125.08C47.765 125.027 42.8825 121.472 41.4392 126.033C41.279 126.537 41.2196 127.067 41.2645 127.594C41.3095 128.121 41.4577 128.634 41.7009 129.103C41.9441 129.573 42.2774 129.99 42.6818 130.33C43.0862 130.671 43.5538 130.929 44.0578 131.089L47.4186 131.992C48.9609 132.482 50.862 132.157 51.695 130.755C52.8373 128.858 54.8909 125.88 56.9693 125.777C62.1241 128.693 71.0892 130.21 80.4749 131.571C81.2788 121.942 82.9727 112.409 85.5348 103.092C93.0338 102.9 100.231 100.097 105.884 95.1665C111.538 90.2361 115.294 83.4876 116.505 76.0845C117.716 68.6813 116.306 61.0877 112.517 54.613C108.729 48.1384 102.8 43.1885 95.7535 40.6169V40.6251Z" fill="white"/>
<path d="M95.7515 40.625C87.841 37.7394 79.115 38.0657 71.4421 41.5342C63.7692 45.0026 57.7593 51.3373 54.6992 59.182L104.09 77.7391C104.548 80.3536 107.43 91.3476 90.7617 102.544C97.6863 101.22 103.985 97.6607 108.693 92.4127C113.4 87.1646 116.256 80.5172 116.823 73.49C117.389 66.4628 115.635 59.4438 111.829 53.5095C108.022 47.5752 102.375 43.0533 95.7515 40.6374V40.625Z" fill="#E0E0E0"/>
<path d="M84.8928 89.5823C88.0093 92.0542 91.9801 93.1868 95.9317 92.731C99.8833 92.2752 103.492 90.2683 105.964 87.1518C108.436 84.0353 109.568 80.0645 109.112 76.1129C108.657 72.1614 106.65 68.5527 103.533 66.0808C101.99 64.8569 100.221 63.9489 98.327 63.4086C96.4329 62.8684 94.451 62.7065 92.4944 62.9322C90.5378 63.1579 88.6448 63.7667 86.9235 64.724C85.2022 65.6813 83.6863 66.9682 82.4623 68.5114C81.2384 70.0545 80.3303 71.8236 79.7901 73.7176C79.2498 75.6117 79.0879 77.5936 79.3136 79.5502C79.5393 81.5068 80.1482 83.3998 81.1055 85.1212C82.0628 86.8425 83.3497 88.3584 84.8928 89.5823Z" fill="#E0E0E0"/>
<path d="M71.1021 70.4895C72.4638 66.7523 72.2856 62.6273 70.6068 59.0214C68.928 55.4155 65.8859 52.6239 62.1493 51.2603C61.3443 50.9703 60.5167 50.7469 59.6751 50.5923C56.396 54.6513 54.1496 59.4447 53.1283 64.5618C52.107 69.679 52.3413 74.9674 53.811 79.9742C57.3528 80.7504 61.0558 80.2172 64.2347 78.4735C67.4136 76.7298 69.8532 73.8935 71.1021 70.4895Z" fill="#E0E0E0"/>
<path d="M95.7535 40.6251C88.566 38.0031 80.68 38.0244 73.5067 40.6851C66.3335 43.3459 60.3411 48.4724 56.6021 55.1474C52.8631 61.8224 51.6215 69.61 53.0994 77.1168C54.5773 84.6235 58.6782 91.3594 64.6684 96.1189C61.4478 102.049 59.3075 109.348 57.8394 117.563C57.8394 117.563 55.9714 116.004 54.6889 115.963C50.3135 115.818 49.1589 118.89 47.93 125.08C47.765 125.027 42.8825 121.472 41.4392 126.033C41.279 126.537 41.2196 127.067 41.2645 127.594C41.3095 128.121 41.4577 128.634 41.7009 129.103C41.9441 129.573 42.2774 129.99 42.6818 130.33C43.0862 130.671 43.5538 130.929 44.0578 131.089L47.4186 131.992C48.9609 132.482 50.862 132.157 51.695 130.755C52.8373 128.858 54.8909 125.88 56.9693 125.777C62.1241 128.693 71.0892 130.21 80.4749 131.571C81.2788 121.942 82.9727 112.409 85.5348 103.092C93.0338 102.9 100.231 100.097 105.884 95.1665C111.538 90.2361 115.294 83.4876 116.505 76.0845C117.716 68.6813 116.306 61.0877 112.517 54.613C108.729 48.1384 102.8 43.1885 95.7535 40.6169V40.6251Z" stroke="#45413C" stroke-width="2.42" stroke-linecap="round" stroke-linejoin="round"/>
<path d="M80.1327 127.546C81.3039 129.691 84.1039 128.008 86.3184 126.915C87.77 126.202 89.5432 126.952 90.5783 128.202L92.9123 130.779C93.2541 131.186 93.512 131.656 93.6712 132.163C93.8304 132.67 93.8876 133.203 93.8397 133.732C93.7918 134.261 93.6396 134.775 93.392 135.245C93.1444 135.715 92.8061 136.131 92.3969 136.47C88.7184 139.522 86.5328 133.893 86.4215 133.757C81.0606 136.829 77.6832 136.693 74.8749 134.054C72.9326 132.301 71.9099 129.072 72.8666 125.806M56.9694 125.785C56.9694 125.785 55.2993 124.961 54.957 124.264Z" fill="white"/>
<path d="M80.1327 127.546C81.3039 129.691 84.1039 128.008 86.3184 126.915C87.77 126.202 89.5432 126.952 90.5783 128.202L92.9123 130.779C93.2541 131.186 93.512 131.656 93.6712 132.163C93.8304 132.67 93.8876 133.203 93.8397 133.732C93.7918 134.261 93.6396 134.775 93.392 135.245C93.1444 135.715 92.8061 136.131 92.3969 136.47C88.7184 139.522 86.5328 133.893 86.4215 133.757C81.0606 136.829 77.6832 136.693 74.8749 134.054C72.9326 132.301 71.9099 129.072 72.8666 125.806M56.9694 125.785C56.9694 125.785 55.2993 124.961 54.957 124.264" stroke="#45413C" stroke-width="2.42" stroke-linecap="round" stroke-linejoin="round"/>
<path d="M92.5312 40.6251C92.5313 41.4793 92.8706 42.2985 93.4746 42.9025C94.0786 43.5064 94.8978 43.8458 95.7519 43.8458C96.6061 43.8458 97.4253 43.5064 98.0293 42.9025C98.6333 42.2985 98.9726 41.4793 98.9726 40.6251C98.9726 39.7709 98.6333 38.9517 98.0293 38.3477C97.4253 37.7437 96.6061 37.4044 95.7519 37.4044C94.8978 37.4044 94.0786 37.7437 93.4746 38.3477C92.8706 38.9517 92.5312 39.7709 92.5312 40.6251Z" fill="#FF512E" stroke="#45413C" stroke-width="2.42" stroke-linecap="round" stroke-linejoin="round"/>
<path d="M127.721 78.0031L116.785 74.0112C117.517 66.4824 115.578 58.9359 111.305 52.6935C107.033 46.4512 100.7 41.911 93.4171 39.8684C86.1337 37.8258 78.3639 38.411 71.4686 41.5214C64.5733 44.6318 58.9923 50.0692 55.7031 56.8811L112.331 77.5371L126.067 82.5475C126.66 82.7292 127.299 82.6765 127.854 82.4002C128.408 82.124 128.835 81.6453 129.047 81.0631C129.259 80.4808 129.239 79.8395 128.991 79.2716C128.744 78.7037 128.287 78.2525 127.717 78.0113L127.721 78.0031Z" fill="#FF866E"/>
<path d="M100.529 44.555C102.858 45.4037 105.092 46.4942 107.193 47.8087C103.533 44.2482 99.0795 41.6081 94.1992 40.1059C89.319 38.6037 84.1517 38.2823 79.1229 39.1682C74.0941 40.0541 69.3478 42.122 65.2747 45.2015C61.2016 48.281 57.9183 52.2841 55.6953 56.881L59.0356 58.0975C63.4373 51.5208 69.9189 46.6116 77.4422 44.1562C84.9655 41.7008 93.0951 41.8412 100.529 44.555Z" fill="#FFCABF"/>
<path d="M127.723 78.0031L116.786 74.0112C116.625 75.6416 116.34 77.2573 115.933 78.8443L126.069 82.5557C126.661 82.7374 127.301 82.6847 127.855 82.4085C128.41 82.1322 128.837 81.6535 129.049 81.0713C129.261 80.489 129.241 79.8477 128.993 79.2798C128.746 78.7119 128.289 78.2607 127.719 78.0196L127.723 78.0031ZM73.297 59.0089L84.2704 63.009C84.6706 63.1558 84.9964 63.4552 85.1764 63.8416C85.3565 64.228 85.3762 64.67 85.2313 65.0709L84.4065 67.339L72.0352 62.8028L73.297 59.0089Z" fill="#FF512E"/>
<path d="M73.2969 59.009C73.4891 58.3823 73.8068 57.8013 74.2307 57.3013C74.6545 56.8013 75.1756 56.3927 75.7623 56.1005C76.3491 55.8082 76.9891 55.6383 77.6435 55.6012C78.2979 55.564 78.9531 55.6604 79.5691 55.8844C80.1851 56.1084 80.7491 56.4553 81.2268 56.9042C81.7045 57.353 82.0859 57.8943 82.3478 58.4952C82.6098 59.0961 82.7467 59.7439 82.7504 60.3994C82.7541 61.0549 82.6244 61.7042 82.3692 62.308L73.2969 59.009Z" fill="#E0E0E0" stroke="#45413C" stroke-width="2.42" stroke-linecap="round" stroke-linejoin="round"/>
<path d="M81.0859 64.209C81.0859 64.3687 81.1494 64.5218 81.2623 64.6347C81.3752 64.7476 81.5283 64.8111 81.688 64.8111C81.8477 64.8111 82.0008 64.7476 82.1137 64.6347C82.2266 64.5218 82.2901 64.3687 82.2901 64.209C82.2901 64.0493 82.2266 63.8962 82.1137 63.7833C82.0008 63.6704 81.8477 63.6069 81.688 63.6069C81.5283 63.6069 81.3752 63.6704 81.2623 63.7833C81.1494 63.8962 81.0859 64.0493 81.0859 64.209Z" fill="#45413C"/>
<path d="M78.0586 63.1079C78.0586 63.187 78.0742 63.2653 78.1044 63.3383C78.1347 63.4114 78.179 63.4778 78.2349 63.5337C78.2908 63.5896 78.3572 63.6339 78.4303 63.6642C78.5033 63.6944 78.5816 63.71 78.6607 63.71C78.7397 63.71 78.818 63.6944 78.8911 63.6642C78.9641 63.6339 79.0305 63.5896 79.0864 63.5337C79.1423 63.4778 79.1867 63.4114 79.2169 63.3383C79.2472 63.2653 79.2627 63.187 79.2627 63.1079C79.2627 63.0289 79.2472 62.9506 79.2169 62.8775C79.1867 62.8045 79.1423 62.7381 79.0864 62.6822C79.0305 62.6263 78.9641 62.5819 78.8911 62.5517C78.818 62.5214 78.7397 62.5059 78.6607 62.5059C78.5816 62.5059 78.5033 62.5214 78.4303 62.5517C78.3572 62.5819 78.2908 62.6263 78.2349 62.6822C78.179 62.7381 78.1347 62.8045 78.1044 62.8775C78.0742 62.9506 78.0586 63.0289 78.0586 63.1079Z" fill="#45413C"/>
<path d="M75.0312 62.0027C75.0312 62.0818 75.0468 62.1601 75.0771 62.2331C75.1073 62.3062 75.1517 62.3725 75.2076 62.4284C75.2635 62.4843 75.3299 62.5287 75.4029 62.559C75.476 62.5892 75.5543 62.6048 75.6333 62.6048C75.7124 62.6048 75.7907 62.5892 75.8637 62.559C75.9368 62.5287 76.0031 62.4843 76.0591 62.4284C76.115 62.3725 76.1593 62.3062 76.1896 62.2331C76.2198 62.1601 76.2354 62.0818 76.2354 62.0027C76.2354 61.9236 76.2198 61.8454 76.1896 61.7723C76.1593 61.6993 76.115 61.6329 76.0591 61.577C76.0031 61.5211 75.9368 61.4767 75.8637 61.4465C75.7907 61.4162 75.7124 61.4006 75.6333 61.4006C75.5543 61.4006 75.476 61.4162 75.4029 61.4465C75.3299 61.4767 75.2635 61.5211 75.2076 61.577C75.1517 61.6329 75.1073 61.6993 75.0771 61.7723C75.0468 61.8454 75.0312 61.9236 75.0312 62.0027Z" fill="#45413C"/>
<path d="M116.484 76.2628C116.608 75.5287 116.707 74.7947 116.781 74.0607Z" fill="white"/>
<path d="M116.484 76.2628C116.608 75.5287 116.707 74.7947 116.781 74.0607" stroke="#45413C" stroke-width="2.42" stroke-linecap="round" stroke-linejoin="round"/>
<path d="M127.721 78.0031L116.785 74.0112C117.517 66.4824 115.578 58.9359 111.305 52.6935C107.033 46.4512 100.7 41.911 93.4171 39.8684C86.1337 37.8258 78.3639 38.411 71.4686 41.5214C64.5733 44.6318 58.9923 50.0692 55.7031 56.8811L112.331 77.5371L126.067 82.5475C126.66 82.7292 127.299 82.6765 127.854 82.4002C128.408 82.124 128.835 81.6453 129.047 81.0631C129.259 80.4808 129.239 79.8395 128.991 79.2716C128.744 78.7037 128.287 78.2525 127.717 78.0113L127.721 78.0031Z" stroke="#45413C" stroke-width="2.42" stroke-linecap="round" stroke-linejoin="round"/>
<path d="M82.375 62.3203L84.2678 63.009C84.668 63.1558 84.9938 63.4552 85.1738 63.8416C85.3539 64.228 85.3736 64.67 85.2287 65.0709L84.4039 67.339" stroke="#45413C" stroke-width="2.42" stroke-linecap="round" stroke-linejoin="round"/>
<path d="M67.0117 80.9351C68.2983 77.4175 71.0324 75.1618 73.1232 75.9412C75.2139 76.7206 75.8655 80.1763 74.5789 83.6939C73.5763 82.7367 72.3863 81.9974 71.084 81.5226C69.7817 81.0477 68.3951 80.8477 67.0117 80.9351Z" fill="#FFA694" stroke="#45413C" stroke-width="2.42" stroke-linecap="round" stroke-linejoin="round"/>
<path d="M44.4883 64.0317C44.4883 67.6627 45.9307 71.1451 48.4983 73.7126C51.0658 76.2802 54.5482 77.7226 58.1792 77.7226C61.8103 77.7226 65.2927 76.2802 67.8602 73.7126C70.4278 71.1451 71.8702 67.6627 71.8702 64.0317C71.8702 60.4006 70.4278 56.9182 67.8602 54.3507C65.2927 51.7831 61.8103 50.3407 58.1792 50.3407C54.5482 50.3407 51.0658 51.7831 48.4983 54.3507C45.9307 56.9182 44.4883 60.4006 44.4883 64.0317Z" fill="white" stroke="#45413C" stroke-width="2.42" stroke-linecap="round" stroke-linejoin="round"/>
<path d="M50.0781 63.2481C50.0781 63.6758 50.248 64.0859 50.5504 64.3883C50.8528 64.6907 51.2629 64.8605 51.6905 64.8605C52.1182 64.8605 52.5283 64.6907 52.8307 64.3883C53.133 64.0859 53.3029 63.6758 53.3029 63.2481C53.3029 62.8205 53.133 62.4104 52.8307 62.108C52.5283 61.8056 52.1182 61.6357 51.6905 61.6357C51.2629 61.6357 50.8528 61.8056 50.5504 62.108C50.248 62.4104 50.0781 62.8205 50.0781 63.2481Z" fill="#45413C"/>
<path d="M80.0469 77.005C80.0469 78.803 80.401 80.5833 81.089 82.2444C81.7771 83.9054 82.7855 85.4147 84.0569 86.686C85.3282 87.9573 86.8375 88.9658 88.4985 89.6539C90.1596 90.3419 91.9399 90.696 93.7378 90.696C95.5358 90.696 97.3161 90.3419 98.9771 89.6539C100.638 88.9658 102.147 87.9573 103.419 86.686C104.69 85.4147 105.699 83.9054 106.387 82.2444C107.075 80.5833 107.429 78.803 107.429 77.005C107.429 75.2071 107.075 73.4268 106.387 71.7657C105.699 70.1047 104.69 68.5954 103.419 67.3241C102.147 66.0528 100.638 65.0443 98.9771 64.3563C97.3161 63.6682 95.5358 63.3141 93.7378 63.3141C91.9399 63.3141 90.1596 63.6682 88.4985 64.3563C86.8375 65.0443 85.3282 66.0528 84.0569 67.3241C82.7855 68.5954 81.7771 70.1047 81.089 71.7657C80.401 73.4268 80.0469 75.2071 80.0469 77.005Z" fill="white" stroke="#45413C" stroke-width="2.42" stroke-linecap="round" stroke-linejoin="round"/>
<path d="M85.6367 76.2215C85.6367 76.6492 85.8066 77.0593 86.109 77.3617C86.4114 77.664 86.8215 77.8339 87.2491 77.8339C87.6768 77.8339 88.0869 77.664 88.3893 77.3617C88.6916 77.0593 88.8615 76.6492 88.8615 76.2215C88.8615 75.7939 88.6916 75.3838 88.3893 75.0814C88.0869 74.779 87.6768 74.6091 87.2491 74.6091C86.8215 74.6091 86.4114 74.779 86.109 75.0814C85.8066 75.3838 85.6367 75.7939 85.6367 76.2215Z" fill="#45413C"/>
<path d="M67.8335 77.4464C67.916 77.027 67.8285 76.592 67.5903 76.2371C67.3521 75.8821 66.9828 75.6363 66.5634 75.5536L51.557 72.6174L45.4414 103.863L60.4479 106.799C60.8672 106.881 61.3016 106.793 61.6562 106.555C62.0109 106.317 62.257 105.948 62.3407 105.529C61.9283 96.391 63.9778 87.0094 67.8335 77.4464Z" fill="#F0F0F0" stroke="#45413C" stroke-width="2.42" stroke-linecap="round" stroke-linejoin="round"/>
<path d="M55.4649 75.0257C55.5462 74.6064 55.4582 74.172 55.2202 73.8173C54.9822 73.4627 54.6136 73.2166 54.1948 73.1329L37.5017 69.8669C37.2942 69.8255 37.0806 69.8256 36.8732 69.8672C36.6658 69.9087 36.4686 69.9909 36.2931 70.1089C36.1175 70.227 35.9671 70.3786 35.8503 70.555C35.7336 70.7315 35.653 70.9292 35.613 71.137C32.0052 80.0614 30.1393 89.5939 30.116 99.22C30.0753 99.4277 30.0759 99.6414 30.118 99.8488C30.16 100.056 30.2426 100.253 30.361 100.429C30.4794 100.604 30.6312 100.755 30.8079 100.871C30.9845 100.988 31.1824 101.069 31.3902 101.109L48.0916 104.379C48.2993 104.42 48.513 104.419 48.7204 104.377C48.9279 104.335 49.125 104.252 49.3004 104.134C49.4759 104.015 49.6263 103.864 49.7429 103.687C49.8596 103.51 49.9402 103.312 49.9802 103.105C50.2093 93.5023 52.0637 84.0083 55.4649 75.0257Z" fill="white" stroke="#45413C" stroke-width="2.42" stroke-linecap="round" stroke-linejoin="round"/>
<path d="M34.8543 73.0463L44.6978 74.9721M31.4563 85.1826L37.1224 86.2919M30.2852 94.3621L39.0358 96.0776M64.3806 87.797L56.797 86.3125M48.1659 94.1435L56.1784 95.7106M48.2319 79.2732L57.399 81.067" stroke="#45413C" stroke-width="2.42" stroke-linecap="round" stroke-linejoin="round"/>
<path d="M39.2148 73.8999L41.7798 77.8464L44.6954 74.9721L39.2148 73.8999Z" fill="#F0F0F0" stroke="#45413C" stroke-width="2.42" stroke-linecap="round" stroke-linejoin="round"/>
<path d="M56.7907 86.3125L57.9659 90.3703L62.1681 87.3641L56.7907 86.3125ZM72.6796 105.179C60.0072 107.138 54.5143 106.799 44.9307 101.203C44.4732 100.917 43.9628 100.725 43.4297 100.639C42.8966 100.554 42.3518 100.576 41.8275 100.705C41.3032 100.834 40.8103 101.067 40.3779 101.391C39.9455 101.714 39.5825 102.121 39.3105 102.587C39.0384 103.054 38.8629 103.57 38.7943 104.105C38.7258 104.641 38.7655 105.185 38.9113 105.705C39.057 106.225 39.3058 106.71 39.6427 107.132C39.9797 107.553 40.398 107.903 40.8729 108.16C60.5928 119.674 88.7294 114.202 86.486 103.067" fill="white"/>
<path d="M72.6796 105.179C60.0072 107.138 54.5143 106.799 44.9307 101.203C44.4732 100.917 43.9628 100.725 43.4297 100.639C42.8966 100.554 42.3518 100.576 41.8275 100.705C41.3032 100.834 40.8103 101.067 40.3779 101.391C39.9455 101.714 39.5825 102.121 39.3105 102.587C39.0384 103.054 38.8629 103.57 38.7943 104.105C38.7258 104.641 38.7655 105.185 38.9113 105.705C39.057 106.225 39.3058 106.71 39.6427 107.132C39.9797 107.553 40.398 107.903 40.8729 108.16C60.5928 119.674 88.7294 114.202 86.486 103.067M56.7907 86.3125L57.9659 90.3703L62.1681 87.3641L56.7907 86.3125Z" stroke="#45413C" stroke-width="2.42" stroke-linecap="round" stroke-linejoin="round"/>
<path d="M88.7303 102.857C85.3774 103.281 81.9784 103.171 78.66 102.531M66.569 97.5167C65.9175 97.0714 65.2838 96.6054 64.668 96.1188" stroke="#45413C" stroke-width="2.42" stroke-linecap="round" stroke-linejoin="round"/>
<path d="M74.3906 27.5733L85.1125 43.3674C85.1125 43.3674 86.5146 37.9116 91.9662 35.4703C97.4178 33.0291 104.338 35.6765 108.461 34.4683L108.981 26.7485L100.593 14.9999C99.231 17.387 97.1314 19.2681 94.6095 20.3608C90.5229 22.0103 84.832 19.9154 81.1701 21.9196C77.5082 23.9237 74.3906 27.5733 74.3906 27.5733Z" fill="white" stroke="#45413C" stroke-width="2.42" stroke-linecap="round" stroke-linejoin="round"/>
<path d="M108.429 34.4683C108.429 34.4683 104.054 33.2311 104.074 29.1857C108.095 29.0331 108.949 26.7485 108.949 26.7485L108.429 34.4683ZM110.491 104.119L119.938 114.173C119.938 114.173 131.522 115.026 131.609 107.191C131.695 99.356 122.149 97.3807 122.149 97.3807C122.706 98.0652 123.015 98.9178 123.027 99.8002C123.039 100.683 122.753 101.543 122.215 102.243C120.334 104.89 110.491 104.119 110.491 104.119Z" fill="#F0F0F0" stroke="#45413C" stroke-width="2.42" stroke-linecap="round" stroke-linejoin="round"/>
<path d="M131.525 105.645C131.525 105.587 131.496 105.447 131.447 105.232C130.123 98.989 122.172 97.3684 122.172 97.3684C122.172 97.3684 117.071 95.8797 115.871 98.7498L125.904 107.624C125.904 107.624 128.313 101.129 131.525 105.67V105.645Z" fill="white" stroke="#45413C" stroke-width="2.42" stroke-linecap="round" stroke-linejoin="round"/>
<path d="M67.9063 98.8199C67.9101 98.7901 67.9221 98.7619 67.9411 98.7386C67.96 98.7153 67.9851 98.6977 68.0135 98.688C68.0416 98.6772 68.0723 98.675 68.1016 98.6816C68.131 98.6882 68.1577 98.7033 68.1785 98.7251C69.2301 99.7478 71.4528 100.659 73.5394 101.1C73.5715 101.108 73.6005 101.125 73.6226 101.149C73.6448 101.173 73.6589 101.204 73.6631 101.236C73.6689 101.269 73.6645 101.302 73.6505 101.332C73.6364 101.361 73.6134 101.386 73.5848 101.401C72.793 101.839 70.8713 102.729 69.2342 102.082C67.7579 101.504 67.8156 99.5993 67.9063 98.8199Z" fill="#E0E0E0"/>
</svg>
