<svg width="155" height="155" viewBox="0 0 155 155" fill="none" xmlns="http://www.w3.org/2000/svg">
<path d="M149.315 93.7147C149.315 135.542 118.321 137.089 80.089 137.089C41.8574 137.089 10.8672 135.542 10.8672 93.7147C10.8672 51.8872 41.8574 17.9814 80.089 17.9814C118.321 17.9814 149.315 51.8913 149.315 93.7147Z" fill="#FFE9BD"/>
<path d="M121.907 108.486C129.106 102.656 134.184 94.6179 136.358 85.6131C138.531 76.6083 137.679 67.1383 133.932 58.6665C130.184 50.1948 123.752 43.1929 115.627 38.7429C107.503 34.2928 98.1386 32.6424 88.9822 34.0466C79.8259 35.4508 71.3868 39.8314 64.9691 46.5116C58.5515 53.1917 54.5125 61.7995 53.4763 71.0048C52.4401 80.2101 54.4644 89.5004 59.2363 97.4401C64.0083 105.38 71.2623 111.527 79.8774 114.932C65.0318 117.954 51.6501 121.311 51.2666 123.662C50.3923 129.023 55.1924 130.854 55.1924 130.854H81.5434L79.7248 136.334H124.736C136.093 129.352 133.4 113.884 121.907 108.486Z" fill="white"/>
<path d="M112.762 79.9454C112.762 84.7699 114.454 89.4415 117.543 93.1471C120.633 96.8527 124.924 99.3578 129.669 100.226C133.854 94.3693 136.471 87.54 137.274 80.3867C138.077 73.2335 137.037 65.9939 134.255 59.3553H133.381C127.917 59.3553 122.677 61.5237 118.811 65.3843C114.945 69.2448 112.769 74.4819 112.762 79.9454Z" fill="#E0E0E0"/>
<path d="M58.4883 79.9455C58.4883 85.4139 60.6606 90.6584 64.5274 94.5252C68.3942 98.392 73.6387 100.564 79.1072 100.564C84.5757 100.564 89.8202 98.392 93.687 94.5252C97.5538 90.6584 99.7261 85.4139 99.7261 79.9455C99.7261 74.477 97.5538 69.2325 93.687 65.3657C89.8202 61.4989 84.5757 59.3265 79.1072 59.3265C73.6387 59.3265 68.3942 61.4989 64.5274 65.3657C60.6606 69.2325 58.4883 74.477 58.4883 79.9455Z" fill="#E0E0E0"/>
<path d="M95.3819 33.5405C86.0432 33.542 76.9691 36.6436 69.5834 42.3588C62.1977 48.074 56.9183 56.0795 54.5735 65.119C52.2286 74.1586 52.9511 83.7209 56.6275 92.3056C60.3039 100.89 66.7262 108.012 74.8867 112.552C62.3381 89.8013 67.6784 77.0877 67.6784 77.0877H137.527C137.527 76.6341 137.548 76.1805 137.548 75.7227C137.55 70.184 136.461 64.6992 134.343 59.5815C132.225 54.4639 129.119 49.8136 125.203 45.8964C121.288 41.9792 116.639 38.8718 111.522 36.7518C106.405 34.6317 100.921 33.5405 95.3819 33.5405Z" fill="#E0E0E0"/>
<path d="M124.736 136.351C136.093 129.34 133.396 113.884 121.907 108.486C129.106 102.656 134.184 94.6179 136.358 85.6131C138.531 76.6083 137.679 67.1383 133.932 58.6665C130.184 50.1948 123.752 43.1929 115.627 38.7429C107.503 34.2928 98.1386 32.6424 88.9822 34.0466C79.8259 35.4508 71.3868 39.8314 64.9691 46.5116C58.5515 53.1917 54.5125 61.7995 53.4763 71.0048C52.4401 80.2101 54.4644 89.5004 59.2363 97.4401C64.0083 105.38 71.2623 111.527 79.8774 114.932C65.0318 117.954 51.6501 121.311 51.2666 123.662C50.3923 129.023 55.1924 130.854 55.1924 130.854H81.5434L79.7248 136.334" stroke="#45413C" stroke-width="2.42" stroke-linecap="round" stroke-linejoin="round"/>
<path d="M91.1641 33.5405C91.1641 34.0945 91.2732 34.6431 91.4852 35.1549C91.6972 35.6668 92.0079 36.1318 92.3997 36.5236C92.7914 36.9153 93.2565 37.226 93.7683 37.438C94.2801 37.65 94.8287 37.7592 95.3827 37.7592C95.9367 37.7592 96.4853 37.65 96.9971 37.438C97.5089 37.226 97.974 36.9153 98.3657 36.5236C98.7575 36.1318 99.0682 35.6668 99.2802 35.1549C99.4922 34.6431 99.6013 34.0945 99.6013 33.5405C99.6013 32.9865 99.4922 32.438 99.2802 31.9261C99.0682 31.4143 98.7575 30.9492 98.3657 30.5575C97.974 30.1658 97.5089 29.855 96.9971 29.643C96.4853 29.431 95.9367 29.3219 95.3827 29.3219C94.8287 29.3219 94.2801 29.431 93.7683 29.643C93.2565 29.855 92.7914 30.1658 92.3997 30.5575C92.0079 30.9492 91.6972 31.4143 91.4852 31.9261C91.2732 32.438 91.1641 32.9865 91.1641 33.5405Z" fill="#FF512E" stroke="#45413C" stroke-width="2.42" stroke-linecap="round" stroke-linejoin="round"/>
<path d="M39.3036 65.1657H54.5616C57.0369 55.5786 62.8065 47.1681 70.8598 41.4075C78.913 35.6468 88.7364 32.9033 98.6092 33.6576C108.482 34.4119 117.775 38.6159 124.859 45.5331C131.944 52.4503 136.369 61.6397 137.359 71.4916H39.3036C38.4647 71.4916 37.6602 71.1584 37.067 70.5652C36.4739 69.9721 36.1406 69.1676 36.1406 68.3287C36.1406 67.4898 36.4739 66.6853 37.067 66.0922C37.6602 65.499 38.4647 65.1657 39.3036 65.1657Z" fill="#FF866E"/>
<path d="M113.921 71.4916V68.3287C113.922 68.0516 113.868 67.7771 113.762 67.521C113.657 67.2648 113.501 67.0321 113.306 66.8359C113.11 66.6398 112.878 66.4842 112.622 66.3781C112.366 66.2719 112.091 66.2173 111.814 66.2173H96.5273V71.4916H113.921Z" fill="#FF512E"/>
<path d="M58.4349 71.4917H60.5421C63.4595 61.5943 69.2768 52.7985 77.2429 46.2401C85.209 39.6817 94.9581 35.6618 105.232 34.6993C94.4757 32.1256 83.1393 33.8755 73.6602 39.5729C64.1811 45.2702 57.3163 54.4599 54.542 65.1658H39.284C38.4452 65.1658 37.6407 65.4991 37.0475 66.0922C36.4543 66.6854 36.1211 67.4899 36.1211 68.3288C36.1211 69.1676 36.4543 69.9721 37.0475 70.5653C37.6407 71.1585 38.4452 71.4917 39.284 71.4917H58.4349Z" fill="#FFCABF"/>
<path d="M54.542 65.1658H39.284C38.4452 65.1658 37.6407 65.499 37.0475 66.0922C36.4543 66.6853 36.1211 67.4899 36.1211 68.3287C36.1211 69.1676 36.4543 69.9721 37.0475 70.5653C37.6407 71.1584 38.4452 71.4917 39.284 71.4917H53.4039C53.6191 69.3568 53.9996 67.2418 54.542 65.1658Z" fill="#FF512E"/>
<path d="M39.3036 65.1657H54.5616C57.0369 55.5786 62.8065 47.1681 70.8598 41.4075C78.913 35.6468 88.7364 32.9033 98.6092 33.6576C108.482 34.4119 117.775 38.6159 124.859 45.5331C131.944 52.4503 136.369 61.6397 137.359 71.4916H39.3036C38.4647 71.4916 37.6602 71.1584 37.067 70.5652C36.4739 69.9721 36.1406 69.1676 36.1406 68.3287C36.1406 67.4898 36.4739 66.6853 37.067 66.0922C37.6602 65.499 38.4647 65.1657 39.3036 65.1657Z" stroke="#45413C" stroke-width="2.42" stroke-linecap="round" stroke-linejoin="round"/>
<path d="M96.5273 66.2174C96.5273 64.5396 97.1938 62.9306 98.3801 61.7443C99.5665 60.558 101.175 59.8915 102.853 59.8915C104.531 59.8915 106.14 60.558 107.326 61.7443C108.513 62.9306 109.179 64.5396 109.179 66.2174H96.5273Z" fill="#E0E0E0" stroke="#45413C" stroke-width="2.42" stroke-linecap="round" stroke-linejoin="round"/>
<path d="M53.9023 68.0648C54.081 67.1026 54.2886 66.1541 54.525 65.2194Z" fill="white"/>
<path d="M53.9023 68.0648C54.081 67.1026 54.2886 66.1541 54.525 65.2194" stroke="#45413C" stroke-width="2.42" stroke-linecap="round" stroke-linejoin="round"/>
<path d="M109.178 66.2173H111.813C112.09 66.2173 112.365 66.2719 112.62 66.3781C112.876 66.4842 113.109 66.6398 113.305 66.8359C113.5 67.0321 113.656 67.2648 113.761 67.521C113.867 67.7771 113.921 68.0516 113.92 68.3287V71.4916M99.9531 89.7393L101.269 87.1208C101.269 89.1373 103.632 90.7744 106.543 90.7744C109.454 90.7744 111.813 89.1249 111.813 87.1208L113.166 89.9208" stroke="#45413C" stroke-width="2.42" stroke-linecap="round" stroke-linejoin="round"/>
<path d="M113.168 79.1825C113.168 81.536 113.632 83.8665 114.532 86.0409C115.433 88.2153 116.753 90.191 118.417 91.8552C120.081 93.5194 122.057 94.8395 124.231 95.7402C126.406 96.6409 128.736 97.1044 131.09 97.1044C133.443 97.1044 135.774 96.6409 137.948 95.7402C140.123 94.8395 142.098 93.5194 143.763 91.8552C145.427 90.191 146.747 88.2153 147.648 86.0409C148.548 83.8665 149.012 81.536 149.012 79.1825C149.012 74.4293 147.124 69.8707 143.763 66.5097C140.402 63.1487 135.843 61.2605 131.09 61.2605C126.337 61.2605 121.778 63.1487 118.417 66.5097C115.056 69.8707 113.168 74.4293 113.168 79.1825Z" fill="white" stroke="#45413C" stroke-width="2.42" stroke-linecap="round" stroke-linejoin="round"/>
<path d="M137.918 79.1826C137.918 79.7414 138.14 80.2774 138.535 80.6726C138.93 81.0678 139.466 81.2898 140.025 81.2898C140.584 81.2898 141.12 81.0678 141.515 80.6726C141.91 80.2774 142.132 79.7414 142.132 79.1826C142.132 78.6237 141.91 78.0877 141.515 77.6925C141.12 77.2973 140.584 77.0753 140.025 77.0753C139.466 77.0753 138.93 77.2973 138.535 77.6925C138.14 78.0877 137.918 78.6237 137.918 79.1826Z" fill="#45413C"/>
<path d="M63.6211 79.1825C63.6211 81.536 64.0847 83.8665 64.9853 86.0409C65.886 88.2153 67.2061 90.191 68.8703 91.8552C70.5345 93.5194 72.5102 94.8395 74.6846 95.7402C76.859 96.6409 79.1895 97.1044 81.5431 97.1044C83.8966 97.1044 86.2271 96.6409 88.4015 95.7402C90.5759 94.8395 92.5516 93.5194 94.2158 91.8552C95.88 90.191 97.2001 88.2153 98.1008 86.0409C99.0015 83.8665 99.465 81.536 99.465 79.1825C99.465 74.4293 97.5768 69.8707 94.2158 66.5097C90.8548 63.1487 86.2963 61.2605 81.5431 61.2605C76.7899 61.2605 72.2313 63.1487 68.8703 66.5097C65.5093 69.8707 63.6211 74.4293 63.6211 79.1825Z" fill="white" stroke="#45413C" stroke-width="2.42" stroke-linecap="round" stroke-linejoin="round"/>
<path d="M88.3711 79.1826C88.3711 79.7414 88.5931 80.2774 88.9883 80.6726C89.3835 81.0678 89.9195 81.2898 90.4783 81.2898C91.0372 81.2898 91.5732 81.0678 91.9684 80.6726C92.3636 80.2774 92.5856 79.7414 92.5856 79.1826C92.5856 78.6237 92.3636 78.0877 91.9684 77.6925C91.5732 77.2973 91.0372 77.0753 90.4783 77.0753C89.9195 77.0753 89.3835 77.2973 88.9883 77.6925C88.5931 78.0877 88.3711 78.6237 88.3711 79.1826Z" fill="#45413C"/>
<path d="M13.7852 136.35H118.946M111.181 114.816C115.049 113.249 118.662 111.116 121.903 108.486M79.8729 114.932C81.1595 115.44 82.4736 115.886 83.8153 116.268" stroke="#45413C" stroke-width="2.42" stroke-linecap="round" stroke-linejoin="round"/>
<path d="M92.1196 118.552C92.0728 118.456 92.0523 118.348 92.0603 118.241C92.0682 118.134 92.1044 118.031 92.165 117.942C92.2257 117.852 92.3094 117.78 92.4073 117.734C92.5052 117.688 92.6138 117.668 92.7217 117.678C96.7723 117.948 100.84 117.538 104.755 116.466C104.861 116.434 104.974 116.432 105.082 116.461C105.189 116.489 105.287 116.546 105.364 116.626C105.441 116.706 105.494 116.806 105.519 116.914C105.543 117.023 105.537 117.136 105.501 117.241C104.846 119.282 103.027 123.505 99.2043 123.839C95.3815 124.173 93.0227 120.387 92.1196 118.552Z" fill="#E0E0E0"/>
<path d="M40.9057 131.522C40.9491 131.335 41.0541 131.169 41.2037 131.049C41.3533 130.929 41.5388 130.863 41.7304 130.862H79.9166V136.342H40.852C40.7238 136.342 40.5972 136.313 40.4818 136.257C40.3665 136.201 40.2653 136.119 40.186 136.018C40.1066 135.918 40.0511 135.8 40.0236 135.675C39.9961 135.55 39.9974 135.42 40.0273 135.295L40.9057 131.522Z" fill="#BDBEC0" stroke="#45413C" stroke-width="2.42" stroke-linecap="round" stroke-linejoin="round"/>
<path d="M72.4216 131.522C72.4664 131.336 72.5717 131.17 72.721 131.051C72.8704 130.931 73.0551 130.865 73.2463 130.862H85.2053C85.3969 130.863 85.5824 130.929 85.732 131.049C85.8816 131.169 85.9866 131.335 86.0301 131.522L86.9126 135.295C86.9424 135.42 86.9437 135.55 86.9162 135.675C86.8887 135.8 86.8332 135.918 86.7539 136.018C86.6745 136.119 86.5734 136.201 86.458 136.257C86.3426 136.313 86.2161 136.342 86.0878 136.342H71.3164L72.4216 131.522Z" fill="#87898C" stroke="#45413C" stroke-width="2.42" stroke-linecap="round" stroke-linejoin="round"/>
<path d="M43.2717 136.351H27.9106C27.7339 136.351 27.5597 136.309 27.4025 136.228C27.2453 136.147 27.1095 136.031 27.0063 135.887C26.9032 135.744 26.8357 135.578 26.8093 135.403C26.783 135.228 26.7986 135.05 26.8549 134.882L28.3271 130.528C28.4018 130.308 28.5434 130.117 28.7319 129.982C28.9205 129.847 29.1466 129.774 29.3786 129.773H43.2717V136.351Z" fill="#BDBEC0" stroke="#45413C" stroke-width="2.42" stroke-linecap="round" stroke-linejoin="round"/>
<path d="M76.5182 123.662C76.5182 124.251 76.284 124.817 75.8672 125.233C75.4504 125.65 74.885 125.884 74.2955 125.884H64.4727V79.4795H74.2955C74.885 79.4795 75.4504 79.7137 75.8672 80.1305C76.284 80.5473 76.5182 81.1127 76.5182 81.7022V123.662Z" fill="#87898C" stroke="#45413C" stroke-width="2.42" stroke-linecap="round" stroke-linejoin="round"/>
<path d="M11.3673 79.4795H68.8363C68.8363 79.4795 71.059 79.4795 71.059 81.7022V123.658C71.059 123.658 71.059 125.88 68.8363 125.88H11.3673C11.3673 125.88 9.14453 125.88 9.14453 123.658V81.7022C9.14453 81.7022 9.14453 79.4795 11.3673 79.4795Z" fill="#F0F0F0"/>
<path d="M71.059 83.6858V81.7105C71.0601 81.1206 70.8271 80.5544 70.4112 80.1361C69.9952 79.7178 69.4303 79.4817 68.8404 79.4795H11.3673C10.7781 79.4806 10.2134 79.7151 9.79675 80.1317C9.38015 80.5483 9.14562 81.113 9.14453 81.7022V83.6858H71.059Z" fill="white"/>
<path d="M11.3673 79.4795H68.8363C68.8363 79.4795 71.059 79.4795 71.059 81.7022V123.658C71.059 123.658 71.059 125.88 68.8363 125.88H11.3673C11.3673 125.88 9.14453 125.88 9.14453 123.658V81.7022C9.14453 81.7022 9.14453 79.4795 11.3673 79.4795Z" stroke="#45413C" stroke-width="2.42" stroke-linecap="round" stroke-linejoin="round"/>
<path d="M45.8797 129.773L44.288 106.866C44.2127 105.74 43.7125 104.685 42.8887 103.914C42.065 103.143 40.979 102.714 39.8508 102.713H37.0878C35.9646 102.713 34.8831 103.138 34.0607 103.903C33.2384 104.668 32.736 105.716 32.6548 106.837L30.7578 133.996C30.7399 134.297 30.7836 134.599 30.8862 134.883C30.9888 135.167 31.1482 135.427 31.3546 135.648C31.5611 135.868 31.8103 136.044 32.087 136.165C32.3637 136.286 32.6621 136.349 32.9641 136.351H59.2655C59.4487 136.353 59.6295 136.309 59.7919 136.225C59.9542 136.14 60.093 136.016 60.1959 135.865C60.2989 135.713 60.3626 135.539 60.3816 135.356C60.4006 135.174 60.3742 134.99 60.3047 134.821L58.9851 130.466C58.9028 130.261 58.7609 130.086 58.5779 129.962C58.3949 129.839 58.1791 129.773 57.9583 129.773H45.8797Z" fill="#E0E0E0" stroke="#45413C" stroke-width="2.42" stroke-linecap="round" stroke-linejoin="round"/>
<path d="M45.8789 129.773L46.015 131.802M51.2646 129.773L52.6584 136.351" stroke="#45413C" stroke-width="2.42" stroke-linecap="round" stroke-linejoin="round"/>
<path d="M35.0273 120.326C35.0273 121.209 35.3784 122.057 36.0033 122.682C36.6281 123.307 37.4757 123.658 38.3594 123.658C39.2431 123.658 40.0906 123.307 40.7155 122.682C41.3403 122.057 41.6914 121.209 41.6914 120.326C41.6914 119.442 41.3403 118.594 40.7155 117.969C40.0906 117.345 39.2431 116.994 38.3594 116.994C37.4757 116.994 36.6281 117.345 36.0033 117.969C35.3784 118.594 35.0273 119.442 35.0273 120.326Z" fill="white" stroke="#45413C" stroke-width="2.42" stroke-linecap="round" stroke-linejoin="round"/>
<path d="M13.7852 121.117V116.523M17.4141 121.117V116.523M21.043 121.117V116.523" stroke="#45413C" stroke-width="2.42" stroke-linecap="round" stroke-linejoin="round"/>
<path d="M110.244 108.573C110.319 108.258 110.268 107.926 110.102 107.649C109.935 107.371 109.666 107.17 109.353 107.088L106.467 106.362C106.152 106.287 105.821 106.338 105.544 106.503C105.266 106.669 105.065 106.937 104.982 107.249L99.6211 128.449L104.871 129.773L110.244 108.573Z" fill="#525252" stroke="#45413C" stroke-width="2.42" stroke-linecap="round" stroke-linejoin="round"/>
<path d="M116.551 124.606C111.965 127.666 94.5671 122.569 92.5835 129.773C90.4763 137.427 98.728 139.864 110.052 139.864C122.168 139.864 128.827 134.915 131.104 128.837" fill="white"/>
<path d="M116.551 124.606C111.965 127.666 94.5671 122.569 92.5835 129.773C90.4763 137.427 98.728 139.864 110.052 139.864C122.168 139.864 128.827 134.915 131.104 128.837" stroke="#45413C" stroke-width="2.42" stroke-linecap="round" stroke-linejoin="round"/>
</svg>
