<svg width="24" height="24" viewBox="0 0 24 24" fill="none" xmlns="http://www.w3.org/2000/svg">
<path fill-rule="evenodd" clip-rule="evenodd" d="M9.02975 3.3437C10.9834 2.88543 13.0166 2.88543 14.9703 3.3437C17.7916 4.00549 19.9945 6.20842 20.6563 9.02975C21.1146 10.9834 21.1146 13.0166 20.6563 14.9703C19.9945 17.7916 17.7916 19.9945 14.9703 20.6563C13.0166 21.1146 10.9834 21.1146 9.02975 20.6563C6.20842 19.9945 4.0055 17.7916 3.3437 14.9703C2.88543 13.0166 2.88543 10.9834 3.3437 9.02974C4.0055 6.20841 6.20842 4.00549 9.02975 3.3437ZM13.3634 10.0129C13.5877 9.78859 13.5877 9.42492 13.3634 9.20062C13.1391 8.97631 12.7754 8.97631 12.5511 9.20062L10.1579 11.5938C10.0502 11.7015 9.98967 11.8476 9.98967 12C9.98967 12.1523 10.0502 12.2984 10.1579 12.4061L12.5511 14.7993C12.7754 15.0236 13.1391 15.0236 13.3634 14.7993C13.5877 14.575 13.5877 14.2114 13.3634 13.987L11.3763 12L13.3634 10.0129Z" fill="#363853"/>
</svg>
