<svg width="24" height="24" viewBox="0 0 24 24" fill="none" xmlns="http://www.w3.org/2000/svg">
<path fill-rule="evenodd" clip-rule="evenodd" d="M3.3437 9.02975C2.88543 10.9834 2.88543 13.0166 3.3437 14.9703C4.00549 17.7916 6.20841 19.9945 9.02975 20.6563C10.9834 21.1146 13.0166 21.1146 14.9703 20.6563C17.7916 19.9945 19.9945 17.7916 20.6563 14.9703C21.1146 13.0166 21.1146 10.9834 20.6563 9.02975C19.9945 6.20842 17.7916 4.00549 14.9703 3.3437C13.0166 2.88543 10.9834 2.88544 9.02975 3.3437C6.20842 4.00549 4.00549 6.20841 3.3437 9.02975ZM11.467 14.8175C11.2327 15.0518 10.8528 15.0518 10.6184 14.8175L8.22523 12.4243C8.11271 12.3117 8.0495 12.1591 8.0495 12C8.0495 11.8409 8.11271 11.6883 8.22523 11.5757L10.6184 9.18252C10.8528 8.94821 11.2327 8.94821 11.467 9.18252C11.7013 9.41684 11.7013 9.79673 11.467 10.031L10.098 11.4H15.3505C15.6819 11.4 15.9505 11.6686 15.9505 12C15.9505 12.3314 15.6819 12.6 15.3505 12.6L10.098 12.6L11.467 13.969C11.7013 14.2033 11.7013 14.5832 11.467 14.8175Z" fill="#363853"/>
</svg>
