<svg width="24" height="24" viewBox="0 0 24 24" fill="none" xmlns="http://www.w3.org/2000/svg">
<path fill-rule="evenodd" clip-rule="evenodd" d="M9.02975 3.3437C10.9834 2.88543 13.0166 2.88543 14.9703 3.3437C17.7916 4.00549 19.9945 6.20842 20.6563 9.02975C21.1146 10.9834 21.1146 13.0166 20.6563 14.9703C19.9945 17.7916 17.7916 19.9945 14.9703 20.6563C13.0166 21.1146 10.9834 21.1146 9.02975 20.6563C6.20842 19.9945 4.0055 17.7916 3.3437 14.9703C2.88543 13.0166 2.88543 10.9834 3.3437 9.02974C4.0055 6.20841 6.20842 4.00549 9.02975 3.3437ZM10.6365 13.987C10.4122 14.2114 10.4122 14.575 10.6365 14.7993C10.8609 15.0236 11.2245 15.0236 11.4488 14.7993L13.842 12.4061C13.9498 12.2984 14.0103 12.1523 14.0103 12C14.0103 11.8476 13.9498 11.7015 13.842 11.5938L11.4488 9.20062C11.2245 8.97631 10.8609 8.97631 10.6365 9.20062C10.4122 9.42492 10.4122 9.78859 10.6365 10.0129L12.6236 12L10.6365 13.987Z" fill="#363853"/>
</svg>
