<svg width="24" height="24" viewBox="0 0 24 24" fill="none" xmlns="http://www.w3.org/2000/svg">
<path fill-rule="evenodd" clip-rule="evenodd" d="M18.2526 11.6367C17.9818 12.7883 17.3596 13.7938 16.5071 14.5397L17.427 18.2625C17.8898 20.1352 15.9606 21.575 14.3395 20.7733L12.6066 19.9163C12.225 19.7276 11.775 19.7276 11.3934 19.9163L9.66052 20.7733C8.03944 21.575 6.11016 20.1352 6.57295 18.2625L7.49294 14.5397C6.64042 13.7938 6.01824 12.7883 5.74739 11.6367C5.41754 10.2343 5.41754 8.77447 5.74739 7.37205C6.23153 5.31362 7.83822 3.7219 9.87641 3.24508C11.2733 2.91831 12.7267 2.91831 14.1236 3.24508C16.1618 3.7219 17.7685 5.31363 18.2526 7.37205C18.5825 8.77447 18.5825 10.2343 18.2526 11.6367ZM14.1236 15.7636C14.1873 15.7487 14.2506 15.7328 14.3134 15.7157C14.6626 15.6209 14.998 15.4932 15.3161 15.3358L16.1238 18.604C16.2784 19.2298 15.6122 19.8665 14.9217 19.525L13.1888 18.668C12.4392 18.2973 11.5608 18.2973 10.8112 18.668L9.07832 19.525C8.3878 19.8665 7.72159 19.2298 7.87624 18.604L8.68389 15.3358C8.98322 15.4839 9.2979 15.6057 9.62497 15.6986C9.70801 15.7222 9.79184 15.7439 9.87641 15.7636C11.2733 16.0904 12.7267 16.0904 14.1236 15.7636Z" fill="#363853"/>
</svg>
