<svg width="24" height="24" viewBox="0 0 24 24" fill="none" xmlns="http://www.w3.org/2000/svg">
<path fill-rule="evenodd" clip-rule="evenodd" d="M12.6453 4.31953C14.6788 4.78996 16.3673 6.15884 17.2921 8.00536H18.1233C19.9695 8.00536 21.559 9.33641 21.9211 11.1855C22.0263 11.7232 22.0263 12.2768 21.9211 12.8144C21.559 14.6636 19.9695 15.9946 18.1233 15.9946H17.2921C16.3673 17.8412 14.6788 19.21 12.6453 19.6805L12.4269 19.731C10.8764 20.0897 9.26702 20.0897 7.71655 19.731L7.49811 19.6805C4.92738 19.0858 2.90817 17.0553 2.28591 14.4391C1.9047 12.8363 1.9047 11.1637 2.28591 9.56094C2.90817 6.94475 4.92738 4.91422 7.49811 4.31954L7.71655 4.269C9.26702 3.91033 10.8764 3.91033 12.4269 4.269L12.6453 4.31953ZM18.1233 14.3968H17.8675C18.2354 12.821 18.2354 11.179 17.8675 9.60322H18.1233C19.2238 9.60322 20.1713 10.3966 20.3871 11.4989C20.4518 11.8297 20.4518 12.1703 20.3871 12.5011C20.1713 13.6034 19.2238 14.3968 18.1233 14.3968ZM11.3754 9.763C11.721 9.763 12.0011 10.0492 12.0011 10.4021V13.5979C12.0011 13.9508 11.721 14.237 11.3754 14.237C11.0298 14.237 10.7496 13.9508 10.7496 13.5979V10.4021C10.7496 10.0492 11.0298 9.763 11.3754 9.763ZM8.24669 10.0826C8.59228 10.0826 8.87243 10.3687 8.87243 10.7217V13.2783C8.87243 13.6313 8.59228 13.9174 8.24669 13.9174C7.9011 13.9174 7.62095 13.6313 7.62095 13.2783V10.7217C7.62095 10.3687 7.9011 10.0826 8.24669 10.0826Z" fill="#363853"/>
</svg>
