<svg width="24" height="24" viewBox="0 0 24 24" fill="none" xmlns="http://www.w3.org/2000/svg">
<path d="M6.11069 3.15205C6.43316 3.05136 6.76773 3 7.10456 3C8.72359 3 9.92309 4.42565 9.92308 6.03791L9.92308 9.65441C9.92308 11.2667 8.72358 12.6923 7.10456 12.6923C6.76772 12.6923 6.43316 12.641 6.11069 12.5403L5.86418 12.4633C5.78002 12.437 5.69721 12.4079 5.61584 12.376C6.9001 14.9841 9.01591 17.0999 11.624 18.3842C11.5921 18.3028 11.563 18.22 11.5367 18.1358L11.4597 17.8893C11.359 17.5668 11.3077 17.2323 11.3077 16.8954C11.3077 15.2764 12.7333 14.0769 14.3456 14.0769H17.9621C19.5743 14.0769 21 15.2764 21 16.8954C21 17.2323 20.9486 17.5668 20.8479 17.8893L20.771 18.1358C20.3226 19.5717 19.0401 20.6116 17.506 20.882C16.6128 21.0393 15.6949 21.0394 14.8017 20.882C14.7665 20.8758 14.7315 20.8692 14.6966 20.8622C8.84285 19.7359 4.26404 15.1571 3.13782 9.30329C3.13083 9.26843 3.12424 9.23344 3.11805 9.19831C2.96065 8.3051 2.96065 7.38721 3.11805 6.494C3.38837 4.95989 4.42827 3.67739 5.86419 3.22902L6.11069 3.15205Z" fill="#363853"/>
<path d="M19.8741 5.10492C20.1445 4.83456 20.1445 4.39621 19.8742 4.12585C19.6038 3.85549 19.1654 3.85549 18.8951 4.12585L17.0769 5.94401L15.2588 4.12586C14.9884 3.8555 14.5501 3.8555 14.2797 4.12586C14.0093 4.39623 14.0093 4.83457 14.2797 5.10494L16.0978 6.92308L14.2797 8.74122C14.0093 9.01158 14.0093 9.44993 14.2797 9.72029C14.5501 9.99065 14.9884 9.99065 15.2588 9.72029L17.0769 7.90215L18.8951 9.72031C19.1654 9.99067 19.6038 9.99067 19.8742 9.7203C20.1445 9.44994 20.1445 9.0116 19.8741 8.74123L18.056 6.92308L19.8741 5.10492Z" fill="#363853"/>
</svg>
