<svg width="24" height="24" viewBox="0 0 24 24" fill="none" xmlns="http://www.w3.org/2000/svg">
<path d="M6.11069 3.15205C6.43316 3.05136 6.76773 3 7.10456 3C8.72359 3 9.92308 4.42565 9.92308 6.03791L9.92308 9.65441C9.92308 11.2667 8.72358 12.6923 7.10456 12.6923C6.76772 12.6923 6.43316 12.641 6.11068 12.5403L5.86418 12.4633C5.80927 12.4461 5.75494 12.4278 5.70121 12.4082C6.14365 13.2674 6.67526 14.0732 7.28462 14.8132L17.0489 5.04893C17.3193 4.77856 17.7576 4.77856 18.028 5.04893C18.2984 5.31929 18.2984 5.75763 18.028 6.028L4.18184 19.8741C3.91148 20.1445 3.47314 20.1445 3.20277 19.8741C2.93241 19.6038 2.93241 19.1654 3.20277 18.8951L6.30139 15.7965C4.80643 14.0137 3.72416 11.8765 3.18952 9.53047C3.16168 9.42124 3.13781 9.31045 3.11805 9.19831C2.96065 8.3051 2.96065 7.38721 3.11805 6.494C3.38837 4.95989 4.42826 3.67739 5.86418 3.22902L6.11069 3.15205Z" fill="#363853"/>
<path d="M20.771 18.1358C20.3226 19.5717 19.0401 20.6116 17.506 20.882C16.6128 21.0394 15.6949 21.0394 14.8017 20.882C14.7666 20.8758 14.7316 20.8692 14.6967 20.8622C12.493 20.4382 10.4696 19.5247 8.74323 18.2381C8.43666 18.0096 8.37337 17.5758 8.60185 17.2693C8.83034 16.9627 9.26409 16.8994 9.57066 17.1279C10.2122 17.6061 10.8991 18.0273 11.6241 18.3842C11.5922 18.3028 11.563 18.22 11.5367 18.1358L11.4597 17.8893C11.3591 17.5668 11.3077 17.2323 11.3077 16.8954C11.3077 15.2764 12.7333 14.0769 14.3456 14.0769H17.9621C19.5743 14.0769 21 15.2764 21 16.8954C21 17.2323 20.9486 17.5668 20.8479 17.8893L20.771 18.1358Z" fill="#363853"/>
</svg>
