<svg width="24" height="24" viewBox="0 0 24 24" fill="none" xmlns="http://www.w3.org/2000/svg">
<path d="M4.18184 3.20277C3.91148 2.93241 3.47314 2.93241 3.20277 3.20277C2.93241 3.47314 2.93241 3.91148 3.20277 4.18184L19.8182 20.7972C20.0885 21.0676 20.5269 21.0676 20.7972 20.7972C21.0676 20.5269 21.0676 20.0885 20.7972 19.8182L18.9757 17.9966C19.5551 17.3647 20.0439 16.6359 20.296 15.6807C20.773 13.8732 20.773 11.9729 20.296 10.1654C19.7027 7.91723 17.9367 6.17705 15.6971 5.60822C15.1565 4.08843 13.706 3 12 3C10.2944 3 8.84427 4.08788 8.30332 5.60707C7.85946 5.71658 7.44522 5.86366 7.04294 6.06387L4.18184 3.20277Z" fill="#363853"/>
<path d="M5.9251 8.73194C6.15941 8.4298 6.10441 7.99492 5.80226 7.76061C5.50012 7.5263 5.06524 7.5813 4.83093 7.88344C4.31467 8.54918 3.92667 9.32168 3.70402 10.1654C3.22703 11.9729 3.22703 13.8732 3.70402 15.6808C4.32089 18.0183 6.20562 19.8067 8.57234 20.3002L8.97553 20.3843C10.9704 20.8002 13.0296 20.8002 15.0245 20.3843L15.4277 20.3002C15.8456 20.2131 16.2488 20.0854 16.6326 19.9215C16.9842 19.7713 17.1475 19.3645 16.9973 19.0129C16.8471 18.6612 16.4403 18.498 16.0887 18.6482C15.7883 18.7765 15.4727 18.8764 15.145 18.9447L14.7418 19.0288C12.9334 19.4059 11.0666 19.4059 9.25815 19.0288L8.85496 18.9447C7.00169 18.5583 5.52584 17.1579 5.0428 15.3275C4.62693 13.7515 4.62693 12.0946 5.0428 10.5187C5.21723 9.8577 5.52095 9.25311 5.9251 8.73194Z" fill="#363853"/>
<path d="M10.4496 12.4674C10.5572 12.1005 10.3469 11.7159 9.98002 11.6083C9.61311 11.5007 9.22847 11.711 9.12089 12.0779C9.04205 12.3468 9 12.6306 9 12.9231C9 14.5799 10.3431 15.9231 12 15.9231C12.2903 15.9231 12.5722 15.8816 12.8394 15.8039C13.2065 15.6971 13.4175 15.3128 13.3107 14.9457C13.2038 14.5786 12.8196 14.3676 12.4525 14.4744C12.3097 14.516 12.1581 14.5385 12 14.5385C11.1078 14.5385 10.3846 13.8152 10.3846 12.9231C10.3846 12.7638 10.4075 12.6111 10.4496 12.4674Z" fill="#363853"/>
</svg>
