<svg width="24" height="24" viewBox="0 0 24 24" fill="none" xmlns="http://www.w3.org/2000/svg">
<path d="M12 3.25C7.93424 3.25 4.53999 6.28525 4.41166 10.1717C2.54084 11.0582 1.25 12.9789 1.25 15.2C1.25 18.1911 3.34376 20.75 6.44444 20.75C6.85866 20.75 7.19444 20.4142 7.19444 20C7.19444 19.5858 6.85866 19.25 6.44444 19.25C4.31296 19.25 2.75 17.5108 2.75 15.2C2.75 13.4296 3.86708 11.9297 5.41584 11.3774L5.93783 11.1913L5.91317 10.6376C5.90967 10.5589 5.9079 10.4797 5.9079 10.4C5.9079 7.32599 8.58745 4.75 12 4.75C15.2018 4.75 17.7647 7.02301 18.0627 9.84127L18.1087 10.2761L18.5098 10.4503C20.1182 11.1489 21.25 12.7714 21.25 14.6667C21.25 17.2879 19.5436 19.25 17.1356 19.25C16.7214 19.25 16.3856 19.5858 16.3856 20C16.3856 20.4142 16.7214 20.75 17.1356 20.75C20.5412 20.75 22.75 17.9364 22.75 14.6667C22.75 12.316 21.4312 10.2731 19.4962 9.26041C18.9121 5.81859 15.7438 3.25 12 3.25Z" fill="#363853"/>
<path d="M14.0304 16.5303C14.3232 16.2374 14.3232 15.7626 14.0304 15.4697C13.7375 15.1768 13.2626 15.1768 12.9697 15.4697L9.96969 18.4697C9.75519 18.6842 9.69103 19.0068 9.80711 19.287C9.9232 19.5673 10.1967 19.75 10.5 19.75H11.6894L9.96969 21.4697C9.6768 21.7626 9.6768 22.2374 9.96969 22.5303C10.2626 22.8232 10.7375 22.8232 11.0304 22.5303L14.0304 19.5303C14.2449 19.3158 14.309 18.9932 14.1929 18.713C14.0768 18.4327 13.8034 18.25 13.5 18.25H12.3107L14.0304 16.5303Z" fill="#363853"/>
</svg>
