<svg width="24" height="24" viewBox="0 0 24 24" fill="none" xmlns="http://www.w3.org/2000/svg">
<path fill-rule="evenodd" clip-rule="evenodd" d="M8.38243 5C10.0514 5 11.4826 5.95123 12.2013 7.32502C13.0833 6.93112 14.0657 6.71146 15.1008 6.71146C18.9003 6.71146 22 9.67575 22 13.3557C22 17.0357 18.9002 20 15.1006 20L7.03876 20C4.26671 20 2 17.8366 2 15.1445C2 13.3938 2.96021 11.8657 4.39182 11.0123C4.18236 10.5 4.06718 9.93934 4.06718 9.35314C4.06718 6.97345 5.9746 5 8.38243 5ZM5.46253 9.35314C5.46253 7.6776 6.7944 6.36364 8.38243 6.36364C9.5132 6.36364 10.5112 7.02653 10.9948 8.01572C10.1217 8.63932 9.406 9.45746 8.91753 10.4053C8.88414 10.4701 8.85181 10.5355 8.82057 10.6014C8.75836 10.5788 8.69557 10.5573 8.63223 10.5369C8.13057 10.3759 7.59454 10.2889 7.03876 10.2889C6.56622 10.2889 6.10792 10.3518 5.67284 10.4696C5.53742 10.1256 5.46253 9.74905 5.46253 9.35314Z" fill="#363853"/>
</svg>
