<svg width="24" height="24" viewBox="0 0 24 24" fill="none" xmlns="http://www.w3.org/2000/svg">
<path d="M12 3.25C7.93424 3.25 4.53999 6.28525 4.41166 10.1717C2.54084 11.0582 1.25 12.9789 1.25 15.2C1.25 18.1911 3.34376 20.75 6.44444 20.75C6.85866 20.75 7.19444 20.4142 7.19444 20C7.19444 19.5858 6.85866 19.25 6.44444 19.25C4.31296 19.25 2.75 17.5108 2.75 15.2C2.75 13.4296 3.86708 11.9297 5.41584 11.3774L5.93783 11.1913L5.91317 10.6376C5.90967 10.5589 5.9079 10.4797 5.9079 10.4C5.9079 7.32599 8.58745 4.75 12 4.75C15.2018 4.75 17.7647 7.02301 18.0627 9.84127L18.1087 10.2761L18.5098 10.4503C20.1182 11.1489 21.25 12.7714 21.25 14.6667C21.25 17.2879 19.5436 19.25 17.1356 19.25C16.7214 19.25 16.3856 19.5858 16.3856 20C16.3856 20.4142 16.7214 20.75 17.1356 20.75C20.5412 20.75 22.75 17.9364 22.75 14.6667C22.75 12.316 21.4312 10.2731 19.4962 9.26041C18.9121 5.81859 15.7438 3.25 12 3.25Z" fill="#363853"/>
<path d="M11.3495 16.375C11.5566 16.0163 11.4337 15.5576 11.075 15.3505C10.7163 15.1434 10.2576 15.2663 10.0505 15.625L9.0505 17.3571C8.84339 17.7158 8.9663 18.1745 9.32502 18.3816C9.68373 18.5887 10.1424 18.4658 10.3495 18.1071L11.3495 16.375Z" fill="#363853"/>
<path d="M14.8136 18.375C15.0208 18.0163 14.8978 17.5576 14.5391 17.3505C14.1804 17.1434 13.7217 17.2663 13.5146 17.625L12.5146 19.3571C12.3075 19.7158 12.4304 20.1745 12.7891 20.3816C13.1478 20.5887 13.6065 20.4658 13.8136 20.1071L14.8136 18.375Z" fill="#363853"/>
<path d="M11.5816 19.9731C11.7887 19.6144 11.6658 19.1557 11.3071 18.9486C10.9484 18.7415 10.4897 18.8644 10.2826 19.2231L9.28255 20.9551C9.07545 21.3139 9.19835 21.7725 9.55707 21.9797C9.91579 22.1868 10.3745 22.0639 10.5816 21.7051L11.5816 19.9731Z" fill="#363853"/>
</svg>
