<svg width="24" height="24" viewBox="0 0 24 24" fill="none" xmlns="http://www.w3.org/2000/svg">
<path d="M12.7109 3.69231C12.7109 3.30996 12.3926 3 12 3C11.6074 3 11.2891 3.30996 11.2891 3.69231V4.23031C10.6439 4.26914 10.0011 4.36089 9.36781 4.50556C6.85551 5.07947 4.89389 6.98986 4.30458 9.43653C3.89847 11.1226 3.89847 12.8773 4.30458 14.5634C4.89389 17.0101 6.85551 18.9205 9.36781 19.4944C10.0011 19.6391 10.6439 19.7308 11.2891 19.7697L11.2891 20.3077C11.2891 20.69 11.6074 21 12 21C12.3926 21 12.7109 20.69 12.7109 20.3077L12.7109 3.69231Z" fill="#363853"/>
<path d="M14.6322 4.50556C14.25 4.41824 13.8674 4.64923 13.7778 5.02147C13.6881 5.39372 13.9253 5.76627 14.3075 5.85359C16.2941 6.30741 17.8452 7.81804 18.3112 9.75274C18.6673 11.2308 18.6673 12.7691 18.3112 14.2472C17.8452 16.1819 16.2941 17.6925 14.3075 18.1464C13.9253 18.2337 13.6881 18.6062 13.7778 18.9785C13.8674 19.3507 14.25 19.5817 14.6322 19.4944C17.1445 18.9205 19.1061 17.0101 19.6954 14.5634C20.1015 12.8773 20.1015 11.1226 19.6954 9.43654C19.1061 6.98986 17.1445 5.07947 14.6322 4.50556Z" fill="#363853"/>
</svg>
