<svg width="24" height="24" viewBox="0 0 24 24" fill="none" xmlns="http://www.w3.org/2000/svg">
<path fill-rule="evenodd" clip-rule="evenodd" d="M16.2361 16.9044C15.8432 16.9966 15.4462 17.0651 15.0471 17.1098C14.5174 18.9281 13.0477 20.3311 11.1898 20.7669C9.86509 21.0777 8.4864 21.0777 7.16166 20.7669C5.21235 20.3097 3.69031 18.7877 3.23306 16.8383C2.92231 15.5136 2.92231 14.1349 3.23306 12.8102C3.66885 10.9523 5.07188 9.48256 6.89019 8.95289C6.93495 8.55384 7.00341 8.1568 7.09558 7.76387C7.61876 5.53347 9.36028 3.79195 11.5907 3.26877C13.1184 2.91041 14.7084 2.91041 16.2361 3.26877C18.4665 3.79195 20.208 5.53347 20.7312 7.76388C21.0896 9.29162 21.0896 10.8816 20.7312 12.4093C20.208 14.6397 18.4665 16.3812 16.2361 16.9044ZM11.5907 16.9044C12.2257 17.0534 12.8715 17.1404 13.5191 17.1655C13.0404 18.2705 12.0633 19.1022 10.8653 19.3832C9.754 19.6439 8.5975 19.6439 7.48624 19.3832C6.06246 19.0492 4.95077 17.9375 4.6168 16.5138C4.35613 15.4025 4.35613 14.246 4.6168 13.1347C4.89782 11.9367 5.72952 10.9596 6.83446 10.4809C6.8558 11.0311 6.92185 11.5801 7.03259 12.1222C7.05219 12.2181 7.07318 12.3138 7.09558 12.4093C7.61876 14.6397 9.36028 16.3812 11.5907 16.9044Z" fill="#363853"/>
</svg>
