<svg width="24" height="24" viewBox="0 0 24 24" fill="none" xmlns="http://www.w3.org/2000/svg">
<path fill-rule="evenodd" clip-rule="evenodd" d="M9.09677 3C9.5778 3 9.96774 3.38995 9.96774 3.87097V5.77583C10.3514 5.68846 10.7393 5.62615 11.129 5.5889V3.87097C11.129 3.38995 11.519 3 12 3C12.481 3 12.871 3.38995 12.871 3.87097V5.58891C13.2607 5.62616 13.6485 5.68847 14.0322 5.77583V3.87097C14.0322 3.38995 14.4221 3 14.9032 3C15.3842 3 15.7741 3.38995 15.7741 3.87097V6.49357C16.4735 6.93412 17.0658 7.52646 17.5064 8.22581H20.129C20.6101 8.22581 21 8.61575 21 9.09677C21 9.5778 20.6101 9.96774 20.129 9.96774H18.2241C18.3115 10.3514 18.3738 10.7393 18.4111 11.129H20.129C20.6101 11.129 21 11.519 21 12C21 12.481 20.6101 12.871 20.129 12.871H18.4111C18.3738 13.2607 18.3115 13.6486 18.2241 14.0323H20.129C20.6101 14.0323 21 14.4222 21 14.9032C21 15.3843 20.6101 15.7742 20.129 15.7742H17.5064C17.0658 16.4735 16.4735 17.0659 15.7741 17.5064V20.129C15.7741 20.6101 15.3842 21 14.9032 21C14.4221 21 14.0322 20.6101 14.0322 20.129V18.2242C13.6485 18.3115 13.2607 18.3738 12.871 18.4111V20.129C12.871 20.6101 12.481 21 12 21C11.519 21 11.129 20.6101 11.129 20.129V18.4111C10.7393 18.3738 10.3514 18.3115 9.96774 18.2242V20.129C9.96774 20.6101 9.5778 21 9.09677 21C8.61575 21 8.22581 20.6101 8.22581 20.129V17.5064C7.52646 17.0659 6.93411 16.4735 6.49356 15.7742H3.87097C3.38995 15.7742 3 15.3842 3 14.9032C3 14.4222 3.38995 14.0323 3.87097 14.0323H5.77581C5.68844 13.6486 5.62613 13.2607 5.58887 12.871H3.87097C3.38995 12.871 3 12.481 3 12C3 11.519 3.38995 11.129 3.87097 11.129H5.58887C5.62613 10.7393 5.68844 10.3514 5.77581 9.96774H3.87097C3.38995 9.96774 3 9.5778 3 9.09677C3 8.61575 3.38995 8.22581 3.87097 8.22581H6.49356C6.93411 7.52646 7.52646 6.93412 8.22581 6.49357V3.87097C8.22581 3.38995 8.61575 3 9.09677 3ZM11.4026 10.5332C11.7955 10.4411 12.2044 10.4411 12.5974 10.5332C13.0287 10.6344 13.3655 10.9712 13.4667 11.4026C13.5589 11.7955 13.5589 12.2045 13.4667 12.5974C13.3655 13.0288 13.0287 13.3656 12.5974 13.4668C12.2044 13.5589 11.7955 13.5589 11.4026 13.4668C10.9712 13.3656 10.6344 13.0288 10.5332 12.5974C10.441 12.2045 10.441 11.7955 10.5332 11.4026C10.6344 10.9712 10.9712 10.6344 11.4026 10.5332ZM12.9156 9.17651C12.3134 9.03524 11.6866 9.03524 11.0843 9.17651C10.1377 9.39857 9.39853 10.1377 9.17648 11.0844C9.03521 11.6866 9.03521 12.3134 9.17648 12.9156C9.39853 13.8623 10.1377 14.6014 11.0843 14.8235C11.6866 14.9648 12.3134 14.9648 12.9156 14.8235C13.8623 14.6014 14.6014 13.8623 14.8235 12.9156C14.9647 12.3134 14.9647 11.6866 14.8235 11.0844C14.6014 10.1377 13.8623 9.39857 12.9156 9.17651Z" fill="#363853"/>
</svg>
