<svg width="24" height="24" viewBox="0 0 24 24" fill="none" xmlns="http://www.w3.org/2000/svg">
<path fill-rule="evenodd" clip-rule="evenodd" d="M17.801 8.63235C17.8131 8.73586 17.8243 8.83942 17.8347 8.94303C19.3319 9.07122 20.5892 10.1639 20.9097 11.6573L20.9193 11.702C21.0269 12.2031 21.0269 12.7215 20.9193 13.2227C20.5723 14.8395 19.1449 15.9942 17.4932 15.9942H17.1834C17.1559 16.0883 17.1277 16.1822 17.0987 16.2759L16.9737 16.6805C16.3947 18.5537 14.8188 19.9459 12.8904 20.2878C12.615 20.3366 12.3384 20.377 12.0611 20.4089C10.7529 20.5596 9.27466 20.547 7.93557 20.1899C6.59236 19.8318 5.33037 19.1085 4.58122 17.7978C4.54772 17.7392 4.5138 17.6787 4.47934 17.6163C4.15889 17.0365 3.91534 16.4258 3.72564 15.8121C3.05646 13.6469 2.84688 11.3656 3.11035 9.11458L3.22179 8.16244C3.48806 5.8874 5.24033 4.07124 7.50198 3.72617C9.4785 3.42461 11.4892 3.42461 13.4658 3.72617L13.6136 3.74873C15.788 4.08048 17.4726 5.82651 17.7286 8.01371L17.801 8.63235ZM17.5362 14.581C17.8241 13.1998 17.9536 11.7901 17.9223 10.3794C18.7131 10.5308 19.356 11.1422 19.5302 11.9541L19.5398 11.9988C19.6054 12.3043 19.6054 12.6203 19.5398 12.9259C19.3356 13.8776 18.5045 14.5613 17.5362 14.581ZM7.1915 10.9554C7.50321 10.9554 7.75591 11.2084 7.75591 11.5205V11.665C7.75591 12.7739 7.89173 13.8786 8.16035 14.9544L8.20939 15.1508C8.28499 15.4536 8.10113 15.7604 7.79873 15.8361C7.49632 15.9118 7.18989 15.7277 7.11429 15.4249L7.06524 15.2285C6.77425 14.063 6.6271 12.8663 6.6271 11.665V11.5205C6.6271 11.2084 6.87979 10.9554 7.1915 10.9554Z" fill="#363853"/>
</svg>
