<svg width="24" height="24" viewBox="0 0 24 24" fill="none" xmlns="http://www.w3.org/2000/svg">
<path fill-rule="evenodd" clip-rule="evenodd" d="M9.02975 3.3437C10.9834 2.88543 13.0166 2.88543 14.9703 3.3437C17.7916 4.00549 19.9945 6.20842 20.6563 9.02975C21.1146 10.9834 21.1146 13.0166 20.6563 14.9703C19.9945 17.7916 17.7916 19.9945 14.9703 20.6563C13.0166 21.1146 10.9834 21.1146 9.02975 20.6563C6.20842 19.9945 4.0055 17.7916 3.3437 14.9703C2.88543 13.0166 2.88543 10.9834 3.3437 9.02974C4.0055 6.20841 6.20842 4.00549 9.02975 3.3437ZM13.49 10.0124C13.8026 9.88732 14.1128 10.1975 13.9877 10.5101L13.2075 12.4608C13.0712 12.8013 12.8014 13.0712 12.4609 13.2074L10.5102 13.9876C10.1976 14.1127 9.88741 13.8025 10.0124 13.4899L10.7927 11.5392C10.9289 11.1987 11.1988 10.9288 11.5393 10.7926L13.49 10.0124ZM15.0543 10.9367C15.5544 9.68641 14.3137 8.44565 13.0634 8.94577L11.1127 9.72604C10.4802 9.97902 9.97911 10.4802 9.72613 11.1126L8.94586 13.0633C8.44573 14.3136 9.6865 15.5544 10.9368 15.0542L12.8875 14.274C13.5199 14.021 14.0211 13.5198 14.274 12.8874L15.0543 10.9367Z" fill="#363853"/>
</svg>
