<svg width="24" height="24" viewBox="0 0 24 24" fill="none" xmlns="http://www.w3.org/2000/svg">
<path fill-rule="evenodd" clip-rule="evenodd" d="M11.6153 3.02534C11.8707 2.99155 12.1294 2.99155 12.3847 3.02534C13.6205 3.18884 14.544 4.24254 14.544 5.48909V6.29592C15.9478 6.92286 17.0771 8.05216 17.7041 9.45603H18.5109C19.7575 9.45603 20.8112 10.3795 20.9747 11.6153C21.0084 11.8707 21.0084 12.1294 20.9747 12.3847C20.8112 13.6205 19.7575 14.544 18.5109 14.544H17.7041C17.0771 15.9478 15.9478 17.0771 14.544 17.7041V18.5109C14.544 19.7575 13.6205 20.8112 12.3847 20.9747C12.1294 21.0084 11.8707 21.0084 11.6153 20.9747C10.3795 20.8112 9.45603 19.7575 9.45603 18.5109V17.7041C8.05216 17.0771 6.92286 15.9478 6.29592 14.544H5.48908C4.24253 14.544 3.18884 13.6205 3.02534 12.3847C2.99155 12.1294 2.99155 11.8707 3.02534 11.6153C3.18884 10.3795 4.24254 9.45603 5.4891 9.45603H6.29592C6.92286 8.05216 8.05216 6.92286 9.45604 6.29592V5.4891C9.45604 4.24254 10.3795 3.18884 11.6153 3.02534ZM12 9.13224C10.4162 9.13224 9.13224 10.4162 9.13224 12C9.13224 13.5838 10.4162 14.8677 12 14.8677C13.5838 14.8677 14.8677 13.5838 14.8677 12C14.8677 10.4162 13.5838 9.13224 12 9.13224ZM10.2423 12C10.2423 11.0293 11.0293 10.2423 12 10.2423C12.9707 10.2423 13.7576 11.0293 13.7576 12C13.7576 12.9707 12.9707 13.7576 12 13.7576C11.0293 13.7576 10.2423 12.9707 10.2423 12Z" fill="#363853"/>
</svg>
