<svg width="24" height="24" viewBox="0 0 24 24" fill="none" xmlns="http://www.w3.org/2000/svg">
<path d="M9.02975 3.3437C10.9834 2.88543 13.0166 2.88543 14.9703 3.3437C17.6309 3.96779 19.7415 5.96241 20.5284 8.55374H3.47164C4.2585 5.96241 6.36915 3.96779 9.02975 3.3437Z" fill="#363853"/>
<path d="M3.20453 9.70249C2.89142 11.4471 2.93781 13.2399 3.3437 14.9703C3.9678 17.6309 5.96243 19.7415 8.55377 20.5284V9.70249H3.20453Z" fill="#363853"/>
<path d="M9.70252 20.7955C11.4471 21.1086 13.2399 21.0622 14.9703 20.6563C17.7916 19.9945 19.9945 17.7916 20.6563 14.9703C21.0622 13.2399 21.1086 11.4471 20.7955 9.70249H9.70252V20.7955Z" fill="#363853"/>
</svg>
