<svg width="24" height="24" viewBox="0 0 24 24" fill="none" xmlns="http://www.w3.org/2000/svg">
<path d="M9.02975 3.34394C10.9834 2.88535 13.0166 2.88535 14.9703 3.34394C17.6309 3.96847 19.7415 5.9645 20.5284 8.55766H3.47164C4.2585 5.9645 6.36915 3.96847 9.02975 3.34394Z" fill="#363853"/>
<path d="M3.20453 9.70722C2.89142 11.4531 2.93781 13.2471 3.3437 14.9787C4.0055 17.802 6.20842 20.0065 9.02975 20.6688C9.81889 20.854 10.621 20.9644 11.4256 21V9.70722H3.20453Z" fill="#363853"/>
<path d="M12.5744 21C13.379 20.9644 14.1811 20.854 14.9703 20.6688C17.7916 20.0065 19.9945 17.802 20.6563 14.9787C21.0622 13.2471 21.1086 11.4531 20.7955 9.70722H12.5744V21Z" fill="#363853"/>
</svg>
