<svg width="24" height="24" viewBox="0 0 24 24" fill="none" xmlns="http://www.w3.org/2000/svg">
<path fill-rule="evenodd" clip-rule="evenodd" d="M10.7011 4.45735C10.6532 4.6628 10.5812 4.86262 10.4862 5.05258L10.2097 5.60567C9.21351 7.59801 7.59802 9.21351 5.60568 10.2097L5.0526 10.4862C4.86263 10.5812 4.6628 10.6532 4.45735 10.7011C4.30917 12.02 4.3874 13.3581 4.69205 14.6569C5.21726 16.8959 6.92909 18.6588 9.13823 19.2562C9.03365 18.7367 9.02923 18.1988 9.12885 17.6718L9.14742 17.5736C9.35062 16.4987 10.1479 15.6332 11.2026 15.3426C11.7245 15.1988 12.2755 15.1988 12.7974 15.3426C13.8521 15.6332 14.6494 16.4987 14.8526 17.5736L14.8711 17.6718C14.9708 18.1988 14.9664 18.7367 14.8618 19.2562C17.0709 18.6588 18.7827 16.8959 19.3079 14.6569C19.6126 13.3581 19.6908 12.02 19.5426 10.7011C19.3372 10.6532 19.1374 10.5812 18.9474 10.4862L18.3943 10.2097C16.402 9.21351 14.7865 7.59801 13.7903 5.60568L13.5138 5.05259C13.4188 4.86263 13.3469 4.6628 13.2989 4.45735C12.4357 4.36037 11.5643 4.36037 10.7011 4.45735ZM14.9147 4.75833L15.0288 4.98646C15.8909 6.71084 17.2892 8.10905 19.0135 8.97124L19.2417 9.08531C18.6544 6.98697 17.013 5.34559 14.9147 4.75833ZM13.3294 19.5392C13.5498 19.0335 13.6134 18.4725 13.5106 17.929L13.4921 17.8308C13.387 17.2751 12.9749 16.8277 12.4297 16.6775C12.1485 16.6 11.8515 16.6 11.5703 16.6775C11.0251 16.8277 10.613 17.2751 10.5079 17.8308L10.4894 17.929C10.3866 18.4725 10.4502 19.0335 10.6706 19.5392C11.5539 19.6408 12.446 19.6408 13.3294 19.5392ZM4.75833 9.0853L4.98647 8.97124C6.71084 8.10905 8.10905 6.71083 8.97124 4.98646L9.0853 4.75833C6.98696 5.34559 5.34559 6.98697 4.75833 9.0853ZM9.97163 3.15898C11.3155 2.94701 12.6845 2.94701 14.0284 3.15898C14.3449 3.20891 14.66 3.27059 14.9731 3.34403C17.7929 4.00545 19.9945 6.20715 20.656 9.02692C20.7294 9.33999 20.7911 9.65512 20.841 9.97164C21.1029 11.6321 21.0412 13.3307 20.656 14.9731C19.9945 17.7929 17.7929 19.9945 14.9731 20.656C13.0176 21.1147 10.9824 21.1147 9.02691 20.656C6.20715 19.9945 4.00546 17.7929 3.34403 14.9731C2.95876 13.3307 2.89708 11.6321 3.15898 9.97163C3.20891 9.65512 3.27059 9.33999 3.34403 9.02691C4.00546 6.20715 6.20715 4.00545 9.02691 3.34403C9.33999 3.27059 9.65512 3.20891 9.97163 3.15898Z" fill="#363853"/>
</svg>
