<svg width="24" height="24" viewBox="0 0 24 24" fill="none" xmlns="http://www.w3.org/2000/svg">
<path fill-rule="evenodd" clip-rule="evenodd" d="M12 15.8401C12.5247 15.8401 12.95 16.2699 12.95 16.8001V16.8218C12.95 17.352 12.5247 17.7818 12 17.7818C11.4753 17.7818 11.05 17.352 11.05 16.8218V16.8001C11.05 16.2699 11.4753 15.8401 12 15.8401Z" fill="#363853"/>
<path fill-rule="evenodd" clip-rule="evenodd" d="M19.5924 8.43518L19.6789 8.8545L19.6871 8.89434C20.0306 10.5813 20.0913 12.3118 19.8692 14.0141L19.7875 14.64H19.7745C19.7455 14.8089 19.7136 14.9774 19.6789 15.1455L19.5924 15.5648C19.0845 18.0262 17.244 19.9864 14.8382 20.6279C12.9779 21.124 11.0221 21.124 9.16185 20.6279C6.75603 19.9864 4.91545 18.0262 4.40758 15.5648L4.32106 15.1455C4.28638 14.9774 4.25451 14.8089 4.22545 14.64H4.21247L4.13081 14.0141L4.12541 13.9723C3.90803 12.2701 3.97325 10.5402 4.32106 8.8545L4.40758 8.43518C4.91545 5.97375 6.75603 4.0136 9.16185 3.37205C11.0221 2.87598 12.9779 2.87598 14.8381 3.37205C17.244 4.0136 19.0845 5.97375 19.5924 8.43518ZM18.2839 14.8516C18.2985 14.7811 18.3124 14.7106 18.3259 14.64H5.67412C5.68756 14.7106 5.70155 14.7811 5.71608 14.8516L5.8026 15.2709C6.20029 17.1983 7.64157 18.7332 9.52545 19.2356C11.1474 19.6681 12.8526 19.6681 14.4746 19.2356C16.3584 18.7332 17.7997 17.1983 18.1974 15.2709L18.2839 14.8516ZM13.7575 7.19995C13.7575 7.51807 13.5023 7.77595 13.1875 7.77595H10.8125C10.4977 7.77595 10.2425 7.51807 10.2425 7.19995C10.2425 6.88182 10.4977 6.62394 10.8125 6.62394H13.1875C13.5023 6.62394 13.7575 6.88182 13.7575 7.19995Z" fill="#363853"/>
</svg>
