<svg width="24" height="24" viewBox="0 0 24 24" fill="none" xmlns="http://www.w3.org/2000/svg">
<path d="M16.3117 3.4309C13.4642 2.85637 10.5358 2.85637 7.68829 3.4309C5.90482 3.79074 4.46955 5.15636 3.97717 6.96192L3.93526 7.11559C3.35491 9.24373 3.35491 11.4959 3.93526 13.6241L3.97717 13.7777C4.46955 15.5833 5.90482 16.9489 7.6883 17.3087C8.88637 17.5505 10.0988 17.6905 11.3134 17.7288V19.5826H9.71141C9.33222 19.5826 9.02483 19.8999 9.02483 20.2913C9.02483 20.6827 9.33222 21 9.71141 21H14.2886C14.6678 21 14.9752 20.6827 14.9752 20.2913C14.9752 19.8999 14.6678 19.5826 14.2886 19.5826H12.6866V17.7288C13.9012 17.6905 15.1136 17.5505 16.3117 17.3087C18.0952 16.9489 19.5305 15.5833 20.0228 13.7777L20.0647 13.6241C20.6451 11.4959 20.6451 9.24373 20.0647 7.11559L20.0228 6.96192C19.5305 5.15636 18.0952 3.79074 16.3117 3.4309Z" fill="#363853"/>
</svg>
