<svg width="24" height="24" viewBox="0 0 24 24" fill="none" xmlns="http://www.w3.org/2000/svg">
<path fill-rule="evenodd" clip-rule="evenodd" d="M9.16185 3.37205C11.0221 2.87598 12.9779 2.87598 14.8381 3.37205C17.244 4.0136 19.0845 5.97375 19.5924 8.43518L19.6789 8.8545C20.107 10.9292 20.107 13.0708 19.6789 15.1455L19.5924 15.5648C19.0845 18.0262 17.244 19.9864 14.8382 20.6279C12.9779 21.124 11.0221 21.124 9.16185 20.6279C6.75603 19.9864 4.91545 18.0262 4.40758 15.5648L4.32106 15.1455C3.89298 13.0708 3.89298 10.9292 4.32106 8.8545L4.40758 8.43518C4.91545 5.97375 6.75603 4.0136 9.16185 3.37205ZM12.7125 7.19995C12.7125 6.80229 12.3935 6.47993 12 6.47993C11.6065 6.47993 11.2875 6.80229 11.2875 7.19995V9.11997C11.2875 9.51763 11.6065 9.83998 12 9.83998C12.3935 9.83998 12.7125 9.51763 12.7125 9.11997V7.19995Z" fill="#363853"/>
</svg>
