<svg width="24" height="24" viewBox="0 0 24 24" fill="none" xmlns="http://www.w3.org/2000/svg">
<path fill-rule="evenodd" clip-rule="evenodd" d="M8.38872 3C8.76935 3 9.07791 3.30996 9.07791 3.69231V3.91804C9.11598 3.90819 9.15418 3.89864 9.1925 3.8894C11.039 3.4441 12.961 3.4441 14.8075 3.8894C14.8458 3.89864 14.884 3.90819 14.9221 3.91804V3.69231C14.9221 3.30996 15.2306 3 15.6113 3C15.9919 3 16.3005 3.30996 16.3005 3.69231V4.4325C18.2353 5.39375 19.6757 7.20822 20.1763 9.40217C20.6079 11.2936 20.6079 13.2618 20.1763 15.1533C19.554 17.8808 17.4792 20.0218 14.8075 20.666C12.961 21.1113 11.039 21.1113 9.1925 20.666C6.52085 20.0218 4.44599 17.8808 3.82367 15.1533C3.39211 13.2618 3.39211 11.2936 3.82367 9.40216C4.32425 7.20822 5.76466 5.39375 7.69953 4.43251V3.69231C7.69953 3.30996 8.00809 3 8.38872 3ZM14.4575 11.3882C14.6719 11.1355 14.6409 10.7569 14.3882 10.5425C14.1355 10.3281 13.7569 10.3591 13.5425 10.6118L11.439 13.0909L10.444 11.9964C10.2211 11.7512 9.84159 11.7331 9.5964 11.956C9.3512 12.1789 9.33313 12.5584 9.55604 12.8036L11.0106 14.4036C11.1267 14.5313 11.2922 14.6029 11.4648 14.5999C11.6374 14.597 11.8004 14.5198 11.9121 14.3882L14.4575 11.3882Z" fill="#363853"/>
</svg>
