<svg width="24" height="24" viewBox="0 0 24 24" fill="none" xmlns="http://www.w3.org/2000/svg">
<path fill-rule="evenodd" clip-rule="evenodd" d="M8.38872 3C8.76935 3 9.07791 3.30996 9.07791 3.69231V3.91804C9.11598 3.90819 9.15418 3.89864 9.1925 3.8894C11.039 3.4441 12.961 3.4441 14.8075 3.8894C14.8458 3.89864 14.884 3.90819 14.9221 3.91804V3.69231C14.9221 3.30996 15.2306 3 15.6113 3C15.9919 3 16.3005 3.30996 16.3005 3.69231V4.4325C18.2353 5.39375 19.6757 7.20822 20.1763 9.40217C20.6079 11.2936 20.6079 13.2618 20.1763 15.1533C19.554 17.8808 17.4792 20.0218 14.8075 20.666C12.961 21.1113 11.039 21.1113 9.1925 20.666C6.52085 20.0218 4.44599 17.8808 3.82367 15.1533C3.39211 13.2618 3.39211 11.2936 3.82367 9.40216C4.32425 7.20822 5.76466 5.39375 7.69953 4.43251V3.69231C7.69953 3.30996 8.00809 3 8.38872 3ZM12.5514 11.0769C12.5514 10.771 12.3045 10.5231 12 10.5231C11.6955 10.5231 11.4486 10.771 11.4486 11.0769V12.3692H10.1622C9.85766 12.3692 9.61081 12.6172 9.61081 12.9231C9.61081 13.229 9.85766 13.4769 10.1622 13.4769H11.4486L11.4486 14.7692C11.4486 15.0751 11.6955 15.3231 12 15.3231C12.3045 15.3231 12.5514 15.0751 12.5514 14.7692V13.4769H13.8378C14.1423 13.4769 14.3892 13.229 14.3892 12.9231C14.3892 12.6172 14.1423 12.3692 13.8378 12.3692H12.5514V11.0769Z" fill="#363853"/>
</svg>
