<svg width="24" height="24" viewBox="0 0 24 24" fill="none" xmlns="http://www.w3.org/2000/svg">
<path fill-rule="evenodd" clip-rule="evenodd" d="M16.5231 15.6998C17.1223 15.6109 17.8942 15.5936 18.9539 15.5905C18.2002 17.4179 16.6057 18.7978 14.6423 19.2583L14.6378 19.2594C14.6476 18.4971 14.6749 17.9092 14.7496 17.4344C14.8472 16.8132 15.0141 16.4699 15.2634 16.2207C15.5185 15.9656 15.8724 15.7964 16.5231 15.6998ZM14.9703 3.3437C13.0166 2.88543 10.9834 2.88543 9.02975 3.3437C6.20842 4.00549 4.0055 6.20841 3.3437 9.02974C2.88543 10.9834 2.88543 13.0166 3.3437 14.9703C4.0055 17.7916 6.20842 19.9945 9.02975 20.6563C10.6707 21.0412 12.3677 21.1028 14.0266 20.8411C14.3428 20.7913 14.6575 20.7297 14.9703 20.6563C17.7916 19.9945 19.9945 17.7916 20.6563 14.9703C21.1146 13.0166 21.1146 10.9834 20.6563 9.02975C19.9945 6.20842 17.7916 4.00549 14.9703 3.3437ZM8.55374 9.12812C8.55374 8.8109 8.8109 8.55374 9.12812 8.55374H12C12.3172 8.55374 12.5743 8.8109 12.5743 9.12812C12.5743 9.44533 12.3172 9.70249 12 9.70249H9.12812C8.8109 9.70249 8.55374 9.44533 8.55374 9.12812ZM8.55374 12C8.55374 11.6828 8.8109 11.4256 9.12812 11.4256H13.9145C14.2318 11.4256 14.4889 11.6828 14.4889 12C14.4889 12.3172 14.2318 12.5743 13.9145 12.5743H9.12812C8.8109 12.5743 8.55374 12.3172 8.55374 12Z" fill="#363853"/>
</svg>
