<svg width="24" height="24" viewBox="0 0 24 24" fill="none" xmlns="http://www.w3.org/2000/svg">
<path fill-rule="evenodd" clip-rule="evenodd" d="M9.06166 3.69582C9.06166 3.31153 8.75808 3 8.38358 3C8.00909 3 7.70551 3.31153 7.70551 3.69582V4.42901C5.77233 5.38732 4.32745 7.19918 3.82461 9.39896C3.3918 11.2924 3.3918 13.2628 3.82461 15.1562C4.44963 17.8906 6.53017 20.0255 9.19476 20.6669C11.0399 21.111 12.9601 21.111 14.8052 20.6669C17.4698 20.0255 19.5504 17.8905 20.1754 15.1562C20.6082 13.2628 20.6082 11.2924 20.1754 9.39896C19.6726 7.19919 18.2277 5.38732 16.2945 4.42901V3.69582C16.2945 3.31153 15.9909 3 15.6164 3C15.2419 3 14.9383 3.31153 14.9383 3.69582V3.92169C14.8941 3.91014 14.8498 3.89901 14.8052 3.88829C12.9601 3.44416 11.0399 3.44416 9.19476 3.88829C9.15023 3.89901 9.10586 3.91015 9.06166 3.92169V3.69582ZM8.7452 12.2776C8.7452 11.9702 8.98807 11.7209 9.28766 11.7209H14.7123C15.0119 11.7209 15.2547 11.9702 15.2547 12.2776C15.2547 12.585 15.0119 12.8343 14.7123 12.8343H9.28766C8.98807 12.8343 8.7452 12.585 8.7452 12.2776ZM8.7452 15.0609C8.7452 14.7534 8.98807 14.5042 9.28766 14.5042H12C12.2996 14.5042 12.5424 14.7534 12.5424 15.0609C12.5424 15.3683 12.2996 15.6175 12 15.6175H9.28766C8.98807 15.6175 8.7452 15.3683 8.7452 15.0609Z" fill="#363853"/>
</svg>
