<svg width="24" height="24" viewBox="0 0 24 24" fill="none" xmlns="http://www.w3.org/2000/svg">
<path fill-rule="evenodd" clip-rule="evenodd" d="M8.38872 3C8.76935 3 9.07791 3.30996 9.07791 3.69231V3.91804C9.11598 3.90819 9.15418 3.89864 9.1925 3.8894C11.039 3.4441 12.961 3.4441 14.8075 3.8894C14.8458 3.89864 14.884 3.90819 14.9221 3.91804V3.69231C14.9221 3.30996 15.2306 3 15.6113 3C15.9919 3 16.3005 3.30996 16.3005 3.69231V4.4325C18.2353 5.39375 19.6757 7.20822 20.1763 9.40217C20.6079 11.2936 20.6079 13.2618 20.1763 15.1533C19.554 17.8808 17.4792 20.0218 14.8075 20.666C12.961 21.1113 11.039 21.1113 9.1925 20.666C6.52085 20.0218 4.44599 17.8808 3.82367 15.1533C3.39211 13.2618 3.39211 11.2936 3.82367 9.40216C4.32425 7.20822 5.76466 5.39375 7.69953 4.43251V3.69231C7.69953 3.30996 8.00809 3 8.38872 3ZM11.01 11.1615C10.7757 10.9272 10.3958 10.9272 10.1615 11.1615C9.9272 11.3958 9.9272 11.7757 10.1615 12.0101L11.1515 13L10.1615 13.9899C9.9272 14.2243 9.9272 14.6042 10.1615 14.8385C10.3958 15.0728 10.7757 15.0728 11.01 14.8385L12 13.8485L12.9899 14.8385C13.2243 15.0728 13.6042 15.0728 13.8385 14.8385C14.0728 14.6042 14.0728 14.2243 13.8385 13.9899L12.8485 13L13.8385 12.0101C14.0728 11.7757 14.0728 11.3958 13.8385 11.1615C13.6042 10.9272 13.2243 10.9272 12.9899 11.1615L12 12.1515L11.01 11.1615Z" fill="#363853"/>
</svg>
