<svg width="24" height="24" viewBox="0 0 24 24" fill="none" xmlns="http://www.w3.org/2000/svg">
<path d="M9.36434 4.76444C10.2311 4.56112 11.1156 4.45946 12 4.45946C12.403 4.45946 12.7297 4.13275 12.7297 3.72973C12.7297 3.32671 12.403 3 12 3C11.0037 3 10.0074 3.11452 9.03105 3.34355C6.209 4.00551 4.00551 6.20899 3.34355 9.03104C2.88548 10.9838 2.88548 13.0162 3.34355 14.969C4.00551 17.791 6.209 19.9945 9.03105 20.6565C10.9838 21.1145 13.0162 21.1145 14.969 20.6565C17.791 19.9945 19.9945 17.791 20.6565 14.969C20.8855 13.9925 21 12.9963 21 12C21 11.597 20.6733 11.2702 20.2703 11.2702C19.8673 11.2702 19.5405 11.597 19.5405 12C19.5405 12.8844 19.4389 13.7689 19.2356 14.6357C18.7002 16.9181 16.9181 18.7002 14.6357 19.2356C12.9021 19.6422 11.0979 19.6422 9.36434 19.2356C7.08194 18.7002 5.29982 16.9181 4.76444 14.6357C4.3578 12.9021 4.3578 11.0979 4.76444 9.36434C5.29982 7.08194 7.08194 5.29982 9.36434 4.76444Z" fill="#363853"/>
<path d="M17.8378 3.48649C16.0914 3.48649 14.6757 4.90223 14.6757 6.64865C14.6757 8.39506 16.0914 9.81081 17.8378 9.81081C19.5843 9.81081 21 8.39506 21 6.64865C21 4.90223 19.5843 3.48649 17.8378 3.48649Z" fill="#363853"/>
</svg>
