<svg width="24" height="24" viewBox="0 0 24 24" fill="none" xmlns="http://www.w3.org/2000/svg">
<path fill-rule="evenodd" clip-rule="evenodd" d="M7.87215 3.48483C5.22187 4.04402 3.11133 6.07055 2.42056 8.71942C1.85981 10.8697 1.85981 13.1303 2.42056 15.2806C3.11133 17.9295 5.22187 19.956 7.87215 20.5152L8.37858 20.622C10.7672 21.126 13.2328 21.126 15.6214 20.622L16.1278 20.5152C18.7781 19.956 20.8887 17.9295 21.5794 15.2806C22.1402 13.1303 22.1402 10.8697 21.5794 8.71943C20.8887 6.07055 18.7781 4.04402 16.1278 3.48483L15.6214 3.37798C13.2328 2.87401 10.7672 2.87401 8.37858 3.37798L7.87215 3.48483ZM14.5112 8.67634C14.3822 8.4805 14.165 8.36287 13.9324 8.36287C13.6998 8.36287 13.4826 8.4805 13.3536 8.67634L10.0676 13.6641L8.71402 11.6095C8.58499 11.4137 8.36779 11.296 8.13519 11.296H6.20279C5.81859 11.296 5.50713 11.6112 5.50713 12C5.50713 12.3888 5.81859 12.7039 6.20279 12.7039H7.76288L9.48876 15.3236C9.61778 15.5195 9.83499 15.6371 10.0676 15.6371C10.3002 15.6371 10.5174 15.5195 10.6464 15.3236L13.9324 10.3359L15.286 12.3905C15.415 12.5863 15.6322 12.7039 15.8648 12.7039H17.7972C18.1814 12.7039 18.4928 12.3888 18.4928 12C18.4928 11.6112 18.1814 11.296 17.7972 11.296H16.2371L14.5112 8.67634Z" fill="#363853"/>
</svg>
