<svg width="24" height="24" viewBox="0 0 24 24" fill="none" xmlns="http://www.w3.org/2000/svg">
<path fill-rule="evenodd" clip-rule="evenodd" d="M16.3117 3.4309C13.4642 2.85637 10.5358 2.85637 7.68829 3.4309C5.90482 3.79074 4.46955 5.15636 3.97717 6.96192L3.93526 7.11559C3.35491 9.24373 3.35491 11.4959 3.93526 13.6241L3.97717 13.7777C4.46955 15.5833 5.90482 16.9489 7.6883 17.3087C8.88637 17.5505 10.0988 17.6905 11.3134 17.7288V19.5826H9.71141C9.33222 19.5826 9.02483 19.8999 9.02483 20.2913C9.02483 20.6827 9.33222 21 9.71141 21H14.2886C14.6678 21 14.9752 20.6827 14.9752 20.2913C14.9752 19.8999 14.6678 19.5826 14.2886 19.5826H12.6866V17.7288C13.9012 17.6905 15.1136 17.5505 16.3117 17.3087C18.0952 16.9489 19.5305 15.5833 20.0228 13.7777L20.0647 13.6241C20.6451 11.4959 20.6451 9.24373 20.0647 7.11559L20.0228 6.96192C19.5305 5.15636 18.0952 3.79074 16.3117 3.4309ZM14.0469 11.4988C14.0545 11.4917 14.0622 11.4847 14.0698 11.4776L15.5715 10.0825C15.797 9.87308 15.8152 9.51461 15.6123 9.28187C15.4094 9.04913 15.0621 9.03027 14.8366 9.23973L13.3349 10.6348C13.1879 10.7713 13.0927 10.8588 13.0214 10.9167C12.9662 10.8424 12.8949 10.7333 12.7852 10.5635L12.1288 9.54715C12.1231 9.53837 12.1175 9.52958 12.1118 9.52079C11.9902 9.33238 11.869 9.14462 11.7485 9.00518C11.6121 8.84728 11.4141 8.67559 11.1229 8.63783C10.8317 8.60006 10.5987 8.71585 10.4287 8.83401C10.2785 8.93836 10.1161 9.08933 9.95309 9.24083C9.94548 9.2479 9.93788 9.25497 9.93028 9.26203L8.42856 10.6571C8.20308 10.8665 8.1848 11.225 8.38773 11.4578C8.59066 11.6905 8.93795 11.7094 9.16343 11.4999L10.6652 10.1048C10.8121 9.96829 10.9074 9.88085 10.9786 9.8229C11.0338 9.89725 11.1051 10.0063 11.2148 10.1761L11.8712 11.1925C11.8714 11.1928 11.8716 11.1931 11.8718 11.1934C11.8773 11.2018 11.8828 11.2103 11.8882 11.2188C12.0099 11.4073 12.1311 11.595 12.2515 11.7344C12.3879 11.8923 12.586 12.064 12.8772 12.1018C13.1683 12.1396 13.4014 12.0238 13.5714 11.9056C13.7215 11.8013 13.8839 11.6503 14.0469 11.4988Z" fill="#363853"/>
</svg>
