<svg width="24" height="24" viewBox="0 0 24 24" fill="none" xmlns="http://www.w3.org/2000/svg">
<path fill-rule="evenodd" clip-rule="evenodd" d="M15.1667 11.7576V12.4485C17.5446 13.5432 19.2547 15.8332 19.5164 18.5455H20.7692C21.1728 18.5455 21.5 18.8711 21.5 19.2727C21.5 19.6744 21.1728 20 20.7692 20H3.23077C2.82718 20 2.5 19.6744 2.5 19.2727C2.5 18.8711 2.82718 18.5455 3.23077 18.5455H4.48362C4.7453 15.8332 6.45544 13.5432 8.83333 12.4485V11.7576C8.83333 10.8932 9.28366 10.1599 9.86514 9.66303C10.4449 9.16757 11.219 8.84848 12 8.84848C12.781 8.84848 13.5551 9.16757 14.1349 9.66303C14.7163 10.1599 15.1667 10.8932 15.1667 11.7576ZM10.2949 11.7576C10.2949 11.4169 10.4747 11.0593 10.8173 10.7666C11.1616 10.4724 11.6054 10.303 12 10.303C12.3946 10.303 12.8384 10.4724 13.1827 10.7666C13.5253 11.0593 13.7051 11.4169 13.7051 11.7576V11.9501C13.1567 11.8241 12.5858 11.7576 12 11.7576C11.4142 11.7576 10.8433 11.8241 10.2949 11.9501V11.7576Z" fill="#363853"/>
<path fill-rule="evenodd" clip-rule="evenodd" d="M12 4C12.4036 4 12.7308 4.3256 12.7308 4.72727L12.7308 6.18181C12.7308 6.58347 12.4036 6.90909 12 6.90909C11.5964 6.90909 11.2692 6.58349 11.2692 6.18183L11.2692 4.72728C11.2692 4.32562 11.5964 4 12 4ZM7.09867 6.2127C7.38406 5.92868 7.84675 5.92869 8.13213 6.2127L9.0459 7.12211C9.33128 7.40613 9.33127 7.86661 9.04589 8.15063C8.7605 8.43464 8.29781 8.43464 8.01242 8.15062L7.09866 7.24122C6.81328 6.9572 6.81329 6.49671 7.09867 6.2127ZM16.9013 6.21272C17.1867 6.49674 17.1867 6.95722 16.9013 7.24124L15.9876 8.15062C15.7022 8.43464 15.2395 8.43464 14.9541 8.15062C14.6687 7.8666 14.6687 7.40612 14.9541 7.1221L15.8679 6.21272C16.1533 5.9287 16.616 5.9287 16.9013 6.21272Z" fill="#363853"/>
</svg>
