<svg width="24" height="24" viewBox="0 0 24 24" fill="none" xmlns="http://www.w3.org/2000/svg">
<path fill-rule="evenodd" clip-rule="evenodd" d="M3.69231 3C4.07466 3 4.38462 3.30996 4.38462 3.69231V6.57203C4.6562 6.29523 4.97144 6.00111 5.33051 5.70695C6.8021 4.50141 9.02899 3.28161 12 3.28161C16.988 3.28161 21 7.23836 21 12.1408C21 17.0447 16.9594 21 12 21C7.04064 21 3 17.0447 3 12.1408C3 11.7585 3.30996 11.4485 3.69231 11.4485C4.07466 11.4485 4.38462 11.7585 4.38462 12.1408C4.38462 16.2578 7.78294 19.6154 12 19.6154C16.2171 19.6154 19.6154 16.2578 19.6154 12.1408C19.6154 8.02236 16.2428 4.66623 12 4.66623C9.43255 4.66623 7.50559 5.71501 6.20796 6.77805C5.76738 7.13897 5.40155 7.49995 5.11094 7.81877H7.98933C8.37168 7.81877 8.68163 8.12873 8.68163 8.51108C8.68163 8.89343 8.37168 9.20339 7.98933 9.20339H3.69231C3.30996 9.20339 3 8.89343 3 8.51108V3.69231C3 3.30996 3.30996 3 3.69231 3Z" fill="#363853"/>
</svg>
