<svg width="24" height="24" viewBox="0 0 24 24" fill="none" xmlns="http://www.w3.org/2000/svg">
<path fill-rule="evenodd" clip-rule="evenodd" d="M15.3429 3.77143C15.3429 3.34538 15.6882 3 16.1143 3C18.8126 3 21 5.18741 21 7.88571C21 8.31176 20.6546 8.65714 20.2286 8.65714C19.8025 8.65714 19.4571 8.31176 19.4571 7.88571C19.4571 6.03951 17.9605 4.54286 16.1143 4.54286C15.6882 4.54286 15.3429 4.19748 15.3429 3.77143Z" fill="#363853"/>
<path fill-rule="evenodd" clip-rule="evenodd" d="M3 7.88571C3 5.18741 5.18741 3 7.88571 3C8.31176 3 8.65714 3.34538 8.65714 3.77143C8.65714 4.19748 8.31176 4.54286 7.88571 4.54286C6.03951 4.54286 4.54286 6.0395 4.54286 7.88571C4.54286 8.31176 4.19748 8.65714 3.77143 8.65714C3.34538 8.65714 3 8.31176 3 7.88571Z" fill="#363853"/>
<path fill-rule="evenodd" clip-rule="evenodd" d="M15.4464 12.4742C13.2523 11.4991 10.7477 11.4991 8.55362 12.4742L7.68474 12.8604C7.29541 13.0334 6.83952 12.8581 6.66649 12.4688C6.49345 12.0794 6.66879 11.6236 7.05812 11.4505L7.92701 11.0643C10.5201 9.91188 13.4799 9.91188 16.073 11.0643L16.9419 11.4505C17.3312 11.6236 17.5065 12.0794 17.3335 12.4688C17.1605 12.8581 16.7046 13.0334 16.3153 12.8604L15.4464 12.4742Z" fill="#363853"/>
<path fill-rule="evenodd" clip-rule="evenodd" d="M20.2286 13.1896C20.6546 13.1896 21 13.5349 21 13.961C21 17.2004 18.653 19.9661 15.4215 20.6139L14.9089 20.7166C13.0412 21.091 11.1145 21.0945 9.24541 20.7267L8.58492 20.5968C5.35258 19.9608 3 17.1992 3 13.961C3 13.5349 3.34538 13.1896 3.77143 13.1896C4.19748 13.1896 4.54286 13.5349 4.54286 13.961C4.54286 16.4281 6.34012 18.5827 8.88276 19.0829L9.54325 19.2129C11.2139 19.5416 12.9363 19.5385 14.6057 19.2039L15.1183 19.1011C17.6623 18.5912 19.4571 16.4316 19.4571 13.961C19.4571 13.5349 19.8025 13.1896 20.2286 13.1896Z" fill="#363853"/>
</svg>
