<svg width="24" height="24" viewBox="0 0 24 24" fill="none" xmlns="http://www.w3.org/2000/svg">
<path fill-rule="evenodd" clip-rule="evenodd" d="M20.2286 13.1896C20.6546 13.1896 21 13.5349 21 13.961C21 17.2004 18.653 19.9661 15.4215 20.6139L14.9089 20.7166C13.0412 21.091 11.1145 21.0945 9.24541 20.7267L8.58492 20.5968C5.35258 19.9608 3 17.1992 3 13.961C3 13.5349 3.34538 13.1896 3.77143 13.1896C4.19748 13.1896 4.54286 13.5349 4.54286 13.961C4.54286 16.4281 6.34012 18.5827 8.88276 19.0829L9.54325 19.2129C11.2139 19.5416 12.9363 19.5385 14.6057 19.2039L15.1183 19.1011C17.6623 18.5912 19.4571 16.4316 19.4571 13.961C19.4571 13.5349 19.8025 13.1896 20.2286 13.1896Z" fill="#363853"/>
<path fill-rule="evenodd" clip-rule="evenodd" d="M14.4568 4.78712C12.7861 4.45843 11.0637 4.46149 9.39434 4.79613L8.88172 4.89888C6.33767 5.40885 4.54286 7.56836 4.54286 10.039C4.54286 10.4651 4.19748 10.8104 3.77143 10.8104C3.34538 10.8104 3 10.4651 3 10.039C3 6.79956 5.34703 4.03387 8.57848 3.38612L9.09111 3.28336C10.9588 2.90897 12.8855 2.90554 14.7546 3.27329L15.4151 3.40323C18.6474 4.03918 21 6.80082 21 10.039C21 10.4651 20.6546 10.8104 20.2286 10.8104C19.8025 10.8104 19.4571 10.4651 19.4571 10.039C19.4571 7.57191 17.6599 5.41732 15.1172 4.91707L14.4568 4.78712Z" fill="#363853"/>
<path fill-rule="evenodd" clip-rule="evenodd" d="M15.4464 12.9885C13.2523 12.0134 10.7477 12.0134 8.55363 12.9885L7.68474 13.3747C7.29541 13.5477 6.83952 13.3724 6.66649 12.9831C6.49345 12.5937 6.66879 12.1378 7.05812 11.9648L7.92701 11.5786C10.5201 10.4262 13.4799 10.4262 16.073 11.5786L16.9419 11.9648C17.3312 12.1378 17.5065 12.5937 17.3335 12.9831C17.1605 13.3724 16.7046 13.5477 16.3153 13.3747L15.4464 12.9885Z" fill="#363853"/>
</svg>
