<svg width="24" height="24" viewBox="0 0 24 24" fill="none" xmlns="http://www.w3.org/2000/svg">
<path fill-rule="evenodd" clip-rule="evenodd" d="M15.3429 3.77143C15.3429 3.34538 15.6882 3 16.1143 3C18.8126 3 21 5.18741 21 7.88571C21 8.31176 20.6546 8.65714 20.2286 8.65714C19.8025 8.65714 19.4571 8.31176 19.4571 7.88571C19.4571 6.03951 17.9605 4.54286 16.1143 4.54286C15.6882 4.54286 15.3429 4.19748 15.3429 3.77143Z" fill="#363853"/>
<path fill-rule="evenodd" clip-rule="evenodd" d="M3.77143 15.3429C4.19748 15.3429 4.54286 15.6882 4.54286 16.1143C4.54286 17.9605 6.03951 19.4571 7.88571 19.4571C8.31176 19.4571 8.65714 19.8025 8.65714 20.2286C8.65714 20.6546 8.31176 21 7.88571 21C5.18741 21 3 18.8126 3 16.1143C3 15.6882 3.34538 15.3429 3.77143 15.3429Z" fill="#363853"/>
<path fill-rule="evenodd" clip-rule="evenodd" d="M3 7.88571C3 5.18741 5.18741 3 7.88571 3C8.31176 3 8.65714 3.34538 8.65714 3.77143C8.65714 4.19748 8.31176 4.54286 7.88571 4.54286C6.03951 4.54286 4.54286 6.03951 4.54286 7.88571C4.54286 8.31176 4.19748 8.65714 3.77143 8.65714C3.34538 8.65714 3 8.31176 3 7.88571Z" fill="#363853"/>
<path fill-rule="evenodd" clip-rule="evenodd" d="M20.2286 15.3429C20.6546 15.3429 21 15.6882 21 16.1143C21 18.8126 18.8126 21 16.1143 21C15.6882 21 15.3429 20.6546 15.3429 20.2286C15.3429 19.8025 15.6882 19.4571 16.1143 19.4571C17.9605 19.4571 19.4571 17.9605 19.4571 16.1143C19.4571 15.6882 19.8025 15.3429 20.2286 15.3429Z" fill="#363853"/>
<path fill-rule="evenodd" clip-rule="evenodd" d="M15.4464 12.8331C13.2523 11.8579 10.7477 11.8579 8.55362 12.8331L7.68474 13.2192C7.29541 13.3923 6.83952 13.2169 6.66649 12.8276C6.49345 12.4383 6.66879 11.9824 7.05812 11.8093L7.92701 11.4232C10.5201 10.2707 13.4799 10.2707 16.073 11.4232L16.9419 11.8093C17.3312 11.9824 17.5065 12.4383 17.3335 12.8276C17.1605 13.2169 16.7046 13.3923 16.3153 13.2192L15.4464 12.8331Z" fill="#363853"/>
</svg>
