<svg width="24" height="24" viewBox="0 0 24 24" fill="none" xmlns="http://www.w3.org/2000/svg">
<path fill-rule="evenodd" clip-rule="evenodd" d="M7.41235 19.3041L7.58765 19.3996C9.19714 20.276 10.0019 20.7143 10.8552 20.886C11.6103 21.038 12.3897 21.038 13.1448 20.886C13.9981 20.7143 14.8029 20.2761 16.4123 19.3996L16.5877 19.3041C18.0869 18.4876 18.8365 18.0794 19.4005 17.5199C20.0429 16.8827 20.5141 16.1027 20.7728 15.2483C21 14.498 21 13.6654 21 12C21 10.3347 21 9.50196 20.7728 8.75174C20.5141 7.8973 20.0429 7.11731 19.4005 6.4801C18.8365 5.92061 18.0869 5.51238 16.5877 4.69591L16.4124 4.60045C14.8029 3.72396 13.9981 3.28571 13.1448 3.11398C12.3897 2.96201 11.6103 2.96201 10.8552 3.11398C10.0019 3.28571 9.19714 3.72395 7.58765 4.60045L7.41235 4.69591C5.9131 5.51237 5.16347 5.92061 4.59946 6.4801C3.95708 7.11731 3.4859 7.8973 3.22717 8.75174C3 9.50196 3 10.3346 3 12C3 13.6654 3 14.498 3.22717 15.2483C3.4859 16.1027 3.95709 16.8827 4.59946 17.5199C5.16347 18.0794 5.91312 18.4876 7.41235 19.3041ZM12 8.62359C10.0739 8.62359 8.5125 10.1353 8.5125 12C8.5125 13.8647 10.0739 15.3764 12 15.3764C13.9261 15.3764 15.4875 13.8647 15.4875 12C15.4875 10.1353 13.9261 8.62359 12 8.62359ZM9.8625 12C9.8625 10.8571 10.8195 9.93058 12 9.93058C13.1805 9.93058 14.1375 10.8571 14.1375 12C14.1375 13.1429 13.1805 14.0694 12 14.0694C10.8195 14.0694 9.8625 13.1429 9.8625 12Z" fill="#363853"/>
</svg>
