<svg width="24" height="24" viewBox="0 0 24 24" fill="none" xmlns="http://www.w3.org/2000/svg">
<path d="M16.5596 4.06372C13.6835 2.64543 10.3165 2.64543 7.44037 4.06372C5.58777 4.97727 4.33403 6.7864 4.12307 8.85053L4.09035 9.17076C3.97988 10.2516 3.97069 11.3405 4.06289 12.423L4.09379 12.7859C4.14396 13.3751 4.17315 13.7179 4.23001 14.0459C4.5387 15.8264 5.46619 17.4388 6.84711 18.5956C7.10141 18.8086 7.38246 19.005 7.8652 19.3424L8.11975 19.5203C8.76166 19.969 9.15504 20.244 9.55768 20.4391C11.101 21.187 12.899 21.187 14.4423 20.4391C14.845 20.244 15.2383 19.969 15.8802 19.5203L16.1346 19.3426C16.6175 19.0051 16.8985 18.8086 17.1529 18.5956C18.5338 17.4388 19.4613 15.8264 19.77 14.0459C19.8268 13.7179 19.856 13.375 19.9062 12.7858L19.9371 12.423C20.0293 11.3405 20.0201 10.2516 19.9097 9.17076L19.8769 8.85053C19.666 6.7864 18.4122 4.97727 16.5596 4.06372Z" fill="#363853"/>
</svg>
