<svg width="24" height="24" viewBox="0 0 24 24" fill="none" xmlns="http://www.w3.org/2000/svg">
<path fill-rule="evenodd" clip-rule="evenodd" d="M7.43472 4.06392C10.3146 2.64536 13.6855 2.64536 16.5653 4.06392C18.4132 4.97418 19.6656 6.77786 19.8764 8.83784L19.9093 9.15985C20.0202 10.2438 20.0294 11.3358 19.9369 12.4214L19.9059 12.7842C19.8553 13.3786 19.826 13.7215 19.7692 14.0492C19.4603 15.8288 18.5324 17.4397 17.1518 18.5949C16.8976 18.8076 16.6164 19.0039 16.1285 19.3445L15.8778 19.5196C15.2283 19.9731 14.8356 20.2472 14.4343 20.4415C12.896 21.1862 11.104 21.1862 9.56572 20.4415C9.16437 20.2473 8.7717 19.9731 8.12231 19.5196L7.87138 19.3445C7.38358 19.0039 7.1024 18.8076 6.84819 18.5949C5.46762 17.4397 4.53972 15.8288 4.23084 14.0492C4.17396 13.7215 4.14474 13.3786 4.09407 12.7842L4.06314 12.4214C3.97058 11.3358 3.97981 10.2438 4.0907 9.15985L4.12365 8.83784C4.33441 6.77786 5.58677 4.97418 7.43472 4.06392ZM10.804 9.94396C10.5719 9.70964 10.1956 9.70964 9.96354 9.94396C9.73145 10.1783 9.73145 10.5582 9.96354 10.7925L11.1596 12L9.96354 13.2075C9.73145 13.4418 9.73145 13.8217 9.96354 14.0561C10.1956 14.2904 10.5719 14.2904 10.804 14.0561L12 12.8485L13.196 14.0561C13.4281 14.2904 13.8044 14.2904 14.0365 14.0561C14.2686 13.8217 14.2686 13.4418 14.0365 13.2075L12.8405 12L14.0365 10.7925C14.2686 10.5582 14.2686 10.1783 14.0365 9.94396C13.8044 9.70964 13.4281 9.70964 13.196 9.94396L12 11.1515L10.804 9.94396Z" fill="#363853"/>
</svg>
