<svg width="24" height="24" viewBox="0 0 24 24" fill="none" xmlns="http://www.w3.org/2000/svg">
<path fill-rule="evenodd" clip-rule="evenodd" d="M3.91927 3.01138C3.49208 2.93917 3.08574 3.21821 3.01167 3.63461C2.9376 4.05102 3.22386 4.44711 3.65104 4.51931C4.58738 4.67757 5.32458 5.38577 5.50056 6.29609L5.60154 6.81848C5.19116 7.4158 4.88139 8.08586 4.69556 8.80661C4.25365 10.5206 4.25365 12.3145 4.69556 14.0284C4.73327 14.1747 4.7761 14.3189 4.82383 14.4608C4.85833 14.5634 4.8954 14.6648 4.93496 14.765L5.1228 15.2436H5.14759C5.51791 15.9914 6.03256 16.6558 6.65658 17.2038C6.52518 17.3665 6.41631 17.5466 6.33367 17.7396C6.16044 18.1442 6.10969 18.5887 6.18743 19.0205C6.26516 19.4524 6.46814 19.8535 6.77235 20.1764C7.07655 20.4994 7.46927 20.7306 7.90406 20.8429C8.33885 20.9552 8.79752 20.9437 9.22584 20.8099C9.65416 20.6761 10.0342 20.4255 10.3211 20.0878C10.6034 19.7553 10.7839 19.3521 10.8418 18.9245C12.0089 19.0972 13.1952 19.1047 14.364 18.9469C14.4036 19.3101 14.5317 19.66 14.739 19.9669C14.9871 20.3341 15.3382 20.6242 15.7505 20.8026C16.1628 20.981 16.6191 21.0402 17.0649 20.9732C17.5108 20.9061 17.9275 20.7157 18.2655 20.4245C18.6035 20.1333 18.8486 19.7535 18.9717 19.3305C19.0947 18.9074 19.0905 18.4588 18.9595 18.038C18.8777 17.775 18.7486 17.5299 18.5794 17.3134C19.2613 16.7453 19.8212 16.042 20.2165 15.2436H20.2413L20.4292 14.7648C20.4657 14.6724 20.5001 14.5789 20.5323 14.4844C20.5833 14.3349 20.6288 14.1828 20.6686 14.0284C21.1105 12.3145 21.1105 10.5206 20.6686 8.80662C20.0651 6.46603 18.1546 4.66002 15.736 4.14388L15.3038 4.05165C13.5764 3.68301 11.7877 3.68301 10.0603 4.05165L9.62809 4.14388C8.60153 4.36296 7.6665 4.81442 6.88409 5.4405C6.42206 4.1841 5.29858 3.2445 3.91927 3.01138ZM9.96387 17.1961C8.7257 16.9319 7.66287 16.2225 6.96131 15.2436H18.4028C17.7013 16.2225 16.6384 16.9319 15.4003 17.1961L14.968 17.2884C13.4619 17.6098 11.9022 17.6098 10.3961 17.2884L9.96387 17.1961ZM15.9209 18.7132C15.9207 18.6915 15.9213 18.6699 15.923 18.6485C16.3919 18.5343 16.8405 18.3712 17.2628 18.165C17.3529 18.2535 17.4198 18.3623 17.4571 18.4822C17.5008 18.6225 17.5022 18.772 17.4611 18.913C17.4201 19.0541 17.3384 19.1806 17.2258 19.2777C17.1131 19.3748 16.9742 19.4383 16.8256 19.4606C16.6769 19.483 16.5249 19.4632 16.3874 19.4038C16.25 19.3443 16.1329 19.2476 16.0502 19.1252C15.9675 19.0028 15.9226 18.8598 15.9209 18.7132ZM7.94727 18.0873C8.36964 18.3074 8.81998 18.4838 9.29195 18.6103C9.2926 18.6459 9.2907 18.6816 9.2862 18.7173C9.26788 18.8623 9.20734 18.9992 9.11172 19.1118C9.01611 19.2243 8.88942 19.3079 8.74665 19.3525C8.60388 19.3971 8.45098 19.4009 8.30606 19.3635C8.16113 19.3261 8.03022 19.249 7.92882 19.1413C7.82742 19.0337 7.75976 18.9 7.73384 18.756C7.70793 18.6121 7.72485 18.4639 7.78259 18.329C7.82134 18.2386 7.87738 18.1566 7.94727 18.0873ZM13.6327 7.23572C13.6897 6.90222 14.0133 6.67693 14.3554 6.73251L14.3981 6.73945C16.4883 7.07903 18.0202 8.84183 18.0202 10.9074C18.0202 11.2455 17.7391 11.5195 17.3922 11.5195C17.0454 11.5195 16.7642 11.2455 16.7642 10.9074C16.7642 9.44034 15.6761 8.18832 14.1916 7.94714L14.1489 7.9402C13.8068 7.88462 13.5756 7.56921 13.6327 7.23572Z" fill="#363853"/>
</svg>
