<svg width="24" height="24" viewBox="0 0 24 24" fill="none" xmlns="http://www.w3.org/2000/svg">
<path d="M2 4.17391C2 3.52558 2.49746 3 3.11111 3H20.8889C21.5025 3 22 3.52558 22 4.17391C22 4.82225 21.5025 5.34783 20.8889 5.34783L3.11111 5.34783C2.49746 5.34783 2 4.82225 2 4.17391Z" fill="#363853"/>
<path d="M4.96296 12C4.96296 11.3517 5.46042 10.8261 6.07407 10.8261H17.9259C18.5396 10.8261 19.037 11.3517 19.037 12C19.037 12.6483 18.5396 13.1739 17.9259 13.1739H6.07407C5.46042 13.1739 4.96296 12.6483 4.96296 12Z" fill="#363853"/>
<path d="M9.03704 18.6522C8.42339 18.6522 7.92593 19.1778 7.92593 19.8261C7.92593 20.4744 8.42339 21 9.03704 21H14.963C15.5766 21 16.0741 20.4744 16.0741 19.8261C16.0741 19.1778 15.5766 18.6522 14.963 18.6522H9.03704Z" fill="#363853"/>
</svg>
