<svg width="24" height="24" viewBox="0 0 24 24" fill="none" xmlns="http://www.w3.org/2000/svg">
<path fill-rule="evenodd" clip-rule="evenodd" d="M8.95043 3.35288C6.17301 4.00437 4.00437 6.17301 3.35288 8.95043C2.88237 10.9563 2.88237 13.0437 3.35288 15.0496C4.00437 17.827 6.17301 19.9956 8.95044 20.6471C10.9563 21.1176 13.0437 21.1176 15.0496 20.6471C17.827 19.9956 19.9956 17.827 20.6471 15.0496C21.1176 13.0437 21.1176 10.9563 20.6471 8.95044C19.9956 6.17301 17.827 4.00437 15.0496 3.35288C13.0437 2.88237 10.9563 2.88237 8.95043 3.35288ZM10.4831 11.7083C10.6501 11.5579 10.7583 11.4617 10.8393 11.3979L11.873 12.9347C12.0112 13.1421 12.1489 13.3488 12.2858 13.5024C12.4408 13.6762 12.6658 13.8652 12.9967 13.9068C13.3276 13.9484 13.5924 13.8209 13.7856 13.6908C13.9562 13.5759 14.1408 13.4097 14.326 13.2429L16.0585 11.6837C16.3147 11.4531 16.3355 11.0585 16.1049 10.8022C15.8743 10.546 15.4796 10.5252 15.2234 10.7558L13.5169 12.2917C13.3498 12.442 13.2416 12.5383 13.1606 12.6021C13.098 12.5202 13.0169 12.4002 12.8923 12.2132L12.127 11.0653C11.9888 10.8578 11.851 10.6511 11.7142 10.4976C11.5591 10.3238 11.3341 10.1348 11.0032 10.0932C10.6723 10.0516 10.4075 10.1791 10.2143 10.3092C10.0437 10.4241 9.85914 10.5903 9.6739 10.7571L7.94147 12.3163C7.68525 12.5469 7.66448 12.9415 7.89508 13.1977C8.12568 13.454 8.52034 13.4747 8.77656 13.2441L10.4831 11.7083ZM10.8393 11.3979L11.8536 12.9057L11.1077 11.7867C10.983 11.5998 10.902 11.4797 10.8393 11.3979Z" fill="#363853"/>
</svg>
