<svg width="24" height="24" viewBox="0 0 24 24" fill="none" xmlns="http://www.w3.org/2000/svg">
<path fill-rule="evenodd" clip-rule="evenodd" d="M14.9703 3.3437C13.0166 2.88543 10.9834 2.88543 9.02975 3.3437C6.20842 4.00549 4.0055 6.20841 3.3437 9.02975C2.88543 10.9834 2.88543 13.0166 3.3437 14.9703C4.0055 17.7916 6.20842 19.9945 9.02975 20.6563C10.9834 21.1146 13.0166 21.1146 14.9703 20.6563C17.7916 19.9945 19.9945 17.7916 20.6563 14.9703C21.1146 13.0166 21.1146 10.9834 20.6563 9.02975C19.9945 6.20842 17.7916 4.00549 14.9703 3.3437ZM8.55377 9.12815C8.55377 8.81093 8.81093 8.55377 9.12815 8.55377H14.8719C15.1891 8.55377 15.4462 8.81093 15.4462 9.12815C15.4462 9.44536 15.1891 9.70252 14.8719 9.70252H12.5744V14.8719C12.5744 15.1891 12.3172 15.4462 12 15.4462C11.6828 15.4462 11.4256 15.1891 11.4256 14.8719V9.70252H9.12815C8.81093 9.70252 8.55377 9.44536 8.55377 9.12815Z" fill="#363853"/>
</svg>
