<svg width="24" height="24" viewBox="0 0 24 24" fill="none" xmlns="http://www.w3.org/2000/svg">
<path fill-rule="evenodd" clip-rule="evenodd" d="M12 3C11.5234 3 11.0515 3.08712 10.6112 3.25638C10.1709 3.42565 9.77087 3.67374 9.43389 3.9865C9.0969 4.29927 8.82959 4.67057 8.64721 5.07921C8.55835 5.27831 8.49051 5.48437 8.44429 5.69451H7.1714C5.69603 5.69451 4.5 6.80455 4.5 8.17387V8.30927C4.5 9.12308 4.95606 9.85273 5.66185 10.2671C5.23006 10.9284 4.93103 11.6724 4.79712 12.4669L4.76074 12.6828C4.57865 13.7631 4.64761 14.8671 4.96299 15.9206L5.07685 16.301C5.7868 18.6726 7.90262 20.4542 10.5148 20.8799C11.4974 21.04 12.5025 21.04 13.4851 20.8799C16.0973 20.4542 18.2132 18.6726 18.9231 16.301L19.037 15.9206C19.3524 14.8671 19.4213 13.7631 19.2393 12.6828L19.2029 12.4669C19.069 11.6724 18.7699 10.9284 18.3381 10.2671C19.0439 9.85273 19.5 9.12308 19.5 8.30928V8.17387C19.5 6.80456 18.304 5.69451 16.8286 5.69451H15.5557C15.5095 5.48437 15.4416 5.27831 15.3528 5.07921C15.1704 4.67057 14.9031 4.29927 14.5661 3.98651C14.2291 3.67374 13.8291 3.42565 13.3888 3.25638C12.9485 3.08712 12.4766 3 12 3ZM14.0529 5.69451L9.94711 5.69451C9.95989 5.66097 9.97363 5.62772 9.98833 5.59478C10.0978 5.34959 10.2581 5.12681 10.4603 4.93916C10.6625 4.7515 10.9026 4.60264 11.1667 4.50109C11.4309 4.39953 11.7141 4.34726 12 4.34726C12.2859 4.34726 12.5691 4.39953 12.8333 4.50109C13.0974 4.60264 13.3375 4.7515 13.5397 4.93916C13.7419 5.12682 13.9022 5.3496 14.0117 5.59478C14.0264 5.62772 14.0401 5.66097 14.0529 5.69451ZM5.95161 8.17387C5.95161 7.54862 6.49773 7.04177 7.1714 7.04177H16.8286C17.5023 7.04177 18.0484 7.54863 18.0484 8.17387V8.30928C18.0484 8.77486 17.6915 9.17459 17.1986 9.2611C17.1553 9.26869 17.1121 9.27618 17.0688 9.28358C13.8893 9.82715 10.6338 9.85498 7.44656 9.36707C7.27457 9.34074 7.10255 9.31287 6.93098 9.28354C6.88778 9.27615 6.84459 9.26867 6.80141 9.2611C6.3085 9.17459 5.95161 8.77486 5.95161 8.30927V8.17387ZM10.0645 12.1164C10.3852 12.1164 10.6452 12.3577 10.6452 12.6553V16.248C10.6452 16.5456 10.3852 16.7869 10.0645 16.7869C9.74383 16.7869 9.48387 16.5456 9.48387 16.248V12.6553C9.48387 12.3577 9.74383 12.1164 10.0645 12.1164ZM13.9355 12.1164C14.2562 12.1164 14.5161 12.3577 14.5161 12.6553V16.248C14.5161 16.5456 14.2562 16.7869 13.9355 16.7869C13.6148 16.7869 13.3548 16.5456 13.3548 16.248V12.6553C13.3548 12.3577 13.6148 12.1164 13.9355 12.1164Z" fill="#363853"/>
</svg>
