<svg width="24" height="24" viewBox="0 0 24 24" fill="none" xmlns="http://www.w3.org/2000/svg">
<path d="M8.5138 3.21242C8.22014 2.92817 7.74524 2.92935 7.45307 3.21505C7.1609 3.50075 7.16211 3.96278 7.45577 4.24703L9.52322 6.24825C9.23242 6.28633 8.9428 6.3357 8.65504 6.39637L8.21242 6.48969C6.05299 6.94497 4.34427 8.54982 3.80051 10.6334C3.39983 12.1687 3.39983 13.7771 3.80051 15.3125C4.23255 16.968 5.40001 18.3212 6.94466 19.0358L6.37616 19.8654C6.14638 20.2007 6.23952 20.6538 6.58419 20.8774C6.92886 21.1009 7.39454 21.0103 7.62432 20.675L8.4283 19.5017L8.65504 19.5495C10.2004 19.8753 11.7996 19.8753 13.345 19.5495L13.5726 19.5015L14.3767 20.675C14.6065 21.0103 15.0722 21.1009 15.4169 20.8774C15.7615 20.6538 15.8547 20.2007 15.6249 19.8654L15.0561 19.0354C16.6004 18.3207 17.7675 16.9677 18.1995 15.3125C18.6002 13.7771 18.6002 12.1687 18.1995 10.6334C17.6557 8.54982 15.947 6.94497 13.7876 6.48969L13.345 6.39637C13.0574 6.33573 12.7679 6.28638 12.4773 6.24832L14.5448 4.24703C14.8385 3.96278 14.8397 3.50075 14.5475 3.21505C14.2554 2.92935 13.7804 2.92817 13.4868 3.21242L11.0003 5.61926L8.5138 3.21242Z" fill="#363853"/>
</svg>
