<svg width="24" height="24" viewBox="0 0 24 24" fill="none" xmlns="http://www.w3.org/2000/svg">
<path d="M20.7364 3.2636C21.0879 3.61508 21.0879 4.18492 20.7364 4.5364L7.99964 17.2732C7.97216 17.3048 7.94263 17.3342 7.91133 17.3615L4.5364 20.7364C4.18492 21.0879 3.61508 21.0879 3.2636 20.7364C2.91213 20.3849 2.91213 19.8151 3.2636 19.4636L5.81572 16.9115C4.75604 16.1634 4.02075 15.0105 3.81067 13.6927L3.80306 13.6451C3.66101 12.754 3.66101 11.846 3.80306 10.9549L3.81067 10.9073C4.09344 9.1335 5.32775 7.65846 7.02388 7.06738C7.91169 6.75799 8.84518 6.6 9.78536 6.6H10.532C10.7415 6.6 10.9423 6.51611 11.0896 6.36705L11.6375 5.81259C13.1962 4.23515 15.5765 4.37497 17.005 5.72219L19.4636 3.2636C19.8151 2.91213 20.3849 2.91213 20.7364 3.2636Z" fill="#363853"/>
<path d="M18.5389 10.1938C18.4865 9.69956 18.0433 9.34136 17.549 9.39379C17.0547 9.44622 16.6965 9.88941 16.7489 10.3837C16.9679 12.4484 16.832 14.5414 16.3411 16.571C15.9666 18.1195 14.0377 18.6556 12.9179 17.5223L12.37 16.9678C11.8846 16.4765 11.2226 16.2 10.532 16.2C10.0349 16.2 9.63197 16.603 9.63197 17.1C9.63197 17.5971 10.0349 18 10.532 18C10.7415 18 10.9424 18.0839 11.0896 18.233L11.6375 18.7874C13.7484 20.9238 17.3847 19.9133 18.0907 16.9941C18.6302 14.7635 18.7796 12.4631 18.5389 10.1938Z" fill="#363853"/>
</svg>
