<svg width="24" height="24" viewBox="0 0 24 24" fill="none" xmlns="http://www.w3.org/2000/svg">
<path d="M11.9216 6.55636C11.7837 6.69312 11.5957 6.7701 11.3995 6.7701H10.7005C9.82028 6.7701 8.94633 6.91506 8.11514 7.19893C6.52719 7.74126 5.3716 9.09465 5.10686 10.7221L5.09975 10.7659C4.96675 11.5835 4.96675 12.4165 5.09975 13.2341L5.10686 13.2779C5.3716 14.9054 6.52719 16.2587 8.11514 16.8011C8.94633 17.0849 9.82029 17.2299 10.7005 17.2299H11.3995C11.5957 17.2299 11.7837 17.3069 11.9216 17.4436L12.4345 17.9524C14.4108 19.9125 17.8152 18.9854 18.4761 16.3069C19.1746 13.4764 19.1746 10.5236 18.4761 7.69307C17.8152 5.01464 14.4108 4.08747 12.4345 6.04763L11.9216 6.55636Z" fill="#363853"/>
</svg>
