<svg width="24" height="24" viewBox="0 0 24 24" fill="none" xmlns="http://www.w3.org/2000/svg">
<path fill-rule="evenodd" clip-rule="evenodd" d="M13.8031 3.30948C12.0439 2.89684 10.2132 2.89684 8.45407 3.30948C5.9014 3.90825 3.90825 5.9014 3.30948 8.45407C2.89684 10.2132 2.89684 12.0439 3.30948 13.8031C3.90825 16.3557 5.9014 18.3489 8.45407 18.9477C10.2132 19.3603 12.0439 19.3603 13.8031 18.9477C14.8355 18.7055 15.7764 18.2352 16.5706 17.5921L19.767 20.7884C20.049 21.0705 20.5064 21.0705 20.7884 20.7884C21.0705 20.5064 21.0705 20.049 20.7884 19.767L17.5921 16.5706C18.2352 15.7764 18.7055 14.8355 18.9477 13.8031C19.3603 12.0439 19.3603 10.2132 18.9477 8.45407C18.3489 5.9014 16.3557 3.90825 13.8031 3.30948ZM11.1286 8.14304C11.4477 8.14304 11.7064 8.40175 11.7064 8.72088V10.5507H13.5362C13.8554 10.5507 14.1141 10.8094 14.1141 11.1286C14.1141 11.4477 13.8554 11.7064 13.5362 11.7064H11.7064L11.7064 13.5362C11.7064 13.8554 11.4477 14.1141 11.1286 14.1141C10.8094 14.1141 10.5507 13.8554 10.5507 13.5362V11.7064H8.72091C8.40178 11.7064 8.14307 11.4477 8.14307 11.1286C8.14307 10.8094 8.40178 10.5507 8.72091 10.5507H10.5507V8.72088C10.5507 8.40175 10.8094 8.14304 11.1286 8.14304Z" fill="#363853"/>
</svg>
