<svg width="155" height="155" viewBox="0 0 155 155" fill="none" xmlns="http://www.w3.org/2000/svg">
<path d="M85.3872 32.8559C76.7603 32.8543 68.3555 35.5911 61.3836 40.672C54.4116 45.753 49.2324 52.9158 46.592 61.1287C43.9516 69.3417 43.9862 78.1807 46.691 86.3727C49.3957 94.5647 54.6309 101.687 61.6425 106.713C61.0571 111.218 62.0792 115.786 64.5292 119.612V136.223H110.303V105.83C117.037 100.634 121.975 93.4609 124.425 85.3164C126.876 77.1718 126.716 68.4645 123.968 60.4155C121.22 52.3664 116.022 45.3793 109.102 40.4339C102.182 35.4885 93.8884 32.8329 85.3831 32.8394L85.3872 32.8559Z" fill="white"/>
<path d="M131.882 86.4403C100.768 -56.2879 -53.593 50.9758 63.5884 116.066C70.5988 119.64 77.8237 123.05 85.263 126.297C89.0102 127.812 92.9511 129.284 97.0859 130.713L132.48 97.3478C132.332 93.6831 132.133 90.0473 131.882 86.4403Z" fill="#FFFACF"/>
<path d="M96.6823 131.109L110.291 118.264V105.83C115.22 102.028 119.21 97.1454 121.954 91.558C124.698 85.9706 126.122 79.8278 126.118 73.603C126.118 72.3659 126.052 71.1287 125.945 69.9328L123.277 58.5677C120.945 52.7016 117.282 47.4574 112.577 43.2489C107.872 39.0403 102.254 35.9824 96.1652 34.3164C90.0764 32.6504 83.6839 32.4218 77.4917 33.6487C71.2996 34.8756 65.4771 37.5244 60.4836 41.3861C55.4901 45.2479 51.4622 50.2171 48.7174 55.9017C45.9727 61.5863 44.5863 67.8308 44.6674 74.1428C44.7486 80.4549 46.2952 86.6617 49.1852 92.2738C52.0753 97.8859 56.2297 102.75 61.3209 106.482L62.7931 107.509C63.3663 107.888 63.9436 108.259 64.5374 108.614V108.721L96.6823 131.109Z" fill="#FFFEF2"/>
<path d="M66.2768 109.933C62.2177 102.207 60.7462 93.3816 62.0789 84.7562C63.4115 76.1308 67.4779 68.161 73.6795 62.0199C79.8811 55.8788 87.8904 51.8907 96.5284 50.6427C105.166 49.3946 113.977 50.9525 121.663 55.0871C118.868 49.6042 114.868 44.8257 109.962 41.1102C105.056 37.3948 99.372 34.839 93.3368 33.6347C87.3017 32.4305 81.0721 32.609 75.1159 34.157C69.1596 35.705 63.6314 38.5821 58.9463 42.5725C54.2611 46.5628 50.5408 51.5627 48.0646 57.1966C45.5885 62.8306 44.4208 68.9524 44.6492 75.1023C44.8776 81.2521 46.4962 87.2704 49.3835 92.7052C52.2708 98.1399 56.3517 102.85 61.32 106.482L62.7922 107.509C63.3654 107.888 63.9427 108.259 64.5365 108.614V108.721L66.2768 109.933Z" fill="#FFF48C"/>
<path d="M64.5369 119.62V136.223M110.307 136.223V105.83C117.082 100.592 122.035 93.3521 124.461 85.1387C126.888 76.9254 126.665 68.1563 123.824 60.077C120.983 51.9978 115.668 45.019 108.635 40.1321C101.602 35.2451 93.2078 32.6985 84.645 32.8537C76.0821 33.009 67.7859 35.8584 60.9346 40.9972C54.0834 46.1359 49.0255 53.3027 46.4792 61.4797C43.933 69.6567 44.028 78.4281 46.7506 86.5481C49.4733 94.668 54.6852 101.724 61.6461 106.713" stroke="#45413C" stroke-width="2.42" stroke-linecap="round" stroke-linejoin="round"/>
<path d="M28.043 67.2648C28.043 65.5616 29.4162 64.1843 30.8306 64.2214L45.6763 64.2008C50.4928 46.4685 66.5426 33.359 85.677 33.3343C95.8502 33.3216 105.666 37.0875 113.22 43.9017C120.774 50.7158 125.528 60.0925 126.56 70.2133L87.6481 70.2627L49.7753 70.3122L31.1523 70.337C30.7457 70.3419 30.3422 70.266 29.9652 70.1139C29.5882 69.9617 29.2451 69.7361 28.9559 69.4504C28.6667 69.1646 28.437 68.8243 28.2803 68.4491C28.1236 68.0739 28.0429 67.6713 28.043 67.2648Z" fill="#EF233C"/>
<path d="M104.536 65.1286C104.536 64.3199 104.376 63.5192 104.065 62.7724C103.755 62.0256 103.301 61.3473 102.728 60.7762C102.156 60.2052 101.476 59.7526 100.728 59.4444C99.9807 59.1362 99.1797 58.9784 98.371 58.98C94.2142 58.98 92.2224 61.846 92.2266 65.145L104.536 65.1286Z" fill="white"/>
<path d="M81.543 33.3342C81.543 34.4225 81.9753 35.4661 82.7448 36.2356C83.5143 37.0051 84.5579 37.4374 85.6461 37.4374C86.7344 37.4374 87.778 37.0051 88.5475 36.2356C89.317 35.4661 89.7493 34.4225 89.7493 33.3342C89.7493 32.246 89.317 31.2024 88.5475 30.4329C87.778 29.6634 86.7344 29.2311 85.6461 29.2311C84.5579 29.2311 83.5143 29.6634 82.7448 30.4329C81.9753 31.2024 81.543 32.246 81.543 33.3342Z" fill="#EF233C" stroke="#45413C" stroke-width="2.42" stroke-linecap="round" stroke-linejoin="round"/>
<path d="M122.546 56.2996C119.162 49.4009 113.909 43.5908 107.386 39.5307C100.862 35.4706 93.3297 33.3236 85.6459 33.3343C69.6498 33.3343 55.8103 42.5303 48.8906 55.9161C53.6135 50.8621 59.3306 46.8395 65.6827 44.1011C72.0349 41.3627 78.8848 39.9676 85.8019 40.0037C92.7191 40.0397 99.5541 41.506 105.877 44.3104C112.201 47.1148 117.876 51.1967 122.546 56.2996Z" fill="#FF866E"/>
<path d="M31.1211 70.337L49.7441 70.3122L87.6169 70.2627L126.529 70.2133C125.497 60.0925 120.742 50.7158 113.188 43.9017C105.634 37.0875 95.819 33.3216 85.6457 33.3343C66.5279 33.359 50.4781 46.4561 45.645 64.2008L30.7994 64.2214C29.3849 64.1843 28.0117 65.5616 28.0117 67.2648C28.0117 67.6713 28.0924 68.0739 28.2491 68.4491C28.4058 68.8243 28.6354 69.1646 28.9246 69.4504C29.2139 69.7361 29.5569 69.9617 29.934 70.1139C30.311 70.266 30.7145 70.3419 31.1211 70.337ZM92.2273 65.1286C92.2273 61.8296 94.2149 58.9677 98.3717 58.9636C99.1818 58.9619 99.9842 59.1203 100.733 59.4295C101.482 59.7388 102.162 60.1928 102.735 60.7656C103.308 61.3384 103.762 62.0187 104.071 62.7674C104.38 63.5162 104.538 64.3186 104.537 65.1286H92.2273Z" stroke="#45413C" stroke-width="2.42" stroke-linecap="round" stroke-linejoin="round"/>
<path d="M92.2284 65.1285H89.6635C89.1166 65.1285 88.5922 65.3458 88.2055 65.7325C87.8188 66.1191 87.6016 66.6436 87.6016 67.1904V70.2668" stroke="#45413C" stroke-width="2.42" stroke-linecap="round" stroke-linejoin="round"/>
<path d="M45.168 67.0049C45.337 66.0729 45.4319 65.112 45.6628 64.2007Z" fill="white"/>
<path d="M45.168 67.0049C45.337 66.0729 45.4319 65.112 45.6628 64.2007" stroke="#45413C" stroke-width="2.42" stroke-linecap="round" stroke-linejoin="round"/>
<path d="M128.969 129.196C128.894 129.723 128.632 130.205 128.231 130.554C127.829 130.903 127.315 131.096 126.783 131.097H96.6797L101.335 96.5848H130.812C131.129 96.5859 131.441 96.6547 131.729 96.7866C132.016 96.9185 132.272 97.1105 132.479 97.3496C132.686 97.5887 132.84 97.8695 132.929 98.1729C133.019 98.4763 133.042 98.7954 132.998 99.1086L128.969 129.196Z" fill="#F0F0F0" stroke="#45413C" stroke-width="2.42" stroke-linecap="round" stroke-linejoin="round"/>
<path d="M101.335 96.5848L96.6797 131.109H97.191C98.0289 131.109 98.8387 130.807 99.4714 130.258C100.104 129.708 100.517 128.949 100.634 128.119L104.371 100.078C104.432 99.6431 104.399 99.2004 104.275 98.7794C104.151 98.3585 103.937 97.9692 103.65 97.6377C103.362 97.3063 103.007 97.0404 102.607 96.858C102.208 96.6757 101.774 96.5811 101.335 96.5807V96.5848Z" fill="#BDBEC0" stroke="#45413C" stroke-width="2.42" stroke-linecap="round" stroke-linejoin="round"/>
<path d="M76.3755 115.253C79.9137 120.639 83.6416 122.462 94.3428 116.754C94.9741 116.395 95.6709 116.166 96.3922 116.08C97.1135 115.995 97.8447 116.055 98.5424 116.257C99.2401 116.459 99.8903 116.798 100.455 117.256C101.019 117.713 101.486 118.279 101.827 118.92C102.169 119.561 102.379 120.264 102.445 120.987C102.51 121.711 102.43 122.44 102.209 123.132C101.988 123.824 101.631 124.464 101.158 125.016C100.685 125.567 100.106 126.018 99.4563 126.342C96.9202 127.691 84.6354 135.992 71.5878 126.886C63.699 121.381 60.6804 113.637 61.6412 106.713" fill="white"/>
<path d="M76.3755 115.253C79.9137 120.639 83.6416 122.462 94.3428 116.754C94.9741 116.395 95.6709 116.166 96.3922 116.08C97.1135 115.995 97.8447 116.055 98.5424 116.257C99.2401 116.459 99.8903 116.798 100.455 117.256C101.019 117.713 101.486 118.279 101.827 118.92C102.169 119.561 102.379 120.264 102.445 120.987C102.51 121.711 102.43 122.44 102.209 123.132C101.988 123.824 101.631 124.464 101.158 125.016C100.685 125.567 100.106 126.018 99.4563 126.342C96.9202 127.691 84.6354 135.992 71.5878 126.886C63.699 121.381 60.6804 113.637 61.6412 106.713" stroke="#45413C" stroke-width="2.42" stroke-linecap="round" stroke-linejoin="round"/>
<path d="M123.746 119.501C123.746 120.214 123.887 120.92 124.16 121.579C124.432 122.238 124.832 122.837 125.337 123.341C125.841 123.845 126.44 124.245 127.099 124.518C127.758 124.791 128.464 124.932 129.177 124.932C129.89 124.932 130.597 124.791 131.255 124.518C131.914 124.245 132.513 123.845 133.017 123.341C133.522 122.837 133.922 122.238 134.195 121.579C134.468 120.92 134.608 120.214 134.608 119.501C134.608 118.06 134.036 116.679 133.017 115.66C131.999 114.642 130.618 114.07 129.177 114.07C127.737 114.07 126.355 114.642 125.337 115.66C124.318 116.679 123.746 118.06 123.746 119.501Z" fill="white" stroke="#45413C" stroke-width="2.42" stroke-linecap="round" stroke-linejoin="round"/>
<path d="M65.6055 71.4379C65.6055 74.7518 66.9219 77.93 69.2652 80.2733C71.6085 82.6166 74.7866 83.933 78.1005 83.933C81.4144 83.933 84.5926 82.6166 86.9359 80.2733C89.2792 77.93 90.5956 74.7518 90.5956 71.4379C90.5956 68.124 89.2792 64.9459 86.9359 62.6026C84.5926 60.2593 81.4144 58.9429 78.1005 58.9429C74.7866 58.9429 71.6085 60.2593 69.2652 62.6026C66.9219 64.9459 65.6055 68.124 65.6055 71.4379Z" fill="white" stroke="#45413C" stroke-width="2.42" stroke-linecap="round" stroke-linejoin="round"/>
<path d="M102.031 71.4379C102.031 74.7518 103.348 77.93 105.691 80.2733C108.034 82.6166 111.212 83.933 114.526 83.933C117.84 83.933 121.018 82.6166 123.362 80.2733C125.705 77.93 127.021 74.7518 127.021 71.4379C127.021 68.124 125.705 64.9459 123.362 62.6026C121.018 60.2593 117.84 58.9429 114.526 58.9429C111.212 58.9429 108.034 60.2593 105.691 62.6026C103.348 64.9459 102.031 68.124 102.031 71.4379Z" fill="white" stroke="#45413C" stroke-width="2.42" stroke-linecap="round" stroke-linejoin="round"/>
<path d="M98.316 87.5043C98.3315 87.9388 98.2594 88.3721 98.1038 88.7781C97.9482 89.1841 97.7124 89.5547 97.4104 89.8676C97.1085 90.1805 96.7466 90.4294 96.3464 90.5994C95.9461 90.7693 95.5158 90.8569 95.0809 90.8569C94.6461 90.8569 94.2157 90.7693 93.8155 90.5994C93.4152 90.4294 93.0533 90.1805 92.7514 89.8676C92.4495 89.5547 92.2137 89.1841 92.0581 88.7781C91.9025 88.3721 91.8303 87.9388 91.8458 87.5043V84.2671C92.838 84.8089 93.9504 85.0928 95.0809 85.0928C96.2114 85.0928 97.3238 84.8089 98.316 84.2671V87.5043Z" fill="#FFA694" stroke="#45413C" stroke-width="2.42" stroke-linecap="round" stroke-linejoin="round"/>
<path d="M73.8672 76.102C73.8672 77.8322 74.5545 79.4915 75.778 80.715C77.0014 81.9385 78.6608 82.6258 80.391 82.6258C82.1212 82.6258 83.7806 81.9385 85.0041 80.715C86.2275 79.4915 86.9148 77.8322 86.9148 76.102C86.9148 74.3717 86.2275 72.7124 85.0041 71.4889C83.7806 70.2655 82.1212 69.5781 80.391 69.5781C78.6608 69.5781 77.0014 70.2655 75.778 71.4889C74.5545 72.7124 73.8672 74.3717 73.8672 76.102Z" fill="#45413C"/>
<path d="M84.0999 73.1782C85.1886 74.4153 85.5267 75.904 84.8628 76.4772C84.1989 77.0504 83.5556 75.8875 82.471 74.6421C81.3864 73.3967 80.2689 72.5431 80.9328 71.9658C81.5968 71.3884 82.9988 71.9287 84.0999 73.1782ZM76.8132 79.8504C76.5489 79.5356 76.42 79.1289 76.4548 78.7193C76.4896 78.3097 76.6851 77.9306 76.9987 77.6648C77.6503 77.0751 77.8771 77.7514 78.4338 78.3659C78.9905 78.9803 79.6709 79.302 79.0029 79.8917C78.8565 80.033 78.6838 80.1441 78.4944 80.2185C78.3051 80.293 78.1029 80.3293 77.8995 80.3255C77.6961 80.3217 77.4954 80.2777 77.309 80.1962C77.1226 80.1147 76.9541 79.9972 76.8132 79.8504Z" fill="#FFFACF"/>
<path d="M109.09 76.102C109.09 77.8322 109.777 79.4915 111.001 80.715C112.224 81.9385 113.883 82.6258 115.614 82.6258C117.344 82.6258 119.003 81.9385 120.227 80.715C121.45 79.4915 122.137 77.8322 122.137 76.102C122.137 74.3717 121.45 72.7124 120.227 71.4889C119.003 70.2655 117.344 69.5781 115.614 69.5781C113.883 69.5781 112.224 70.2655 111.001 71.4889C109.777 72.7124 109.09 74.3717 109.09 76.102Z" fill="#45413C"/>
<path d="M119.306 73.1782C120.391 74.4153 120.733 75.904 120.069 76.4772C119.405 77.0504 118.762 75.8875 117.677 74.6421C116.593 73.3967 115.475 72.5431 116.139 71.9658C116.803 71.3884 118.222 71.9287 119.306 73.1782ZM112.036 79.8504C111.772 79.5357 111.643 79.1296 111.677 78.7203C111.711 78.3111 111.905 77.9318 112.217 77.6648C112.873 77.0751 113.1 77.7514 113.652 78.3659C114.205 78.9803 114.89 79.302 114.226 79.8917C114.079 80.033 113.906 80.1441 113.717 80.2185C113.528 80.293 113.326 80.3293 113.122 80.3255C112.919 80.3217 112.718 80.2777 112.532 80.1962C112.345 80.1147 112.177 79.9972 112.036 79.8504Z" fill="#FFFACF"/>
<path d="M61.6406 106.713C63.9042 108.342 66.3294 109.733 68.8779 110.866M90.9319 113.979C93.775 113.588 96.5687 112.897 99.266 111.917" stroke="#45413C" stroke-width="2.42" stroke-linecap="round" stroke-linejoin="round"/>
<path d="M117.182 38.1467L112.926 27.264M51.6013 35.9982L45.7249 29.528M34.768 53.4954L22.6029 41.5736M38.5124 77.867L33.8525 74.1845M38.9248 96.7168L20.9492 82.5227" stroke="#FFDA8F" stroke-width="2.42" stroke-miterlimit="10" stroke-linecap="round"/>
<path d="M6.75 60.5388C12.1645 60.4852 16.61 65.8997 16.6759 72.6669C16.61 65.9162 20.9441 60.3986 26.3668 60.345C20.9523 60.3986 16.511 54.9841 16.4409 48.217C16.5027 54.9676 12.1645 60.4852 6.75 60.5388ZM61.5262 23.4083C64.883 23.3753 67.6335 26.7444 67.6748 30.9259C67.6335 26.7444 70.3223 23.3258 73.6749 23.2928C70.3223 23.3258 67.5676 19.9608 67.5263 15.7751C67.5676 19.9608 64.883 23.3753 61.5262 23.4083ZM133.717 86.7867C137.074 86.7537 139.829 90.1229 139.87 94.3044C139.829 90.1229 142.513 86.7001 145.866 86.6671C142.513 86.7001 139.759 83.3351 139.717 79.1536C139.771 83.3351 137.074 86.7537 133.717 86.7867Z" fill="#FFE500" stroke="#EBCB00" stroke-width="2.42" stroke-linecap="round" stroke-linejoin="round"/>
</svg>
