<svg width="155" height="155" viewBox="0 0 155 155" fill="none" xmlns="http://www.w3.org/2000/svg">
<path d="M122.529 66.172C122.529 66.172 110.426 79.9949 112.578 117.501H90.9819C93.1346 80.0155 81.0312 66.1926 81.0312 66.1926L122.529 66.172Z" fill="#FF512E"/>
<path d="M112.298 75.4051C112.298 75.4051 107.222 79.9949 108.587 117.468H94.9782C96.3308 79.9825 92.5039 78.5227 92.5039 78.5227C101.44 78.7371 103.89 71.8751 103.89 71.8751C103.89 71.8751 108.108 77.4422 112.298 75.4051Z" fill="#FF8A14"/>
<path d="M122.529 66.172C122.529 66.172 110.426 79.9949 112.578 117.501H90.9819C93.1346 80.0155 81.0312 66.1926 81.0312 66.1926L122.529 66.172Z" stroke="#E04122" stroke-width="2.42" stroke-linecap="round" stroke-linejoin="round"/>
<path d="M142.027 49.3057C142.477 46.9516 142.401 44.5273 141.804 42.2061C141.208 39.8848 140.107 37.7239 138.579 35.8778C137.05 34.0317 135.133 32.5459 132.964 31.5266C130.795 30.5074 128.428 29.9798 126.031 29.9816C125.324 29.9823 124.617 30.0292 123.916 30.1218C122.67 26.4336 120.379 23.187 117.322 20.7772C114.265 18.3674 110.573 16.8983 106.696 16.5488C102.818 16.1992 98.9232 16.9842 95.4842 18.8083C92.0451 20.6324 89.2105 23.4169 87.3253 26.8228C84.874 25.988 82.259 25.7499 79.6972 26.1281C77.1354 26.5063 74.7007 27.49 72.5953 28.9976C70.4898 30.5051 68.7742 32.4931 67.5908 34.7964C66.4074 37.0997 65.7904 39.6521 65.7909 42.2416C65.7909 42.5798 65.7909 42.9138 65.8239 43.2478C63.5755 44.0852 61.5399 45.409 59.8627 47.1247C58.1855 48.8403 56.9081 50.9053 56.1219 53.1721C55.3356 55.4389 55.06 57.8514 55.3146 60.2371C55.5693 62.6228 56.348 64.9227 57.5949 66.9725C58.8419 69.0222 60.5264 70.7711 62.528 72.0941C64.5295 73.417 66.7987 74.2814 69.1732 74.6253C71.5476 74.9692 73.9688 74.7842 76.2634 74.0835C78.5581 73.3828 80.6696 72.1837 82.4469 70.572C83.8761 72.1476 85.6727 73.3455 87.6767 74.0592C89.6807 74.7729 91.83 74.9802 93.9335 74.6627C96.037 74.3451 98.0293 73.5127 99.7334 72.2393C101.437 70.9658 102.8 69.291 103.701 67.3637C104.706 68.9785 106.057 70.3508 107.655 71.3824C109.253 72.4139 111.06 73.079 112.945 73.3301C114.831 73.5811 116.749 73.4119 118.561 72.8346C120.374 72.2572 122.036 71.286 123.429 69.9906C124.745 71.4294 126.348 72.577 128.134 73.3595C129.921 74.142 131.851 74.5421 133.801 74.5341C135.751 74.5262 137.678 74.1103 139.458 73.3132C141.237 72.5162 142.831 71.3556 144.135 69.906C145.44 68.4565 146.426 66.75 147.032 64.8964C147.638 63.0427 147.849 61.0828 147.652 59.1427C147.455 57.2025 146.854 55.3251 145.888 53.631C144.923 51.9368 143.613 50.4635 142.044 49.3057H142.027Z" fill="#FF8A14"/>
<path d="M143.766 50.8315C143.687 53.1216 142.993 55.3481 141.758 57.2782C140.522 59.2082 138.791 60.7708 136.745 61.8023C134.699 62.8338 132.413 63.2963 130.127 63.1416C127.84 62.9868 125.638 62.2203 123.749 60.9224C123.088 60.4684 122.313 60.2078 121.512 60.1699C120.71 60.132 119.914 60.3183 119.213 60.708C116.9 61.9794 114.228 62.4437 111.621 62.0276C110.733 63.3431 109.557 64.4392 108.183 65.2327C106.808 66.0261 105.271 66.4961 103.687 66.607C102.104 66.7179 100.516 66.4667 99.0441 65.8726C97.5722 65.2785 96.2549 64.3571 95.1922 63.1781C93.6571 63.5003 92.0732 63.5131 90.5331 63.2157C88.993 62.9183 87.5277 62.3167 86.223 61.4461C85.5461 60.9936 84.7546 60.7426 83.9407 60.7221C83.1267 60.7017 82.3237 60.9127 81.6249 61.3306C79.3619 62.6787 76.782 63.403 74.1481 63.4299C71.5141 63.4568 68.92 62.7852 66.6299 61.4837C64.3398 60.1821 62.4355 58.297 61.1108 56.0202C59.7861 53.7434 59.0883 51.1563 59.0884 48.5222V47.9283C56.2992 51.0643 54.8287 55.1563 54.9838 59.3503C55.1389 63.5444 56.9077 67.5165 59.9211 70.4378C62.9344 73.3591 66.9595 75.0039 71.1564 75.0289C75.3532 75.0539 79.3976 73.4572 82.4456 70.572C83.8748 72.1476 85.6714 73.3456 87.6754 74.0592C89.6794 74.7729 91.8287 74.9802 93.9322 74.6627C96.0356 74.3452 98.028 73.5127 99.7321 72.2393C101.436 70.9659 102.799 69.291 103.7 67.3637C104.705 68.9785 106.055 70.3509 107.654 71.3824C109.252 72.4139 111.058 73.079 112.944 73.3301C114.83 73.5812 116.747 73.412 118.56 72.8346C120.372 72.2572 122.035 71.286 123.428 69.9906C124.675 71.3704 126.184 72.4876 127.868 73.2767C129.552 74.0658 131.377 74.511 133.235 74.5861C135.093 74.6613 136.948 74.3649 138.69 73.7144C140.432 73.0638 142.027 72.0722 143.381 70.7975C144.736 69.5229 145.822 67.9908 146.577 66.2911C147.331 64.5914 147.739 62.7582 147.777 60.8988C147.814 59.0394 147.48 57.1913 146.794 55.4626C146.108 53.734 145.085 52.1595 143.783 50.8315H143.766Z" fill="#FFAA54"/>
<path d="M95.451 27.1898C94.5532 26.6437 93.5566 26.2799 92.5181 26.119C91.4797 25.9582 90.4197 26.0035 89.3987 26.2525C88.3778 26.5014 87.4159 26.949 86.568 27.5697C85.7201 28.1905 85.0028 28.9722 84.457 29.8702M120.8 36.724C124.264 36.724 127.586 38.0999 130.035 40.5492C132.484 42.9984 133.86 46.3203 133.86 49.784M110.354 63.5739C108.396 65.5326 105.739 66.6329 102.969 66.6329C100.199 66.6329 97.5419 65.5326 95.583 63.5739" stroke="#E04122" stroke-width="2.42" stroke-linecap="round" stroke-linejoin="round"/>
<path d="M142.027 49.3057C142.477 46.9516 142.401 44.5273 141.804 42.2061C141.208 39.8848 140.107 37.7239 138.579 35.8778C137.05 34.0317 135.133 32.5459 132.964 31.5266C130.795 30.5074 128.428 29.9798 126.031 29.9816C125.324 29.9823 124.617 30.0292 123.916 30.1218C122.67 26.4336 120.379 23.187 117.322 20.7772C114.265 18.3674 110.573 16.8983 106.696 16.5488C102.818 16.1992 98.9232 16.9842 95.4842 18.8083C92.0451 20.6324 89.2105 23.4169 87.3253 26.8228C84.874 25.988 82.259 25.7499 79.6972 26.1281C77.1354 26.5063 74.7007 27.49 72.5953 28.9976C70.4898 30.5051 68.7742 32.4931 67.5908 34.7964C66.4074 37.0997 65.7904 39.6521 65.7909 42.2416C65.7909 42.5798 65.7909 42.9138 65.8239 43.2478C63.5755 44.0852 61.5399 45.409 59.8627 47.1247C58.1855 48.8403 56.9081 50.9053 56.1219 53.1721C55.3356 55.4389 55.06 57.8514 55.3146 60.2371C55.5693 62.6228 56.348 64.9227 57.5949 66.9725C58.8419 69.0222 60.5264 70.7711 62.528 72.0941C64.5295 73.417 66.7987 74.2814 69.1732 74.6253C71.5476 74.9692 73.9688 74.7842 76.2634 74.0835C78.5581 73.3828 80.6696 72.1837 82.4469 70.572C83.8761 72.1476 85.6727 73.3455 87.6767 74.0592C89.6807 74.7729 91.83 74.9802 93.9335 74.6627C96.037 74.3451 98.0293 73.5127 99.7334 72.2393C101.437 70.9658 102.8 69.291 103.701 67.3637C104.706 68.9785 106.057 70.3508 107.655 71.3824C109.253 72.4139 111.06 73.079 112.945 73.3301C114.831 73.5811 116.749 73.4119 118.561 72.8346C120.374 72.2572 122.036 71.286 123.429 69.9906C124.745 71.4294 126.348 72.577 128.134 73.3595C129.921 74.142 131.851 74.5421 133.801 74.5341C135.751 74.5262 137.678 74.1103 139.458 73.3132C141.237 72.5162 142.831 71.3556 144.135 69.906C145.44 68.4565 146.426 66.75 147.032 64.8964C147.638 63.0427 147.849 61.0828 147.652 59.1427C147.455 57.2025 146.854 55.3251 145.888 53.631C144.923 51.9368 143.613 50.4635 142.044 49.3057H142.027Z" stroke="#E04122" stroke-width="2.42" stroke-linecap="round" stroke-linejoin="round"/>
<path d="M66.0108 49.784C65.882 48.8241 65.9436 47.8482 66.192 46.9121C66.4404 45.976 66.8709 45.098 67.4587 44.3283C68.0465 43.5586 68.7802 42.9122 69.6179 42.4261C70.4556 41.94 71.3809 41.6237 72.3408 41.4952" stroke="#E04122" stroke-width="2.42" stroke-linecap="round" stroke-linejoin="round"/>
<path d="M84.5746 121.773C74.5868 123.802 65.6052 126.058 65.3454 127.641C64.7557 131.233 67.9846 132.474 67.9846 132.474H85.6963L84.4591 136.157H114.715C122.348 131.452 120.542 121.055 112.814 117.427L84.5746 121.773Z" fill="white"/>
<path d="M114.731 136.169C122.364 131.464 120.558 121.068 112.83 117.439L84.574 121.773C74.5862 123.802 65.6046 126.058 65.3448 127.641C64.7551 131.233 67.984 132.474 67.984 132.474H85.6956L84.4585 136.157M40.1484 136.169H110.838" stroke="#45413C" stroke-width="2.42" stroke-linecap="round" stroke-linejoin="round"/>
<path d="M92.8106 124.206C92.7787 124.14 92.765 124.067 92.7709 123.994C92.7767 123.92 92.802 123.85 92.844 123.79C92.886 123.73 92.9432 123.682 93.0098 123.652C93.0765 123.621 93.15 123.609 93.223 123.616C95.9471 123.796 98.6821 123.518 101.314 122.791C101.386 122.772 101.461 122.771 101.533 122.791C101.605 122.811 101.67 122.849 101.722 122.903C101.773 122.957 101.809 123.023 101.826 123.096C101.843 123.169 101.84 123.244 101.817 123.315C101.376 124.688 100.167 127.526 97.5818 127.761C94.9962 127.996 93.4127 125.451 92.8106 124.206Z" fill="#E0E0E0"/>
<path d="M79.3559 119.183C78.9435 118.358 78.1476 115.975 81.657 112.997C85.1663 110.02 88.5808 113.063 88.5808 113.063C88.5808 113.063 86.1313 105.896 94.2139 103.043C102.297 100.189 107.299 108.465 107.299 108.465C107.299 108.465 107.604 106.746 108.994 107.125C110.495 107.538 109.897 109.187 109.897 109.187C109.897 109.187 114.721 101.847 120.144 106.643C125.567 111.439 121.068 116.239 121.068 116.239C121.068 116.239 123.13 114.742 124.202 116.581C124.948 117.868 123.212 118.767 123.212 118.767C123.212 118.767 124.998 121.018 120.235 122.086C115.765 123.093 113.707 119.752 113.707 119.752C113.707 119.752 114.631 123.27 110.024 124.288C104.589 125.493 103.604 120.717 103.604 120.717C103.604 120.717 103.69 121.983 101.991 122.408C99.4222 123.047 98.5562 121.072 98.5562 121.072C98.5562 121.072 98.7666 125.175 94.1809 124.759C89.8386 124.346 90.0241 120.185 90.0241 120.185C89.7026 120.761 89.2336 121.24 88.6654 121.574C88.0972 121.908 87.4503 122.085 86.7911 122.086C81.624 122.383 80.2302 120.919 79.3559 119.183Z" fill="#F0F0F0" stroke="#45413C" stroke-width="2.42" stroke-linecap="round" stroke-linejoin="round"/>
<path d="M104.993 117.501C105.046 117.289 105.012 117.065 104.9 116.878C104.788 116.691 104.606 116.556 104.395 116.503L102.457 116.016C102.246 115.963 102.023 115.996 101.836 116.108C101.649 116.219 101.513 116.399 101.459 116.61L97.8672 130.862L101.397 131.752L104.993 117.501Z" fill="#525252" stroke="#45413C" stroke-width="2.42" stroke-linecap="round" stroke-linejoin="round"/>
<path d="M109.253 128.276C106.172 130.338 94.4771 126.903 93.1409 131.748C91.7059 136.882 97.2524 138.532 104.865 138.532C113.009 138.532 117.484 135.208 119.018 131.109" fill="white"/>
<path d="M109.253 128.276C106.172 130.338 94.4771 126.903 93.1409 131.748C91.7059 136.882 97.2524 138.532 104.865 138.532C113.009 138.532 117.484 135.208 119.018 131.109" stroke="#45413C" stroke-width="2.42" stroke-linecap="round" stroke-linejoin="round"/>
<path d="M51.1749 127.501C51.2074 127.365 51.2849 127.243 51.3949 127.156C51.5049 127.07 51.641 127.022 51.7811 127.022H79.6084V131.014H51.1543C51.0607 131.014 50.9684 130.993 50.8842 130.952C50.8 130.912 50.7261 130.852 50.6682 130.779C50.6102 130.705 50.5697 130.62 50.5496 130.528C50.5295 130.437 50.5304 130.342 50.5522 130.251L51.1749 127.501Z" fill="#BDBEC0" stroke="#45413C" stroke-width="2.42" stroke-linecap="round" stroke-linejoin="round"/>
<path d="M74.1449 127.501C74.1773 127.365 74.2548 127.243 74.3648 127.156C74.4748 127.07 74.6109 127.022 74.751 127.022H83.4481C83.5882 127.022 83.7243 127.07 83.8343 127.156C83.9443 127.243 84.0218 127.365 84.0543 127.501L84.6976 130.251C84.7196 130.343 84.7203 130.438 84.6995 130.529C84.6788 130.621 84.6372 130.706 84.578 130.779C84.52 130.853 84.446 130.912 84.3617 130.953C84.2775 130.993 84.185 131.014 84.0914 131.014H73.3242L74.1449 127.501Z" fill="#87898C" stroke="#45413C" stroke-width="2.42" stroke-linecap="round" stroke-linejoin="round"/>
<path d="M50.1357 122.684L35.8468 126.07C35.6821 126.107 35.511 126.104 35.3477 126.061C35.1843 126.019 35.0333 125.939 34.9069 125.827C34.7806 125.715 34.6826 125.575 34.6209 125.418C34.5592 125.261 34.5355 125.091 34.5519 124.924L34.9643 120.544C34.9869 120.321 35.0786 120.112 35.2265 119.944C35.3744 119.776 35.5711 119.658 35.7891 119.608L48.6965 116.548L50.1357 122.684Z" fill="#BDBEC0" stroke="#45413C" stroke-width="2.42" stroke-linecap="round" stroke-linejoin="round"/>
<path d="M78.3217 103.529C78.4517 104.078 78.3584 104.657 78.0622 105.137C77.766 105.617 77.2912 105.96 76.7422 106.09L67.5998 108.255L57.3398 65.0668L66.4823 62.8977C67.0312 62.7687 67.6089 62.8626 68.0888 63.1586C68.5688 63.4546 68.9119 63.9287 69.0431 64.4771L78.3217 103.529Z" fill="#87898C" stroke="#45413C" stroke-width="2.42" stroke-linecap="round" stroke-linejoin="round"/>
<path d="M7.91937 76.7812L61.4062 64.098C61.4062 64.098 63.4767 63.6071 63.9676 65.6775L73.2274 104.727C73.2274 104.727 73.7184 106.798 71.6479 107.289L18.1611 119.972C18.1611 119.972 16.0906 120.463 15.5996 118.392L6.33987 79.3427C6.33987 79.3427 5.84891 77.2722 7.91937 76.7812Z" fill="#F0F0F0"/>
<path d="M64.3975 67.5204L63.9604 65.6812C63.8964 65.4095 63.7794 65.1531 63.6163 64.9267C63.4531 64.7002 63.2469 64.5082 63.0094 64.3615C62.772 64.2148 62.5079 64.1164 62.2324 64.0718C61.9569 64.0272 61.6752 64.0374 61.4037 64.1018L7.91406 76.7824C7.36507 76.9126 6.89029 77.2556 6.59411 77.7358C6.29792 78.216 6.2046 78.7942 6.33465 79.3433L6.77177 81.1784L64.3975 67.5204Z" fill="white"/>
<path d="M7.91937 76.7812L61.4062 64.098C61.4062 64.098 63.4767 63.6071 63.9676 65.6775L73.2274 104.727C73.2274 104.727 73.7184 106.798 71.6479 107.289L18.1611 119.972C18.1611 119.972 16.0906 120.463 15.5996 118.392L6.33987 79.3427C6.33987 79.3427 5.84891 77.2722 7.91937 76.7812Z" stroke="#45413C" stroke-width="2.42" stroke-linecap="round" stroke-linejoin="round"/>
<path d="M51.1295 115.979L44.5933 95.0096C44.2768 93.9777 43.5793 93.105 42.6425 92.5688C41.7057 92.0327 40.6 91.8732 39.5499 92.1229L36.9684 92.758C35.9211 93.0067 35.0072 93.6434 34.411 94.5397C33.8148 95.4359 33.5807 96.5249 33.756 97.5869L37.9829 123.249C38.031 123.537 38.1376 123.811 38.2961 124.056C38.4546 124.301 38.6616 124.511 38.9043 124.672C39.147 124.834 39.4203 124.944 39.7073 124.996C39.9942 125.047 40.2887 125.04 40.5726 124.973L65.0514 119.15C65.2209 119.11 65.3781 119.029 65.5088 118.914C65.6396 118.799 65.74 118.654 65.8012 118.491C65.8623 118.328 65.8824 118.152 65.8595 117.979C65.8366 117.807 65.7715 117.642 65.67 117.501L63.4843 113.736C63.36 113.565 63.188 113.435 62.9899 113.361C62.7918 113.288 62.5765 113.275 62.3709 113.323L51.1295 115.979Z" fill="#E0E0E0" stroke="#45413C" stroke-width="2.42" stroke-linecap="round" stroke-linejoin="round"/>
<path d="M51.1328 115.979L51.706 117.839M56.1432 114.791L58.8938 120.606" stroke="#45413C" stroke-width="2.42" stroke-linecap="round" stroke-linejoin="round"/>
<path d="M38.8594 108.849C38.8594 109.694 39.1952 110.505 39.793 111.103C40.3908 111.701 41.2016 112.037 42.0471 112.037C42.8925 112.037 43.7033 111.701 44.3011 111.103C44.8989 110.505 45.2347 109.694 45.2347 108.849C45.2347 108.43 45.1523 108.016 44.9921 107.629C44.8319 107.242 44.5971 106.891 44.3011 106.595C44.0051 106.299 43.6537 106.064 43.2669 105.904C42.8802 105.744 42.4657 105.661 42.0471 105.661C41.6284 105.661 41.2139 105.744 40.8272 105.904C40.4404 106.064 40.089 106.299 39.793 106.595C39.497 106.891 39.2622 107.242 39.102 107.629C38.9418 108.016 38.8594 108.43 38.8594 108.849Z" fill="white" stroke="#45413C" stroke-width="2.42" stroke-linecap="round" stroke-linejoin="round"/>
<path d="M19.3504 115.006L18.3359 110.729M22.7278 114.206L21.7133 109.929M26.1051 113.406L25.0948 109.129" stroke="#45413C" stroke-width="2.42" stroke-linecap="round" stroke-linejoin="round"/>
<path d="M130.346 112.07C130.553 112.907 131.037 113.649 131.72 114.176C132.402 114.703 133.243 114.984 134.105 114.973C134.967 114.962 135.801 114.66 136.469 114.116C137.138 113.571 137.603 112.817 137.789 111.975C138.424 112.111 139.084 112.084 139.706 111.895C140.327 111.706 140.89 111.361 141.342 110.894C141.793 110.427 142.118 109.852 142.286 109.225C142.454 108.597 142.459 107.937 142.301 107.307C142.159 106.714 141.876 106.165 141.476 105.707C141.812 104.973 141.865 104.141 141.623 103.371C141.382 102.602 140.864 101.949 140.169 101.538C139.474 101.128 138.652 100.99 137.862 101.151C137.071 101.311 136.368 101.759 135.888 102.408C135.144 102.211 134.359 102.243 133.634 102.5C132.908 102.756 132.277 103.226 131.823 103.846C131.368 104.467 131.111 105.21 131.085 105.979C131.06 106.748 131.266 107.506 131.678 108.156C131.105 108.613 130.675 109.224 130.439 109.918C130.203 110.611 130.17 111.358 130.346 112.07Z" fill="#F0F0F0" stroke="#45413C" stroke-width="2.42" stroke-linecap="round" stroke-linejoin="round"/>
<path d="M128.859 97.8508C128.859 98.2139 129.004 98.5621 129.26 98.8189C129.517 99.0756 129.865 99.2199 130.228 99.2199C130.592 99.2199 130.94 99.0756 131.197 98.8189C131.453 98.5621 131.598 98.2139 131.598 97.8508C131.598 97.4877 131.453 97.1394 131.197 96.8827C130.94 96.6259 130.592 96.4817 130.228 96.4817C129.865 96.4817 129.517 96.6259 129.26 96.8827C129.004 97.1394 128.859 97.4877 128.859 97.8508Z" fill="#F0F0F0" stroke="#45413C" stroke-width="2.42" stroke-linecap="round" stroke-linejoin="round"/>
<path d="M83.1693 92.094C76.5712 95.859 125.723 95.859 120.737 92.094" stroke="#E04122" stroke-width="2.42" stroke-linecap="round" stroke-linejoin="round"/>
</svg>
