<svg width="155" height="155" viewBox="0 0 155 155" fill="none" xmlns="http://www.w3.org/2000/svg">
<path d="M148.256 91.059C148.256 128.42 116.869 129.802 78.1512 129.802C39.433 129.802 8.04688 128.42 8.04688 91.059C8.04688 53.6975 39.4371 23.429 78.1512 23.429C116.865 23.429 148.256 53.6975 148.256 91.059Z" fill="#80DDFF"/>
<path d="M69.1721 133.621L90.9374 105.533L61.1142 91.426L24.7383 132.474L28.3507 133.621H69.1721Z" fill="white"/>
<path d="M62.9231 108.985C50.2095 104.292 36.9433 110.383 36.9433 110.383C28.1214 115.85 20.2132 122.668 13.5078 130.59V133.616H87.4473C88.7751 130.507 89.9696 127.319 91.0308 124.053C91.0308 124.053 75.6739 113.69 62.9231 108.985Z" fill="#E4FFD1"/>
<path d="M87.7723 132.87C88.9764 130 90.0679 127.062 91.0466 124.057C91.0466 124.057 75.6731 113.69 62.9224 108.985C50.1716 104.28 36.9425 110.383 36.9425 110.383C28.4487 115.65 20.8017 122.174 14.2617 129.732" stroke="#45413C" stroke-width="2.42" stroke-linecap="round" stroke-linejoin="round"/>
<path d="M95.5672 22.1299C87.1831 22.1282 78.9586 24.423 71.7866 28.7653C64.6145 33.1077 58.7689 39.3315 54.8842 46.7614C50.9995 54.1912 49.2241 62.5432 49.7508 70.9108C50.2775 79.2784 53.0861 87.3419 57.8717 94.226C48.7994 99.055 27.8547 111.641 35.4219 121.398C39.7147 126.932 45.4798 124.895 50.5273 120.985C53.5253 127.658 64.1151 134.264 77.9546 130.882C88.0949 128.408 90.2847 119.826 90.4867 113.653C96.6952 114.353 102.981 113.778 108.959 111.963C114.938 110.148 120.483 107.132 125.255 103.1C130.027 99.0677 133.926 94.1036 136.713 88.5118C139.5 82.9201 141.116 76.8183 141.462 70.5802C141.808 64.3421 140.877 58.0989 138.727 52.2331C136.576 46.3672 133.25 41.0021 128.954 36.4663C124.657 31.9305 119.48 28.3195 113.739 25.8544C107.999 23.3892 101.815 22.1219 95.5672 22.1299Z" fill="white"/>
<path d="M89.0117 69.6359V77.9907" stroke="#00B8F0" stroke-width="2.42" stroke-linecap="round" stroke-linejoin="round"/>
<path d="M50.0898 61.8296C52.289 63.8052 54.8847 65.2883 57.7033 66.1797C60.522 67.0711 63.4985 67.3502 66.4337 66.9984C69.3689 66.6465 72.1951 65.6718 74.7232 64.1395C77.2513 62.6072 79.4229 60.5526 81.0928 58.1132C82.7627 55.6738 83.8923 52.9058 84.4061 49.9946C84.9199 47.0834 84.806 44.096 84.0719 41.2324C83.3379 38.3687 82.0007 35.6949 80.1499 33.3897C78.299 31.0846 75.9772 29.2014 73.3397 27.8661C67.0899 31.329 61.734 36.2021 57.6979 42.098C53.6618 47.994 51.0567 54.7502 50.0898 61.8296Z" fill="#E0E0E0"/>
<path d="M95.5672 22.1299C87.1831 22.1282 78.9586 24.423 71.7866 28.7653C64.6145 33.1077 58.7689 39.3315 54.8842 46.7614C50.9995 54.1912 49.2241 62.5432 49.7508 70.9108C50.2775 79.2784 53.0861 87.3419 57.8717 94.226C48.7994 99.055 27.8547 111.641 35.4219 121.398C39.7147 126.932 45.4798 124.895 50.5273 120.985C53.5253 127.658 64.1151 134.264 77.9546 130.882C88.0949 128.408 90.2847 119.826 90.4867 113.653C96.6952 114.353 102.981 113.778 108.959 111.963C114.938 110.148 120.483 107.132 125.255 103.1C130.027 99.0677 133.926 94.1036 136.713 88.5118C139.5 82.9201 141.116 76.8183 141.462 70.5802C141.808 64.3421 140.877 58.0989 138.727 52.2331C136.576 46.3672 133.25 41.0021 128.954 36.4663C124.657 31.9305 119.48 28.3195 113.739 25.8544C107.999 23.3892 101.815 22.1219 95.5672 22.1299Z" stroke="#45413C" stroke-width="2.42" stroke-linecap="round" stroke-linejoin="round"/>
<path d="M78.25 65.6564C79.5655 62.0894 83.046 60.0893 86.0192 61.1862C88.9925 62.2832 90.3327 66.0688 89.0131 69.6359L78.25 65.6564Z" fill="#FFA694" stroke="#45413C" stroke-width="2.42" stroke-linecap="round" stroke-linejoin="round"/>
<path d="M94.0469 65.1864C94.0469 67.9125 94.5838 70.6119 95.6271 73.1305C96.6703 75.6492 98.1994 77.9376 100.127 79.8653C102.055 81.793 104.343 83.3221 106.862 84.3653C109.38 85.4085 112.08 85.9455 114.806 85.9455C117.532 85.9455 120.232 85.4085 122.75 84.3653C125.269 83.3221 127.557 81.793 129.485 79.8653C131.413 77.9376 132.942 75.6492 133.985 73.1305C135.028 70.6119 135.565 67.9125 135.565 65.1864C135.565 59.6807 133.378 54.4005 129.485 50.5075C125.592 46.6144 120.312 44.4272 114.806 44.4272C109.3 44.4272 104.02 46.6144 100.127 50.5075C96.234 54.4005 94.0469 59.6807 94.0469 65.1864Z" fill="#E0E0E0"/>
<path d="M45.2891 44.122C45.2891 49.2963 47.3445 54.2587 51.0033 57.9174C54.6621 61.5762 59.6244 63.6317 64.7987 63.6317C69.973 63.6317 74.9353 61.5762 78.5941 57.9174C82.2528 54.2587 84.3083 49.2963 84.3083 44.122C84.3083 38.9478 82.2528 33.9854 78.5941 30.3267C74.9353 26.6679 69.973 24.6124 64.7987 24.6124C59.6244 24.6124 54.6621 26.6679 51.0033 30.3267C47.3445 33.9854 45.2891 38.9478 45.2891 44.122Z" fill="white" stroke="#45413C" stroke-width="2.42" stroke-linecap="round" stroke-linejoin="round"/>
<path d="M45.3359 43.3427C58.0702 49.4211 71.0189 50.3984 84.2438 44.9014" stroke="#45413C" stroke-width="2.42" stroke-linecap="round" stroke-linejoin="round"/>
<path d="M95.8828 62.8316C95.8828 68.0059 97.9383 72.9683 101.597 76.627C105.256 80.2858 110.218 82.3413 115.392 82.3413C120.567 82.3413 125.529 80.2858 129.188 76.627C132.847 72.9683 134.902 68.0059 134.902 62.8316C134.902 60.2696 134.397 57.7327 133.417 55.3656C132.437 52.9986 130.999 50.8479 129.188 49.0363C127.376 47.2246 125.225 45.7876 122.858 44.8071C120.491 43.8267 117.954 43.322 115.392 43.322C112.83 43.322 110.293 43.8267 107.926 44.8071C105.559 45.7876 103.409 47.2246 101.597 49.0363C99.7854 50.8479 98.3483 52.9986 97.3679 55.3656C96.3874 57.7327 95.8828 60.2696 95.8828 62.8316Z" fill="white" stroke="#45413C" stroke-width="2.42" stroke-linecap="round" stroke-linejoin="round"/>
<path d="M130.672 74.8979C117.064 71.2277 106.577 63.5451 100.111 50.7655M61.8297 99.1705C60.3955 97.6138 59.07 95.9604 57.8626 94.2219M57.8626 94.2343C48.7903 99.0633 27.858 111.649 35.421 121.398C44.9758 133.72 61.8132 108.515 61.8132 108.515M90.6261 113.682C88.351 113.438 86.0972 113.025 83.8837 112.445M67.8752 90.8899L62.106 88.7662M63.2442 94.5642L64.9927 89.826" stroke="#45413C" stroke-width="2.42" stroke-linecap="round" stroke-linejoin="round"/>
<path d="M39.8984 110.845C39.8984 113.123 40.3472 115.379 41.219 117.484C42.0909 119.589 43.3688 121.501 44.9798 123.112C46.5908 124.723 48.5033 126.001 50.6081 126.873C52.713 127.745 54.9689 128.194 57.2472 128.194C59.5255 128.194 61.7814 127.745 63.8863 126.873C65.9911 126.001 67.9036 124.723 69.5146 123.112C71.1256 121.501 72.4035 119.589 73.2754 117.484C74.1472 115.379 74.596 113.123 74.596 110.845C74.596 106.244 72.7681 101.831 69.5146 98.5774C66.2611 95.3239 61.8484 93.4961 57.2472 93.4961C52.646 93.4961 48.2333 95.3239 44.9798 98.5774C41.7262 101.831 39.8984 106.244 39.8984 110.845Z" fill="#FF866E" stroke="#45413C" stroke-width="2.42" stroke-linecap="round" stroke-linejoin="round"/>
<path d="M41.4133 117.925L35.7266 120.532M64.6137 126.548L67.2199 132.239" stroke="#45413C" stroke-width="2.42" stroke-linecap="round" stroke-linejoin="round"/>
<path d="M44.9102 110.845C44.9102 114.117 46.2101 117.255 48.524 119.569C50.8379 121.883 53.9762 123.183 57.2485 123.183C60.5209 123.183 63.6592 121.883 65.9731 119.569C68.2869 117.255 69.5869 114.117 69.5869 110.845C69.5869 107.572 68.2869 104.434 65.9731 102.12C63.6592 99.8064 60.5209 98.5065 57.2485 98.5065C53.9762 98.5065 50.8379 99.8064 48.524 102.12C46.2101 104.434 44.9102 107.572 44.9102 110.845Z" fill="white" stroke="#45413C" stroke-width="2.42" stroke-linecap="round" stroke-linejoin="round"/>
<path d="M52.5391 109.092L57.2484 110.845L60.0691 103.261" stroke="#45413C" stroke-width="2.42" stroke-linecap="round" stroke-linejoin="round"/>
<path d="M40.1216 97.4096C39.2713 95.1616 39.3356 92.6698 40.301 90.4687C41.2663 88.2676 43.0557 86.5324 45.2855 85.6352C47.5152 84.738 50.0078 84.7503 52.2286 85.6694C54.4494 86.5885 56.2216 88.3412 57.1652 90.5517C52.3604 94.5962 46.3887 96.9991 40.1216 97.4096ZM78.9883 111.859C81.1015 110.713 82.6813 108.784 83.3888 106.487C84.0963 104.189 83.875 101.706 82.7726 99.5697C81.6702 97.4333 79.7743 95.8142 77.4918 95.0596C75.2093 94.305 72.722 94.475 70.5634 95.5333C71.5636 101.733 74.5149 107.452 78.9883 111.859Z" fill="#FFF48C" stroke="#45413C" stroke-width="2.42" stroke-linecap="round" stroke-linejoin="round"/>
<path d="M77.954 130.886C59.0464 135.48 46.2009 121.468 50.4937 114.103C55.5619 105.443 75.521 120.643 78.6674 115.36" fill="white"/>
<path d="M77.954 130.886C59.0464 135.48 46.2009 121.468 50.4937 114.103C55.5619 105.443 75.521 120.643 78.6674 115.36" stroke="#45413C" stroke-width="2.42" stroke-linecap="round" stroke-linejoin="round"/>
<path d="M27.0477 52.3449C25.0518 52.3449 22.2764 52.1593 20.3713 51.2727C18.3506 50.2789 17.332 48.5964 17.332 46.2582C17.332 43.586 18.8455 41.722 20.4001 40.0725C21.4228 38.9962 22.8084 37.7137 24.1486 36.4766C24.8703 35.8085 25.6043 35.1322 26.2765 34.4889C25.0135 34.6919 23.737 34.7994 22.4579 34.8106H21.963C19.6743 34.7817 17.3691 33.0579 17.3691 29.8249C17.3398 29.1189 17.5378 28.4222 17.9341 27.8372C18.1073 27.4743 18.6269 27.0125 21.6785 26.5094C23.4891 26.2083 25.3196 26.0429 27.1549 26.0145H28.5034C31.6333 26.0145 35.0231 26.2702 36.421 28.163C37.0254 29.0029 37.3435 30.015 37.3283 31.0497C37.3283 34.2085 34.7303 37.2065 33.6169 38.3488C31.6333 40.4107 29.625 42.4189 27.9631 43.9117C28.6848 43.8458 29.4147 43.7427 30.1694 43.6355C31.0189 43.5159 31.8972 43.388 32.7962 43.3179C33.3201 43.2328 33.8492 43.1833 34.3798 43.1695C34.9436 43.1328 35.5012 43.3045 35.9468 43.6519C36.8087 44.3695 36.8746 45.8087 36.8746 46.2334C36.8746 49.5778 34.0663 51.6974 31.2869 52.0645C29.882 52.2553 28.4655 52.349 27.0477 52.3449Z" fill="#B8ECFF"/>
<path d="M28.5039 26.8228C31.2091 26.8228 34.5494 27.0001 35.7576 28.6372C36.2544 29.3302 36.516 30.1641 36.504 31.0166C36.504 33.4002 34.7267 35.9982 33.0194 37.7384C30.4957 40.3364 27.5101 43.355 25.6255 44.7488C25.8995 44.7766 26.1749 44.7877 26.4503 44.7818C28.5864 44.7818 30.6813 44.287 32.8875 44.1097C33.3811 44.0266 33.8799 43.9784 34.3803 43.9653C34.7469 43.9334 35.1128 44.0344 35.4112 44.2499C35.8236 44.6045 36.0504 45.4251 36.0504 46.2045C36.0504 48.1262 34.6648 50.7407 31.1802 51.2191C29.8137 51.407 28.4359 51.5021 27.0565 51.5036C24.6358 51.5036 22.2564 51.2191 20.7264 50.5098C18.6975 49.5118 18.1656 47.8417 18.1656 46.2417C18.1656 43.8581 19.5182 42.2251 21.011 40.6209C23.11 38.4188 26.7843 35.326 28.6194 33.2971C26.4874 33.5816 24.71 33.9734 22.4667 33.9734H21.9718C19.2666 33.9363 18.2027 31.5569 18.2027 29.8125C18.1696 29.2536 18.333 28.7007 18.6646 28.2496C18.879 27.6434 24.0255 26.8269 27.1637 26.8269H28.5121M28.5121 25.1774H27.1554C25.2746 25.206 23.3985 25.3755 21.543 25.6846C19.1677 26.0722 17.8315 26.4434 17.279 27.3341C16.7759 28.0591 16.5186 28.9263 16.5449 29.8084C16.5449 32.5919 18.4336 35.5817 21.9388 35.6188H22.4584C22.9615 35.6188 23.4358 35.6188 23.8976 35.5693L23.5883 35.8538C22.2399 37.091 20.846 38.39 19.8068 39.4828C18.1326 41.2766 16.5078 43.2643 16.5078 46.2375C16.5078 48.8768 17.712 50.8644 19.9924 51.9861C22.0543 52.9387 24.941 53.1366 27.0028 53.1366C28.4582 53.1355 29.9118 53.0349 31.3534 52.8356C33.2386 52.6532 34.9762 51.7363 36.1906 50.283C37.1416 49.1265 37.6709 47.681 37.6917 46.1839C37.6917 45.5282 37.5721 43.8993 36.4546 42.9715C35.8628 42.4968 35.1173 42.2561 34.3597 42.2952C33.7974 42.3073 33.2366 42.3583 32.6813 42.4478C31.8895 42.5138 31.1143 42.6168 30.3637 42.7199C31.6256 41.4828 32.9452 40.1508 34.1906 38.8725C35.3782 37.6642 38.1412 34.4641 38.1412 31.0002C38.1486 29.8086 37.7791 28.6453 37.0855 27.6764C35.4731 25.4949 32.0091 25.2021 28.5039 25.2021L28.5121 25.1774Z" fill="#00B8F0"/>
<path d="M127.673 127.596C126.49 127.596 124.832 127.48 123.677 126.944C123.068 126.666 122.556 126.212 122.208 125.64C121.859 125.068 121.69 124.405 121.723 123.736C121.723 122.086 122.642 120.944 123.587 119.934C124.185 119.299 124.989 118.556 125.768 117.839L126.209 117.426C125.838 117.459 125.446 117.48 125.03 117.48H124.741C122.791 117.455 121.743 115.802 121.743 114.259C121.72 113.734 121.889 113.218 122.218 112.808C123.228 111.773 127.673 111.703 127.723 111.703H128.502C130.49 111.703 132.453 111.868 133.348 113.08C133.739 113.624 133.947 114.278 133.941 114.948C133.941 116.894 132.37 118.709 131.694 119.398C130.869 120.222 130.02 121.113 129.22 121.872L129.418 121.847C129.908 121.777 130.416 121.703 130.943 121.662C131.259 121.61 131.577 121.581 131.896 121.575C132.304 121.55 132.707 121.678 133.026 121.934C133.62 122.429 133.682 123.328 133.682 123.69C133.682 125.303 132.473 127.093 130.156 127.402C129.334 127.524 128.504 127.589 127.673 127.596Z" fill="#B8ECFF"/>
<path d="M128.515 112.552C130.073 112.552 131.999 112.655 132.7 113.595C132.979 114 133.123 114.482 133.113 114.973C133.113 116.346 132.086 117.859 131.104 118.845C129.649 120.342 127.925 122.086 126.836 122.886C126.994 122.903 127.152 122.91 127.31 122.907C128.548 122.907 129.748 122.618 131.022 122.519C131.307 122.472 131.595 122.445 131.884 122.437C132.094 122.42 132.304 122.477 132.478 122.598C132.742 122.912 132.874 123.318 132.845 123.728C132.845 124.837 132.045 126.354 130.036 126.614C129.248 126.723 128.453 126.778 127.657 126.779C126.263 126.779 124.89 126.614 124.007 126.206C123.54 125.992 123.148 125.64 122.884 125.198C122.621 124.757 122.498 124.245 122.531 123.732C122.531 122.358 123.31 121.414 124.18 120.49C125.389 119.22 127.48 117.435 128.568 116.268C127.397 116.482 126.212 116.611 125.022 116.655H124.733C123.174 116.655 122.56 115.261 122.56 114.259C122.54 113.936 122.635 113.616 122.828 113.356C122.947 113.006 125.921 112.532 127.727 112.532H128.506M128.506 110.882H127.727C126.605 110.897 125.485 110.998 124.378 111.183C122.816 111.439 121.879 111.723 121.43 112.457C121.076 112.989 120.894 113.617 120.91 114.255C120.91 116.024 122.024 117.913 124.098 118.251C123.686 118.635 123.31 119.006 122.985 119.348C122.193 120.198 120.89 121.596 120.89 123.728C120.859 124.548 121.07 125.359 121.497 126.06C121.923 126.761 122.547 127.321 123.29 127.67C124.585 128.272 126.366 128.4 127.636 128.4C128.522 128.402 129.406 128.343 130.284 128.223C131.423 128.118 132.484 127.598 133.265 126.762C134.045 125.925 134.49 124.83 134.515 123.686C134.515 123.208 134.424 122.037 133.562 121.299C133.097 120.921 132.511 120.725 131.913 120.746H131.529C131.793 120.478 132.057 120.21 132.313 119.921C133.055 119.167 134.787 117.15 134.787 114.899C134.792 114.062 134.533 113.246 134.049 112.564C132.935 111.055 130.75 110.849 128.539 110.849L128.506 110.882Z" fill="#00B8F0"/>
<path d="M33.8637 80.432C32.54 80.432 30.6925 80.3083 29.41 79.7103C28.7435 79.4041 28.1839 78.9055 27.8033 78.2786C27.4226 77.6517 27.2382 76.9253 27.2739 76.1927C27.2739 74.3535 28.2925 73.1081 29.3358 71.9865C30.008 71.2772 30.9111 70.4442 31.7853 69.64C32.0245 69.4132 32.2719 69.1905 32.5111 68.9678C31.9715 69.0267 31.4291 69.0569 30.8863 69.0586H30.5605C28.4327 69.0338 27.2904 67.2235 27.2904 65.5369C27.2693 65.0188 27.4138 64.5075 27.7028 64.077C27.9337 63.6647 28.5275 63.3966 30.3172 63.0997C31.5074 62.901 32.7108 62.7921 33.9173 62.7739H34.7915C36.8947 62.7739 39.1792 62.9554 40.1525 64.2832C40.5802 64.8758 40.8071 65.5896 40.7999 66.3204C40.7999 68.4771 39.0555 70.4936 38.3256 71.2689C37.3359 72.2875 36.2637 73.372 35.3029 74.2834L35.8514 74.2009C36.4039 74.1226 36.9771 74.0442 37.5627 73.9947C37.9133 73.9373 38.2674 73.9042 38.6225 73.8958C39.0585 73.8723 39.4881 74.0087 39.8308 74.2793C40.4659 74.8071 40.5318 75.7803 40.5318 76.1762C40.5318 77.9412 39.1999 79.9082 36.6555 80.2464C35.7301 80.3708 34.7974 80.4328 33.8637 80.432Z" fill="#B8ECFF"/>
<path d="M34.8076 63.5987C36.5643 63.5987 38.7293 63.7142 39.517 64.774C39.8375 65.2254 40.0064 65.7669 39.9995 66.3204C39.9995 67.8668 38.8448 69.5494 37.7396 70.6793C36.0901 72.3659 34.1643 74.3247 32.9395 75.2154C33.1161 75.236 33.2938 75.2443 33.4715 75.2402C34.8571 75.2402 36.2179 74.9185 37.6489 74.8031C37.9678 74.7482 38.2903 74.7165 38.6139 74.7082C38.853 74.6868 39.0918 74.7528 39.286 74.8938C39.5853 75.2464 39.7335 75.7028 39.6984 76.1639C39.6984 77.401 38.7994 79.1165 36.5396 79.4134C35.6527 79.536 34.7586 79.598 33.8633 79.599C32.2962 79.599 30.7498 79.4134 29.7395 78.9557C29.2175 78.7135 28.7808 78.3195 28.4865 77.825C28.1922 77.3306 28.054 76.7588 28.09 76.1845C28.09 74.6422 28.9642 73.5783 29.9333 72.5391C31.2942 71.1123 33.6695 69.104 34.8818 67.7885C33.5677 68.0319 32.2378 68.1807 30.9024 68.2339H30.5766C28.824 68.2132 28.1312 66.6668 28.1312 65.5369C28.1102 65.174 28.2167 64.8152 28.4322 64.5225C28.5725 64.1307 31.9168 63.5987 33.9457 63.5987H34.82M34.82 61.9492H33.9334C32.6895 61.9683 31.4488 62.0813 30.222 62.2874C28.5353 62.5637 27.525 62.8606 27.0549 63.6152C26.6621 64.1796 26.4572 64.8535 26.4693 65.541C26.4693 67.5617 27.8178 69.7267 30.3168 69.8793C29.7477 70.4153 29.1993 70.9432 28.7457 71.4174C27.8797 72.3453 26.4487 73.8917 26.4487 76.1969C26.4144 77.0807 26.6409 77.955 27.0999 78.711C27.5589 79.467 28.2302 80.0713 29.0302 80.4485C30.4488 81.1124 32.4241 81.2485 33.8303 81.2485C34.7958 81.2459 35.7601 81.1798 36.7169 81.0506C39.7232 80.6382 41.2985 78.2877 41.2985 76.1639C41.2985 75.6526 41.2036 74.3948 40.3005 73.636C39.8115 73.2384 39.1941 73.0331 38.5644 73.0587C38.2359 73.0638 37.9081 73.09 37.5829 73.137C38.0159 72.6999 38.453 72.2546 38.8737 71.8216C39.6984 70.9968 41.5995 68.7741 41.5995 66.3122C41.6048 65.4154 41.3278 64.5396 40.8077 63.809C39.6118 62.1843 37.1994 61.9616 34.7746 61.9616L34.82 61.9492Z" fill="#00B8F0"/>
<path d="M82.4992 32.7157C86.9323 32.4477 90.6931 37.8787 89.0972 42.0272C87.4477 46.3613 82.1693 47.7181 83.5672 55.6852C83.5982 55.8658 83.5757 56.0515 83.5025 56.2195C83.4293 56.3875 83.3086 56.5304 83.1553 56.6307C83.002 56.7311 82.8227 56.7844 82.6394 56.7842C82.4562 56.784 82.277 56.7302 82.1239 56.6295C78.7383 54.3738 74.8166 48.4768 74.9527 41.2107C75.0269 36.7818 78.0661 32.9632 82.4992 32.7157Z" fill="#80DDFF" stroke="#45413C" stroke-width="2.42" stroke-linecap="round" stroke-linejoin="round"/>
</svg>
