<svg width="155" height="155" viewBox="0 0 155 155" fill="none" xmlns="http://www.w3.org/2000/svg">
<path d="M128.062 112.965C124.763 103.707 114.041 112.907 101.031 115.558C107.456 111.449 112.482 105.485 115.442 98.455C118.402 91.4256 119.157 83.663 117.606 76.1948C116.056 68.7271 112.273 61.9059 106.76 56.6361C101.246 51.366 94.2612 47.895 86.7307 46.6834C79.2003 45.4714 71.4793 46.5762 64.5905 49.8505C57.7022 53.1247 51.9705 58.4147 48.1556 65.019C44.3407 71.6236 42.6219 79.2316 43.2273 86.8346C43.8327 94.438 46.7333 101.678 51.5454 107.595C36.3163 102.416 37.7143 86.4569 27.8131 89.8631C17.3345 93.4632 32.308 120.961 53.8629 124.614C52.8947 129.163 52.4914 133.814 52.6629 138.462H92.8533C91.9077 136.217 91.2512 133.862 90.8986 131.451C106.755 132.223 131.18 121.732 128.062 112.965Z" fill="white"/>
<path d="M66.4488 76.7701C66.4476 72.669 65.0913 68.6838 62.5906 65.4334C60.0899 62.183 56.5851 59.8506 52.6218 58.7986C48.3029 63.6614 45.3161 69.5592 43.9519 75.9185C42.5874 82.2774 42.8921 88.8812 44.8361 95.0879C47.4967 95.5263 50.2209 95.3807 52.8197 94.6611C55.4185 93.9415 57.8297 92.6648 59.8862 90.92C61.9424 89.1757 63.5943 87.0045 64.7276 84.5574C65.8608 82.1104 66.448 79.446 66.4488 76.7495V76.7701Z" fill="#E0E0E0"/>
<path d="M92.6992 110.758C102.964 110.758 111.285 102.437 111.285 92.1724C111.285 81.9075 102.964 73.5865 92.6992 73.5865C82.4347 73.5865 74.1133 81.9075 74.1133 92.1724C74.1133 102.437 82.4347 110.758 92.6992 110.758Z" fill="#E0E0E0"/>
<path d="M90.3999 119.938L90.8123 120.099C94.423 119.095 97.8643 117.559 101.023 115.542C106.076 112.311 110.285 107.92 113.298 102.734C116.311 97.5474 118.042 91.7159 118.345 85.7257C118.648 79.7351 117.515 73.7589 115.041 68.2949C112.567 62.8309 108.823 58.037 104.122 54.3128C99.4198 50.5886 93.896 48.0413 88.0105 46.8842C82.1255 45.7267 76.0487 45.9926 70.2865 47.6591C64.5248 49.3259 59.2447 52.3449 54.8858 56.4654C50.527 60.5859 47.2156 65.6882 45.2279 71.3473C45.0011 71.9906 44.8156 72.6339 44.6094 73.2814L102.804 94.4446C102.804 94.4446 101.208 114.202 90.3999 119.938Z" fill="#E0E0E0"/>
<path d="M92.8492 138.437C91.9036 136.193 91.2471 133.837 90.8945 131.427C106.755 132.218 131.18 121.728 128.062 112.944C124.763 103.686 114.041 112.886 101.031 115.538C107.456 111.428 112.482 105.464 115.442 98.4344C118.402 91.405 119.157 83.642 117.606 76.1742C116.056 68.706 112.273 61.8853 106.76 56.6151C101.246 51.3449 94.2612 47.8743 86.7307 46.6623C79.2003 45.4508 71.4793 46.5551 64.5905 49.8294C57.7022 53.1041 51.9705 58.3937 48.1556 64.9983C44.3407 71.603 42.6219 79.2105 43.2273 86.814C43.8327 94.417 46.7333 101.657 51.5454 107.575C36.3163 102.395 37.7143 86.4362 27.8131 89.8425C17.3345 93.4425 32.308 120.94 53.8629 124.594C52.8947 129.143 52.4914 133.793 52.6629 138.441" stroke="#45413C" stroke-width="2.42" stroke-linecap="round" stroke-linejoin="round"/>
<path d="M93.2338 52.0769C95.313 52.0769 96.9988 50.3911 96.9988 48.3119C96.9988 46.2323 95.313 44.5469 93.2338 44.5469C91.1541 44.5469 89.4688 46.2323 89.4688 48.3119C89.4688 50.3911 91.1541 52.0769 93.2338 52.0769Z" fill="#FF512E" stroke="#45413C" stroke-width="2.42" stroke-linecap="round" stroke-linejoin="round"/>
<path d="M131.111 91.5456L118.277 87.0342C119.026 78.2287 116.654 69.4401 111.576 62.2074C106.497 54.9746 99.0371 49.7585 90.5005 47.4722C81.9643 45.1856 72.8952 45.9745 64.8819 49.7012C56.8686 53.4274 50.421 59.8535 46.668 67.8545L113.123 91.2116L129.23 96.8818C129.581 97.0051 129.952 97.0587 130.323 97.0385C130.694 97.0187 131.057 96.9255 131.392 96.7651C131.728 96.6047 132.028 96.3799 132.276 96.1032C132.524 95.8269 132.715 95.5044 132.839 95.1539C132.962 94.8034 133.015 94.4322 132.995 94.0615C132.975 93.6904 132.883 93.3271 132.722 92.9918C132.562 92.657 132.337 92.3567 132.06 92.1085C131.784 91.8602 131.461 91.6689 131.111 91.5456Z" fill="#FF866E"/>
<path d="M80.338 79.6897L81.2741 77.0257C81.4374 76.5544 81.4081 76.0373 81.1916 75.5874C80.9751 75.1379 80.5895 74.7919 80.1194 74.6257L67.245 70.0895L65.8594 74.6133L80.338 79.6897Z" fill="#FF512E"/>
<path d="M131.109 91.5456L118.276 87.0342C118.108 88.9423 117.797 90.8351 117.344 92.6961L129.228 96.8818C129.579 97.0055 129.95 97.0587 130.321 97.0385C130.692 97.0187 131.055 96.9255 131.391 96.7651C131.725 96.6047 132.026 96.3799 132.274 96.1036C132.522 95.8269 132.714 95.5044 132.837 95.1539C132.961 94.8034 133.014 94.4322 132.993 94.0615C132.974 93.6904 132.881 93.3271 132.72 92.9918C132.56 92.657 132.335 92.3567 132.059 92.1085C131.782 91.8602 131.459 91.6693 131.109 91.5456Z" fill="#FF512E"/>
<path d="M100.249 54.0893C102.931 55.0303 105.502 56.2621 107.915 57.7636C103.683 53.354 98.4407 50.0414 92.6414 48.111C86.8421 46.1807 80.6601 45.6912 74.6295 46.6846C68.5989 47.678 62.9007 50.1247 58.0268 53.813C53.1533 57.5013 49.2505 62.3204 46.6562 67.8545L54.2234 70.5143C58.8528 62.9183 65.9498 57.1421 74.3277 54.1524C82.706 51.1626 91.8566 51.1404 100.249 54.0893Z" fill="#FFCABF"/>
<path d="M131.111 91.5456L118.277 87.0342C119.026 78.2287 116.654 69.4401 111.576 62.2074C106.497 54.9746 99.0371 49.7585 90.5005 47.4722C81.9643 45.1856 72.8952 45.9745 64.8819 49.7012C56.8686 53.4274 50.421 59.8535 46.668 67.8545L113.123 91.2116L129.23 96.8818C129.581 97.0051 129.952 97.0587 130.323 97.0385C130.694 97.0187 131.057 96.9255 131.392 96.7651C131.728 96.6047 132.028 96.3799 132.276 96.1032C132.524 95.8269 132.715 95.5044 132.839 95.1539C132.962 94.8034 133.015 94.4322 132.995 94.0615C132.975 93.6904 132.883 93.3271 132.722 92.9918C132.562 92.657 132.337 92.3567 132.06 92.1085C131.784 91.8602 131.461 91.6689 131.111 91.5456Z" stroke="#45413C" stroke-width="2.42" stroke-linecap="round" stroke-linejoin="round"/>
<path d="M67.2422 70.1019C67.488 69.4017 67.8694 68.7563 68.3647 68.2033C68.86 67.6503 69.4591 67.2 70.1284 66.8788C70.7973 66.5571 71.5235 66.3707 72.2645 66.3295C73.006 66.2887 73.7479 66.3942 74.4485 66.64C75.1491 66.8858 75.7941 67.2672 76.3471 67.7625C76.9001 68.2578 77.3504 68.857 77.6721 69.5262C77.9933 70.1955 78.1797 70.9213 78.2209 71.6628C78.2618 72.4038 78.1562 73.1461 77.9104 73.8463L67.2422 70.1019Z" fill="#E0E0E0" stroke="#45413C" stroke-width="2.42" stroke-linecap="round" stroke-linejoin="round"/>
<path d="M77.9141 73.8463L80.1327 74.6257C80.6032 74.7923 80.9888 75.1379 81.2048 75.5878C81.4213 76.0373 81.451 76.5544 81.2873 77.0257L80.3512 79.6897" stroke="#45413C" stroke-width="2.42" stroke-linecap="round" stroke-linejoin="round"/>
<path d="M117.945 89.6652C118.083 88.8075 118.187 87.9473 118.259 87.0837L117.945 89.6652Z" fill="white"/>
<path d="M117.945 89.6652C118.083 88.8075 118.187 87.9473 118.259 87.0837" stroke="#45413C" stroke-width="2.42" stroke-linecap="round" stroke-linejoin="round"/>
<path d="M62.9254 91.3601C61.8945 94.3004 63.0409 97.385 65.4945 98.2468C67.9482 99.1087 70.773 97.4221 71.8081 94.4777L62.9254 91.3601Z" fill="#FFA694" stroke="#45413C" stroke-width="2.42" stroke-linecap="round" stroke-linejoin="round"/>
<path d="M49.6486 92.1848C58.4855 92.1848 65.6489 85.0209 65.6489 76.1845C65.6489 67.3476 58.4855 60.1842 49.6486 60.1842C40.812 60.1842 33.6484 67.3476 33.6484 76.1845C33.6484 85.0209 40.812 92.1848 49.6486 92.1848Z" fill="white" stroke="#45413C" stroke-width="2.42" stroke-linecap="round" stroke-linejoin="round"/>
<path d="M45.2346 73.203C46.2594 73.203 47.0903 72.3721 47.0903 71.3473C47.0903 70.3226 46.2594 69.4916 45.2346 69.4916C44.2094 69.4916 43.3789 70.3226 43.3789 71.3473C43.3789 72.3721 44.2094 73.203 45.2346 73.203Z" fill="#45413C"/>
<path d="M91.3753 106.849C100.212 106.849 107.376 99.6851 107.376 90.8487C107.376 82.0118 100.212 74.8484 91.3753 74.8484C82.5384 74.8484 75.375 82.0118 75.375 90.8487C75.375 99.6851 82.5384 106.849 91.3753 106.849Z" fill="white" stroke="#45413C" stroke-width="2.42" stroke-linecap="round" stroke-linejoin="round"/>
<path d="M94.857 97.2942C95.8958 97.2942 96.7374 96.4521 96.7374 95.4138C96.7374 94.375 95.8958 93.5333 94.857 93.5333C93.8186 93.5333 92.9766 94.375 92.9766 95.4138C92.9766 96.4521 93.8186 97.2942 94.857 97.2942Z" fill="#45413C"/>
<path d="M59.0691 114.614C56.2464 112.628 53.7123 110.26 51.5391 107.579" stroke="#45413C" stroke-width="2.42" stroke-linecap="round" stroke-linejoin="round"/>
<path d="M101.029 115.542C96.0831 118.704 90.4674 120.668 84.6289 121.278" stroke="#45413C" stroke-width="2.42" stroke-linecap="round" stroke-linejoin="round"/>
<path d="M63.1811 119.975C63.1485 119.658 63.2026 119.339 63.337 119.05C63.4714 118.762 63.6817 118.515 63.9452 118.337C64.2088 118.158 64.516 118.054 64.8339 118.036C65.1515 118.018 65.4686 118.087 65.7502 118.235C68.1672 119.413 70.7322 120.258 73.3751 120.75C73.6963 120.815 73.9937 120.967 74.2329 121.191C74.4724 121.414 74.6444 121.7 74.7302 122.017C74.816 122.333 74.8118 122.667 74.7182 122.98C74.6242 123.295 74.4448 123.576 74.1999 123.794C72.5916 125.229 70.1668 126.565 67.2472 125.612C64.3275 124.66 63.3997 122.095 63.1811 119.975Z" fill="#E0E0E0"/>
<path d="M29.3548 77.2567L19.1195 85.3352C19.1265 84.1038 18.8772 82.8848 18.3873 81.7553C17.8974 80.6258 17.1778 79.6106 16.2741 78.7743C13.2266 76.0526 8.17913 76.3577 5.74609 74.7206L6.98323 69.5865L14.8597 63.6606C15.2607 65.4924 16.2428 67.1456 17.6597 68.3741C19.9773 70.304 24.1217 70.0978 26.0928 72.1597C28.064 74.2216 29.3548 77.2567 29.3548 77.2567Z" fill="white" stroke="#45413C" stroke-width="2.42" stroke-linecap="round" stroke-linejoin="round"/>
<path d="M5.74609 74.7247C5.74609 74.7247 8.84718 74.8319 9.67194 72.1803C7.08632 71.2525 6.99972 69.5906 6.99972 69.5906L5.74609 74.7247Z" fill="#F0F0F0" stroke="#45413C" stroke-width="2.42" stroke-linecap="round" stroke-linejoin="round"/>
<path d="M134.786 71.1205L132.395 82.5887C132.395 82.5887 137.43 91.059 142.947 87.3022C148.465 83.5454 145.162 75.9412 145.162 75.9412C144.956 76.6624 144.514 77.2934 143.905 77.7317C143.297 78.1705 142.558 78.3911 141.809 78.3577C139.046 78.3247 134.786 71.1205 134.786 71.1205Z" fill="#F0F0F0" stroke="#45413C" stroke-width="2.42" stroke-linecap="round" stroke-linejoin="round"/>
<path d="M143.963 86.4775C144.051 86.3987 144.134 86.3146 144.211 86.226C147.922 82.263 145.163 75.9412 145.163 75.9412C145.163 75.9412 143.712 71.669 141.13 72.2298L139.844 83.5331C139.844 83.5331 145.539 82.0403 143.947 86.4899L143.963 86.4775Z" fill="white" stroke="#45413C" stroke-width="2.42" stroke-linecap="round" stroke-linejoin="round"/>
<path d="M137.249 109.52L117.554 122.472C116.607 123.095 116.344 124.368 116.967 125.316L125.042 137.596C125.666 138.543 126.939 138.806 127.887 138.183L147.581 125.231C148.529 124.608 148.792 123.335 148.169 122.387L140.093 110.107C139.47 109.16 138.196 108.896 137.249 109.52Z" fill="#4ACFFF"/>
<path d="M148.265 124.462C148.432 124.14 148.511 123.78 148.494 123.418C148.477 123.056 148.365 122.705 148.17 122.4L140.096 110.119C139.794 109.665 139.326 109.348 138.792 109.238C138.258 109.129 137.702 109.235 137.246 109.534L122.586 119.15L148.265 124.462Z" fill="#B8ECFF"/>
<path d="M121.369 119.975L117.554 122.449C117.101 122.75 116.785 123.218 116.675 123.751C116.565 124.284 116.671 124.839 116.969 125.295L125.043 137.575C125.344 138.028 125.812 138.344 126.345 138.454C126.878 138.564 127.433 138.459 127.889 138.161L131.703 135.654L121.369 119.975Z" fill="#87898C" stroke="#45413C" stroke-width="2.42" stroke-linecap="round" stroke-linejoin="round"/>
<path d="M137.249 109.52L117.554 122.472C116.607 123.095 116.344 124.368 116.967 125.316L125.042 137.596C125.666 138.543 126.939 138.806 127.887 138.183L147.581 125.231C148.529 124.608 148.792 123.335 148.169 122.387L140.093 110.107C139.47 109.16 138.196 108.896 137.249 109.52Z" stroke="#45413C" stroke-width="2.42" stroke-linecap="round" stroke-linejoin="round"/>
<path d="M17.1622 111.989L12.4922 116.921L26.9006 130.565L31.5706 125.634L17.1622 111.989Z" fill="#FFF48C" stroke="#45413C" stroke-width="2.42" stroke-linecap="round" stroke-linejoin="round"/>
<path d="M26.9023 130.566L31.5724 125.634L35.1475 129.02C35.3064 129.17 35.3989 129.378 35.4049 129.596C35.4109 129.815 35.3297 130.027 35.1793 130.186L31.6434 133.92C31.493 134.078 31.2857 134.171 31.067 134.177C30.8484 134.183 30.6363 134.102 30.4775 133.951L26.9023 130.566Z" fill="#FFB0CA" stroke="#45413C" stroke-width="2.42" stroke-linecap="round" stroke-linejoin="round"/>
<path d="M12.5021 116.911L9.35156 109.447L17.1703 111.979L12.5021 116.911Z" fill="#FFE8D1" stroke="#45413C" stroke-width="2.42" stroke-linecap="round" stroke-linejoin="round"/>
<path d="M19.4563 59.8626C17.4934 59.8626 16.545 58.2502 16.2315 57.7182C15.8728 57.112 14.9202 55.4955 15.8769 53.8872C15.9553 53.7553 16.013 53.6522 16.0542 53.5697C15.6089 52.8109 15.1539 52.0303 14.6893 51.2274C14.0789 50.1717 13.4521 49.0706 12.7552 47.9036C12.5573 47.5696 12.3428 47.1984 12.1531 46.819C11.9634 46.4397 11.7696 46.1056 11.5717 45.7675C11.3783 45.4297 11.1635 45.1048 10.9284 44.7943C10.7689 44.8211 10.6076 44.8347 10.4459 44.8355C9.75721 44.8355 8.44172 44.5633 7.37778 42.7736C6.91608 42.0259 6.64429 41.1764 6.58602 40.2994C6.56952 37.9612 9.12627 36.4478 10.3634 35.7179L11.0108 35.3385C12.9119 34.2168 14.1532 33.7591 15.3037 33.7591C15.9345 33.7576 16.5549 33.9199 17.1043 34.2299C17.6536 34.54 18.1131 34.9874 18.4378 35.5282L18.4914 35.6107L18.6728 35.9158C19.7326 37.7179 19.3904 39.087 18.8295 40.0685C19.2048 40.7365 19.6543 41.4788 19.9842 42.0562L21.6048 44.8066C22.0461 45.5613 22.4873 46.3778 22.9162 47.1654C23.2502 47.7881 23.5719 48.4026 23.8853 48.9304H24.0173C25.7534 48.9304 26.6029 49.7552 27.3451 51.0253C28.4173 52.848 28.2936 54.6749 27.0152 55.912C26.4709 56.4398 25.3946 57.1491 23.3038 58.3863C21.9306 59.211 20.6935 59.8667 19.4605 59.8667L19.4563 59.8626Z" fill="#45413C"/>
<path d="M37.2576 49.083C31.3894 49.083 27.6574 44.0561 26.243 39.7509C25.1515 36.5448 25.2099 33.0587 26.4079 29.8909C27.0047 28.3175 27.9464 26.8978 29.1638 25.736C30.3813 24.5743 31.8435 23.7 33.4431 23.1774C34.6922 22.7626 35.9991 22.5482 37.3153 22.5424C41.1752 22.5424 44.1978 24.4434 45.1998 27.4909C45.397 28.0708 45.4238 28.6949 45.2778 29.2897C45.1314 29.8844 44.8184 30.4249 44.3751 30.8477C45.34 31.1376 46.1829 31.7359 46.7751 32.5508L46.8329 32.625C47.4023 33.4628 47.8547 34.3743 48.1772 35.3343L48.2308 35.4869C48.6556 36.7019 48.8284 37.9905 48.7393 39.2744C48.6498 40.5583 48.3001 41.8107 47.7112 42.9551C46.3586 45.5531 43.7813 47.5985 40.6308 48.5593C39.5388 48.9008 38.4018 49.0773 37.2576 49.083ZM37.3359 31.726C37.0629 31.7344 36.7929 31.7859 36.5359 31.8786C34.1771 32.6539 35.439 36.555 35.4802 36.7199C35.707 37.4168 36.1607 38.4602 36.9359 38.9509C36.4767 38.4448 36.1407 37.8393 35.9545 37.1818C35.2328 34.9879 36.0823 33.2642 38.4824 32.0436L38.3174 31.9817C38.0103 31.8327 37.6767 31.7458 37.3359 31.726Z" fill="#45413C"/>
<path d="M50.9573 44.2994C49.048 44.2994 47.8191 43.2479 47.2995 41.1736C47.1263 40.4891 46.6727 38.6705 48.0459 37.3962C48.1573 37.2932 48.2397 37.2107 48.3057 37.1447C48.0954 36.2911 47.8933 35.4168 47.6624 34.5137C47.3737 33.3261 47.0727 32.0889 46.7469 30.7776C46.6521 30.3982 46.5655 29.9899 46.4747 29.5693C46.384 29.1487 46.3098 28.7734 46.215 28.394C46.1284 28.0127 46.0154 27.6379 45.8768 27.2724C45.2294 27.1899 43.6829 26.7775 43.0479 24.3032C42.8194 23.4589 42.7984 22.5719 42.986 21.7176C43.6211 19.466 46.516 18.7444 47.9057 18.398L48.6315 18.2165C49.6554 17.9265 50.7107 17.7631 51.7738 17.7299C54.3141 17.7299 55.312 19.2351 55.7038 20.497C55.7038 20.53 55.7038 20.563 55.7285 20.5918L55.8192 20.9423C56.3223 22.9671 55.6089 24.1836 54.7924 24.9672C54.9574 25.6929 55.1636 26.5012 55.3326 27.1858L56.112 30.2951C56.3223 31.1446 56.5244 32.0518 56.7017 32.9302C56.8461 33.6271 56.9863 34.2869 57.1141 34.9014C58.3925 35.2642 59.3286 35.8581 59.8358 37.8829C60.343 39.9076 59.7162 41.6479 58.1368 42.4767C57.4646 42.8272 56.2316 43.2066 53.8728 43.7963C52.9248 44.0796 51.9458 44.2483 50.9573 44.2994Z" fill="#45413C"/>
<path d="M66.685 41.9694C62.3262 41.9694 60.8498 38.5549 59.5426 35.5405L59.357 35.0662C58.3137 32.6992 55.9219 26.0846 54.9487 20.9835C54.933 20.8894 54.9231 20.7943 54.9198 20.699C54.8539 18.4515 56.5405 16.8515 59.1137 16.7236H59.4684C61.5303 16.7236 63.3612 17.5855 64.2808 18.9793C64.3023 19.008 64.3217 19.0384 64.3386 19.0701C64.9299 20.2637 65.3864 21.5196 65.6994 22.8145C65.9097 23.5402 66.1118 24.2908 66.3468 24.9052L66.9036 26.4681C66.953 26.2702 67.0025 26.0805 67.0396 25.8991L67.0644 25.796L68.3922 21.0701C69.217 17.8536 70.9449 16.1216 73.4851 16.0143H73.9264C76.6852 16.0143 78.3677 17.5278 78.5409 20.1711C78.6646 22.6454 77.6914 25.532 76.7718 28.0517L76.6852 28.295C76.4295 28.9878 76.1821 29.6929 75.9305 30.4022C73.8686 36.2333 71.9263 41.7385 67.4479 41.9488H67.1221L66.685 41.9694Z" fill="#45413C"/>
<path d="M85.7481 42.0602H85.2945C81.3975 41.9653 78.4572 40.823 77.0222 38.889C75.1995 36.4147 75.0304 31.8002 75.0922 29.2847C75.1417 27.1486 75.6201 19.9814 79.5913 17.4865C81.1996 16.4803 83.9914 15.837 86.7048 15.837H87.1172C88.6112 15.8198 90.0904 16.1412 91.443 16.7772C92.2525 17.1569 92.9317 17.7673 93.3952 18.5318C93.8592 19.2963 94.0864 20.1809 94.0493 21.0742C94.0633 21.5437 93.9977 22.0122 93.8555 22.4598C92.973 24.963 89.9832 25.0001 87.7976 25.0248H87.6368C89.2863 25.3341 90.8698 26.13 90.8162 28.3527C90.7544 30.8682 89.3647 32.0641 87.7605 32.6208L88.445 32.559C89.0059 32.5054 89.5873 32.4476 90.2018 32.4476H90.4286C90.9313 32.4608 91.4261 32.5741 91.8847 32.781C92.3433 32.9878 92.7556 33.2841 93.0983 33.6523C93.4406 34.0206 93.7066 34.4535 93.8798 34.9257C94.0526 35.3979 94.1301 35.8999 94.107 36.4023C94.0328 39.9488 90.8987 42.0602 85.7481 42.0602Z" fill="#45413C"/>
<path d="M106.862 46.2087C105.919 46.212 104.98 46.0731 104.079 45.7963C98.9898 44.2293 96.598 39.5322 97.6826 33.2393C98.1111 30.8956 98.6937 28.5826 99.427 26.3156C99.8212 24.9393 100.323 23.5963 100.928 22.299C101.392 21.3537 102.119 20.5626 103.022 20.0205C103.924 19.4785 104.964 19.2086 106.017 19.2433C106.716 19.2431 107.411 19.3488 108.079 19.5567C108.421 19.6669 108.755 19.7977 109.081 19.9484L109.209 20.0144C110.4 20.6742 112.194 22.4309 110.858 26.7733C110.817 26.8997 110.776 27.0372 110.734 27.1857C110.863 26.8875 111.009 26.597 111.171 26.3156C111.604 25.5774 112.767 23.5939 115.188 23.5939C115.729 23.6004 116.265 23.6879 116.78 23.8537C119.448 24.6784 119.737 27.1527 119.836 27.9774C120.025 29.6269 119.547 32.2992 118.372 36.1137C117.572 38.7034 116.054 41.3096 114.413 42.9097C112.788 44.4108 110.186 46.2046 106.862 46.2087Z" fill="#45413C"/>
<path d="M117.622 51.2975C116.706 51.2896 115.803 51.0884 114.97 50.7078C112.826 49.7181 111.733 47.751 112.323 45.9283C113.325 43.0252 114.49 40.1807 115.811 37.4085C117.395 33.9693 119.189 30.629 120.574 28.1053C120.748 27.784 121.018 27.5246 121.345 27.363C122.079 27.0235 122.88 26.8584 123.688 26.8805C125.538 26.959 127.351 27.418 129.016 28.229C135.647 31.3136 138.158 36.724 135.544 42.3901C133.799 46.1675 130.455 48.3325 126.368 48.3325C124.919 48.3205 123.483 48.0611 122.121 47.5654C121.629 48.438 121.092 49.2847 120.512 50.1016C120.45 50.189 120.38 50.2706 120.302 50.3449C119.566 50.9989 118.605 51.3404 117.622 51.2975ZM125.952 39.1488C126.2 39.1238 126.438 39.0347 126.64 38.89C126.844 38.7454 127.006 38.5503 127.111 38.324C127.258 38.0424 127.296 37.7165 127.218 37.4085C127.172 37.2532 127.076 37.1171 126.946 37.0209L125.952 39.1488Z" fill="#45413C"/>
<path d="M133.996 62.7204C132.844 62.6981 131.72 62.3571 130.75 61.7348C128.99 60.6461 127.975 58.0811 129.266 55.9904C129.633 55.3937 130.132 54.8893 130.725 54.5161C131.317 54.1429 131.988 53.9107 132.684 53.8378C131.909 51.0088 133.645 47.8335 135.369 45.0376C135.781 44.3572 136.252 43.6438 136.726 42.9056C137.2 42.1674 137.74 41.3344 138.256 40.5014L138.953 39.2643L138.994 39.1901C139.08 39.0457 139.208 38.8272 139.328 38.6169C139.448 38.4066 139.596 38.1468 139.687 38.0024L139.872 37.7055C140.102 37.3176 140.379 36.9602 140.697 36.6416C140.776 36.565 140.861 36.496 140.953 36.4354C141.526 36.0517 142.201 35.8479 142.891 35.8498C143.875 35.8812 144.83 36.1868 145.65 36.7323C146.823 37.457 147.812 38.4454 148.536 39.6189C149.493 41.1241 149.695 42.8809 149.134 44.8397C148.804 45.9386 148.322 46.9865 147.703 47.9531C145.588 51.3759 141.658 55.1038 139.555 56.1471C139.083 56.3854 138.588 56.5759 138.078 56.7162C138.366 57.3186 138.498 57.9842 138.46 58.651C138.423 59.3174 138.218 59.964 137.864 60.5307C137.469 61.2041 136.904 61.7608 136.224 62.1455C135.545 62.5299 134.777 62.7282 133.996 62.7204Z" fill="#45413C"/>
<path d="M16.6656 41.6232L18.2863 44.3695C19.111 45.8005 19.9729 47.4912 20.7605 48.8397C21.041 49.3139 21.3255 49.4129 21.6142 49.3923C22.8925 49.3181 23.2884 49.3511 24.0142 50.5841C24.5462 51.4831 24.7771 52.5181 23.9853 53.2852C22.9195 54.1144 21.7887 54.8563 20.6038 55.5037C18.1296 56.9759 17.0656 57.3223 15.9769 55.4708C15.6058 54.8192 15.2305 54.0975 15.6429 53.4583C16.1007 52.6954 16.2862 52.1717 16.113 51.8088C14.9914 49.8995 13.8449 47.8912 12.5253 45.6479C12.146 45.0046 11.7542 44.2128 11.3418 43.5118C11.0329 42.9316 10.6427 42.3983 10.183 41.9283C10.0008 41.781 9.78459 41.6816 9.55411 41.6391C9.32367 41.5966 9.08623 41.6124 8.86342 41.685C8.21598 41.8005 7.62628 41.2727 7.14792 40.5056C6.83555 40.0387 6.63777 39.5046 6.57059 38.9468C6.54585 37.7551 8.15413 36.6953 9.45724 35.92L10.1047 35.5365C12.7109 34.0024 14.1501 33.6849 15.1439 35.1777L15.3254 35.4829C16.0512 36.72 15.7831 37.4829 15.1687 38.2953C15.0961 38.397 15.0538 38.5172 15.0465 38.6419C15.0392 38.7667 15.0673 38.8909 15.1274 39.0004C15.5934 39.8046 16.1873 40.7984 16.6656 41.6232Z" fill="#EDF2F4" stroke="#45413C" stroke-width="2.42" stroke-linecap="round" stroke-linejoin="round"/>
<path d="M34.6407 28.8394C32.0138 29.7013 31.42 32.8065 32.4468 35.9323C33.4077 38.8684 35.4407 40.2581 37.8737 39.4251C39.8738 38.7365 40.348 37.1736 40.0717 36.3076L40.0098 36.122L38.5789 36.5344C36.8964 37.054 36.5624 36.0313 36.3067 35.2601C35.6304 33.1982 37.5438 32.291 39.4449 31.6601C39.926 31.4904 40.4178 31.3526 40.9171 31.2477C42.4429 30.8807 43.3254 31.3796 44.0347 32.2786C44.5019 32.9726 44.8751 33.7256 45.144 34.5178L45.1935 34.6745C46.909 39.8994 43.3501 44.085 38.7727 45.4829C32.0179 47.5448 27.9808 42.0355 26.5993 37.8292C24.6735 31.9487 26.8426 25.4125 32.6571 23.5073C36.8964 22.1176 41.0985 23.4455 42.1666 26.6909C42.579 27.961 41.3418 28.7157 40.2408 29.0703C39.7043 29.2843 39.1191 29.3457 38.55 29.2476C37.3789 29.0456 36.6201 28.1961 34.6407 28.8394Z" fill="#EDF2F4" stroke="#45413C" stroke-width="2.42" stroke-linecap="round" stroke-linejoin="round"/>
<path d="M52.7167 26.3115L53.4919 29.4085C53.9043 31.0167 54.226 32.8807 54.6054 34.3982C54.7414 34.9343 54.9847 35.1075 55.2693 35.1694C56.5064 35.4622 56.8858 35.6065 57.2363 36.9921C57.4879 38.0065 57.4178 39.054 56.4363 39.5777C55.1798 40.0685 53.8862 40.4587 52.5682 40.7447C49.7599 41.4499 48.663 41.487 48.1393 39.4045C47.9578 38.6787 47.8259 37.8705 48.3702 37.3674C49.0259 36.7653 49.3475 36.3158 49.2857 35.9282C48.7455 33.7879 48.2217 31.5322 47.5867 29.0043C47.4052 28.2785 47.2527 27.4125 47.0547 26.6208C46.9232 25.9768 46.7009 25.3548 46.3949 24.7733C46.2621 24.5802 46.0831 24.4234 45.8741 24.3175C45.6654 24.2116 45.4328 24.1599 45.199 24.1671C44.5475 24.0929 44.1103 23.4331 43.8918 22.5465C43.7367 22.0105 43.7083 21.4458 43.8093 20.897C44.1268 19.7464 45.966 19.1856 47.4506 18.8351L48.1764 18.6536C51.1125 17.9196 52.5806 18.0186 53.1249 19.7341L53.2115 20.0805C53.5579 21.4702 53.0837 22.1423 52.2631 22.732C52.1645 22.8089 52.0903 22.9122 52.0486 23.0298C52.007 23.1474 52 23.2744 52.028 23.396C52.2053 24.262 52.4899 25.396 52.7167 26.3115Z" fill="#EDF2F4" stroke="#45413C" stroke-width="2.42" stroke-linecap="round" stroke-linejoin="round"/>
<path d="M66.4647 29.4909C67.0832 29.462 68.0565 26.1547 68.3204 24.9547L69.6647 20.2082C70.374 17.4659 71.5988 16.5257 73.1246 16.4473C74.8813 16.3607 76.1803 16.8845 76.3123 18.9216C76.4236 21.099 75.4215 23.9526 74.6628 26.0764L74.5762 26.3114C72.4524 32.1177 70.6586 38.6292 66.9224 38.8147H66.5966C63.1492 38.9879 62.0811 36.5343 60.7574 33.4538L60.5718 33.0043C59.5408 30.6785 57.1944 24.1464 56.2666 19.2721C56.2253 17.7422 57.5655 17.1855 58.7697 17.1236C60.1965 17.0535 61.6893 17.5649 62.3615 18.5752C63.0749 19.8123 63.5986 22.3278 64.2337 24.1217C64.9554 26.1382 65.4461 27.5486 65.8832 28.7321C66.0234 29.1238 66.2709 29.5032 66.4647 29.4909Z" fill="#EDF2F4" stroke="#45413C" stroke-width="2.42" stroke-linecap="round" stroke-linejoin="round"/>
<path d="M85.526 25.2517C87.6415 25.3342 89.5301 25.3796 89.4889 26.9755C89.4147 30.1013 86.1899 29.957 83.7816 30.159V30.5714C83.7816 31.5446 84.0579 32.6952 85.4311 32.955C86.0138 33.0324 86.6002 33.0792 87.1878 33.0952C88.4868 33.124 89.6621 32.8601 90.8704 32.889C91.1368 32.9021 91.3974 32.968 91.6382 33.0828C91.8786 33.1977 92.0939 33.3591 92.2716 33.5579C92.4494 33.7566 92.5859 33.9886 92.6729 34.2405C92.7603 34.4924 92.7966 34.7591 92.7797 35.0251C92.7013 38.4066 88.5198 38.9922 85.7693 38.9262C82.3836 38.8437 79.963 37.9406 78.8908 36.4808C77.6289 34.7571 77.2413 31.2312 77.3031 27.9776C77.4021 23.8538 78.5403 19.1815 80.9733 17.6475C82.2104 16.8598 84.7837 16.2083 87.5177 16.2743C89.992 16.332 92.7714 17.0495 92.7096 19.6846C92.7141 19.9618 92.6861 20.2386 92.6271 20.5094C91.7158 23.1898 84.7919 20.6455 84.062 23.2352C83.9804 23.5868 83.9391 23.9465 83.9383 24.3074C83.9276 24.6118 83.9412 24.9166 83.9795 25.2187L85.526 25.2517Z" fill="#EDF2F4" stroke="#45413C" stroke-width="2.42" stroke-linecap="round" stroke-linejoin="round"/>
<path d="M107.9 35.8168C109.422 36.2869 110.44 33.8745 110.956 32.6374C111.653 31.0456 112.812 27.1775 113.595 25.8537C114.457 24.3815 115.364 23.6393 117.138 24.2042C118.445 24.6166 118.808 25.6393 118.948 26.8393C119.179 28.8517 117.995 32.8147 117.554 34.2621C116.861 36.5013 115.517 38.8766 114.053 40.3035C112.23 42.0231 109.195 43.9118 105.492 42.7777C100.267 41.1653 99.6403 36.2374 100.333 32.225C100.752 29.9572 101.317 27.7189 102.024 25.5238C102.393 24.238 102.858 22.9821 103.418 21.7671C104.374 19.7794 106.609 19.3753 108.445 19.9444C108.713 20.0317 108.976 20.1349 109.232 20.2536C110.746 21.0784 110.605 23.0949 110.057 24.93C109.451 26.8929 108.341 29.6146 107.463 32.6827C106.861 34.4395 107.191 35.5941 107.9 35.8168Z" fill="#EDF2F4" stroke="#45413C" stroke-width="2.42" stroke-linecap="round" stroke-linejoin="round"/>
<path d="M122.705 43.9736C121.881 45.3551 121.299 46.4809 120.404 47.718C119.699 48.3943 118.149 48.2541 117.056 47.751C115.901 47.219 115.023 46.1675 115.357 45.1365C116.338 42.3013 117.476 39.5231 118.767 36.8147C120.239 33.6229 121.889 30.5136 123.472 27.6229C124.821 26.9548 127.374 27.4868 129.588 28.5095C134.054 30.5714 137.918 34.5426 135.262 40.3035C132.957 45.3015 127.728 46.2953 123.06 44.1386L122.705 43.9736ZM124.969 38.6127C125.002 38.8437 125.382 39.1653 125.658 39.289C126.048 39.4842 126.473 39.599 126.908 39.6264C127.343 39.6539 127.78 39.5935 128.191 39.4488C128.602 39.3041 128.98 39.0781 129.303 38.7843C129.625 38.4905 129.885 38.1348 130.066 37.7385C130.751 36.2581 130.318 34.6292 128.784 33.9199C128.31 33.6778 127.771 33.5926 127.246 33.6766L124.969 38.6127Z" fill="#EDF2F4" stroke="#45413C" stroke-width="2.42" stroke-linecap="round" stroke-linejoin="round"/>
<path d="M146.496 36.9095C147.434 37.4816 148.224 38.2672 148.801 39.2023C149.564 40.3776 149.626 41.6436 149.214 43.0128C148.927 43.9563 148.51 44.8557 147.977 45.685C145.915 49.0047 142.203 52.3862 140.554 53.215C139.477 53.7511 138.199 54.0769 137.255 53.4872C136.861 53.2711 136.548 52.9322 136.364 52.5222C135.44 50.4604 136.706 47.8129 138.669 44.6376C139.535 43.2314 140.558 41.7137 141.576 40.0683L142.294 38.7735C142.475 38.4724 142.818 37.8539 142.983 37.5858L143.168 37.2889C143.327 37.024 143.518 36.7802 143.737 36.5631C144.504 36.0477 145.544 36.3157 146.496 36.9095ZM137.011 54.7903C138.249 55.5491 138.933 56.9718 138.137 58.2584C137.044 60.0234 135.007 59.842 133.453 58.8811C132.525 58.3079 131.803 56.8192 132.545 55.5821C132.865 55.0864 133.326 54.6975 133.868 54.4646C134.41 54.2316 135.009 54.1656 135.589 54.2749C136.096 54.345 136.584 54.5206 137.02 54.7903H137.011Z" fill="#EDF2F4" stroke="#45413C" stroke-width="2.42" stroke-linecap="round" stroke-linejoin="round"/>
</svg>
